<svg width="16" height="16" viewBox="0 0 16 16" fill="none" xmlns="http://www.w3.org/2000/svg">
<path d="M6.16661 3.33464L8.33327 1.16797L10.4999 3.33464H6.16661ZM10.4999 12.668L8.33327 14.8346L6.16661 12.668H10.4999ZM5.92661 9.53463H3.99994L3.51994 11.3346H1.93994L3.99994 4.66797H5.99994L8.08661 11.3346H6.44661L5.92661 9.53463ZM4.21994 8.45464H5.70661L5.28661 7.0413L5.11328 6.39464L4.94661 5.75464H4.92661L4.77994 6.4013L4.61994 7.05464L4.21994 8.45464ZM8.69994 11.3346V10.4946L11.8666 5.9813V5.9413H8.99994V4.66797H13.8199V5.5613L10.7266 10.0013V10.0546H13.8666V11.3346H8.69994Z" fill="black" fill-opacity="0.5"/>
</svg>
