<svg width="24" height="24" viewBox="0 0 24 24" fill="none" xmlns="http://www.w3.org/2000/svg">
<path d="M7.1263 5.26578C8.12439 5.26578 8.9335 4.45667 8.9335 3.45857C8.9335 2.46048 8.12439 1.65137 7.1263 1.65137C6.12821 1.65137 5.31909 2.46048 5.31909 3.45857C5.31909 4.45667 6.12821 5.26578 7.1263 5.26578Z" fill="#A2792C"/>
<path d="M9.46686 5.84153C9.00138 5.84153 6.01932 5.84153 5.5429 5.84153L2.8061 4.80202L1.69445 1.65323C1.53416 1.19912 1.03611 0.960955 0.581913 1.12125C0.127809 1.2816 -0.110357 1.77969 0.0499868 2.23379L1.29627 5.7639C1.38161 6.00573 1.56912 6.1977 1.80888 6.28877L4.80678 7.42744V17.4119L1.65841 17.6571C1.08226 17.702 0.651559 18.2054 0.696391 18.7816C0.741083 19.3553 1.24185 19.7883 1.82087 19.7436L5.93525 19.4232C6.48001 19.3808 6.90042 18.9264 6.90042 18.38V14.1981H7.35222V22.562C7.35222 23.1398 7.8207 23.6083 8.39859 23.6083C8.97648 23.6083 9.44496 23.1398 9.44496 22.562C9.44496 22.5548 9.43636 7.5907 9.43636 7.58558H9.46695C9.65023 7.58558 9.81791 7.73713 9.8187 7.89917V14.3053C9.8187 14.7869 10.2091 15.1773 10.6907 15.1773C11.1722 15.1773 11.5627 14.7869 11.5627 14.3053V7.8947C11.5569 6.76262 10.6168 5.84153 9.46686 5.84153Z" fill="#A2792C"/>
<path d="M23.8046 2.70778C23.5125 2.36604 22.9986 2.32586 22.6569 2.61798L17.5372 6.99473H16.7793C16.5132 7.10578 16.2214 7.16734 15.9155 7.16734C14.6795 7.16734 13.6644 6.16209 13.6644 4.91622C13.6644 4.74094 13.6852 4.57053 13.7233 4.40671L11.8906 0.835206C11.6853 0.435191 11.1947 0.277244 10.7946 0.482562C10.3946 0.687832 10.2367 1.1785 10.442 1.57851L13.7176 7.96191L12.6731 16.2093C12.6251 16.4865 12.8396 16.7393 13.1187 16.7393H13.7508V22.6047C13.7508 23.1442 14.1882 23.5816 14.7277 23.5816C15.2672 23.5816 15.7045 23.1443 15.7045 22.6047V16.7393H16.1264V18.7005C16.1264 19.1699 16.4603 19.5729 16.9215 19.6603C20.3001 20.2942 20.2016 20.2964 20.3726 20.2964C20.8327 20.2964 21.2426 19.9698 21.3313 19.5011C21.4317 18.971 21.0834 18.4599 20.5533 18.3595L18.0801 17.8912V16.7393H18.7122C18.9928 16.7393 19.2058 16.4863 19.1578 16.2093L18.0552 8.59314C18.0552 8.59314 22.8477 4.59084 23.7148 3.85557C24.0566 3.5634 24.0968 3.04952 23.8046 2.70778Z" fill="#A2792C"/>
<path d="M16.1832 6.58399C17.1029 6.4349 17.7276 5.56848 17.5785 4.64879C17.4294 3.7291 16.563 3.1044 15.6433 3.25349C14.7236 3.40258 14.0989 4.269 14.248 5.18869C14.3971 6.10838 15.2635 6.73308 16.1832 6.58399Z" fill="#A2792C"/>
</svg>
