<svg width="237" height="175" viewBox="0 0 237 175" fill="none" xmlns="http://www.w3.org/2000/svg">
<rect x="0.5" y="0.5" width="236" height="174" rx="8.5" stroke="#A2792C" stroke-dasharray="10 10"/>
<path fill-rule="evenodd" clip-rule="evenodd" d="M107 58C107 51.3724 112.372 46 119 46C125.628 46 131 51.3724 131 58C131 64.6276 125.628 70 119 70C112.372 70 107 64.6276 107 58ZM119 48.4C116.454 48.4 114.012 49.4114 112.212 51.2118C110.411 53.0121 109.4 55.4539 109.4 58C109.4 60.5461 110.411 62.9879 112.212 64.7882C114.012 66.5886 116.454 67.6 119 67.6C121.546 67.6 123.988 66.5886 125.788 64.7882C127.589 62.9879 128.6 60.5461 128.6 58C128.6 55.4539 127.589 53.0121 125.788 51.2118C123.988 49.4114 121.546 48.4 119 48.4Z" fill="#A2792C"/>
<path fill-rule="evenodd" clip-rule="evenodd" d="M120.2 51.9999C120.2 51.6817 120.073 51.3764 119.848 51.1514C119.623 50.9264 119.318 50.7999 119 50.7999C118.682 50.7999 118.376 50.9264 118.151 51.1514C117.926 51.3764 117.8 51.6817 117.8 51.9999V56.7999H113C112.682 56.7999 112.376 56.9264 112.151 57.1514C111.926 57.3764 111.8 57.6817 111.8 57.9999C111.8 58.3182 111.926 58.6234 112.151 58.8485C112.376 59.0735 112.682 59.1999 113 59.1999H117.8V63.9999C117.8 64.3182 117.926 64.6234 118.151 64.8485C118.376 65.0735 118.682 65.1999 119 65.1999C119.318 65.1999 119.623 65.0735 119.848 64.8485C120.073 64.6234 120.2 64.3182 120.2 63.9999V59.1999H125C125.318 59.1999 125.623 59.0735 125.848 58.8485C126.073 58.6234 126.2 58.3182 126.2 57.9999C126.2 57.6817 126.073 57.3764 125.848 57.1514C125.623 56.9264 125.318 56.7999 125 56.7999H120.2V51.9999Z" fill="#A2792C"/>
<path d="M83.672 100.732H78.772L77.806 103H75.93L80.34 93.2H82.132L86.556 103H84.652L83.672 100.732ZM83.07 99.304L81.222 95.02L79.388 99.304H83.07ZM94.888 92.612V103H93.208V102.034C92.9186 102.389 92.5593 102.655 92.13 102.832C91.71 103.009 91.2433 103.098 90.73 103.098C90.0113 103.098 89.3626 102.939 88.784 102.622C88.2146 102.305 87.7666 101.857 87.44 101.278C87.1133 100.69 86.95 100.018 86.95 99.262C86.95 98.506 87.1133 97.8387 87.44 97.26C87.7666 96.6813 88.2146 96.2333 88.784 95.916C89.3626 95.5987 90.0113 95.44 90.73 95.44C91.2246 95.44 91.6773 95.524 92.088 95.692C92.4986 95.86 92.8486 96.112 93.138 96.448V92.612H94.888ZM90.94 101.6C91.36 101.6 91.738 101.507 92.074 101.32C92.41 101.124 92.676 100.849 92.872 100.494C93.068 100.139 93.166 99.7287 93.166 99.262C93.166 98.7953 93.068 98.3847 92.872 98.03C92.676 97.6753 92.41 97.4047 92.074 97.218C91.738 97.022 91.36 96.924 90.94 96.924C90.52 96.924 90.142 97.022 89.806 97.218C89.47 97.4047 89.204 97.6753 89.008 98.03C88.812 98.3847 88.714 98.7953 88.714 99.262C88.714 99.7287 88.812 100.139 89.008 100.494C89.204 100.849 89.47 101.124 89.806 101.32C90.142 101.507 90.52 101.6 90.94 101.6ZM104.499 92.612V103H102.819V102.034C102.53 102.389 102.171 102.655 101.741 102.832C101.321 103.009 100.855 103.098 100.341 103.098C99.6226 103.098 98.974 102.939 98.3953 102.622C97.826 102.305 97.378 101.857 97.0513 101.278C96.7246 100.69 96.5613 100.018 96.5613 99.262C96.5613 98.506 96.7246 97.8387 97.0513 97.26C97.378 96.6813 97.826 96.2333 98.3953 95.916C98.974 95.5987 99.6226 95.44 100.341 95.44C100.836 95.44 101.289 95.524 101.699 95.692C102.11 95.86 102.46 96.112 102.749 96.448V92.612H104.499ZM100.551 101.6C100.971 101.6 101.349 101.507 101.685 101.32C102.021 101.124 102.287 100.849 102.483 100.494C102.679 100.139 102.777 99.7287 102.777 99.262C102.777 98.7953 102.679 98.3847 102.483 98.03C102.287 97.6753 102.021 97.4047 101.685 97.218C101.349 97.022 100.971 96.924 100.551 96.924C100.131 96.924 99.7533 97.022 99.4173 97.218C99.0813 97.4047 98.8153 97.6753 98.6193 98.03C98.4233 98.3847 98.3253 98.7953 98.3253 99.262C98.3253 99.7287 98.4233 100.139 98.6193 100.494C98.8153 100.849 99.0813 101.124 99.4173 101.32C99.7533 101.507 100.131 101.6 100.551 101.6ZM114.858 93.2C115.707 93.2 116.444 93.34 117.07 93.62C117.704 93.9 118.19 94.3013 118.526 94.824C118.862 95.3467 119.03 95.9673 119.03 96.686C119.03 97.3953 118.862 98.016 118.526 98.548C118.19 99.0707 117.704 99.472 117.07 99.752C116.444 100.032 115.707 100.172 114.858 100.172H112.646V103H110.826V93.2H114.858ZM114.774 98.632C115.567 98.632 116.169 98.464 116.58 98.128C116.99 97.792 117.196 97.3113 117.196 96.686C117.196 96.0607 116.99 95.58 116.58 95.244C116.169 94.908 115.567 94.74 114.774 94.74H112.646V98.632H114.774ZM125.058 95.44C126.001 95.44 126.757 95.7153 127.326 96.266C127.895 96.8167 128.18 97.6333 128.18 98.716V103H126.43V98.94C126.43 98.2867 126.276 97.7967 125.968 97.47C125.66 97.134 125.221 96.966 124.652 96.966C124.008 96.966 123.499 97.162 123.126 97.554C122.753 97.9367 122.566 98.492 122.566 99.22V103H120.816V92.612H122.566V96.392C122.855 96.084 123.21 95.8507 123.63 95.692C124.059 95.524 124.535 95.44 125.058 95.44ZM133.828 103.098C133.072 103.098 132.391 102.935 131.784 102.608C131.178 102.281 130.702 101.829 130.356 101.25C130.02 100.662 129.852 99.9993 129.852 99.262C129.852 98.5247 130.02 97.8667 130.356 97.288C130.702 96.7093 131.178 96.2567 131.784 95.93C132.391 95.6033 133.072 95.44 133.828 95.44C134.594 95.44 135.28 95.6033 135.886 95.93C136.493 96.2567 136.964 96.7093 137.3 97.288C137.646 97.8667 137.818 98.5247 137.818 99.262C137.818 99.9993 137.646 100.662 137.3 101.25C136.964 101.829 136.493 102.281 135.886 102.608C135.28 102.935 134.594 103.098 133.828 103.098ZM133.828 101.6C134.472 101.6 135.004 101.385 135.424 100.956C135.844 100.527 136.054 99.962 136.054 99.262C136.054 98.562 135.844 97.9973 135.424 97.568C135.004 97.1387 134.472 96.924 133.828 96.924C133.184 96.924 132.652 97.1387 132.232 97.568C131.822 97.9973 131.616 98.562 131.616 99.262C131.616 99.962 131.822 100.527 132.232 100.956C132.652 101.385 133.184 101.6 133.828 101.6ZM143.986 102.594C143.78 102.762 143.528 102.888 143.23 102.972C142.94 103.056 142.632 103.098 142.306 103.098C141.484 103.098 140.85 102.883 140.402 102.454C139.954 102.025 139.73 101.399 139.73 100.578V96.98H138.498V95.58H139.73V93.872H141.48V95.58H143.482V96.98H141.48V100.536C141.48 100.9 141.568 101.18 141.746 101.376C141.923 101.563 142.18 101.656 142.516 101.656C142.908 101.656 143.234 101.553 143.496 101.348L143.986 102.594ZM148.539 103.098C147.783 103.098 147.102 102.935 146.495 102.608C145.889 102.281 145.413 101.829 145.067 101.25C144.731 100.662 144.563 99.9993 144.563 99.262C144.563 98.5247 144.731 97.8667 145.067 97.288C145.413 96.7093 145.889 96.2567 146.495 95.93C147.102 95.6033 147.783 95.44 148.539 95.44C149.305 95.44 149.991 95.6033 150.597 95.93C151.204 96.2567 151.675 96.7093 152.011 97.288C152.357 97.8667 152.529 98.5247 152.529 99.262C152.529 99.9993 152.357 100.662 152.011 101.25C151.675 101.829 151.204 102.281 150.597 102.608C149.991 102.935 149.305 103.098 148.539 103.098ZM148.539 101.6C149.183 101.6 149.715 101.385 150.135 100.956C150.555 100.527 150.765 99.962 150.765 99.262C150.765 98.562 150.555 97.9973 150.135 97.568C149.715 97.1387 149.183 96.924 148.539 96.924C147.895 96.924 147.363 97.1387 146.943 97.568C146.533 97.9973 146.327 98.562 146.327 99.262C146.327 99.962 146.533 100.527 146.943 100.956C147.363 101.385 147.895 101.6 148.539 101.6ZM156.513 103.098C155.906 103.098 155.313 103.019 154.735 102.86C154.156 102.701 153.694 102.501 153.349 102.258L154.021 100.928C154.357 101.152 154.758 101.334 155.225 101.474C155.701 101.605 156.167 101.67 156.625 101.67C157.67 101.67 158.193 101.395 158.193 100.844C158.193 100.583 158.057 100.401 157.787 100.298C157.525 100.195 157.101 100.097 156.513 100.004C155.897 99.9107 155.393 99.8033 155.001 99.682C154.618 99.5607 154.282 99.3507 153.993 99.052C153.713 98.744 153.573 98.3193 153.573 97.778C153.573 97.0687 153.867 96.504 154.455 96.084C155.052 95.6547 155.855 95.44 156.863 95.44C157.376 95.44 157.889 95.5007 158.403 95.622C158.916 95.734 159.336 95.888 159.663 96.084L158.991 97.414C158.356 97.0407 157.642 96.854 156.849 96.854C156.335 96.854 155.943 96.9333 155.673 97.092C155.411 97.2413 155.281 97.442 155.281 97.694C155.281 97.974 155.421 98.1747 155.701 98.296C155.99 98.408 156.433 98.5153 157.031 98.618C157.628 98.7113 158.118 98.8187 158.501 98.94C158.883 99.0613 159.21 99.2667 159.481 99.556C159.761 99.8453 159.901 100.256 159.901 100.788C159.901 101.488 159.597 102.048 158.991 102.468C158.384 102.888 157.558 103.098 156.513 103.098Z" fill="#4F4F4F" fill-opacity="0.63"/>
</svg>
