<svg width="18" height="18" viewBox="0 0 18 18" fill="none" xmlns="http://www.w3.org/2000/svg">
<path fill-rule="evenodd" clip-rule="evenodd" d="M0 9C0 4.0293 4.0293 0 9 0C13.9707 0 18 4.0293 18 9C18 13.9707 13.9707 18 9 18C4.0293 18 0 13.9707 0 9ZM9 1.8C7.09044 1.8 5.25909 2.55857 3.90883 3.90883C2.55857 5.25909 1.8 7.09044 1.8 9C1.8 10.9096 2.55857 12.7409 3.90883 14.0912C5.25909 15.4414 7.09044 16.2 9 16.2C10.9096 16.2 12.7409 15.4414 14.0912 14.0912C15.4414 12.7409 16.2 10.9096 16.2 9C16.2 7.09044 15.4414 5.25909 14.0912 3.90883C12.7409 2.55857 10.9096 1.8 9 1.8Z" fill="#A2792C"/>
<path fill-rule="evenodd" clip-rule="evenodd" d="M9.90071 4.50059C9.90071 4.26189 9.80589 4.03297 9.6371 3.86419C9.46832 3.69541 9.2394 3.60059 9.00071 3.60059C8.76201 3.60059 8.53309 3.69541 8.36431 3.86419C8.19553 4.03297 8.10071 4.26189 8.10071 4.50059V8.10059H4.50071C4.26201 8.10059 4.03309 8.19541 3.86431 8.36419C3.69553 8.53297 3.60071 8.76189 3.60071 9.00059C3.60071 9.23928 3.69553 9.4682 3.86431 9.63698C4.03309 9.80576 4.26201 9.90059 4.50071 9.90059H8.10071V13.5006C8.10071 13.7393 8.19553 13.9682 8.36431 14.137C8.53309 14.3058 8.76201 14.4006 9.00071 14.4006C9.2394 14.4006 9.46832 14.3058 9.6371 14.137C9.80589 13.9682 9.90071 13.7393 9.90071 13.5006V9.90059H13.5007C13.7394 9.90059 13.9683 9.80576 14.1371 9.63698C14.3059 9.4682 14.4007 9.23928 14.4007 9.00059C14.4007 8.76189 14.3059 8.53297 14.1371 8.36419C13.9683 8.19541 13.7394 8.10059 13.5007 8.10059H9.90071V4.50059Z" fill="#A2792C"/>
</svg>
