<svg width="237" height="175" viewBox="0 0 237 175" fill="none" xmlns="http://www.w3.org/2000/svg">
<rect x="0.5" y="0.5" width="236" height="174" rx="8.5" stroke="#A2792C" stroke-dasharray="10 10"/>
<path fill-rule="evenodd" clip-rule="evenodd" d="M108 58C108 51.3724 113.372 46 120 46C126.628 46 132 51.3724 132 58C132 64.6276 126.628 70 120 70C113.372 70 108 64.6276 108 58ZM120 48.4C117.454 48.4 115.012 49.4114 113.212 51.2118C111.411 53.0121 110.4 55.4539 110.4 58C110.4 60.5461 111.411 62.9879 113.212 64.7882C115.012 66.5886 117.454 67.6 120 67.6C122.546 67.6 124.988 66.5886 126.788 64.7882C128.589 62.9879 129.6 60.5461 129.6 58C129.6 55.4539 128.589 53.0121 126.788 51.2118C124.988 49.4114 122.546 48.4 120 48.4Z" fill="#A2792C"/>
<path fill-rule="evenodd" clip-rule="evenodd" d="M121.2 51.9999C121.2 51.6817 121.073 51.3764 120.848 51.1514C120.623 50.9264 120.318 50.7999 120 50.7999C119.682 50.7999 119.376 50.9264 119.151 51.1514C118.926 51.3764 118.8 51.6817 118.8 51.9999V56.7999H114C113.682 56.7999 113.376 56.9264 113.151 57.1514C112.926 57.3764 112.8 57.6817 112.8 57.9999C112.8 58.3182 112.926 58.6234 113.151 58.8485C113.376 59.0735 113.682 59.1999 114 59.1999H118.8V63.9999C118.8 64.3182 118.926 64.6234 119.151 64.8485C119.376 65.0735 119.682 65.1999 120 65.1999C120.318 65.1999 120.623 65.0735 120.848 64.8485C121.073 64.6234 121.2 64.3182 121.2 63.9999V59.1999H126C126.318 59.1999 126.623 59.0735 126.848 58.8485C127.073 58.6234 127.2 58.3182 127.2 57.9999C127.2 57.6817 127.073 57.3764 126.848 57.1514C126.623 56.9264 126.318 56.7999 126 56.7999H121.2V51.9999Z" fill="#A2792C"/>
<path d="M84.672 100.732H79.772L78.806 103H76.93L81.34 93.2H83.132L87.556 103H85.652L84.672 100.732ZM84.07 99.304L82.222 95.02L80.388 99.304H84.07ZM95.888 92.612V103H94.208V102.034C93.9186 102.389 93.5593 102.655 93.13 102.832C92.71 103.009 92.2433 103.098 91.73 103.098C91.0113 103.098 90.3626 102.939 89.784 102.622C89.2146 102.305 88.7666 101.857 88.44 101.278C88.1133 100.69 87.95 100.018 87.95 99.262C87.95 98.506 88.1133 97.8387 88.44 97.26C88.7666 96.6813 89.2146 96.2333 89.784 95.916C90.3626 95.5987 91.0113 95.44 91.73 95.44C92.2246 95.44 92.6773 95.524 93.088 95.692C93.4986 95.86 93.8486 96.112 94.138 96.448V92.612H95.888ZM91.94 101.6C92.36 101.6 92.738 101.507 93.074 101.32C93.41 101.124 93.676 100.849 93.872 100.494C94.068 100.139 94.166 99.7287 94.166 99.262C94.166 98.7953 94.068 98.3847 93.872 98.03C93.676 97.6753 93.41 97.4047 93.074 97.218C92.738 97.022 92.36 96.924 91.94 96.924C91.52 96.924 91.142 97.022 90.806 97.218C90.47 97.4047 90.204 97.6753 90.008 98.03C89.812 98.3847 89.714 98.7953 89.714 99.262C89.714 99.7287 89.812 100.139 90.008 100.494C90.204 100.849 90.47 101.124 90.806 101.32C91.142 101.507 91.52 101.6 91.94 101.6ZM105.499 92.612V103H103.819V102.034C103.53 102.389 103.171 102.655 102.741 102.832C102.321 103.009 101.855 103.098 101.341 103.098C100.623 103.098 99.974 102.939 99.3953 102.622C98.826 102.305 98.378 101.857 98.0513 101.278C97.7246 100.69 97.5613 100.018 97.5613 99.262C97.5613 98.506 97.7246 97.8387 98.0513 97.26C98.378 96.6813 98.826 96.2333 99.3953 95.916C99.974 95.5987 100.623 95.44 101.341 95.44C101.836 95.44 102.289 95.524 102.699 95.692C103.11 95.86 103.46 96.112 103.749 96.448V92.612H105.499ZM101.551 101.6C101.971 101.6 102.349 101.507 102.685 101.32C103.021 101.124 103.287 100.849 103.483 100.494C103.679 100.139 103.777 99.7287 103.777 99.262C103.777 98.7953 103.679 98.3847 103.483 98.03C103.287 97.6753 103.021 97.4047 102.685 97.218C102.349 97.022 101.971 96.924 101.551 96.924C101.131 96.924 100.753 97.022 100.417 97.218C100.081 97.4047 99.8153 97.6753 99.6193 98.03C99.4233 98.3847 99.3253 98.7953 99.3253 99.262C99.3253 99.7287 99.4233 100.139 99.6193 100.494C99.8153 100.849 100.081 101.124 100.417 101.32C100.753 101.507 101.131 101.6 101.551 101.6ZM120.786 93.2L116.516 103H114.724L110.44 93.2H112.414L115.676 100.76L118.966 93.2H120.786ZM121.72 95.524H123.47V103H121.72V95.524ZM122.602 94.292C122.285 94.292 122.019 94.194 121.804 93.998C121.59 93.7927 121.482 93.5407 121.482 93.242C121.482 92.9433 121.59 92.696 121.804 92.5C122.019 92.2947 122.285 92.192 122.602 92.192C122.92 92.192 123.186 92.29 123.4 92.486C123.615 92.6727 123.722 92.9107 123.722 93.2C123.722 93.508 123.615 93.7693 123.4 93.984C123.195 94.1893 122.929 94.292 122.602 94.292ZM133.089 92.612V103H131.409V102.034C131.12 102.389 130.76 102.655 130.331 102.832C129.911 103.009 129.444 103.098 128.931 103.098C128.212 103.098 127.564 102.939 126.985 102.622C126.416 102.305 125.968 101.857 125.641 101.278C125.314 100.69 125.151 100.018 125.151 99.262C125.151 98.506 125.314 97.8387 125.641 97.26C125.968 96.6813 126.416 96.2333 126.985 95.916C127.564 95.5987 128.212 95.44 128.931 95.44C129.426 95.44 129.878 95.524 130.289 95.692C130.7 95.86 131.05 96.112 131.339 96.448V92.612H133.089ZM129.141 101.6C129.561 101.6 129.939 101.507 130.275 101.32C130.611 101.124 130.877 100.849 131.073 100.494C131.269 100.139 131.367 99.7287 131.367 99.262C131.367 98.7953 131.269 98.3847 131.073 98.03C130.877 97.6753 130.611 97.4047 130.275 97.218C129.939 97.022 129.561 96.924 129.141 96.924C128.721 96.924 128.343 97.022 128.007 97.218C127.671 97.4047 127.405 97.6753 127.209 98.03C127.013 98.3847 126.915 98.7953 126.915 99.262C126.915 99.7287 127.013 100.139 127.209 100.494C127.405 100.849 127.671 101.124 128.007 101.32C128.343 101.507 128.721 101.6 129.141 101.6ZM142.406 99.304C142.406 99.4253 142.397 99.598 142.378 99.822H136.512C136.615 100.373 136.881 100.811 137.31 101.138C137.749 101.455 138.29 101.614 138.934 101.614C139.756 101.614 140.432 101.343 140.964 100.802L141.902 101.88C141.566 102.281 141.142 102.585 140.628 102.79C140.115 102.995 139.536 103.098 138.892 103.098C138.071 103.098 137.348 102.935 136.722 102.608C136.097 102.281 135.612 101.829 135.266 101.25C134.93 100.662 134.762 99.9993 134.762 99.262C134.762 98.534 134.926 97.8807 135.252 97.302C135.588 96.714 136.05 96.2567 136.638 95.93C137.226 95.6033 137.889 95.44 138.626 95.44C139.354 95.44 140.003 95.6033 140.572 95.93C141.151 96.2473 141.599 96.7 141.916 97.288C142.243 97.8667 142.406 98.5387 142.406 99.304ZM138.626 96.84C138.066 96.84 137.59 97.008 137.198 97.344C136.816 97.6707 136.582 98.1093 136.498 98.66H140.74C140.666 98.1187 140.437 97.68 140.054 97.344C139.672 97.008 139.196 96.84 138.626 96.84ZM147.447 103.098C146.691 103.098 146.01 102.935 145.403 102.608C144.797 102.281 144.321 101.829 143.975 101.25C143.639 100.662 143.471 99.9993 143.471 99.262C143.471 98.5247 143.639 97.8667 143.975 97.288C144.321 96.7093 144.797 96.2567 145.403 95.93C146.01 95.6033 146.691 95.44 147.447 95.44C148.213 95.44 148.899 95.6033 149.505 95.93C150.112 96.2567 150.583 96.7093 150.919 97.288C151.265 97.8667 151.437 98.5247 151.437 99.262C151.437 99.9993 151.265 100.662 150.919 101.25C150.583 101.829 150.112 102.281 149.505 102.608C148.899 102.935 148.213 103.098 147.447 103.098ZM147.447 101.6C148.091 101.6 148.623 101.385 149.043 100.956C149.463 100.527 149.673 99.962 149.673 99.262C149.673 98.562 149.463 97.9973 149.043 97.568C148.623 97.1387 148.091 96.924 147.447 96.924C146.803 96.924 146.271 97.1387 145.851 97.568C145.441 97.9973 145.235 98.562 145.235 99.262C145.235 99.962 145.441 100.527 145.851 100.956C146.271 101.385 146.803 101.6 147.447 101.6ZM155.421 103.098C154.814 103.098 154.222 103.019 153.643 102.86C153.064 102.701 152.602 102.501 152.257 102.258L152.929 100.928C153.265 101.152 153.666 101.334 154.133 101.474C154.609 101.605 155.076 101.67 155.533 101.67C156.578 101.67 157.101 101.395 157.101 100.844C157.101 100.583 156.966 100.401 156.695 100.298C156.434 100.195 156.009 100.097 155.421 100.004C154.805 99.9107 154.301 99.8033 153.909 99.682C153.526 99.5607 153.19 99.3507 152.901 99.052C152.621 98.744 152.481 98.3193 152.481 97.778C152.481 97.0687 152.775 96.504 153.363 96.084C153.96 95.6547 154.763 95.44 155.771 95.44C156.284 95.44 156.798 95.5007 157.311 95.622C157.824 95.734 158.244 95.888 158.571 96.084L157.899 97.414C157.264 97.0407 156.55 96.854 155.757 96.854C155.244 96.854 154.852 96.9333 154.581 97.092C154.32 97.2413 154.189 97.442 154.189 97.694C154.189 97.974 154.329 98.1747 154.609 98.296C154.898 98.408 155.342 98.5153 155.939 98.618C156.536 98.7113 157.026 98.8187 157.409 98.94C157.792 99.0613 158.118 99.2667 158.389 99.556C158.669 99.8453 158.809 100.256 158.809 100.788C158.809 101.488 158.506 102.048 157.899 102.468C157.292 102.888 156.466 103.098 155.421 103.098Z" fill="#4F4F4F" fill-opacity="0.63"/>
</svg>
