<svg width="61" height="54" viewBox="0 0 61 54" fill="none" xmlns="http://www.w3.org/2000/svg">
<path fill-rule="evenodd" clip-rule="evenodd" d="M30.2562 4.24821C30.169 4.30048 30.0978 4.37562 30.0503 4.46548L3.91348 48.9366C3.84837 49.041 3.81322 49.1613 3.81188 49.2843C3.81053 49.4074 3.84305 49.5284 3.90586 49.6342C3.96685 49.7485 4.04689 49.8248 4.11169 49.8629C4.16887 49.901 4.24129 49.9277 4.36327 49.9277H56.6332C56.7215 49.9308 56.8089 49.9083 56.8847 49.8629C56.9728 49.8056 57.045 49.7269 57.0944 49.6342C57.1566 49.528 57.1885 49.4068 57.1865 49.2838C57.1845 49.1608 57.1486 49.0407 57.083 48.9366L30.9499 4.46548C30.9024 4.37562 30.8312 4.30048 30.7441 4.24821C30.6694 4.20724 30.5853 4.18624 30.5001 4.18722C30.4149 4.18624 30.3309 4.20724 30.2562 4.24821ZM34.2356 2.53294C33.8583 1.87567 33.3142 1.32959 32.6583 0.949836C32.0025 0.570088 31.258 0.370117 30.5001 0.370117C29.7422 0.370117 28.9978 0.570088 28.3419 0.949836C27.686 1.32959 27.142 1.87567 26.7647 2.53294L0.627795 47.0041C-1.11415 49.9696 0.97466 53.7394 4.36327 53.7394H56.6332C60.0218 53.7394 62.1144 49.9658 60.3686 47.0041L34.2356 2.53294Z" fill="white"/>
<path d="M26.688 42.3035C26.688 41.803 26.7866 41.3073 26.9781 40.8449C27.1697 40.3824 27.4505 39.9622 27.8044 39.6082C28.1584 39.2543 28.5786 38.9735 29.041 38.782C29.5035 38.5904 29.9991 38.4918 30.4997 38.4918C31.0003 38.4918 31.4959 38.5904 31.9584 38.782C32.4208 38.9735 32.841 39.2543 33.195 39.6082C33.5489 39.9622 33.8297 40.3824 34.0212 40.8449C34.2128 41.3073 34.3114 41.803 34.3114 42.3035C34.3114 43.3145 33.9098 44.284 33.195 44.9988C32.4801 45.7136 31.5106 46.1152 30.4997 46.1152C29.4888 46.1152 28.5192 45.7136 27.8044 44.9988C27.0896 44.284 26.688 43.3145 26.688 42.3035ZM27.0615 19.4142C27.0108 18.9334 27.0617 18.4472 27.211 17.9872C27.3602 17.5273 27.6045 17.1039 27.928 16.7445C28.2515 16.3851 28.6469 16.0977 29.0886 15.9009C29.5304 15.7042 30.0085 15.6025 30.4921 15.6025C30.9756 15.6025 31.4538 15.7042 31.8955 15.9009C32.3372 16.0977 32.7327 16.3851 33.0561 16.7445C33.3796 17.1039 33.6239 17.5273 33.7732 17.9872C33.9225 18.4472 33.9734 18.9334 33.9226 19.4142L32.5885 32.7819C32.5437 33.307 32.3034 33.7962 31.9152 34.1527C31.527 34.5092 31.0191 34.707 30.4921 34.707C29.965 34.707 29.4572 34.5092 29.0689 34.1527C28.6807 33.7962 28.4405 33.307 28.3956 32.7819L27.0615 19.4142Z" fill="white"/>
</svg>
