<svg width="24" height="24" viewBox="0 0 24 24" fill="none" xmlns="http://www.w3.org/2000/svg">
<path d="M12.0001 0C6.2705 0 1.6001 4.6704 1.6001 10.4C1.6001 14.1056 3.5601 17.3568 6.4913 19.2H6.4001L4.8001 22.4H19.2001L17.6001 19.2H17.5089C20.4401 17.3568 22.4001 14.1056 22.4001 10.4C22.4001 4.6704 17.7297 0 12.0001 0ZM11.8001 2.4096V8.0096C11.3027 8.05129 10.8306 8.24704 10.4497 8.5696L6.4913 4.608C7.92496 3.2388 9.81819 2.45424 11.8001 2.408V2.4096ZM12.2001 2.4096C14.2641 2.4608 16.1201 3.2896 17.5089 4.6096L13.5521 8.5696L13.5489 8.5664C13.1684 8.24561 12.6976 8.05103 12.2017 8.0096V2.4096H12.2001ZM6.2097 4.8896L10.1697 8.8496L10.1665 8.8528C9.84571 9.23328 9.65113 9.70407 9.6097 10.2H4.0097C4.0609 8.136 4.8897 6.28 6.2097 4.8912V4.8896ZM17.7905 4.8896C19.1601 6.32367 19.9447 8.21754 19.9905 10.2H14.3905C14.3488 9.70258 14.1531 9.23055 13.8305 8.8496L17.7905 4.8912V4.8896ZM4.0097 10.6016H9.6097C9.65139 11.099 9.84714 11.5711 10.1697 11.952L6.2081 15.9088C4.8389 14.4751 4.05433 12.5819 4.0081 10.6L4.0097 10.6016ZM14.3905 10.6016H19.9905C19.9443 12.5835 19.1597 14.4767 17.7905 15.9104L13.8321 11.952C13.8321 11.952 13.8321 11.9488 13.8353 11.9488C14.1555 11.5681 14.3495 11.0974 14.3905 10.6016ZM10.4497 12.2336C10.4497 12.2336 10.4529 12.2336 10.4529 12.2368C10.6747 12.4208 10.9278 12.5633 11.2001 12.6576V18.3584C9.43219 18.1816 7.77444 17.4177 6.4913 16.1888L10.4481 12.232L10.4497 12.2336ZM13.5505 12.2336L17.5089 16.192C16.2255 17.4204 14.5678 18.1836 12.8001 18.36V12.6592C13.0741 12.5629 13.3284 12.4176 13.5505 12.2304V12.2336Z" fill="#A2792C"/>
</svg>
