<svg width="26" height="32" viewBox="0 0 26 32" fill="none" xmlns="http://www.w3.org/2000/svg">
<path d="M23.5677 12.7739C23.1843 12.0774 22.8555 11.3442 22.5902 10.5947L21.7064 10.9074C21.9886 11.7049 22.3384 12.485 22.7464 13.226C23.935 15.3854 24.5633 17.8297 24.5633 20.2945V31.0625H22.5982V32H25.5008V20.2944C25.5009 17.672 24.8324 15.0715 23.5677 12.7739Z" fill="#A2792C"/>
<path d="M14.3134 20.2944C14.3134 18.7722 14.5492 17.2653 15.0144 15.8157L14.1217 15.5293C13.6268 17.0716 13.3759 18.6748 13.3759 20.2944V32H21.6607V31.0625H14.3134V20.2944Z" fill="#A2792C"/>
<path d="M16.1302 13.2261C17.3948 10.9286 18.0633 8.328 18.0633 5.70556V3.8125H20.8133V5.70556C20.8133 7.15394 21.0149 8.59437 21.4125 9.98694L22.314 9.72956C21.9403 8.42075 21.7508 7.06687 21.7508 5.70556V0H17.1258V5.70556C17.1258 8.17037 16.4975 10.6146 15.3089 12.774C14.9824 13.3672 14.6919 13.9879 14.4454 14.6188L15.3186 14.96C15.5502 14.3669 15.8233 13.7836 16.1302 13.2261ZM18.0633 0.9375H20.8133V2.875H18.0633V0.9375Z" fill="#A2792C"/>
<path d="M8.15702 8.3125H9.28208V12.125H3.84458V13.0625H9.28208V17.2188C9.28208 19.3726 7.52977 21.125 5.37583 21.125C3.22189 21.125 1.46958 19.3726 1.46958 17.2172L1.45571 13.0625H2.90702V12.125H1.45258L1.43989 8.3125H7.21952V7.375H0.499207L0.532019 17.2188C0.532019 19.4006 1.98246 21.2496 3.96952 21.8536V28.1522C3.96952 28.8164 3.51671 29.3809 2.86833 29.5249L1.15702 29.9052V32H9.59452V29.9053L7.88321 29.525C7.23483 29.3809 6.78202 28.8164 6.78202 28.1523V21.8536C8.76908 21.2496 10.2195 19.4006 10.2195 17.2188V7.375H8.15696V8.3125H8.15702ZM7.67989 30.4401L8.65708 30.6572V31.0625H2.09458V30.6572L3.07177 30.4401C4.15239 30.2 4.90708 29.2591 4.90708 28.1522V22.0394C5.06139 22.0543 5.21764 22.0625 5.37583 22.0625C5.53402 22.0625 5.69027 22.0543 5.84458 22.0394V28.1522C5.84458 29.2591 6.59927 30.2 7.67989 30.4401Z" fill="#A2792C"/>
<path d="M22.7509 18.7812C22.7509 16.9719 21.2789 15.5 19.4696 15.5C17.6604 15.5 16.1884 16.9719 16.1884 18.7812V25.6562C16.1884 27.4656 17.6604 28.9375 19.4696 28.9375C21.2789 28.9375 22.7509 27.4656 22.7509 25.6562V18.7812ZM21.8134 25.6562C21.8134 26.9486 20.762 28 19.4696 28C18.1772 28 17.1259 26.9486 17.1259 25.6562V18.7812C17.1259 17.4889 18.1772 16.4375 19.4696 16.4375C20.762 16.4375 21.8134 17.4889 21.8134 18.7812V25.6562Z" fill="#A2792C"/>
<path d="M16.1884 28.7188H15.2509V29.6562H16.1884V28.7188Z" fill="#A2792C"/>
<path d="M23.6259 28.7188H22.6884V29.6562H23.6259V28.7188Z" fill="#A2792C"/>
<path d="M19.9384 20.8438H19.0009V21.7812H19.9384V20.8438Z" fill="#A2792C"/>
<path d="M19.9384 18.9688H19.0009V19.9062H19.9384V18.9688Z" fill="#A2792C"/>
<path d="M19.9384 24.5938H19.0009V25.4688H19.9384V24.5938Z" fill="#A2792C"/>
<path d="M19.9384 22.7188H19.0009V23.6562H19.9384V22.7188Z" fill="#A2792C"/>
<path d="M3.87585 14.0938H2.93835V15.0312H3.87585V14.0938Z" fill="#A2792C"/>
<path d="M5.06335 18.2188H4.12585V19.1562H5.06335V18.2188Z" fill="#A2792C"/>
<path d="M5.68835 16.0938H4.75085V17.0312H5.68835V16.0938Z" fill="#A2792C"/>
<path d="M7.56335 14.3438H6.62585V15.2812H7.56335V14.3438Z" fill="#A2792C"/>
<path d="M8.00085 17.5312H7.06335V18.4688H8.00085V17.5312Z" fill="#A2792C"/>
<path d="M3.31335 16.0312H2.37585V16.9688H3.31335V16.0312Z" fill="#A2792C"/>
<path d="M5.9762 9.25H2.8512V10.1875H5.9762V9.25Z" fill="#A2792C"/>
<path d="M7.87576 9.25H6.9137V10.1875H7.87576V9.25Z" fill="#A2792C"/>
<path d="M19.9384 8.53125H19.0009V11.6562H19.9384V8.53125Z" fill="#A2792C"/>
<path d="M19.9384 12.5938H19.0009V13.5558H19.9384V12.5938Z" fill="#A2792C"/>
</svg>
