<svg width="32" height="32" viewBox="0 0 32 32" fill="none" xmlns="http://www.w3.org/2000/svg">
<g clip-path="url(#clip0)">
<path d="M12.0672 6.78208C13.5021 6.78208 14.6534 5.59552 14.6534 4.13376C14.6534 2.67136 13.5021 1.4848 12.0672 1.4848C10.6432 1.4848 9.48032 2.67136 9.48032 4.13376C9.48032 5.59552 10.6432 6.78208 12.0672 6.78208ZM12.8 7.68H5.12C3.84 7.68 3.84 9.6 5.12 9.6H12.8C14.08 9.6 14.08 7.68 12.8 7.68ZM24.96 8.48256C24.96 5.54688 23.9328 2.7424 22.0608 0.53248C22.0691 0.5248 21.5885 0 21.5885 0L14.3053 7.45472L14.1811 7.5776L14.2502 7.67104C14.3622 7.8752 14.4243 8.1024 14.4499 8.32896C14.4576 8.4224 14.4499 8.51904 14.439 8.61568C14.425 8.8128 14.3878 9.00608 14.3053 9.18912L14.2976 9.20768L14.2509 9.31904L14.2035 9.41248C13.8835 9.91552 13.3357 10.24 12.6701 10.24H8.32V20.48L6.92032 30.2291C6.76736 31.0323 7.3792 31.8138 8.16384 31.9699C8.94848 32.1344 10.08 31.5315 10.24 30.72L11.52 19.84H12.16L14.3296 30.8019C14.4896 31.6134 15.6109 32.1344 16.4026 31.9699C17.1808 31.8138 17.6147 31.0323 17.4618 30.2291L15.36 19.8202V11.1085L21.3286 16.9549C21.3286 16.9549 21.9386 16.4269 21.9386 16.4198C23.8016 14.2118 24.96 11.4067 24.96 8.48256ZM23.641 9.6C23.4272 11.52 22.3085 13.8419 20.9062 15.5405C19.6102 14.2176 16.64 11.7261 15.36 10.0934V9.6H23.641ZM23.641 7.68H15.2973C16.8301 5.76 19.696 3.17888 21.1648 1.68C22.5734 3.376 23.4349 5.12 23.641 7.68Z" fill="#A2792C"/>
</g>
<defs>
<clipPath id="clip0">
<rect width="32" height="32" fill="white"/>
</clipPath>
</defs>
</svg>
