<svg width="30" height="30" viewBox="0 0 30 30" fill="none" xmlns="http://www.w3.org/2000/svg">
<path d="M16.1751 17.1667L15.0001 18.3333L13.8251 17.1667L13.3334 16.6667H4.16675V26.6667C4.16675 27.1087 4.34234 27.5326 4.6549 27.8452C4.96746 28.1577 5.39139 28.3333 5.83341 28.3333H24.1667C24.6088 28.3333 25.0327 28.1577 25.3453 27.8452C25.6578 27.5326 25.8334 27.1087 25.8334 26.6667V16.6667H16.6667L16.1751 17.1667ZM18.3334 20C18.3334 20.221 18.2456 20.433 18.0893 20.5893C17.9331 20.7455 17.7211 20.8333 17.5001 20.8333H12.5001C12.2791 20.8333 12.0671 20.7455 11.9108 20.5893C11.7545 20.433 11.6667 20.221 11.6667 20C11.6667 19.779 11.7545 19.567 11.9108 19.4107C12.0671 19.2545 12.2791 19.1667 12.5001 19.1667H17.5001C17.7211 19.1667 17.9331 19.2545 18.0893 19.4107C18.2456 19.567 18.3334 19.779 18.3334 20Z" fill="#979797"/>
<path d="M25.4166 10H22.2166V10.1083C22.216 10.7712 21.9522 11.4066 21.4833 11.875L18.3333 15H26.6666V11.25C26.6666 10.9185 26.5349 10.6005 26.3005 10.3661C26.066 10.1317 25.7481 10 25.4166 10Z" fill="#979797"/>
<path d="M8.49992 11.875C8.03094 11.4066 7.76717 10.7712 7.76659 10.1083V10H4.58325C4.25173 10 3.93379 10.1317 3.69937 10.3661C3.46495 10.6005 3.33325 10.9185 3.33325 11.25V15H11.6666L8.49992 11.875Z" fill="#979797"/>
<path d="M15.0001 15.9833L20.3167 10.6917C20.4132 10.6214 20.4934 10.5312 20.552 10.4272C20.6105 10.3232 20.6461 10.2078 20.6562 10.0889C20.6663 9.97001 20.6507 9.85031 20.6106 9.73792C20.5704 9.62554 20.5066 9.52308 20.4234 9.4375C20.3403 9.35191 20.2397 9.28519 20.1285 9.24185C20.0173 9.1985 19.8981 9.17955 19.7789 9.18626C19.6598 9.19298 19.5435 9.22521 19.4378 9.28078C19.3322 9.33634 19.2398 9.41394 19.1667 9.50833L15.8334 12.8V2.5C15.8334 2.27899 15.7456 2.06702 15.5893 1.91074C15.4331 1.75446 15.2211 1.66667 15.0001 1.66667C14.7791 1.66667 14.5671 1.75446 14.4108 1.91074C14.2545 2.06702 14.1667 2.27899 14.1667 2.5V12.8333L10.8334 9.54167C10.6765 9.38585 10.4641 9.29876 10.243 9.29954C10.0218 9.30032 9.81006 9.38891 9.65424 9.54583C9.49843 9.70275 9.41133 9.91514 9.41211 10.1363C9.4129 10.3574 9.50149 10.5692 9.65841 10.725L15.0001 15.9833Z" fill="#979797"/>
</svg>
