<svg width="20" height="20" viewBox="0 0 20 20" fill="none" xmlns="http://www.w3.org/2000/svg">
<g clip-path="url(#clip0)">
<path d="M18.1201 4.47037L17.6785 3.14667C17.5104 2.64252 17.0403 2.30377 16.509 2.30377H12.7976V1.09543C12.7976 0.491486 12.3065 0 11.7027 0H8.30401C7.70037 0 7.20919 0.491486 7.20919 1.09543V2.30377H3.49795C2.96648 2.30377 2.49636 2.64252 2.32821 3.14667L1.88662 4.47037C1.78606 4.77173 1.83703 5.10544 2.02273 5.36316C2.20843 5.62088 2.50887 5.77484 2.82656 5.77484H3.28814L4.30407 18.3376C4.3796 19.2697 5.17061 20 6.10522 20H14.1077C15.0421 20 15.8333 19.2697 15.9087 18.3374L16.9246 5.77484H17.1802C17.4979 5.77484 17.7983 5.62088 17.984 5.36331C18.1697 5.10559 18.2207 4.77173 18.1201 4.47037ZM8.38106 1.17188H11.6257V2.30377H8.38106V1.17188ZM14.7406 18.243C14.7141 18.5712 14.4361 18.8281 14.1077 18.8281H6.10522C5.77685 18.8281 5.49883 18.5712 5.47228 18.243L4.46383 5.77484H15.7489L14.7406 18.243ZM3.07787 4.60297L3.43996 3.51746C3.4482 3.49243 3.47155 3.47565 3.49795 3.47565H16.509C16.5354 3.47565 16.5586 3.49243 16.5669 3.51746L16.929 4.60297H3.07787Z" fill="#A2792C"/>
<path d="M12.8719 18.2024C12.8822 18.203 12.8925 18.2031 12.9028 18.2031C13.2124 18.2031 13.4712 17.9605 13.4874 17.6477L14.0376 7.08529C14.0544 6.76211 13.806 6.48638 13.483 6.4696C13.159 6.45235 12.8842 6.70107 12.8673 7.02425L12.3172 17.5867C12.3004 17.9099 12.5487 18.1856 12.8719 18.2024Z" fill="#A2792C"/>
<path d="M6.5458 17.649C6.56289 17.9613 6.82137 18.203 7.13036 18.203C7.14104 18.203 7.15203 18.2027 7.16286 18.2021C7.48589 18.1846 7.73354 17.9084 7.71599 17.5852L7.13967 7.02277C7.12212 6.69959 6.84594 6.45194 6.52276 6.46964C6.19973 6.48719 5.95208 6.76337 5.96963 7.08656L6.5458 17.649Z" fill="#A2792C"/>
<path d="M10.0098 18.2031C10.3334 18.2031 10.5957 17.9408 10.5957 17.6171V7.05469C10.5957 6.73105 10.3334 6.46875 10.0098 6.46875C9.68613 6.46875 9.42383 6.73105 9.42383 7.05469V17.6171C9.42383 17.9408 9.68613 18.2031 10.0098 18.2031Z" fill="#A2792C"/>
</g>
<defs>
<clipPath id="clip0">
<rect width="20" height="20" fill="white"/>
</clipPath>
</defs>
</svg>
