<svg width="24" height="24" viewBox="0 0 24 24" fill="none" xmlns="http://www.w3.org/2000/svg">
<path d="M10.1813 2.87988C4.1179 2.87988 0.47998 7.74372 0.47998 10.1759C0.47998 12.608 1.69246 14.432 4.1179 14.432C6.54334 14.432 7.7563 15.0397 7.7563 16.8637C7.7563 19.2954 9.57502 21.1194 12.0005 21.1194C19.883 21.1194 23.5205 16.8637 23.5205 12.608C23.52 5.31204 17.4557 2.87988 10.1813 2.87988ZM8.66542 5.31204C8.86474 5.31229 9.06205 5.3518 9.2461 5.42831C9.43014 5.50482 9.59732 5.61683 9.73808 5.75794C9.87884 5.89906 9.99042 6.06652 10.0665 6.25075C10.1425 6.43499 10.1815 6.63241 10.1813 6.83172C10.1813 7.67172 9.50254 8.35188 8.66542 8.35188C7.8283 8.35188 7.14958 7.67124 7.14958 6.83172C7.14933 6.63241 7.18834 6.43499 7.26438 6.25075C7.34042 6.06652 7.45201 5.89906 7.59276 5.75794C7.73352 5.61683 7.9007 5.50482 8.08475 5.42831C8.26879 5.3518 8.46611 5.31229 8.66542 5.31204ZM13.5153 5.31204C13.7147 5.31229 13.912 5.3518 14.096 5.42831C14.2801 5.50482 14.4472 5.61683 14.588 5.75794C14.7288 5.89906 14.8403 6.06652 14.9164 6.25075C14.9924 6.43499 15.0314 6.63241 15.0312 6.83172C15.0315 7.03108 14.9925 7.22854 14.9165 7.41284C14.8405 7.59713 14.7289 7.76465 14.5882 7.90581C14.4474 8.04698 14.2802 8.15903 14.0961 8.23557C13.9121 8.31211 13.7147 8.35163 13.5153 8.35188C13.316 8.35157 13.1187 8.312 12.9347 8.23543C12.7507 8.15887 12.5835 8.0468 12.4428 7.90564C12.3021 7.76448 12.1906 7.59699 12.1146 7.41273C12.0386 7.22846 11.9997 7.03104 12 6.83172C11.9995 6.42927 12.1588 6.04309 12.443 5.75811C12.7272 5.47313 13.1129 5.31268 13.5153 5.31204ZM18.3662 7.74372C18.5656 7.74391 18.763 7.78339 18.9472 7.8599C19.1313 7.93641 19.2985 8.04845 19.4394 8.18962C19.5802 8.33079 19.6918 8.49833 19.7678 8.68266C19.8439 8.86698 19.8829 9.06449 19.8825 9.26388C19.8829 9.46326 19.8439 9.66074 19.7678 9.84504C19.6918 10.0293 19.5802 10.1968 19.4393 10.338C19.2985 10.4791 19.1313 10.5911 18.9471 10.6676C18.763 10.744 18.5656 10.7834 18.3662 10.7836C18.1669 10.7834 17.9696 10.7439 17.7855 10.6674C17.6015 10.5909 17.4343 10.4789 17.2936 10.3378C17.1529 10.1966 17.0413 10.0292 16.9654 9.84489C16.8894 9.66062 16.8505 9.46319 16.8509 9.26388C16.8505 9.06455 16.8894 8.8671 16.9653 8.6828C17.0413 8.49851 17.1528 8.33099 17.2936 8.18982C17.4343 8.04865 17.6015 7.93659 17.7855 7.86004C17.9696 7.7835 18.1669 7.74397 18.3662 7.74372ZM4.42126 8.96004C4.62053 8.96023 4.81781 8.99968 5.00183 9.07615C5.18584 9.15261 5.35299 9.26458 5.49372 9.40566C5.63445 9.54674 5.74599 9.71417 5.82199 9.89838C5.89798 10.0826 5.93694 10.28 5.93662 10.4792C5.93662 11.3192 5.2579 11.9994 4.42126 11.9994C3.58462 11.9994 2.90542 11.3188 2.90542 10.4792C2.90504 10.0768 3.06451 9.69066 3.34877 9.40577C3.63304 9.12088 4.01881 8.96055 4.42126 8.96004ZM12 15.0397C13.0046 15.0397 13.8187 15.8557 13.8187 16.8642C13.8187 17.8712 13.0046 18.6877 12 18.6877C10.9953 18.6877 10.1813 17.8712 10.1813 16.8642C10.1808 16.625 10.2275 16.388 10.3187 16.1668C10.4099 15.9456 10.5437 15.7446 10.7126 15.5752C10.8815 15.4057 11.0821 15.2712 11.303 15.1794C11.5239 15.0875 11.7607 15.04 12 15.0397Z" fill="#A2792C"/>
</svg>
