<svg width="24" height="24" viewBox="0 0 24 24" fill="none" xmlns="http://www.w3.org/2000/svg">
<path d="M15.4571 5.59473C14.9963 5.39035 14.1101 4.98535 13.5184 4.98535C12.9983 4.98535 12.0098 5.37348 11.5481 5.58723C11.1386 5.77623 11.0779 5.94085 11.1578 6.1981C11.2399 6.46248 11.5504 6.61135 11.8455 6.5446C11.8455 6.5446 13.0451 5.9776 13.4854 5.9776C13.9335 5.9761 15.159 6.55173 15.159 6.55173C15.4541 6.61998 15.7654 6.4681 15.8483 6.20523C15.9274 5.9476 15.8666 5.77698 15.4571 5.59473Z" fill="#A2792C"/>
<path d="M17.6639 6.54377C17.6639 6.54377 18.8635 5.97752 19.3037 5.97677C19.7526 5.97677 20.9781 6.5509 20.9781 6.5509C21.2732 6.61915 21.5845 6.46727 21.6659 6.2044C21.7465 5.9464 21.685 5.77577 21.2755 5.59352C20.8161 5.38915 19.9285 4.98415 19.3382 4.9834C18.8159 4.98415 17.8296 5.37227 17.3672 5.58602C16.957 5.77577 16.8962 5.93965 16.9761 6.19615C17.0586 6.4609 17.3684 6.61127 17.6639 6.54377Z" fill="#A2792C"/>
<path d="M9.88917 17.3365C8.34455 17.8982 6.7778 17.4857 6.99455 18.0835C7.21205 18.6812 9.13317 20.0639 10.677 19.5021C12.2209 18.9396 12.804 16.6457 12.5865 16.048C12.3683 15.4506 11.433 16.7747 9.88917 17.3365Z" fill="#A2792C"/>
<path d="M7.80027 13.5361C7.78715 13.2755 7.67577 13.1398 7.24302 13.1105C6.75815 13.076 5.8184 13.0014 5.28177 13.1968C4.80852 13.3689 4.0394 14.0484 3.69027 14.3956C3.38202 14.7031 3.37977 14.8723 3.53802 15.0796C3.69927 15.2926 4.03152 15.3249 4.27715 15.1666C4.27715 15.1666 5.18015 14.2554 5.57952 14.1091C5.98677 13.9606 7.2899 14.0784 7.2899 14.0784C7.58052 14.0428 7.81415 13.8028 7.80027 13.5361Z" fill="#A2792C"/>
<path d="M12.5302 11.1867C12.0446 11.1522 11.1041 11.0776 10.5682 11.2729C10.0942 11.4451 9.32546 12.1246 8.97671 12.4711C8.66771 12.7793 8.66696 12.9484 8.82371 13.1566C8.98571 13.3688 9.31721 13.4018 9.56433 13.2428C9.56433 13.2428 10.4651 12.3316 10.866 12.1861C11.2732 12.0368 12.5771 12.1546 12.5771 12.1546C12.8677 12.1186 13.1002 11.8786 13.0867 11.6119C13.0736 11.3509 12.9622 11.2159 12.5302 11.1867Z" fill="#A2792C"/>
<path d="M21.5178 18.3997C21.019 18.5059 20.6665 18.843 20.368 19.1565C19.7725 19.8034 19.33 20.5129 18.7728 21.0653C18.2343 21.6285 17.6069 22.0466 16.8355 22.1332C16.0994 22.2364 15.3126 21.9559 14.8698 21.2359C14.6609 20.8849 14.5323 20.4611 14.5533 20.0464C14.5667 19.6374 14.7132 19.244 14.9706 18.9259C14.9774 18.918 14.9856 18.912 14.9924 18.9037C15.1976 19.1524 15.4638 19.3436 15.7649 19.4587C16.1429 19.6117 16.5141 19.6631 16.8783 19.7194C17.596 19.8094 18.3408 19.8769 19.0791 19.737C19.4517 19.6679 19.8069 19.5258 20.1243 19.3189C20.439 19.1022 20.7066 18.8241 20.911 18.5014C21.3269 17.8598 21.4956 17.0798 21.4656 16.3151C21.4294 15.5378 21.2221 14.778 20.8585 14.0899C20.6755 13.7449 20.4441 13.4059 20.1663 13.1164C21.7833 10.9965 23.251 8.25 23.2506 5.169C23.2506 3.6405 23.0845 2.17913 22.7804 0.835125C21.1274 1.92562 18.8635 2.598 16.3645 2.598C13.801 2.598 11.485 1.88963 9.82339 0.75C9.56914 1.8465 9.41164 3.02437 9.35726 4.25212C9.34864 4.25212 9.34001 4.2495 9.33139 4.2495C9.07789 4.2495 8.84876 4.35187 8.68226 4.51837C8.20939 4.21695 7.65693 4.06437 7.09639 4.08037C6.65051 4.098 6.13039 4.26038 5.80676 4.70587C5.64476 4.91962 5.56489 5.18625 5.54951 5.43375C5.52814 5.68425 5.57726 5.92013 5.64101 6.13688C5.71001 6.35287 5.80451 6.55275 5.91214 6.73837C6.02276 6.92062 6.11126 7.068 6.18401 7.24463C6.32501 7.57763 6.39139 7.95 6.33514 8.316C6.08957 8.24477 5.85861 8.1305 5.65301 7.9785C5.13064 7.60575 4.70689 7.0995 4.48339 6.52688C4.26139 5.95688 4.21376 5.36737 4.35139 4.81012C4.49351 4.25362 4.80701 3.74363 5.18914 3.28875C5.58073 2.82563 6.04596 2.43021 6.56614 2.11838C7.09189 1.81238 7.67651 1.5645 8.32676 1.57912L8.34364 1.506C7.70576 1.24462 6.95576 1.347 6.31564 1.59225C5.66389 1.839 5.07626 2.247 4.59439 2.76338C4.11776 3.28275 3.76001 3.94275 3.64451 4.66838C3.58358 5.02989 3.58955 5.39952 3.66214 5.75887C3.74146 6.10853 3.8853 6.44033 4.08626 6.73725C4.47739 7.31887 4.99826 7.75913 5.51464 8.16488C5.74564 8.33588 5.98039 8.51025 6.25451 8.64563C6.162 8.91144 6.00957 9.15241 5.80901 9.34988C5.54014 9.621 5.18126 9.78638 4.82764 9.84713C4.09151 9.9615 3.46076 9.55125 3.11726 8.94338C2.74301 8.31938 2.67326 7.59787 2.75164 6.85312C2.81164 6.10162 3.04301 5.33775 3.14651 4.5C3.19039 4.086 3.22039 3.618 3.01264 3.18375C2.91188 2.97401 2.75159 2.79859 2.55176 2.67937C2.36426 2.56163 2.15914 2.49713 1.95626 2.45963L1.93189 2.5305C2.28776 2.71725 2.58439 2.98688 2.65489 3.32138C2.73476 3.65175 2.66089 4.0215 2.56564 4.392C2.36201 5.1345 2.06839 5.90963 1.95551 6.765C1.90789 7.19138 1.90001 7.641 1.99489 8.0835C2.0873 8.52588 2.2654 8.9459 2.51914 9.31988C2.76814 9.69713 3.12551 10.0354 3.56801 10.212C4.00751 10.395 4.50326 10.3849 4.92439 10.2458C5.65976 9.99975 6.20239 9.4185 6.46339 8.73675C6.77914 8.85787 7.17551 8.8875 7.52201 8.73938C7.89701 8.58713 8.17076 8.30962 8.37889 8.02387C8.58401 7.7325 8.74639 7.42912 8.87539 7.11637C9.01489 6.77587 9.12589 6.429 9.21101 6.07687C9.25039 6.08213 9.28939 6.08887 9.33026 6.08887C9.34526 6.08887 9.35951 6.08512 9.37451 6.08438C9.46001 6.97875 9.66626 7.84537 9.95576 8.67375C9.13091 9.21443 8.24628 9.65788 7.31951 9.99525C5.88251 10.518 4.44289 10.7659 3.10714 10.7659C2.27164 10.7659 1.47739 10.6691 0.749512 10.4813C0.913762 11.8309 1.25014 13.2469 1.76726 14.6677C3.95614 20.6809 12.0685 23.25 12.0685 23.25C12.0685 23.25 13.6806 20.7094 14.5285 17.3857C14.5285 17.3895 14.5274 17.3925 14.527 17.3955C14.4985 17.7743 14.5915 18.1946 14.7959 18.6011C14.806 18.6221 14.8218 18.6394 14.833 18.6593C14.8094 18.69 14.782 18.7181 14.7595 18.7496C14.2424 19.4666 14.0879 20.4765 14.4798 21.4136C14.6748 21.8749 15.0269 22.3159 15.4926 22.5795C15.9546 22.8491 16.4856 22.9376 16.9679 22.9054C17.445 22.8811 17.9119 22.7579 18.3389 22.5435C18.7608 22.3331 19.1151 22.0279 19.4215 21.7028C20.0241 21.0364 20.4306 20.265 20.8761 19.5926C21.1038 19.2638 21.3456 18.9533 21.6678 18.8036C21.9873 18.6431 22.4178 18.7237 22.8265 18.912L22.8655 18.843C22.6881 18.69 22.4883 18.5539 22.2569 18.4672C22.0281 18.378 21.7623 18.345 21.5178 18.3997ZM8.34739 6.85388C8.03239 7.39313 7.67876 7.91513 7.25764 8.20013C7.06864 8.32575 6.83614 8.3865 6.57664 8.36138C6.66695 7.9534 6.66899 7.53083 6.58264 7.122C6.53876 6.91238 6.45889 6.69225 6.39214 6.51263C6.3287 6.33991 6.27941 6.16233 6.24476 5.98163C6.17726 5.63287 6.19864 5.31225 6.34864 5.088C6.49601 4.85962 6.80501 4.71225 7.15001 4.65863C7.58201 4.59713 8.04401 4.64887 8.49064 4.79887C8.44076 4.9125 8.41189 5.037 8.41189 5.169C8.41189 5.499 8.58739 5.78587 8.84801 5.94788C8.68114 6.25612 8.51914 6.56025 8.34739 6.85388ZM15.4409 16.527C15.4473 16.4917 15.4555 16.4565 15.4623 16.4213C15.9666 16.8746 16.2906 17.1255 16.2906 17.1255C16.2906 17.1255 16.7774 16.7501 17.4903 16.0804C17.5836 16.317 17.6219 16.551 17.5701 16.7434C17.4996 17.0231 17.2589 17.2552 16.9308 17.4274C16.768 17.5136 16.5895 17.5901 16.399 17.6509C16.2063 17.7116 15.9726 17.7885 15.7735 17.8898C15.6273 17.9647 15.4879 18.0523 15.3569 18.1515C15.2796 17.6572 15.3389 17.0876 15.4409 16.527ZM15.6385 15.5629C15.6685 15.4226 15.6993 15.2831 15.7285 15.141C15.8268 15.1069 15.9216 15.06 16.0053 14.9906C16.1106 14.9032 16.1898 14.7949 16.2441 14.6752C16.5608 14.8816 16.8449 15.134 17.0871 15.4241C16.8273 15.6728 16.5615 15.9151 16.2899 16.1509C16.069 15.9591 15.8518 15.7631 15.6385 15.5629ZM20.2761 14.2969C20.4899 14.943 20.6005 15.6101 20.5968 16.2548C20.5945 16.8979 20.4951 17.529 20.2203 18.0623C19.9405 18.594 19.4841 19.0072 18.8961 19.2694C18.3044 19.5322 17.593 19.59 16.8944 19.4692C16.5486 19.4145 16.2044 19.2934 15.9269 19.1059C15.7138 18.9659 15.5475 18.7653 15.4495 18.5299C15.6117 18.438 15.785 18.3675 15.9651 18.3199C16.1594 18.2655 16.3416 18.2453 16.567 18.2216C16.7989 18.1937 17.0268 18.139 17.2461 18.0589C17.4659 17.9711 17.6894 17.8575 17.8746 17.673C18.0614 17.4941 18.2166 17.2481 18.271 16.9639C18.3726 16.4734 18.2095 15.996 17.9695 15.6169C18.5991 14.9925 19.1886 14.3854 19.9101 13.4482C20.0594 13.7227 20.1768 14.0096 20.2761 14.2969ZM11.7336 22.3316C9.91151 21.6367 4.18826 19.1213 2.47414 14.4109C2.11882 13.4391 1.84463 12.4396 1.65439 11.4225C2.12426 11.4859 2.60989 11.5177 3.10751 11.5177C4.56401 11.5177 6.10939 11.2358 7.57714 10.7017C9.51964 9.99413 11.2233 8.89537 12.4761 7.55512C12.9701 8.43847 13.3915 9.36051 13.7361 10.3121C15.4476 15.0131 12.6809 20.6269 11.7336 22.3316ZM14.5116 10.2656C14.488 10.1951 14.4681 10.1246 14.4426 10.0549C13.9356 8.66288 13.2993 7.3875 12.577 6.26437C12.0558 6.96637 11.3834 7.62825 10.5978 8.223C10.3221 7.39584 10.156 6.53617 10.1035 5.66587C10.2016 5.5146 10.2528 5.33771 10.2507 5.15744C10.2485 4.97716 10.1932 4.80153 10.0915 4.65262C10.1155 3.72787 10.1991 2.82075 10.3488 1.9425C12.0648 2.85413 14.1595 3.348 16.3645 3.348C18.5065 3.348 20.554 2.87888 22.246 2.01262C22.4144 3.03262 22.4999 4.0905 22.4999 5.16937C22.5006 9.34538 19.456 13.0654 17.4816 15.0386C17.1502 14.7242 16.7584 14.4803 16.33 14.3216C16.3404 14.0493 16.2487 13.7828 16.0728 13.5746C15.8005 13.2469 15.388 13.1149 15.0265 13.2026C15.0143 12.8331 14.9837 12.4644 14.935 12.0979C15.3445 12.0011 15.8028 11.9216 16.2903 11.9216C17.9909 11.9216 19.3679 12.8783 19.3679 12.219C19.3679 11.5612 17.9901 9.5385 16.291 9.5385C15.6269 9.5385 15.0145 9.85013 14.5116 10.2656Z" fill="#A2792C"/>
</svg>
