<svg
                  width="19"
                  height="22"
                  viewBox="0 0 19 39"
                  fill="none"
                  xmlns="http://www.w3.org/2000/svg"
                >
                  <path
                    d="M16.0708 9.1H18.6042V29.0062C18.6042 31.6604 17.6938 33.9219 15.8729 35.7906C14.0521 37.6594 11.8618 38.5937 9.30208 38.5937C6.74236 38.5937 4.55208 37.6594 2.73125 35.7906C0.910417 33.9219 0 31.6604 0 29.0062V7.39375C0 5.44375 0.659722 3.79167 1.97917 2.4375C3.29861 1.08333 4.89514 0.40625 6.76875 0.40625C8.64236 0.40625 10.2389 1.08333 11.5583 2.4375C12.8778 3.79167 13.5375 5.44375 13.5375 7.39375V25.5937C13.5375 26.7854 13.1153 27.801 12.2708 28.6406C11.4264 29.4802 10.4236 29.9 9.2625 29.9C8.10139 29.9 7.11181 29.4802 6.29375 28.6406C5.4757 27.801 5.06667 26.7854 5.06667 25.5937V9.1H7.6V25.5937C7.6 26.0271 7.77153 26.4198 8.11458 26.7719C8.45764 27.124 8.85347 27.3 9.30208 27.3C9.7507 27.3 10.1465 27.124 10.4896 26.7719C10.8326 26.4198 11.0042 26.0271 11.0042 25.5937V7.39375C11.0042 6.20208 10.5819 5.17292 9.7375 4.30625C8.89306 3.43958 7.89028 3.00625 6.72917 3.00625C5.56806 3.00625 4.57847 3.43958 3.76042 4.30625C2.94236 5.17292 2.53333 6.20208 2.53333 7.39375V29.0062C2.53333 30.9562 3.19306 32.6083 4.5125 33.9625C5.83194 35.3167 7.42847 35.9937 9.30208 35.9937C11.1757 35.9937 12.7722 35.3167 14.0917 33.9625C15.4111 32.6083 16.0708 30.9562 16.0708 29.0062V9.1Z"
                    fill="#979797"
                  />
                </svg>