<svg width="32" height="32" viewBox="0 0 32 32" fill="none" xmlns="http://www.w3.org/2000/svg">
<path d="M27.3806 17.083H24.9059C25.1581 17.7736 25.2959 18.5189 25.2959 19.2958V28.6489C25.2959 28.9728 25.2396 29.2837 25.137 29.5728H29.2283C30.7566 29.5728 32 28.3294 32 26.8011V21.7023C32 19.1553 29.9278 17.083 27.3806 17.083Z" fill="#A2792C"/>
<path d="M6.70408 19.2958C6.70408 18.5189 6.84189 17.7736 7.09414 17.083H4.61938C2.07225 17.083 0 19.1553 0 21.7024V26.8012C0 28.3295 1.24331 29.5728 2.77163 29.5728H6.86301C6.76045 29.2836 6.70408 28.9728 6.70408 28.6489V19.2958Z" fill="#A2792C"/>
<path d="M18.8289 14.6758H13.1713C10.6241 14.6758 8.55188 16.748 8.55188 19.2952V28.6483C8.55188 29.1585 8.96551 29.5722 9.47576 29.5722H22.5244C23.0347 29.5722 23.4483 29.1586 23.4483 28.6483V19.2952C23.4483 16.748 21.376 14.6758 18.8289 14.6758Z" fill="#A2792C"/>
<path d="M16.0001 2.42773C12.9368 2.42773 10.4447 4.91986 10.4447 7.98318C10.4447 10.061 11.5915 11.8757 13.2851 12.8284C14.0885 13.2803 15.0146 13.5386 16.0001 13.5386C16.9856 13.5386 17.9117 13.2803 18.715 12.8284C20.4087 11.8757 21.5555 10.0609 21.5555 7.98318C21.5555 4.91993 19.0633 2.42773 16.0001 2.42773Z" fill="#A2792C"/>
<path d="M6.2449 7.60547C3.95396 7.60547 2.09021 9.46922 2.09021 11.7602C2.09021 14.0511 3.95396 15.9149 6.2449 15.9149C6.82603 15.9149 7.3794 15.7945 7.88209 15.5781C8.75122 15.2039 9.46784 14.5416 9.91128 13.7119C10.2225 13.1295 10.3996 12.4652 10.3996 11.7602C10.3996 9.46929 8.53584 7.60547 6.2449 7.60547Z" fill="#A2792C"/>
<path d="M25.7552 7.60547C23.4642 7.60547 21.6005 9.46922 21.6005 11.7602C21.6005 12.4653 21.7775 13.1296 22.0888 13.7119C22.5322 14.5416 23.2488 15.204 24.118 15.5781C24.6207 15.7945 25.174 15.9149 25.7552 15.9149C28.0461 15.9149 29.9099 14.0511 29.9099 11.7602C29.9099 9.46922 28.0461 7.60547 25.7552 7.60547Z" fill="#A2792C"/>
</svg>
