<svg width="27" height="27" viewBox="0 0 27 27" fill="none" xmlns="http://www.w3.org/2000/svg">
<path fill-rule="evenodd" clip-rule="evenodd" d="M17.1209 7.84163C17.1993 7.76306 17.2924 7.70072 17.3949 7.65818C17.4974 7.61564 17.6073 7.59375 17.7183 7.59375C17.8293 7.59375 17.9392 7.61564 18.0417 7.65818C18.1442 7.70072 18.2373 7.76306 18.3157 7.84163L23.3782 12.9041C23.4568 12.9825 23.5191 13.0756 23.5616 13.1781C23.6042 13.2806 23.6261 13.3905 23.6261 13.5015C23.6261 13.6125 23.6042 13.7224 23.5616 13.8249C23.5191 13.9274 23.4568 14.0205 23.3782 14.0989L18.3157 19.1614C18.1572 19.3198 17.9424 19.4088 17.7183 19.4088C17.4942 19.4088 17.2794 19.3198 17.1209 19.1614C16.9625 19.0029 16.8735 18.7881 16.8735 18.564C16.8735 18.3399 16.9625 18.1251 17.1209 17.9666L21.5877 13.5015L17.1209 9.03638C17.0424 8.95801 16.98 8.8649 16.9375 8.76239C16.8949 8.65988 16.873 8.54999 16.873 8.43901C16.873 8.32803 16.8949 8.21813 16.9375 8.11563C16.98 8.01312 17.0424 7.92001 17.1209 7.84163Z" fill="#333333"/>
<path fill-rule="evenodd" clip-rule="evenodd" d="M3.375 13.5C3.375 13.2762 3.4639 13.0616 3.62213 12.9034C3.78036 12.7451 3.99497 12.6562 4.21875 12.6562H21.9375C22.1613 12.6562 22.3759 12.7451 22.5341 12.9034C22.6924 13.0616 22.7812 13.2762 22.7812 13.5C22.7812 13.7238 22.6924 13.9384 22.5341 14.0966C22.3759 14.2549 22.1613 14.3438 21.9375 14.3438H4.21875C3.99497 14.3438 3.78036 14.2549 3.62213 14.0966C3.4639 13.9384 3.375 13.7238 3.375 13.5Z" fill="#333333"/>
</svg>
