<svg width="24" height="24" viewBox="0 0 24 24" fill="none" xmlns="http://www.w3.org/2000/svg">
<g clip-path="url(#clip0)">
<path d="M4.32676 6.41648L8.15589 8.15929C9.47551 4.3371 11.3888 1.3957 13.3684 0.0171027C9.77289 -0.212116 6.28913 1.7496 4.04851 5.25773C3.79763 5.65148 3.94876 6.24445 4.32676 6.41648ZM9.28614 8.67398L18.2292 12.7441C19.5702 7.05445 18.9304 1.88507 16.6305 0.838821C16.353 0.712259 16.0631 0.651321 15.7646 0.651321C13.5889 0.65179 10.9545 3.89367 9.28614 8.67398ZM19.5555 2.83523C19.7888 3.59929 19.9617 4.4571 20.0505 5.42226C20.2658 7.76085 19.9973 10.4955 19.3399 13.2494L23.1882 15.0007C23.5665 15.1727 23.9873 14.8399 23.997 14.3365C24.084 9.85101 22.4254 5.55023 19.5555 2.83523ZM21 20.9984H12.0398L14.475 12.6321L12.2198 11.6055L9.48601 20.9979H0.600001C0.2685 20.9979 0 21.3335 0 21.7484V23.2488C0 23.6632 0.2685 23.9993 0.600001 23.9993H21C21.3315 23.9993 21.6 23.6632 21.6 23.2488V21.7484C21.6 21.334 21.3315 20.9984 21 20.9984Z" fill="#A2792C"/>
</g>
<defs>
<clipPath id="clip0">
<rect width="24" height="24" fill="white"/>
</clipPath>
</defs>
</svg>
