<svg width="21" height="20" viewBox="0 0 21 20" fill="none" xmlns="http://www.w3.org/2000/svg">
<g clip-path="url(#clip0)">
<path d="M2.36361 3.00032V8.12759C2.01886 8.04308 1.66215 8.01848 1.30906 8.05486C0.799971 8.18214 0.29088 8.90941 -0.200029 9.09123C-0.460924 7.93543 -0.354072 6.72698 0.105584 5.63489C0.56524 4.5428 1.35472 3.62167 2.36361 3.00032ZM6.56361 1.87305L9.19997 6.27305C9.4264 6.02553 9.70619 5.83278 10.0182 5.70941C10.5091 5.58214 11.2909 5.94577 11.8363 5.87305C11.49 4.73636 10.794 3.73787 9.84733 3.0197C8.90065 2.30153 7.75156 1.90028 6.56361 1.87305ZM-2.21094 18.1821H14.1345C12.616 16.7432 10.6345 15.8924 8.54542 15.7821L6.12724 6.80032C6.96361 6.72759 7.98179 6.90941 8.43633 6.78214L5.50906 1.89123C5.12809 1.92413 4.75083 1.99107 4.38179 2.09123C3.99782 2.18936 3.62587 2.32961 3.2727 2.50941V8.14577C3.72724 8.00032 4.50906 7.38214 5.23633 7.05487L7.54542 15.6912C7.0727 15.6549 6.56361 15.6367 6.01815 15.6367C-0.381847 15.6367 -2.21094 18.1821 -2.21094 18.1821Z" fill="#E2C022"/>
</g>
<defs>
<clipPath id="clip0">
<rect width="20.3779" height="20" fill="white" transform="translate(0.137695)"/>
</clipPath>
</defs>
</svg>
