<svg width="32" height="25" viewBox="0 0 32 25" fill="none" xmlns="http://www.w3.org/2000/svg">
<g clip-path="url(#clip0)">
<path d="M19.9999 4.6875C20.4746 4.6875 20.9386 4.55004 21.3333 4.29251C21.728 4.03497 22.0356 3.66893 22.2173 3.24067C22.3989 2.8124 22.4464 2.34115 22.3538 1.88651C22.2612 1.43187 22.0326 1.01425 21.697 0.68647C21.3614 0.35869 20.9337 0.13547 20.4682 0.0450356C20.0026 -0.0453986 19.52 0.00101551 19.0815 0.178408C18.643 0.355801 18.2681 0.656206 18.0044 1.04163C17.7407 1.42706 17.5999 1.8802 17.5999 2.34375C17.5999 2.96535 17.8528 3.56149 18.3029 4.00103C18.753 4.44057 19.3634 4.6875 19.9999 4.6875ZM19.7999 10.5957C20.0837 10.8176 20.4365 10.9382 20.7999 10.9375H23.9999C24.4243 10.9375 24.8313 10.7729 25.1313 10.4799C25.4314 10.1868 25.5999 9.7894 25.5999 9.375C25.5999 8.9606 25.4314 8.56317 25.1313 8.27015C24.8313 7.97712 24.4243 7.8125 23.9999 7.8125H21.3609L17.7999 5.0293C17.5093 4.80144 17.1462 4.68002 16.7736 4.68609C16.4009 4.69215 16.0421 4.82531 15.7594 5.0625L10.1594 9.75C9.97187 9.90706 9.82409 10.1044 9.72769 10.3266C9.63128 10.5487 9.58888 10.7897 9.6038 11.0305C9.61872 11.2714 9.69055 11.5056 9.81367 11.7148C9.93679 11.924 10.1079 12.1025 10.3134 12.2363L14.3999 14.8984V20.3125C14.3999 20.7269 14.5685 21.1243 14.8686 21.4174C15.1686 21.7104 15.5756 21.875 15.9999 21.875C16.4243 21.875 16.8313 21.7104 17.1313 21.4174C17.4314 21.1243 17.5999 20.7269 17.5999 20.3125V14.0625C17.5999 13.8053 17.5348 13.5521 17.4105 13.3254C17.2863 13.0986 17.1066 12.9054 16.8874 12.7627L14.8194 11.4165L17.7319 8.979L19.7999 10.5957ZM25.5999 12.5C24.3341 12.5 23.0968 12.8666 22.0443 13.5533C20.9918 14.2401 20.1715 15.2162 19.6871 16.3582C19.2027 17.5003 19.076 18.7569 19.3229 19.9693C19.5699 21.1817 20.1794 22.2953 21.0745 23.1694C21.9695 24.0435 23.1099 24.6388 24.3514 24.8799C25.5928 25.1211 26.8797 24.9973 28.0491 24.5243C29.2186 24.0512 30.2181 23.2501 30.9213 22.2223C31.6246 21.1945 31.9999 19.9861 31.9999 18.75C31.9999 17.0924 31.3257 15.5027 30.1254 14.3306C28.9252 13.1585 27.2973 12.5 25.5999 12.5ZM25.5999 21.875C24.967 21.875 24.3484 21.6917 23.8221 21.3483C23.2959 21.005 22.8857 20.5169 22.6435 19.9459C22.4013 19.3749 22.338 18.7465 22.4614 18.1403C22.5849 17.5342 22.8897 16.9773 23.3372 16.5403C23.7847 16.1033 24.3549 15.8056 24.9757 15.685C25.5964 15.5645 26.2398 15.6264 26.8245 15.8629C27.4093 16.0994 27.909 16.4999 28.2606 17.0138C28.6123 17.5277 28.7999 18.1319 28.7999 18.75C28.7999 19.5788 28.4628 20.3737 27.8627 20.9597C27.2626 21.5458 26.4486 21.875 25.5999 21.875ZM6.39994 12.5C5.13414 12.5 3.89677 12.8666 2.84429 13.5533C1.79182 14.2401 0.971514 15.2162 0.487113 16.3582C0.00271196 17.5003 -0.124029 18.7569 0.122916 19.9693C0.369861 21.1817 0.979402 22.2953 1.87446 23.1694C2.76951 24.0435 3.90989 24.6388 5.15136 24.8799C6.39284 25.1211 7.67967 24.9973 8.84912 24.5243C10.0186 24.0512 11.0181 23.2501 11.7213 22.2223C12.4246 21.1945 12.7999 19.9861 12.7999 18.75C12.7999 17.0924 12.1257 15.5027 10.9254 14.3306C9.72519 13.1585 8.09733 12.5 6.39994 12.5ZM6.39994 21.875C5.76704 21.875 5.14835 21.6917 4.62212 21.3483C4.09588 21.005 3.68573 20.5169 3.44353 19.9459C3.20133 19.3749 3.13796 18.7465 3.26143 18.1403C3.3849 17.5342 3.68967 16.9773 4.1372 16.5403C4.58473 16.1033 5.15491 15.8056 5.77565 15.685C6.39639 15.5645 7.03981 15.6264 7.62453 15.8629C8.20925 16.0994 8.70902 16.4999 9.06065 17.0138C9.41226 17.5277 9.59994 18.1319 9.59994 18.75C9.59994 19.5788 9.2628 20.3737 8.66268 20.9597C8.06257 21.5458 7.24863 21.875 6.39994 21.875Z" fill="#A2792C"/>
</g>
<defs>
<clipPath id="clip0">
<rect width="32" height="25" fill="white"/>
</clipPath>
</defs>
</svg>
