<svg width="21" height="20" viewBox="0 0 21 20" fill="none" xmlns="http://www.w3.org/2000/svg">
<g clip-path="url(#clip0)">
<path d="M6.33366 3.33366C6.33366 2.40866 7.07533 1.66699 8.00033 1.66699C8.92533 1.66699 9.66699 2.40866 9.66699 3.33366C9.66699 4.25866 8.92533 5.00033 8.00033 5.00033C7.07533 5.00033 6.33366 4.25866 6.33366 3.33366ZM9.66699 18.3337V13.3337H11.7503L9.63366 6.97533C9.52218 6.64342 9.30949 6.35479 9.02549 6.15001C8.74149 5.94523 8.40045 5.8346 8.05033 5.83366H7.95033C7.5999 5.83334 7.25828 5.94349 6.97403 6.14844C6.68979 6.3534 6.47738 6.64273 6.36699 6.97533L5.65033 9.12533C6.55033 9.62533 7.16699 10.567 7.16699 11.667V18.3337H9.66699ZM3.41699 9.58366C4.10866 9.58366 4.66699 9.02533 4.66699 8.33366C4.66699 7.64199 4.10866 7.08366 3.41699 7.08366C2.72533 7.08366 2.16699 7.64199 2.16699 8.33366C2.16699 9.02533 2.72533 9.58366 3.41699 9.58366ZM-2.41634 5.00033C-1.49134 5.00033 -0.749674 4.25866 -0.749674 3.33366C-0.749674 2.40866 -1.49134 1.66699 -2.41634 1.66699C-3.34134 1.66699 -4.08301 2.40866 -4.08301 3.33366C-4.08301 4.25866 -3.34134 5.00033 -2.41634 5.00033ZM-0.749674 18.3337V12.5003H0.500326V7.50033C0.500326 6.58366 -0.249674 5.83366 -1.16634 5.83366H-3.66634C-4.58301 5.83366 -5.33301 6.58366 -5.33301 7.50033V12.5003H-4.08301V18.3337H-0.749674ZM4.66699 18.3337V15.0003H5.50033V11.667C5.50033 10.9837 4.93366 10.417 4.25033 10.417H2.58366C1.90033 10.417 1.33366 10.9837 1.33366 11.667V15.0003H2.16699V18.3337H4.66699Z" fill="#E2C022"/>
</g>
<defs>
<clipPath id="clip0">
<rect width="20.3779" height="20" fill="white" transform="translate(0.236328)"/>
</clipPath>
</defs>
</svg>
