<svg width="32" height="32" viewBox="0 0 32 32" fill="none" xmlns="http://www.w3.org/2000/svg">
<path d="M21.5625 16.625C21.5625 17.1419 21.983 17.5625 22.5 17.5625C23.017 17.5625 23.4375 17.1419 23.4375 16.625V12.875H29.125V10.0625H21.6251C22.7635 9.20731 23.5 7.84594 23.5 6.3125H20.6875C18.4198 6.3125 16.5282 7.92294 16.0939 10.0625H15.9061C15.4717 7.92294 13.5802 6.3125 11.3125 6.3125H8.5C8.5 7.846 9.2365 9.20731 10.3749 10.0625H2.875V12.875H21.5625V16.625Z" fill="#A2792C"/>
<path d="M16 6.57433L19.0299 3.77027C19.8066 2.99358 19.8066 1.73427 19.0299 0.957515C18.2532 0.180828 16.9939 0.180828 16.2171 0.957515L16 1.1747L15.7829 0.957515C15.0061 0.180828 13.7468 0.180828 12.9701 0.957515C12.1934 1.73427 12.1934 2.99358 12.9701 3.77027L16 6.57433Z" fill="#A2792C"/>
<path d="M29.125 14.75H25.3125V16.625C25.3125 18.1758 24.0509 19.4375 22.5 19.4375C20.9491 19.4375 19.6875 18.1758 19.6875 16.625V14.75H2.875V21.3125H29.125V14.75Z" fill="#A2792C"/>
<path d="M0 23.1875C0 25.7763 2.09862 27.875 4.6875 27.875H13.1875V29.75H11.3125V31.625H20.6875V29.75H18.8125V27.875H27.3125C29.9014 27.875 32 25.7763 32 23.1875C31.1844 23.1875 8.48375 23.1875 0 23.1875ZM16.9375 29.75H15.0625V27.875H16.9375V29.75Z" fill="#A2792C"/>
</svg>
