<svg width="32" height="32" viewBox="0 0 32 32" fill="none" xmlns="http://www.w3.org/2000/svg">
<g clip-path="url(#clip0)">
<path fill-rule="evenodd" clip-rule="evenodd" d="M32 6.14434C32 2.75345 29.3064 0.000488281 25.9901 0.000488281H6.00987C2.69362 0.000488281 0 2.75345 0 6.14434V25.8564C0 29.2464 2.69362 32.0002 6.00989 32.0002H25.9901C29.3064 32.0002 32 29.2464 32 25.8564L32 6.14434Z" fill="#0C3B7C"/>
<path fill-rule="evenodd" clip-rule="evenodd" d="M0.000976562 19.8799H15.983V31.9998H0.000988275L0.000976562 19.8799Z" fill="#0C3B7C"/>
<path d="M14.5428 21.1812L11.9654 21.1785V18.0274C11.9654 17.3541 12.2208 17.0037 12.7843 16.9237H14.5428C15.7968 16.9237 16.608 17.7321 16.608 19.0406C16.608 20.3845 15.8174 21.1799 14.5428 21.1812H14.5428ZM11.9654 12.6819V11.8524C11.9654 11.1267 12.2658 10.7815 12.9242 10.7369H14.2437C15.3745 10.7369 16.0523 11.4285 16.0523 12.5874C16.0523 13.4694 15.5876 14.4996 14.2848 14.4996H11.9654V12.6819ZM17.8338 15.8265L17.3679 15.5587L17.7748 15.2031C18.2484 14.787 19.0416 13.8513 19.0416 12.237C19.0416 9.76437 17.1664 8.16977 14.2643 8.16977H10.9527V8.16846H10.5753C9.71534 8.20127 9.02607 8.91655 9.01709 9.80113V23.831H14.3297C17.5553 23.831 19.6372 22.0356 19.6372 19.2545C19.6372 17.757 18.9646 16.4774 17.8338 15.8265Z" fill="white"/>
<path d="M21.021 21.8929C21.021 20.8212 21.8664 19.9541 22.908 19.9541C23.9522 19.9541 24.8015 20.8212 24.8015 21.8929C24.8015 22.9633 23.9522 23.8318 22.9079 23.8318C21.8664 23.8318 21.021 22.9633 21.021 21.8929Z" fill="#00BAFC"/>
</g>
<defs>
<clipPath id="clip0">
<rect width="32" height="32" fill="white"/>
</clipPath>
</defs>
</svg>
