<svg width="85" height="85" viewBox="0 0 85 85" fill="none" xmlns="http://www.w3.org/2000/svg">
<g filter="url(#filter0_d)">
<circle cx="42.5" cy="41.5" r="40.5" fill="white"/>
</g>
<path d="M37.75 24.2259C34.2217 22.5413 29.29 21.7161 22.6875 21.6868C22.0648 21.6783 21.4543 21.8599 20.9375 22.2073C20.5133 22.4941 20.166 22.8807 19.9262 23.3331C19.6865 23.7856 19.5616 24.29 19.5625 24.802V52.7415C19.5625 54.6302 20.9063 56.055 22.6875 56.055C29.6279 56.055 36.5898 56.7034 40.7598 60.6448C40.8168 60.699 40.8885 60.7352 40.966 60.7489C41.0434 60.7627 41.1232 60.7534 41.1954 60.7222C41.2676 60.691 41.329 60.6392 41.3721 60.5734C41.4151 60.5075 41.4379 60.4305 41.4375 60.3518V27.4309C41.4377 27.2088 41.3902 26.9893 41.2982 26.7871C41.2062 26.5849 41.0719 26.4049 40.9043 26.2591C39.9491 25.4425 38.8881 24.7586 37.75 24.2259Z" fill="#CAAD2E"/>
<path d="M65.0625 22.2054C64.5454 21.8589 63.9349 21.6783 63.3125 21.6879C56.71 21.7172 51.7783 22.5384 48.25 24.2269C47.1119 24.7587 46.0506 25.4412 45.0947 26.2562C44.9275 26.4023 44.7935 26.5824 44.7017 26.7845C44.6099 26.9867 44.5625 27.2061 44.5625 27.4281V60.3509C44.5625 60.4265 44.5847 60.5005 44.6265 60.5634C44.6683 60.6264 44.7278 60.6756 44.7975 60.7049C44.8672 60.7343 44.9439 60.7423 45.0182 60.7282C45.0924 60.714 45.1608 60.6782 45.2148 60.6254C47.7217 58.1351 52.1211 56.0531 63.3164 56.0541C64.1452 56.0541 64.9401 55.7248 65.5261 55.1388C66.1122 54.5527 66.4414 53.7579 66.4414 52.9291V24.8041C66.4425 24.291 66.3173 23.7856 66.0769 23.3323C65.8364 22.8791 65.488 22.4921 65.0625 22.2054Z" fill="#CAAD2E"/>
<defs>
<filter id="filter0_d" x="0" y="0" width="85" height="85" filterUnits="userSpaceOnUse" color-interpolation-filters="sRGB">
<feFlood flood-opacity="0" result="BackgroundImageFix"/>
<feColorMatrix in="SourceAlpha" type="matrix" values="0 0 0 0 0 0 0 0 0 0 0 0 0 0 0 0 0 0 127 0"/>
<feMorphology radius="1" operator="dilate" in="SourceAlpha" result="effect1_dropShadow"/>
<feOffset dy="1"/>
<feGaussianBlur stdDeviation="0.5"/>
<feColorMatrix type="matrix" values="0 0 0 0 0 0 0 0 0 0 0 0 0 0 0 0 0 0 0.25 0"/>
<feBlend mode="normal" in2="BackgroundImageFix" result="effect1_dropShadow"/>
<feBlend mode="normal" in="SourceGraphic" in2="effect1_dropShadow" result="shape"/>
</filter>
</defs>
</svg>
