<svg width="30" height="32" viewBox="0 0 30 32" fill="none" xmlns="http://www.w3.org/2000/svg">
<path d="M28.125 32C28.6432 32 29.0625 31.5807 29.0625 31.0625C29.0625 30.5165 29.0625 17.4449 29.0625 16.9375H15.9375V18.8125H14.0625V16.9375H0.9375V31.0625C0.9375 31.5807 1.35681 32 1.875 32C2.39319 32 2.8125 31.5807 2.8125 31.0625V30.125H12.1875V31.0625C12.1875 31.5807 12.6068 32 13.125 32C13.6432 32 14.0625 31.5807 14.0625 31.0625C14.0625 30.4113 14.0625 25.0899 14.0625 24.4375H15.9375V31.0625C15.9375 31.5807 16.3568 32 16.875 32C17.3932 32 17.8125 31.5807 17.8125 31.0625V30.125H27.1875V31.0625C27.1875 31.5807 27.6068 32 28.125 32Z" fill="#A2792C"/>
<path d="M20.625 11.3125C18.3615 11.3125 16.4679 12.9256 16.0323 15.0625H28.9676C28.532 12.9256 26.6385 11.3125 24.375 11.3125H20.625Z" fill="#A2792C"/>
<path d="M9.375 0H5.625C5.10681 0 4.6875 0.419312 4.6875 0.9375V9.53225C4.99637 9.4875 5.304 9.4375 5.625 9.4375H9.375C9.696 9.4375 10.0036 9.4875 10.3125 9.53225V7.38981C10.6072 7.49487 10.9198 7.5625 11.25 7.5625C12.8009 7.5625 14.0625 6.30087 14.0625 4.75V2.8125C14.0625 2.29525 14.4827 1.875 15 1.875C15.5173 1.875 15.9375 2.29525 15.9375 2.8125V4.75C15.9375 6.30087 17.1991 7.5625 18.75 7.5625C19.0802 7.5625 19.3928 7.49487 19.6875 7.38981V9.53225C19.9964 9.4875 20.304 9.4375 20.625 9.4375H24.375C24.696 9.4375 25.0036 9.4875 25.3125 9.53225V0.9375C25.3125 0.419312 24.8932 0 24.375 0H20.625C20.1068 0 19.6875 0.419312 19.6875 0.9375V4.75C19.6875 5.26725 19.2673 5.6875 18.75 5.6875C18.2327 5.6875 17.8125 5.26725 17.8125 4.75V2.8125C17.8125 1.26163 16.5509 0 15 0C13.4491 0 12.1875 1.26163 12.1875 2.8125V4.75C12.1875 5.26725 11.7673 5.6875 11.25 5.6875C10.7327 5.6875 10.3125 5.26725 10.3125 4.75V0.9375C10.3125 0.419312 9.89319 0 9.375 0Z" fill="#A2792C"/>
<path d="M1.03235 15.0625H13.9676C13.532 12.9256 11.6385 11.3125 9.37497 11.3125H5.62497C3.36147 11.3125 1.46791 12.9256 1.03235 15.0625Z" fill="#A2792C"/>
</svg>
