<svg width="20" height="20" viewBox="0 0 20 20" fill="none" xmlns="http://www.w3.org/2000/svg">
<path d="M2.69136 7.54387L1.80664 8.87859L1.80831 9.62998L2.87775 10.1294L4.41747 9.59943C4.41747 9.59943 4.93192 11.2814 6.15886 11.555L7.62886 11.6842L7.82553 13.5114L7.71358 14.9641L8.24053 15.6508L8.77692 15.3136L9.21358 13.3336L9.33275 11.5555L11.298 11.5191L12.9844 11.7225L13.5664 12.0917L15.0441 11.0261L15.7247 12.5822L15.655 14.9775L16.0894 15.6289H16.7144L17.2005 15.2319L17.3214 12.4461C17.3214 12.4461 17.015 11.4614 16.9997 11.4003C16.9844 11.3392 17.3214 8.10248 17.3214 8.10248C17.3214 8.10248 17.7894 6.70387 17.3214 6.11832C16.8533 5.53276 14.8408 5.58943 14.8408 5.58943L10.9555 5.60637C10.9555 5.60637 8.82081 5.01637 7.91803 5.74915L7.28303 5.64859L6.75747 6.31998L5.51331 6.03304L4.4522 5.55582L2.97442 5.99582L2.69136 7.54387Z" fill="#3F3F3F"/>
<path d="M11.0542 11.3997L10.5631 15.0891C10.5631 15.0891 10.1978 15.5552 10.1398 15.5436C10.082 15.5322 9.66948 15.7058 9.66948 15.7058C9.66948 15.7058 8.91309 15.6941 8.82031 15.37L9.20226 13.7727L9.30531 11.9544L9.76198 11.4464L11.0542 11.3994V11.3997Z" fill="#3F3F3F"/>
<path d="M2.5589 4.6184C2.34112 4.50812 1.79557 4.69395 1.44779 5.19701C0.868067 6.0359 1.0839 7.33645 2.90612 6.87534C2.90612 6.87534 3.47307 5.85673 4.98029 6.6809C4.98029 6.6809 6.61668 8.07895 7.73251 6.45673C7.91779 6.11145 8.17223 4.47395 6.70223 4.47951L7.2039 5.74895L6.64446 6.34284C6.64446 6.34284 5.61973 5.98423 5.51279 5.9609C5.40612 5.93784 4.51584 5.62534 4.45168 5.62534C4.38751 5.62534 3.5889 5.75256 3.47307 5.85673C3.35723 5.9609 2.73251 6.18423 2.54723 6.1809C2.36196 6.17756 1.86668 6.1459 1.86668 6.1459C1.86668 6.1459 2.08418 5.3359 2.06112 5.28978C2.03807 5.2434 2.5589 4.6184 2.5589 4.6184Z" fill="#9B9B9A"/>
<path d="M2.4746 5.12611C2.4746 5.12611 1.37265 6.11167 2.00154 6.52917C2.25654 6.69833 2.8171 6.41417 2.97377 6.24528C3.20988 5.99056 4.01627 5.23139 5.25821 6.15083C5.58432 6.3925 5.99015 6.86278 6.66627 6.53611C7.08738 6.3325 7.67738 5.54 6.73849 5" stroke="#E2C022" stroke-width="0.5" stroke-miterlimit="10" stroke-linecap="round" stroke-linejoin="round"/>
<path d="M5.32031 7.61437C5.32031 7.61437 5.96476 7.41993 6.61698 8.04798C6.61698 8.04798 6.61865 8.88493 5.35726 8.88965" stroke="#E2C022" stroke-width="0.5" stroke-miterlimit="10" stroke-linecap="round" stroke-linejoin="round"/>
<path d="M8.10156 5.93969C8.10156 5.93969 8.84851 5.2258 10.7877 5.70163C12.2627 6.0633 14.2593 5.80802 15.1313 5.66497C15.4193 5.61774 18.3849 5.73774 18.1918 8.24358C18.0557 10.008 17.658 11.3125 18.4021 12.2397" stroke="#E2C022" stroke-width="0.5" stroke-miterlimit="10" stroke-linecap="round" stroke-linejoin="round"/>
<path d="M7.59332 11.6537C6.66971 11.7712 5.95805 11.7662 5.46832 11.4282C4.94749 10.9901 4.64943 10.4365 4.41693 9.84845C3.96527 10.1587 2.60388 10.3982 2.25443 10.2271C1.53138 9.87261 1.8061 9.12761 1.8061 9.12761L2.9511 7.40039" stroke="#E2C022" stroke-width="0.5" stroke-miterlimit="10" stroke-linecap="round" stroke-linejoin="round"/>
<path d="M9.60673 7.91992L9.72729 10.5444C9.72729 10.5444 8.95896 11.9105 9.1784 13.4596L8.77118 15.3466C8.74489 15.4685 8.67762 15.5777 8.58057 15.6561C8.48353 15.7344 8.36257 15.7772 8.23785 15.7771H8.20562C7.84674 15.7771 7.58174 15.436 7.67868 15.0905C7.85451 14.4638 8.03035 13.4905 7.81674 12.5227C7.39368 10.6044 7.70257 10.1346 7.70257 10.1346" stroke="#E2C022" stroke-width="0.5" stroke-miterlimit="10" stroke-linecap="round" stroke-linejoin="round"/>
<path d="M9.28809 11.7195C9.28809 11.7195 12.2031 11.3861 13.6059 12.0817C13.6059 12.0817 14.472 11.057 15.0086 10.9717" stroke="#E2C022" stroke-width="0.5" stroke-miterlimit="10" stroke-linecap="round" stroke-linejoin="round"/>
<path d="M13.9531 8.61145C13.9531 8.61145 15.4487 11.6912 15.6192 12.2401C15.7545 12.6748 15.7381 14.4592 15.7403 15.1545C15.7431 15.9951 16.9531 15.8928 16.9862 15.2192C17.0123 14.6887 17.0706 13.6378 17.2395 12.8503C17.2895 12.6181 17.3228 12.3823 17.2103 12.1731C16.9492 11.687 16.6826 10.737 16.9362 9.48339C17.1676 8.33812 17.152 8.07617 17.152 8.07617" stroke="#E2C022" stroke-width="0.5" stroke-miterlimit="10" stroke-linecap="round" stroke-linejoin="round"/>
<path d="M10.9199 11.6816C10.9199 11.6816 10.5449 14.5511 10.5277 15.2164C10.5224 15.4228 10.2518 15.5944 10.0455 15.5944H9.72656" stroke="#E2C022" stroke-width="0.5" stroke-miterlimit="10" stroke-linecap="round" stroke-linejoin="round"/>
</svg>
