 <svg
    width="50"
    height="50"
    viewBox="0 0 50 50"
    fill="none"
    xmlns="http://www.w3.org/2000/svg"
    >
    <path
        d="M25 6.25C17.2547 6.25 10.9375 12.5672 10.9375 20.3125C10.9375 23.3094 12.2563 26.4156 14.0625 29.2C15.4062 31.2687 17.0109 33.1719 18.75 34.6187V39.0625C18.75 40.7719 20.1656 42.1875 21.875 42.1875L23.4375 43.75H26.5625L28.125 42.1875C29.8344 42.1875 31.25 40.7719 31.25 39.0625V34.6187C32.9891 33.1719 34.5938 31.2687 35.9375 29.2C37.7437 26.4156 39.0625 23.3094 39.0625 20.3125C39.0625 12.5672 32.7453 6.25 25 6.25ZM25 9.375C31.0609 9.375 35.9375 14.2516 35.9375 20.3125C35.9375 22.3578 34.9297 25.0547 33.35 27.4906C31.9391 29.6625 30.0844 31.5984 28.3687 32.8125H21.6312C19.9156 31.5984 18.0609 29.6625 16.65 27.4906C15.0703 25.0547 14.0625 22.3578 14.0625 20.3125C14.0625 14.2516 18.9391 9.375 25 9.375ZM22.2656 35.9375H27.7344C27.8563 36.0234 27.9844 36.0844 28.125 36.1328V39.0625H21.875V36.1328C22.0137 36.0863 22.1452 36.0206 22.2656 35.9375Z"
        fill="#A2792C"
    />
</svg>