<svg width="46" height="44" viewBox="0 0 46 44" fill="none" xmlns="http://www.w3.org/2000/svg">
<path d="M0.083252 0.166504V43.9165H4.24992V39.7498H41.7499V43.9165H45.9166V10.5832C45.9166 5.979 42.1874 2.24984 37.5833 2.24984H18.8333V12.6665H4.24992V0.166504H0.083252ZM11.5416 0.166504C10.1602 0.166504 8.83549 0.715237 7.85874 1.69199C6.88199 2.66874 6.33325 3.9935 6.33325 5.37484C6.33325 6.75617 6.88199 8.08093 7.85874 9.05768C8.83549 10.0344 10.1602 10.5832 11.5416 10.5832C12.2256 10.5832 12.9028 10.4485 13.5347 10.1867C14.1666 9.92497 14.7408 9.54132 15.2244 9.05768C15.7081 8.57405 16.0917 7.99988 16.3535 7.36798C16.6152 6.73608 16.7499 6.0588 16.7499 5.37484C16.7499 3.9935 16.2012 2.66874 15.2244 1.69199C14.2477 0.715237 12.9229 0.166504 11.5416 0.166504ZM4.24992 18.9165H41.7499V24.2498C40.5207 23.5207 39.1041 23.0832 37.5833 23.0832H18.8333V33.4998H4.24992V18.9165ZM11.5416 20.9998C10.1602 20.9998 8.83549 21.5486 7.85874 22.5253C6.88199 23.5021 6.33325 24.8268 6.33325 26.2082C6.33325 27.5895 6.88199 28.9143 7.85874 29.891C8.83549 30.8678 10.1602 31.4165 11.5416 31.4165C12.9229 31.4165 14.2477 30.8678 15.2244 29.891C16.2012 28.9143 16.7499 27.5895 16.7499 26.2082C16.7499 24.8268 16.2012 23.5021 15.2244 22.5253C14.2477 21.5486 12.9229 20.9998 11.5416 20.9998Z" fill="#979797"/>
</svg>
