<svg width="32" height="32" viewBox="0 0 32 32" fill="none" xmlns="http://www.w3.org/2000/svg">
<path d="M14.6667 20.5523V26.6669H17.3334V20.5523C17.3334 19.8509 17.048 19.1629 16.552 18.6669L13.8854 16.0003L17.3334 12.5523L20 15.2189C20.496 15.7149 21.184 16.0003 21.8854 16.0003H26.6667V13.3336H21.8854L16.9427 8.39094C16.819 8.26701 16.6721 8.16869 16.5103 8.10161C16.3485 8.03453 16.1752 8 16 8C15.8249 8 15.6515 8.03453 15.4898 8.10161C15.328 8.16869 15.1811 8.26701 15.0574 8.39094L10.6667 12.7816C10.1627 13.2856 9.88538 13.9549 9.88538 14.6669C9.88538 15.3789 10.1627 16.0483 10.6667 16.5523L14.6667 20.5523Z" fill="#A2792C"/>
<path d="M21.3333 9.33333C22.8061 9.33333 24 8.13943 24 6.66667C24 5.19391 22.8061 4 21.3333 4C19.8605 4 18.6666 5.19391 18.6666 6.66667C18.6666 8.13943 19.8605 9.33333 21.3333 9.33333Z" fill="#A2792C"/>
<path d="M24 18.667C21.0586 18.667 18.6666 21.059 18.6666 24.0003C18.6666 26.9417 21.0586 29.3337 24 29.3337C26.9413 29.3337 29.3333 26.9417 29.3333 24.0003C29.3333 21.059 26.9413 18.667 24 18.667ZM24 26.667C22.5293 26.667 21.3333 25.471 21.3333 24.0003C21.3333 22.5297 22.5293 21.3337 24 21.3337C25.4706 21.3337 26.6666 22.5297 26.6666 24.0003C26.6666 25.471 25.4706 26.667 24 26.667ZM7.99996 29.3337C10.9413 29.3337 13.3333 26.9417 13.3333 24.0003C13.3333 21.059 10.9413 18.667 7.99996 18.667C5.05863 18.667 2.66663 21.059 2.66663 24.0003C2.66663 26.9417 5.05863 29.3337 7.99996 29.3337ZM7.99996 21.3337C9.47063 21.3337 10.6666 22.5297 10.6666 24.0003C10.6666 25.471 9.47063 26.667 7.99996 26.667C6.52929 26.667 5.33329 25.471 5.33329 24.0003C5.33329 22.5297 6.52929 21.3337 7.99996 21.3337Z" fill="#A2792C"/>
</svg>
