<svg width="37" height="37" viewBox="0 0 37 37" fill="none" xmlns="http://www.w3.org/2000/svg">
<path d="M24.6667 15.417H12.3333C11.4854 15.417 10.7917 16.1107 10.7917 16.9587C10.7917 17.8066 11.4854 18.5003 12.3333 18.5003H24.6667C25.5146 18.5003 26.2083 17.8066 26.2083 16.9587C26.2083 16.1107 25.5146 15.417 24.6667 15.417ZM29.2917 4.62533H27.75V3.08366C27.75 2.23574 27.0562 1.54199 26.2083 1.54199C25.3604 1.54199 24.6667 2.23574 24.6667 3.08366V4.62533H12.3333V3.08366C12.3333 2.23574 11.6396 1.54199 10.7917 1.54199C9.94375 1.54199 9.25 2.23574 9.25 3.08366V4.62533H7.70833C6.89058 4.62533 6.10632 4.95018 5.52809 5.52841C4.94985 6.10665 4.625 6.89091 4.625 7.70866V29.292C4.625 30.1097 4.94985 30.894 5.52809 31.4722C6.10632 32.0505 6.89058 32.3753 7.70833 32.3753H29.2917C30.9875 32.3753 32.375 30.9878 32.375 29.292V7.70866C32.375 6.01283 30.9875 4.62533 29.2917 4.62533ZM27.75 29.292H9.25C8.40208 29.292 7.70833 28.5982 7.70833 27.7503V12.3337H29.2917V27.7503C29.2917 28.5982 28.5979 29.292 27.75 29.292ZM20.0417 21.5837H12.3333C11.4854 21.5837 10.7917 22.2774 10.7917 23.1253C10.7917 23.9732 11.4854 24.667 12.3333 24.667H20.0417C20.8896 24.667 21.5833 23.9732 21.5833 23.1253C21.5833 22.2774 20.8896 21.5837 20.0417 21.5837Z" fill="#A2792C"/>
</svg>
