<svg width="166" height="166" viewBox="0 0 166 166" fill="none" xmlns="http://www.w3.org/2000/svg">
<circle cx="83" cy="83" r="83" fill="#A2792C"/>
<circle cx="83" cy="83" r="68" fill="white"/>
<path opacity="0.5" d="M114.75 77.25H52.2501V105.375C52.2501 107.861 53.2378 110.246 54.996 112.004C56.7542 113.762 59.1387 114.75 61.6251 114.75H105.375C107.862 114.75 110.246 113.762 112.004 112.004C113.762 110.246 114.75 107.861 114.75 105.375V77.25ZM67.8751 71C67.0463 71 66.2515 70.6708 65.6654 70.0847C65.0794 69.4987 64.7501 68.7038 64.7501 67.875V55.375C64.7501 54.5462 65.0794 53.7513 65.6654 53.1653C66.2515 52.5792 67.0463 52.25 67.8751 52.25C68.7039 52.25 69.4988 52.5792 70.0848 53.1653C70.6709 53.7513 71.0001 54.5462 71.0001 55.375V67.875C71.0001 68.7038 70.6709 69.4987 70.0848 70.0847C69.4988 70.6708 68.7039 71 67.8751 71ZM99.1251 71C98.2963 71 97.5015 70.6708 96.9154 70.0847C96.3294 69.4987 96.0001 68.7038 96.0001 67.875V55.375C96.0001 54.5462 96.3294 53.7513 96.9154 53.1653C97.5015 52.5792 98.2963 52.25 99.1251 52.25C99.9539 52.25 100.749 52.5792 101.335 53.1653C101.921 53.7513 102.25 54.5462 102.25 55.375V67.875C102.25 68.7038 101.921 69.4987 101.335 70.0847C100.749 70.6708 99.9539 71 99.1251 71Z" fill="#A2792C"/>
<path d="M105.375 58.5H102.25V67.875C102.25 68.7038 101.921 69.4987 101.335 70.0847C100.749 70.6708 99.9539 71 99.1251 71C98.2963 71 97.5015 70.6708 96.9154 70.0847C96.3294 69.4987 96.0001 68.7038 96.0001 67.875V58.5H71.0001V67.875C71.0001 68.7038 70.6709 69.4987 70.0848 70.0847C69.4988 70.6708 68.7039 71 67.8751 71C67.0463 71 66.2515 70.6708 65.6654 70.0847C65.0794 69.4987 64.7501 68.7038 64.7501 67.875V58.5H61.6251C59.1387 58.5 56.7542 59.4877 54.996 61.2459C53.2378 63.004 52.2501 65.3886 52.2501 67.875V77.25H114.75V67.875C114.75 65.3886 113.762 63.004 112.004 61.2459C110.246 59.4877 107.862 58.5 105.375 58.5V58.5Z" fill="#A2792C"/>
</svg>
