<svg width="89" height="89" viewBox="0 0 89 89" fill="none" xmlns="http://www.w3.org/2000/svg">
<path d="M67.0977 39.9805C69.0177 39.9805 70.5742 38.424 70.5742 36.5039C70.5742 34.5839 69.0177 33.0273 67.0977 33.0273C65.1776 33.0273 63.6211 34.5839 63.6211 36.5039C63.6211 38.424 65.1776 39.9805 67.0977 39.9805Z" fill="#A2792C"/>
<path d="M75.0938 6.95312H70.5742V3.47656C70.5742 1.55646 69.0178 0 67.0977 0C65.1776 0 63.6211 1.55646 63.6211 3.47656V6.95312H47.8027V3.47656C47.8027 1.55646 46.2463 0 44.3262 0C42.4061 0 40.8496 1.55646 40.8496 3.47656V6.95312H25.2051V3.47656C25.2051 1.55646 23.6486 0 21.7285 0C19.8084 0 18.252 1.55646 18.252 3.47656V6.95312H13.9062C6.23834 6.95312 0 13.1915 0 20.8594V75.0938C0 82.7617 6.23834 89 13.9062 89H40.502C42.4221 89 43.9785 87.4435 43.9785 85.5234C43.9785 83.6033 42.4221 82.0469 40.502 82.0469H13.9062C10.0723 82.0469 6.95312 78.9277 6.95312 75.0938V20.8594C6.95312 17.0254 10.0723 13.9062 13.9062 13.9062H18.252V17.3828C18.252 19.3029 19.8084 20.8594 21.7285 20.8594C23.6486 20.8594 25.2051 19.3029 25.2051 17.3828V13.9062H40.8496V17.3828C40.8496 19.3029 42.4061 20.8594 44.3262 20.8594C46.2463 20.8594 47.8027 19.3029 47.8027 17.3828V13.9062H63.6211V17.3828C63.6211 19.3029 65.1776 20.8594 67.0977 20.8594C69.0178 20.8594 70.5742 19.3029 70.5742 17.3828V13.9062H75.0938C78.9277 13.9062 82.0469 17.0254 82.0469 20.8594V40.6758C82.0469 42.5959 83.6033 44.1523 85.5234 44.1523C87.4435 44.1523 89 42.5959 89 40.6758V20.8594C89 13.1915 82.7617 6.95312 75.0938 6.95312Z" fill="#A2792C"/>
<path d="M67.9668 46.9336C56.369 46.9336 46.9336 56.369 46.9336 67.9668C46.9336 79.5646 56.369 89 67.9668 89C79.5646 89 89 79.5646 89 67.9668C89 56.369 79.5646 46.9336 67.9668 46.9336ZM67.9668 82.0469C60.2031 82.0469 53.8867 75.7307 53.8867 67.9668C53.8867 60.2029 60.2031 53.8867 67.9668 53.8867C75.7305 53.8867 82.0469 60.2029 82.0469 67.9668C82.0469 75.7307 75.7305 82.0469 67.9668 82.0469Z" fill="#333333"/>
<path d="M73.0078 64.4902H71.4434V60.8398C71.4434 58.9197 69.8869 57.3633 67.9668 57.3633C66.0467 57.3633 64.4902 58.9197 64.4902 60.8398V67.9668C64.4902 69.8869 66.0467 71.4434 67.9668 71.4434H73.0078C74.9279 71.4434 76.4844 69.8869 76.4844 67.9668C76.4844 66.0467 74.9279 64.4902 73.0078 64.4902Z" fill="#333333"/>
<path d="M51.9746 39.9805C53.8947 39.9805 55.4512 38.424 55.4512 36.5039C55.4512 34.5839 53.8947 33.0273 51.9746 33.0273C50.0546 33.0273 48.498 34.5839 48.498 36.5039C48.498 38.424 50.0546 39.9805 51.9746 39.9805Z" fill="#A2792C"/>
<path d="M36.8516 55.1035C38.7716 55.1035 40.3281 53.547 40.3281 51.627C40.3281 49.7069 38.7716 48.1504 36.8516 48.1504C34.9315 48.1504 33.375 49.7069 33.375 51.627C33.375 53.547 34.9315 55.1035 36.8516 55.1035Z" fill="#A2792C"/>
<path d="M21.7285 39.9805C23.6486 39.9805 25.2051 38.424 25.2051 36.5039C25.2051 34.5839 23.6486 33.0273 21.7285 33.0273C19.8085 33.0273 18.252 34.5839 18.252 36.5039C18.252 38.424 19.8085 39.9805 21.7285 39.9805Z" fill="#A2792C"/>
<path d="M21.7285 55.1035C23.6486 55.1035 25.2051 53.547 25.2051 51.627C25.2051 49.7069 23.6486 48.1504 21.7285 48.1504C19.8085 48.1504 18.252 49.7069 18.252 51.627C18.252 53.547 19.8085 55.1035 21.7285 55.1035Z" fill="#A2792C"/>
<path d="M21.7285 70.2266C23.6486 70.2266 25.2051 68.6701 25.2051 66.75C25.2051 64.8299 23.6486 63.2734 21.7285 63.2734C19.8085 63.2734 18.252 64.8299 18.252 66.75C18.252 68.6701 19.8085 70.2266 21.7285 70.2266Z" fill="#A2792C"/>
<path d="M36.8516 70.2266C38.7716 70.2266 40.3281 68.6701 40.3281 66.75C40.3281 64.8299 38.7716 63.2734 36.8516 63.2734C34.9315 63.2734 33.375 64.8299 33.375 66.75C33.375 68.6701 34.9315 70.2266 36.8516 70.2266Z" fill="#A2792C"/>
<path d="M36.8516 39.9805C38.7716 39.9805 40.3281 38.424 40.3281 36.5039C40.3281 34.5839 38.7716 33.0273 36.8516 33.0273C34.9315 33.0273 33.375 34.5839 33.375 36.5039C33.375 38.424 34.9315 39.9805 36.8516 39.9805Z" fill="#A2792C"/>
</svg>
