<svg width="32" height="32" viewBox="0 0 32 32" fill="none" xmlns="http://www.w3.org/2000/svg">
<path d="M28.443 17.4775V16.341C28.9525 16.487 29.5185 16.707 29.5185 16.707C30.7765 16.707 31.3455 15.796 30.7825 14.6825L29.9865 13.1075C30.38 12.8245 30.4845 12.3115 30.1865 11.722L29.2635 9.89652C29.7 9.72452 29.8535 9.28202 29.59 8.76102L28.4155 6.43802C28.079 5.77002 27.528 5.77002 27.1905 6.43802L26.0155 8.76102C25.7525 9.28152 25.9055 9.72502 26.3425 9.89652L25.4195 11.722C25.1215 12.312 25.227 12.8245 25.619 13.1075L24.8235 14.6825C24.2605 15.796 24.8295 16.707 26.087 16.707C26.087 16.707 26.654 16.487 27.163 16.341V17.308C26.2617 17.1409 25.3787 16.8867 24.5265 16.549C23.3755 16.0915 21.442 15.3275 19.748 15.3155C19.7355 15.3155 13.4595 9.26952 13.4595 9.26952L5.954 2.37402L1 5.44252V16.7685C2.59 17.3555 6.406 18.1895 9.925 18.1895C11.8295 18.1895 13.6995 17.9415 15.4835 17.451C15.928 17.3285 16.363 17.168 16.824 16.9985C17.7525 16.656 18.713 16.3025 19.712 16.3025H19.744C21.2795 16.313 23.1065 17.039 24.197 17.472C25.048 17.8105 26.033 18.122 27.165 18.2995V20.2515H28.443V18.4245C29.235 18.4675 30.0815 18.447 31 18.318V17.4145C30.1526 17.5295 29.2951 17.5506 28.443 17.4775ZM8.4415 7.21602V8.58102L7.0975 7.85052L5.5575 8.66152L5.093 7.22652L2.998 8.00602L3.5465 6.43002L2.1325 5.93652L5.8905 3.57502L10.102 7.53952L8.4415 7.21602Z" fill="#A2792C"/>
<path d="M11 4.949H14.2685C14.4459 5.2503 14.6991 5.49994 15.0028 5.67317C15.3066 5.8464 15.6503 5.93718 16 5.9365H18C19.1025 5.9365 20 5.051 20 3.962C20 2.8735 19.1025 1.9875 18 1.9875H17.7315C17.5541 1.68621 17.3009 1.43656 16.9972 1.26334C16.6934 1.09011 16.3497 0.99933 16 1H11C9.8975 1 9 1.886 9 2.9745C9 4.0635 9.8975 4.949 11 4.949ZM11 1.9875H16C16.552 1.9875 17 2.4295 17 2.975H18C18.552 2.975 19 3.417 19 3.9625C19 4.508 18.552 4.95 18 4.95H16C15.448 4.95 15 4.508 15 3.9625H11C10.448 3.9625 10 3.5205 10 2.975C10 2.4295 10.448 1.9875 11 1.9875Z" fill="#A2792C"/>
<path d="M16 7.91077C16 8.99977 16.8975 9.88527 18 9.88527H20C21.1025 9.88527 22 8.99977 22 7.91077C22 7.56727 21.903 7.25027 21.7465 6.96877C22.1009 7.25693 22.5433 7.41503 23 7.41677H25C26.1025 7.41677 27 6.53127 27 5.44227C27 4.35377 26.1025 3.46777 25 3.46777H23C21.8975 3.46777 21 4.35377 21 5.44227C21 5.78527 21.097 6.10327 21.2535 6.38477C20.8993 6.09626 20.4568 5.93796 20 5.93627H18C16.8975 5.93627 16 6.82277 16 7.91077ZM23 4.45527H25C25.552 4.45527 26 4.89727 26 5.44277C26 5.98827 25.552 6.43027 25 6.43027H23C22.448 6.43027 22 5.98827 22 5.44277C22 4.89727 22.448 4.45527 23 4.45527ZM18 6.92377H20C20.552 6.92377 21 7.36577 21 7.91127C21 8.45677 20.552 8.89877 20 8.89877H18C17.448 8.89877 17 8.45677 17 7.91127C17 7.36577 17.448 6.92377 18 6.92377Z" fill="#A2792C"/>
<path d="M9.4375 20.746C9.25959 20.7487 9.08311 20.7782 8.914 20.8335C8.5515 19.638 7.4885 18.7715 6.234 18.7715C5.59833 18.7732 4.98349 18.9983 4.497 19.4075C4.2425 19.0235 3.8225 18.7715 3.3435 18.7715C2.566 18.7715 1.937 19.434 1.937 20.2525C1.937 20.4975 1.999 20.7245 2.098 20.928C1.4515 21.2395 1 21.923 1 22.721C1 23.811 1.8395 24.695 2.8755 24.695C3.4775 24.695 4.007 24.391 4.35 23.927C4.8485 24.4025 5.508 24.695 6.234 24.695C6.89582 24.6934 7.53436 24.4506 8.03 24.012C8.374 24.427 8.874 24.695 9.4375 24.695C10.473 24.695 11.3125 23.8105 11.3125 22.7205C11.3125 21.6305 10.473 20.746 9.4375 20.746Z" fill="#A2792C"/>
<path d="M15.354 18.4014L11.6975 25.5294L12.3365 28.7864L18.9355 31.0004L26.736 29.6469L27.4805 25.5654L23.9925 18.4014H15.354ZM13.6925 28.4589L12.99 28.2234L12.4825 25.6374L15.2695 20.2059C14.5925 22.8544 13.2125 26.9089 13.2125 26.9089L13.6925 28.4589ZM18.631 30.1159L16.6855 29.4634L17.246 27.2844C16.49 25.6099 15.955 21.8649 15.719 19.9499L17.0205 22.7524L18.905 26.8089L18.631 30.1159ZM26.0905 29.0074L19.379 30.1719L19.6365 27.0674L20.0165 27.0129L26.629 26.0589L26.0905 29.0074ZM19.92 26.2784L19.511 26.3369L17.5535 22.1224L16.169 19.1419H23.521L26.531 25.3239L19.92 26.2784Z" fill="#A2792C"/>
</svg>
