<svg width="20" height="20" viewBox="0 0 20 20" fill="none" xmlns="http://www.w3.org/2000/svg">
<path d="M10.0002 3.91992C6.64725 3.91992 3.91943 6.6477 3.91943 10.0007C3.91943 13.3536 6.64725 16.0814 10.0002 16.0814C13.3531 16.0814 16.0809 13.3536 16.0809 10.0006C16.0809 6.6477 13.3531 3.91992 10.0002 3.91992ZM13.3312 12.503L12.5025 13.3316L10.0002 10.8293L7.49779 13.3316L6.66916 12.503L9.17154 10.0006L6.66916 7.49828L7.49779 6.66965L10.0002 9.17199L12.5025 6.66965L13.3312 7.49828L10.8288 10.0006L13.3312 12.503Z" fill="#A2792C"/>
<path d="M17.0711 2.92891C15.1823 1.0402 12.6711 0 10 0C7.32891 0 4.8177 1.0402 2.92891 2.92891C1.0402 4.81766 0 7.32891 0 10C0 12.6711 1.0402 15.1823 2.92891 17.0711C4.8177 18.9598 7.32891 20 10 20C12.6711 20 15.1823 18.9598 17.0711 17.0711C18.9598 15.1823 20 12.6711 20 10C20 7.32891 18.9598 4.81766 17.0711 2.92891ZM10 17.2526C6.0009 17.2526 2.74738 13.9991 2.74738 10C2.74738 6.0009 6.0009 2.74738 10 2.74738C13.9991 2.74738 17.2526 6.0009 17.2526 10C17.2526 13.9991 13.9991 17.2526 10 17.2526Z" fill="#A2792C"/>
</svg>
