<svg width="28" height="28" viewBox="0 0 28 28" fill="none" xmlns="http://www.w3.org/2000/svg">
<path d="M15.0968 13.9997L21.5446 7.55193C21.672 7.40314 21.7386 7.21175 21.731 7.016C21.7234 6.82025 21.6423 6.63457 21.5038 6.49605C21.3653 6.35753 21.1796 6.27638 20.9838 6.26882C20.7881 6.26126 20.5967 6.32785 20.4479 6.45527L14.0001 12.903L7.55234 6.44749C7.40588 6.30103 7.20724 6.21875 7.00011 6.21875C6.79299 6.21875 6.59435 6.30103 6.44789 6.44749C6.30143 6.59395 6.21915 6.79259 6.21915 6.99971C6.21915 7.20683 6.30143 7.40547 6.44789 7.55193L12.9034 13.9997L6.44789 20.4475C6.36647 20.5172 6.30035 20.603 6.25366 20.6995C6.20698 20.796 6.18074 20.9011 6.1766 21.0082C6.17247 21.1153 6.19052 21.2222 6.22962 21.322C6.26872 21.4218 6.32803 21.5124 6.40383 21.5882C6.47963 21.664 6.57028 21.7233 6.67009 21.7624C6.76989 21.8015 6.87671 21.8196 6.98382 21.8154C7.09094 21.8113 7.19604 21.7851 7.29254 21.7384C7.38903 21.6917 7.47483 21.6256 7.54456 21.5442L14.0001 15.0964L20.4479 21.5442C20.5967 21.6716 20.7881 21.7382 20.9838 21.7306C21.1796 21.723 21.3653 21.6419 21.5038 21.5034C21.6423 21.3649 21.7234 21.1792 21.731 20.9834C21.7386 20.7877 21.672 20.5963 21.5446 20.4475L15.0968 13.9997Z" fill="white"/>
</svg>
