<svg width="30" height="30" viewBox="0 0 30 30" fill="none" xmlns="http://www.w3.org/2000/svg">
<path fill-rule="evenodd" clip-rule="evenodd" d="M22.2255 7.77347C22.3128 7.86056 22.3821 7.96401 22.4293 8.07791C22.4766 8.19181 22.5009 8.31391 22.5009 8.43722C22.5009 8.56054 22.4766 8.68264 22.4293 8.79654C22.3821 8.91043 22.3128 9.01389 22.2255 9.10097L9.10048 22.226C8.92444 22.402 8.68569 22.5009 8.43673 22.5009C8.18778 22.5009 7.94902 22.402 7.77298 22.226C7.59694 22.0499 7.49805 21.8112 7.49805 21.5622C7.49805 21.3133 7.59694 21.0745 7.77298 20.8985L20.898 7.77347C20.9851 7.68617 21.0885 7.6169 21.2024 7.56964C21.3163 7.52237 21.4384 7.49805 21.5617 7.49805C21.685 7.49805 21.8071 7.52237 21.921 7.56964C22.0349 7.6169 22.1384 7.68617 22.2255 7.77347Z" fill="#A2792C"/>
<path fill-rule="evenodd" clip-rule="evenodd" d="M7.77347 7.77347C7.68617 7.86056 7.6169 7.96401 7.56964 8.07791C7.52237 8.19181 7.49805 8.31391 7.49805 8.43722C7.49805 8.56054 7.52237 8.68264 7.56964 8.79654C7.6169 8.91043 7.68617 9.01389 7.77347 9.10097L20.8985 22.226C21.0745 22.402 21.3133 22.5009 21.5622 22.5009C21.8112 22.5009 22.0499 22.402 22.226 22.226C22.402 22.0499 22.5009 21.8112 22.5009 21.5622C22.5009 21.3133 22.402 21.0745 22.226 20.8985L9.10097 7.77347C9.01389 7.68617 8.91043 7.6169 8.79654 7.56964C8.68264 7.52237 8.56054 7.49805 8.43722 7.49805C8.31391 7.49805 8.19181 7.52237 8.07791 7.56964C7.96401 7.6169 7.86056 7.68617 7.77347 7.77347Z" fill="#A2792C"/>
</svg>
