<svg width="21" height="20" viewBox="0 0 21 20" fill="none" xmlns="http://www.w3.org/2000/svg">
<g clip-path="url(#clip0)">
<path d="M5.97519 5.15361C6.20887 5.15382 6.4403 5.10798 6.65625 5.0187C6.8722 4.92942 7.06843 4.79846 7.23374 4.6333C7.39905 4.46814 7.53019 4.27202 7.61967 4.05615C7.70914 3.84028 7.75519 3.60889 7.75519 3.37521C7.75514 3.14168 7.70903 2.91045 7.6195 2.69477C7.52998 2.47908 7.39879 2.28316 7.23346 2.11823C7.06812 1.95331 6.87188 1.82261 6.65597 1.73362C6.44006 1.64462 6.20872 1.59909 5.97519 1.59961C5.74169 1.59925 5.5104 1.64489 5.29453 1.73393C5.07867 1.82297 4.88247 1.95367 4.71713 2.11856C4.5518 2.28345 4.42057 2.4793 4.33094 2.69492C4.24132 2.91054 4.19505 3.14171 4.19479 3.37521C4.19511 3.84712 4.38285 4.29959 4.71673 4.63309C5.05061 4.96659 5.50328 5.15383 5.97519 5.15361ZM-0.599609 14.8664C-0.199609 14.8664 0.219991 14.7704 0.579191 14.6092C0.961328 14.4322 1.37724 14.3399 1.79839 14.3388C2.2188 14.3397 2.63398 14.4319 3.01519 14.6092C3.38835 14.7762 3.79239 14.863 4.20119 14.864C4.6086 14.8632 5.01124 14.7763 5.38279 14.6092C5.76446 14.4316 6.18024 14.3394 6.60119 14.3388C7.0218 14.3402 7.43714 14.4324 7.81879 14.6092C8.19034 14.7764 8.59298 14.8632 9.00039 14.864C9.41919 14.864 9.82439 14.7704 10.1816 14.6092C10.5642 14.4322 10.9805 14.34 11.402 14.3388C11.8348 14.3388 12.2488 14.4388 12.6176 14.6092C12.9902 14.776 13.3937 14.8628 13.802 14.864C14.222 14.864 14.624 14.7704 14.9856 14.6092C15.3396 14.4444 15.7234 14.3529 16.1137 14.3404C16.5041 14.3279 16.8929 14.3946 17.2568 14.5364C17.8064 13.9416 18.1122 13.1619 18.1136 12.352C18.1136 10.5624 16.6612 9.11361 14.8696 9.11361L14.506 9.15241C14.1072 10.7672 12.4884 10.8352 12.4884 10.8352L5.08039 10.8332L4.46119 10.4696L5.95439 7.96961L7.58919 8.91201C8.56799 9.54521 9.07759 8.65761 9.07759 8.65761L10.7168 5.99121C11.4292 4.83281 9.91799 3.90401 9.20999 5.06681L8.06239 6.93561L5.33519 5.43001C3.44519 4.37841 2.64439 6.12041 2.64439 6.12041L0.502391 9.78121C0.137991 10.542 0.460791 10.8688 0.460791 10.8688L-0.599609 10.8672V14.8664ZM18.6004 18.3996C18.1937 18.3994 17.7918 18.3127 17.4212 18.1452C17.0386 17.9683 16.6223 17.8762 16.2008 17.8752C15.7809 17.8759 15.3663 17.9681 14.9856 18.1452C14.6133 18.3123 14.21 18.399 13.802 18.3996C13.3937 18.3989 12.9901 18.3122 12.6176 18.1452C12.2367 17.9683 11.822 17.8762 11.402 17.8752C10.9805 17.8762 10.5642 17.9684 10.1816 18.1452C9.81029 18.3126 9.40769 18.3994 9.00039 18.3996C8.59297 18.3993 8.19026 18.3126 7.81879 18.1452C7.4371 17.9686 7.02177 17.8765 6.60119 17.8752C6.1804 17.8757 5.76476 17.9678 5.38319 18.1452C5.01167 18.3124 4.60899 18.3991 4.20159 18.3996C3.79277 18.3991 3.38865 18.3124 3.01559 18.1452C2.63464 17.9681 2.21971 17.8759 1.79959 17.8752C1.37898 17.8762 0.963575 17.9683 0.581991 18.1452C0.210473 18.3124 -0.192209 18.3991 -0.599609 18.3996V16.6328C-0.192041 16.6315 0.210638 16.544 0.581991 16.376C0.963652 16.1993 1.37901 16.1072 1.79959 16.106C2.23239 16.106 2.64919 16.206 3.01559 16.376C3.38854 16.5438 3.79262 16.6313 4.20159 16.6328C4.60916 16.6315 5.01184 16.544 5.38319 16.376C5.76482 16.1988 6.18042 16.1067 6.60119 16.106C7.03359 16.106 7.44759 16.206 7.81879 16.376C8.19014 16.544 8.59282 16.6315 9.00039 16.6328C9.40786 16.6317 9.81046 16.5442 10.1816 16.376C10.5643 16.1993 10.9805 16.1073 11.402 16.106C11.8348 16.106 12.2488 16.206 12.6176 16.376C12.99 16.5436 13.3936 16.6311 13.802 16.6328C14.222 16.6328 14.624 16.5376 14.9856 16.376C15.3663 16.1991 15.781 16.1069 16.2008 16.106C16.6356 16.106 17.0504 16.206 17.4212 16.376C17.7788 16.5372 18.1812 16.6328 18.6004 16.6328V18.3996Z" fill="#E2C022"/>
</g>
<defs>
<clipPath id="clip0">
<rect width="20.3779" height="20" fill="white" transform="translate(0.152344)"/>
</clipPath>
</defs>
</svg>
