<svg width="21" height="20" viewBox="0 0 21 20" fill="none" xmlns="http://www.w3.org/2000/svg">
<path d="M18.2961 1.2625C18.0758 0.525 17.4591 0 16.7323 0H4.61816C3.89132 0 3.28561 0.525 3.05434 1.2625L0.763672 8.75V18.75C0.763672 19.4375 1.25925 20 1.86496 20H2.96624C3.57194 20 4.06752 19.4375 4.06752 18.75V17.5H17.2829V18.75C17.2829 19.4375 17.7785 20 18.3842 20H19.4855C20.0912 20 20.5868 19.4375 20.5868 18.75V8.75L18.2961 1.2625ZM4.61816 13.75C3.7041 13.75 2.96624 12.9125 2.96624 11.875C2.96624 10.8375 3.7041 10 4.61816 10C5.53223 10 6.27009 10.8375 6.27009 11.875C6.27009 12.9125 5.53223 13.75 4.61816 13.75ZM16.7323 13.75C15.8182 13.75 15.0804 12.9125 15.0804 11.875C15.0804 10.8375 15.8182 10 16.7323 10C17.6463 10 18.3842 10.8375 18.3842 11.875C18.3842 12.9125 17.6463 13.75 16.7323 13.75ZM2.96624 7.5L4.61816 1.875H16.7323L18.3842 7.5H2.96624Z" fill="#E2C022"/>
</svg>
