<svg width="46" height="46" viewBox="0 0 46 46" fill="none" xmlns="http://www.w3.org/2000/svg">
<path d="M24.4375 31.625V18.6875H18.6875V21.5625H21.5625V31.625H17.25V34.5H28.75V31.625H24.4375Z" fill="#A2792C"/>
<path d="M23 10.0625C22.5735 10.0625 22.1566 10.189 21.8021 10.4259C21.4475 10.6628 21.1711 10.9996 21.0079 11.3936C20.8447 11.7876 20.802 12.2211 20.8852 12.6394C20.9684 13.0577 21.1737 13.4419 21.4753 13.7434C21.7769 14.045 22.1611 14.2504 22.5793 14.3336C22.9976 14.4168 23.4312 14.3741 23.8252 14.2109C24.2192 14.0477 24.5559 13.7713 24.7929 13.4167C25.0298 13.0621 25.1562 12.6452 25.1562 12.2188C25.1562 11.6469 24.9291 11.0984 24.5247 10.6941C24.1203 10.2897 23.5719 10.0625 23 10.0625Z" fill="#A2792C"/>
<path d="M23 43.125C19.0197 43.125 15.1287 41.9447 11.8192 39.7333C8.50962 37.522 5.93015 34.3789 4.40693 30.7015C2.88372 27.0242 2.48518 22.9777 3.26171 19.0738C4.03823 15.1699 5.95495 11.584 8.76948 8.76948C11.584 5.95495 15.1699 4.03823 19.0738 3.26171C22.9777 2.48518 27.0242 2.88372 30.7015 4.40693C34.3789 5.93015 37.522 8.50962 39.7333 11.8192C41.9447 15.1287 43.125 19.0197 43.125 23C43.125 28.3375 41.0047 33.4564 37.2305 37.2305C33.4564 41.0047 28.3375 43.125 23 43.125ZM23 5.75001C19.5883 5.75001 16.2532 6.7617 13.4164 8.65716C10.5797 10.5526 8.3687 13.2467 7.06309 16.3987C5.75748 19.5507 5.41587 23.0191 6.08146 26.3653C6.74706 29.7115 8.38996 32.7851 10.8024 35.1976C13.2149 37.6101 16.2885 39.253 19.6347 39.9186C22.9809 40.5841 26.4493 40.2425 29.6013 38.9369C32.7533 37.6313 35.4474 35.4203 37.3429 32.5836C39.2383 29.7468 40.25 26.4117 40.25 23C40.25 18.425 38.4326 14.0374 35.1976 10.8024C31.9626 7.56741 27.575 5.75001 23 5.75001Z" fill="#A2792C"/>
</svg>
