<svg width="32" height="24" viewBox="0 0 32 24" fill="none" xmlns="http://www.w3.org/2000/svg">
<path d="M10.4053 18.432C10.3372 18.4337 10.269 18.4388 10.2042 18.4388C8.50834 18.4388 7.89475 19.5398 7.49593 18.9706C7.0971 18.4013 8.31915 17.1315 9.84799 17.2253C8.38732 13.5676 8.51345 10.2748 9.22077 6.28818C4.02237 5.46836 0 0.447218 0 6.32056C0 12.6916 4.72969 23.6611 10.5655 23.6611C11.4433 23.6611 12.2955 23.4088 13.1085 22.964C12.1626 22.3555 11.0257 19.5961 10.4053 18.432ZM4.71265 11.4014C3.10541 10.781 2.02993 9.68503 2.31116 8.95044C2.59409 8.21755 4.12634 8.12722 5.73529 8.74591C7.34253 9.36461 8.418 10.4639 8.13337 11.1951C7.85385 11.928 6.31989 12.0201 4.71265 11.4014Z" fill="#A2792C"/>
<path d="M21.6032 6.18563C16.0997 4.24603 13.7834 -3.4084 11.6666 2.59788C9.5497 8.60588 10.3627 20.5264 15.8662 22.4626C21.3714 24.4022 29.4758 15.6297 31.596 9.6234C33.7112 3.6137 27.1084 8.12524 21.6032 6.18563ZM12.9568 5.89418C13.509 5.25163 15.0992 5.705 16.5104 6.91C17.9234 8.11671 18.6222 9.61488 18.0734 10.2591C17.5229 10.9034 15.9327 10.4466 14.5214 9.24161C13.1102 8.03661 12.4097 6.53674 12.9568 5.89418ZM20.3215 19.0623C20.088 19.7322 18.5966 19.8174 16.9979 19.2515C15.3992 18.6874 14.2913 17.6886 14.5299 17.0205C14.7634 16.3506 15.798 17.5574 17.3967 18.1215C18.9955 18.6857 20.5584 18.3942 20.3215 19.0623ZM25.225 13.0237C23.3689 13.0901 21.8401 12.4595 21.8094 11.6124C21.777 10.767 23.2633 10.0273 25.1125 9.96087C26.9686 9.89269 28.4975 10.525 28.5281 11.3704C28.5605 12.2158 27.0794 12.9572 25.225 13.0237Z" fill="#A2792C"/>
</svg>
