<svg width="24" height="24" viewBox="0 0 24 24" fill="none" xmlns="http://www.w3.org/2000/svg">
<path d="M13.6 15.9996C14.1037 16.6712 14.8059 17.1673 15.6073 17.4177C16.4086 17.668 17.2684 17.6598 18.0649 17.3943C18.8613 17.1289 19.554 16.6195 20.0449 15.9384C20.5358 15.2574 20.7999 14.4391 20.7999 13.5996C20.7999 12.6972 20.4895 11.8732 19.9855 11.2044L20 11.1996L12 1.59961L3.99995 11.1996L4.01435 11.2044C3.48861 11.8925 3.20258 12.7337 3.19995 13.5996C3.19995 14.4391 3.4641 15.2574 3.95498 15.9384C4.44586 16.6195 5.13859 17.1289 5.93504 17.3943C6.73149 17.6598 7.59128 17.668 8.39262 17.4177C9.19396 17.1673 9.89623 16.6712 10.4 15.9996L11.2 14.934V18.3996C11.2 20.7996 7.19995 20.7996 7.19995 20.7996C6.98778 20.7996 6.78429 20.8839 6.63427 21.0339C6.48424 21.184 6.39995 21.3874 6.39995 21.5996C6.39995 21.8118 6.48424 22.0153 6.63427 22.1653C6.78429 22.3153 6.98778 22.3996 7.19995 22.3996H16.8C17.0121 22.3996 17.2156 22.3153 17.3656 22.1653C17.5157 22.0153 17.6 21.8118 17.6 21.5996C17.6 21.3874 17.5157 21.184 17.3656 21.0339C17.2156 20.8839 17.0121 20.7996 16.8 20.7996C16.8 20.7996 12.8 20.7996 12.8 18.3996V14.934L13.6 15.9996Z" fill="#A2792C"/>
</svg>
