<svg width="39" height="39" viewBox="0 0 39 39" fill="none" xmlns="http://www.w3.org/2000/svg">
<circle cx="19.5" cy="19.5" r="17.5" fill="white" stroke="#E2C022" stroke-width="4"/>
<g clip-path="url(#clip0)">
<path d="M28.6192 15.1966C29.0759 15.1966 29.514 15.378 29.8369 15.701C30.1599 16.0239 30.3413 16.462 30.3413 16.9187V20.363C30.3413 20.8198 30.1599 21.2578 29.8369 21.5808C29.514 21.9038 29.0759 22.0852 28.6192 22.0852H27.7048C27.4949 23.7499 26.6847 25.2808 25.4263 26.3906C24.1678 27.5004 22.5477 28.1128 20.8699 28.1128V26.3906C22.24 26.3906 23.5541 25.8463 24.5229 24.8774C25.4918 23.9085 26.0361 22.5944 26.0361 21.2241V16.0576C26.0361 14.6874 25.4918 13.3733 24.5229 12.4044C23.5541 11.4355 22.24 10.8912 20.8699 10.8912C19.4997 10.8912 18.1856 11.4355 17.2168 12.4044C16.2479 13.3733 15.7036 14.6874 15.7036 16.0576V22.0852H13.1205C12.6638 22.0852 12.2258 21.9038 11.9028 21.5808C11.5799 21.2578 11.3984 20.8198 11.3984 20.363V16.9187C11.3984 16.462 11.5799 16.0239 11.9028 15.701C12.2258 15.378 12.6638 15.1966 13.1205 15.1966H14.0349C14.2451 13.532 15.0553 12.0013 16.3137 10.8917C17.5721 9.78215 19.1922 9.16992 20.8699 9.16992C22.5476 9.16992 24.1676 9.78215 25.426 10.8917C26.6844 12.0013 27.4947 13.532 27.7048 15.1966H28.6192ZM17.2191 21.9001L18.1318 20.4397C18.9524 20.9538 19.9015 21.2257 20.8699 21.2241C21.8382 21.2257 22.7873 20.9538 23.608 20.4397L24.5207 21.9001C23.4265 22.5856 22.161 22.9483 20.8699 22.9463C19.5787 22.9483 18.3132 22.5856 17.2191 21.9001Z" fill="#E2C022"/>
</g>
<defs>
<clipPath id="clip0">
<rect width="19.5" height="19.5" fill="white" transform="translate(10.0288 10.0283)"/>
</clipPath>
</defs>
</svg>
