<svg width="20" height="20" viewBox="0 0 20 20" fill="none" xmlns="http://www.w3.org/2000/svg">
<circle cx="10" cy="10" r="10" fill="#34A939"/>
<g clip-path="url(#clip0)">
<path d="M15.4973 5.05281C15.3611 4.95753 15.2075 4.89 15.0452 4.8541C14.8829 4.81819 14.7151 4.81461 14.5515 4.84356C14.3878 4.87251 14.2314 4.93342 14.0913 5.02281C13.9512 5.1122 13.83 5.22832 13.7348 5.36455L8.92325 12.2361L5.76845 10.0811C5.51542 9.908 5.204 9.84253 4.9027 9.89906C4.6014 9.95559 4.33489 10.1295 4.16181 10.3825C3.98873 10.6356 3.92326 10.947 3.97979 11.2483C4.03632 11.5496 4.21023 11.8161 4.46325 11.9892L8.6921 14.8776C8.82235 14.9665 8.96953 15.0276 9.12446 15.057C9.27939 15.0864 9.43872 15.0836 9.59248 15.0486C9.7565 15.0199 9.91323 14.9592 10.0537 14.8698C10.1942 14.7804 10.3157 14.6642 10.4111 14.5278L15.8092 6.81628C16.0016 6.54091 16.0768 6.20043 16.0183 5.86966C15.9597 5.53888 15.7723 5.24487 15.4971 5.05224" fill="white"/>
</g>
<defs>
<clipPath id="clip0">
<rect width="12.3077" height="12.3077" fill="white" transform="translate(3.8457 2.76953)"/>
</clipPath>
</defs>
</svg>
