<svg width="6" height="18" viewBox="0 0 6 18" fill="none" xmlns="http://www.w3.org/2000/svg">
<path d="M2.56696 2.71954C2.98148 2.71954 3.31752 2.38139 3.31752 1.96426C3.31752 1.54713 2.98148 1.20898 2.56696 1.20898C2.15244 1.20898 1.81641 1.54713 1.81641 1.96426C1.81641 2.38139 2.15244 2.71954 2.56696 2.71954Z" stroke="#E2C022" stroke-width="0.5" stroke-miterlimit="10"/>
<path d="M0.311394 16.292C0.28445 16.5676 0.455005 16.7931 0.690561 16.7931C0.926116 16.7931 1.17834 16.5745 1.25056 16.3073L2.62306 11.2434C2.69528 10.9762 2.88417 10.572 3.04195 10.3453L3.59223 9.55507C3.75001 9.3284 3.86834 8.91646 3.85501 8.63979L3.73001 6.05951L3.65028 4.71868C3.61751 4.1659 3.14001 3.70312 2.58945 3.70312H2.57667C2.02612 3.70312 1.52584 4.16396 1.46417 4.71424L1.32528 5.9659L0.311394 16.292Z" stroke="#E2C022" stroke-width="0.5" stroke-miterlimit="10" stroke-linecap="round" stroke-linejoin="round"/>
<path d="M3.61142 9.52832L4.06697 12.4283C4.10975 12.7019 4.26197 13.1194 4.40475 13.3558L5.6117 15.3547C5.75447 15.5911 5.70253 15.8983 5.49614 16.0367C5.28975 16.175 4.98725 16.1061 4.82364 15.8833L3.50559 14.0872C3.34225 13.8642 3.1267 13.4705 3.0267 13.213L2.47559 11.79" stroke="#E2C022" stroke-width="0.5" stroke-miterlimit="10" stroke-linecap="round" stroke-linejoin="round"/>
<path d="M2.61691 4.96191L2.6308 6.53525C2.63302 6.81219 2.58135 7.25858 2.51635 7.52775L1.80469 10.4583" stroke="#E2C022" stroke-width="0.5" stroke-miterlimit="10" stroke-linecap="round" stroke-linejoin="round"/>
</svg>
