<svg width="32" height="32" viewBox="0 0 32 32" fill="none" xmlns="http://www.w3.org/2000/svg">
<path d="M4.1165 13.7916C3.89759 14.2426 3.78401 14.7374 3.78434 15.2387L3.90786 22.9987L1.21666 28.774C1.11923 28.9538 1.05403 29.1491 1.02402 29.3513C0.98935 29.5783 0.99989 29.8099 1.05503 30.0329C1.11017 30.2558 1.20882 30.4656 1.34531 30.6503C1.4818 30.8349 1.65345 30.9908 1.85037 31.1089C2.0473 31.227 2.26563 31.3051 2.49282 31.3385C2.84673 31.3928 3.20877 31.3368 3.52973 31.1781C3.85069 31.0194 4.115 30.7657 4.28674 30.4515L7.24738 24.1385C7.30882 23.992 7.36386 23.8377 7.38626 23.6688L7.40226 23.4307L7.37922 18.6332L11.929 20.6121L12.6637 25.3008C12.74 25.6453 12.9191 25.9586 13.1772 26.1993C13.4353 26.4399 13.7604 26.5966 14.1095 26.6486C14.5676 26.7163 15.0339 26.6007 15.4074 26.327C15.7809 26.0533 16.0315 25.6434 16.105 25.1862C16.1274 25.0243 16.1274 24.8624 16.112 24.7088L15.2154 19.0486C15.1615 18.777 15.0446 18.5219 14.8741 18.3038C14.7035 18.0857 14.4842 17.9107 14.2336 17.7929L10.1671 15.9932L12.7565 11.5043L14.041 13.1292C14.1722 13.2752 14.3424 13.3987 14.5351 13.4755L19.4298 14.8995C19.7464 14.9686 20.0772 14.924 20.3642 14.7735C20.6511 14.623 20.8759 14.3762 20.9991 14.0765C21.0672 13.909 21.1018 13.7297 21.1006 13.5488C21.0995 13.368 21.0627 13.1892 20.9923 13.0225C20.922 12.8559 20.8196 12.7048 20.6908 12.5778C20.562 12.4509 20.4095 12.3505 20.2419 12.2825L20.1722 12.2595L15.9194 11.0121L12.7181 7.18557C12.2241 6.65868 11.5685 6.31162 10.8551 6.19933C10.239 6.10747 9.60957 6.19775 9.04419 6.45906C8.47881 6.72037 8.00218 7.14131 7.67298 7.67005L4.1165 13.7916ZM18.1575 24.9174L17.8483 27.2425L9.4285 29.2822L9.50978 30.7197H30.0448C30.2171 30.7204 30.3878 30.6872 30.5472 30.6218C30.7066 30.5565 30.8516 30.4603 30.9738 30.3388C31.096 30.2174 31.193 30.073 31.2592 29.914C31.3255 29.755 31.3598 29.5844 31.36 29.4121L31.337 1.84797L28.5235 1.19389L26.9069 8.44061L24.2042 9.57213L21.8074 16.2544L24.0845 21.3673L23.4432 23.3302L18.1575 24.9174ZM12.4403 5.86013C13.8861 5.86013 15.0611 4.69021 15.0611 3.25021C15.0605 1.81085 13.8861 0.639648 12.4403 0.639648C10.9946 0.639648 9.8189 1.81085 9.8189 3.25021C9.81826 4.69021 10.9939 5.86013 12.4403 5.86013ZM7.22498 6.26845C7.27379 6.18353 7.30532 6.08978 7.31774 5.99262C7.33016 5.89546 7.32324 5.7968 7.29736 5.70233C7.27148 5.60786 7.22716 5.51944 7.16696 5.44217C7.10675 5.36491 7.03185 5.30032 6.94658 5.25213L5.6781 4.51293C5.50465 4.41469 5.29949 4.38868 5.10702 4.44055C4.91454 4.49241 4.75023 4.61796 4.64962 4.79005L0.737936 11.5126C0.689351 11.5976 0.657994 11.6913 0.64566 11.7883C0.633326 11.8854 0.640257 11.984 0.666056 12.0784C0.691855 12.1728 0.736016 12.2612 0.796011 12.3385C0.856007 12.4158 0.930659 12.4805 1.0157 12.5289L2.29186 13.2611C2.46307 13.36 2.6665 13.3872 2.85767 13.3366C3.04883 13.2859 3.21218 13.1617 3.31202 12.991L7.22498 6.26845Z" fill="#A2792C"/>
</svg>
