<svg width="32" height="32" viewBox="0 0 32 32" fill="none" xmlns="http://www.w3.org/2000/svg">
<path d="M4.02013 12.1433L9.39526 6.76819L8.64232 6.01525H8.67738V1.875H23.3224V6.01531H23.3575L22.6046 6.76825L27.9797 12.1433L30.7724 9.35056C32.2579 7.86525 32.258 5.46106 30.7724 3.97544C29.2905 2.49356 26.8793 2.49356 25.3973 3.97544L25.1974 4.17537V1.875H27.1561V0H4.90544V1.875H6.80244V4.17537L6.60251 3.97544C5.12057 2.4935 2.70932 2.4935 1.22738 3.97544C-0.25793 5.46075 -0.258242 7.865 1.22738 9.3505L4.02013 12.1433Z" fill="#A2792C"/>
<path d="M22.3003 19.2906L23.1387 16.2392L19.1007 12.2012L17.2993 14.0785L22.3003 19.2906Z" fill="#A2792C"/>
<path d="M26.873 13.6883L21.0744 7.88965L18.7633 9.21184L25.5349 15.9834L26.873 13.6883Z" fill="#A2792C"/>
<path d="M0.102905 32H11.2475L8.76659 22.9707L0.102905 32Z" fill="#A2792C"/>
<path d="M6.4652 15.9833L13.2316 9.20877L10.9258 7.88965L5.1272 13.6883L6.4652 15.9833Z" fill="#A2792C"/>
<path d="M12.8963 12.1973L8.86108 16.2374L13.192 31.9999H31.8972L12.8963 12.1973Z" fill="#A2792C"/>
</svg>
