<svg width="26" height="32" viewBox="0 0 26 32" fill="none" xmlns="http://www.w3.org/2000/svg">
<path d="M22.7126 31.0127H1.91138V32.0001H22.7126V31.0127Z" fill="#A2792C"/>
<path d="M12.0166 30.331H12.559H15.3675H15.7621H19.115L17.2413 27.5205L15.5658 30.0356L13.8903 27.5205L12.2878 29.9255L10.6847 27.5205L9.00979 30.0356L7.3338 27.5205L5.45959 30.331H8.81295H9.20656H12.0166Z" fill="#A2792C"/>
<path d="M23.4057 15.8815C23.0349 16.0124 22.559 16.451 22.2486 16.7662C22.2358 15.9821 22.21 15.4368 22.2041 15.2812H22.892V14.3076H2.89334V15.2812H3.67305C3.66563 15.4398 3.63841 16.0103 3.62749 16.8258C3.32262 16.5274 2.91859 16.177 2.59401 16.0625C1.99476 15.8513 0.00100708 16.0625 0.00100708 16.0625V16.8695C0.00100708 16.8695 1.96046 16.801 2.3818 17.0459C2.80511 17.2907 3.25862 19.3638 3.61111 19.3638C3.62399 19.3638 3.64532 19.3638 3.65966 19.3638C3.75539 21.5756 4.06564 23.9728 4.91524 24.747H3.86094V26.0319H21.8312V24.747H20.9608C21.8312 23.952 22.1386 21.4418 22.2259 19.1852C22.2873 19.1852 22.3428 19.1852 22.3865 19.1852C22.7373 19.1852 23.1935 17.1113 23.6158 16.8674C24.0361 16.6216 25.9991 16.6889 25.9991 16.6889V15.8825C25.9971 15.8815 24.0005 15.6723 23.4057 15.8815ZM6.10649 23.1053C5.91656 22.7305 5.72969 22.2765 5.58847 21.7709C5.50221 21.5259 5.4656 21.2425 5.40707 20.9698C5.3377 20.6882 5.33172 20.4146 5.31039 20.1489C5.28411 19.8951 5.28215 19.5858 5.297 19.3142C5.30442 19.0387 5.31338 18.771 5.33471 18.5131C5.36347 18.2534 5.35212 18.0055 5.40707 17.7676C5.45263 17.5337 5.49632 17.3106 5.53497 17.1054C5.70247 16.2815 5.97961 15.7888 5.97961 15.7888C5.97961 15.7888 5.97663 15.9291 6.00094 16.171C6.02424 16.4144 6.02321 16.7405 6.0768 17.147C6.11144 17.5495 6.13576 18.0094 6.2047 18.5071C6.23943 18.7549 6.25974 19.0087 6.28107 19.2665C6.29003 19.5302 6.34507 19.7553 6.37971 20.0437C6.44857 20.5968 6.52792 21.0608 6.59781 21.5546C6.6647 22.0434 6.72571 22.5044 6.77972 22.8969C6.87785 23.6929 6.90114 24.2729 6.90114 24.2729C6.90114 24.2729 6.48415 23.8597 6.10649 23.1053Z" fill="#A2792C"/>
<path d="M8.55711 8.10138C8.67358 8.3205 8.75293 8.38151 8.85558 8.52972L9.11924 8.84748C9.16779 8.95303 9.24715 9.03835 9.28281 9.15628C9.36814 9.37642 9.46234 9.60987 9.49203 9.86662C9.57625 10.3712 9.56985 10.8992 9.54852 11.3592C9.48802 12.2811 9.39826 12.9538 9.39826 12.9538C9.39826 12.9538 9.89102 12.4769 10.2826 11.5326C10.3803 11.2982 10.4754 11.0345 10.5374 10.74C10.6003 10.4475 10.6623 10.1269 10.6479 9.78036C10.6479 9.43931 10.6067 9.06165 10.4695 8.69534C10.4154 8.50745 10.3008 8.33492 10.2136 8.15454C10.163 8.0658 10.0947 7.98798 10.0347 7.9047L9.93855 7.78081L9.89094 7.7198L9.8795 7.70546C9.88548 7.71289 9.89486 7.72287 9.91321 7.74318L9.90783 7.7372L9.89094 7.71391C9.80868 7.60085 9.64511 7.4418 9.62779 7.37038C9.58811 7.28864 9.53256 7.21918 9.49493 7.0923C9.40568 6.87421 9.33631 6.62335 9.30116 6.36958C9.22385 5.85899 9.23418 5.33004 9.25551 4.86715C9.316 3.94416 9.3963 3.27051 9.3963 3.27051C9.3963 3.27051 8.90908 3.75235 8.51743 4.69368C8.32263 5.16263 8.14865 5.74951 8.14062 6.43656C8.14762 6.77659 8.15402 7.15135 8.29379 7.51919C8.33961 7.69744 8.44516 7.90359 8.55711 8.10138ZM9.87967 7.70529C9.8807 7.70632 9.86235 7.68498 9.87967 7.70529V7.70529Z" fill="#A2792C"/>
<path d="M11.4583 4.83198C11.5748 5.05161 11.6542 5.11253 11.7568 5.26075L12.0205 5.57851C12.0695 5.68405 12.1484 5.76938 12.1841 5.88679C12.2693 6.10736 12.364 6.34082 12.3933 6.59765C12.4775 7.10227 12.4716 7.63019 12.4503 8.08968C12.3892 9.01164 12.3001 9.68478 12.3001 9.68478C12.3001 9.68478 12.7922 9.20746 13.1838 8.26366C13.2815 8.02918 13.3766 7.76501 13.4381 7.47055C13.5015 7.17804 13.563 6.85739 13.5491 6.51138C13.5491 6.17033 13.5075 5.79268 13.3707 5.42586C13.3171 5.23848 13.2021 5.06595 13.1149 4.88505C13.0643 4.79683 12.9959 4.7185 12.9364 4.63522L12.8418 4.51328L12.7941 4.45236L12.7808 4.43547C12.7872 4.44246 12.7962 4.45236 12.8145 4.47309L12.8106 4.4667L12.7922 4.4434C12.7099 4.33188 12.5463 4.17129 12.529 4.10039C12.4898 4.01813 12.4339 3.95021 12.3962 3.82324C12.3069 3.60361 12.238 3.35429 12.2024 3.10053C12.126 2.58848 12.1364 2.06107 12.1578 1.59809C12.2178 0.674168 12.2991 0 12.2991 0C12.2991 0 11.8113 0.482353 11.4197 1.42317C11.2239 1.89255 11.05 2.479 11.042 3.16657C11.05 3.5066 11.0553 3.88135 11.1962 4.24868C11.2423 4.42702 11.3478 4.63325 11.4583 4.83198ZM12.7809 4.43547C12.7829 4.43649 12.765 4.4161 12.7809 4.43547V4.43547Z" fill="#A2792C"/>
<path d="M15.0423 7.79631C15.1593 8.01543 15.2386 8.07636 15.3417 8.22465L15.6055 8.54241C15.654 8.64796 15.7333 8.73329 15.769 8.8507C15.8543 9.07127 15.9485 9.30481 15.9782 9.56156C16.0615 10.0662 16.0555 10.5941 16.0347 11.0541C15.9742 11.9755 15.885 12.6487 15.885 12.6487C15.885 12.6487 16.3767 12.1719 16.7693 11.2276C16.8665 10.9931 16.9616 10.7289 17.0231 10.4345C17.0866 10.1425 17.148 9.82129 17.1342 9.47529C17.1342 9.13424 17.0925 8.75658 16.9557 8.39027C16.9022 8.20238 16.7871 8.02985 16.6999 7.84896C16.6484 7.76073 16.5809 7.6824 16.5214 7.59912L16.4263 7.4777L16.3787 7.41678L16.3678 7.40142C16.3737 7.40842 16.3827 7.41874 16.4005 7.43905L16.3946 7.4306L16.3767 7.40731C16.2944 7.29578 16.1309 7.1352 16.114 7.06429C16.0743 6.98204 16.0178 6.91412 15.9811 6.78715C15.8909 6.56752 15.8225 6.31819 15.7869 6.06443C15.7105 5.55238 15.7205 5.02498 15.7423 4.56199C15.8038 3.63901 15.883 2.96484 15.883 2.96484C15.883 2.96484 15.3963 3.4472 15.0047 4.38852C14.8083 4.85748 14.6349 5.44385 14.6269 6.13141C14.6349 6.47144 14.6398 6.8462 14.7806 7.21353C14.8262 7.39135 14.9322 7.59707 15.0423 7.79631ZM16.3668 7.39929C16.3678 7.40022 16.349 7.37992 16.3668 7.39929V7.39929Z" fill="#A2792C"/>
</svg>
