<svg width="177" height="123" viewBox="0 0 177 123" fill="none" xmlns="http://www.w3.org/2000/svg">
<g clip-path="url(#clip0)">
<path opacity="0.1" d="M102.858 19.4594C91.5153 19.067 80.7117 15.4165 70.3944 11.4236C60.0772 7.43066 49.8587 3.00626 38.7853 0.890985C31.665 -0.470731 23.5204 -0.663029 17.7821 3.14227C12.2604 6.80374 10.4768 13.1245 9.51671 18.9904C8.79512 23.4039 8.37157 28.0471 10.3481 32.1792C11.7207 35.0464 14.1585 37.4572 15.8385 40.2041C21.7039 49.7642 17.5641 61.5507 11.2015 70.8857C8.22097 75.2632 4.76044 79.4406 2.46074 84.1011C0.161045 88.7615 -0.899389 94.1021 1.12265 98.8642C3.11803 103.576 7.86802 107.116 13.0243 109.606C23.4781 114.654 35.8064 116.102 47.8273 116.921C74.4385 118.735 101.193 117.95 127.874 117.164C137.748 116.871 147.667 116.577 157.38 115.055C162.775 114.21 168.343 112.866 172.26 109.631C177.232 105.521 178.465 98.5609 175.133 93.4064C169.545 84.7608 154.095 82.6189 150.191 73.3355C148.04 68.2295 150.249 62.5403 153.373 57.8048C160.075 47.6427 171.308 38.7314 171.9 27.1169C172.308 19.1436 166.907 11.1515 158.556 7.3775C149.803 3.42212 137.668 3.91928 131.209 10.4683C124.56 17.2113 112.875 19.8049 102.858 19.4594Z" fill="#A2792C"/>
<path d="M141.597 106.609C140.96 106.404 140.288 106.332 139.622 106.399C138.811 106.487 138.926 107.717 139.74 107.66C140.147 107.628 140.55 107.554 140.941 107.439L141.597 106.609Z" fill="#A2792C"/>
<path d="M141.843 106.62C142.136 107.22 142.301 107.875 142.327 108.542C142.353 109.354 141.114 109.412 141.057 108.601C141.033 108.195 141.051 107.787 141.111 107.385L141.843 106.62Z" fill="#A2792C"/>
<path d="M143.687 103.988C143.687 103.988 143.29 102.747 140.863 103.228C139.765 103.445 139.795 105.015 140.895 105.181H140.942C142.543 105.403 143.1 104.77 143.687 103.988Z" fill="#A2792C"/>
<path d="M143.94 103.914C143.94 103.914 145.244 104.016 145.325 106.478C145.363 107.586 143.824 107.923 143.411 106.894C143.411 106.878 143.4 106.864 143.394 106.849C142.818 105.346 143.309 104.661 143.94 103.914Z" fill="#A2792C"/>
<path d="M145.682 100.741C145.59 100.29 145.379 99.872 145.072 99.5296C144.764 99.1872 144.37 98.9328 143.931 98.7926C142.288 98.2767 141.421 100.725 143.026 101.347C143.69 101.589 144.397 101.691 145.103 101.647L145.682 100.741Z" fill="#A2792C"/>
<path d="M147.685 96.6522C147.685 96.6522 147.021 95.0888 145.301 94.7761C143.476 94.4431 142.924 97.1744 144.726 97.6106C145.535 97.7857 146.371 97.7926 147.183 97.6309L147.685 96.6522Z" fill="#A2792C"/>
<path d="M148.893 92.626C148.613 92.186 148.245 91.8069 147.814 91.5114C147.383 91.2159 146.896 91.0101 146.384 90.9063C144.815 90.6124 144.286 92.9528 145.827 93.353C146.794 93.5887 147.806 93.5748 148.766 93.3124L148.893 92.626Z" fill="#A2792C"/>
<path d="M150.035 88.7023C149.534 87.8799 148.755 87.2628 147.838 86.9622C146.27 86.4822 145.495 88.8524 147.054 89.3683C147.978 89.6739 148.978 89.6701 149.9 89.3573L150.035 88.7023Z" fill="#A2792C"/>
<path d="M150.515 85.1268C150.515 85.1268 149.888 83.6603 148.609 82.8848C147.185 82.0203 145.828 84.1356 147.197 85.0877C148.041 85.6771 149.122 86.0836 150.385 85.8115L150.515 85.1268Z" fill="#A2792C"/>
<path d="M150.751 80.8853C150.751 80.8853 150.06 79.4048 148.733 78.6965C147.249 77.9149 145.958 80.0755 147.355 81.0072C148.27 81.6154 149.412 82.0094 150.624 81.5341L150.751 80.8853Z" fill="#A2792C"/>
<path d="M150.603 77.0171C150.085 76.2165 149.451 75.4973 148.72 74.883C147.682 74.0372 146.367 75.56 147.351 76.4636C148.259 77.2938 149.39 77.9911 150.559 77.9348L150.603 77.0171Z" fill="#A2792C"/>
<path d="M150.21 73.3063C149.616 72.3094 148.902 71.3894 148.082 70.5672C147.27 69.7855 146.068 70.9768 146.827 71.8008C147.704 72.7388 148.887 73.7112 150.308 74.1365L150.21 73.3063Z" fill="#A2792C"/>
<path d="M149.45 68.9411C148.961 68.1834 148.392 67.4805 147.751 66.8446C146.932 66.0457 145.698 67.2479 146.484 68.0781C147.318 68.9614 148.398 69.7884 149.664 70.0699L149.45 68.9411Z" fill="#A2792C"/>
<path d="M148.784 64.8687C148.281 64.1904 147.735 63.5445 147.151 62.9348C146.495 62.261 145.447 63.2084 146.065 63.9182C146.791 64.753 147.723 65.4925 148.795 65.6113L148.784 64.8687Z" fill="#A2792C"/>
<path d="M148.094 61.0911C147.636 60.1964 147.112 59.3368 146.526 58.5193C146.035 57.8501 145.012 58.5662 145.475 59.2541C146.08 60.1561 146.921 61.0488 148.025 61.4788L148.094 61.0911Z" fill="#A2792C"/>
<path d="M147.525 56.071C147.525 56.071 147.138 55.4159 146.584 54.6545C146.073 53.9526 144.993 54.678 145.467 55.405C146 56.2195 146.669 56.9136 147.447 57.0512L147.525 56.071Z" fill="#A2792C"/>
<path d="M147.253 52.7443L146.762 50.2976C146.632 49.6504 145.664 49.8051 145.743 50.4539C145.918 51.7609 146.37 53.0758 147.354 53.9388L147.253 52.7443Z" fill="#A2792C"/>
<path d="M147.545 45.7906C147.499 45.6825 147.415 45.5948 147.309 45.5441C147.202 45.4934 147.081 45.4833 146.968 45.5157C146.855 45.548 146.757 45.6206 146.694 45.7196C146.631 45.8187 146.607 45.9374 146.625 46.0533C146.734 46.7329 146.9 47.4022 147.121 48.0544L147.545 45.7906Z" fill="#A2792C"/>
<path d="M145.79 100.692C146.228 100.548 146.697 100.523 147.149 100.619C147.6 100.716 148.017 100.931 148.357 101.242C149.612 102.41 147.914 104.369 146.576 103.292C146.037 102.836 145.597 102.275 145.285 101.642L145.79 100.692Z" fill="#A2792C"/>
<path d="M147.795 96.504C147.795 96.504 149.445 96.1069 150.722 97.2982C152.075 98.5614 150.204 100.63 148.778 99.4463C148.155 98.9029 147.651 98.237 147.299 97.4905L147.795 96.504Z" fill="#A2792C"/>
<path d="M149.001 92.9012C149.428 92.5968 149.911 92.3815 150.424 92.2681C150.936 92.1548 151.466 92.1457 151.981 92.2414C153.55 92.5541 153.159 94.9195 151.58 94.7178C150.594 94.5753 149.662 94.1853 148.869 93.5844L149.001 92.9012Z" fill="#A2792C"/>
<path d="M150.111 88.7241C150.882 88.1473 151.835 87.8639 152.797 87.9252C154.438 88.0675 154.262 90.5517 152.62 90.4485C151.647 90.3882 150.722 90.012 149.984 89.3776L150.111 88.7241Z" fill="#A2792C"/>
<path d="M150.494 85.2288C150.494 85.2288 151.365 83.8906 152.755 83.3434C154.297 82.7352 155.286 85.0381 153.788 85.7463C152.847 86.1888 151.713 86.4123 150.508 85.9261L150.494 85.2288Z" fill="#A2792C"/>
<path d="M150.549 80.8214C150.549 80.8214 151.429 79.4456 152.836 78.9203C154.405 78.334 155.407 80.6479 153.9 81.3905C152.913 81.8751 151.728 82.1159 150.59 81.4874L150.549 80.8214Z" fill="#A2792C"/>
<path d="M150.254 76.9769C150.588 76.0846 151.053 75.2468 151.634 74.4911C152.466 73.4421 154.083 74.6475 153.311 75.7418C152.602 76.7471 151.655 77.6679 150.488 77.8634L150.254 76.9769Z" fill="#A2792C"/>
<path d="M150.133 73.3C150.421 72.1749 150.849 71.0899 151.407 70.0701C151.97 69.0976 153.455 69.9028 152.95 70.9065C152.373 72.0556 151.507 73.3141 150.261 74.1192L150.133 73.3Z" fill="#A2792C"/>
<path d="M149.223 68.738C149.561 67.8708 149.996 67.0439 150.518 66.2725C151.165 65.3345 152.597 66.2538 152.006 67.2231C151.362 68.2799 150.456 69.343 149.24 69.8808L149.223 68.738Z" fill="#A2792C"/>
<path d="M148.498 64.8462C148.673 64.0214 148.9 63.2084 149.177 62.412C149.491 61.5255 150.842 61.9539 150.575 62.856C150.261 63.916 149.723 64.9744 148.799 65.5263L148.498 64.8462Z" fill="#A2792C"/>
<path d="M147.994 61.0178C148.236 60.0417 148.551 59.0848 148.935 58.1552C149.262 57.3922 150.422 57.8566 150.128 58.632C149.745 59.6482 149.13 60.7082 148.154 61.3774L147.994 61.0178Z" fill="#A2792C"/>
<path d="M147.24 56.4152C147.24 56.4152 147.388 55.6694 147.656 54.7674C147.904 53.9356 149.165 54.2624 148.959 55.105C148.73 56.0431 148.332 56.9264 147.642 57.3141L147.24 56.4152Z" fill="#A2792C"/>
<path d="M147.416 52.5782L148.27 50.2331C148.496 49.6077 149.437 49.911 149.253 50.5457C148.885 51.8121 148.245 53.0472 147.139 53.7507L147.416 52.5782Z" fill="#A2792C"/>
<path d="M148.481 46.0354C148.481 46.0354 148.614 45.9291 148.818 45.7618C149.234 45.4179 149.777 46.0182 149.385 46.3872C148.702 47.0057 147.917 47.5018 147.064 47.8536L148.481 46.0354Z" fill="#A2792C"/>
<path d="M148.422 44.677C148.932 43.6391 149.5 42.6307 150.124 41.6565C150.16 41.5893 150.17 41.5115 150.152 41.4375C150.135 41.3635 150.09 41.2985 150.028 41.2546C149.966 41.2107 149.89 41.191 149.814 41.199C149.738 41.2071 149.668 41.2425 149.616 41.2985C149.114 41.9833 148.621 42.9854 148.248 44.4581L148.422 44.677Z" fill="#A2792C"/>
<path d="M147.45 57.0907L147.632 57.072C146.847 49.785 147.178 45.2918 148.549 44.421L148.451 44.2646C146.998 45.1917 146.653 49.6255 147.45 57.0907Z" fill="#444053"/>
<path d="M150.15 74.319L150.421 74.2783C150.319 73.6045 150.201 72.9197 150.07 72.2459C148.928 66.3316 148.04 60.8644 147.596 56.712L147.396 56.5557C147.842 60.7159 148.651 66.3722 149.801 72.2944C149.93 72.9635 150.048 73.6467 150.15 74.319Z" fill="#444053"/>
<path d="M137.442 111.149C137.483 111.116 141.662 107.93 145.331 101.819C147.481 98.2426 149.049 94.3488 149.974 90.2827C151.133 85.2001 151.166 79.2811 150.33 73.7373L150.086 73.9327C151.968 86.3742 148.377 96.0344 145.026 101.619C141.393 107.674 137.263 110.827 137.221 110.859L137.442 111.149Z" fill="#444053"/>
<path d="M30.4357 111.121C36.2014 111.121 40.8754 110.225 40.8754 109.12C40.8754 108.015 36.2014 107.119 30.4357 107.119C24.6701 107.119 19.9961 108.015 19.9961 109.12C19.9961 110.225 24.6701 111.121 30.4357 111.121Z" fill="#A2792C"/>
<path d="M30.2607 109.855C30.9321 109.855 31.4764 109.145 31.4764 108.27C31.4764 107.394 30.9321 106.685 30.2607 106.685C29.5892 106.685 29.0449 107.394 29.0449 108.27C29.0449 109.145 29.5892 109.855 30.2607 109.855Z" fill="#3F3D56"/>
<path d="M30.2607 107.917C30.9321 107.917 31.4764 107.207 31.4764 106.331C31.4764 105.456 30.9321 104.746 30.2607 104.746C29.5892 104.746 29.0449 105.456 29.0449 106.331C29.0449 107.207 29.5892 107.917 30.2607 107.917Z" fill="#3F3D56"/>
<path d="M30.2607 105.979C30.9321 105.979 31.4764 105.269 31.4764 104.394C31.4764 103.518 30.9321 102.809 30.2607 102.809C29.5892 102.809 29.0449 103.518 29.0449 104.394C29.0449 105.269 29.5892 105.979 30.2607 105.979Z" fill="#3F3D56"/>
<path d="M30.2607 104.041C30.9321 104.041 31.4764 103.331 31.4764 102.455C31.4764 101.58 30.9321 100.87 30.2607 100.87C29.5892 100.87 29.0449 101.58 29.0449 102.455C29.0449 103.331 29.5892 104.041 30.2607 104.041Z" fill="#3F3D56"/>
<path d="M30.2607 102.102C30.9321 102.102 31.4764 101.392 31.4764 100.517C31.4764 99.6414 30.9321 98.9316 30.2607 98.9316C29.5892 98.9316 29.0449 99.6414 29.0449 100.517C29.0449 101.392 29.5892 102.102 30.2607 102.102Z" fill="#3F3D56"/>
<path d="M30.2607 100.165C30.9321 100.165 31.4764 99.4549 31.4764 98.5794C31.4764 97.7039 30.9321 96.9941 30.2607 96.9941C29.5892 96.9941 29.0449 97.7039 29.0449 98.5794C29.0449 99.4549 29.5892 100.165 30.2607 100.165Z" fill="#3F3D56"/>
<path d="M30.2607 98.2262C30.9321 98.2262 31.4764 97.5165 31.4764 96.6409C31.4764 95.7654 30.9321 95.0557 30.2607 95.0557C29.5892 95.0557 29.0449 95.7654 29.0449 96.6409C29.0449 97.5165 29.5892 98.2262 30.2607 98.2262Z" fill="#3F3D56"/>
<path d="M34.8097 83.3774C34.9763 83.1668 35.1278 82.9448 35.263 82.713L32.0692 82.1908L35.5203 82.2158C35.8519 81.4976 36.0328 80.7194 36.0519 79.9291C36.0711 79.1387 35.9281 78.3528 35.6317 77.6194L30.9978 80.0145L35.2709 76.8878C34.8713 76.1966 34.3331 75.5949 33.6898 75.1204C33.0465 74.6458 32.312 74.3085 31.532 74.1295C30.7521 73.9505 29.9435 73.9336 29.1567 74.08C28.3699 74.2264 27.6219 74.5328 26.9593 74.9802C26.2967 75.4276 25.7337 76.0064 25.3056 76.6803C24.8774 77.3542 24.5933 78.1089 24.4709 78.8972C24.3484 79.6854 24.3904 80.4904 24.5941 81.2618C24.7978 82.0332 25.1589 82.7544 25.6548 83.3805C25.3964 83.7088 25.174 84.0636 24.9912 84.4389L29.1373 86.5855L24.7199 85.1065C24.4098 86.0211 24.3335 86.9982 24.4978 87.9496C24.6622 88.9009 25.062 89.7964 25.6611 90.5549C24.9852 91.4109 24.5646 92.4391 24.4475 93.5221C24.3304 94.605 24.5214 95.6989 24.9988 96.6788C25.4761 97.6586 26.2205 98.4847 27.1469 99.0627C28.0732 99.6408 29.144 99.9473 30.2369 99.9473C31.3298 99.9473 32.4007 99.6408 33.327 99.0627C34.2533 98.4847 34.9977 97.6586 35.4751 96.6788C35.9525 95.6989 36.1435 94.605 36.0264 93.5221C35.9093 92.4391 35.4887 91.4109 34.8128 90.5549C35.6206 89.5325 36.0598 88.2691 36.0598 86.9677C36.0598 85.6664 35.6206 84.403 34.8128 83.3805L34.8097 83.3774Z" fill="#A2792C"/>
<path opacity="0.1" d="M24.4117 86.9655C24.4104 88.2666 24.8492 89.5301 25.6573 90.552C24.9814 91.4079 24.5608 92.4361 24.4437 93.5191C24.3266 94.602 24.5176 95.6959 24.995 96.6758C25.4723 97.6556 26.2167 98.4817 27.1431 99.0597C28.0694 99.6378 29.1402 99.9443 30.2331 99.9443C31.326 99.9443 32.3969 99.6378 33.3232 99.0597C34.2495 98.4817 34.9939 97.6556 35.4713 96.6758C35.9487 95.6959 36.1397 94.602 36.0226 93.5191C35.9055 92.4361 35.4849 91.4079 34.809 90.552C35.5902 89.5655 24.4117 86.3136 24.4117 86.9655Z" fill="black"/>
<path d="M36.3887 40.8418V109.898C36.3887 110.215 36.4512 110.529 36.5728 110.821C36.6944 111.113 36.8725 111.379 37.0972 111.603C37.3218 111.827 37.5884 112.005 37.8819 112.126C38.1754 112.247 38.4899 112.309 38.8076 112.309H138.242C138.884 112.309 139.499 112.055 139.953 111.603C140.406 111.151 140.661 110.538 140.661 109.898V40.8418H36.3887Z" fill="white"/>
<path opacity="0.1" d="M68.2102 47.0234H45.9975C45.2481 47.0234 44.6406 47.6289 44.6406 48.3758V60.2529C44.6406 60.9997 45.2481 61.6052 45.9975 61.6052H68.2102C68.9596 61.6052 69.5671 60.9997 69.5671 60.2529V48.3758C69.5671 47.6289 68.9596 47.0234 68.2102 47.0234Z" fill="black"/>
<path opacity="0.1" d="M99.6321 47.0234H77.4194C76.67 47.0234 76.0625 47.6289 76.0625 48.3758V60.2529C76.0625 60.9997 76.67 61.6052 77.4194 61.6052H99.6321C100.381 61.6052 100.989 60.9997 100.989 60.2529V48.3758C100.989 47.6289 100.381 47.0234 99.6321 47.0234Z" fill="black"/>
<path d="M67.8586 47.2285H46.3472C45.5978 47.2285 44.9902 47.834 44.9902 48.5808V60.0468C44.9902 60.7936 45.5978 61.3991 46.3472 61.3991H67.8586C68.608 61.3991 69.2155 60.7936 69.2155 60.0468V48.5808C69.2155 47.834 68.608 47.2285 67.8586 47.2285Z" fill="#A2792C"/>
<path opacity="0.1" d="M109.192 61.3994H130.704C131.453 61.3994 132.061 60.794 132.061 60.0471V48.5812C132.061 47.8343 131.453 47.2288 130.704 47.2288H109.192C108.443 47.2288 107.835 47.8343 107.835 48.5812V60.0471C107.835 60.794 108.443 61.3994 109.192 61.3994Z" fill="#444053"/>
<path d="M77.7703 61.3994H99.2818C100.031 61.3994 100.639 60.794 100.639 60.0471V48.5812C100.639 47.8343 100.031 47.2288 99.2818 47.2288H77.7703C77.0209 47.2288 76.4134 47.8343 76.4134 48.5812V60.0471C76.4134 60.794 77.0209 61.3994 77.7703 61.3994Z" fill="#A2792C"/>
<path opacity="0.1" d="M67.8586 67.6982H46.3472C45.5978 67.6982 44.9902 68.3037 44.9902 69.0506V80.5165C44.9902 81.2634 45.5978 81.8688 46.3472 81.8688H67.8586C68.608 81.8688 69.2155 81.2634 69.2155 80.5165V69.0506C69.2155 68.3037 68.608 67.6982 67.8586 67.6982Z" fill="#444053"/>
<path opacity="0.1" d="M109.192 81.8691H130.704C131.453 81.8691 132.061 81.2637 132.061 80.5168V69.0509C132.061 68.304 131.453 67.6985 130.704 67.6985H109.192C108.443 67.6985 107.835 68.304 107.835 69.0509V80.5168C107.835 81.2637 108.443 81.8691 109.192 81.8691Z" fill="#444053"/>
<path opacity="0.1" d="M77.7703 81.8691H99.2818C100.031 81.8691 100.639 81.2637 100.639 80.5168V69.0509C100.639 68.304 100.031 67.6985 99.2818 67.6985H77.7703C77.0209 67.6985 76.4134 68.304 76.4134 69.0509V80.5168C76.4134 81.2637 77.0209 81.8691 77.7703 81.8691Z" fill="#444053"/>
<path opacity="0.1" d="M67.8586 88.168H46.3472C45.5978 88.168 44.9902 88.7734 44.9902 89.5203V100.986C44.9902 101.733 45.5978 102.339 46.3472 102.339H67.8586C68.608 102.339 69.2155 101.733 69.2155 100.986V89.5203C69.2155 88.7734 68.608 88.168 67.8586 88.168Z" fill="#444053"/>
<path opacity="0.1" d="M109.192 102.34H130.704C131.453 102.34 132.061 101.734 132.061 100.988V89.5216C132.061 88.7747 131.453 88.1692 130.704 88.1692H109.192C108.443 88.1692 107.835 88.7747 107.835 89.5216V100.988C107.835 101.734 108.443 102.34 109.192 102.34Z" fill="#444053"/>
<path opacity="0.1" d="M77.7703 102.34H99.2818C100.031 102.34 100.639 101.734 100.639 100.988V89.5216C100.639 88.7747 100.031 88.1692 99.2818 88.1692H77.7703C77.0209 88.1692 76.4134 88.7747 76.4134 89.5216V100.988C76.4134 101.734 77.0209 102.34 77.7703 102.34Z" fill="#444053"/>
<path d="M36.3887 28.6457V41.1919H140.661V28.6457C140.661 28.329 140.599 28.0153 140.477 27.7227C140.356 27.43 140.178 27.1641 139.953 26.94C139.728 26.716 139.462 26.5383 139.168 26.4171C138.875 26.2958 138.56 26.2334 138.242 26.2334H38.8076C38.4898 26.2334 38.1751 26.2958 37.8816 26.4171C37.588 26.5383 37.3212 26.716 37.0966 26.94C36.872 27.1641 36.6938 27.43 36.5724 27.7227C36.4509 28.0153 36.3885 28.329 36.3887 28.6457ZM62.1936 32.3572C61.8117 32.3572 61.4383 32.2443 61.1208 32.0329C60.8032 31.8214 60.5557 31.5208 60.4096 31.1692C60.2634 30.8175 60.2252 30.4305 60.2997 30.0572C60.3742 29.6839 60.5581 29.341 60.8282 29.0718C61.0982 28.8027 61.4423 28.6194 61.8169 28.5451C62.1915 28.4709 62.5798 28.509 62.9326 28.6546C63.2855 28.8003 63.587 29.047 63.7992 29.3635C64.0114 29.6799 64.1247 30.052 64.1247 30.4327C64.1247 30.9431 63.9212 31.4326 63.5591 31.7935C63.1969 32.1544 62.7058 32.3572 62.1936 32.3572ZM114.856 32.3572C114.474 32.3572 114.101 32.2443 113.783 32.0329C113.466 31.8214 113.218 31.5208 113.072 31.1692C112.926 30.8175 112.888 30.4305 112.962 30.0572C113.037 29.6839 113.221 29.341 113.491 29.0718C113.761 28.8027 114.105 28.6194 114.479 28.5451C114.854 28.4709 115.242 28.509 115.595 28.6546C115.948 28.8003 116.25 29.047 116.462 29.3635C116.674 29.6799 116.787 30.052 116.787 30.4327C116.787 30.6857 116.737 30.9362 116.64 31.1699C116.543 31.4036 116.4 31.6159 116.22 31.7946C116.041 31.9734 115.828 32.1151 115.593 32.2116C115.358 32.3081 115.107 32.3576 114.853 32.3572H114.856Z" fill="#A2792C"/>
<path opacity="0.1" d="M62.1942 28.1582C61.7427 28.1579 61.3012 28.291 60.9257 28.5408C60.5501 28.7906 60.2573 29.1457 60.0843 29.5614C59.9114 29.977 59.8659 30.4344 59.9538 30.8758C60.0417 31.3171 60.259 31.7226 60.5781 32.0409C60.8973 32.3592 61.304 32.576 61.7467 32.6639C62.1895 32.7517 62.6485 32.7068 63.0657 32.5347C63.4829 32.3625 63.8394 32.071 64.0903 31.6969C64.3412 31.3228 64.4751 30.8829 64.4751 30.4329C64.4753 30.1343 64.4164 29.8385 64.3019 29.5626C64.1874 29.2866 64.0194 29.0358 63.8076 28.8246C63.5957 28.6133 63.3442 28.4457 63.0674 28.3314C62.7906 28.2171 62.4938 28.1582 62.1942 28.1582ZM62.1942 32.3575C61.8122 32.3575 61.4389 32.2446 61.1213 32.0331C60.8038 31.8217 60.5563 31.5211 60.4101 31.1694C60.2639 30.8178 60.2257 30.4308 60.3002 30.0575C60.3747 29.6842 60.5586 29.3412 60.8287 29.0721C61.0988 28.8029 61.4429 28.6196 61.8174 28.5454C62.192 28.4711 62.5803 28.5092 62.9332 28.6549C63.286 28.8006 63.5876 29.0472 63.7998 29.3637C64.012 29.6802 64.1252 30.0523 64.1252 30.4329C64.1252 30.9434 63.9218 31.4329 63.5596 31.7938C63.1975 32.1547 62.7063 32.3575 62.1942 32.3575Z" fill="black"/>
<path opacity="0.1" d="M114.853 28.1582C114.401 28.1582 113.96 28.2916 113.585 28.5416C113.209 28.7915 112.917 29.1468 112.744 29.5624C112.571 29.9781 112.526 30.4355 112.614 30.8767C112.702 31.318 112.92 31.7233 113.239 32.0414C113.558 32.3595 113.965 32.5762 114.407 32.664C114.85 32.7517 115.309 32.7067 115.726 32.5345C116.143 32.3624 116.5 32.0708 116.751 31.6967C117.001 31.3226 117.135 30.8828 117.135 30.4329C117.135 29.8296 116.895 29.2511 116.467 28.8245C116.039 28.3979 115.458 28.1582 114.853 28.1582ZM114.853 32.3575C114.471 32.3575 114.097 32.2446 113.78 32.0331C113.462 31.8217 113.215 31.5211 113.069 31.1694C112.923 30.8178 112.884 30.4308 112.959 30.0575C113.033 29.6842 113.217 29.3412 113.487 29.0721C113.757 28.8029 114.101 28.6196 114.476 28.5454C114.851 28.4711 115.239 28.5092 115.592 28.6549C115.945 28.8006 116.246 29.0472 116.458 29.3637C116.671 29.6802 116.784 30.0523 116.784 30.4329C116.784 30.9434 116.58 31.4329 116.218 31.7938C115.856 32.1547 115.365 32.3575 114.853 32.3575Z" fill="black"/>
<path opacity="0.1" d="M162.061 68.0402C163.384 68.0402 164.457 66.9714 164.457 65.6529C164.457 64.3345 163.384 63.2656 162.061 63.2656C160.738 63.2656 159.666 64.3345 159.666 65.6529C159.666 66.9714 160.738 68.0402 162.061 68.0402Z" fill="#A2792C"/>
<path opacity="0.1" d="M170.631 59.0085C172.849 59.0085 174.647 57.2166 174.647 55.0062C174.647 52.7958 172.849 51.0039 170.631 51.0039C168.413 51.0039 166.615 52.7958 166.615 55.0062C166.615 57.2166 168.413 59.0085 170.631 59.0085Z" fill="#A2792C"/>
<path opacity="0.1" d="M165.315 78.4294C167.533 78.4294 169.331 76.6375 169.331 74.4271C169.331 72.2167 167.533 70.4248 165.315 70.4248C163.097 70.4248 161.299 72.2167 161.299 74.4271C161.299 76.6375 163.097 78.4294 165.315 78.4294Z" fill="#A2792C"/>
<path opacity="0.1" d="M5.6865 59.692C8.82707 59.692 11.373 57.1547 11.373 54.0247C11.373 50.8948 8.82707 48.3574 5.6865 48.3574C2.54593 48.3574 0 50.8948 0 54.0247C0 57.1547 2.54593 59.692 5.6865 59.692Z" fill="#A2792C"/>
<path d="M145.206 115.749C144.848 115.481 144.457 115.262 144.042 115.098C144.01 115.081 143.975 115.072 143.94 115.071C143.08 114.456 142.277 113.767 141.54 113.01C141.696 112.885 141.841 112.763 141.995 112.643C141.053 112.196 140.531 111.172 140.023 110.248C138.679 107.792 136.908 105.593 134.793 103.754C134.741 103.555 134.438 103.597 134.277 103.469C134.224 103.419 134.186 103.355 134.165 103.285C134.145 103.215 134.144 103.141 134.162 103.07C134.187 102.927 134.253 102.794 134.289 102.653C134.375 102.323 134.3 101.976 134.262 101.637C134.225 101.297 134.24 100.919 134.466 100.666C134.539 100.583 134.631 100.519 134.702 100.434C134.776 100.335 134.828 100.221 134.855 100.1C134.882 99.9792 134.883 99.8539 134.859 99.7325C134.841 99.489 134.789 99.2493 134.702 99.0211C135.47 96.9366 136.238 94.8484 137.006 92.7566C137.544 91.2964 138.087 89.8049 138.142 88.2478C138.186 86.9971 137.863 85.6979 137.103 84.7427C137.241 84.7098 137.379 84.6754 137.516 84.6364C136.619 83.4513 136.521 81.8817 136.498 80.3886C136.485 79.6444 136.46 78.8997 136.421 78.1545C136.681 78.2687 136.945 78.3703 137.215 78.4578L137.466 78.5344C137.873 78.6533 138.289 78.7422 138.71 78.8002C138.895 78.8268 139.083 78.8471 139.27 78.8596C139 78.1863 138.731 77.512 138.462 76.8366C138.322 76.5377 138.237 76.2163 138.211 75.8876V75.8251C138.211 75.7875 138.211 75.75 138.219 75.7125C138.229 75.623 138.25 75.5349 138.28 75.4498C138.294 75.4078 138.31 75.3666 138.328 75.3263C138.384 75.2032 138.452 75.0854 138.529 74.9746C138.586 74.8886 138.648 74.8057 138.711 74.7213C138.945 74.4494 139.135 74.143 139.274 73.813C139.33 73.6459 139.359 73.4714 139.361 73.2955C139.364 73.1172 139.348 72.939 139.314 72.7639C139.292 72.6482 139.263 72.531 139.232 72.4184C139.212 72.3481 139.19 72.2777 139.168 72.2089L139.149 72.1527C139.132 72.0995 139.114 72.0479 139.096 71.9963L139.077 71.9432C139.056 71.8869 139.036 71.8322 139.014 71.7759L139.001 71.743C138.702 70.9754 138.303 70.2437 138.06 69.4542C137.996 69.2441 137.944 69.0306 137.903 68.8148C137.892 68.7601 137.885 68.7038 137.875 68.6491C137.866 68.5944 137.861 68.5553 137.855 68.5084C137.848 68.4615 137.841 68.3989 137.834 68.3442L137.82 68.1879C137.82 68.1379 137.812 68.0878 137.809 68.0315C137.809 67.9362 137.8 67.8408 137.798 67.7454C137.798 67.7111 137.798 67.6782 137.798 67.6438C137.798 67.5719 137.798 67.4984 137.798 67.4265C137.798 67.3874 137.798 67.3483 137.798 67.3108C137.798 67.2389 137.809 67.167 137.816 67.0966C137.816 67.0622 137.816 67.0278 137.826 66.995C137.837 66.8908 137.851 66.7866 137.869 66.6823C137.885 66.5901 137.902 66.4963 137.921 66.4025C137.977 66.1457 138.007 65.8837 138.008 65.6208C138.008 65.5708 138.008 65.5192 137.997 65.4645C137.986 65.4097 137.985 65.38 137.977 65.3394C137.976 65.3269 137.976 65.3144 137.977 65.3019C137.977 65.2737 137.963 65.2456 137.957 65.2174C137.95 65.1893 137.949 65.1909 137.944 65.1784C137.939 65.1658 137.927 65.1236 137.917 65.0971C137.908 65.0705 137.91 65.0736 137.905 65.0611C137.9 65.0486 137.883 65.0048 137.87 64.9782L137.859 64.9501C137.844 64.9157 137.826 64.8829 137.809 64.85C137.748 64.736 137.678 64.6272 137.599 64.5249C137.083 63.8495 136.225 63.3351 135.753 62.5909C135.477 62.1086 135.297 61.5778 135.224 61.0275C135.201 60.9025 135.18 60.7774 135.158 60.6539C135.136 60.5304 135.117 60.4084 135.095 60.2865C135.081 60.2114 135.067 60.1302 135.051 60.0614L135.042 60.0129C135.03 59.9535 135.017 59.8925 135.003 59.8331L134.993 59.7909C134.979 59.7284 134.965 59.6658 134.95 59.6033L134.94 59.5705C134.924 59.5048 134.907 59.4391 134.89 59.3735C134.889 59.3657 134.889 59.3578 134.89 59.35C134.871 59.2812 134.851 59.2124 134.83 59.1437V59.1296C134.808 59.0577 134.786 58.9873 134.763 58.917C134.739 58.845 134.714 58.7716 134.688 58.6996C134.659 58.6262 134.633 58.5527 134.603 58.4808C134.406 57.9771 134.138 57.5035 133.809 57.0737C133.091 56.1544 131.98 55.4947 130.829 55.5385C130.211 55.5619 129.618 55.7777 129.036 55.9918L127.525 56.5469L127.947 56.353C127.508 56.3921 127.059 56.4327 126.662 56.6266C126.265 56.8204 125.93 57.2004 125.917 57.6444C125.909 57.9023 126.011 58.1587 125.978 58.4151C125.923 58.8388 125.533 59.1265 125.33 59.5017C125.212 59.7277 125.157 59.9819 125.173 60.2365V60.249C125.173 60.2787 125.173 60.3068 125.173 60.3365C125.173 60.3448 125.173 60.3532 125.173 60.3615V60.4116C124.546 60.1395 123.918 59.8566 123.291 59.5533C122.254 59.0452 121.205 58.4479 120.558 57.4849C120.351 57.1722 120.191 56.8345 119.986 56.525C119.75 56.1918 119.488 55.8781 119.201 55.5869L117.277 53.5107C117.129 53.7875 117.319 54.1142 117.468 54.3894C117.626 54.678 117.746 54.986 117.824 55.3055C117.862 55.4096 117.859 55.5243 117.815 55.626C117.745 55.7099 117.654 55.774 117.551 55.8121C117.375 55.9223 117.241 56.0875 117.169 56.2818C117.098 56.476 117.092 56.6885 117.154 56.8861C117.223 57.0807 117.341 57.2542 117.496 57.3896C117.652 57.525 117.841 57.6176 118.044 57.6584C118.18 57.6739 118.313 57.7064 118.441 57.7554C118.673 57.8695 118.783 58.1353 118.949 58.3338C119.252 58.6965 119.733 58.8325 120.193 58.9514C120.905 59.7706 121.645 60.5554 122.358 61.3746C123.435 62.6144 124.538 63.876 125.944 64.714C126.09 64.8016 126.239 64.8829 126.389 64.9579C126.389 64.9829 126.389 65.0079 126.381 65.033C126.342 65.2177 126.366 65.4103 126.449 65.5801C126.574 65.7787 126.833 65.8381 127.064 65.8788L128.127 66.0679C128.118 66.2053 128.101 66.3421 128.076 66.4775C128.061 66.5604 128.044 66.6417 128.028 66.7246L128.01 66.8309C128.01 66.8309 128.01 66.8418 128.01 66.8465C128.01 66.8512 128.01 66.9028 127.999 66.9325C127.988 66.9622 127.999 66.9528 127.999 66.9622V67.0372V67.0685C127.999 67.1013 127.999 67.1357 127.999 67.1701C128.035 67.586 128.312 67.9299 128.59 68.2473L128.739 68.4271C128.503 68.7238 128.337 69.0702 128.254 69.4402C128.207 69.6722 128.184 69.9085 128.185 70.1453C128.043 70.2805 127.935 70.4478 127.872 70.633C127.797 70.8892 127.77 71.1566 127.79 71.4225V71.4413C127.79 71.5398 127.79 71.6367 127.79 71.7352C127.772 72.1088 127.834 72.4819 127.972 72.8296C127.986 72.8577 128.002 72.8828 128.016 72.9093C127.781 73.369 127.388 73.727 127.108 74.16C126.824 74.6408 126.695 75.1972 126.74 75.7533C126.784 76.3095 127 76.8384 127.357 77.2681C127.572 77.5151 127.848 77.7527 127.873 78.081C127.869 78.2299 127.855 78.3783 127.829 78.525C127.804 78.8784 127.967 79.2129 128.055 79.5553C128.129 79.8399 128.132 80.1807 127.969 80.4089C127.804 80.6488 127.728 80.9385 127.754 81.2282C127.834 81.6706 127.65 82.113 127.619 82.5617C127.605 82.754 127.619 82.9494 127.602 83.1417C127.579 83.326 127.541 83.508 127.487 83.6858C127.487 83.7046 127.478 83.7249 127.472 83.7452C127.084 83.9156 126.7 84.0923 126.33 84.2971C126.13 84.3859 125.964 84.5374 125.859 84.7286C125.796 84.9206 125.788 85.1261 125.834 85.3227L126.168 87.6396L126.11 87.6146C126.136 87.994 126.163 88.3749 126.192 88.7575C126.212 89.0467 126.239 89.3531 126.411 89.5845C126.499 89.6779 126.578 89.7788 126.648 89.8862C126.78 90.152 126.623 90.4616 126.507 90.7336C126.391 91.0056 126.35 91.3918 126.606 91.5387C126.739 91.6312 126.883 91.7078 127.034 91.767C126.72 93.0709 127.009 94.4373 127.301 95.7458C127.523 96.7464 127.747 97.7459 127.97 98.7444C128.058 99.1686 128.107 99.5997 128.118 100.033C128.118 100.095 128.118 100.158 128.118 100.22C128.149 100.816 128.255 101.405 128.432 101.974C128.78 103.144 128.446 104.548 128.556 105.822C128.629 106.435 128.751 107.041 128.923 107.634C129.68 110.629 130.356 113.565 130.617 116.645C130.895 116.999 131.273 117.262 131.702 117.4C131.671 117.779 131.713 118.212 131.702 118.432C131.702 118.615 131.673 118.796 131.618 118.97C131.484 119.317 131.147 119.544 130.797 119.666C130.687 119.703 130.576 119.733 130.463 119.76L130.589 119.653C129.871 119.498 129.122 119.629 128.501 120.019C128.403 120.069 128.316 120.137 128.246 120.22C128.175 120.303 128.121 120.4 128.088 120.504C128.062 120.702 128.114 120.903 128.232 121.065C128.578 121.569 129.092 121.933 129.683 122.092C130.268 122.245 130.868 122.329 131.472 122.341L132.579 122.405C132.542 122.468 132.528 122.542 132.541 122.615C132.555 122.687 132.594 122.752 132.651 122.797C132.77 122.884 132.911 122.935 133.058 122.944C133.51 123.011 133.97 123.018 134.424 122.965C134.538 122.961 134.648 122.922 134.738 122.852C134.759 122.833 134.775 122.81 134.787 122.784C134.798 122.759 134.804 122.731 134.804 122.703C134.804 122.675 134.798 122.647 134.787 122.621C134.775 122.595 134.759 122.572 134.738 122.553C134.804 122.551 134.868 122.529 134.922 122.49C134.976 122.451 135.017 122.397 135.039 122.334C135.082 122.207 135.096 122.072 135.08 121.939C135.05 121.425 135.004 120.677 134.736 120.219C134.69 120.136 134.617 120.07 134.53 120.032C134.442 119.993 134.344 119.984 134.251 120.007C134.078 119.091 133.973 118.164 133.938 117.233C134.214 117.13 134.483 117.009 134.744 116.87C133.974 115.631 133.96 114.056 134.195 112.615C134.288 112.16 134.357 111.7 134.4 111.238C134.452 110.315 134.313 109.271 133.8 108.508C134.735 109.1 135.562 109.847 136.247 110.715C137.331 112.122 137.991 113.826 139.32 114.999C139.495 114.829 139.671 114.66 139.85 114.492C140.13 114.966 140.395 115.449 140.645 115.942C140.842 116.304 140.996 116.688 141.107 117.085C141.229 117.692 141.243 118.316 141.149 118.928C141.112 119.253 141.068 119.577 141.016 119.899C140.995 120.036 140.963 120.172 140.92 120.305C140.919 120.263 140.909 120.221 140.89 120.183C140.807 120.038 140.576 120.104 140.451 120.204C140.227 120.371 140.043 120.584 139.91 120.829C139.837 120.949 139.803 121.088 139.812 121.228C139.833 121.312 139.871 121.39 139.926 121.458C139.98 121.525 140.048 121.58 140.126 121.618C140.708 121.958 141.439 121.712 142.064 121.462C142.236 121.4 142.4 121.318 142.553 121.217C142.867 120.992 143.038 120.621 143.35 120.402C143.516 120.311 143.677 120.21 143.831 120.099C144.122 119.835 144.145 119.389 144.357 119.054C144.708 118.478 145.494 118.329 145.802 117.718C146.158 117.042 145.742 116.19 145.206 115.749Z" fill="url(#paint0_linear)"/>
<path d="M131.681 118.501C131.68 118.682 131.651 118.861 131.594 119.033C131.463 119.375 131.124 119.598 130.776 119.719C130.427 119.839 130.057 119.875 129.703 119.98C129.547 120.015 129.403 120.09 129.284 120.196C128.97 120.508 129.158 121.071 129.525 121.304C129.892 121.537 130.36 121.529 130.796 121.5C131.721 121.446 132.641 121.316 133.544 121.11C133.871 121.034 134.252 120.884 134.304 120.554C134.313 120.449 134.305 120.343 134.279 120.241C134.056 119.122 133.938 117.985 133.926 116.844C133.926 116.769 132.106 116.72 131.936 116.83C131.557 117.078 131.701 118.116 131.681 118.501Z" fill="#A1616A"/>
<path d="M139.796 114.518C140.097 115.015 140.38 115.522 140.644 116.039C140.84 116.396 140.995 116.775 141.105 117.166C141.227 117.765 141.241 118.381 141.148 118.985C141.111 119.305 141.066 119.624 141.013 119.943C140.961 120.256 140.878 120.611 140.61 120.79C140.729 120.861 140.863 120.904 141.002 120.916C141.14 120.928 141.28 120.909 141.41 120.861C141.669 120.761 141.907 120.615 142.114 120.431C143.458 119.326 144.467 117.72 144.517 115.983C144.531 115.847 144.506 115.71 144.444 115.589C144.38 115.504 144.3 115.433 144.208 115.38C143.205 114.699 142.273 113.919 141.427 113.052C141.377 112.985 141.305 112.939 141.223 112.922C141.159 112.922 141.096 112.94 141.041 112.973C140.525 113.231 139.662 113.599 139.447 114.185C139.594 114.259 139.715 114.375 139.796 114.518Z" fill="#A1616A"/>
<path d="M133.521 120.316C132.392 120.785 131.168 120.953 129.946 121.114C129.79 121.133 129.622 121.146 129.518 121.036C129.477 120.985 129.452 120.923 129.447 120.858C129.442 120.792 129.457 120.727 129.49 120.67C129.556 120.558 129.646 120.46 129.752 120.383L130.563 119.706C129.856 119.556 129.118 119.683 128.502 120.059C128.308 120.155 128.16 120.324 128.091 120.528C128.064 120.725 128.116 120.924 128.235 121.083C128.582 121.582 129.096 121.941 129.684 122.096C130.268 122.247 130.868 122.329 131.471 122.342L132.569 122.404C132.531 122.467 132.518 122.541 132.532 122.612C132.545 122.684 132.585 122.748 132.643 122.792C132.762 122.879 132.904 122.93 133.051 122.94C133.503 123.006 133.962 123.012 134.416 122.959C134.53 122.957 134.64 122.918 134.729 122.848C134.75 122.83 134.767 122.807 134.778 122.782C134.789 122.756 134.795 122.729 134.795 122.701C134.795 122.674 134.789 122.646 134.778 122.621C134.767 122.595 134.75 122.573 134.729 122.554C134.796 122.552 134.86 122.531 134.913 122.492C134.967 122.453 135.008 122.399 135.031 122.337C135.072 122.212 135.086 122.079 135.071 121.948C135.041 121.441 134.996 120.697 134.728 120.255C134.46 119.812 133.901 120.159 133.521 120.316Z" fill="#3F3D56"/>
<path d="M145.179 115.846C144.821 115.581 144.429 115.365 144.015 115.203C143.998 115.191 143.979 115.182 143.958 115.178C143.938 115.173 143.917 115.174 143.897 115.179C143.876 115.184 143.858 115.194 143.842 115.207C143.826 115.221 143.813 115.237 143.804 115.256C143.064 116.258 142.485 117.37 142.09 118.55C141.866 119.223 141.688 119.939 141.233 120.483C141.174 120.555 141.077 120.628 140.995 120.586C140.877 120.527 140.949 120.337 140.884 120.223C140.802 120.079 140.579 120.145 140.446 120.244C140.222 120.41 140.037 120.623 139.906 120.869C139.831 120.985 139.797 121.123 139.809 121.261C139.829 121.344 139.866 121.421 139.919 121.488C139.972 121.554 140.039 121.608 140.115 121.646C140.697 121.982 141.428 121.74 142.051 121.49C142.223 121.429 142.387 121.348 142.539 121.247C142.852 121.027 143.023 120.66 143.335 120.445C143.502 120.355 143.663 120.255 143.817 120.145C144.106 119.884 144.131 119.445 144.341 119.113C144.692 118.546 145.478 118.399 145.786 117.795C146.129 117.122 145.715 116.28 145.179 115.846Z" fill="#3F3D56"/>
<path d="M136.422 84.6167C137.655 85.5391 138.173 87.1791 138.118 88.7143C138.063 90.2496 137.522 91.7223 136.985 93.1622C136.217 95.2228 135.449 97.2828 134.682 99.3423C134.768 99.5682 134.821 99.8051 134.839 100.046C134.863 100.166 134.862 100.289 134.835 100.408C134.808 100.527 134.756 100.639 134.682 100.737C134.61 100.82 134.525 100.884 134.447 100.965C134.221 101.215 134.207 101.59 134.243 101.923C134.279 102.256 134.356 102.6 134.27 102.926C134.234 103.065 134.168 103.196 134.143 103.337C134.125 103.407 134.127 103.48 134.147 103.549C134.167 103.618 134.205 103.681 134.257 103.731C134.414 103.856 134.728 103.815 134.773 104.012C136.883 105.823 138.651 107.993 139.997 110.422C140.505 111.334 141.018 112.343 141.967 112.784C141.043 113.514 140.156 114.291 139.312 115.112C137.986 113.955 137.326 112.272 136.243 110.891C135.558 110.033 134.732 109.296 133.799 108.713C134.312 109.465 134.452 110.497 134.4 111.405C134.357 111.862 134.288 112.315 134.194 112.764C133.951 114.187 133.973 115.734 134.744 116.963C133.922 117.389 132.977 117.704 132.059 117.578C131.484 117.496 130.961 117.199 130.597 116.746C130.337 113.707 129.656 110.805 128.905 107.855C128.733 107.266 128.61 106.664 128.539 106.056C128.43 104.805 128.764 103.413 128.414 102.26C128.238 101.698 128.132 101.118 128.1 100.53C128.1 100.468 128.1 100.407 128.1 100.344C128.089 99.9177 128.04 99.4928 127.953 99.0749L127.284 96.117C126.993 94.8241 126.701 93.4764 127.016 92.1898C126.866 92.1319 126.723 92.0568 126.589 91.9662C126.334 91.8208 126.375 91.4409 126.491 91.172C126.607 90.9031 126.762 90.5982 126.632 90.3356C126.562 90.2289 126.483 90.1289 126.395 90.037C126.222 89.8087 126.196 89.507 126.175 89.2224L126.094 88.0937C126.567 88.2808 126.962 88.6247 127.211 89.0677C126.593 88.114 126.897 86.7538 127.353 85.7126C127.438 85.3937 127.624 85.1106 127.884 84.9058C128.143 84.7009 128.463 84.5853 128.793 84.576C131.308 84.1477 134.38 83.0861 136.422 84.6167Z" fill="#3F3D56"/>
<path opacity="0.1" d="M135.276 91.0361C135.276 91.0361 134.04 91.8585 134.04 92.4745C134.04 93.0904 133.726 98.6342 133.726 98.6342V102.543C133.726 102.543 133.932 104.597 133.726 105.11C133.521 105.623 133.726 107.985 133.726 108.293C133.726 108.601 134.04 105.11 134.04 105.11V101.408L134.354 92.9872L135.276 91.0361Z" fill="black"/>
<path d="M128.381 62.5611L127.661 62.2812C126.189 61.6934 124.716 61.104 123.292 60.4145C122.257 59.9127 121.207 59.3202 120.562 58.3743C120.355 58.0616 120.195 57.7333 119.99 57.4253C119.754 57.0959 119.491 56.7859 119.205 56.4982L117.282 54.4502C117.135 54.7238 117.323 55.0458 117.474 55.3163C117.631 55.6014 117.751 55.9057 117.83 56.2215C117.867 56.3232 117.863 56.4353 117.819 56.5342C117.749 56.6179 117.659 56.6816 117.557 56.7187C117.382 56.8257 117.247 56.988 117.175 57.1798C117.104 57.3716 117.098 57.5818 117.16 57.7771C117.229 57.9701 117.347 58.142 117.502 58.2757C117.658 58.4095 117.846 58.5006 118.048 58.54C118.183 58.5557 118.317 58.5877 118.445 58.6354C118.677 58.7495 118.787 59.0106 118.953 59.206C119.256 59.564 119.737 59.7001 120.195 59.8158C120.907 60.624 121.646 61.3979 122.358 62.2062C123.435 63.4288 124.536 64.6732 125.941 65.5018C126.441 65.8059 126.987 66.0247 127.559 66.1491C127.748 64.9353 128.022 63.7363 128.381 62.5611Z" fill="#A1616A"/>
<path opacity="0.15" d="M128.381 62.5611L127.661 62.2812C126.189 61.6934 124.716 61.104 123.292 60.4145C122.257 59.9127 121.207 59.3202 120.562 58.3743C120.355 58.0616 120.195 57.7333 119.99 57.4253C119.754 57.0959 119.491 56.7859 119.205 56.4982L117.282 54.4502C117.135 54.7238 117.323 55.0458 117.474 55.3163C117.631 55.6014 117.751 55.9057 117.83 56.2215C117.867 56.3232 117.863 56.4353 117.819 56.5342C117.749 56.6179 117.659 56.6816 117.557 56.7187C117.382 56.8257 117.247 56.988 117.175 57.1798C117.104 57.3716 117.098 57.5818 117.16 57.7771C117.229 57.9701 117.347 58.142 117.502 58.2757C117.658 58.4095 117.846 58.5006 118.048 58.54C118.183 58.5557 118.317 58.5877 118.445 58.6354C118.677 58.7495 118.787 59.0106 118.953 59.206C119.256 59.564 119.737 59.7001 120.195 59.8158C120.907 60.624 121.646 61.3979 122.358 62.2062C123.435 63.4288 124.536 64.6732 125.941 65.5018C126.441 65.8059 126.987 66.0247 127.559 66.1491C127.748 64.9353 128.022 63.7363 128.381 62.5611Z" fill="black"/>
<path d="M127.064 66.6429C126.834 66.6022 126.575 66.546 126.449 66.349C126.366 66.182 126.342 65.9918 126.382 65.8096C126.507 64.6313 126.77 63.4716 127.166 62.3545C127.516 63.0002 128.205 63.377 128.857 63.7162C129.44 64.039 130.047 64.315 130.674 64.5417C130.517 64.4917 130.133 66.8962 129.916 67.0431C129.643 67.2339 128.984 66.9759 128.682 66.9243L127.064 66.6429Z" fill="#A2792C"/>
<path d="M128.735 65.9329C130.556 65.9329 132.032 64.4615 132.032 62.6466C132.032 60.8317 130.556 59.3604 128.735 59.3604C126.914 59.3604 125.438 60.8317 125.438 62.6466C125.438 64.4615 126.914 65.9329 128.735 65.9329Z" fill="#A1616A"/>
<path d="M128.064 65.3669C128.064 65.3669 130.228 67.2148 129.301 68.4468C128.373 69.6787 127.857 70.5011 129.094 70.6042C130.33 70.7074 134.451 68.5499 134.451 68.5499C134.451 68.5499 130.639 65.4701 131.257 63.6221C131.875 61.7742 128.064 65.3669 128.064 65.3669Z" fill="#FBBEBE"/>
<path d="M130.142 68.2596C129.681 68.37 129.259 68.6059 128.925 68.9411C128.591 69.2762 128.356 69.6974 128.248 70.1575C128.005 71.2644 128.521 72.5026 128.035 73.522C127.806 74.0066 127.381 74.3693 127.094 74.8243C126.811 75.2979 126.683 75.8473 126.727 76.3966C126.772 76.9458 126.986 77.4677 127.341 77.8901C127.556 78.134 127.832 78.3701 127.858 78.6921C127.854 78.8389 127.839 78.9852 127.814 79.1299C127.789 79.4785 127.952 79.8099 128.04 80.1476C128.113 80.4275 128.116 80.7636 127.953 80.9887C127.789 81.2246 127.713 81.511 127.74 81.797C127.818 82.2348 127.635 82.671 127.603 83.1134C127.589 83.3041 127.603 83.4949 127.586 83.6856C127.563 83.8671 127.526 84.0465 127.473 84.2218L127.197 85.2365C128.694 85.8744 130.284 86.1042 131.903 86.0745C133.353 86.0463 134.782 85.7477 136.2 85.4491C136.631 85.3584 137.063 85.2678 137.488 85.1505C136.59 83.9811 136.495 82.4318 136.47 80.9606C136.431 78.5078 136.247 76.0595 135.919 73.6283C136.354 72.8106 136.547 71.8992 136.725 70.9908C136.806 70.6249 136.839 70.2504 136.826 69.8761C136.782 69.0944 136.421 68.3518 136.068 67.6436C135.745 66.9964 135.395 66.3147 134.675 66.0349C134.501 65.9619 134.312 65.9343 134.124 65.9548C133.937 65.9754 133.757 66.0433 133.604 66.1521C133.059 66.5617 133.221 67.2684 133.081 67.8719C132.898 68.6536 132.175 69.2148 131.404 69.4353C130.83 69.5854 130.234 69.6408 129.641 69.5994C129.583 69.5961 129.527 69.5768 129.479 69.5436C129.432 69.5104 129.394 69.4647 129.371 69.4115C129.348 69.3583 129.34 69.2997 129.349 69.2424C129.357 69.185 129.381 69.1311 129.418 69.0866C129.671 68.8083 129.925 68.5254 130.142 68.2596Z" fill="#A2792C"/>
<path d="M132.695 80.9619C131.474 81.9562 130.24 82.9599 128.831 83.6635C128.004 84.0762 127.126 84.3811 126.321 84.8251C126.122 84.9122 125.957 85.0615 125.85 85.2503C125.786 85.4394 125.778 85.6427 125.825 85.8366L126.183 88.2942C126.282 88.9602 126.923 89.3886 127.438 89.8138C127.41 89.5903 127.364 89.4167 127.471 89.2182C127.508 89.1561 127.548 89.0961 127.592 89.0384C127.811 88.707 127.819 88.277 127.766 87.8831C127.712 87.4891 127.609 87.1014 127.629 86.698C127.625 86.6312 127.638 86.5645 127.667 86.5042C127.696 86.4439 127.74 86.3922 127.796 86.3541C129.548 85.5145 131.435 84.8704 133.206 84.0731C133.675 83.8843 134.116 83.6346 134.519 83.3305C134.924 83.0209 135.196 82.5702 135.281 82.0688C135.289 82.0363 135.291 82.0025 135.285 81.9694C135.28 81.9364 135.268 81.9048 135.25 81.8765C135.214 81.8377 135.168 81.8104 135.117 81.7983C134.323 81.5107 133.485 81.2465 132.695 80.9619Z" fill="#A1616A"/>
<path opacity="0.1" d="M129.303 70.6499C128.698 70.7515 128.061 71.0642 127.855 71.6427C127.782 71.8963 127.754 72.161 127.774 72.4244C127.755 72.7945 127.818 73.1643 127.957 73.5078C128.061 73.6974 128.184 73.8756 128.324 74.0393C129.774 75.8904 130.502 78.2152 131.914 80.0959C132.039 80.2617 132.268 80.4774 132.198 80.6728C132.172 80.7235 132.149 80.7757 132.13 80.8292C132.124 80.8797 132.13 80.9311 132.148 80.9788C132.166 81.0264 132.195 81.069 132.234 81.1028C132.309 81.1715 132.367 81.2566 132.405 81.3513C132.431 81.4498 132.365 81.578 132.263 81.5702C132.433 82.0924 132.952 82.3972 133.445 82.6443C134.264 83.0554 135.17 83.3791 136.082 83.2899C136.253 82.6067 136.491 81.8344 136.395 81.1387C136.295 80.6074 136.118 80.0934 135.87 79.6128L135.257 78.2777C134.734 77.138 134.207 75.9905 133.479 74.9696C133.217 74.6464 132.996 74.2919 132.822 73.9143C132.635 73.4312 132.122 73.0919 131.812 72.6776C131.35 72.0523 130.87 71.4269 130.252 70.9751C130.005 70.7844 129.606 70.5999 129.303 70.6499Z" fill="black"/>
<path d="M129.305 70.3413C128.7 70.4429 128.063 70.7556 127.857 71.3325C127.784 71.5862 127.756 71.8509 127.776 72.1142C127.757 72.4844 127.82 72.8541 127.959 73.1976C128.062 73.3872 128.185 73.5654 128.326 73.7292C129.776 75.5802 130.504 77.905 131.915 79.7858C132.041 79.9515 132.27 80.1672 132.199 80.3627C132.174 80.4134 132.151 80.4656 132.132 80.519C132.126 80.5696 132.132 80.6209 132.15 80.6686C132.168 80.7163 132.197 80.7589 132.235 80.7926C132.311 80.8614 132.369 80.9464 132.406 81.0412C132.433 81.1397 132.367 81.2679 132.265 81.2601C132.435 81.7822 132.954 82.0871 133.447 82.3341C134.265 82.7453 135.172 83.0689 136.084 82.9798C136.254 82.2966 136.493 81.5243 136.397 80.8286C136.297 80.2973 136.12 79.7833 135.872 79.3027L135.258 77.9676C134.736 76.8278 134.209 75.6803 133.481 74.6594C133.218 74.3359 132.998 73.9808 132.824 73.6026C132.637 73.121 132.124 72.7818 131.814 72.3675C131.352 71.7421 130.872 71.1168 130.254 70.6649C130.006 70.4758 129.608 70.2913 129.305 70.3413Z" fill="#A2792C"/>
<path d="M127.922 57.2479C127.484 57.2854 127.034 57.3261 126.639 57.5168C126.243 57.7075 125.906 58.0828 125.894 58.5205C125.894 58.7753 125.988 59.0286 125.955 59.2803C125.9 59.6993 125.509 59.9823 125.308 60.3528C124.957 60.9969 125.23 61.8161 125.685 62.3852C126.14 62.9543 126.756 63.392 127.224 63.958C127.593 64.4105 127.859 64.9368 128.006 65.5011C128.153 66.0654 128.176 66.6546 128.074 67.2286C128.016 67.4516 127.988 67.6814 127.991 67.9118C128.027 68.3214 128.305 68.6607 128.581 68.9734C129.924 70.5385 131.167 72.1865 132.302 73.9074C132.642 74.4073 132.948 74.9296 133.218 75.4708C133.485 76.0305 133.688 76.6277 134.059 77.1233C134.4 77.5488 134.819 77.9068 135.293 78.1786C136.489 78.9135 137.845 79.3496 139.246 79.4496L138.438 77.4532C138.296 77.0983 138.148 76.7247 138.195 76.3448C138.285 75.6256 139.013 75.1534 139.249 74.4687C139.406 74.0278 139.336 73.5416 139.207 73.0929C138.922 72.0814 138.351 71.1715 138.043 70.1662C137.774 69.2848 137.713 68.3529 137.867 67.4444C137.935 67.0441 138.045 66.6423 137.994 66.2405C137.845 65.018 136.407 64.4333 135.742 63.3967C135.312 62.7307 135.229 61.9099 135.085 61.1314C134.876 59.9948 134.504 58.8598 133.786 57.953C133.067 57.0462 131.96 56.3896 130.805 56.4381C130.187 56.4615 129.596 56.6757 129.014 56.8852L127.502 57.4339" fill="#3F3D56"/>
<g opacity="0.1">
<path opacity="0.1" d="M134.673 59.8012C134.803 60.5032 134.884 61.2396 135.214 61.8665C135.168 61.6226 135.131 61.3771 135.085 61.1364C134.979 60.5235 134.809 59.9232 134.58 59.3447C134.619 59.4964 134.646 59.648 134.673 59.8012Z" fill="black"/>
<path opacity="0.1" d="M137.454 66.1143C137.301 67.0235 137.361 67.9556 137.63 68.8378C137.703 69.0769 137.786 69.3068 137.887 69.5413C137.756 68.8507 137.749 68.1425 137.866 67.4495C137.934 67.0492 138.044 66.6474 137.993 66.2457C137.947 65.9014 137.806 65.5766 137.586 65.3076C137.562 65.5796 137.499 65.847 137.454 66.1143Z" fill="black"/>
<path opacity="0.1" d="M139.206 73.0983C139.119 72.8046 139.014 72.5164 138.892 72.2354C138.945 72.537 138.925 72.8468 138.833 73.139C138.596 73.8222 137.866 74.2959 137.779 75.0151C137.731 75.395 137.877 75.7686 138.022 76.1235C138.075 76.2564 138.128 76.3909 138.179 76.5237C138.175 76.466 138.175 76.408 138.179 76.3502C138.268 75.631 138.996 75.1589 139.233 74.4741C139.402 74.0333 139.335 73.547 139.206 73.0983Z" fill="black"/>
<path opacity="0.1" d="M134.882 76.8483C134.408 76.5758 133.989 76.2173 133.648 75.7915C133.276 75.2959 133.072 74.6971 132.805 74.139C132.536 73.5975 132.23 73.0752 131.889 72.5756C130.754 70.8543 129.512 69.2058 128.17 67.6399C128.121 67.5852 128.074 67.5289 128.027 67.4727C127.995 67.6173 127.982 67.7656 127.991 67.9135C128.027 68.3231 128.305 68.6624 128.581 68.9751C129.924 70.5403 131.167 72.1882 132.302 73.9092C132.642 74.409 132.948 74.9313 133.218 75.4726C133.484 76.0323 133.688 76.6295 134.059 77.1251C134.4 77.5506 134.819 77.9085 135.293 78.1804C136.489 78.9152 137.845 79.3513 139.246 79.4514L138.697 78.1069C137.345 77.9888 136.038 77.5579 134.882 76.8483Z" fill="black"/>
<path opacity="0.1" d="M126.811 62.6295C126.34 62.0636 125.727 61.6336 125.272 61.0583C125.231 61.0051 125.192 60.9504 125.153 60.8926C125.143 61.4398 125.332 61.9721 125.684 62.3919C126.139 62.9688 126.756 63.3987 127.223 63.9647C127.406 64.1845 127.564 64.4235 127.694 64.6776C127.597 63.9262 127.291 63.2168 126.811 62.6295Z" fill="black"/>
</g>
<path d="M65.5771 48.0631L64.4398 46.9234C64.3836 46.8669 64.3168 46.8221 64.2432 46.7915C64.1695 46.7609 64.0905 46.7451 64.0107 46.7451C63.931 46.7451 63.852 46.7609 63.7783 46.7915C63.7047 46.8221 63.6379 46.8669 63.5817 46.9234L56.4395 53.9759L53.4182 50.9429C53.3052 50.8303 53.152 50.7671 52.9923 50.7671C52.8325 50.7671 52.6793 50.8303 52.5664 50.9429L51.4165 52.0763C51.3036 52.1902 51.2402 52.3438 51.2402 52.5039C51.2402 52.664 51.3036 52.8177 51.4165 52.9315L56.0049 57.5388C56.1189 57.6513 56.2728 57.7144 56.4332 57.7144C56.5936 57.7144 56.7475 57.6513 56.8614 57.5388L65.5771 48.9183C65.6338 48.8623 65.6787 48.7957 65.7095 48.7223C65.7402 48.6489 65.756 48.5702 65.756 48.4907C65.756 48.4112 65.7402 48.3325 65.7095 48.2591C65.6787 48.1857 65.6338 48.1191 65.5771 48.0631Z" fill="white"/>
<path d="M97.1084 48.0631L95.9711 46.9234C95.9149 46.8669 95.8481 46.8221 95.7744 46.7915C95.7008 46.7609 95.6218 46.7451 95.542 46.7451C95.4622 46.7451 95.3832 46.7609 95.3096 46.7915C95.236 46.8221 95.1691 46.8669 95.113 46.9234L87.9707 53.9759L84.9494 50.9429C84.8365 50.8303 84.6833 50.7671 84.5235 50.7671C84.3638 50.7671 84.2106 50.8303 84.0976 50.9429L82.9478 52.0763C82.8348 52.1902 82.7715 52.3438 82.7715 52.5039C82.7715 52.664 82.8348 52.8177 82.9478 52.9315L87.5362 57.5388C87.6502 57.6513 87.8041 57.7144 87.9645 57.7144C88.1248 57.7144 88.2787 57.6513 88.3927 57.5388L97.1084 48.9183C97.165 48.8623 97.21 48.7957 97.2407 48.7223C97.2714 48.6489 97.2872 48.5702 97.2872 48.4907C97.2872 48.4112 97.2714 48.3325 97.2407 48.2591C97.21 48.1857 97.165 48.1191 97.1084 48.0631Z" fill="white"/>
</g>
<defs>
<linearGradient id="paint0_linear" x1="131.531" y1="122.999" x2="131.531" y2="53.5076" gradientUnits="userSpaceOnUse">
<stop stop-color="#808080" stop-opacity="0.25"/>
<stop offset="0.54" stop-color="#808080" stop-opacity="0.12"/>
<stop offset="1" stop-color="#808080" stop-opacity="0.1"/>
</linearGradient>
<clipPath id="clip0">
<rect width="177" height="123" fill="white"/>
</clipPath>
</defs>
</svg>
