<svg width="130" height="153" viewBox="0 0 130 153" fill="none" xmlns="http://www.w3.org/2000/svg">
<g clip-path="url(#clip0)">
<path d="M86.1419 0H2.92388C2.14868 0.000865136 1.40548 0.311595 0.857332 0.864015C0.309185 1.41643 0.000858444 2.16543 0 2.94667V116.28C0.000877455 117.061 0.309209 117.81 0.857352 118.363C1.4055 118.915 2.14868 119.226 2.92388 119.227H86.1419C86.9171 119.226 87.6602 118.915 88.2084 118.363C88.7565 117.81 89.0648 117.061 89.0657 116.28V2.94667C89.0649 2.16543 88.7565 1.41645 88.2084 0.864035C87.6602 0.31162 86.9171 0.000884295 86.1419 0Z" fill="#F2F2F2"/>
<path d="M5.49493 3.62695C4.95409 3.6362 4.43895 3.86119 4.06246 4.25262C3.68597 4.64404 3.47886 5.16995 3.48653 5.71503V113.512C3.47886 114.057 3.68597 114.583 4.06246 114.975C4.43895 115.366 4.95409 115.591 5.49493 115.6H83.5716C84.1124 115.591 84.6276 115.366 85.004 114.975C85.3805 114.583 85.5876 114.057 85.58 113.512V5.71503C85.5876 5.16995 85.3805 4.64404 85.004 4.25262C84.6276 3.86119 84.1124 3.6362 83.5716 3.62695H5.49493Z" fill="white"/>
<path d="M9.55847 8.61328C8.81432 8.61328 8.20898 9.30177 8.20898 10.1481V24.9851C8.20898 25.8315 8.81432 26.5199 9.55847 26.5199H79.5066C80.2507 26.5199 80.856 25.8315 80.856 24.9851V10.1481C80.856 9.30176 80.2507 8.61328 79.5066 8.61328H9.55847Z" fill="#E6E6E6"/>
<path d="M9.55858 33.7168C9.19569 33.7224 8.84983 33.8729 8.59685 34.1352C8.34387 34.3974 8.20443 34.7501 8.2091 35.1159V66.8277C8.20443 67.1935 8.34387 67.5461 8.59685 67.8084C8.84983 68.0707 9.19569 68.2211 9.55858 68.2268H79.5067C79.8696 68.2211 80.2154 68.0707 80.4684 67.8084C80.7214 67.5461 80.8608 67.1935 80.8562 66.8277V35.1159C80.8608 34.7501 80.7214 34.3974 80.4684 34.1352C80.2154 33.8729 79.8696 33.7224 79.5067 33.7168H9.55858Z" fill="#E6E6E6"/>
<path d="M72.1978 10.71H16.8691V13.8833H72.1978V10.71Z" fill="white"/>
<path d="M72.3102 17.3965H16.9814V18.8698H72.3102V17.3965Z" fill="white"/>
<path d="M72.3102 20.0029H16.9814V21.4763H72.3102V20.0029Z" fill="white"/>
<path d="M72.3102 22.6104H16.9814V24.0837H72.3102V22.6104Z" fill="white"/>
<path d="M49.7426 68.283H75.2053C75.3674 68.283 75.5259 68.2345 75.6607 68.1438C75.7955 68.053 75.9005 67.924 75.9625 67.7731C76.0246 67.6222 76.0408 67.4561 76.0092 67.2958C75.9776 67.1356 75.8996 66.9884 75.7849 66.8729L59.4885 50.4494C59.3347 50.2947 59.1262 50.2078 58.9089 50.2078C58.6916 50.2078 58.4832 50.2947 58.3293 50.4494L54.2768 54.5335C54.1172 54.6944 53.9277 54.8221 53.7191 54.9091C53.5105 54.9962 53.2869 55.0411 53.0612 55.0411C52.8354 55.0411 52.6118 54.9962 52.4032 54.9091C52.1946 54.8221 52.0051 54.6944 51.8455 54.5335L39.1525 41.7416C38.9986 41.5869 38.7902 41.5 38.5728 41.5C38.3555 41.5 38.1471 41.5869 37.9932 41.7416L13.1687 66.7595C13.0541 66.8751 12.9761 67.0223 12.9444 67.1825C12.9128 67.3427 12.9291 67.5088 12.9911 67.6597C13.0532 67.8107 13.1582 67.9397 13.293 68.0304C13.4278 68.1212 13.5862 68.1697 13.7484 68.1697H49.7753L49.7426 68.283Z" fill="white"/>
<path d="M19.4554 44.3701C21.1945 44.3701 22.6042 42.9494 22.6042 41.1968C22.6042 39.4442 21.1945 38.0234 19.4554 38.0234C17.7164 38.0234 16.3066 39.4442 16.3066 41.1968C16.3066 42.9494 17.7164 44.3701 19.4554 44.3701Z" fill="white"/>
<path d="M9.55858 75.6504C9.19569 75.656 8.84983 75.8065 8.59685 76.0688C8.34387 76.331 8.20443 76.6837 8.2091 77.0494V108.761C8.20443 109.127 8.34387 109.48 8.59685 109.742C8.84983 110.004 9.19569 110.155 9.55858 110.16H79.5067C79.8696 110.155 80.2154 110.004 80.4684 109.742C80.7214 109.48 80.8608 109.127 80.8562 108.761V77.0494C80.8608 76.6837 80.7214 76.331 80.4684 76.0688C80.2154 75.8065 79.8696 75.656 79.5067 75.6504H9.55858Z" fill="#E6E6E6"/>
<path d="M49.7426 110.216H75.2053C75.3674 110.216 75.5259 110.168 75.6606 110.077C75.7954 109.986 75.9005 109.857 75.9625 109.706C76.0245 109.555 76.0408 109.389 76.0092 109.229C75.9776 109.069 75.8995 108.922 75.7849 108.806L59.4885 92.3828C59.3346 92.2282 59.1262 92.1414 58.9089 92.1414C58.6916 92.1414 58.4832 92.2282 58.3293 92.3828L54.2768 96.4668C54.1172 96.6278 53.9277 96.7555 53.7191 96.8426C53.5105 96.9297 53.2869 96.9746 53.0611 96.9746C52.8353 96.9746 52.6117 96.9297 52.4031 96.8426C52.1945 96.7555 52.005 96.6278 51.8454 96.4668L39.1525 83.675C38.9986 83.5204 38.7901 83.4336 38.5728 83.4336C38.3555 83.4336 38.1471 83.5204 37.9932 83.675L13.1687 108.693C13.0541 108.808 12.9761 108.956 12.9444 109.116C12.9128 109.276 12.9291 109.442 12.9911 109.593C13.0532 109.744 13.1582 109.873 13.293 109.964C13.4278 110.055 13.5862 110.103 13.7483 110.103H49.7752L49.7426 110.216Z" fill="white"/>
<path d="M19.4554 86.3037C21.1945 86.3037 22.6042 84.8829 22.6042 83.1304C22.6042 81.3778 21.1945 79.957 19.4554 79.957C17.7164 79.957 16.3066 81.3778 16.3066 83.1304C16.3066 84.8829 17.7164 86.3037 19.4554 86.3037Z" fill="white"/>
<path d="M32.1629 26.0664C31.6262 26.067 31.1117 26.2822 30.7322 26.6646C30.3528 27.047 30.1393 27.5656 30.1387 28.1064V141.44C30.1393 141.981 30.3527 142.499 30.7322 142.882C31.1117 143.264 31.6262 143.479 32.1629 143.48H115.381C115.918 143.479 116.432 143.264 116.812 142.882C117.191 142.499 117.405 141.981 117.405 141.44V28.1064C117.404 27.5656 117.191 27.047 116.812 26.6646C116.432 26.2821 115.918 26.067 115.381 26.0664H32.1629Z" fill="#E6E6E6"/>
<path d="M34.4987 29.1846C33.9605 29.1948 33.4479 29.4436 33.0733 29.8764C32.6987 30.3092 32.4926 30.8907 32.5002 31.4935V150.691C32.4926 151.293 32.6987 151.875 33.0733 152.308C33.4479 152.741 33.9605 152.989 34.4987 153H112.19C112.729 152.989 113.241 152.741 113.616 152.308C113.991 151.875 114.197 151.293 114.189 150.691V31.4935C114.197 30.8907 113.991 30.3092 113.616 29.8764C113.241 29.4436 112.729 29.1948 112.19 29.1846H34.4987Z" fill="white"/>
<path d="M46.8381 80.2969C46.5996 80.2971 46.3709 80.3928 46.2023 80.5627C46.0336 80.7327 45.9387 80.9632 45.9385 81.2035V85.3649C45.9387 85.6053 46.0336 85.8357 46.2023 86.0057C46.3709 86.1757 46.5996 86.2713 46.8381 86.2716H99.9177C100.156 86.2713 100.385 86.1757 100.554 86.0057C100.722 85.8357 100.817 85.6053 100.817 85.3649V81.2035C100.817 80.9632 100.722 80.7327 100.554 80.5627C100.385 80.3927 100.156 80.2971 99.9177 80.2969H46.8381Z" fill="#A2792C"/>
<path d="M46.5013 94.0684C46.4417 94.0684 46.3845 94.0923 46.3423 94.1348C46.3002 94.1773 46.2764 94.2349 46.2764 94.295V95.9195C46.2764 95.9796 46.3002 96.0372 46.3423 96.0797C46.3845 96.1222 46.4417 96.1461 46.5013 96.1462H100.481C100.54 96.1461 100.597 96.1223 100.639 96.0798C100.682 96.0373 100.705 95.9796 100.705 95.9195V94.295C100.705 94.2349 100.682 94.1773 100.639 94.1348C100.597 94.0923 100.54 94.0684 100.481 94.0684H46.5013Z" fill="#CCCCCC"/>
<path d="M46.5013 99.3486C46.4417 99.3487 46.3845 99.3726 46.3423 99.4151C46.3002 99.4576 46.2764 99.5152 46.2764 99.5753V101.2C46.2764 101.26 46.3002 101.318 46.3423 101.36C46.3845 101.402 46.4417 101.426 46.5013 101.426H100.481C100.54 101.426 100.597 101.403 100.639 101.36C100.682 101.318 100.705 101.26 100.705 101.2V99.5753C100.705 99.5152 100.682 99.4576 100.639 99.4151C100.597 99.3726 100.54 99.3487 100.481 99.3486H46.5013Z" fill="#CCCCCC"/>
<path d="M46.5013 104.629C46.4417 104.629 46.3845 104.653 46.3423 104.695C46.3002 104.738 46.2764 104.795 46.2764 104.856V106.48C46.2764 106.54 46.3002 106.598 46.3423 106.64C46.3845 106.683 46.4417 106.707 46.5013 106.707H100.481C100.54 106.707 100.597 106.683 100.639 106.64C100.682 106.598 100.705 106.54 100.705 106.48V104.856C100.705 104.795 100.682 104.738 100.639 104.695C100.597 104.653 100.54 104.629 100.481 104.629H46.5013Z" fill="#CCCCCC"/>
<path d="M46.388 115.176C46.3284 115.176 46.2712 115.2 46.229 115.242C46.1869 115.285 46.1632 115.342 46.1631 115.402V117.027C46.1632 117.087 46.1869 117.145 46.229 117.187C46.2712 117.23 46.3284 117.253 46.388 117.254H100.367C100.427 117.253 100.484 117.23 100.526 117.187C100.568 117.145 100.592 117.087 100.592 117.027V115.402C100.592 115.342 100.568 115.285 100.526 115.242C100.484 115.2 100.427 115.176 100.367 115.176H46.388Z" fill="#CCCCCC"/>
<path d="M46.388 120.456C46.3284 120.456 46.2712 120.48 46.229 120.523C46.1869 120.565 46.1632 120.623 46.1631 120.683V122.307C46.1632 122.367 46.1869 122.425 46.229 122.467C46.2712 122.51 46.3284 122.534 46.388 122.534H100.367C100.427 122.534 100.484 122.51 100.526 122.467C100.568 122.425 100.592 122.367 100.592 122.307V120.683C100.592 120.623 100.568 120.565 100.526 120.523C100.484 120.48 100.427 120.456 100.367 120.456H46.388Z" fill="#CCCCCC"/>
<path d="M46.388 125.736C46.3284 125.736 46.2712 125.76 46.229 125.803C46.1869 125.845 46.1631 125.903 46.1631 125.963V127.588C46.1631 127.648 46.1869 127.705 46.229 127.748C46.2712 127.79 46.3284 127.814 46.388 127.814H100.367C100.427 127.814 100.484 127.79 100.526 127.748C100.568 127.705 100.592 127.648 100.592 127.588V125.963C100.592 125.903 100.568 125.845 100.526 125.803C100.484 125.76 100.427 125.736 100.367 125.736H46.388Z" fill="#CCCCCC"/>
<path d="M46.388 131.043C46.3284 131.043 46.2712 131.067 46.229 131.109C46.1869 131.152 46.1631 131.21 46.1631 131.27V132.894C46.1631 132.954 46.1869 133.012 46.229 133.054C46.2712 133.097 46.3284 133.121 46.388 133.121H100.367C100.427 133.121 100.484 133.097 100.526 133.054C100.568 133.012 100.592 132.954 100.592 132.894V131.27C100.592 131.21 100.568 131.152 100.526 131.109C100.484 131.067 100.427 131.043 100.367 131.043H46.388Z" fill="#CCCCCC"/>
<path d="M46.388 136.323C46.3284 136.323 46.2712 136.347 46.229 136.39C46.1869 136.432 46.1631 136.49 46.1631 136.55V138.174C46.1631 138.235 46.1869 138.292 46.229 138.335C46.2712 138.377 46.3284 138.401 46.388 138.401H100.367C100.427 138.401 100.484 138.377 100.526 138.335C100.568 138.292 100.592 138.235 100.592 138.174V136.55C100.592 136.49 100.568 136.432 100.526 136.39C100.484 136.347 100.427 136.323 100.367 136.323H46.388Z" fill="#CCCCCC"/>
<path d="M46.388 141.604C46.3284 141.604 46.2712 141.627 46.229 141.67C46.1869 141.712 46.1631 141.77 46.1631 141.83V143.455C46.1631 143.515 46.1869 143.572 46.229 143.615C46.2712 143.657 46.3284 143.681 46.388 143.681H100.367C100.427 143.681 100.484 143.657 100.526 143.615C100.568 143.572 100.592 143.515 100.592 143.455V141.83C100.592 141.77 100.568 141.712 100.526 141.67C100.484 141.627 100.427 141.604 100.367 141.604H46.388Z" fill="#CCCCCC"/>
<path fill-rule="evenodd" clip-rule="evenodd" d="M73.9866 67.5179C82.2432 67.5179 88.99 60.7186 88.99 52.3975C88.99 43.9438 82.2432 37.1445 73.9866 37.1445C65.5983 37.1445 58.8516 43.9438 58.8516 52.3975C58.8516 60.7186 65.5983 67.5179 73.9866 67.5179Z" stroke="#EDF1F7" stroke-width="3.92453"/>
<path d="M58.8516 52.3975C58.8516 60.7186 65.5983 67.5179 73.9866 67.5179V67.5179C82.2432 67.5179 88.99 60.7186 88.99 52.3975C88.99 43.9438 82.2432 37.1445 73.9866 37.1445" stroke="#A2792C" stroke-width="3.92453" stroke-linecap="round" stroke-linejoin="round"/>
<path d="M67.2121 50.1568V55.7568H66.6361V50.6688H65.3161V50.1568H67.2121ZM70.7828 55.8048C70.3508 55.8048 69.9641 55.6902 69.6228 55.4608C69.2868 55.2315 69.0228 54.9035 68.8308 54.4768C68.6441 54.0448 68.5508 53.5382 68.5508 52.9568C68.5508 52.3755 68.6441 51.8715 68.8308 51.4448C69.0228 51.0128 69.2868 50.6822 69.6228 50.4528C69.9641 50.2235 70.3508 50.1088 70.7828 50.1088C71.2148 50.1088 71.5988 50.2235 71.9348 50.4528C72.2761 50.6822 72.5428 51.0128 72.7348 51.4448C72.9268 51.8715 73.0228 52.3755 73.0228 52.9568C73.0228 53.5382 72.9268 54.0448 72.7348 54.4768C72.5428 54.9035 72.2761 55.2315 71.9348 55.4608C71.5988 55.6902 71.2148 55.8048 70.7828 55.8048ZM70.7828 55.2768C71.1081 55.2768 71.3934 55.1862 71.6388 55.0048C71.8894 54.8235 72.0841 54.5595 72.2228 54.2128C72.3614 53.8662 72.4308 53.4475 72.4308 52.9568C72.4308 52.4662 72.3614 52.0475 72.2228 51.7008C72.0841 51.3542 71.8894 51.0902 71.6388 50.9088C71.3934 50.7275 71.1081 50.6368 70.7828 50.6368C70.4574 50.6368 70.1694 50.7275 69.9188 50.9088C69.6734 51.0902 69.4814 51.3542 69.3428 51.7008C69.2041 52.0475 69.1348 52.4662 69.1348 52.9568C69.1348 53.4475 69.2041 53.8662 69.3428 54.2128C69.4814 54.5595 69.6734 54.8235 69.9188 55.0048C70.1694 55.1862 70.4574 55.2768 70.7828 55.2768ZM76.0796 55.8048C75.6476 55.8048 75.261 55.6902 74.9196 55.4608C74.5836 55.2315 74.3196 54.9035 74.1276 54.4768C73.941 54.0448 73.8476 53.5382 73.8476 52.9568C73.8476 52.3755 73.941 51.8715 74.1276 51.4448C74.3196 51.0128 74.5836 50.6822 74.9196 50.4528C75.261 50.2235 75.6476 50.1088 76.0796 50.1088C76.5116 50.1088 76.8956 50.2235 77.2316 50.4528C77.573 50.6822 77.8396 51.0128 78.0316 51.4448C78.2236 51.8715 78.3196 52.3755 78.3196 52.9568C78.3196 53.5382 78.2236 54.0448 78.0316 54.4768C77.8396 54.9035 77.573 55.2315 77.2316 55.4608C76.8956 55.6902 76.5116 55.8048 76.0796 55.8048ZM76.0796 55.2768C76.405 55.2768 76.6903 55.1862 76.9356 55.0048C77.1863 54.8235 77.381 54.5595 77.5196 54.2128C77.6583 53.8662 77.7276 53.4475 77.7276 52.9568C77.7276 52.4662 77.6583 52.0475 77.5196 51.7008C77.381 51.3542 77.1863 51.0902 76.9356 50.9088C76.6903 50.7275 76.405 50.6368 76.0796 50.6368C75.7543 50.6368 75.4663 50.7275 75.2156 50.9088C74.9703 51.0902 74.7783 51.3542 74.6396 51.7008C74.501 52.0475 74.4316 52.4662 74.4316 52.9568C74.4316 53.4475 74.501 53.8662 74.6396 54.2128C74.7783 54.5595 74.9703 54.8235 75.2156 55.0048C75.4663 55.1862 75.7543 55.2768 76.0796 55.2768ZM80.3285 53.1568C79.9498 53.1568 79.6432 53.0182 79.4085 52.7408C79.1792 52.4582 79.0645 52.0902 79.0645 51.6368C79.0645 51.1835 79.1792 50.8182 79.4085 50.5408C79.6432 50.2582 79.9498 50.1168 80.3285 50.1168C80.7018 50.1168 81.0058 50.2555 81.2405 50.5328C81.4752 50.8102 81.5925 51.1782 81.5925 51.6368C81.5925 52.0955 81.4752 52.4635 81.2405 52.7408C81.0058 53.0182 80.7018 53.1568 80.3285 53.1568ZM83.7205 50.1568H84.1925L80.3685 55.7568H79.8965L83.7205 50.1568ZM80.3285 52.7968C80.5898 52.7968 80.7978 52.6955 80.9525 52.4928C81.1125 52.2848 81.1925 51.9995 81.1925 51.6368C81.1925 51.2742 81.1125 50.9915 80.9525 50.7888C80.7978 50.5808 80.5898 50.4768 80.3285 50.4768C80.0618 50.4768 79.8512 50.5808 79.6965 50.7888C79.5418 50.9968 79.4645 51.2795 79.4645 51.6368C79.4645 51.9942 79.5418 52.2768 79.6965 52.4848C79.8512 52.6928 80.0618 52.7968 80.3285 52.7968ZM83.7605 55.7968C83.3872 55.7968 83.0832 55.6582 82.8485 55.3808C82.6138 55.0982 82.4965 54.7302 82.4965 54.2768C82.4965 53.8235 82.6138 53.4582 82.8485 53.1808C83.0832 52.8982 83.3872 52.7568 83.7605 52.7568C84.1392 52.7568 84.4432 52.8982 84.6725 53.1808C84.9072 53.4582 85.0245 53.8235 85.0245 54.2768C85.0245 54.7302 84.9072 55.0982 84.6725 55.3808C84.4432 55.6582 84.1392 55.7968 83.7605 55.7968ZM83.7605 55.4368C84.0272 55.4368 84.2378 55.3328 84.3925 55.1248C84.5472 54.9168 84.6245 54.6342 84.6245 54.2768C84.6245 53.9195 84.5472 53.6368 84.3925 53.4288C84.2378 53.2208 84.0272 53.1168 83.7605 53.1168C83.4992 53.1168 83.2885 53.2208 83.1285 53.4288C82.9738 53.6315 82.8965 53.9142 82.8965 54.2768C82.8965 54.6395 82.9738 54.9248 83.1285 55.1328C83.2885 55.3355 83.4992 55.4368 83.7605 55.4368Z" fill="#333333"/>
</g>
<defs>
<clipPath id="clip0">
<rect width="130" height="153" fill="white"/>
</clipPath>
</defs>
</svg>
