<svg width="32" height="32" viewBox="0 0 32 32" fill="none" xmlns="http://www.w3.org/2000/svg">
<path d="M22.6667 22.667H20V30.667H17.3334V22.667H14.5067L12.4534 25.2403L15.6134 28.387L13.72 30.2803L10.5734 27.1203C10.1067 26.667 9.84002 26.0403 9.80002 25.387C9.76002 24.7337 9.96002 24.0803 10.3734 23.5737L11.0934 22.667H9.33335L12 17.3337V13.3337C11.1734 13.9603 10.5067 14.7603 10.04 15.6803C9.57335 16.6137 9.33335 17.627 9.33335 18.667H6.66669C6.66704 16.1917 7.65048 13.818 9.40075 12.0677C11.151 10.3175 13.5248 9.33401 16 9.33366C17.7734 9.33366 19.4667 8.62699 20.72 7.38699C21.96 6.13366 22.6667 4.44033 22.6667 2.66699H25.3334C25.3334 4.42699 24.8267 6.16033 23.88 7.64033C22.9386 9.13132 21.593 10.3243 20 11.0803V17.3337L22.6667 22.667ZM18.6667 5.33366C18.6667 5.86699 18.5067 6.37366 18.2134 6.81366C17.92 7.25366 17.5067 7.60033 17.0267 7.80033C16.5384 8.0005 16.0018 8.0516 15.4845 7.9472C14.9672 7.84279 14.4924 7.58755 14.12 7.21366C13.7467 6.84033 13.4934 6.37366 13.3867 5.85366C13.28 5.33366 13.3334 4.80033 13.5334 4.32033C13.7334 3.82699 14.08 3.41366 14.52 3.12033C14.96 2.82699 15.4667 2.66699 16 2.66699C16.7067 2.66699 17.3867 2.94699 17.88 3.45366C18.3867 3.94699 18.6667 4.62699 18.6667 5.33366Z" fill="#A2792C"/>
</svg>
