<svg width="19" height="19" viewBox="0 0 19 19" fill="none" xmlns="http://www.w3.org/2000/svg">
<path d="M5.76367 1.6875H5.57617C5.6793 1.6875 5.76367 1.60312 5.76367 1.5V1.6875H12.8887V1.5C12.8887 1.60312 12.973 1.6875 13.0762 1.6875H12.8887V3.375H14.5762V1.5C14.5762 0.672656 13.9035 0 13.0762 0H5.57617C4.74883 0 4.07617 0.672656 4.07617 1.5V3.375H5.76367V1.6875ZM17.5762 3.375H1.07617C0.661328 3.375 0.326172 3.71016 0.326172 4.125V4.875C0.326172 4.97813 0.410547 5.0625 0.513672 5.0625H1.9293L2.5082 17.3203C2.5457 18.1195 3.20664 18.75 4.00586 18.75H14.6465C15.448 18.75 16.1066 18.1219 16.1441 17.3203L16.723 5.0625H18.1387C18.2418 5.0625 18.3262 4.97813 18.3262 4.875V4.125C18.3262 3.71016 17.991 3.375 17.5762 3.375ZM14.466 17.0625H4.18633L3.61914 5.0625H15.0332L14.466 17.0625Z" fill="#A2792C"/>
</svg>
