<svg width="11" height="13" viewBox="0 0 11 13" fill="none" xmlns="http://www.w3.org/2000/svg">
<path d="M3.32292 1.17H3.20833C3.27135 1.17 3.32292 1.1115 3.32292 1.04V1.17H7.67708V1.04C7.67708 1.1115 7.72865 1.17 7.79167 1.17H7.67708V2.34H8.70833V1.04C8.70833 0.466375 8.29727 0 7.79167 0H3.20833C2.70273 0 2.29167 0.466375 2.29167 1.04V2.34H3.32292V1.17ZM10.5417 2.34H0.458333C0.204818 2.34 0 2.57237 0 2.86V3.38C0 3.4515 0.0515625 3.51 0.114583 3.51H0.979687L1.33346 12.0087C1.35638 12.5629 1.76029 13 2.2487 13H8.7513C9.24115 13 9.64362 12.5645 9.66654 12.0087L10.0203 3.51H10.8854C10.9484 3.51 11 3.4515 11 3.38V2.86C11 2.57237 10.7952 2.34 10.5417 2.34ZM8.64102 11.83H2.35898L2.01237 3.51H8.98763L8.64102 11.83Z" fill="white"/>
</svg>
