<svg width="290" height="518" viewBox="0 0 290 518" fill="none" xmlns="http://www.w3.org/2000/svg">
<path d="M10 5C10 7.76142 7.76142 10 5 10C2.23858 10 0 7.76142 0 5C0 2.23858 2.23858 0 5 0C7.76142 0 10 2.23858 10 5Z" fill="#F3F0E9"/>
<path d="M50 5C50 7.76142 47.7614 10 45 10C42.2386 10 40 7.76142 40 5C40 2.23858 42.2386 0 45 0C47.7614 0 50 2.23858 50 5Z" fill="#F3F0E9"/>
<path d="M10 36C10 38.7614 7.76142 41 5 41C2.23858 41 0 38.7614 0 36C0 33.2386 2.23858 31 5 31C7.76142 31 10 33.2386 10 36Z" fill="#F3F0E9"/>
<path d="M50 36C50 38.7614 47.7614 41 45 41C42.2386 41 40 38.7614 40 36C40 33.2386 42.2386 31 45 31C47.7614 31 50 33.2386 50 36Z" fill="#F3F0E9"/>
<path d="M10 73C10 75.7614 7.76142 78 5 78C2.23858 78 0 75.7614 0 73C0 70.2386 2.23858 68 5 68C7.76142 68 10 70.2386 10 73Z" fill="#F3F0E9"/>
<path d="M50 73C50 75.7614 47.7614 78 45 78C42.2386 78 40 75.7614 40 73C40 70.2386 42.2386 68 45 68C47.7614 68 50 70.2386 50 73Z" fill="#F3F0E9"/>
<path d="M10 104C10 106.761 7.76142 109 5 109C2.23858 109 0 106.761 0 104C0 101.239 2.23858 99 5 99C7.76142 99 10 101.239 10 104Z" fill="#F3F0E9"/>
<path d="M50 104C50 106.761 47.7614 109 45 109C42.2386 109 40 106.761 40 104C40 101.239 42.2386 99 45 99C47.7614 99 50 101.239 50 104Z" fill="#F3F0E9"/>
<path d="M90 5C90 7.76142 87.7614 10 85 10C82.2386 10 80 7.76142 80 5C80 2.23858 82.2386 0 85 0C87.7614 0 90 2.23858 90 5Z" fill="#F3F0E9"/>
<path d="M130 5C130 7.76142 127.761 10 125 10C122.239 10 120 7.76142 120 5C120 2.23858 122.239 0 125 0C127.761 0 130 2.23858 130 5Z" fill="#F3F0E9"/>
<path d="M90 36C90 38.7614 87.7614 41 85 41C82.2386 41 80 38.7614 80 36C80 33.2386 82.2386 31 85 31C87.7614 31 90 33.2386 90 36Z" fill="#F3F0E9"/>
<path d="M130 36C130 38.7614 127.761 41 125 41C122.239 41 120 38.7614 120 36C120 33.2386 122.239 31 125 31C127.761 31 130 33.2386 130 36Z" fill="#F3F0E9"/>
<path d="M90 73C90 75.7614 87.7614 78 85 78C82.2386 78 80 75.7614 80 73C80 70.2386 82.2386 68 85 68C87.7614 68 90 70.2386 90 73Z" fill="#F3F0E9"/>
<path d="M130 73C130 75.7614 127.761 78 125 78C122.239 78 120 75.7614 120 73C120 70.2386 122.239 68 125 68C127.761 68 130 70.2386 130 73Z" fill="#F3F0E9"/>
<path d="M90 104C90 106.761 87.7614 109 85 109C82.2386 109 80 106.761 80 104C80 101.239 82.2386 99 85 99C87.7614 99 90 101.239 90 104Z" fill="#F3F0E9"/>
<path d="M130 104C130 106.761 127.761 109 125 109C122.239 109 120 106.761 120 104C120 101.239 122.239 99 125 99C127.761 99 130 101.239 130 104Z" fill="#F3F0E9"/>
<path d="M10 142C10 144.761 7.76142 147 5 147C2.23858 147 0 144.761 0 142C0 139.239 2.23858 137 5 137C7.76142 137 10 139.239 10 142Z" fill="#F3F0E9"/>
<path d="M50 142C50 144.761 47.7614 147 45 147C42.2386 147 40 144.761 40 142C40 139.239 42.2386 137 45 137C47.7614 137 50 139.239 50 142Z" fill="#F3F0E9"/>
<path d="M10 173C10 175.761 7.76142 178 5 178C2.23858 178 0 175.761 0 173C0 170.239 2.23858 168 5 168C7.76142 168 10 170.239 10 173Z" fill="#F3F0E9"/>
<path d="M50 173C50 175.761 47.7614 178 45 178C42.2386 178 40 175.761 40 173C40 170.239 42.2386 168 45 168C47.7614 168 50 170.239 50 173Z" fill="#F3F0E9"/>
<path d="M10 210C10 212.761 7.76142 215 5 215C2.23858 215 0 212.761 0 210C0 207.239 2.23858 205 5 205C7.76142 205 10 207.239 10 210Z" fill="#F3F0E9"/>
<path d="M50 210C50 212.761 47.7614 215 45 215C42.2386 215 40 212.761 40 210C40 207.239 42.2386 205 45 205C47.7614 205 50 207.239 50 210Z" fill="#F3F0E9"/>
<path d="M10 241C10 243.761 7.76142 246 5 246C2.23858 246 0 243.761 0 241C0 238.239 2.23858 236 5 236C7.76142 236 10 238.239 10 241Z" fill="#F3F0E9"/>
<path d="M50 241C50 243.761 47.7614 246 45 246C42.2386 246 40 243.761 40 241C40 238.239 42.2386 236 45 236C47.7614 236 50 238.239 50 241Z" fill="#F3F0E9"/>
<path d="M90 142C90 144.761 87.7614 147 85 147C82.2386 147 80 144.761 80 142C80 139.239 82.2386 137 85 137C87.7614 137 90 139.239 90 142Z" fill="#F3F0E9"/>
<path d="M130 142C130 144.761 127.761 147 125 147C122.239 147 120 144.761 120 142C120 139.239 122.239 137 125 137C127.761 137 130 139.239 130 142Z" fill="#F3F0E9"/>
<path d="M90 173C90 175.761 87.7614 178 85 178C82.2386 178 80 175.761 80 173C80 170.239 82.2386 168 85 168C87.7614 168 90 170.239 90 173Z" fill="#F3F0E9"/>
<path d="M130 173C130 175.761 127.761 178 125 178C122.239 178 120 175.761 120 173C120 170.239 122.239 168 125 168C127.761 168 130 170.239 130 173Z" fill="#F3F0E9"/>
<path d="M90 210C90 212.761 87.7614 215 85 215C82.2386 215 80 212.761 80 210C80 207.239 82.2386 205 85 205C87.7614 205 90 207.239 90 210Z" fill="#F3F0E9"/>
<path d="M130 210C130 212.761 127.761 215 125 215C122.239 215 120 212.761 120 210C120 207.239 122.239 205 125 205C127.761 205 130 207.239 130 210Z" fill="#F3F0E9"/>
<path d="M90 241C90 243.761 87.7614 246 85 246C82.2386 246 80 243.761 80 241C80 238.239 82.2386 236 85 236C87.7614 236 90 238.239 90 241Z" fill="#F3F0E9"/>
<path d="M130 241C130 243.761 127.761 246 125 246C122.239 246 120 243.761 120 241C120 238.239 122.239 236 125 236C127.761 236 130 238.239 130 241Z" fill="#F3F0E9"/>
<path d="M170 5C170 7.76142 167.761 10 165 10C162.239 10 160 7.76142 160 5C160 2.23858 162.239 0 165 0C167.761 0 170 2.23858 170 5Z" fill="#F3F0E9"/>
<path d="M210 5C210 7.76142 207.761 10 205 10C202.239 10 200 7.76142 200 5C200 2.23858 202.239 0 205 0C207.761 0 210 2.23858 210 5Z" fill="#F3F0E9"/>
<path d="M170 36C170 38.7614 167.761 41 165 41C162.239 41 160 38.7614 160 36C160 33.2386 162.239 31 165 31C167.761 31 170 33.2386 170 36Z" fill="#F3F0E9"/>
<path d="M210 36C210 38.7614 207.761 41 205 41C202.239 41 200 38.7614 200 36C200 33.2386 202.239 31 205 31C207.761 31 210 33.2386 210 36Z" fill="#F3F0E9"/>
<path d="M170 73C170 75.7614 167.761 78 165 78C162.239 78 160 75.7614 160 73C160 70.2386 162.239 68 165 68C167.761 68 170 70.2386 170 73Z" fill="#F3F0E9"/>
<path d="M210 73C210 75.7614 207.761 78 205 78C202.239 78 200 75.7614 200 73C200 70.2386 202.239 68 205 68C207.761 68 210 70.2386 210 73Z" fill="#F3F0E9"/>
<path d="M170 104C170 106.761 167.761 109 165 109C162.239 109 160 106.761 160 104C160 101.239 162.239 99 165 99C167.761 99 170 101.239 170 104Z" fill="#F3F0E9"/>
<path d="M210 104C210 106.761 207.761 109 205 109C202.239 109 200 106.761 200 104C200 101.239 202.239 99 205 99C207.761 99 210 101.239 210 104Z" fill="#F3F0E9"/>
<path d="M250 5C250 7.76142 247.761 10 245 10C242.239 10 240 7.76142 240 5C240 2.23858 242.239 0 245 0C247.761 0 250 2.23858 250 5Z" fill="#F3F0E9"/>
<path d="M290 5C290 7.76142 287.761 10 285 10C282.239 10 280 7.76142 280 5C280 2.23858 282.239 0 285 0C287.761 0 290 2.23858 290 5Z" fill="#F3F0E9"/>
<path d="M250 36C250 38.7614 247.761 41 245 41C242.239 41 240 38.7614 240 36C240 33.2386 242.239 31 245 31C247.761 31 250 33.2386 250 36Z" fill="#F3F0E9"/>
<path d="M290 36C290 38.7614 287.761 41 285 41C282.239 41 280 38.7614 280 36C280 33.2386 282.239 31 285 31C287.761 31 290 33.2386 290 36Z" fill="#F3F0E9"/>
<path d="M250 73C250 75.7614 247.761 78 245 78C242.239 78 240 75.7614 240 73C240 70.2386 242.239 68 245 68C247.761 68 250 70.2386 250 73Z" fill="#F3F0E9"/>
<path d="M290 73C290 75.7614 287.761 78 285 78C282.239 78 280 75.7614 280 73C280 70.2386 282.239 68 285 68C287.761 68 290 70.2386 290 73Z" fill="#F3F0E9"/>
<path d="M250 104C250 106.761 247.761 109 245 109C242.239 109 240 106.761 240 104C240 101.239 242.239 99 245 99C247.761 99 250 101.239 250 104Z" fill="#F3F0E9"/>
<path d="M290 104C290 106.761 287.761 109 285 109C282.239 109 280 106.761 280 104C280 101.239 282.239 99 285 99C287.761 99 290 101.239 290 104Z" fill="#F3F0E9"/>
<path d="M170 142C170 144.761 167.761 147 165 147C162.239 147 160 144.761 160 142C160 139.239 162.239 137 165 137C167.761 137 170 139.239 170 142Z" fill="#F3F0E9"/>
<path d="M210 142C210 144.761 207.761 147 205 147C202.239 147 200 144.761 200 142C200 139.239 202.239 137 205 137C207.761 137 210 139.239 210 142Z" fill="#F3F0E9"/>
<path d="M170 173C170 175.761 167.761 178 165 178C162.239 178 160 175.761 160 173C160 170.239 162.239 168 165 168C167.761 168 170 170.239 170 173Z" fill="#F3F0E9"/>
<path d="M210 173C210 175.761 207.761 178 205 178C202.239 178 200 175.761 200 173C200 170.239 202.239 168 205 168C207.761 168 210 170.239 210 173Z" fill="#F3F0E9"/>
<path d="M170 210C170 212.761 167.761 215 165 215C162.239 215 160 212.761 160 210C160 207.239 162.239 205 165 205C167.761 205 170 207.239 170 210Z" fill="#F3F0E9"/>
<path d="M210 210C210 212.761 207.761 215 205 215C202.239 215 200 212.761 200 210C200 207.239 202.239 205 205 205C207.761 205 210 207.239 210 210Z" fill="#F3F0E9"/>
<path d="M170 241C170 243.761 167.761 246 165 246C162.239 246 160 243.761 160 241C160 238.239 162.239 236 165 236C167.761 236 170 238.239 170 241Z" fill="#F3F0E9"/>
<path d="M210 241C210 243.761 207.761 246 205 246C202.239 246 200 243.761 200 241C200 238.239 202.239 236 205 236C207.761 236 210 238.239 210 241Z" fill="#F3F0E9"/>
<path d="M250 142C250 144.761 247.761 147 245 147C242.239 147 240 144.761 240 142C240 139.239 242.239 137 245 137C247.761 137 250 139.239 250 142Z" fill="#F3F0E9"/>
<path d="M290 142C290 144.761 287.761 147 285 147C282.239 147 280 144.761 280 142C280 139.239 282.239 137 285 137C287.761 137 290 139.239 290 142Z" fill="#F3F0E9"/>
<path d="M250 173C250 175.761 247.761 178 245 178C242.239 178 240 175.761 240 173C240 170.239 242.239 168 245 168C247.761 168 250 170.239 250 173Z" fill="#F3F0E9"/>
<path d="M290 173C290 175.761 287.761 178 285 178C282.239 178 280 175.761 280 173C280 170.239 282.239 168 285 168C287.761 168 290 170.239 290 173Z" fill="#F3F0E9"/>
<path d="M250 210C250 212.761 247.761 215 245 215C242.239 215 240 212.761 240 210C240 207.239 242.239 205 245 205C247.761 205 250 207.239 250 210Z" fill="#F3F0E9"/>
<path d="M290 210C290 212.761 287.761 215 285 215C282.239 215 280 212.761 280 210C280 207.239 282.239 205 285 205C287.761 205 290 207.239 290 210Z" fill="#F3F0E9"/>
<path d="M250 241C250 243.761 247.761 246 245 246C242.239 246 240 243.761 240 241C240 238.239 242.239 236 245 236C247.761 236 250 238.239 250 241Z" fill="#F3F0E9"/>
<path d="M290 241C290 243.761 287.761 246 285 246C282.239 246 280 243.761 280 241C280 238.239 282.239 236 285 236C287.761 236 290 238.239 290 241Z" fill="#F3F0E9"/>
<path d="M10 277C10 279.761 7.76142 282 5 282C2.23858 282 0 279.761 0 277C0 274.239 2.23858 272 5 272C7.76142 272 10 274.239 10 277Z" fill="#F3F0E9"/>
<path d="M50 277C50 279.761 47.7614 282 45 282C42.2386 282 40 279.761 40 277C40 274.239 42.2386 272 45 272C47.7614 272 50 274.239 50 277Z" fill="#F3F0E9"/>
<path d="M10 308C10 310.761 7.76142 313 5 313C2.23858 313 0 310.761 0 308C0 305.239 2.23858 303 5 303C7.76142 303 10 305.239 10 308Z" fill="#F3F0E9"/>
<path d="M50 308C50 310.761 47.7614 313 45 313C42.2386 313 40 310.761 40 308C40 305.239 42.2386 303 45 303C47.7614 303 50 305.239 50 308Z" fill="#F3F0E9"/>
<path d="M10 345C10 347.761 7.76142 350 5 350C2.23858 350 0 347.761 0 345C0 342.239 2.23858 340 5 340C7.76142 340 10 342.239 10 345Z" fill="#F3F0E9"/>
<path d="M50 345C50 347.761 47.7614 350 45 350C42.2386 350 40 347.761 40 345C40 342.239 42.2386 340 45 340C47.7614 340 50 342.239 50 345Z" fill="#F3F0E9"/>
<path d="M10 376C10 378.761 7.76142 381 5 381C2.23858 381 0 378.761 0 376C0 373.239 2.23858 371 5 371C7.76142 371 10 373.239 10 376Z" fill="#F3F0E9"/>
<path d="M50 376C50 378.761 47.7614 381 45 381C42.2386 381 40 378.761 40 376C40 373.239 42.2386 371 45 371C47.7614 371 50 373.239 50 376Z" fill="#F3F0E9"/>
<path d="M90 277C90 279.761 87.7614 282 85 282C82.2386 282 80 279.761 80 277C80 274.239 82.2386 272 85 272C87.7614 272 90 274.239 90 277Z" fill="#F3F0E9"/>
<path d="M130 277C130 279.761 127.761 282 125 282C122.239 282 120 279.761 120 277C120 274.239 122.239 272 125 272C127.761 272 130 274.239 130 277Z" fill="#F3F0E9"/>
<path d="M90 308C90 310.761 87.7614 313 85 313C82.2386 313 80 310.761 80 308C80 305.239 82.2386 303 85 303C87.7614 303 90 305.239 90 308Z" fill="#F3F0E9"/>
<path d="M130 308C130 310.761 127.761 313 125 313C122.239 313 120 310.761 120 308C120 305.239 122.239 303 125 303C127.761 303 130 305.239 130 308Z" fill="#F3F0E9"/>
<path d="M90 345C90 347.761 87.7614 350 85 350C82.2386 350 80 347.761 80 345C80 342.239 82.2386 340 85 340C87.7614 340 90 342.239 90 345Z" fill="#F3F0E9"/>
<path d="M130 345C130 347.761 127.761 350 125 350C122.239 350 120 347.761 120 345C120 342.239 122.239 340 125 340C127.761 340 130 342.239 130 345Z" fill="#F3F0E9"/>
<path d="M90 376C90 378.761 87.7614 381 85 381C82.2386 381 80 378.761 80 376C80 373.239 82.2386 371 85 371C87.7614 371 90 373.239 90 376Z" fill="#F3F0E9"/>
<path d="M130 376C130 378.761 127.761 381 125 381C122.239 381 120 378.761 120 376C120 373.239 122.239 371 125 371C127.761 371 130 373.239 130 376Z" fill="#F3F0E9"/>
<path d="M10 414C10 416.761 7.76142 419 5 419C2.23858 419 0 416.761 0 414C0 411.239 2.23858 409 5 409C7.76142 409 10 411.239 10 414Z" fill="#F3F0E9"/>
<path d="M50 414C50 416.761 47.7614 419 45 419C42.2386 419 40 416.761 40 414C40 411.239 42.2386 409 45 409C47.7614 409 50 411.239 50 414Z" fill="#F3F0E9"/>
<path d="M10 445C10 447.761 7.76142 450 5 450C2.23858 450 0 447.761 0 445C0 442.239 2.23858 440 5 440C7.76142 440 10 442.239 10 445Z" fill="#F3F0E9"/>
<path d="M50 445C50 447.761 47.7614 450 45 450C42.2386 450 40 447.761 40 445C40 442.239 42.2386 440 45 440C47.7614 440 50 442.239 50 445Z" fill="#F3F0E9"/>
<path d="M10 482C10 484.761 7.76142 487 5 487C2.23858 487 0 484.761 0 482C0 479.239 2.23858 477 5 477C7.76142 477 10 479.239 10 482Z" fill="#F3F0E9"/>
<path d="M50 482C50 484.761 47.7614 487 45 487C42.2386 487 40 484.761 40 482C40 479.239 42.2386 477 45 477C47.7614 477 50 479.239 50 482Z" fill="#F3F0E9"/>
<path d="M10 513C10 515.761 7.76142 518 5 518C2.23858 518 0 515.761 0 513C0 510.239 2.23858 508 5 508C7.76142 508 10 510.239 10 513Z" fill="#F3F0E9"/>
<path d="M50 513C50 515.761 47.7614 518 45 518C42.2386 518 40 515.761 40 513C40 510.239 42.2386 508 45 508C47.7614 508 50 510.239 50 513Z" fill="#F3F0E9"/>
<path d="M90 414C90 416.761 87.7614 419 85 419C82.2386 419 80 416.761 80 414C80 411.239 82.2386 409 85 409C87.7614 409 90 411.239 90 414Z" fill="#F3F0E9"/>
<path d="M130 414C130 416.761 127.761 419 125 419C122.239 419 120 416.761 120 414C120 411.239 122.239 409 125 409C127.761 409 130 411.239 130 414Z" fill="#F3F0E9"/>
<path d="M90 445C90 447.761 87.7614 450 85 450C82.2386 450 80 447.761 80 445C80 442.239 82.2386 440 85 440C87.7614 440 90 442.239 90 445Z" fill="#F3F0E9"/>
<path d="M130 445C130 447.761 127.761 450 125 450C122.239 450 120 447.761 120 445C120 442.239 122.239 440 125 440C127.761 440 130 442.239 130 445Z" fill="#F3F0E9"/>
<path d="M90 482C90 484.761 87.7614 487 85 487C82.2386 487 80 484.761 80 482C80 479.239 82.2386 477 85 477C87.7614 477 90 479.239 90 482Z" fill="#F3F0E9"/>
<path d="M130 482C130 484.761 127.761 487 125 487C122.239 487 120 484.761 120 482C120 479.239 122.239 477 125 477C127.761 477 130 479.239 130 482Z" fill="#F3F0E9"/>
<path d="M90 513C90 515.761 87.7614 518 85 518C82.2386 518 80 515.761 80 513C80 510.239 82.2386 508 85 508C87.7614 508 90 510.239 90 513Z" fill="#F3F0E9"/>
<path d="M130 513C130 515.761 127.761 518 125 518C122.239 518 120 515.761 120 513C120 510.239 122.239 508 125 508C127.761 508 130 510.239 130 513Z" fill="#F3F0E9"/>
<path d="M170 277C170 279.761 167.761 282 165 282C162.239 282 160 279.761 160 277C160 274.239 162.239 272 165 272C167.761 272 170 274.239 170 277Z" fill="#F3F0E9"/>
<path d="M210 277C210 279.761 207.761 282 205 282C202.239 282 200 279.761 200 277C200 274.239 202.239 272 205 272C207.761 272 210 274.239 210 277Z" fill="#F3F0E9"/>
<path d="M170 308C170 310.761 167.761 313 165 313C162.239 313 160 310.761 160 308C160 305.239 162.239 303 165 303C167.761 303 170 305.239 170 308Z" fill="#F3F0E9"/>
<path d="M210 308C210 310.761 207.761 313 205 313C202.239 313 200 310.761 200 308C200 305.239 202.239 303 205 303C207.761 303 210 305.239 210 308Z" fill="#F3F0E9"/>
<path d="M170 345C170 347.761 167.761 350 165 350C162.239 350 160 347.761 160 345C160 342.239 162.239 340 165 340C167.761 340 170 342.239 170 345Z" fill="#F3F0E9"/>
<path d="M210 345C210 347.761 207.761 350 205 350C202.239 350 200 347.761 200 345C200 342.239 202.239 340 205 340C207.761 340 210 342.239 210 345Z" fill="#F3F0E9"/>
<path d="M170 376C170 378.761 167.761 381 165 381C162.239 381 160 378.761 160 376C160 373.239 162.239 371 165 371C167.761 371 170 373.239 170 376Z" fill="#F3F0E9"/>
<path d="M210 376C210 378.761 207.761 381 205 381C202.239 381 200 378.761 200 376C200 373.239 202.239 371 205 371C207.761 371 210 373.239 210 376Z" fill="#F3F0E9"/>
<path d="M250 277C250 279.761 247.761 282 245 282C242.239 282 240 279.761 240 277C240 274.239 242.239 272 245 272C247.761 272 250 274.239 250 277Z" fill="#F3F0E9"/>
<path d="M290 277C290 279.761 287.761 282 285 282C282.239 282 280 279.761 280 277C280 274.239 282.239 272 285 272C287.761 272 290 274.239 290 277Z" fill="#F3F0E9"/>
<path d="M250 308C250 310.761 247.761 313 245 313C242.239 313 240 310.761 240 308C240 305.239 242.239 303 245 303C247.761 303 250 305.239 250 308Z" fill="#F3F0E9"/>
<path d="M290 308C290 310.761 287.761 313 285 313C282.239 313 280 310.761 280 308C280 305.239 282.239 303 285 303C287.761 303 290 305.239 290 308Z" fill="#F3F0E9"/>
<path d="M250 345C250 347.761 247.761 350 245 350C242.239 350 240 347.761 240 345C240 342.239 242.239 340 245 340C247.761 340 250 342.239 250 345Z" fill="#F3F0E9"/>
<path d="M290 345C290 347.761 287.761 350 285 350C282.239 350 280 347.761 280 345C280 342.239 282.239 340 285 340C287.761 340 290 342.239 290 345Z" fill="#F3F0E9"/>
<path d="M250 376C250 378.761 247.761 381 245 381C242.239 381 240 378.761 240 376C240 373.239 242.239 371 245 371C247.761 371 250 373.239 250 376Z" fill="#F3F0E9"/>
<path d="M290 376C290 378.761 287.761 381 285 381C282.239 381 280 378.761 280 376C280 373.239 282.239 371 285 371C287.761 371 290 373.239 290 376Z" fill="#F3F0E9"/>
<path d="M170 414C170 416.761 167.761 419 165 419C162.239 419 160 416.761 160 414C160 411.239 162.239 409 165 409C167.761 409 170 411.239 170 414Z" fill="#F3F0E9"/>
<path d="M210 414C210 416.761 207.761 419 205 419C202.239 419 200 416.761 200 414C200 411.239 202.239 409 205 409C207.761 409 210 411.239 210 414Z" fill="#F3F0E9"/>
<path d="M170 445C170 447.761 167.761 450 165 450C162.239 450 160 447.761 160 445C160 442.239 162.239 440 165 440C167.761 440 170 442.239 170 445Z" fill="#F3F0E9"/>
<path d="M210 445C210 447.761 207.761 450 205 450C202.239 450 200 447.761 200 445C200 442.239 202.239 440 205 440C207.761 440 210 442.239 210 445Z" fill="#F3F0E9"/>
<path d="M170 482C170 484.761 167.761 487 165 487C162.239 487 160 484.761 160 482C160 479.239 162.239 477 165 477C167.761 477 170 479.239 170 482Z" fill="#F3F0E9"/>
<path d="M210 482C210 484.761 207.761 487 205 487C202.239 487 200 484.761 200 482C200 479.239 202.239 477 205 477C207.761 477 210 479.239 210 482Z" fill="#F3F0E9"/>
<path d="M170 513C170 515.761 167.761 518 165 518C162.239 518 160 515.761 160 513C160 510.239 162.239 508 165 508C167.761 508 170 510.239 170 513Z" fill="#F3F0E9"/>
<path d="M210 513C210 515.761 207.761 518 205 518C202.239 518 200 515.761 200 513C200 510.239 202.239 508 205 508C207.761 508 210 510.239 210 513Z" fill="#F3F0E9"/>
<path d="M250 414C250 416.761 247.761 419 245 419C242.239 419 240 416.761 240 414C240 411.239 242.239 409 245 409C247.761 409 250 411.239 250 414Z" fill="#F3F0E9"/>
<path d="M290 414C290 416.761 287.761 419 285 419C282.239 419 280 416.761 280 414C280 411.239 282.239 409 285 409C287.761 409 290 411.239 290 414Z" fill="#F3F0E9"/>
<path d="M250 445C250 447.761 247.761 450 245 450C242.239 450 240 447.761 240 445C240 442.239 242.239 440 245 440C247.761 440 250 442.239 250 445Z" fill="#F3F0E9"/>
<path d="M290 445C290 447.761 287.761 450 285 450C282.239 450 280 447.761 280 445C280 442.239 282.239 440 285 440C287.761 440 290 442.239 290 445Z" fill="#F3F0E9"/>
<path d="M250 482C250 484.761 247.761 487 245 487C242.239 487 240 484.761 240 482C240 479.239 242.239 477 245 477C247.761 477 250 479.239 250 482Z" fill="#F3F0E9"/>
<path d="M290 482C290 484.761 287.761 487 285 487C282.239 487 280 484.761 280 482C280 479.239 282.239 477 285 477C287.761 477 290 479.239 290 482Z" fill="#F3F0E9"/>
<path d="M250 513C250 515.761 247.761 518 245 518C242.239 518 240 515.761 240 513C240 510.239 242.239 508 245 508C247.761 508 250 510.239 250 513Z" fill="#F3F0E9"/>
<path d="M290 513C290 515.761 287.761 518 285 518C282.239 518 280 515.761 280 513C280 510.239 282.239 508 285 508C287.761 508 290 510.239 290 513Z" fill="#F3F0E9"/>
</svg>
