<svg width="50" height="44" viewBox="0 0 50 44" fill="none" xmlns="http://www.w3.org/2000/svg">
<path d="M12.1101 9.88086C11.8659 9.88086 11.668 10.0788 11.668 10.323V13.1334H20.9077V10.3229C20.9077 10.0787 20.7099 9.88086 20.4657 9.88086H12.1101Z" fill="#979797"/>
<path d="M29.5344 9.88086C29.2902 9.88086 29.0923 10.0788 29.0923 10.323V13.1334H38.332V10.323C38.332 10.0788 38.1342 9.88096 37.89 9.88096H29.5344V9.88086Z" fill="#979797"/>
<path d="M8.70913 13.104V10.3225C8.70913 8.44717 10.2348 6.92148 12.1101 6.92148H20.4658C22.3411 6.92148 23.8667 8.44717 23.8667 10.3225V13.104H26.1334V10.3225C26.1334 8.44717 27.6591 6.92148 29.5344 6.92148H37.8901C39.7654 6.92148 41.2911 8.44717 41.2911 10.3225V13.104H43.646C44.1054 13.104 44.5541 13.1506 44.9878 13.2389V4.16309C44.9878 2.21016 43.4046 0.626953 41.4518 0.626953H8.54849C6.59556 0.626953 5.01245 2.21016 5.01245 4.16309V13.2389C5.44614 13.1507 5.89487 13.104 6.35425 13.104H8.70913Z" fill="#979797"/>
<path d="M48.1667 22.2744H1.8333C0.820801 22.2744 0 23.0952 0 24.1077V36.1238C0 37.1363 0.820801 37.9571 1.8333 37.9571H48.1667C49.1792 37.9571 50 37.1363 50 36.1238V24.1077C50 23.0952 49.1792 22.2744 48.1667 22.2744Z" fill="#979797"/>
<path d="M43.6459 16.0625H6.35405C4.44937 16.0625 2.87632 17.4785 2.62769 19.315H47.3723C47.1237 17.4785 45.5506 16.0625 43.6459 16.0625Z" fill="#979797"/>
<path d="M1.83228 40.916V41.8935C1.83228 42.7105 2.49468 43.3729 3.31177 43.3729C4.12886 43.3729 4.79126 42.7105 4.79126 41.8935V40.9161H1.83335C1.83296 40.916 1.83267 40.916 1.83228 40.916Z" fill="#979797"/>
<path d="M45.2087 40.9161V41.8935C45.2087 42.7105 45.8711 43.373 46.6882 43.373C47.5053 43.373 48.1677 42.7105 48.1677 41.8935V40.916C48.1673 40.916 48.167 40.916 48.1667 40.916H45.2087V40.9161Z" fill="#979797"/>
</svg>
