<svg width="32" height="32" viewBox="0 0 32 32" fill="none" xmlns="http://www.w3.org/2000/svg">
<path d="M28 6C28.3958 5.95833 28.7656 5.9375 29.1094 5.9375C29.4531 5.9375 29.8958 5.94792 30.4375 5.96875C30.9792 5.98958 31.5 6 32 6C32 6.33333 31.9323 6.64062 31.7969 6.92188C31.6615 7.20312 31.4583 7.4375 31.1875 7.625C30.9167 7.8125 30.6615 7.96875 30.4219 8.09375C30.1823 8.21875 29.8594 8.33333 29.4531 8.4375C29.0469 8.54167 28.7552 8.60938 28.5781 8.64062C28.401 8.67188 28.125 8.71875 27.75 8.78125C27.6042 9.32292 27.276 10.1823 26.7656 11.3594C26.2552 12.5365 26 13.4167 26 14C26 14.3542 26.1354 14.75 26.4062 15.1875C26.6771 15.625 27.0104 16.0781 27.4062 16.5469C27.8021 17.0156 28.1979 17.5052 28.5938 18.0156C28.9896 18.526 29.3229 19.1302 29.5938 19.8281C29.8646 20.526 30 21.25 30 22C30 23.9583 29.3906 25.7031 28.1719 27.2344C26.9531 28.7656 25.2812 29.9427 23.1562 30.7656C21.0312 31.5885 18.6458 32 16 32C14.375 32 12.7969 31.7656 11.2656 31.2969C9.73438 30.8281 8.28646 30.099 6.92188 29.1094C5.55729 28.1198 4.35938 26.9271 3.32812 25.5312C2.29688 24.1354 1.48438 22.4479 0.890625 20.4688C0.296875 18.4896 0 16.3333 0 14C0 14.8958 0.411458 15.651 1.23438 16.2656C2.05729 16.8802 3.13021 17.3229 4.45312 17.5938C5.77604 17.8646 7.29167 18 9 18C9.97917 18 11.1875 17.776 12.625 17.3281C14.0625 16.8802 15.3177 16.3385 16.3906 15.7031C17.4635 15.0677 18 14.5 18 14C18 13.5625 17.7917 13.0573 17.375 12.4844C16.9583 11.9115 16.5 11.375 16 10.875C15.5 10.375 15.0417 9.77083 14.625 9.0625C14.2083 8.35417 14 7.66667 14 7C14 5.0625 14.6823 3.41146 16.0469 2.04688C17.4115 0.682292 19.0625 0 21 0C22.3333 0 23.5573 0.354167 24.6719 1.0625C25.7865 1.77083 26.6354 2.69792 27.2188 3.84375C28.0104 3.67708 28.8646 3.41146 29.7812 3.04688C30.6979 2.68229 31.4375 2.33333 32 2C32 2.3125 31.9271 2.625 31.7812 2.9375C31.6354 3.25 31.4688 3.51562 31.2812 3.73438C31.0938 3.95312 30.8281 4.19271 30.4844 4.45312C30.1406 4.71354 29.8646 4.90625 29.6562 5.03125C29.4479 5.15625 29.1458 5.33333 28.75 5.5625C28.3542 5.79167 28.1042 5.9375 28 6ZM23 4C22.7292 4 22.4948 4.19792 22.2969 4.59375C22.099 4.98958 22 5.46354 22 6.01562C22 6.56771 22.099 7.03646 22.2969 7.42188C22.4948 7.80729 22.7292 8 23 8C23.2708 8 23.5052 7.80729 23.7031 7.42188C23.901 7.03646 24 6.56771 24 6.01562C24 5.46354 23.901 4.98958 23.7031 4.59375C23.5052 4.19792 23.2708 4 23 4Z" fill="#A2792C"/>
</svg>
