<svg width="24" height="24" viewBox="0 0 24 24" fill="none" xmlns="http://www.w3.org/2000/svg">
<g clip-path="url(#clip0)">
<path d="M17.3231 2.09312H16.4409L16.4217 2.08012C15.7013 1.58262 14.2993 0.616191 12.3794 0.892497C12.3825 0.896892 12.384 0.902019 12.3869 0.906413C10.9629 1.14225 9.36825 2.25261 8.83615 3.75023C8.3229 5.1931 8.72006 6.92857 10.0179 8.90996L12.0026 11.9426C15.0037 10.442 14.8964 8.15611 14.8325 6.79033C14.823 6.58909 14.8167 6.44353 14.8167 6.31425C14.8167 5.92534 15.1315 5.61076 15.5202 5.61076C15.9091 5.61076 16.2237 5.92534 16.2237 6.31425C16.2237 6.42357 16.2299 6.54716 16.2362 6.6812C16.3076 8.20647 16.4519 11.2911 12.6319 13.201C12.3935 13.3204 11.998 13.5557 11.7574 13.5557C11.5265 13.5557 11.3018 13.4424 11.168 13.2377L8.84036 9.68083C7.28964 7.31181 6.84176 5.15794 7.5101 3.27891C7.65896 2.86052 7.86404 2.50053 8.08779 2.166C3.56307 2.71275 0.00514909 6.57683 0.00331802 11.3405C-0.0133446 12.0497 -0.0279931 14.2076 1.8525 16.9791C2.5093 17.9479 2.85702 19.1584 2.85702 20.4802V22.4953C2.85702 22.8842 3.17159 23.1988 3.56051 23.1988H6.37448C6.76339 23.1988 7.06863 22.8842 7.06863 22.4953V18.9777H9.89212V22.4953C9.89212 22.8842 10.2069 23.1988 10.5958 23.1988H13.4098C13.7987 23.1988 14.1039 22.8842 14.1039 22.4953C14.1039 19.767 14.6719 17.3233 15.822 15.0239L16.6211 13.4257L17.9786 13.6518C19.0002 13.8221 19.7415 14.6974 19.7415 15.7336V16.8672C19.7415 17.4436 18.9507 17.7734 18.5406 17.3645C18.2659 17.0897 17.8206 17.0897 17.5457 17.3645L15.5574 19.3528C15.2827 19.6277 15.2827 20.0728 15.5574 20.3476C16.7481 21.5397 18.4457 22.026 20.0946 21.6482C22.1915 21.168 24.0002 18.8389 24.0002 16.5627V8.73253C24.0002 5.07133 20.9845 2.09312 17.3231 2.09312ZM19.0381 9.1284C18.6497 9.1284 18.3346 8.81328 18.3346 8.42473C18.3346 8.03618 18.6497 7.72124 19.0381 7.72124C19.4266 7.72124 19.7417 8.03618 19.7417 8.42473C19.7417 8.81328 19.4266 9.1284 19.0381 9.1284Z" fill="#A2792C"/>
</g>
<defs>
<clipPath id="clip0">
<rect width="24" height="24" fill="white"/>
</clipPath>
</defs>
</svg>
