<svg width="50" height="50" viewBox="0 0 50 50" fill="none" xmlns="http://www.w3.org/2000/svg">
<path d="M40 2.74993L10 14.7499C7.25 15.7499 5 19.2499 5 22.2499V43.9999C5 46.9999 7.25 48.4999 10 47.4999L40 35.4999C42.75 34.4999 45 30.9999 45 27.9999V6.24993C45 3.24993 42.75 1.74993 40 2.74993ZM41.5 9.24993L26.5 32.4999L9.75 21.2499C9.5 20.9999 8.75 20.2499 9.25 19.4999C9.75 18.4999 11 18.9999 11 18.9999L26.75 24.7499C26.75 24.7499 38.75 8.99993 39.5 7.99993C39.75 7.49993 40.5 7.24993 41.25 7.74993C42 8.24993 41.75 8.99993 41.5 9.24993Z" fill="#A2792C"/>
</svg>
