<svg width="32" height="32" viewBox="0 0 32 32" fill="none" xmlns="http://www.w3.org/2000/svg">
<path d="M30.994 17.5C31.037 14.294 26.7955 11.9895 25.8905 8.0595C24.75 3.102 19.8045 1 16 1C12.1955 1 7.2515 3.102 6.11 8.0595C5.2045 11.9895 0.963 14.294 1.0055 17.5L1 17.4995C1 17.4995 1 20.618 3.1255 23.364L3.5635 22.381C3.5635 22.381 3.626 23.898 4.9075 25.6195L5.314 24.1035C5.314 24.1035 5.3755 26.3995 7.3755 28.5725C7.3755 28.5725 7.5465 27.0635 7.7515 26.5215C7.7515 26.5215 8.876 28.8995 11.5 30.4995C11.5 30.4995 11.156 29.86 11.4945 29.1305C13.198 30.256 14.7985 31 16 31C17.2015 31 18.802 30.256 20.5055 29.131C20.844 29.8605 20.5 30.5 20.5 30.5C23.124 28.9 24.249 26.522 24.249 26.522C24.454 27.064 24.626 28.573 24.626 28.573C26.625 26.3995 26.6875 24.104 26.6875 24.104L27.094 25.62C28.3755 23.899 28.437 22.3815 28.437 22.3815L28.8755 23.3645C31 20.618 31 17.4995 31 17.4995L30.994 17.5ZM10.7195 7.9455C12.278 7.276 13.9285 8.541 16 8.541C18.0725 8.541 19.7215 7.276 21.2815 7.9455C23.02 8.6925 21.2815 7.9455 19.476 8.5615C17.6715 9.1775 16.9165 9.251 16.0005 9.251C15.0855 9.251 14.3295 9.178 12.525 8.5615C10.7205 7.945 8.9815 8.6925 10.7195 7.9455ZM8.0775 9.2605C10.416 8.37 12.8925 10.0555 16 10.0555C19.1085 10.0555 21.584 8.37 23.923 9.2605C26.5295 10.2545 23.923 9.2605 21.214 10.082C18.507 10.9035 17.372 10.9995 16 10.9995C14.628 10.9995 13.493 10.9035 10.786 10.082C8.0775 9.2605 5.471 10.255 8.0775 9.2605ZM21.25 18.4995C20.0975 18.1695 19.4015 18.0895 19.0205 18.1815C19.342 18.5585 19.804 18.947 20.58 19.2185C22.774 19.986 22.126 21.7535 20.6525 21.9765C20.7035 22.072 20.748 22.1645 20.7815 22.2495C21.4005 23.8485 22 28.5005 16 28.5005C10 28.5005 10.5995 23.8485 11.2185 22.2495C11.251 22.165 11.2955 22.073 11.346 21.9765C9.875 21.7525 9.228 19.986 11.4205 19.2185C12.2815 18.9165 12.7595 18.471 13.0835 18.0575C12.73 17.9405 12.015 18.047 10.7495 18.4995C6.784 19.9185 2.734 14.8445 6.25 12.501C9.765 10.157 13.562 13.001 15.9995 13.001C18.437 13.001 22.235 10.157 25.7495 12.501C29.2655 14.8445 25.385 19.686 21.25 18.4995Z" fill="#A2792C"/>
<path d="M12.9499 21.2736C14.5954 21.2171 14.3134 19.5056 14.2524 18.7256C14.2524 18.7256 13.9889 19.7371 12.8334 19.7766C11.1014 19.8371 11.4999 21.3256 12.9499 21.2736Z" fill="#A2792C"/>
<path d="M17.747 18.7256C17.6865 19.5056 17.404 21.2166 19.0495 21.2736C20.4995 21.3256 20.899 19.8371 19.1665 19.7766C18.0115 19.7376 17.747 18.7256 17.747 18.7256Z" fill="#A2792C"/>
<path d="M15.9999 24.751C18.38 24.751 20.3094 24.639 20.3094 24.501C20.3094 24.3629 18.38 24.251 15.9999 24.251C13.6199 24.251 11.6904 24.3629 11.6904 24.501C11.6904 24.639 13.6199 24.751 15.9999 24.751Z" fill="#A2792C"/>
<path d="M16 13.9385C10.616 13.9385 6.25049 14.106 6.25049 14.3115C6.25049 14.4035 7.10649 14.4875 8.52399 14.552C8.70049 15.9905 9.96399 17.1085 11.5 17.1085C12.99 17.1085 14.223 16.0565 14.4575 14.6815C15.4861 14.6886 16.5148 14.6886 17.5435 14.6815C17.7775 16.0565 19.011 17.1085 20.5 17.1085C22.0365 17.1085 23.301 15.99 23.477 14.552C24.8945 14.487 25.75 14.403 25.75 14.3115C25.75 14.106 21.384 13.9385 16 13.9385ZM11.5 15.8395C10.75 15.8395 10.133 15.305 10.0225 14.6075C10.8995 14.634 11.892 14.655 12.9705 14.668C12.836 15.336 12.2295 15.8395 11.5 15.8395ZM20.5 15.8395C19.7705 15.8395 19.164 15.336 19.0295 14.668C20.1075 14.655 21.1005 14.634 21.977 14.6075C21.8665 15.3045 21.251 15.8395 20.5 15.8395Z" fill="#A2792C"/>
</svg>
