<svg width="85" height="91" viewBox="0 0 85 91" fill="none" xmlns="http://www.w3.org/2000/svg">
<path d="M49.3319 64.0907C49.6273 63.4034 49.7915 62.6468 49.7915 61.8525C49.7915 58.716 47.2398 56.1641 44.1031 56.1641H41.6817H35.9503L38.6664 51.5949C39.4659 50.2502 39.6692 48.6187 39.2245 47.1188C38.7797 45.6191 37.7196 44.3624 36.3168 43.6712C34.7378 42.893 32.8575 42.9033 31.2871 43.6982C26.787 45.9765 22.692 49.091 19.2715 52.8088C18.9672 52.266 18.3873 51.8985 17.7208 51.8985H2.08017C1.09872 51.8985 0.302826 52.6944 0.302826 53.6758V63.4512C0.302826 64.4327 1.09872 65.2286 2.08017 65.2286C3.06162 65.2286 3.85751 64.4327 3.85751 63.4512V55.4532H15.9435V87.4454H3.85751V79.4473C3.85751 78.4659 3.06162 77.67 2.08017 77.67C1.09872 77.67 0.302826 78.4659 0.302826 79.4473V89.2227C0.302826 90.2041 1.09872 91 2.08017 91H17.7208C18.7022 91 19.4981 90.2041 19.4981 89.2227V89.1589C21.6121 90.3478 24.0201 91 26.4653 91H42.8702C46.0049 91 48.5549 88.4497 48.5549 85.3152C48.5549 84.5621 48.4065 83.8436 48.1393 83.1852H48.25C51.3867 83.1852 53.9386 80.6335 53.9386 77.4968C53.9386 75.9827 53.3428 74.6062 52.3749 73.5858C53.3428 72.5654 53.9386 71.1887 53.9386 69.6746C53.9384 66.908 51.9528 64.5974 49.3319 64.0907ZM48.2499 79.6304H36.6525C35.6711 79.6304 34.8752 80.4263 34.8752 81.4077C34.8752 82.3892 35.6711 83.1851 36.6525 83.1851H42.8699C44.0443 83.1851 44.9998 84.1406 44.9998 85.315C44.9998 86.4895 44.0445 87.4454 42.87 87.4454H26.4651C23.9152 87.4454 21.4187 86.5016 19.498 84.8383V58.0755L19.6194 57.9162C23.1328 53.3068 27.7226 49.4872 32.8929 46.8697C33.4711 46.5768 34.1634 46.5728 34.7454 46.8597C35.2699 47.118 35.6503 47.5691 35.8165 48.1296C35.9828 48.6902 35.9096 49.2757 35.611 49.7783L31.2983 57.0332C30.9716 57.5824 30.9652 58.2647 31.281 58.8202C31.5971 59.3758 32.187 59.7188 32.8259 59.7188H44.103C45.2794 59.7188 46.2367 60.6761 46.2367 61.8525C46.2367 63.0289 45.2794 63.9862 44.103 63.9862H36.6525C35.6711 63.9862 34.8752 64.7821 34.8752 65.7635C34.8752 66.745 35.6711 67.5409 36.6525 67.5409H48.2499C49.4265 67.5409 50.3838 68.4982 50.3838 69.6746C50.3838 70.8512 49.4265 71.8085 48.2499 71.8085H36.6525C35.6711 71.8085 34.8752 72.6044 34.8752 73.5858C34.8752 74.5673 35.6711 75.3631 36.6525 75.3631H48.2499C49.4265 75.3631 50.3838 76.3204 50.3838 77.4968C50.3838 78.6733 49.4267 79.6304 48.2499 79.6304Z" fill="#A2792C"/>
<path d="M58.4325 21.9922L50.8068 20.8844L47.3964 13.9741C47.0969 13.3675 46.4791 12.9834 45.8025 12.9834C45.1258 12.9834 44.508 13.3675 44.2086 13.9741L40.7982 20.8844L33.1725 21.9922C32.5028 22.0896 31.9468 22.5587 31.7376 23.2021C31.5286 23.8455 31.703 24.5518 32.1873 25.024L37.7054 30.4028L36.4028 37.9977C36.2884 38.6646 36.5626 39.3384 37.11 39.736C37.6574 40.1336 38.3831 40.1858 38.9817 39.8714L45.8025 36.2854L52.6232 39.8714C52.8832 40.0083 53.1673 40.0754 53.45 40.0754C53.8185 40.0754 54.1853 39.9608 54.4949 39.736C55.0422 39.3384 55.3164 38.6646 55.2021 37.9977L53.8995 30.4028L59.4176 25.024C59.9021 24.5518 60.0763 23.8455 59.8673 23.2021C59.6583 22.5587 59.1022 22.0896 58.4325 21.9922ZM50.7492 28.5094C50.3304 28.9178 50.1392 29.5059 50.238 30.0827L51.0899 35.0491L46.6297 32.7043C46.3709 32.5681 46.0867 32.5002 45.8027 32.5002C45.5186 32.5002 45.2344 32.5683 44.9757 32.7043L40.5154 35.0491L41.3673 30.0827C41.4661 29.5061 41.2749 28.9178 40.8561 28.5094L37.2478 24.9922L42.2343 24.2678C42.8133 24.1835 43.3137 23.8199 43.5726 23.2954L45.8027 18.7766L48.0327 23.2954C48.2916 23.8199 48.792 24.1835 49.371 24.2678L54.3575 24.9922L50.7492 28.5094Z" fill="#333333"/>
<path d="M84.6104 26.2361C84.4012 25.5927 83.8451 25.1237 83.1755 25.0263L77.3332 24.1776L74.7206 18.8833C74.4211 18.2767 73.8033 17.8926 73.1266 17.8926C72.45 17.8926 71.8322 18.2767 71.5327 18.8833L68.92 24.1776L63.0777 25.0263C62.408 25.1237 61.8521 25.5927 61.6429 26.2361C61.4338 26.8795 61.6082 27.5859 62.0925 28.0581L66.3201 32.179L65.3221 37.9977C65.2077 38.6646 65.4819 39.3384 66.0293 39.736C66.5768 40.1339 67.3025 40.1858 67.9011 39.8714L73.1266 37.1241L78.3522 39.8714C78.6122 40.0081 78.8962 40.0754 79.179 40.0754C79.5475 40.0754 79.9143 39.9608 80.2239 39.736C80.7712 39.3384 81.0454 38.6646 80.9311 37.9977L79.9331 32.179L84.1607 28.0581C84.6451 27.5859 84.8192 26.8795 84.6104 26.2361ZM76.7826 30.2856C76.3639 30.6941 76.1726 31.2822 76.2715 31.8589L76.8187 35.0491L73.9536 33.5428C73.6947 33.4067 73.4106 33.3388 73.1266 33.3388C72.8426 33.3388 72.5586 33.4068 72.2996 33.5428L69.4346 35.0491L69.9818 31.8589C70.0806 31.2824 69.8894 30.6941 69.4706 30.2856L67.1526 28.0263L70.3558 27.561C70.9348 27.4767 71.4351 27.1131 71.6941 26.5886L73.1266 23.6858L74.5592 26.5886C74.8181 27.1131 75.3185 27.4767 75.8975 27.561L79.1006 28.0263L76.7826 30.2856Z" fill="#333333"/>
<path d="M11.6723 32.179L10.6743 37.9977C10.5599 38.6646 10.8341 39.3384 11.3815 39.736C11.9289 40.1339 12.6545 40.1858 13.2532 39.8714L18.4788 37.1241L23.7044 39.8714C23.9644 40.0081 24.2484 40.0754 24.5312 40.0754C24.8996 40.0754 25.2665 39.9608 25.5761 39.736C26.1233 39.3384 26.3976 38.6646 26.2833 37.9977L25.2853 32.179L29.5129 28.0581C29.9974 27.5859 30.1716 26.8795 29.9626 26.2361C29.7534 25.5927 29.1973 25.1237 28.5277 25.0263L22.6854 24.1776L20.0727 18.8833C19.7732 18.2767 19.1554 17.8926 18.4788 17.8926C17.8022 17.8926 17.1844 18.2767 16.8849 18.8833L14.2722 24.1776L8.42988 25.0263C7.76018 25.1237 7.20423 25.5927 6.99504 26.2361C6.78602 26.8795 6.96038 27.5859 7.4447 28.0581L11.6723 32.179ZM15.7079 27.561C16.287 27.4767 16.7873 27.1131 17.0463 26.5886L18.4788 23.6858L19.9113 26.5886C20.1703 27.1131 20.6706 27.4767 21.2497 27.561L24.4528 28.0263L22.1348 30.2856C21.7161 30.6941 21.5248 31.2822 21.6236 31.8589L22.1709 35.0491L19.3058 33.5428C19.0468 33.4067 18.7628 33.3388 18.4788 33.3388C18.1948 33.3388 17.9108 33.4068 17.6518 33.5428L14.7867 35.0491L15.334 31.8589C15.4328 31.2824 15.2416 30.6941 14.8228 30.2856L12.5048 28.0263L15.7079 27.561Z" fill="#333333"/>
<path d="M45.7838 8.80123C46.7653 8.80123 47.5612 8.00533 47.5612 7.02388V1.77734C47.5612 0.795895 46.7653 0 45.7838 0C44.8024 0 44.0065 0.795895 44.0065 1.77734V7.02388C44.0065 8.00533 44.8024 8.80123 45.7838 8.80123Z" fill="#A2792C"/>
<path d="M32.6733 12.6316C33.0204 12.9786 33.4752 13.1522 33.93 13.1522C34.3848 13.1522 34.8397 12.9786 35.1868 12.6316C35.8808 11.9376 35.8808 10.8122 35.1868 10.1179L32.1081 7.03921C31.4138 6.34533 30.2888 6.34533 29.5944 7.03921C28.9003 7.73326 28.9003 8.85867 29.5944 9.5529L32.6733 12.6316Z" fill="#A2792C"/>
<path d="M57.6753 13.1524C58.1301 13.1524 58.585 12.9787 58.9321 12.6318L62.011 9.55308C62.705 8.85903 62.705 7.73379 62.011 7.03938C61.3169 6.34569 60.1918 6.34551 59.4973 7.03938L56.4184 10.1183C55.7243 10.8123 55.7243 11.9376 56.4184 12.632C56.7657 12.9787 57.2203 13.1524 57.6753 13.1524Z" fill="#A2792C"/>
<path d="M3.3373 72.7056C3.66789 72.3752 3.85806 71.9167 3.85806 71.4492C3.85806 70.9818 3.66806 70.5232 3.3373 70.1926C3.00494 69.862 2.54816 69.6719 2.08072 69.6719C1.61328 69.6719 1.15472 69.8619 0.82236 70.1926C0.491951 70.5232 0.303375 70.9818 0.303375 71.4492C0.303375 71.9167 0.491951 72.3752 0.82236 72.7056C1.15472 73.0362 1.6115 73.2266 2.08072 73.2266C2.54816 73.2266 3.00671 73.0364 3.3373 72.7056Z" fill="black"/>
</svg>
