<svg width="33" height="52" viewBox="0 0 33 52" fill="none" xmlns="http://www.w3.org/2000/svg">
<g clip-path="url(#clip0)">
<path d="M16.1492 14.3114C18.1364 14.3114 19.7486 12.674 19.7486 10.6557C19.7486 8.63746 18.1364 7 16.1492 7C14.162 7 12.5498 8.63746 12.5498 10.6557C12.5498 12.674 14.162 14.3114 16.1492 14.3114ZM23.2355 25.667L21.4883 24.7683L20.7609 22.5292C19.6586 19.1324 16.5841 16.7562 13.0972 16.7486C10.3977 16.741 8.90543 17.5178 6.1009 18.6678C4.48117 19.3304 3.1539 20.5871 2.37403 22.1864L1.87161 23.2222C1.28671 24.4256 1.75913 25.8879 2.93643 26.4895C4.10624 27.0912 5.531 26.6038 6.1234 25.4004L6.62581 24.3646C6.88827 23.8315 7.32319 23.4126 7.8631 23.1918L9.87276 22.3692L8.73295 26.9922C8.34302 28.5763 8.76295 30.2595 9.85027 31.4704L14.342 36.4513C14.8819 37.053 15.2644 37.7765 15.4593 38.561L16.8316 44.1436C17.154 45.4459 18.4588 46.2456 19.7411 45.9181C21.0234 45.5906 21.8107 44.2654 21.4883 42.9631L19.8236 36.1848C19.6286 35.4003 19.2462 34.6692 18.7063 34.0751L15.2943 30.2899L16.5841 25.0577L16.9966 26.3144C17.394 27.5405 18.2488 28.5535 19.3737 29.1323L21.1209 30.031C22.2907 30.6327 23.7154 30.1452 24.3078 28.9419C24.8852 27.7462 24.4128 26.2687 23.2355 25.667ZM6.0709 36.3828C5.83094 36.9997 5.47101 37.5557 5.00608 38.0203L1.25672 41.8359C0.319376 42.7879 0.319376 44.334 1.25672 45.286C2.19406 46.238 3.7088 46.238 4.64614 45.286L9.10039 40.762C9.55782 40.2975 9.91776 39.7415 10.1652 39.1246L11.1775 36.5504C7.03074 31.9579 8.27553 33.3668 7.62314 32.4605L6.0709 36.3828Z" fill="#A2792C"/>
</g>
<defs>
<clipPath id="clip0">
<rect width="32" height="52" fill="white" transform="translate(0.553711)"/>
</clipPath>
</defs>
</svg>
