<svg width="32" height="32" viewBox="0 0 32 32" fill="none" xmlns="http://www.w3.org/2000/svg">
<path d="M11.3125 4.75C11.3125 2.16544 9.20956 0 6.625 0C4.04044 0 1.9375 2.16544 1.9375 4.75C1.9375 7.33456 4.04044 9.4375 6.625 9.4375C9.20956 9.4375 11.3125 7.33456 11.3125 4.75Z" fill="#A2792C"/>
<path d="M30.0625 4.75C30.0625 2.16544 27.9596 0 25.375 0C22.7904 0 20.6875 2.16544 20.6875 4.75C20.6875 7.33456 22.7904 9.4375 25.375 9.4375C27.9596 9.4375 30.0625 7.33456 30.0625 4.75Z" fill="#A2792C"/>
<path d="M16 13.1875C18.0711 13.1875 19.75 11.5086 19.75 9.4375C19.75 7.36643 18.0711 5.6875 16 5.6875C13.9289 5.6875 12.25 7.36643 12.25 9.4375C12.25 11.5086 13.9289 13.1875 16 13.1875Z" fill="#A2792C"/>
<path d="M14.255 30.5132C14.255 30.5132 15.4397 31.5139 16 32C16.5603 31.5147 17.7459 30.5123 17.7459 30.5123C20.6124 28.0953 22.5058 26.4352 22.5058 24.2122C22.5058 22.2027 21.1114 20.6875 19.2629 20.6875C18.3337 20.6875 17.4411 21.1133 16.683 21.9198L16 22.6449L15.317 21.9198C14.5589 21.1133 13.6663 20.6875 12.7371 20.6875C10.8886 20.6875 9.49426 22.2027 9.49426 24.2122C9.49426 26.4352 11.3876 28.0953 14.255 30.5132Z" fill="#A2792C"/>
<path d="M25.375 9.4375C23.1359 9.4375 21.146 10.5956 19.9577 12.3442C22.6096 13.7679 24.4375 16.535 24.4375 19.75V22.5625H32V16C32 12.3818 28.9932 9.4375 25.375 9.4375Z" fill="#A2792C"/>
<path d="M7.5625 19.75C7.5625 16.535 9.39038 13.7679 12.0423 12.3442C10.8541 10.5956 8.86413 9.4375 6.625 9.4375C3.00681 9.4375 0 12.3818 0 16V22.5625H7.5625V19.75Z" fill="#A2792C"/>
<path d="M9.4375 19.75V20.086C10.3244 19.2997 11.4615 18.8125 12.7371 18.8125C13.9126 18.8125 15.0259 19.2208 16 20.0018C16.9732 19.2208 18.0874 18.8125 19.2629 18.8125C20.5385 18.8125 21.6756 19.2997 22.5625 20.086V19.75C22.5625 16.1318 19.6182 13.1875 16 13.1875C12.3818 13.1875 9.4375 16.1318 9.4375 19.75Z" fill="#A2792C"/>
</svg>
