<svg width="21" height="20" viewBox="0 0 21 20" fill="none" xmlns="http://www.w3.org/2000/svg">
<g clip-path="url(#clip0)">
<path d="M12.3327 3.33366C12.3327 2.40866 13.0743 1.66699 13.9993 1.66699C14.9243 1.66699 15.666 2.40866 15.666 3.33366C15.666 4.25866 14.9243 5.00033 13.9993 5.00033C13.0743 5.00033 12.3327 4.25866 12.3327 3.33366ZM15.666 18.3337V13.3337H17.7493L15.6327 6.97533C15.5212 6.64342 15.3085 6.35479 15.0245 6.15001C14.7405 5.94523 14.3995 5.8346 14.0493 5.83366H13.9494C13.5989 5.83334 13.2573 5.94349 12.9731 6.14844C12.6888 6.3534 12.4764 6.64273 12.366 6.97533L11.6494 9.12533C12.5493 9.62533 13.166 10.567 13.166 11.667V18.3337H15.666ZM9.41602 9.58366C10.1077 9.58366 10.666 9.02533 10.666 8.33366C10.666 7.64199 10.1077 7.08366 9.41602 7.08366C8.72435 7.08366 8.16602 7.64199 8.16602 8.33366C8.16602 9.02533 8.72435 9.58366 9.41602 9.58366ZM3.58268 5.00033C4.50768 5.00033 5.24935 4.25866 5.24935 3.33366C5.24935 2.40866 4.50768 1.66699 3.58268 1.66699C2.65768 1.66699 1.91602 2.40866 1.91602 3.33366C1.91602 4.25866 2.65768 5.00033 3.58268 5.00033ZM5.24935 18.3337V12.5003H6.49935V7.50033C6.49935 6.58366 5.74935 5.83366 4.83268 5.83366H2.33268C1.41602 5.83366 0.666016 6.58366 0.666016 7.50033V12.5003H1.91602V18.3337H5.24935ZM10.666 18.3337V15.0003H11.4993V11.667C11.4993 10.9837 10.9327 10.417 10.2493 10.417H8.58268C7.89935 10.417 7.33268 10.9837 7.33268 11.667V15.0003H8.16602V18.3337H10.666Z" fill="#E2C022"/>
</g>
<defs>
<clipPath id="clip0">
<rect width="20.3779" height="20" fill="white" transform="translate(0.152344)"/>
</clipPath>
</defs>
</svg>
