<svg width="32" height="32" viewBox="0 0 32 32" fill="none" xmlns="http://www.w3.org/2000/svg">
<path d="M31.0426 28.5468L25.4689 24.9967L24.159 22.4259L23.8348 19.3135C23.7055 18.0718 22.5974 17.1679 21.3552 17.2904L20.3049 17.394L17.8135 24.8546C17.6387 25.3839 17.7672 25.9665 18.1486 26.373L22.3682 30.8715C22.9439 31.4853 23.907 31.5147 24.5194 30.9403C25.1324 30.3653 25.1632 29.4022 24.5882 28.7892L20.9873 24.9503L22.3146 20.9313L22.0305 24.2715L25.4818 27.951C25.7743 28.2628 25.9799 28.6248 26.0996 29.0072L29.4075 31.114C30.1164 31.5656 31.0571 31.3569 31.5086 30.648C31.9601 29.9391 31.7515 28.9983 31.0426 28.5468Z" fill="#A2792C"/>
<path d="M16.8858 26.8179C16.3372 26.233 16.2153 25.3803 16.5427 24.6733C15.8881 24.9432 15.1781 24.9426 14.5363 24.6888C13.1601 24.1442 12.4859 22.5871 13.0305 21.2109L14.1462 18.3916C14.1462 18.3916 9.55143 18.6558 7.43513 18.7979C6.42879 18.8655 5.98646 20.1781 6.3231 21.1289L8.64616 27.6904H1.8263C0.817583 27.6904 0 28.508 0 29.5166C0 30.5253 0.817583 31.3429 1.82623 31.3429H11.2299C12.4902 31.3429 13.3715 30.0941 12.9515 28.9072L12.1001 26.5026C12.5534 26.4323 13.0064 26.3607 13.459 26.2869L14.2269 28.4558C14.5696 29.4242 14.4216 30.5026 13.8319 31.3429H18.7165C19.3661 31.3429 19.9617 30.9979 20.2881 30.4453L16.8858 26.8179Z" fill="#A2792C"/>
<path d="M28.4402 21.6868C30.4062 21.6868 31.9999 20.0931 31.9999 18.1271C31.9999 16.1611 30.4062 14.5674 28.4402 14.5674C26.4742 14.5674 24.8805 16.1611 24.8805 18.1271C24.8805 20.0931 26.4742 21.6868 28.4402 21.6868Z" fill="#A2792C"/>
<path d="M17.212 6.26685C18.7638 6.26685 20.0217 5.00891 20.0217 3.45716C20.0217 1.9054 18.7638 0.647461 17.212 0.647461C15.6603 0.647461 14.4023 1.9054 14.4023 3.45716C14.4023 5.00891 15.6603 6.26685 17.212 6.26685Z" fill="#A2792C"/>
<path d="M20.9755 12.7311L17.6422 11.3642L16.3582 9.09628L17.2205 9.8818L17.2959 9.6331C17.6243 8.55026 17.0046 7.4103 15.9236 7.09266L14.1294 6.56534C13.0444 6.24658 11.9078 6.87541 11.6001 7.962L9.72149 14.5964C9.33548 15.9593 10.4594 17.1762 11.4693 17.1762C11.4707 17.1762 11.4723 17.1762 11.4737 17.1762L15.9475 17.1632L14.1677 21.6609C13.8717 22.409 14.2382 23.2554 14.9863 23.5516C15.7348 23.8477 16.581 23.4809 16.877 22.7329L19.5427 15.8401C19.3332 15.7541 16.0564 14.4105 15.8705 14.3343C15.5314 14.1953 15.0066 14.0558 14.8729 13.4149L14.2453 10.2926L15.7363 12.9262C15.8704 13.1631 16.0803 13.3481 16.3322 13.4513L20.0543 14.9776C20.6747 15.2322 21.3838 14.9351 21.6382 14.315C21.8925 13.6946 21.5959 12.9855 20.9755 12.7311Z" fill="#A2792C"/>
</svg>
