<svg width="35" height="35" viewBox="0 0 35 35" fill="none" xmlns="http://www.w3.org/2000/svg">
<path d="M4.375 5.83333C4.375 5.44656 4.52865 5.07563 4.80214 4.80214C5.07563 4.52865 5.44656 4.375 5.83333 4.375H29.1667C29.5534 4.375 29.9244 4.52865 30.1979 4.80214C30.4714 5.07563 30.625 5.44656 30.625 5.83333V9.60458C30.6249 9.99133 30.4712 10.3622 30.1977 10.6356L20.844 19.9894C20.5704 20.2628 20.4167 20.6337 20.4167 21.0204V24.7917L14.5833 30.625V21.0204C14.5833 20.6337 14.4296 20.2628 14.156 19.9894L4.80229 10.6356C4.52878 10.3622 4.37508 9.99133 4.375 9.60458V5.83333Z" stroke="#333333" stroke-width="2" stroke-linecap="round" stroke-linejoin="round"/>
</svg>
