<svg width="32" height="32" viewBox="0 0 32 32" fill="none" xmlns="http://www.w3.org/2000/svg">
<path d="M25.525 1.85038C24.2323 0.657188 22.5515 0 20.7922 0C19.2923 0 17.8055 0.495625 16.6056 1.3955L16.2788 1.64062L15.9519 1.3955C14.7521 0.495625 13.2653 0 11.7654 0C10.0061 0 8.32532 0.657188 7.03257 1.85038L0.83651 7.56981L1.09488 7.51813L10.5306 5.631C12.5155 5.23406 14.5742 5.61519 16.2788 6.67731C17.9833 5.61512 20.042 5.23413 22.0269 5.631L31.721 7.56981L25.525 1.85038Z" fill="#A2792C"/>
<path d="M10.6539 8.75013H11.7523C13.3847 8.75013 14.945 9.21951 16.2789 10.0944C17.6129 9.21951 19.1731 8.75013 20.8055 8.75013H21.9039C23.0183 8.75013 24.0203 9.23932 24.7077 10.0137C26.0913 9.61932 27.2999 9.18282 28.2684 8.79157L21.6593 7.46982C19.9732 7.13263 18.217 7.53101 16.8414 8.56263C16.5081 8.81263 16.0497 8.81263 15.7164 8.56263C14.3407 7.53088 12.5846 7.13245 10.8985 7.46982L4.28941 8.79157C5.25784 9.18276 6.46647 9.61926 7.85009 10.0137C8.53753 9.23932 9.53941 8.75013 10.6539 8.75013Z" fill="#A2792C"/>
<path d="M6.98732 11.7144C5.83851 11.3749 4.6997 10.9792 3.58714 10.5298L0.849136 9.42383C1.65114 10.4541 3.84195 13.0825 6.90389 15.2925V12.4999C6.90389 12.2305 6.93307 11.9679 6.98732 11.7144Z" fill="#A2792C"/>
<path d="M31.7076 9.42383L28.9706 10.5295C27.8582 10.9789 26.7194 11.3746 25.5704 11.7141C25.6246 11.9675 25.6538 12.2301 25.6538 12.4996V15.2921C28.7105 13.0855 30.901 10.4596 31.7076 9.42383Z" fill="#A2792C"/>
<path d="M15.314 29.2461C15.1625 28.6806 14.8009 28.2086 14.2958 27.917C13.9599 27.7231 13.5866 27.624 13.2078 27.624C13.0172 27.624 12.8251 27.6491 12.6358 27.6999C12.0704 27.8514 11.5984 28.213 11.3068 28.718C11.0153 29.223 10.9381 29.8125 11.0896 30.378C11.2411 30.9435 11.6027 31.4155 12.1078 31.707C12.6128 31.9985 13.2023 32.0757 13.7678 31.9242C14.3332 31.7727 14.8052 31.4111 15.0968 30.9061C15.3883 30.4011 15.4655 29.8115 15.314 29.2461Z" fill="#A2792C"/>
<path d="M9.4262 28.3116C9.28082 28.157 9.11301 28.0236 8.92832 27.917C8.59238 27.7231 8.21895 27.624 7.8402 27.624C7.64957 27.624 7.45757 27.6491 7.26826 27.6998C6.70282 27.8514 6.23082 28.213 5.9392 28.718C5.33595 29.7628 5.69526 31.1037 6.74014 31.707C7.63039 32.2211 8.74726 32.0311 9.42726 31.3106C9.04595 30.3479 9.04507 29.2729 9.4262 28.3116Z" fill="#A2792C"/>
<path d="M4.05852 28.3116C3.91314 28.157 3.74533 28.0238 3.56064 27.9171C3.2247 27.7231 2.85127 27.624 2.47252 27.624C2.28189 27.624 2.08989 27.6491 1.90058 27.6998C1.33514 27.8514 0.863142 28.213 0.571579 28.718C-0.0316706 29.7628 0.327642 31.1037 1.37252 31.707C2.2627 32.2211 3.37958 32.0312 4.05958 31.3106C3.67827 30.348 3.67739 29.273 4.05852 28.3116Z" fill="#A2792C"/>
<path d="M11.612 23.1747C11.107 22.8833 10.5175 22.8062 9.95197 22.9575C9.38654 23.109 8.91453 23.4706 8.62297 23.9756C8.30047 24.5342 8.24554 25.2008 8.45622 25.798C8.95104 25.8744 9.42997 26.042 9.86566 26.2936C10.0978 26.4276 10.3157 26.5845 10.5162 26.7611C11.0938 26.2506 11.8072 25.9155 12.5823 25.7977C12.9263 24.8258 12.539 23.7099 11.612 23.1747Z" fill="#A2792C"/>
<path d="M6.74227 23.5693C6.5969 23.4148 6.42908 23.2814 6.24433 23.1748C5.7394 22.8832 5.14996 22.8063 4.5844 22.9576C4.01896 23.1091 3.54696 23.4706 3.2554 23.9756C2.9329 24.5343 2.87796 25.2008 3.08865 25.7981C3.58346 25.8744 4.06233 26.042 4.49802 26.2936C4.73015 26.4276 4.94815 26.5846 5.14865 26.7612C5.55808 26.3993 6.03558 26.1256 6.55508 25.9549C6.3784 25.1633 6.44052 24.3306 6.74227 23.5693Z" fill="#A2792C"/>
<path d="M1.63244 23.0381C1.87669 22.615 2.18944 22.2468 2.55475 21.9437C1.99644 20.7753 2.00287 19.3602 2.69781 18.1565C2.95668 17.708 2.80306 17.1347 2.35468 16.8758C1.90625 16.6168 1.33287 16.7706 1.07406 17.219C-0.117627 19.283 0.0752482 21.7725 1.362 23.6058C1.43706 23.4113 1.52669 23.2213 1.63244 23.0381Z" fill="#A2792C"/>
<path d="M21.904 10.625H20.8056C19.5169 10.625 18.2684 11.0139 17.2165 11.7262V20.3799C17.2165 21.0331 16.7967 21.5625 16.279 21.5625C15.7612 21.5625 15.3415 21.0331 15.3415 20.3799V11.7262C14.2895 11.0139 13.041 10.625 11.7524 10.625H10.654C9.61843 10.625 8.77899 11.4644 8.77899 12.5V16.3751C9.15836 16.4659 9.52493 16.6112 9.86586 16.8081C11.42 17.7053 12.1849 19.5009 11.7998 21.2141C12.0593 21.3004 12.3107 21.4127 12.5495 21.5506C14.0985 22.4449 14.8632 24.2314 14.4872 25.9393C14.5291 25.9598 14.5707 25.981 14.612 26.003C14.826 26.0822 15.0344 26.1783 15.2335 26.2933C16.1723 26.8354 16.8442 27.7116 17.1253 28.7609C17.1853 28.9849 17.2248 29.2109 17.2464 29.4371C20.9314 28.9625 23.779 25.8142 23.779 22V12.5C23.779 11.4644 22.9395 10.625 21.904 10.625Z" fill="#A2792C"/>
<path d="M7.18179 21.5505C7.18179 21.5506 7.18185 21.5506 7.18185 21.5506C7.41398 21.6847 7.63185 21.8415 7.83235 22.0181C8.40998 21.5076 9.12341 21.1724 9.89841 21.0547C10.2425 20.0828 9.85523 18.9669 8.92816 18.4317C8.42316 18.1401 7.83348 18.063 7.26816 18.2144C6.70273 18.366 6.23073 18.7276 5.9391 19.2326C5.6166 19.7911 5.56166 20.4577 5.77235 21.055C6.26716 21.1314 6.74604 21.299 7.18179 21.5505Z" fill="#A2792C"/>
</svg>
