<svg width="161" height="17" viewBox="0 0 161 17" fill="none" xmlns="http://www.w3.org/2000/svg">
<path fill-rule="evenodd" clip-rule="evenodd" d="M1.8308 16.1396H0.23834C0.0314456 16.1396 -0.037523 16.0095 0.0189028 15.7492L3.8684 1.77304C3.89527 1.65255 3.96361 1.54636 4.06059 1.47448C4.15756 1.40259 4.27649 1.36992 4.39503 1.38262H6.60818C6.72743 1.36534 6.84854 1.3962 6.94652 1.46884C7.0445 1.54147 7.1119 1.65036 7.13483 1.77304L10.9843 15.7492C11.047 16.0095 10.9655 16.1396 10.7398 16.1396H9.17242C9.12332 16.1457 9.07352 16.1414 9.02608 16.1269C8.97865 16.1123 8.93458 16.0878 8.89656 16.055C8.82996 15.9661 8.78676 15.8607 8.77117 15.7492L7.93105 12.7627H3.07216L2.23205 15.7492C2.16935 16.0095 2.03769 16.1396 1.8308 16.1396ZM5.45459 3.58837L3.51104 10.9278H7.51099L5.54864 3.58837H5.45459Z" fill="url(#paint0_linear)"/>
<path fill-rule="evenodd" clip-rule="evenodd" d="M16.3575 4.43409H18.2383C18.5079 4.43409 18.6396 4.55772 18.6396 4.80497V5.99569C18.6396 6.25595 18.5079 6.38607 18.2383 6.38607H16.3575C16.3277 6.38174 16.2973 6.38465 16.2688 6.39457C16.2403 6.40448 16.2144 6.42114 16.1931 6.44322C16.1718 6.46529 16.1558 6.49216 16.1462 6.52177C16.1367 6.55137 16.1339 6.58291 16.138 6.61382V15.7231C16.138 15.9833 16.0064 16.1134 15.7368 16.1134H14.345C14.2939 16.1211 14.2417 16.1162 14.1927 16.0993C14.1438 16.0824 14.0992 16.0538 14.0627 16.016C14.0262 15.9781 13.9987 15.9319 13.9824 15.881C13.9661 15.8302 13.9614 15.7761 13.9688 15.7231V6.61382C13.9688 6.46417 13.8873 6.38607 13.7243 6.38607H12.5519C12.5012 6.39258 12.4499 6.38693 12.4017 6.36951C12.3535 6.35209 12.3098 6.32338 12.2741 6.28563C12.2383 6.24788 12.2114 6.20208 12.1954 6.1518C12.1794 6.10152 12.1748 6.04811 12.182 5.99569V4.80497C12.1719 4.70112 12.1987 4.59703 12.2572 4.51216C12.3428 4.44943 12.4477 4.42163 12.5519 4.43409H13.7243C13.8873 4.43409 13.9688 4.35602 13.9688 4.20637V3.55571C13.9126 2.60786 14.2138 1.67449 14.8089 0.95307C15.1343 0.630439 15.5209 0.381659 15.944 0.222587C16.3671 0.0635145 16.8175 -0.00235294 17.2666 0.0291438H18.2383C18.4891 0.0291438 18.6145 0.152734 18.6145 0.399985V1.59071C18.6219 1.64374 18.6172 1.69784 18.6009 1.74868C18.5846 1.79953 18.5571 1.8457 18.5206 1.88359C18.4841 1.92148 18.4395 1.95002 18.3905 1.96695C18.3416 1.98387 18.2894 1.98875 18.2383 1.98113H17.5738C17.3706 1.95836 17.165 1.98272 16.972 2.05249C16.779 2.12226 16.6034 2.23568 16.4578 2.38453C16.212 2.7681 16.0993 3.22699 16.138 3.68585V4.2389C16.1387 4.26717 16.1451 4.29499 16.1568 4.32055C16.1684 4.3461 16.1852 4.36882 16.2059 4.38723C16.2265 4.40563 16.2507 4.41934 16.2769 4.42742C16.303 4.43549 16.3305 4.43775 16.3575 4.43409Z" fill="url(#paint1_linear)"/>
<path fill-rule="evenodd" clip-rule="evenodd" d="M22.1249 16.1395H20.7331C20.682 16.1472 20.6298 16.1423 20.5809 16.1254C20.5319 16.1085 20.4873 16.0799 20.4508 16.0421C20.4143 16.0042 20.3868 15.958 20.3705 15.9071C20.3542 15.8563 20.3495 15.8022 20.3569 15.7492V4.82459C20.3495 4.77155 20.3542 4.71746 20.3705 4.66661C20.3868 4.61577 20.4143 4.56956 20.4508 4.53167C20.4873 4.49378 20.5319 4.46523 20.5809 4.44831C20.6298 4.43139 20.682 4.42655 20.7331 4.43417H22.1249C22.176 4.42655 22.2281 4.43139 22.2771 4.44831C22.3261 4.46523 22.3706 4.49378 22.4071 4.53167C22.4436 4.56956 22.4711 4.61577 22.4874 4.66661C22.5037 4.71746 22.5084 4.77155 22.5011 4.82459V5.69646H22.5951C22.7576 5.29215 23.0594 4.96512 23.4415 4.77904C23.8756 4.54708 24.3577 4.42868 24.8459 4.43417H25.6672C25.7183 4.42655 25.7704 4.43139 25.8194 4.44831C25.8684 4.46523 25.9129 4.49378 25.9494 4.53167C25.9859 4.56956 26.0134 4.61577 26.0297 4.66661C26.046 4.71746 26.0507 4.77155 26.0434 4.82459V6.01527C26.0434 6.3059 25.918 6.42953 25.6672 6.38615H24.313C23.0925 6.38615 22.4802 7.08237 22.476 8.47479V15.7492C22.4826 15.7998 22.4783 15.8513 22.4634 15.9C22.4484 15.9487 22.4232 15.9934 22.3896 16.0307C22.356 16.0681 22.3149 16.0973 22.2691 16.1161C22.2233 16.1349 22.174 16.1429 22.1249 16.1395Z" fill="url(#paint2_linear)"/>
<path fill-rule="evenodd" clip-rule="evenodd" d="M27.8745 2.48221V0.393618C27.8681 0.343633 27.873 0.292767 27.8888 0.24509C27.9046 0.197413 27.9309 0.154217 27.9656 0.118882C28.0002 0.0835464 28.0423 0.0570388 28.0885 0.041481C28.1347 0.0259232 28.1838 0.0217553 28.2318 0.0292493H29.6676C29.7154 0.0214668 29.7643 0.0254853 29.8103 0.0410441C29.8563 0.0566029 29.8982 0.0832436 29.9324 0.118763C29.9666 0.154282 29.9923 0.197686 30.0073 0.245448C30.0223 0.293209 30.0262 0.343993 30.0187 0.393618V2.48221C30.0187 2.74248 29.9058 2.87263 29.6676 2.87263H28.2318C27.9936 2.87263 27.8745 2.74248 27.8745 2.48221ZM27.8745 15.7492V4.82462C27.8745 4.56435 27.9936 4.4342 28.2318 4.4342H29.6488C29.6994 4.42768 29.7508 4.43338 29.7989 4.4508C29.8471 4.46821 29.8908 4.49688 29.9266 4.53463C29.9623 4.57238 29.9892 4.61818 30.0052 4.66846C30.0212 4.71875 30.0258 4.77219 30.0187 4.82462V15.7492C30.0307 15.8573 30.0039 15.9661 29.9434 16.055C29.9054 16.0878 29.8613 16.1123 29.8139 16.1268C29.7665 16.1414 29.7167 16.1457 29.6676 16.1396H28.2506C28.1995 16.1472 28.1474 16.1424 28.0984 16.1254C28.0494 16.1085 28.0049 16.08 27.9684 16.0421C27.9319 16.0042 27.9044 15.958 27.8881 15.9072C27.8718 15.8563 27.8671 15.8022 27.8745 15.7492Z" fill="url(#paint3_linear)"/>
<path fill-rule="evenodd" clip-rule="evenodd" d="M39.7734 14.5787V15.7694C39.7734 16.0166 39.6417 16.1403 39.3721 16.1403H36.1245C35.6628 16.1879 35.1966 16.1286 34.7597 15.9666C34.3228 15.8046 33.9259 15.5439 33.5978 15.2034C33.2698 14.8629 33.0186 14.4511 32.8625 13.9976C32.7063 13.5441 32.6492 13.0604 32.6951 12.5812V7.99403C32.6492 7.51486 32.7063 7.03108 32.8625 6.57762C33.0186 6.12416 33.2698 5.71231 33.5978 5.37181C33.9259 5.03131 34.3228 4.77066 34.7597 4.60864C35.1966 4.44662 35.6628 4.38727 36.1245 4.4349H39.3596C39.6292 4.4349 39.7608 4.56505 39.7608 4.82532V6.016C39.7608 6.26325 39.6292 6.38688 39.3596 6.38688H36.4192C36.1995 6.35798 35.9764 6.38243 35.7675 6.45828C35.5585 6.53413 35.3694 6.65931 35.215 6.82396C35.0606 6.98861 34.9451 7.18826 34.8778 7.40711C34.8104 7.62596 34.7929 7.85803 34.8267 8.08509V12.4901C34.7929 12.7171 34.8104 12.9493 34.8778 13.1681C34.9451 13.387 35.0606 13.5866 35.215 13.7512C35.3694 13.9159 35.5585 14.0411 35.7675 14.1169C35.9764 14.1928 36.1995 14.2172 36.4192 14.1883H39.3596C39.6417 14.1883 39.7734 14.3185 39.7734 14.5787Z" fill="url(#paint4_linear)"/>
<path fill-rule="evenodd" clip-rule="evenodd" d="M45.9428 16.1403H45.0776C44.6159 16.1879 44.1498 16.1286 43.7128 15.9666C43.2759 15.8046 42.8791 15.5439 42.551 15.2034C42.2229 14.8629 41.9717 14.4511 41.8156 13.9976C41.6595 13.5441 41.6023 13.0604 41.6482 12.5812V7.99403C41.6023 7.51486 41.6595 7.03108 41.8156 6.57762C41.9717 6.12416 42.2229 5.71231 42.551 5.37181C42.8791 5.03131 43.2759 4.77066 43.7128 4.60864C44.1498 4.44662 44.6159 4.38727 45.0776 4.4349H50.018C50.2813 4.4349 50.413 4.56505 50.413 4.82532V15.7499C50.413 16.0102 50.2813 16.1403 50.018 16.1403H48.6387C48.5876 16.1479 48.5355 16.1431 48.4865 16.1261C48.4375 16.1092 48.393 16.0807 48.3565 16.0428C48.32 16.0049 48.2925 15.9587 48.2762 15.9079C48.2599 15.857 48.2552 15.8029 48.2625 15.7499V14.9235H48.1748C47.8174 15.7304 47.0776 16.1403 45.9428 16.1403ZM48.2625 12.2363V6.61463C48.2625 6.46498 48.181 6.38688 48.018 6.38688H45.3848C45.1652 6.35798 44.9421 6.38243 44.7331 6.45828C44.5242 6.53413 44.335 6.65931 44.1806 6.82396C44.0262 6.98861 43.9108 7.18826 43.8434 7.40711C43.776 7.62596 43.7586 7.85803 43.7924 8.08509V12.4901C43.7586 12.7171 43.776 12.9493 43.8434 13.1681C43.9108 13.387 44.0262 13.5866 44.1806 13.7512C44.335 13.9159 44.5242 14.0411 44.7331 14.1169C44.9421 14.1928 45.1652 14.2172 45.3848 14.1883H46.4506C47.6544 14.1883 48.2625 13.5376 48.2625 12.2363Z" fill="url(#paint5_linear)"/>
<path fill-rule="evenodd" clip-rule="evenodd" d="M54.9589 16.1395H53.5671C53.5159 16.1471 53.4638 16.1423 53.4148 16.1254C53.3658 16.1085 53.3213 16.0799 53.2848 16.042C53.2483 16.0041 53.2208 15.958 53.2045 15.9071C53.1882 15.8563 53.1835 15.8022 53.1909 15.7491V4.82456C53.1835 4.77152 53.1882 4.71742 53.2045 4.66658C53.2208 4.61574 53.2483 4.56953 53.2848 4.53164C53.3213 4.49375 53.3658 4.4652 53.4148 4.44828C53.4638 4.43135 53.5159 4.42652 53.5671 4.43414H54.9589C55.01 4.42652 55.0621 4.43135 55.1111 4.44828C55.1601 4.4652 55.2046 4.49375 55.2411 4.53164C55.2776 4.56953 55.3051 4.61574 55.3214 4.66658C55.3377 4.71742 55.3424 4.77152 55.3351 4.82456V5.65087H55.4228C55.7802 4.83755 56.5263 4.43414 57.6611 4.43414H58.6328C59.0841 4.40339 59.5367 4.46892 59.9626 4.62671C60.3885 4.7845 60.7788 5.03122 61.1093 5.35159C61.7217 6.07916 62.0307 7.02936 61.9682 7.99327V15.7491C61.9682 16.0094 61.8366 16.1395 61.5732 16.1395H60.1814C60.1303 16.1471 60.0782 16.1423 60.0292 16.1254C59.9802 16.1085 59.9357 16.0799 59.8992 16.042C59.8627 16.0041 59.8352 15.958 59.8189 15.9071C59.8026 15.8563 59.7979 15.8022 59.8052 15.7491V8.08434C59.8393 7.85321 59.8205 7.61702 59.7503 7.39484C59.6801 7.17266 59.5605 6.97075 59.4012 6.80541C59.2419 6.64008 59.0474 6.51599 58.8333 6.44315C58.6192 6.37031 58.3916 6.35076 58.1689 6.38612H57.1344C55.9244 6.38612 55.3163 7.03678 55.3163 8.3381V15.7491C55.323 15.8004 55.3186 15.8525 55.3033 15.9017C55.288 15.9509 55.2623 15.996 55.2279 16.0334C55.1936 16.0709 55.1516 16.0999 55.1051 16.1183C55.0585 16.1366 55.0085 16.1439 54.9589 16.1395Z" fill="url(#paint6_linear)"/>
<path fill-rule="evenodd" clip-rule="evenodd" d="M68.7332 16.1401H67.3413C67.078 16.1401 66.9463 16.01 66.9463 15.7497V3.58888C66.9494 3.55761 66.9457 3.52601 66.9353 3.49646C66.925 3.46692 66.9083 3.44022 66.8866 3.41831C66.8649 3.3964 66.8387 3.37988 66.8099 3.36998C66.7812 3.36008 66.7507 3.35707 66.7206 3.36116H63.937C63.6737 3.36116 63.542 3.23101 63.542 2.97074V1.79956C63.542 1.5393 63.6737 1.40918 63.937 1.40918H72.1375C72.4071 1.40918 72.5388 1.5393 72.5388 1.79956V2.93822C72.5388 3.19848 72.4071 3.3286 72.1375 3.3286H69.3538C69.1908 3.3286 69.1093 3.4067 69.1093 3.55635V15.7432C69.1178 15.7967 69.1139 15.8516 69.0981 15.9033C69.0823 15.955 69.055 16.0021 69.0183 16.0407C68.9817 16.0794 68.9367 16.1086 68.8872 16.1258C68.8376 16.1431 68.7849 16.148 68.7332 16.1401Z" fill="url(#paint7_linear)"/>
<path fill-rule="evenodd" clip-rule="evenodd" d="M75.9862 16.1396H74.5944C74.5433 16.1472 74.4912 16.1423 74.4422 16.1254C74.3932 16.1085 74.3487 16.08 74.3122 16.0421C74.2757 16.0042 74.2482 15.958 74.2318 15.9072C74.2155 15.8563 74.2109 15.8022 74.2182 15.7492V4.82459C74.2109 4.77155 74.2155 4.71746 74.2318 4.66661C74.2482 4.61577 74.2757 4.56956 74.3122 4.53167C74.3487 4.49378 74.3932 4.46523 74.4422 4.44831C74.4912 4.43139 74.5433 4.42655 74.5944 4.43417H75.9862C76.0373 4.42655 76.0895 4.43139 76.1384 4.44831C76.1874 4.46523 76.2319 4.49378 76.2684 4.53167C76.305 4.56956 76.3325 4.61577 76.3488 4.66661C76.3651 4.71746 76.3697 4.77155 76.3624 4.82459V5.69646H76.4502C76.6172 5.29307 76.9204 4.96686 77.3028 4.77904C77.7369 4.54708 78.219 4.42868 78.7072 4.43417H79.5222C79.5733 4.42655 79.6255 4.43139 79.6745 4.44831C79.7235 4.46523 79.768 4.49378 79.8045 4.53167C79.841 4.56956 79.8685 4.61577 79.8848 4.66661C79.9011 4.71746 79.9058 4.77155 79.8984 4.82459V6.01527C79.8984 6.3059 79.773 6.42953 79.5222 6.38616H78.2307C77.0061 6.38616 76.3938 7.08238 76.3938 8.47479V15.7492C76.4026 15.8055 76.3979 15.8632 76.38 15.9171C76.3621 15.971 76.3316 16.0195 76.2912 16.0581C76.2508 16.0968 76.2018 16.1245 76.1486 16.1387C76.0954 16.1529 76.0396 16.1532 75.9862 16.1396Z" fill="url(#paint8_linear)"/>
<path fill-rule="evenodd" clip-rule="evenodd" d="M85.6924 16.1403H84.8335C84.3718 16.1879 83.9056 16.1286 83.4687 15.9666C83.0317 15.8046 82.6349 15.5439 82.3068 15.2034C81.9787 14.8629 81.7276 14.4511 81.5715 13.9976C81.4153 13.5441 81.3582 13.0604 81.404 12.5812V7.99403C81.3582 7.51486 81.4153 7.03108 81.5715 6.57762C81.7276 6.12416 81.9787 5.71231 82.3068 5.37181C82.6349 5.03131 83.0317 4.77066 83.4687 4.60864C83.9056 4.44662 84.3718 4.38727 84.8335 4.4349H89.7864C90.0497 4.4349 90.1814 4.56505 90.1814 4.82532V15.7499C90.1814 16.0102 90.0497 16.1403 89.7864 16.1403H88.3946C88.3435 16.1479 88.2913 16.1431 88.2424 16.1261C88.1934 16.1092 88.1489 16.0807 88.1123 16.0428C88.0758 16.0049 88.0483 15.9587 88.032 15.9079C88.0157 15.857 88.011 15.8029 88.0184 15.7499V14.9235H87.9243C87.5733 15.7304 86.8272 16.1403 85.6924 16.1403ZM88.0184 12.2363V6.61463C88.0184 6.46498 87.9369 6.38688 87.7739 6.38688H85.1281C84.9085 6.35798 84.6854 6.38243 84.4765 6.45828C84.2675 6.53413 84.0784 6.65931 83.924 6.82396C83.7696 6.98861 83.6541 7.18826 83.5867 7.40711C83.5194 7.62596 83.5019 7.85803 83.5357 8.08509V12.4901C83.5019 12.7171 83.5194 12.9493 83.5867 13.1681C83.6541 13.387 83.7696 13.5866 83.924 13.7512C84.0784 13.9159 84.2675 14.0411 84.4765 14.1169C84.6854 14.1928 84.9085 14.2172 85.1281 14.1883H86.1877C87.4103 14.1883 88.0184 13.5376 88.0184 12.2363Z" fill="url(#paint9_linear)"/>
<path fill-rule="evenodd" clip-rule="evenodd" d="M92.2371 4.43408H93.7167C93.7691 4.43056 93.8216 4.43792 93.8712 4.45572C93.9209 4.47353 93.9666 4.50142 94.0057 4.53777C94.0448 4.57412 94.0765 4.61821 94.099 4.66743C94.1215 4.71666 94.1344 4.77007 94.1368 4.8245L96.4126 14.0509H96.5693L98.8264 4.8245C98.8405 4.71001 98.8966 4.60554 98.983 4.53284C99.0694 4.46015 99.1794 4.42478 99.2903 4.43408H100.801C101.071 4.43408 101.159 4.56423 101.071 4.8245L98.0866 15.7231C98.0709 15.8438 98.0118 15.9539 97.921 16.0312C97.8303 16.1084 97.7147 16.1471 97.5975 16.1395H95.4722C95.3557 16.147 95.2409 16.1081 95.1512 16.0307C95.0614 15.9533 95.0036 15.8433 94.9894 15.7231L92.0051 4.8245C91.9111 4.56423 92.0239 4.43408 92.2371 4.43408Z" fill="url(#paint10_linear)"/>
<path fill-rule="evenodd" clip-rule="evenodd" d="M110.833 16.1396H106.056C105.594 16.1862 105.129 16.1262 104.693 15.9637C104.257 15.8012 103.861 15.5404 103.533 15.2C103.206 14.8596 102.955 14.4481 102.8 13.9952C102.644 13.5423 102.587 13.0591 102.632 12.5805V7.99339C102.587 7.51481 102.644 7.03166 102.8 6.57872C102.955 6.12578 103.206 5.71432 103.533 5.37394C103.861 5.03357 104.257 4.77274 104.693 4.61026C105.129 4.44777 105.594 4.38766 106.056 4.43425H107.868C108.33 4.40524 108.794 4.47262 109.231 4.63242C109.668 4.79221 110.07 5.04119 110.413 5.36469C110.725 5.71286 110.967 6.12277 111.123 6.56995C111.279 7.01712 111.347 7.49238 111.322 7.96734V10.8823C111.33 10.9385 111.324 10.9958 111.307 11.0495C111.289 11.1032 111.26 11.152 111.221 11.1918C111.182 11.2316 111.134 11.2614 111.082 11.2789C111.03 11.2963 110.975 11.3009 110.921 11.2922H104.996C104.833 11.2922 104.752 11.3703 104.752 11.52V12.509C104.72 12.7368 104.74 12.9691 104.81 13.1875C104.88 13.4058 104.999 13.6041 105.156 13.7666C105.313 13.929 105.504 14.0511 105.715 14.1231C105.926 14.1951 106.15 14.215 106.369 14.1812H110.833C110.887 14.1734 110.942 14.1789 110.994 14.1972C111.046 14.2155 111.093 14.2461 111.131 14.2865C111.17 14.327 111.198 14.3761 111.215 14.4301C111.232 14.4842 111.236 14.5415 111.228 14.5976V15.7427C111.228 15.99 111.096 16.1136 110.833 16.1136V16.1396ZM104.996 9.75665H108.952C108.982 9.76248 109.013 9.76064 109.042 9.75125C109.072 9.74187 109.098 9.72523 109.12 9.7028C109.141 9.68038 109.157 9.65284 109.166 9.62254C109.175 9.59225 109.177 9.56012 109.172 9.52894V8.05844C109.195 7.82649 109.174 7.59203 109.109 7.36866C109.045 7.14528 108.938 6.93743 108.795 6.75711C108.631 6.60726 108.439 6.49412 108.231 6.42472C108.023 6.35531 107.803 6.33113 107.585 6.35371H106.369C106.151 6.33139 105.93 6.35566 105.721 6.42503C105.512 6.4944 105.318 6.60741 105.153 6.75711C105.01 6.93743 104.904 7.14528 104.839 7.36866C104.775 7.59203 104.753 7.82649 104.777 8.05844V9.52894C104.771 9.56012 104.773 9.59225 104.782 9.62254C104.791 9.65284 104.807 9.68038 104.829 9.7028C104.85 9.72523 104.877 9.74187 104.906 9.75125C104.935 9.76064 104.966 9.76248 104.996 9.75665Z" fill="url(#paint11_linear)"/>
<path d="M115.629 0.00390625H114.238C114.03 0.00390625 113.861 0.178677 113.861 0.394287V15.7434C113.861 15.959 114.03 16.1338 114.238 16.1338H115.629C115.837 16.1338 116.006 15.959 116.006 15.7434V0.394287C116.006 0.178677 115.837 0.00390625 115.629 0.00390625Z" fill="url(#paint12_linear)"/>
<path fill-rule="evenodd" clip-rule="evenodd" d="M120.826 12.9447V15.7491C120.826 16.0093 120.707 16.1394 120.475 16.1394H118.983C118.932 16.1471 118.88 16.1422 118.831 16.1253C118.782 16.1084 118.737 16.0798 118.701 16.0419C118.664 16.0041 118.637 15.9579 118.621 15.907C118.604 15.8562 118.6 15.8021 118.607 15.7491V12.9447C118.607 12.704 118.732 12.5804 118.983 12.5804H120.488C120.534 12.5761 120.581 12.5827 120.625 12.5997C120.669 12.6167 120.708 12.6437 120.741 12.6786C120.773 12.7135 120.798 12.7556 120.813 12.8016C120.827 12.8477 120.832 12.8966 120.826 12.9447Z" fill="url(#paint13_linear)"/>
<path fill-rule="evenodd" clip-rule="evenodd" d="M129.297 16.1401H126.733C126.271 16.1877 125.805 16.1284 125.368 15.9664C124.931 15.8044 124.534 15.5437 124.206 15.2032C123.878 14.8627 123.627 14.4509 123.471 13.9974C123.315 13.544 123.258 13.0602 123.303 12.581V4.94227C123.258 4.4631 123.315 3.97932 123.471 3.52586C123.627 3.0724 123.878 2.66055 124.206 2.32005C124.534 1.97955 124.931 1.71891 125.368 1.55688C125.805 1.39486 126.271 1.33551 126.733 1.38314H129.297C129.754 1.35793 130.211 1.42721 130.641 1.58695C131.072 1.74668 131.467 1.99368 131.805 2.31358C132.116 2.66228 132.356 3.07244 132.511 3.51959C132.667 3.96674 132.733 4.44172 132.708 4.91622V6.01584C132.715 6.07144 132.71 6.12804 132.692 6.18121C132.675 6.23437 132.646 6.28267 132.608 6.32235C132.57 6.36202 132.523 6.39197 132.472 6.40991C132.421 6.42785 132.366 6.43328 132.313 6.42576H130.921C130.67 6.42576 130.545 6.28912 130.545 6.01584V5.00732C130.579 4.78026 130.561 4.54815 130.494 4.3293C130.426 4.11045 130.311 3.91084 130.156 3.74619C130.002 3.58154 129.813 3.45636 129.604 3.38051C129.395 3.30466 129.172 3.28021 128.952 3.30911H127.028C126.808 3.28021 126.585 3.30466 126.376 3.38051C126.167 3.45636 125.978 3.58154 125.823 3.74619C125.669 3.91084 125.554 4.11045 125.486 4.3293C125.419 4.54815 125.401 4.78026 125.435 5.00732V12.4639C125.401 12.691 125.419 12.9231 125.486 13.1419C125.554 13.3608 125.669 13.5604 125.823 13.725C125.978 13.8897 126.167 14.0149 126.376 14.0907C126.585 14.1666 126.808 14.191 127.028 14.1621H128.952C129.172 14.191 129.395 14.1666 129.604 14.0907C129.813 14.0149 130.002 13.8897 130.156 13.725C130.311 13.5604 130.426 13.3608 130.494 13.1419C130.561 12.9231 130.579 12.691 130.545 12.4639V11.4554C130.545 11.1756 130.67 11.039 130.921 11.039H132.313C132.367 11.0312 132.422 11.0367 132.474 11.055C132.526 11.0733 132.573 11.1038 132.611 11.1443C132.649 11.1847 132.678 11.2339 132.695 11.2879C132.712 11.3419 132.716 11.3993 132.708 11.4554V12.555C132.753 13.0336 132.696 13.5167 132.541 13.9696C132.385 14.4226 132.134 14.8341 131.807 15.1745C131.48 15.5148 131.084 15.7756 130.647 15.9381C130.211 16.1006 129.746 16.1607 129.285 16.1141L129.297 16.1401Z" fill="url(#paint14_linear)"/>
<path d="M137.121 0.00390625H135.729C135.521 0.00390625 135.353 0.178677 135.353 0.394287V15.7434C135.353 15.959 135.521 16.1338 135.729 16.1338H137.121C137.328 16.1338 137.497 15.959 137.497 15.7434V0.394287C137.497 0.178677 137.328 0.00390625 137.121 0.00390625Z" fill="url(#paint15_linear)"/>
<path fill-rule="evenodd" clip-rule="evenodd" d="M144.569 16.1396H143.578C143.131 16.17 142.682 16.1029 142.261 15.9427C141.84 15.7825 141.456 15.5326 141.133 15.2091C140.536 14.4883 140.231 13.5557 140.281 12.6065V4.82459C140.273 4.77155 140.278 4.71746 140.294 4.66661C140.311 4.61577 140.338 4.56956 140.375 4.53167C140.411 4.49378 140.456 4.46523 140.505 4.44831C140.554 4.43139 140.606 4.42655 140.657 4.43417H142.049C142.1 4.42655 142.152 4.43139 142.201 4.44831C142.25 4.46523 142.294 4.49378 142.331 4.53167C142.367 4.56956 142.395 4.61577 142.411 4.66661C142.428 4.71746 142.432 4.77155 142.425 4.82459V12.4894C142.391 12.7164 142.409 12.9485 142.476 13.1674C142.543 13.3862 142.659 13.5858 142.813 13.7505C142.968 13.9151 143.157 14.0404 143.366 14.1162C143.575 14.1921 143.798 14.2165 144.017 14.1876H145.083C146.287 14.1876 146.895 13.5369 146.895 12.2356V4.82459C146.888 4.77155 146.892 4.71746 146.909 4.66661C146.925 4.61577 146.952 4.56956 146.989 4.53167C147.026 4.49378 147.07 4.46523 147.119 4.44831C147.168 4.43139 147.22 4.42655 147.271 4.43417H148.663C148.926 4.43417 149.058 4.56433 149.058 4.82459V15.7492C149.058 16.0094 148.926 16.1396 148.663 16.1396H147.271C147.22 16.1472 147.168 16.1423 147.119 16.1254C147.07 16.1085 147.026 16.08 146.989 16.0421C146.952 16.0042 146.925 15.958 146.909 15.9072C146.892 15.8563 146.888 15.8022 146.895 15.7492V14.9228H146.807C146.45 15.7296 145.704 16.1396 144.569 16.1396Z" fill="url(#paint16_linear)"/>
<path fill-rule="evenodd" clip-rule="evenodd" d="M154.212 14.1879H156.952C158.017 14.1879 158.544 13.6218 158.544 12.4897V7.99364C158.544 6.86149 158.017 6.29539 156.952 6.29539H155.779C154.575 6.29539 153.967 6.94605 153.967 8.24737V13.9602C153.962 13.9948 153.964 14.0302 153.975 14.0636C153.985 14.0969 154.003 14.1272 154.027 14.152C154.051 14.1768 154.08 14.1953 154.112 14.2061C154.144 14.2169 154.178 14.2196 154.212 14.214V14.1879ZM151.823 15.7495V0.393928C151.816 0.340889 151.82 0.286791 151.837 0.235949C151.853 0.185107 151.881 0.138894 151.917 0.101004C151.954 0.0631139 151.998 0.0345699 152.047 0.017646C152.096 0.000722186 152.148 -0.00411395 152.199 0.00350814H153.591C153.642 -0.00411395 153.694 0.000722186 153.743 0.017646C153.792 0.0345699 153.837 0.0631139 153.873 0.101004C153.91 0.138894 153.937 0.185107 153.954 0.235949C153.97 0.286791 153.975 0.340889 153.967 0.393928V5.59921H154.055C154.425 4.77287 155.171 4.36294 156.287 4.36294H157.265C157.727 4.33371 158.189 4.401 158.626 4.56083C159.062 4.72066 159.463 4.96977 159.804 5.29338C160.119 5.63938 160.363 6.04897 160.519 6.49669C160.676 6.94441 160.742 7.42071 160.713 7.89603V12.6003C160.739 13.0754 160.672 13.5511 160.516 13.9985C160.36 14.4459 160.118 14.8556 159.804 15.2029C159.464 15.5298 159.064 15.7819 158.628 15.9441C158.191 16.1062 157.728 16.175 157.265 16.1464H152.212C152.159 16.1566 152.105 16.1535 152.054 16.1373C152.002 16.1211 151.956 16.0922 151.918 16.0533C151.879 16.0143 151.851 15.9663 151.834 15.9134C151.818 15.8605 151.814 15.8043 151.823 15.7495Z" fill="url(#paint17_linear)"/>
<defs>
<linearGradient id="paint0_linear" x1="2274.79" y1="10444.2" x2="5608.21" y2="12434.1" gradientUnits="userSpaceOnUse">
<stop stop-color="#927E2F"/>
<stop offset="0.24" stop-color="#AE9431"/>
<stop offset="0.42" stop-color="#CAAD2E"/>
<stop offset="0.75" stop-color="#E2C022"/>
<stop offset="1" stop-color="#FFD700"/>
</linearGradient>
<linearGradient id="paint1_linear" x1="1401.59" y1="11211.6" x2="3427.67" y2="11863" gradientUnits="userSpaceOnUse">
<stop stop-color="#927E2F"/>
<stop offset="0.24" stop-color="#AE9431"/>
<stop offset="0.42" stop-color="#CAAD2E"/>
<stop offset="0.75" stop-color="#E2C022"/>
<stop offset="1" stop-color="#FFD700"/>
</linearGradient>
<linearGradient id="paint2_linear" x1="1262.56" y1="8128.85" x2="3106.52" y2="8846.68" gradientUnits="userSpaceOnUse">
<stop stop-color="#927E2F"/>
<stop offset="0.24" stop-color="#AE9431"/>
<stop offset="0.42" stop-color="#CAAD2E"/>
<stop offset="0.75" stop-color="#E2C022"/>
<stop offset="1" stop-color="#FFD700"/>
</linearGradient>
<linearGradient id="paint3_linear" x1="508.639" y1="11075.5" x2="1563.45" y2="11188.2" gradientUnits="userSpaceOnUse">
<stop stop-color="#927E2F"/>
<stop offset="0.24" stop-color="#AE9431"/>
<stop offset="0.42" stop-color="#CAAD2E"/>
<stop offset="0.75" stop-color="#E2C022"/>
<stop offset="1" stop-color="#FFD700"/>
</linearGradient>
<linearGradient id="paint4_linear" x1="1661.03" y1="8044.11" x2="4252.88" y2="9298.63" gradientUnits="userSpaceOnUse">
<stop stop-color="#927E2F"/>
<stop offset="0.24" stop-color="#AE9431"/>
<stop offset="0.42" stop-color="#CAAD2E"/>
<stop offset="0.75" stop-color="#E2C022"/>
<stop offset="1" stop-color="#FFD700"/>
</linearGradient>
<linearGradient id="paint5_linear" x1="2117.27" y1="7961.48" x2="5064.13" y2="9726.88" gradientUnits="userSpaceOnUse">
<stop stop-color="#927E2F"/>
<stop offset="0.24" stop-color="#AE9431"/>
<stop offset="0.42" stop-color="#CAAD2E"/>
<stop offset="0.75" stop-color="#E2C022"/>
<stop offset="1" stop-color="#FFD700"/>
</linearGradient>
<linearGradient id="paint6_linear" x1="2159.56" y1="7831.48" x2="5366.29" y2="9757.93" gradientUnits="userSpaceOnUse">
<stop stop-color="#927E2F"/>
<stop offset="0.24" stop-color="#AE9431"/>
<stop offset="0.42" stop-color="#CAAD2E"/>
<stop offset="0.75" stop-color="#E2C022"/>
<stop offset="1" stop-color="#FFD700"/>
</linearGradient>
<linearGradient id="paint7_linear" x1="2363.75" y1="9753.94" x2="5360.02" y2="11219.1" gradientUnits="userSpaceOnUse">
<stop stop-color="#927E2F"/>
<stop offset="0.24" stop-color="#AE9431"/>
<stop offset="0.42" stop-color="#CAAD2E"/>
<stop offset="0.75" stop-color="#E2C022"/>
<stop offset="1" stop-color="#FFD700"/>
</linearGradient>
<linearGradient id="paint8_linear" x1="1584.27" y1="7771.39" x2="3427.01" y2="8487.55" gradientUnits="userSpaceOnUse">
<stop stop-color="#927E2F"/>
<stop offset="0.24" stop-color="#AE9431"/>
<stop offset="0.42" stop-color="#CAAD2E"/>
<stop offset="0.75" stop-color="#E2C022"/>
<stop offset="1" stop-color="#FFD700"/>
</linearGradient>
<linearGradient id="paint9_linear" x1="2411.46" y1="7634.24" x2="5360.34" y2="9403.45" gradientUnits="userSpaceOnUse">
<stop stop-color="#927E2F"/>
<stop offset="0.24" stop-color="#AE9431"/>
<stop offset="0.42" stop-color="#CAAD2E"/>
<stop offset="0.75" stop-color="#E2C022"/>
<stop offset="1" stop-color="#FFD700"/>
</linearGradient>
<linearGradient id="paint10_linear" x1="2628.11" y1="7563.81" x2="5336.1" y2="9255.45" gradientUnits="userSpaceOnUse">
<stop stop-color="#927E2F"/>
<stop offset="0.24" stop-color="#AE9431"/>
<stop offset="0.42" stop-color="#CAAD2E"/>
<stop offset="0.75" stop-color="#E2C022"/>
<stop offset="1" stop-color="#FFD700"/>
</linearGradient>
<linearGradient id="paint11_linear" x1="2542.24" y1="7471.22" x2="5460.85" y2="9205.96" gradientUnits="userSpaceOnUse">
<stop stop-color="#927E2F"/>
<stop offset="0.24" stop-color="#AE9431"/>
<stop offset="0.42" stop-color="#CAAD2E"/>
<stop offset="0.75" stop-color="#E2C022"/>
<stop offset="1" stop-color="#FFD700"/>
</linearGradient>
<linearGradient id="paint12_linear" x1="480.347" y1="9934.71" x2="1528.96" y2="10046.4" gradientUnits="userSpaceOnUse">
<stop stop-color="#927E2F"/>
<stop offset="0.24" stop-color="#AE9431"/>
<stop offset="0.42" stop-color="#CAAD2E"/>
<stop offset="0.75" stop-color="#E2C022"/>
<stop offset="1" stop-color="#FFD700"/>
</linearGradient>
<linearGradient id="paint13_linear" x1="745.845" y1="2249.39" x2="1588.24" y2="2670.64" gradientUnits="userSpaceOnUse">
<stop stop-color="#927E2F"/>
<stop offset="0.24" stop-color="#AE9431"/>
<stop offset="0.42" stop-color="#CAAD2E"/>
<stop offset="0.75" stop-color="#E2C022"/>
<stop offset="1" stop-color="#FFD700"/>
</linearGradient>
<linearGradient id="paint14_linear" x1="2963.88" y1="9226.82" x2="6168.32" y2="10864" gradientUnits="userSpaceOnUse">
<stop stop-color="#927E2F"/>
<stop offset="0.24" stop-color="#AE9431"/>
<stop offset="0.42" stop-color="#CAAD2E"/>
<stop offset="0.75" stop-color="#E2C022"/>
<stop offset="1" stop-color="#FFD700"/>
</linearGradient>
<linearGradient id="paint15_linear" x1="531.598" y1="9671.15" x2="1580.2" y2="9782.79" gradientUnits="userSpaceOnUse">
<stop stop-color="#927E2F"/>
<stop offset="0.24" stop-color="#AE9431"/>
<stop offset="0.42" stop-color="#CAAD2E"/>
<stop offset="0.75" stop-color="#E2C022"/>
<stop offset="1" stop-color="#FFD700"/>
</linearGradient>
<linearGradient id="paint16_linear" x1="2745.48" y1="7036.63" x2="5951.14" y2="8961.17" gradientUnits="userSpaceOnUse">
<stop stop-color="#927E2F"/>
<stop offset="0.24" stop-color="#AE9431"/>
<stop offset="0.42" stop-color="#CAAD2E"/>
<stop offset="0.75" stop-color="#E2C022"/>
<stop offset="1" stop-color="#FFD700"/>
</linearGradient>
<linearGradient id="paint17_linear" x1="2920.49" y1="9674.51" x2="6377.44" y2="11200.2" gradientUnits="userSpaceOnUse">
<stop stop-color="#927E2F"/>
<stop offset="0.24" stop-color="#AE9431"/>
<stop offset="0.42" stop-color="#CAAD2E"/>
<stop offset="0.75" stop-color="#E2C022"/>
<stop offset="1" stop-color="#FFD700"/>
</linearGradient>
</defs>
</svg>
