<svg width="9" height="18" viewBox="0 0 9 18" fill="none" xmlns="http://www.w3.org/2000/svg">
<path d="M3.33464 2.33366C3.33464 1.40866 4.0763 0.666992 5.0013 0.666992C5.9263 0.666992 6.66797 1.40866 6.66797 2.33366C6.66797 3.25866 5.9263 4.00033 5.0013 4.00033C4.0763 4.00033 3.33464 3.25866 3.33464 2.33366ZM6.66797 17.3337V12.3337H8.7513L6.63463 5.97533C6.52315 5.64342 6.31046 5.35479 6.02646 5.15001C5.74246 4.94523 5.40143 4.8346 5.0513 4.83366H4.9513C4.60087 4.83334 4.25926 4.94349 3.97501 5.14844C3.69077 5.3534 3.47836 5.64273 3.36797 5.97533L2.6513 8.12533C3.5513 8.62533 4.16797 9.56699 4.16797 10.667V17.3337H6.66797ZM0.417969 8.58366C1.10964 8.58366 1.66797 8.02533 1.66797 7.33366C1.66797 6.64199 1.10964 6.08366 0.417969 6.08366C-0.273698 6.08366 -0.832031 6.64199 -0.832031 7.33366C-0.832031 8.02533 -0.273698 8.58366 0.417969 8.58366ZM-5.41536 4.00033C-4.49036 4.00033 -3.7487 3.25866 -3.7487 2.33366C-3.7487 1.40866 -4.49036 0.666992 -5.41536 0.666992C-6.34036 0.666992 -7.08203 1.40866 -7.08203 2.33366C-7.08203 3.25866 -6.34036 4.00033 -5.41536 4.00033ZM-3.7487 17.3337V11.5003H-2.4987V6.50033C-2.4987 5.58366 -3.2487 4.83366 -4.16536 4.83366H-6.66536C-7.58203 4.83366 -8.33203 5.58366 -8.33203 6.50033V11.5003H-7.08203V17.3337H-3.7487ZM1.66797 17.3337V14.0003H2.5013V10.667C2.5013 9.98366 1.93464 9.41699 1.2513 9.41699H-0.415364C-1.0987 9.41699 -1.66536 9.98366 -1.66536 10.667V14.0003H-0.832031V17.3337H1.66797Z" fill="#E2C022"/>
</svg>
