<svg width="32" height="32" viewBox="0 0 32 32" fill="none" xmlns="http://www.w3.org/2000/svg">
<path d="M29.0738 13.3885H27.9998V13.3332H15.9998V18.6665H23.5352C22.4358 21.7712 19.4818 23.9998 15.9998 23.9998C11.5818 23.9998 7.99984 20.4178 7.99984 15.9998C7.99984 11.5818 11.5818 7.99984 15.9998 7.99984C18.0392 7.99984 19.8945 8.76917 21.3072 10.0258L25.0785 6.2545C22.6972 4.03517 19.5118 2.6665 15.9998 2.6665C8.6365 2.6665 2.6665 8.6365 2.6665 15.9998C2.6665 23.3632 8.6365 29.3332 15.9998 29.3332C23.3632 29.3332 29.3332 23.3632 29.3332 15.9998C29.3332 15.1058 29.2412 14.2332 29.0738 13.3885Z" fill="#FFC107"/>
<path d="M4.2041 9.79384L8.58477 13.0065C9.7701 10.0718 12.6408 7.99984 16.0001 7.99984C18.0394 7.99984 19.8948 8.76917 21.3074 10.0258L25.0788 6.2545C22.6974 4.03517 19.5121 2.6665 16.0001 2.6665C10.8788 2.6665 6.43743 5.55784 4.2041 9.79384Z" fill="#FF3D00"/>
<path d="M15.9999 29.3333C19.4439 29.3333 22.5732 28.0153 24.9392 25.872L20.8125 22.38C19.4289 23.4322 17.7382 24.0013 15.9999 24C12.5319 24 9.58722 21.7886 8.47788 18.7026L4.12988 22.0526C6.33655 26.3706 10.8179 29.3333 15.9999 29.3333Z" fill="#4CAF50"/>
<path d="M29.074 13.3888H28V13.3335H16V18.6668H23.5353C23.0095 20.1444 22.0622 21.4356 20.8107 22.3808L20.8127 22.3795L24.9393 25.8715C24.6473 26.1368 29.3333 22.6668 29.3333 16.0002C29.3333 15.1062 29.2413 14.2335 29.074 13.3888Z" fill="#1976D2"/>
</svg>
