<svg width="8" height="15" viewBox="0 0 8 15" fill="none" xmlns="http://www.w3.org/2000/svg">
<path d="M-1.34293 5.53641C-1.52821 7.4578 -3.21793 9.05502 -3.21793 9.05502C-2.60404 10.3956 -3.66154 12.9836 -4.07238 13.892C-4.11637 13.9891 -4.18749 14.0714 -4.27718 14.1291C-4.36687 14.1867 -4.47131 14.2173 -4.57793 14.217H-5.50182C-5.61122 14.2164 -5.71807 14.1839 -5.80925 14.1234C-5.90044 14.063 -5.972 13.9772 -6.01515 13.8767C-7.39849 10.697 -5.48654 8.89307 -5.48654 8.89307C-6.15765 6.43891 -4.80904 5.59446 -4.80904 5.59446L-4.0046 3.83502C-3.3796 1.84446 -1.21543 3.07113 -1.21543 3.07113C-1.21543 3.07113 -0.486266 3.3028 0.225679 4.11863C0.225679 4.11863 1.18012 5.28752 3.97485 3.94391C4.36512 3.75641 4.84068 3.96557 5.20623 4.1978L5.65457 4.48252C6.50985 5.02557 7.11429 5.91418 7.21901 6.92141C7.28679 7.57141 7.1679 8.31141 6.61457 9.01446L6.4929 10.4034C6.4929 10.4034 6.95401 12.3075 6.3479 13.7197C6.26123 13.9222 6.05512 14.0478 5.83457 14.0453L5.0504 14.0367C4.92556 14.0356 4.80475 13.9924 4.70754 13.914C4.61034 13.8357 4.54244 13.7268 4.51485 13.605C4.29735 12.6356 3.86373 10.2717 4.53123 9.2228L3.83679 8.94502C3.83679 8.94502 2.69096 10.8547 0.190957 10.4381C0.190957 10.4381 -1.55099 10.1778 -1.81738 9.03196" fill="white"/>
<path d="M-1.34293 5.53641C-1.52821 7.4578 -3.21793 9.05502 -3.21793 9.05502C-2.60404 10.3956 -3.66154 12.9836 -4.07238 13.892C-4.11637 13.9891 -4.18749 14.0714 -4.27718 14.1291C-4.36687 14.1867 -4.47131 14.2173 -4.57793 14.217H-5.50182C-5.61122 14.2164 -5.71807 14.1839 -5.80925 14.1234C-5.90044 14.063 -5.972 13.9772 -6.01515 13.8767C-7.39849 10.697 -5.48654 8.89307 -5.48654 8.89307C-6.15765 6.43891 -4.80904 5.59446 -4.80904 5.59446L-4.0046 3.83502C-3.3796 1.84446 -1.21543 3.07113 -1.21543 3.07113C-1.21543 3.07113 -0.486266 3.3028 0.225679 4.11863C0.225679 4.11863 1.18012 5.28752 3.97485 3.94391C4.36512 3.75641 4.84068 3.96557 5.20623 4.1978L5.65457 4.48252C6.50985 5.02557 7.11429 5.91418 7.21901 6.92141C7.28679 7.57141 7.1679 8.31141 6.61457 9.01446L6.4929 10.4034C6.4929 10.4034 6.95401 12.3075 6.3479 13.7197C6.26123 13.9222 6.05512 14.0478 5.83457 14.0453L5.0504 14.0367C4.92556 14.0356 4.80475 13.9924 4.70754 13.914C4.61034 13.8357 4.54244 13.7268 4.51485 13.605C4.29735 12.6356 3.86373 10.2717 4.53123 9.2228L3.83679 8.94502C3.83679 8.94502 2.69096 10.8547 0.190957 10.4381C0.190957 10.4381 -1.55099 10.1778 -1.81738 9.03196" stroke="#E2C022" stroke-width="0.5" stroke-miterlimit="10" stroke-linecap="round" stroke-linejoin="round"/>
</svg>
