<svg width="24" height="24" viewBox="0 0 24 24" fill="none" xmlns="http://www.w3.org/2000/svg">
<path d="M20.4084 14.8639C19.7364 14.7563 17.6355 14.4201 16.9688 14.3134V13.4844C18.6639 12.7448 19.7812 11.0586 19.7812 9.18755V7.26567H22.125C22.3838 7.26567 22.5938 7.05577 22.5938 6.79692V6.25973C22.5938 5.13431 21.6782 4.21875 20.5528 4.21875H19.7579C19.5219 1.8533 17.5203 0 15.0938 0C12.6672 0 10.6656 1.8533 10.4296 4.21875H9.63469C8.50931 4.21875 7.59375 5.13431 7.59375 6.25969V6.79688C7.59375 7.05572 7.80361 7.26562 8.0625 7.26562H10.4062V9.1875C10.4062 11.0586 11.5237 12.7448 13.2188 13.4844V14.3134C12.5011 14.4283 10.5012 14.7483 9.77906 14.8639C7.71305 15.1946 6.1875 16.9786 6.1875 19.0758V23.5312C6.1875 23.7901 6.39736 24 6.65625 24H23.5312C23.7901 24 24 23.7901 24 23.5312V19.0758C24 16.9835 22.4793 15.1954 20.4084 14.8639ZM15.0938 0.9375C17.0027 0.9375 18.5819 2.37159 18.8134 4.21875H11.3741C11.6056 2.37159 13.1848 0.9375 15.0938 0.9375ZM11.3438 9.1875V7.26562H13.0313C13.2901 7.26562 13.5 7.05572 13.5 6.79688C13.5 6.53803 13.2901 6.32812 13.0313 6.32812C12.5481 6.32812 9.10177 6.32812 8.53125 6.32812V6.25969C8.53125 5.65125 9.02625 5.15625 9.63469 5.15625H20.5528C21.1612 5.15625 21.6562 5.65125 21.6562 6.25969V6.32812C21.2041 6.32812 17.7435 6.32812 17.25 6.32812C16.9912 6.32812 16.7813 6.53803 16.7813 6.79688C16.7813 7.05572 16.9912 7.26562 17.25 7.26562H18.8438V9.1875C18.8438 11.2367 17.185 12.9375 15.0938 12.9375C13.0027 12.9375 11.3438 11.2368 11.3438 9.1875ZM13.7616 15.176C13.989 15.1396 14.1562 14.9434 14.1562 14.7131V13.7805C14.463 13.8428 14.7764 13.875 15.0938 13.875C15.4111 13.875 15.7245 13.8428 16.0312 13.7805V14.7131C16.0312 14.9434 16.1985 15.1396 16.4259 15.176L17.9817 15.4249L15.0938 19.2756L12.2058 15.4249L13.7616 15.176ZM16.0781 23.0625H14.1562V20.9062H16.0781V23.0625ZM7.125 19.0758C7.125 17.4315 8.30353 16.0495 9.92719 15.7896L11.1595 15.5924L14.4417 19.9688H13.6875C13.4287 19.9688 13.2188 20.1787 13.2188 20.4375V23.0625H9.9375V20.4375C9.9375 20.1787 9.72764 19.9688 9.46875 19.9688C9.20986 19.9688 9 20.1787 9 20.4375V23.0625H7.125V19.0758ZM23.0625 23.0625H21.1875V20.4375C21.1875 20.1787 20.9776 19.9688 20.7188 19.9688C20.4599 19.9688 20.25 20.1787 20.25 20.4375V23.0625H17.0156V20.4375C17.0156 20.1787 16.8057 19.9688 16.5469 19.9688H15.7458L19.028 15.5924L20.2603 15.7896C21.884 16.0495 23.0625 17.4315 23.0625 19.0758V23.0625Z" fill="#A2792C"/>
<path d="M16.717 10.1253C16.8466 9.90121 16.77 9.61447 16.5458 9.48491C16.3217 9.3553 16.035 9.43199 15.9054 9.6561C15.7382 9.94536 15.4272 10.1251 15.0939 10.1251C14.7606 10.1251 14.4496 9.94536 14.2823 9.6561C14.1528 9.43208 13.8662 9.35525 13.6419 9.48491C13.4178 9.61447 13.3411 9.90121 13.4707 10.1253C13.805 10.7034 14.4269 11.0626 15.0939 11.0626C15.7609 11.0626 16.3828 10.7034 16.717 10.1253Z" fill="#A2792C"/>
<path d="M0.46875 23.0625C0.209859 23.0625 0 23.2724 0 23.5312C0 23.7901 0.209859 24 0.46875 24H3.28125C3.54014 24 3.75 23.7901 3.75 23.5312C3.75 23.2724 3.54014 23.0625 3.28125 23.0625H2.34375V15.4111L9.08034 12.7165C9.25833 12.6453 9.375 12.4729 9.375 12.2812C9.375 12.0896 9.25833 11.9172 9.08034 11.846L2.34375 9.15136V6.65625C2.34375 6.39741 2.13389 6.1875 1.875 6.1875C1.61611 6.1875 1.40625 6.39741 1.40625 6.65625V23.0625H0.46875ZM7.64409 12.2812L2.34375 14.4014V10.1611L7.64409 12.2812Z" fill="#A2792C"/>
<path d="M15.1406 7.26562C15.3995 7.26562 15.6094 7.05576 15.6094 6.79688C15.6094 6.53799 15.3995 6.32812 15.1406 6.32812C14.8817 6.32812 14.6719 6.53799 14.6719 6.79688C14.6719 7.05576 14.8817 7.26562 15.1406 7.26562Z" fill="#A2792C"/>
</svg>
