<svg width="35" height="35" viewBox="0 0 35 35" fill="none" xmlns="http://www.w3.org/2000/svg">
<g clip-path="url(#clip0)">
<path d="M33.3671 9.27701C34.1869 9.27701 34.973 9.60267 35.5527 10.1824C36.1324 10.762 36.458 11.5483 36.458 12.3681V18.5502C36.458 19.37 36.1324 20.1562 35.5527 20.7359C34.973 21.3156 34.1869 21.6412 33.3671 21.6412H31.7258C31.3491 24.6292 29.8949 27.377 27.6362 29.3689C25.3775 31.3608 22.4695 32.4599 19.458 32.46V29.3689C21.9173 29.3689 24.2758 28.3919 26.0148 26.6528C27.7538 24.9138 28.7307 22.5551 28.7307 20.0957V10.8225C28.7307 8.36314 27.7538 6.00447 26.0148 4.26541C24.2758 2.52635 21.9173 1.54936 19.458 1.54936C16.9987 1.54936 14.6402 2.52635 12.9012 4.26541C11.1622 6.00447 10.1853 8.36314 10.1853 10.8225V21.6412H5.54892C4.72916 21.6412 3.94297 21.3156 3.36331 20.7359C2.78366 20.1562 2.45801 19.37 2.45801 18.5502V12.3681C2.45801 11.5483 2.78366 10.762 3.36331 10.1824C3.94297 9.60267 4.72916 9.27701 5.54892 9.27701H7.19019C7.56733 6.28934 9.02168 3.54197 11.2803 1.5504C13.539 -0.441163 16.4468 -1.54004 19.458 -1.54004C22.4692 -1.54004 25.377 -0.441163 27.6357 1.5504C29.8943 3.54197 31.3487 6.28934 31.7258 9.27701H33.3671ZM12.9053 21.309L14.5435 18.6877C16.0164 19.6105 17.7199 20.0985 19.458 20.0957C21.1961 20.0985 22.8996 19.6105 24.3726 18.6877L26.0107 21.309C24.0469 22.5394 21.7755 23.1903 19.458 23.1868C17.1405 23.1903 14.8692 22.5394 12.9053 21.309Z" fill="#E2C022"/>
</g>
<defs>
<clipPath id="clip0">
<rect width="35" height="35" fill="white"/>
</clipPath>
</defs>
</svg>
