<svg width="33" height="33" viewBox="0 0 33 33" fill="none" xmlns="http://www.w3.org/2000/svg">
<path d="M31.3671 9.27798C32.1869 9.27798 32.973 9.60365 33.5527 10.1833C34.1324 10.763 34.458 11.5492 34.458 12.369V18.5512C34.458 19.371 34.1324 20.1572 33.5527 20.7369C32.973 21.3166 32.1869 21.6422 31.3671 21.6422H29.7258C29.3491 24.6302 27.8949 27.378 25.6362 29.3699C23.3775 31.3618 20.4695 32.4609 17.458 32.4609V29.3699C19.9173 29.3699 22.2758 28.3929 24.0148 26.6538C25.7538 24.9148 26.7307 22.5561 26.7307 20.0967V10.8235C26.7307 8.36411 25.7538 6.00545 24.0148 4.26639C22.2758 2.52733 19.9173 1.55033 17.458 1.55033C14.9987 1.55033 12.6402 2.52733 10.9012 4.26639C9.16223 6.00545 8.18528 8.36411 8.18528 10.8235V21.6422H3.54892C2.72916 21.6422 1.94297 21.3166 1.36331 20.7369C0.783656 20.1572 0.458008 19.371 0.458008 18.5512V12.369C0.458008 11.5492 0.783656 10.763 1.36331 10.1833C1.94297 9.60365 2.72916 9.27798 3.54892 9.27798H5.19019C5.56733 6.29031 7.02168 3.54294 9.28035 1.55138C11.539 -0.440186 14.4468 -1.53906 17.458 -1.53906C20.4692 -1.53906 23.377 -0.440186 25.6357 1.55138C27.8943 3.54294 29.3487 6.29031 29.7258 9.27798H31.3671ZM10.9053 21.3099L12.5435 18.6887C14.0164 19.6115 15.7199 20.0995 17.458 20.0967C19.1961 20.0995 20.8996 19.6115 22.3726 18.6887L24.0107 21.3099C22.0469 22.5404 19.7755 23.1913 17.458 23.1878C15.1405 23.1913 12.8692 22.5404 10.9053 21.3099Z" fill="black"/>
</svg>
