<svg width="28" height="28" viewBox="0 0 28 28" fill="none" xmlns="http://www.w3.org/2000/svg">
<path d="M14 2.33301C11.6926 2.33301 9.43692 3.01725 7.51835 4.2992C5.59977 5.58115 4.10443 7.40323 3.22141 9.53503C2.33838 11.6668 2.10734 14.0126 2.55751 16.2757C3.00767 18.5388 4.11881 20.6176 5.75042 22.2493C7.38203 23.8809 9.46083 24.992 11.7239 25.4422C13.9871 25.8923 16.3328 25.6613 18.4646 24.7783C20.5964 23.8952 22.4185 22.3999 23.7005 20.4813C24.9824 18.5628 25.6667 16.3071 25.6667 13.9997C25.6667 12.4676 25.3649 10.9505 24.7786 9.53503C24.1923 8.11957 23.3329 6.83345 22.2496 5.7501C21.1662 4.66675 19.8801 3.80738 18.4646 3.22108C17.0492 2.63478 15.5321 2.33301 14 2.33301ZM14 23.333C12.154 23.333 10.3495 22.7856 8.81468 21.7601C7.27982 20.7345 6.08354 19.2768 5.37712 17.5714C4.67071 15.8659 4.48588 13.9893 4.846 12.1788C5.20613 10.3683 6.09505 8.7053 7.40034 7.40001C8.70563 6.09472 10.3687 5.20581 12.1792 4.84568C13.9896 4.48555 15.8663 4.67038 17.5717 5.3768C19.2772 6.08322 20.7348 7.27949 21.7604 8.81435C22.7859 10.3492 23.3333 12.1537 23.3333 13.9997C23.3333 16.475 22.35 18.849 20.5997 20.5993C18.8493 22.3497 16.4754 23.333 14 23.333Z" fill="white"/>
<path d="M14 7.00008C12.917 7.00008 11.8784 7.43029 11.1126 8.19606C10.3469 8.96183 9.91666 10.0004 9.91666 11.0834C9.91666 11.3928 10.0396 11.6896 10.2584 11.9084C10.4772 12.1272 10.7739 12.2501 11.0833 12.2501C11.3928 12.2501 11.6895 12.1272 11.9083 11.9084C12.1271 11.6896 12.25 11.3928 12.25 11.0834C12.25 10.7373 12.3526 10.399 12.5449 10.1112C12.7372 9.82338 13.0105 9.59908 13.3303 9.46662C13.6501 9.33417 14.0019 9.29951 14.3414 9.36704C14.6809 9.43456 14.9927 9.60123 15.2374 9.84597C15.4822 10.0907 15.6488 10.4025 15.7164 10.742C15.7839 11.0815 15.7492 11.4333 15.6168 11.7531C15.4843 12.0729 15.26 12.3462 14.9722 12.5385C14.6845 12.7308 14.3461 12.8334 14 12.8334C13.6906 12.8334 13.3938 12.9563 13.175 13.1751C12.9562 13.3939 12.8333 13.6907 12.8333 14.0001V16.3334C12.8333 16.6428 12.9562 16.9396 13.175 17.1584C13.3938 17.3772 13.6906 17.5001 14 17.5001C14.3094 17.5001 14.6062 17.3772 14.825 17.1584C15.0437 16.9396 15.1667 16.6428 15.1667 16.3334V14.9801C16.1095 14.7048 16.9209 14.0979 17.4516 13.2714C17.9822 12.4449 18.1962 11.4545 18.0541 10.4827C17.912 9.51082 17.4234 8.62309 16.6784 7.9831C15.9334 7.34311 14.9821 6.99398 14 7.00008Z" fill="white"/>
<path d="M14 20.9993C14.6443 20.9993 15.1667 20.477 15.1667 19.8327C15.1667 19.1883 14.6443 18.666 14 18.666C13.3557 18.666 12.8333 19.1883 12.8333 19.8327C12.8333 20.477 13.3557 20.9993 14 20.9993Z" fill="white"/>
</svg>
