<svg width="32" height="32" viewBox="0 0 32 32" fill="none" xmlns="http://www.w3.org/2000/svg">
<path d="M6.29038 7.66011C7.59719 7.66011 8.65657 6.60073 8.65657 5.29392C8.65657 3.98711 7.59719 2.92773 6.29038 2.92773C4.98357 2.92773 3.92419 3.98711 3.92419 5.29392C3.92419 6.60073 4.98357 7.66011 6.29038 7.66011Z" fill="#A2792C"/>
<path d="M12.1655 0.907299C11.5355 0.891237 11.0102 1.38692 10.9929 2.01717L10.8451 7.3973L8.06559 8.41405H4.71209L2.34447 6.52324L2.88366 1.58905C2.95222 0.962299 2.49966 0.398612 1.87278 0.330174C1.24585 0.261237 0.682346 0.714299 0.613846 1.34105L0.00640881 6.89949C-0.0360912 7.28817 0.123346 7.67161 0.428846 7.91561L3.59966 10.4479C3.61928 10.4635 3.63972 10.4779 3.66016 10.4921L1.76035 21.2689C1.68428 21.6617 1.98697 22.0245 2.38303 22.0245H3.25422V30.3061C3.25422 31.0628 3.86759 31.6761 4.62422 31.6761C5.38084 31.6761 5.99422 31.0627 5.99422 30.3061V22.0244H6.58572V30.306C6.58572 31.0627 7.19909 31.676 7.95572 31.676C8.71234 31.676 9.32572 31.0627 9.32572 30.306V22.0244H10.1969C10.5943 22.0244 10.8957 21.6619 10.8196 21.2689L8.92447 10.5312L12.3572 9.27555C12.7965 9.11486 13.0933 8.70236 13.1062 8.23474L13.2753 2.07999C13.2928 1.44961 12.7958 0.924612 12.1655 0.907299Z" fill="#A2792C"/>
<path d="M24.533 7.53738C25.8229 7.32829 26.699 6.11319 26.4899 4.82337C26.2808 3.53354 25.0657 2.65744 23.7759 2.86653C22.486 3.07562 21.6099 4.29072 21.819 5.58055C22.0281 6.87037 23.2432 7.74647 24.533 7.53738Z" fill="#A2792C"/>
<path d="M28.1686 16.5125L31.7425 12.1373C32.2261 11.5453 32.0017 10.6527 31.2949 10.3602L26.5719 8.40559C26.4335 8.34828 26.2852 8.31884 26.1354 8.31884H22.5796L19.8546 6.14266L17.1479 2.18747C16.7918 1.66716 16.0812 1.53391 15.561 1.89003C15.0406 2.24616 14.9075 2.95666 15.2636 3.47697L18.0666 7.57303C18.1305 7.66641 18.2079 7.74978 18.2964 7.82041C21.695 10.5325 21.4469 10.3407 21.5277 10.397L19.6278 21.1735C19.5517 21.5661 19.8544 21.929 20.2505 21.929H20.3515L19.8547 23.7105C19.7955 23.9228 19.7884 24.1463 19.834 24.3621L21.1514 30.5895C21.308 31.3298 22.0349 31.8028 22.7753 31.6463C23.5156 31.4897 23.9887 30.7626 23.8321 30.0223L22.5842 24.1233L23.1962 21.9291H24.4533V30.3059C24.4533 31.0626 25.0667 31.6759 25.8233 31.6759C26.58 31.6759 27.1933 31.0625 27.1933 30.3059V21.929H28.0645C28.4619 21.929 28.7633 21.5665 28.6872 21.1735L27.8377 16.7873C27.9609 16.7191 28.0741 16.6282 28.1686 16.5125ZM26.8606 10.9962L29.0022 11.8825L27.2929 13.975L26.8606 10.9962Z" fill="#A2792C"/>
</svg>
