<svg width="32" height="32" viewBox="0 0 32 32" fill="none" xmlns="http://www.w3.org/2000/svg">
<path d="M29.3333 17.333V29.333H2.66667V25.333L29.3333 17.333ZM28.9067 9.41296L22.48 5.94629L23.6 9.65296L10.1067 13.653C9.80662 13.2438 9.42885 12.8978 8.99497 12.6348C8.56108 12.3718 8.0796 12.1969 7.57806 12.1201C7.07652 12.0433 6.56476 12.0661 6.07206 12.1873C5.57936 12.3085 5.11538 12.5256 4.70667 12.8263C4.29752 13.1263 3.95153 13.5041 3.6885 13.938C3.42547 14.3719 3.25057 14.8534 3.17379 15.3549C3.09701 15.8564 3.11986 16.3682 3.24104 16.8609C3.36222 17.3536 3.57935 17.8176 3.88001 18.2263C5.13334 19.9596 7.56001 20.3196 9.28001 19.053C10.2267 18.373 10.8 17.293 10.8533 16.1196L24.3467 12.1196L25.4667 15.8263L28.9067 9.41296Z" fill="#A2792C"/>
</svg>
