<svg width="24" height="24" viewBox="0 0 24 24" fill="none" xmlns="http://www.w3.org/2000/svg">
<g clip-path="url(#clip0)">
<path d="M12 11.9595L10.7106 14.1085L12 16.2575L13.2893 14.1085L12 11.9595ZM12 11.9595L10.7106 14.1085L12 16.2575L13.2893 14.1085L12 11.9595ZM22.876 8.6229L17.8413 12.3678L12.6102 3.21416C12.3407 2.74218 11.6592 2.74265 11.3897 3.21416L6.15861 12.3678L1.12389 8.6229C0.593796 8.22873 -0.139243 8.72133 0.0229255 9.36063L1.94457 16.9207H6.37562C6.76369 16.9207 7.07866 17.2356 7.07866 17.6237C7.07866 18.0118 6.76369 18.3268 6.37562 18.3268H2.30172L2.88196 20.6093C2.96117 20.9205 3.24192 21.1389 3.56345 21.1389H20.4365C20.758 21.1389 21.0387 20.9205 21.1179 20.6093L21.6982 18.3268H17.6243C17.2362 18.3268 16.9212 18.0118 16.9212 17.6237C16.9212 17.2356 17.2362 16.9207 17.6243 16.9207H22.0553L23.977 9.36063C24.1396 8.71992 23.4052 8.22966 22.876 8.6229ZM14.7118 14.4703L12.6027 17.9856C12.3309 18.4388 11.6709 18.4416 11.3972 17.9856L9.28808 14.4703C9.15451 14.2477 9.15451 13.9693 9.28808 13.7467L11.3972 10.2315C11.6691 9.77823 12.329 9.77542 12.6027 10.2315L14.7118 13.7467C14.8454 13.9693 14.8454 14.2477 14.7118 14.4703ZM10.7106 14.1085L12 16.2575L13.2893 14.1085L12 11.9595L10.7106 14.1085Z" fill="#A2792C"/>
<path d="M7.04913 7.97567L5.72506 10.2924L3.76123 8.8315L4.28008 6.23681C4.39912 5.64203 5.16778 5.46768 5.53196 5.95278L7.04913 7.97567Z" fill="#A2792C"/>
<path d="M20.2388 8.8315L18.275 10.2924L16.9509 7.97567L18.4681 5.95278C18.8318 5.46768 19.6009 5.64203 19.72 6.23681L20.2388 8.8315Z" fill="#A2792C"/>
</g>
<defs>
<clipPath id="clip0">
<rect width="24" height="24" fill="white"/>
</clipPath>
</defs>
</svg>
