<svg width="32" height="32" viewBox="0 0 32 32" fill="none" xmlns="http://www.w3.org/2000/svg">
<path d="M28.3299 6.92662C28.1482 3.13291 25.3718 0 21.971 0C18.625 0 16.0001 2.78431 16.0001 2.78431C16.0001 2.78431 13.525 0 10.0289 0C6.62833 0 3.85165 3.13291 3.66992 6.92662C3.5674 9.06963 4.1858 10.7004 5.05737 12.1777C5.61824 13.1286 6.95539 14.3948 8.50971 15.6741L10.8075 23.5474H7.50194V26.6831H9.99887L11.9075 32H20.0922L22.0009 26.6831H24.407V23.5474H21.1923L23.4855 15.6896C25.0389 14.4087 26.3771 13.138 26.9424 12.1777C27.8161 10.6938 28.4326 9.06963 28.3299 6.92662ZM19.0622 23.5474H12.9376L11.2629 17.8093C13.7539 19.6486 16.0112 21.1155 16.0112 21.1155C16.0112 21.1155 18.2525 19.6599 20.7313 17.8283L19.0622 23.5474Z" fill="#A2792C"/>
</svg>
