<svg width="13" height="19" viewBox="0 0 13 19" fill="none" xmlns="http://www.w3.org/2000/svg">
<path d="M9.05821 0.082029C7.64795 0.0547066 6.54218 0.218641 5.7409 0.573832C4.71526 1.01099 3.81783 1.9946 3.04859 3.52465C3.01654 3.44268 2.95244 3.34706 2.85629 3.23777C2.50372 2.69132 2.23129 2.29514 2.03898 2.04924C1.84667 1.80334 1.58225 1.53012 1.24571 1.22957C0.909172 0.929024 0.532569 0.696783 0.115902 0.532849C-0.845636 0.123013 -2.01551 6.1743e-05 -3.39371 0.163996C-5.25269 0.54651 -6.32641 1.61208 -6.61487 3.36072C-6.96743 4.48094 -6.59884 5.73777 -5.5091 7.13121C-4.73987 8.14214 -4.29115 8.72957 -4.16294 8.89351C-3.93859 9.16673 -3.36967 9.80881 -2.45621 10.8197C-1.54275 11.8307 -0.925765 12.541 -0.605252 12.9509C0.965261 15.0547 1.94283 16.5165 2.32744 17.3361C2.35949 17.3908 2.47968 17.6572 2.68802 18.1353C2.89635 18.6135 3.01654 18.8798 3.04859 18.9345C3.68962 16.5301 5.58065 13.7432 8.72167 10.5738C12.3755 6.9946 13.5454 4.19405 12.2313 2.17219C11.6864 1.13394 10.6287 0.43722 9.05821 0.082029Z" fill="#E2C022"/>
</svg>
