<svg width="32" height="32" viewBox="0 0 32 32" fill="none" xmlns="http://www.w3.org/2000/svg">
<path d="M8.62668 8.88423C9.35546 8.88423 9.94624 8.29344 9.94624 7.56467C9.94624 6.8359 9.35546 6.24512 8.62668 6.24512C7.89791 6.24512 7.30713 6.8359 7.30713 7.56467C7.30713 8.29344 7.89791 8.88423 8.62668 8.88423Z" fill="#A2792C"/>
<path d="M13.7645 9.08886L16.6561 9.56397L12.9627 11.7009L12.8712 12.604L13.0005 16.768L14.5561 16.4449L14.6005 13.2209C17.6232 12.0689 20.0672 10.8115 19.2672 8.96975L18.2925 7.2373L11.6347 7.30797L10.9961 8.43464L12.3383 10.3502L9.88805 10.5457C9.67694 10.9244 9.91427 11.7466 10.3725 11.7671C11.2285 11.82 12.0618 11.8173 12.7089 11.6595C13.5623 11.4031 13.9414 10.9515 14.0294 10.1782C13.7623 9.08842 13.8889 9.41019 13.7623 9.08842L13.7645 9.08886Z" fill="#A2792C"/>
<path d="M9.59977 8.5688C10.3285 8.5688 10.9193 7.97801 10.9193 7.24924C10.9193 6.52047 10.3285 5.92969 9.59977 5.92969C8.871 5.92969 8.28021 6.52047 8.28021 7.24924C8.28021 7.97801 8.871 8.5688 9.59977 8.5688Z" stroke="#A2792C" stroke-width="2" stroke-miterlimit="10"/>
<path d="M11.2753 10.7071C12.6318 10.6937 13.9887 10.9226 13.2811 9.89018C12.2931 8.6844 12.0784 9.13329 12.2033 7.77685C12.3913 7.32573 12.8176 6.88707 13.3064 6.88085C15.2807 6.83329 17.1407 7.23018 19.0042 7.59373C19.3642 7.70973 19.7616 7.87996 20.0318 8.3484C20.2727 8.77418 20.3882 9.09107 20.3469 9.57774C20.3469 9.57774 20.2993 10.3946 20.018 10.7595C19.0287 12.0422 16.2331 12.5733 15.646 13.0977L15.5358 15.2755C15.5033 15.9364 15.446 16.7715 14.8367 16.8293C14.0887 16.9004 13.8753 16.2551 13.8576 15.5617C13.8576 15.5617 13.7807 13.3093 13.7789 12.9533C13.7767 12.5973 14.1278 11.9066 14.4611 11.5982C14.7944 11.2897 14.5567 11.4151 15.3007 11.0791L17.4104 10.1244C18.0749 9.59685 17.8162 9.43729 17.4438 9.33374C17.0713 9.23062 15.1656 9.04618 15.1656 9.04618" stroke="#A2792C" stroke-width="2" stroke-miterlimit="10" stroke-linecap="round" stroke-linejoin="round"/>
<path d="M11.9999 13.556C11.5554 13.1115 10.4661 11.5782 9.33318 10.4449C8.88874 10.0004 7.99985 9.55599 7.99985 9.55599L7.11096 8.22266" stroke="#A2792C" stroke-width="2" stroke-miterlimit="10" stroke-linecap="round" stroke-linejoin="round"/>
<path d="M20.4442 15.7782C20.4442 15.7782 19.9998 17.1116 20.4442 18.0004C20.9722 19.0569 23.018 21.556 23.018 22.0004L21.7776 23.3338C21.7776 23.3338 21.2718 23.6662 21.278 23.9453C21.2962 24.7973 22.1291 24.6671 22.1291 24.6671C22.1291 24.6671 24.9638 22.1942 24.8887 22.0004C24.662 21.4142 24.2811 20.3404 23.9998 19.7782C23.5553 18.8893 25.7776 17.556 25.7776 16.2227C25.7776 15.5111 25.3331 13.556 23.5553 13.1116C22.7887 12.9196 21.8785 12.8933 20.9073 12.9564" stroke="#A2792C" stroke-width="2" stroke-miterlimit="10" stroke-linecap="round" stroke-linejoin="round"/>
<path d="M10.6664 26.4443C9.86644 26.1066 8.90778 25.5746 8.44422 25.111C8.28733 24.9541 8.16289 24.3399 8.44422 23.7777L9.77755 21.111C9.77755 21.111 9.14689 20.9248 8.44422 20.2221C7.99978 19.7777 8.05 17.9986 7.99978 17.111C7.95444 16.3034 7.11089 13.5554 7.11089 13.5554C7.11089 13.5554 5.33311 13.5554 3.55533 13.9999C3.25089 14.0763 2.42066 13.3074 2.66644 13.111C4.88866 11.3332 4.88866 11.3332 6.222 10.4443" stroke="#A2792C" stroke-width="2" stroke-miterlimit="10" stroke-linecap="round" stroke-linejoin="round"/>
<path d="M11.5554 25.1113C11.5554 25.1113 11.8012 25.3447 12.1021 25.6296C12.1734 25.6981 12.2306 25.7801 12.2702 25.8708C12.3098 25.9615 12.331 26.0592 12.3328 26.1581C12.3345 26.2571 12.3167 26.3554 12.2803 26.4474C12.2439 26.5395 12.1897 26.6234 12.1207 26.6944C11.8301 26.9949 11.3847 27.0611 11.1296 26.8424L10.6665 26.4447" stroke="#A2792C" stroke-width="2" stroke-miterlimit="10" stroke-linecap="round" stroke-linejoin="round"/>
<path d="M20.8887 19.334C20.8887 19.334 17.6065 20.8269 16.4443 21.1118C15.3598 21.3775 12.4443 21.5562 12.4443 21.5562C10.6665 23.334 10.222 24.2229 10.222 24.2229C10.222 24.2229 10.946 24.8193 11.5554 25.1118" stroke="#A2792C" stroke-width="2" stroke-miterlimit="10" stroke-linecap="round" stroke-linejoin="round"/>
<path d="M21.3331 19.7783C21.3331 19.7783 20.3806 22.7957 19.9997 23.7783C19.7908 24.3174 19.7251 24.6325 19.3144 25.5374C18.9482 26.3445 18.9099 26.4788 18.9099 26.4788C18.7757 26.9494 18.9664 27.4334 19.3331 27.5561C19.6997 27.6788 20.1775 27.4197 20.3948 26.9819L20.8611 26.0423" stroke="#A2792C" stroke-width="2" stroke-miterlimit="10" stroke-linecap="round" stroke-linejoin="round"/>
<path d="M6.66652 25.5557V26.4446C6.66652 26.9334 6.36652 27.3334 5.99986 27.3334C5.63319 27.3334 5.33319 27.0223 5.33319 26.6414V25.5743" stroke="#A2792C" stroke-width="2" stroke-miterlimit="10" stroke-linecap="round" stroke-linejoin="round"/>
<path d="M7.99984 20.2227C7.99984 20.2227 5.77762 21.556 5.33318 22.0004C4.88873 22.4449 4.88873 22.9827 4.88873 23.3338C4.88873 23.564 5.1034 24.6022 5.33318 25.5747" stroke="#A2792C" stroke-width="2" stroke-miterlimit="10" stroke-linecap="round" stroke-linejoin="round"/>
<path d="M24.7464 13.5689L25.7775 13.5547C25.7775 13.5547 28.8886 14.888 28.4442 16.6658C28.1206 17.9591 26.222 19.3325 28.4442 21.5547" stroke="#A2792C" stroke-width="2" stroke-miterlimit="10" stroke-linecap="round" stroke-linejoin="round"/>
<path d="M6.6665 23.7783V25.5561" stroke="#A2792C" stroke-width="2" stroke-miterlimit="10" stroke-linecap="round" stroke-linejoin="round"/>
</svg>
