<svg width="21" height="20" viewBox="0 0 21 20" fill="none" xmlns="http://www.w3.org/2000/svg">
<g clip-path="url(#clip0)">
<path d="M9.33366 3.33366C9.33366 2.40866 10.0753 1.66699 11.0003 1.66699C11.9253 1.66699 12.667 2.40866 12.667 3.33366C12.667 4.25866 11.9253 5.00033 11.0003 5.00033C10.0753 5.00033 9.33366 4.25866 9.33366 3.33366ZM12.667 18.3337V13.3337H14.7503L12.6337 6.97533C12.5222 6.64342 12.3095 6.35479 12.0255 6.15001C11.7415 5.94523 11.4005 5.8346 11.0503 5.83366H10.9503C10.5999 5.83334 10.2583 5.94349 9.97403 6.14844C9.68979 6.3534 9.47738 6.64273 9.36699 6.97533L8.65033 9.12533C9.55033 9.62533 10.167 10.567 10.167 11.667V18.3337H12.667ZM6.41699 9.58366C7.10866 9.58366 7.66699 9.02533 7.66699 8.33366C7.66699 7.64199 7.10866 7.08366 6.41699 7.08366C5.72533 7.08366 5.16699 7.64199 5.16699 8.33366C5.16699 9.02533 5.72533 9.58366 6.41699 9.58366ZM0.583659 5.00033C1.50866 5.00033 2.25033 4.25866 2.25033 3.33366C2.25033 2.40866 1.50866 1.66699 0.583659 1.66699C-0.341341 1.66699 -1.08301 2.40866 -1.08301 3.33366C-1.08301 4.25866 -0.341341 5.00033 0.583659 5.00033ZM2.25033 18.3337V12.5003H3.50033V7.50033C3.50033 6.58366 2.75033 5.83366 1.83366 5.83366H-0.666341C-1.58301 5.83366 -2.33301 6.58366 -2.33301 7.50033V12.5003H-1.08301V18.3337H2.25033ZM7.66699 18.3337V15.0003H8.50033V11.667C8.50033 10.9837 7.93366 10.417 7.25033 10.417H5.58366C4.90033 10.417 4.33366 10.9837 4.33366 11.667V15.0003H5.16699V18.3337H7.66699Z" fill="#E2C022"/>
</g>
<defs>
<clipPath id="clip0">
<rect width="20.3779" height="20" fill="white" transform="translate(0.137695)"/>
</clipPath>
</defs>
</svg>
