<svg width="32" height="32" viewBox="0 0 32 32" fill="none" xmlns="http://www.w3.org/2000/svg">
<path d="M21.3333 5.33366C21.3333 3.85366 22.52 2.66699 24 2.66699C25.48 2.66699 26.6666 3.85366 26.6666 5.33366C26.6666 6.81366 25.48 8.00033 24 8.00033C22.52 8.00033 21.3333 6.81366 21.3333 5.33366ZM26.6666 29.3337V21.3337H30L26.6133 11.1603C26.4349 10.6293 26.0946 10.1675 25.6402 9.83982C25.1858 9.51218 24.6402 9.33516 24.08 9.33366H23.92C23.3593 9.33315 22.8127 9.50938 22.3579 9.83731C21.9031 10.1652 21.5632 10.6282 21.3866 11.1603L20.24 14.6003C21.68 15.4003 22.6666 16.907 22.6666 18.667V29.3337H26.6666ZM16.6666 15.3337C17.7733 15.3337 18.6666 14.4403 18.6666 13.3337C18.6666 12.227 17.7733 11.3337 16.6666 11.3337C15.56 11.3337 14.6666 12.227 14.6666 13.3337C14.6666 14.4403 15.56 15.3337 16.6666 15.3337ZM7.33329 8.00033C8.81329 8.00033 9.99996 6.81366 9.99996 5.33366C9.99996 3.85366 8.81329 2.66699 7.33329 2.66699C5.85329 2.66699 4.66663 3.85366 4.66663 5.33366C4.66663 6.81366 5.85329 8.00033 7.33329 8.00033ZM9.99996 29.3337V20.0003H12V12.0003C12 10.5337 10.8 9.33366 9.33329 9.33366H5.33329C3.86663 9.33366 2.66663 10.5337 2.66663 12.0003V20.0003H4.66663V29.3337H9.99996ZM18.6666 29.3337V24.0003H20V18.667C20 17.5737 19.0933 16.667 18 16.667H15.3333C14.24 16.667 13.3333 17.5737 13.3333 18.667V24.0003H14.6666V29.3337H18.6666Z" fill="#A2792C"/>
</svg>
