<svg width="32" height="32" viewBox="0 0 32 32" fill="none" xmlns="http://www.w3.org/2000/svg">
<path d="M16 8.00033C17.4728 8.00033 18.6667 6.80642 18.6667 5.33366C18.6667 3.8609 17.4728 2.66699 16 2.66699C14.5273 2.66699 13.3334 3.8609 13.3334 5.33366C13.3334 6.80642 14.5273 8.00033 16 8.00033Z" fill="#A2792C"/>
<path d="M25.3334 17.3336V14.6669C23.2801 14.6936 21.2134 13.6669 19.9067 12.2269L18.1867 10.3202C17.9601 10.0669 17.6801 9.86689 17.3734 9.72022C17.3601 9.72022 17.3601 9.70689 17.3467 9.70689H17.3334C16.8667 9.44022 16.3334 9.30689 15.7467 9.36022C14.3467 9.48022 13.3334 10.7202 13.3334 12.1202V20.0002C13.3334 21.4669 14.5334 22.6669 16.0001 22.6669H22.6667V29.3336H25.3334V22.0002C25.3334 20.5336 24.1334 19.3336 22.6667 19.3336H18.6667V14.7336C20.3867 16.1602 23.0001 17.3202 25.3334 17.3336ZM17.1067 24.0002C16.5601 25.5469 15.0801 26.6669 13.3334 26.6669C11.1201 26.6669 9.33341 24.8802 9.33341 22.6669C9.33341 20.9202 10.4534 19.4536 12.0001 18.8936V16.1336C10.8202 16.3747 9.72768 16.931 8.83857 17.7432C7.94947 18.5555 7.29699 19.5934 6.95044 20.7468C6.6039 21.9001 6.57623 23.1258 6.87039 24.2936C7.16454 25.4614 7.76953 26.5277 8.62108 27.3792C9.47263 28.2308 10.5389 28.8358 11.7067 29.1299C12.8745 29.4241 14.1002 29.3964 15.2535 29.0499C16.4069 28.7033 17.4448 28.0508 18.2571 27.1617C19.0693 26.2726 19.6256 25.1801 19.8667 24.0002H17.1067Z" fill="#A2792C"/>
</svg>
