<svg width="32" height="32" viewBox="0 0 32 32" fill="none" xmlns="http://www.w3.org/2000/svg">
<path d="M16 20C18.2091 20 20 18.2091 20 16C20 13.7909 18.2091 12 16 12C13.7909 12 12 13.7909 12 16C12 18.2091 13.7909 20 16 20Z" fill="#A2792C"/>
<path d="M26.6666 5.33366H22.44L20.7866 3.53366C20.5382 3.26085 20.2355 3.04287 19.898 2.89364C19.5605 2.74441 19.1956 2.66722 18.8266 2.66699H13.1733C12.4266 2.66699 11.7066 2.98699 11.2 3.53366L9.55996 5.33366H5.33329C3.86663 5.33366 2.66663 6.53366 2.66663 8.00033V24.0003C2.66663 25.467 3.86663 26.667 5.33329 26.667H26.6666C28.1333 26.667 29.3333 25.467 29.3333 24.0003V8.00033C29.3333 6.53366 28.1333 5.33366 26.6666 5.33366ZM16 22.667C12.32 22.667 9.33329 19.6803 9.33329 16.0003C9.33329 12.3203 12.32 9.33366 16 9.33366C19.68 9.33366 22.6666 12.3203 22.6666 16.0003C22.6666 19.6803 19.68 22.667 16 22.667Z" fill="#A2792C"/>
</svg>
