<svg width="32" height="32" viewBox="0 0 32 32" fill="none" xmlns="http://www.w3.org/2000/svg">
<path d="M29.7447 13.2234L29.7363 13.1588C29.7211 13.0779 29.6937 12.9998 29.6551 12.9271L25.6 6.39977C25.6 6.39977 25.0829 5.75977 24.96 5.75977H7.68003L2.48323 12.7057L2.42179 12.7697L2.41347 12.7998C2.36957 12.8703 2.33351 12.9454 2.30595 13.0238L2.28483 13.0858C2.22495 13.2845 2.22786 13.4969 2.29315 13.6938L2.31747 13.7636C2.35011 13.8462 2.39043 13.9217 2.43779 13.9889L15.0016 29.9038L15.0272 29.9402C15.0919 30.0234 15.1706 30.097 15.2666 30.1642L15.3395 30.2097C15.4112 30.2545 15.4861 30.2903 15.5949 30.33L15.6659 30.3537C15.7888 30.385 15.8957 30.3998 16 30.3998C16.1056 30.3998 16.2087 30.3857 16.3475 30.3498L16.4327 30.3198C16.5159 30.2903 16.5907 30.2538 16.681 30.1982L16.7373 30.163C16.8339 30.0945 16.9114 30.0202 16.9543 29.962L29.5341 14.0305C29.6454 13.8821 29.7179 13.7083 29.7453 13.5249L29.7549 13.4423L29.76 13.377L29.7447 13.2234ZM22.9991 12.7998L24.7898 9.55945L26.5792 12.7998H22.9991ZM21.9251 14.7198H26.1735L19.0925 23.6894L21.9251 14.7198ZM20.8743 11.8282L18.288 8.31977H22.8128L20.8743 11.8282ZM12.5901 14.7198H19.4119L16 25.521L12.5901 14.7198ZM13.2666 12.7998L16 9.09033L18.7335 12.7998H13.2666ZM11.3415 11.5377L10.1562 8.31977H13.7127L11.3415 11.5377ZM12.9088 23.69L5.82723 14.7198H10.0762L12.9088 23.69ZM8.10563 9.58185L9.29155 12.7998H5.73443L8.10563 9.58185Z" fill="#A2792C"/>
</svg>
