<svg width="30" height="32" viewBox="0 0 30 32" fill="none" xmlns="http://www.w3.org/2000/svg">
<path d="M25.5255 19.7246C24.8874 19.7246 24.2781 19.8769 23.738 20.1393C23.192 20.3895 22.599 20.5209 21.9984 20.5246C21.3985 20.5207 20.8062 20.3894 20.2608 20.1393C19.704 19.8677 19.0929 19.7259 18.4733 19.7246C17.8423 19.7246 17.2324 19.8769 16.6852 20.1393C16.1423 20.3902 15.552 20.5216 14.954 20.5246C14.3529 20.5215 13.7594 20.3902 13.2132 20.1393C12.6562 19.8675 12.0448 19.7256 11.425 19.7246C10.7876 19.7246 10.1783 19.8769 9.63812 20.1393C9.0936 20.3892 8.50219 20.5205 7.90308 20.5246C7.3027 20.5209 6.70996 20.3895 6.1642 20.1393C5.61016 19.8676 5.00145 19.7257 4.38436 19.7246C3.74564 19.7246 3.16708 19.8769 2.62628 20.1393C2.09444 20.3799 1.56004 20.5246 0.920042 20.5246V23.2203C1.56004 23.2203 2.09444 23.0737 2.62756 22.8343C3.17946 22.5631 3.78604 22.4214 4.401 22.4203C5.03844 22.4203 5.63364 22.5726 6.17316 22.8343C6.63337 23.0377 7.1258 23.1584 7.62788 23.1908L5.46724 25.4199C5.12891 25.1997 4.72423 25.1047 4.32323 25.1513C3.92224 25.1979 3.55016 25.3833 3.2714 25.6753L0.796522 28.2391C0.109162 28.9515 0.108522 30.1054 0.796522 30.8247C0.957476 30.9935 1.15102 31.1279 1.36542 31.2197C1.57983 31.3115 1.81064 31.3589 2.04388 31.3589C2.27712 31.3589 2.50793 31.3115 2.72234 31.2197C2.93675 31.1279 3.13029 30.9935 3.29124 30.8247L5.76676 28.2615C6.32804 27.6785 6.42532 26.8081 6.0746 26.1175L9.0506 23.0379C9.25412 22.9713 9.44996 22.9214 9.6394 22.8343C10.1961 22.5632 10.807 22.4217 11.4263 22.4203C12.065 22.4203 12.6743 22.5726 13.2144 22.8343C13.7607 23.0852 14.3542 23.2167 14.9552 23.2203C15.5722 23.2203 16.1591 23.0737 16.6864 22.8343C17.2441 22.5645 17.8551 22.423 18.4746 22.4203C19.112 22.4203 19.7213 22.5726 20.2621 22.8343C20.8075 23.0843 21.3998 23.2159 21.9997 23.2203C22.6173 23.2203 23.2055 23.0737 23.7392 22.8343C24.2962 22.5631 24.9073 22.4215 25.5268 22.4203C26.1636 22.4203 26.7818 22.5726 27.3284 22.8343C27.8532 23.0743 28.44 23.2203 29.08 23.2203V20.5246C28.44 20.5246 27.8532 20.3793 27.3277 20.1393C26.7653 19.8687 26.1496 19.727 25.5255 19.7246ZM26.7242 6.54314L29.1991 3.97866C29.8928 3.25994 29.8928 2.1041 29.1991 1.39178C29.0388 1.22154 28.8455 1.08588 28.6308 0.993157C28.4162 0.900432 28.1849 0.852598 27.9511 0.852598C27.7173 0.852598 27.486 0.900432 27.2713 0.993157C27.0567 1.08588 26.8633 1.22154 26.7031 1.39178L24.2288 3.95626C23.6324 4.57386 23.5562 5.5185 23.9908 6.22314L20.913 9.41674L14.7997 7.06986C14.6366 6.97229 14.4626 6.8941 14.2813 6.8369C12.9476 6.42346 11.5383 7.20746 11.1383 8.58858L9.25988 15.1326L9.22212 15.3598H0.920042V18.8203C1.56004 18.8203 1.81796 18.7108 2.23204 18.5227C2.90771 18.1953 3.64828 18.0238 4.39908 18.0209C5.14148 18.0209 5.88516 18.1956 6.5514 18.5163C6.97587 18.7153 7.43874 18.8191 7.90756 18.8203C8.37412 18.8203 8.82724 18.7198 9.24836 18.5227C9.92844 18.1962 10.6725 18.0248 11.4269 18.0209C12.1776 18.0209 12.913 18.1879 13.5946 18.5163C14.0173 18.7157 14.4788 18.8196 14.9462 18.8207C15.4136 18.8218 15.8756 18.7201 16.2992 18.5227C16.9777 18.1961 17.7204 18.0247 18.4733 18.0209C19.2298 18.0209 19.9594 18.1879 20.6384 18.5163C21.0736 18.7191 21.544 18.8203 21.9984 18.8203C22.4624 18.8203 22.9245 18.7198 23.345 18.5227C24.0255 18.1953 24.7704 18.0239 25.5255 18.0209C25.6503 18.0209 26.1623 18.0612 26.6685 17.7131C27.5652 17.3067 27.9024 17.0743 28.6864 16.5764C29.3328 16.1662 29.8436 15.3598 28.44 15.3598H16.28L20.0362 11.6465L20.513 11.8347C21.1159 12.0599 21.7885 11.7406 22.0132 11.1153C22.0857 10.9042 22.0999 10.6774 22.0543 10.4589C22.0087 10.2403 21.9049 10.0382 21.754 9.8737L24.6564 6.85482C25.322 7.21898 26.1623 7.12362 26.7242 6.54314ZM15.2132 15.3598H14.4637L15.9773 10.1124L19.1044 11.3214L15.2132 15.3598ZM15.1927 3.7841L14.8701 4.43434C14.6596 4.87658 14.2256 5.11978 13.7271 5.11978H12.9687C13.4045 5.75978 14.2416 6.16426 15.0474 6.16426C16.3652 6.16426 17.56 5.05002 17.56 3.68362V3.83978H15.3053L15.1927 3.7841ZM13.7271 4.47978C13.9869 4.47978 14.2186 4.31786 14.3236 4.08618L14.6391 3.5121C14.7581 3.24266 15.0103 3.19978 15.3053 3.19978H17.7719C17.4487 1.91978 16.2928 0.779297 14.9264 0.779297C13.3053 0.779297 11.994 2.07082 11.994 3.7553C11.994 4.0241 12.0221 4.47978 12.0925 4.47978H13.7271Z" fill="#A2792C"/>
</svg>
