<svg width="32" height="32" viewBox="0 0 32 32" fill="none" xmlns="http://www.w3.org/2000/svg">
<g clip-path="url(#clip0)">
<path d="M15.9994 10.5561C17.245 10.5561 18.2551 9.54686 18.2551 8.3005C18.2551 7.50875 17.8457 6.81335 17.2277 6.41103C17.3503 6.32918 17.4899 6.2534 17.6521 6.18746C17.7292 6.15628 17.781 6.08309 17.7849 6.00016C17.7889 5.91712 17.7441 5.83939 17.6703 5.80095C17.3137 5.6156 16.8789 5.61192 16.4687 5.69052C16.5384 5.56017 16.6261 5.42689 16.7385 5.29188C16.7917 5.2279 16.8031 5.13901 16.7673 5.06398C16.7317 4.98895 16.6556 4.94142 16.5725 4.9424C15.7481 4.95182 14.9919 5.78742 14.6907 6.28728C14.637 6.37628 14.5938 6.4695 14.5614 6.5639C14.0622 6.97748 13.7439 7.60196 13.7439 8.3005C13.7439 9.54686 14.7539 10.5561 15.9994 10.5561Z" fill="#A2792C"/>
<path d="M31.8401 17.3855C31.2619 16.5246 29.1718 13.4123 28.2708 12.0708C28.1179 11.8429 27.8745 11.7394 27.6309 11.6661C27.3453 11.5802 24.7251 11.5795 24.4393 11.6673C24.1986 11.7412 23.9587 11.8455 23.8073 12.0709C23.5504 12.4534 22.002 14.7592 21.0196 16.2222C19.9691 14.658 18.2318 12.0709 18.2318 12.0709C18.0787 11.8429 17.8354 11.7395 17.5916 11.6662C17.3061 11.5803 14.6861 11.5797 14.4003 11.6674C14.1595 11.7413 13.9195 11.8456 13.7681 12.071C13.5137 12.4499 11.9634 14.7584 10.9805 16.2222C9.95767 14.6991 8.28722 12.2118 8.19281 12.071C8.03983 11.8431 7.79634 11.7396 7.55274 11.6663C7.26714 11.5804 4.64698 11.5798 4.36094 11.6676C4.12037 11.7415 3.88056 11.8457 3.72931 12.0712C3.36835 12.6088 0.520403 16.8493 0.160092 17.3858C-0.129737 17.8173 -0.0148662 18.4021 0.416684 18.6919C0.848234 18.9818 1.43298 18.8667 1.7227 18.4353L3.13439 16.3332C3.13439 16.3731 1.86247 21.5444 1.85295 21.5831C1.79308 21.8268 1.84872 22.0845 2.00355 22.2819C2.15848 22.4792 2.39536 22.5947 2.64643 22.5947H3.13731V25.8816C3.13731 26.5314 3.66403 27.0582 4.31384 27.0582C4.96366 27.0582 5.49038 26.5314 5.49038 25.8816V22.5947H6.43154V25.8816C6.43154 26.5314 6.95825 27.0582 7.60807 27.0582C8.25788 27.0582 8.7846 26.5314 8.7846 25.8816V22.5947H9.26963C9.5206 22.5947 9.75759 22.4793 9.91252 22.2819C10.0674 22.0845 10.1229 21.8268 10.0632 21.5831C10.0506 21.5315 8.78178 16.3778 8.78178 16.3246L10.1907 18.4225C10.3631 18.6897 10.6679 18.8518 10.9806 18.8518C11.2708 18.8518 11.5667 18.7172 11.7692 18.4247L13.1735 16.3335L13.1763 25.8817C13.1763 26.5315 13.703 27.0583 14.3529 27.0583C15.0027 27.0583 15.5294 26.5315 15.5294 25.8817V20.5873H16.4705V25.8817C16.4705 26.5315 16.9973 27.0583 17.6471 27.0583C18.2969 27.0583 18.8236 26.5315 18.8236 25.8817C18.8236 16.242 18.8208 16.3268 18.8208 16.3247L20.2302 18.4235C20.4968 18.8437 20.9541 18.8517 21.022 18.8518C21.3071 18.8521 21.6424 18.6787 21.8091 18.4235L23.2127 16.3333L23.2155 25.8817C23.2155 26.5315 23.7423 27.0583 24.3921 27.0583C25.0419 27.0583 25.5686 26.5315 25.5686 25.8817V20.5873H26.5098V25.8817C26.5098 26.5315 27.0365 27.0583 27.6863 27.0583C28.3361 27.0583 28.8628 26.5315 28.8628 25.8817C28.8628 16.2416 28.86 16.3269 28.86 16.3248L30.2774 18.4354C30.5673 18.8669 31.152 18.9818 31.5836 18.692C32.015 18.4017 32.1299 17.817 31.8401 17.3855Z" fill="#A2792C"/>
<path d="M26.0387 10.5561C27.2842 10.5561 28.2943 9.54686 28.2943 8.3005C28.2943 7.50875 27.8849 6.81335 27.2669 6.41103C27.3894 6.32918 27.529 6.2534 27.6913 6.18746C27.7684 6.15628 27.8201 6.08309 27.824 6.00016C27.8279 5.91712 27.7832 5.83939 27.7094 5.80095C27.3527 5.6156 26.918 5.61192 26.5079 5.69052C26.5775 5.56017 26.6651 5.42689 26.7776 5.29188C26.8309 5.228 26.8423 5.13912 26.8065 5.06398C26.7709 4.98895 26.6948 4.94142 26.6115 4.9424C25.7872 4.95192 25.0311 5.78742 24.7299 6.28728C24.6762 6.37628 24.6331 6.46939 24.6006 6.5638C24.1013 6.97748 23.783 7.60196 23.783 8.3005C23.7831 9.54686 24.7932 10.5561 26.0387 10.5561Z" fill="#A2792C"/>
<path d="M1.45927 11.2476C1.54221 11.2544 1.62135 11.2125 1.66238 11.1402C2.28199 10.0463 3.25401 10.1391 3.47173 9.73519C3.50172 9.67943 3.52532 9.62194 3.54275 9.56359C3.60923 9.63493 3.70256 9.67705 3.80075 9.67705C3.83951 9.67705 3.87914 9.67055 3.91779 9.65691C3.98318 9.63396 4.03699 9.59303 4.07694 9.54237C4.48067 10.1535 5.17271 10.557 5.9598 10.557C6.7469 10.557 7.43905 10.1534 7.84267 9.54226C7.88262 9.59304 7.93643 9.63396 8.00193 9.65702C8.04058 9.67055 8.0802 9.67705 8.11896 9.67705C8.21716 9.67705 8.31049 9.63493 8.37696 9.56359C8.39439 9.62194 8.418 9.67943 8.44799 9.73519C8.66571 10.1389 9.63762 10.0462 10.2572 11.1401C10.2982 11.2124 10.3773 11.2544 10.4602 11.2475C10.5432 11.2406 10.6144 11.1862 10.6429 11.108C10.925 10.3334 10.4101 9.33103 10.0487 8.87263C9.73777 8.47822 9.25923 8.26536 8.81707 8.50355C8.80137 8.51199 8.78697 8.52163 8.77203 8.53083L8.7756 8.52055C8.84024 8.3366 8.74345 8.13512 8.55961 8.07048C8.43359 8.02642 8.30031 8.05922 8.20753 8.14237C8.12546 6.97223 7.1516 6.04688 5.95991 6.04688C4.76822 6.04688 3.79447 6.97234 3.7123 8.14226C3.61962 8.05901 3.48635 8.02631 3.36022 8.07059C3.17627 8.13523 3.07959 8.33671 3.14433 8.52055L3.14791 8.53073C3.13286 8.52152 3.11857 8.51189 3.10287 8.50344C2.6606 8.26525 2.18206 8.47822 1.87101 8.87252C1.50962 9.33092 0.994593 10.3335 1.27684 11.1081C1.3051 11.1863 1.37645 11.2407 1.45927 11.2476Z" fill="#A2792C"/>
</g>
<defs>
<clipPath id="clip0">
<rect width="32" height="32" fill="white"/>
</clipPath>
</defs>
</svg>
