<svg width="34" height="32" viewBox="0 0 34 32" fill="none" xmlns="http://www.w3.org/2000/svg">
<path d="M16.7237 4C16.5606 4 16.4047 4.023 16.2457 4.031C11.4572 4.261 7.55225 7.848 7.55225 12.344C7.55225 15.293 9.37634 17.883 11.0873 19.75C12.1199 20.8764 13.2611 21.9022 14.495 22.813L14.7804 23H18.666L18.9534 22.812C18.9534 22.812 20.649 21.617 22.36 19.75C24.072 17.883 25.8951 15.293 25.8951 12.344C25.8951 7.836 21.9738 4.246 17.169 4.031C17.0214 4.01098 16.8727 4.00063 16.7237 4ZM16.7237 6C17.0019 6 17.8579 6.313 18.5386 7.156C19.2203 8 19.7808 9.328 19.7808 11.22C19.7808 15.536 17.4645 20.231 17.0742 21.001H16.3731C15.9828 20.227 13.6665 15.516 13.6665 11.219C13.6665 9.399 14.2515 8.055 14.9403 7.188C15.6292 6.32 16.4771 6 16.7237 6ZM12.5517 7.219C12.0024 8.309 11.6284 9.641 11.6284 11.219C11.6284 14.102 12.5079 17.051 13.3486 19.219C13.0969 18.969 12.8584 18.703 12.5843 18.406C11.0354 16.715 9.59034 14.45 9.59034 12.344C9.59034 10.242 10.7572 8.375 12.5517 7.219ZM20.9588 7.25C22.7218 8.41 23.857 10.262 23.857 12.344C23.857 14.449 22.412 16.714 20.863 18.406C20.5971 18.699 20.3464 18.946 20.0988 19.188C20.9313 17.028 21.8189 14.09 21.8189 11.218C21.8189 9.648 21.4806 8.328 20.9588 7.25ZM14.6856 25V28H18.7618V25H14.6856Z" fill="#A2792C"/>
</svg>
