<svg width="30" height="30" viewBox="0 0 30 30" fill="none" xmlns="http://www.w3.org/2000/svg">
<path d="M28.75 14.375C29.3519 14.9768 29.6528 15.6829 29.6528 16.493C29.6528 17.3032 29.3519 17.9861 28.75 18.5417L18.4028 28.9583C17.8009 29.5139 17.0949 29.7917 16.2847 29.7917C15.4745 29.7917 14.7917 29.5139 14.2361 28.9583L0.902778 15.625C0.300926 15.0231 0 14.3287 0 13.5417V3.12499C0 2.33795 0.289352 1.65508 0.868056 1.07638C1.44676 0.497673 2.15278 0.208322 2.98611 0.208322H13.3333C14.1667 0.208322 14.8611 0.486099 15.4167 1.04165L28.75 14.375ZM5.17361 7.56943C5.79861 7.56943 6.33102 7.3611 6.77083 6.94443C7.21065 6.52777 7.43056 6.00693 7.43056 5.38193C7.43056 4.75693 7.21065 4.22453 6.77083 3.78471C6.33102 3.3449 5.79861 3.12499 5.17361 3.12499C4.54861 3.12499 4.02778 3.3449 3.61111 3.78471C3.19444 4.22453 2.98611 4.75693 2.98611 5.38193C2.98611 6.00693 3.19444 6.52777 3.61111 6.94443C4.02778 7.3611 4.54861 7.56943 5.17361 7.56943Z" fill="#979797"/>
</svg>
