<svg width="24" height="24" viewBox="0 0 24 24" fill="none" xmlns="http://www.w3.org/2000/svg">
<path d="M10.8907 4.84312H7.14038L6.696 5.28713C6.29237 4.90022 5.84453 4.56226 5.36175 4.28025C5.01734 4.0794 4.65804 3.90527 4.287 3.75937C3.9742 2.89466 3.77822 1.99207 3.70425 1.0755C3.69 0.8985 3.56737 0.75 3.37912 0.75C3.21262 0.75 3.03863 0.8985 3.05325 1.0755C3.12112 1.89675 3.27563 2.70975 3.51863 3.49575C2.724 3.2595 1.89825 3.12075 1.0755 3.05288C0.8985 3.03863 0.75 3.21225 0.75 3.37875C0.75 3.56738 0.898875 3.69 1.0755 3.70462C2.001 3.78075 2.92463 3.96113 3.79538 4.27725C3.90038 4.54163 4.014 4.80263 4.14113 5.058C4.38604 5.55378 4.6885 6.01898 5.04225 6.444C5.11688 6.53288 5.19638 6.61987 5.27962 6.70425L4.84275 7.14112V10.8911L15.7774 23.25L23.25 15.7778L10.8907 4.84312ZM5.50313 5.98312C5.20088 5.62875 4.932 5.17875 4.70775 4.73587C4.6935 4.70737 4.68112 4.67775 4.66725 4.64925C5.01779 4.8247 5.35297 5.0293 5.66925 5.26088C5.85638 5.39813 6.04987 5.56575 6.23625 5.74725L5.742 6.2415C5.65908 6.15848 5.5794 6.07229 5.50313 5.98312ZM5.53087 10.6301V7.425L6.70275 6.25312C6.74063 6.2985 6.78075 6.3435 6.81675 6.38888L6.825 6.39937L6.83288 6.41025L6.88275 6.47812C6.97987 6.61249 7.07132 6.75086 7.15687 6.89288C7.19212 6.95175 7.22062 7.01437 7.25362 7.07475C7.22025 7.101 7.185 7.12463 7.15462 7.15462C6.93793 7.37203 6.81625 7.66648 6.81625 7.97344C6.81625 8.2804 6.93793 8.57484 7.15462 8.79225C7.26186 8.90024 7.38948 8.98585 7.53008 9.04411C7.67067 9.10237 7.82144 9.13211 7.97363 9.13163C8.283 9.13163 8.574 9.01125 8.79263 8.79225C9.00944 8.57483 9.13119 8.2803 9.13119 7.97325C9.13119 7.6662 9.00944 7.37167 8.79263 7.15425C8.54963 6.91087 8.20575 6.80813 7.87238 6.8355C7.8315 6.76013 7.79063 6.68475 7.74825 6.61237C7.57697 6.32278 7.38152 6.04818 7.164 5.7915L7.425 5.5305H10.6305L22.2472 15.8085L15.8085 22.2469L5.53087 10.6301ZM7.56713 7.752C7.578 7.78388 7.59075 7.81575 7.60125 7.84838C7.62263 7.91663 7.644 7.986 7.65863 8.05612C7.74375 8.469 8.37338 8.30025 8.28863 7.89112C8.26557 7.78253 8.23627 7.67535 8.20087 7.57013C8.23762 7.59075 8.2755 7.60988 8.30625 7.64062C8.49 7.82438 8.49 8.12325 8.30625 8.30625C8.12812 8.484 7.81838 8.48438 7.64062 8.30625C7.49025 8.1555 7.47038 7.9305 7.56713 7.752Z" fill="#A2792C"/>
</svg>
