<svg width="20" height="20" viewBox="0 0 20 20" fill="none" xmlns="http://www.w3.org/2000/svg">
<path d="M3.03347 6.26562L1.91708 6.82479L1.21097 7.31924L0.969857 8.07646L0.561523 9.24062L1.06597 9.88757L2.68625 9.44868L3.1368 9.88757L4.15652 10.422L4.50347 11.624L3.38069 12.7192L2.98708 13.9359L3.13708 14.6762L3.91597 15.3309L4.74958 14.5403C4.74958 14.5403 4.60402 13.7067 5.01069 13.3348C5.41763 12.9634 5.94847 12.2965 5.94847 12.2965V14.6298L6.11541 15.3367L6.73652 15.464L7.11208 14.9542L7.51763 11.3648L8.14736 11.4453L9.81236 11.5976L10.9812 11.0153L11.2974 12.2965L12.3246 13.3351L12.1051 14.6559L12.4315 15.2859L13.1371 14.8703L13.8032 13.7273V12.7192L12.6515 11.5951L14.7776 13.0801L15.5476 13.5742L15.7468 15.2103L16.279 15.4798L16.7835 15.0815L16.5668 12.572L16.0882 12.1892L15.1207 10.6059L15.1979 9.41007L15.0326 7.92674C14.0021 7.39229 12.9271 7.11924 11.8012 7.14479L9.4468 7.13007L7.38569 7.27646L6.04041 6.89035L4.14458 6.82479L3.67736 6.4409L3.03347 6.26562Z" fill="#F4AA41"/>
<path d="M11.7254 10.3017C11.7254 10.3017 8.75647 9.01029 7.76702 10.2431L7.51758 11.3645L8.73563 11.632L10.7356 11.25L11.7254 10.3017Z" fill="white"/>
<path d="M5.53359 11.3545L4.16775 12.0953L3.18164 13.335V14.8384L4.41081 15.2859L4.80442 14.4678C4.80442 14.4678 4.7197 13.7387 5.01109 13.3914C5.3022 13.0442 5.9272 12.2456 5.9272 12.2456L5.85775 11.6323L5.53359 11.3545Z" fill="white"/>
<path d="M11.2864 11.9558C11.2864 11.9558 13.4042 11.6027 14.0178 12.6791V13.715L12.9761 15.2852L12.3625 15.3361L12.05 14.9072L12.325 13.6919L12.1311 13.2405L11.7261 12.5377L11.2861 11.9558H11.2864Z" fill="white"/>
<path d="M15.0123 9.39822C15.0123 9.39822 15.7068 11.9735 16.7831 12.6796C17.8598 13.3854 18.3687 13.5071 18.9706 13.3913C19.4743 13.2946 19.4104 12.6796 19.4104 12.6796H18.8318L17.142 11.7824L16.7054 10.8727L16.5054 10.081L16.2045 8.96211L15.2423 8.06933L14.6768 7.75488L15.0123 9.39822Z" fill="#F4AA41"/>
<path d="M3.98047 6.80859H5.71908C5.92852 6.80859 6.13519 6.85359 6.32575 6.94026L6.58019 7.05609C6.96092 7.22984 7.38231 7.29483 7.79769 7.24387C9.31964 7.05554 13.0338 6.96804 14.4355 7.60665C16.361 8.48387 16.2366 9.65554 16.4766 10.2858C16.7169 10.9164 17.2985 12.7875 19.1619 12.6747" stroke="black" stroke-width="0.5" stroke-miterlimit="10" stroke-linecap="round" stroke-linejoin="round"/>
<path d="M5.05078 9.75772C5.16661 10.3549 5.45523 11.0572 6.05634 11.8266V14.9241C6.05634 15.0715 6.11487 15.2128 6.21906 15.3169C6.32324 15.4211 6.46455 15.4797 6.61189 15.4797H6.66467C6.80967 15.4799 6.94901 15.4234 7.05281 15.3221C7.15661 15.2209 7.21661 15.083 7.21995 14.938C7.24495 13.8358 7.6305 10.7136 7.90689 10.2616C7.90689 10.2616 7.72995 9.54967 7.55967 9.08105" stroke="black" stroke-width="0.5" stroke-miterlimit="10" stroke-linecap="round" stroke-linejoin="round"/>
<path d="M3.38887 9.72363C3.50442 9.90086 3.84887 10.1309 4.0797 10.2381C4.20137 10.2947 4.28887 10.4067 4.32359 10.5364L4.66887 11.8245C4.66887 11.8245 2.62637 12.9281 3.43248 14.8734C3.51498 15.0728 3.73359 15.2695 4.02303 15.3142C4.32581 15.3614 4.85664 15.1281 4.66887 14.5725" stroke="black" stroke-width="0.5" stroke-miterlimit="10" stroke-linecap="round" stroke-linejoin="round"/>
<path d="M7.77734 11.3016C7.77734 11.3016 9.87734 12.1205 11.6743 10.483C11.6743 10.483 11.7029 10.9675 13.4196 12.1733C13.4196 12.1733 14.4612 12.9786 15.5393 13.4825L15.6923 15.0533C15.7173 15.3116 16.0201 15.48 16.2796 15.48C16.5735 15.48 16.8051 15.2297 16.7826 14.9366L16.6118 12.7147C16.6001 12.5614 16.4896 12.4494 16.3471 12.3911C15.9796 12.2408 15.3979 11.2339 15.0187 10.383L14.9032 9.46191" stroke="black" stroke-width="0.5" stroke-miterlimit="10" stroke-linecap="round" stroke-linejoin="round"/>
<path d="M10.7139 11.1338C10.7139 11.1338 11.0894 12.2799 12.4555 13.5074L12.2133 14.6391C12.197 14.715 12.198 14.7937 12.216 14.8692C12.234 14.9448 12.2687 15.0154 12.3176 15.0758C12.3664 15.1362 12.4282 15.185 12.4983 15.2185C12.5684 15.2519 12.6451 15.2693 12.7228 15.2693V15.2693C12.9269 15.2693 13.1116 15.151 13.1964 14.9652C13.365 14.5952 13.5705 13.9871 13.7575 13.7041" stroke="black" stroke-width="0.5" stroke-miterlimit="10" stroke-linecap="round" stroke-linejoin="round"/>
<path d="M3.84062 7.24039C4.32257 6.47206 3.37534 5.95567 2.79784 6.4329C2.37312 6.78401 2.13673 6.77289 2.13673 6.77289C1.07507 7.06984 1.14979 7.86178 1.14979 7.86178L0.677844 9.15178C0.665024 9.1974 0.666077 9.24581 0.680868 9.29082C0.69566 9.33584 0.723521 9.37544 0.7609 9.40456L1.22479 9.76623C1.29423 9.82027 1.37677 9.85491 1.46398 9.86663C1.55118 9.87834 1.63994 9.8667 1.72118 9.83289C2.18784 9.64123 3.20451 9.08706 3.20451 8.26428" stroke="black" stroke-width="0.5" stroke-miterlimit="10" stroke-linecap="round" stroke-linejoin="round"/>
<path d="M6.05631 12.2803C6.05631 12.2803 5.23881 12.7219 4.85742 13.3186" stroke="black" stroke-width="0.5" stroke-miterlimit="10" stroke-linecap="round" stroke-linejoin="round"/>
<path d="M13.6613 9.91341C13.5952 9.91349 13.5302 9.89787 13.4714 9.86785C13.4125 9.83783 13.3617 9.79427 13.3231 9.74075C13.2844 9.68723 13.259 9.6253 13.249 9.56004C13.2389 9.49478 13.2446 9.42808 13.2654 9.36542C13.2862 9.30277 13.3216 9.24595 13.3687 9.19966C13.4157 9.15337 13.4731 9.11892 13.5361 9.09917C13.5991 9.07941 13.6659 9.07491 13.731 9.08603C13.7961 9.09715 13.8576 9.12358 13.9104 9.16313" stroke="black" stroke-width="0.5" stroke-miterlimit="10" stroke-linecap="round" stroke-linejoin="round"/>
<path d="M8.92713 8.96224C8.86118 8.9622 8.79618 8.9465 8.73748 8.91643C8.67878 8.88637 8.62805 8.8428 8.58947 8.78931C8.55089 8.73582 8.52556 8.67394 8.51556 8.60875C8.50556 8.54356 8.51118 8.47693 8.53195 8.41434C8.55272 8.35174 8.58806 8.29497 8.63505 8.2487C8.68203 8.20242 8.73934 8.16796 8.80224 8.14815C8.86515 8.12834 8.93186 8.12374 8.99689 8.13474C9.06191 8.14574 9.1234 8.17201 9.17629 8.21141" stroke="black" stroke-width="0.5" stroke-miterlimit="10" stroke-linecap="round" stroke-linejoin="round"/>
<path d="M11.2458 9.13214C11.1942 9.09101 11.1531 9.03821 11.1259 8.97809C11.0987 8.91797 11.0862 8.85225 11.0893 8.78633C11.0925 8.72042 11.1113 8.6562 11.1441 8.59896C11.177 8.54172 11.2229 8.4931 11.2782 8.4571C11.3335 8.42111 11.3966 8.39876 11.4622 8.3919C11.5279 8.38505 11.5942 8.39388 11.6558 8.41767C11.7173 8.44146 11.7723 8.47953 11.8163 8.52875C11.8602 8.57796 11.8919 8.63692 11.9086 8.70076" stroke="black" stroke-width="0.5" stroke-miterlimit="10" stroke-linecap="round" stroke-linejoin="round"/>
<path d="M4.86497 8.91632C4.81337 8.87519 4.77227 8.82239 4.74506 8.76227C4.71786 8.70215 4.70532 8.63643 4.70849 8.57051C4.71165 8.5046 4.73043 8.44038 4.76327 8.38314C4.79611 8.3259 4.84207 8.27728 4.89738 8.24128C4.95269 8.20529 5.01575 8.18294 5.08139 8.17608C5.14702 8.16923 5.21334 8.17806 5.27489 8.20185C5.33645 8.22564 5.39147 8.26371 5.43543 8.31293C5.47939 8.36214 5.51103 8.4211 5.52775 8.48494" stroke="black" stroke-width="0.5" stroke-miterlimit="10" stroke-linecap="round" stroke-linejoin="round"/>
<path d="M9.55469 9.88264C9.59798 9.83282 9.65249 9.79399 9.71373 9.76935C9.77497 9.74472 9.84119 9.73499 9.90693 9.74097C9.97266 9.74694 10.036 9.76845 10.0918 9.80371C10.1476 9.83898 10.1943 9.887 10.2279 9.94382C10.2615 10.0006 10.2811 10.0646 10.2851 10.1305C10.2891 10.1964 10.2775 10.2623 10.251 10.3228C10.2246 10.3833 10.1842 10.4366 10.1331 10.4784C10.082 10.5202 10.0217 10.5493 9.95719 10.5632" stroke="black" stroke-width="0.5" stroke-miterlimit="10" stroke-linecap="round" stroke-linejoin="round"/>
<path d="M6.11328 9.64534C6.15657 9.59551 6.21109 9.55668 6.27233 9.53205C6.33357 9.50742 6.39978 9.49769 6.46552 9.50366C6.53126 9.50964 6.59463 9.53114 6.65043 9.56641C6.70623 9.60168 6.75285 9.6497 6.78645 9.70651C6.82005 9.76333 6.83967 9.82731 6.8437 9.8932C6.84773 9.95908 6.83604 10.025 6.80961 10.0855C6.78318 10.146 6.74276 10.1993 6.69167 10.2411C6.64059 10.2829 6.5803 10.312 6.51578 10.3259" stroke="black" stroke-width="0.5" stroke-miterlimit="10" stroke-linecap="round" stroke-linejoin="round"/>
</svg>
