<svg width="24" height="24" viewBox="0 0 24 24" fill="none" xmlns="http://www.w3.org/2000/svg">
<path d="M12.2833 9.81452C11.3206 12.0763 16.229 12.2684 18.4429 13.3753C20.6568 14.4823 21.6673 16.7926 22.195 16.7926C24.9381 13.1346 20.6568 8.1298 20.6568 8.1298C20.6568 8.1298 19.0214 7.64844 18.682 6.06014C18.3457 4.47183 19.8368 2.11366 19.5962 3.31704C19.3578 4.51966 21.0888 5.14602 21.2824 5.96371C21.4745 6.7814 21.2346 8.1298 21.2346 8.1298C21.2346 8.1298 25.9023 10.9693 23.0157 17.6589C24.1227 22.1353 21.6704 22.1353 21.6704 22.1353C21.6704 22.1353 22.4873 23.7236 20.1777 23.7236C17.8674 23.7236 16.5213 23.7236 14.4509 23.7236C12.3797 23.7236 13.8716 21.991 14.7857 21.991C15.6998 21.991 16.4446 22.0199 16.8067 21.991C16.686 21.9994 14.0318 21.7853 14.5966 20.0003C11.2082 20.2782 6.79783 18.9109 6.79783 18.9109C6.79783 18.9109 4.65452 24.0493 3.06621 24.0007C1.47791 23.9537 0.195567 24.0956 0.314007 23.2415C0.575182 21.5332 2.92424 23.1701 3.13986 19.9199C3.28411 18.0438 4.34248 16.6468 4.34248 16.6468C4.34248 16.6468 1.4073 14.6728 2.37 8.99532C2.03746 9.02265 1.11879 9.1874 0.829524 8.60963C0.541017 8.03261 0.829524 7.35918 0.829524 7.35918C0.829524 7.35918 -0.396632 5.69722 0.132551 4.73452C0.660975 3.77106 2.83161 3.48635 3.84215 3.38993C4.25365 -0.533012 5.98697 -0.4662 8.68223 0.689347C13.1078 0.161683 14.2481 6.99854 12.2833 9.81452Z" fill="#A2792C"/>
</svg>
