<svg width="26" height="32" viewBox="0 0 26 32" fill="none" xmlns="http://www.w3.org/2000/svg">
<path d="M24.0414 1.44398C23.3146 -1.1138 19.3476 0.0164365 20.0744 2.57481C20.4277 3.81536 20.7769 5.04529 20.9775 6.30884C19.4656 6.90994 17.9207 7.49453 16.3309 7.76116C16.2035 7.66029 16.066 7.57062 15.9162 7.49158C15.5375 6.12125 14.9552 4.8229 14.3777 3.48443C14.0179 2.64678 13.3773 1.94834 12.3768 1.98668C9.82612 2.08579 7.32733 2.44798 5.02792 3.60594C2.65359 4.79989 4.80907 8.31802 7.1716 7.12938C8.38796 6.51825 9.7571 6.28878 11.118 6.18378C11.4643 6.95772 11.7875 7.74936 11.9887 8.55988C11.8483 8.79996 11.7468 9.06483 11.6996 9.35269C11.2955 11.8161 10.3989 14.0199 9.11884 16.1394C7.07485 15.3507 5.00609 14.6334 2.88306 14.0836C0.735847 13.5286 -0.174949 16.8438 1.96991 17.3971C4.47696 18.0477 6.90968 18.9296 9.31291 19.8876C9.42145 19.9307 9.52468 19.959 9.62615 19.9802C9.97949 20.2433 10.3918 20.4392 10.8272 20.5483C11.0956 23.8151 11.364 27.0814 11.633 30.3488C11.8129 32.5414 15.252 32.5585 15.0697 30.3488C14.7641 26.6319 14.4574 22.9138 14.1524 19.1974C14.15 19.1703 14.1453 19.1455 14.1406 19.1178C15.531 16.8585 16.6075 14.3733 17.1721 11.7754C19.4379 11.3436 21.5839 10.4546 23.7529 9.62641C24.5882 9.30727 25.3038 8.5935 25.2507 7.62489C25.1327 5.50422 24.6183 3.47971 24.0414 1.44398Z" fill="#A2792C"/>
<path d="M6.6637 20.8459L8.6658 26.7372C10.1924 26.1249 10.9923 24.4195 10.4573 22.8421C9.92109 21.2659 8.24874 20.4011 6.6637 20.8459Z" fill="#A2792C"/>
<path d="M6.49908 20.8927C6.55335 20.8738 6.6088 20.8614 6.66366 20.8467L6.07259 19.1035L5.18598 19.405L5.80596 21.2324C4.63502 21.9893 3.81801 22.3261 4.54712 24.852C5.27682 27.375 6.35869 27.0665 7.74907 26.9538L5.80655 21.233C6.01891 21.0944 6.24897 20.9776 6.49908 20.8927Z" fill="#A2792C"/>
</svg>
