<svg width="245" height="75" viewBox="0 0 245 75" fill="none" xmlns="http://www.w3.org/2000/svg">
<path fill-rule="evenodd" clip-rule="evenodd" d="M72.0086 10.5347C72.5304 10.8308 73.1323 10.9384 73.7195 10.8405C74.613 10.5446 74.5464 10.8405 75.6775 10.8405C76.5139 10.8405 77.8161 9.91328 77.7305 12.8134L78.0537 12.9021H78.1488L77.4169 14.1351C77.5689 14.2239 77.3313 14.2338 77.607 14.1351L77.8731 13.9971C77.8066 14.9243 78.2818 13.8984 77.8731 14.727C78.2675 14.5741 78.6018 14.2896 78.8236 13.9181C79.0751 13.5883 79.2858 13.2271 79.4509 12.8429C80.4014 9.28194 79.4509 10.4854 78.2438 9.50881C78.4673 9.35178 78.7276 9.26062 78.9971 9.24499C79.2666 9.22935 79.5351 9.28986 79.7741 9.42007C79.7741 9.03536 79.6695 9.1044 79.3178 8.91698C78.9662 8.72956 79.0232 8.6704 78.6905 8.44352C78.1677 8.07855 77.4644 8.44352 76.7895 8.31528C75.9341 7.20063 76.4569 7.1809 76.571 6.71728C75.6775 6.05638 73.8241 6.52984 72.674 6.62848C71.2578 6.75672 69.9271 6.34241 68.8721 6.43118L69.4614 6.61861C69.1857 6.81589 68.9861 6.67782 69.4614 6.76659C69.4614 6.76659 69.2428 7.07236 69.1667 6.92439L73.0257 6.86521C73.0558 7.10067 73.11 7.33214 73.1873 7.55572C73.4439 8.20676 73.7385 8.20675 73.9001 8.6605C74.0617 9.11426 73.9001 9.08471 74.1662 9.32145C74.1662 9.32145 74.1092 9.32145 74.0997 9.38063C73.8598 9.69739 73.5256 9.9228 73.1492 10.0218C72.655 10.1007 72.0942 10.1599 71.5905 10.1993L71.771 10.3177C71.9991 10.4854 71.8471 10.3276 72.0086 10.5347Z" fill="url(#paint0_linear)"/>
<path fill-rule="evenodd" clip-rule="evenodd" d="M104.332 19.7876C102.08 19.9947 101.766 19.61 100.977 21.1093C100.331 22.3122 100.025 23.6797 100.093 25.055L100.379 24.5224C100.512 24.9268 100.379 24.7591 100.616 24.917C100.92 23.0625 100.787 23.3979 102.051 22.3227L102.432 21.9281C102.926 21.3362 102.793 21.4842 102.641 21.1291C102.826 21.1687 103.016 21.1687 103.201 21.1291H103.287L103.525 21.0107C103.866 20.9326 104.219 20.9326 104.561 21.0107C104.684 20.557 104.304 21.1882 104.732 20.5569C105.515 21.2765 106.539 21.6484 107.583 21.5927C107.816 21.5553 108.055 21.5771 108.278 21.6561C108.502 21.7351 108.703 21.869 108.866 22.0464C109.56 21.79 108.676 21.8393 109.227 21.7703H109.446C109.265 21.573 109.142 21.5335 109.037 21.2573C108.933 20.9811 109.265 21.425 108.971 21.1093C108.971 21.1093 108.163 20.4287 108.134 20.409C108.838 19.4226 107.878 20.34 109.085 19.4226L109.693 19.0181C110.948 18.8406 110.035 18.4362 110.52 18.3178C111.166 18.2192 111.261 18.3967 111.965 18.446C112.491 18.4048 113.015 18.3323 113.533 18.229C114.55 18.1797 115.434 18.6532 116.632 18.6038C116.489 18.0416 116.347 18.6038 116.556 18.3967C116.765 18.1895 116.632 18.3967 116.632 18.3967L109.513 17.3511C108.058 17.2919 108.429 18.012 106.851 18.7814C106.356 19.0426 105.794 19.1358 105.245 19.0477C104.152 18.9096 104.57 19.4029 104.332 19.7876Z" fill="url(#paint1_linear)"/>
<path fill-rule="evenodd" clip-rule="evenodd" d="M93.9926 16.1669C94.9326 16.1669 95.8514 15.8776 96.6329 15.3357C97.4145 14.7937 98.0236 14.0235 98.3833 13.1223C98.743 12.221 98.8371 11.2294 98.6537 10.2726C98.4703 9.3159 98.0177 8.43705 97.3531 7.74728C96.6885 7.05752 95.8417 6.58782 94.9198 6.39752C93.9979 6.20721 93.0423 6.30484 92.174 6.67814C91.3056 7.05144 90.5634 7.6836 90.0412 8.49468C89.519 9.30576 89.2402 10.2593 89.2402 11.2348C89.2402 12.5429 89.7409 13.7974 90.6322 14.7224C91.5234 15.6473 92.7322 16.1669 93.9926 16.1669Z" fill="url(#paint2_linear)"/>
<path fill-rule="evenodd" clip-rule="evenodd" d="M95.5332 6.08646C95.4456 5.56564 95.5256 5.02937 95.761 4.56047C95.9964 4.09157 96.374 3.71614 96.8354 3.49217C97.2124 3.162 97.5032 2.73861 97.6809 2.26107C97.8586 1.78353 97.9176 1.2672 97.8524 0.759766C97.6708 1.33016 97.3791 1.85618 96.9951 2.30562C96.6111 2.75507 96.1428 3.11852 95.6188 3.3738C95.1788 3.63559 94.8166 4.01793 94.5719 4.47895C94.3271 4.93998 94.2092 5.46197 94.2311 5.98784L95.5332 6.08646Z" fill="url(#paint3_linear)"/>
<path fill-rule="evenodd" clip-rule="evenodd" d="M96.7873 6.62818C96.8339 6.10434 97.0453 5.61099 97.3888 5.22416C97.7324 4.83733 98.189 4.57852 98.6883 4.48766C99.135 4.26745 99.5214 3.93445 99.812 3.51912C100.103 3.10379 100.288 2.61938 100.352 2.11035C100.033 2.62544 99.6153 3.0666 99.1246 3.40611C98.6339 3.74562 98.0808 3.97614 97.5002 4.08319C97.0107 4.21769 96.5663 4.48955 96.2159 4.86889C95.8655 5.24822 95.6225 5.72042 95.5137 6.23364L96.7873 6.62818Z" fill="url(#paint4_linear)"/>
<path fill-rule="evenodd" clip-rule="evenodd" d="M97.8416 7.53592C98.0187 7.04198 98.347 6.62201 98.7763 6.34046C99.2055 6.05891 99.712 5.93139 100.218 5.97742C100.704 5.88627 101.16 5.66947 101.543 5.34705C101.927 5.02464 102.226 4.60703 102.413 4.13281C101.983 4.53453 101.477 4.83988 100.927 5.02995C100.378 5.22002 99.7967 5.29073 99.2198 5.2376C98.7136 5.23816 98.2173 5.38284 97.7849 5.65591C97.3526 5.92899 97.0007 6.31999 96.7676 6.78629L97.8416 7.53592Z" fill="url(#paint5_linear)"/>
<path fill-rule="evenodd" clip-rule="evenodd" d="M98.6406 8.70032C98.9334 8.2701 99.3546 7.95196 99.8391 7.79505C100.324 7.63815 100.844 7.65123 101.321 7.83226C101.814 7.87352 102.308 7.78586 102.76 7.57735C103.212 7.36883 103.606 7.0461 103.906 6.63867C103.389 6.91071 102.823 7.06945 102.245 7.10509C101.666 7.14073 101.086 7.05251 100.542 6.84584C100.052 6.71027 99.5363 6.71677 99.0502 6.86463C98.5642 7.01248 98.1266 7.29599 97.7852 7.68427L98.6406 8.70032Z" fill="url(#paint6_linear)"/>
<path fill-rule="evenodd" clip-rule="evenodd" d="M99.1265 10.0313C99.5154 9.69336 100.001 9.49771 100.508 9.47453C101.014 9.45136 101.514 9.60194 101.93 9.90308C102.395 10.0777 102.895 10.1276 103.384 10.0483C103.872 9.96898 104.333 9.76293 104.725 9.44931C104.158 9.57192 103.573 9.57305 103.006 9.45262C102.439 9.33218 101.901 9.09276 101.427 8.74899C100.991 8.48912 100.495 8.35733 99.993 8.36776C99.4906 8.37819 99.0005 8.53043 98.5752 8.80817L99.1265 10.0313Z" fill="url(#paint7_linear)"/>
<path fill-rule="evenodd" clip-rule="evenodd" d="M99.2609 11.4618C99.7204 11.2391 100.238 11.1803 100.733 11.2944C101.228 11.4086 101.673 11.6894 101.998 12.0931C102.409 12.3918 102.887 12.5765 103.386 12.6301C103.885 12.6836 104.389 12.604 104.85 12.3989C104.271 12.367 103.706 12.2122 103.187 11.9441C102.669 11.676 102.209 11.3003 101.837 10.8403C101.48 10.4681 101.031 10.205 100.54 10.0797C100.049 9.95445 99.5341 9.97185 99.0518 10.1301L99.2609 11.4618Z" fill="url(#paint8_linear)"/>
<path fill-rule="evenodd" clip-rule="evenodd" d="M99.0332 12.8623C99.5336 12.7737 100.048 12.8579 100.498 13.102C100.948 13.3461 101.308 13.7366 101.523 14.2137C101.843 14.6035 102.251 14.9043 102.711 15.0886C103.17 15.273 103.667 15.335 104.156 15.2692C103.61 15.0852 103.105 14.7886 102.673 14.397C102.24 14.0054 101.888 13.527 101.637 12.9906C101.387 12.5347 101.02 12.1592 100.578 11.9052C100.135 11.6512 99.6335 11.5284 99.1282 11.5504L99.0332 12.8623Z" fill="url(#paint9_linear)"/>
<path fill-rule="evenodd" clip-rule="evenodd" d="M98.459 14.1646C98.9649 14.2125 99.4416 14.4315 99.816 14.7879C100.19 15.1443 100.442 15.6185 100.531 16.1374C100.742 16.6003 101.061 17.0009 101.459 17.3026C101.858 17.6042 102.323 17.7971 102.812 17.8637C102.322 17.5313 101.904 17.0964 101.585 16.5869C101.266 16.0773 101.052 15.5043 100.959 14.9044C100.826 14.3979 100.563 13.9384 100.198 13.5752C99.8333 13.212 99.3799 12.9588 98.8867 12.8428L98.459 14.1646Z" fill="url(#paint10_linear)"/>
<path fill-rule="evenodd" clip-rule="evenodd" d="M97.585 15.2602C98.0627 15.4422 98.4694 15.7823 98.7425 16.2279C99.0156 16.6736 99.1399 17.2 99.0962 17.7262C99.1831 18.2294 99.3906 18.7019 99.6995 19.1001C100.008 19.4983 100.409 19.8094 100.864 20.0048C100.479 19.5565 100.186 19.0313 100.003 18.4615C99.8198 17.8916 99.7507 17.289 99.7996 16.6905C99.8021 16.1658 99.665 15.6505 99.4033 15.2015C99.1417 14.7524 98.7657 14.387 98.3168 14.1455L97.585 15.2602Z" fill="url(#paint11_linear)"/>
<path fill-rule="evenodd" clip-rule="evenodd" d="M96.4639 16.0885C96.8953 16.3873 97.2178 16.8276 97.3798 17.339C97.5418 17.8505 97.5339 18.4034 97.3573 18.9096C97.3147 19.4203 97.3969 19.9339 97.5962 20.4029C97.7956 20.8719 98.1057 21.2811 98.4979 21.5927C98.2387 21.0567 98.0874 20.4716 98.053 19.873C98.0187 19.2744 98.1022 18.6747 98.2983 18.1106C98.429 17.6036 98.4237 17.0691 98.283 16.5649C98.1423 16.0607 97.8715 15.6061 97.4999 15.25L96.4639 16.0885Z" fill="url(#paint12_linear)"/>
<path fill-rule="evenodd" clip-rule="evenodd" d="M95.1788 16.5912C95.5145 16.9999 95.7082 17.5137 95.7289 18.0504C95.7496 18.587 95.596 19.1152 95.2929 19.5505C95.1277 20.0341 95.0821 20.5529 95.1601 21.0595C95.2382 21.5662 95.4374 22.0445 95.7396 22.4505C95.6186 21.8625 95.6161 21.2549 95.7322 20.6658C95.8484 20.0768 96.0806 19.519 96.4145 19.0276C96.6624 18.5743 96.7872 18.0596 96.7755 17.5384C96.7638 17.0173 96.616 16.5092 96.3479 16.0684L95.1788 16.5912Z" fill="url(#paint13_linear)"/>
<path fill-rule="evenodd" clip-rule="evenodd" d="M93.8114 16.7296C94.0235 17.2086 94.0788 17.7464 93.969 18.2611C93.8592 18.7758 93.5902 19.239 93.2031 19.5803C92.9113 20.0047 92.7299 20.5001 92.6766 21.0185C92.6233 21.537 92.6999 22.0609 92.899 22.5396C92.9326 21.9391 93.0839 21.352 93.3438 20.8143C93.6037 20.2766 93.9665 19.7997 94.4102 19.4127C94.7671 19.0412 95.0194 18.5757 95.14 18.0664C95.2606 17.5571 95.2449 17.0232 95.0946 16.5225L93.8114 16.7296Z" fill="url(#paint14_linear)"/>
<path fill-rule="evenodd" clip-rule="evenodd" d="M92.4532 16.4932C92.5402 17.0126 92.4598 17.5474 92.2244 18.0146C91.989 18.4818 91.6117 18.8554 91.151 19.0776C90.775 19.4103 90.4856 19.8359 90.3095 20.3151C90.1335 20.7943 90.0764 21.3118 90.1435 21.8199C90.322 21.2479 90.6126 20.7204 90.997 20.2705C91.3814 19.8207 91.8513 19.4581 92.3771 19.2058C92.814 18.9411 93.173 18.5579 93.4159 18.0974C93.6587 17.6368 93.776 17.1164 93.7553 16.5918L92.4532 16.4932Z" fill="url(#paint15_linear)"/>
<path fill-rule="evenodd" clip-rule="evenodd" d="M91.2088 15.9502C91.1611 16.4747 90.9496 16.9686 90.6064 17.3568C90.2632 17.745 89.8073 18.0062 89.3079 18.1006C88.8608 18.3177 88.4739 18.6485 88.1831 19.0624C87.8923 19.4763 87.707 19.9599 87.6445 20.468C87.9665 19.9609 88.386 19.5282 88.8767 19.1972C89.3674 18.8662 89.9187 18.644 90.496 18.5445C90.9855 18.41 91.4298 18.1382 91.7802 17.7589C92.1306 17.3795 92.3736 16.9073 92.4825 16.3941L91.2088 15.9502Z" fill="url(#paint16_linear)"/>
<path fill-rule="evenodd" clip-rule="evenodd" d="M90.1411 14.9639C89.9662 15.4579 89.64 15.8788 89.2125 16.162C88.785 16.4453 88.2799 16.5754 87.7745 16.5323C87.2872 16.6228 86.8297 16.8392 86.4443 17.1616C86.0589 17.484 85.758 17.902 85.5693 18.3769C86.0001 17.9752 86.506 17.6698 87.0554 17.4797C87.6048 17.2896 88.1861 17.219 88.7629 17.2721C89.2703 17.2712 89.7677 17.1264 90.2016 16.8534C90.6354 16.5805 90.9892 16.1898 91.2247 15.7234L90.1411 14.9639Z" fill="url(#paint17_linear)"/>
<path fill-rule="evenodd" clip-rule="evenodd" d="M89.344 13.8398C89.0512 14.2701 88.63 14.5882 88.1455 14.7451C87.661 14.902 87.1402 14.8889 86.6636 14.7079C86.1621 14.668 85.6591 14.7612 85.2019 14.9786C84.7446 15.1961 84.3482 15.5306 84.0498 15.9508C84.567 15.6788 85.1326 15.52 85.7114 15.4844C86.2902 15.4487 86.8699 15.537 87.4145 15.7436C87.9039 15.8792 88.4197 15.8727 88.9058 15.7248C89.3918 15.577 89.8295 15.2935 90.1709 14.9052L89.344 13.8398Z" fill="url(#paint18_linear)"/>
<path fill-rule="evenodd" clip-rule="evenodd" d="M88.861 12.498C88.4721 12.8359 87.9868 13.0316 87.48 13.0547C86.9732 13.0779 86.4732 12.9273 86.0571 12.6262C85.5921 12.4516 85.0923 12.4017 84.6038 12.481C84.1153 12.5603 83.654 12.7663 83.2627 13.08C83.8294 12.9574 84.4143 12.9562 84.9815 13.0767C85.5486 13.1971 86.0861 13.4365 86.5609 13.7803C86.9977 14.0376 87.4936 14.1672 87.9958 14.155C88.4979 14.1429 88.9875 13.9895 89.4123 13.7112L88.861 12.498Z" fill="url(#paint19_linear)"/>
<path fill-rule="evenodd" clip-rule="evenodd" d="M88.7265 11.0776C88.267 11.3003 87.7494 11.3591 87.2544 11.2449C86.7593 11.1307 86.3145 10.85 85.9891 10.4463C85.5783 10.1477 85.1013 9.96222 84.6026 9.90701C84.1039 9.85181 83.5999 9.92872 83.1377 10.1306C83.7163 10.1655 84.282 10.3226 84.8001 10.5923C85.3182 10.862 85.7778 11.2386 86.1507 11.6991C86.5101 12.0702 86.9603 12.3325 87.4527 12.4577C87.9451 12.5828 88.4612 12.5661 88.9451 12.4092L88.7265 11.0776Z" fill="url(#paint20_linear)"/>
<path fill-rule="evenodd" clip-rule="evenodd" d="M88.9551 9.67644C88.4547 9.76507 87.9401 9.68088 87.4903 9.43676C87.0405 9.19265 86.6802 8.80211 86.4649 8.32505C86.1473 7.9331 85.7394 7.63081 85.2791 7.44628C84.8188 7.26175 84.321 7.20097 83.832 7.26958C84.3827 7.45591 84.8905 7.75785 85.3238 8.15666C85.7571 8.55546 86.1067 9.04256 86.3508 9.58764C86.6043 10.0425 86.9732 10.4164 87.4174 10.6686C87.8615 10.9208 88.3638 11.0416 88.8696 11.018L88.9551 9.67644Z" fill="url(#paint21_linear)"/>
<path fill-rule="evenodd" clip-rule="evenodd" d="M89.5261 8.37485C89.0208 8.32809 88.5445 8.10925 88.1715 7.75244C87.7985 7.39563 87.5495 6.92087 87.4635 6.40202C87.2513 5.93838 86.9305 5.53741 86.5303 5.23582C86.1301 4.93423 85.6633 4.74167 85.1729 4.67578C85.6578 5.00274 86.0726 5.42983 86.3915 5.93048C86.7104 6.43113 86.9265 6.9946 87.0263 7.58573C87.159 8.0948 87.4229 8.55665 87.7897 8.92165C88.1565 9.28665 88.6122 9.54095 89.1078 9.65719L89.5261 8.37485Z" fill="url(#paint22_linear)"/>
<path fill-rule="evenodd" clip-rule="evenodd" d="M90.3983 7.27007C89.9222 7.0896 89.5168 6.75094 89.2453 6.30677C88.9737 5.8626 88.8511 5.33782 88.8965 4.81389C88.8069 4.30918 88.5974 3.83559 88.2871 3.43601C87.9767 3.03644 87.5753 2.72348 87.1191 2.52539C87.5043 2.97375 87.7974 3.49892 87.9804 4.06878C88.1634 4.63864 88.2326 5.24121 88.1837 5.83975C88.1837 6.36526 88.3217 6.88084 88.583 7.331C88.8442 7.78116 89.2188 8.14889 89.6664 8.39461L90.3983 7.27007Z" fill="url(#paint23_linear)"/>
<path fill-rule="evenodd" clip-rule="evenodd" d="M91.5207 6.44131C91.1045 6.13879 90.796 5.70227 90.6431 5.19937C90.4902 4.69647 90.5013 4.15526 90.6748 3.6596C90.7174 3.14892 90.6352 2.63534 90.4358 2.16636C90.2365 1.69738 89.9263 1.28818 89.5342 0.976562C89.7963 1.51333 89.9493 2.10028 89.9836 2.70099C90.018 3.3017 89.9329 3.90331 89.7338 4.46847C89.6031 4.97553 89.6084 5.51004 89.7491 6.0142C89.8898 6.51837 90.1606 6.97304 90.5322 7.32911L91.5207 6.44131Z" fill="url(#paint24_linear)"/>
<path fill-rule="evenodd" clip-rule="evenodd" d="M92.8047 5.9481C92.4706 5.53862 92.2779 5.02498 92.2572 4.48882C92.2365 3.95265 92.3891 3.42471 92.6907 2.98884C92.8563 2.50754 92.9031 1.99086 92.8267 1.48597C92.7503 0.981076 92.5533 0.504089 92.2535 0.0986328C92.372 0.685175 92.3732 1.29073 92.2571 1.87779C92.1411 2.46485 91.9101 3.02096 91.5786 3.51167C91.3302 3.96446 91.2044 4.4785 91.2144 4.99943C91.2245 5.52036 91.37 6.02881 91.6357 6.47093L92.8047 5.9481Z" fill="url(#paint25_linear)"/>
<path fill-rule="evenodd" clip-rule="evenodd" d="M94.1741 5.80997C93.9632 5.32995 93.9093 4.7915 94.0209 4.27676C94.1324 3.76201 94.4032 3.29931 94.7919 2.95926C95.0814 2.53361 95.2606 2.03784 95.3122 1.51961C95.3638 1.00137 95.2861 0.478089 95.0866 0C95.0534 0.602635 94.9004 1.19161 94.637 1.72979C94.3736 2.26797 94.0057 2.74367 93.5563 3.12694C93.1978 3.49929 92.9445 3.9665 92.8238 4.47778C92.7032 4.98907 92.7198 5.52487 92.872 6.02701L94.1741 5.80997Z" fill="url(#paint26_linear)"/>
<path fill-rule="evenodd" clip-rule="evenodd" d="M89.0505 53.9869C89.0063 53.9925 88.9617 53.9925 88.9175 53.9869C88.8224 54.1743 88.5658 54.1743 88.3662 54.1447H88.1001C88.0432 54.1477 87.9878 54.1646 87.9385 54.1941C88.1476 54.1941 88.4517 54.6478 88.1666 54.6478C88.1005 54.659 88.0331 54.659 87.967 54.6478C88.0335 54.7366 88.1096 54.8056 87.967 54.8944C87.7705 54.8205 87.5552 54.8205 87.3587 54.8944C87.2731 54.8944 87.1401 54.9832 87.1211 55.0917H87.1971C87.1971 55.2495 86.8834 55.4271 87.083 56.0781C87.0927 56.1203 87.0927 56.1642 87.083 56.2063C86.9295 56.2633 86.8034 56.3801 86.7314 56.5319L86.6268 56.7686C86.5603 56.9264 86.5318 56.8969 86.4842 56.9758C86.6458 56.9758 86.5508 57.2125 86.4842 57.2717C86.4471 57.3205 86.4152 57.3734 86.3892 57.4295C86.3036 57.6169 86.3892 57.9326 86.3227 58.1398C86.2561 58.3469 86.2561 58.2778 86.2466 58.3173C86.4272 58.2088 86.4557 58.3173 86.4557 58.5442C86.4435 58.6556 86.4435 58.7681 86.4557 58.8796L86.2181 58.9486C85.6252 59.0719 85.0146 59.0719 84.4217 58.9486L83.8419 58.8598C83.5187 58.8598 83.2146 58.7513 82.8914 58.7118H82.4922H82.2831C82.0146 58.6814 81.7437 58.6814 81.4752 58.7118H81.2186C81.0986 58.733 80.9808 58.766 80.8669 58.8105C80.7525 58.8429 80.6412 58.8858 80.5342 58.9388C80.4302 58.9821 80.3287 59.0315 80.2301 59.0867L79.5172 59.5996L79.4317 59.6687L78.8994 60.2112C78.7853 60.3296 78.5858 60.5762 78.4717 60.6945C78.3576 60.8129 78.139 61.0793 77.968 61.2568L77.8159 61.4147C77.6599 61.5698 77.4949 61.7148 77.3216 61.8487C77.1777 61.9627 77.0214 62.0587 76.8559 62.1347C76.6686 62.2133 76.4744 62.2727 76.2761 62.3123C76.1288 62.3574 75.9732 62.3648 75.8226 62.3339C75.672 62.303 75.5308 62.2346 75.4112 62.1347C75.126 61.8092 75.3351 61.3357 75.5727 61.0595L75.6488 60.9806C75.7854 60.8406 75.9426 60.724 76.1145 60.6354H76.2191C76.6468 60.4282 76.5898 60.4874 77.046 60.6354C77.2115 60.6997 77.3938 60.6997 77.5593 60.6354H77.6638L77.7493 60.5564C77.8013 60.4966 77.846 60.4304 77.8824 60.3592C77.9458 60.2653 78.0227 60.1821 78.1105 60.1126C78.1433 60.0918 78.1723 60.065 78.1961 60.0337H78.12H78.025C78.025 60.0337 78.025 60.0336 78.025 59.9449C78.025 59.8561 78.158 59.7772 78.2151 59.6884L78.1105 59.7378C77.7398 59.8758 77.3787 59.4517 76.8464 59.8364C76.6088 60.0041 76.5992 60.2507 76.4092 60.3C76.1852 60.3604 75.9685 60.4464 75.7628 60.5564C75.5095 60.683 75.2807 60.8569 75.088 61.0694L74.9644 61.2371C74.926 61.3007 74.8911 61.3666 74.8599 61.4344C74.7847 61.5805 74.7425 61.7424 74.7363 61.9079V62.0657C74.7445 62.2108 74.7834 62.3523 74.8504 62.48C74.9664 62.665 75.1258 62.8164 75.3137 62.92C75.5016 63.0235 75.7117 63.0758 75.9244 63.0719C76.2114 63.0798 76.4975 63.0365 76.7703 62.9436L76.9794 62.8746C77.1965 62.7912 77.4091 62.6957 77.6163 62.5885L77.7113 62.5392C77.9403 62.4176 78.1625 62.2826 78.3767 62.1347C78.5572 61.9966 78.7473 61.8684 78.9184 61.7303C79.0895 61.5922 78.966 61.7303 79.0135 61.7303C78.9784 61.8522 78.9339 61.971 78.8804 62.0854C78.7585 62.4273 78.6693 62.7809 78.6143 63.1409C78.6095 63.1934 78.6095 63.2462 78.6143 63.2987C78.6304 63.6717 78.608 64.0453 78.5477 64.4134L78.4812 64.5614C78.402 64.7043 78.3322 64.8526 78.2721 65.0052C78.2151 65.163 78.2151 65.3702 78.1485 65.5478C78.1106 65.6454 78.0441 65.7282 77.9584 65.7845C77.888 65.8224 77.8273 65.8769 77.781 65.9438C77.7348 66.0106 77.7044 66.0878 77.6923 66.1692C77.6451 66.6056 77.5657 67.0376 77.4547 67.4614C77.4547 67.5206 77.4547 67.5601 77.3977 67.6291C77.3514 67.8867 77.3196 68.1469 77.3026 68.4084C77.2894 68.7145 77.2217 69.0155 77.103 69.2962C76.9699 69.5724 77.103 69.602 77.179 69.8584C77.2551 70.1149 77.1791 70.1445 77.2551 70.2727C77.3216 70.5588 77.6733 70.8251 77.9489 70.6574C78.006 70.6574 78.0155 70.5686 78.0915 70.5686C78.3196 70.5686 78.4337 70.618 78.5668 70.4799C78.6998 70.3418 78.7759 70.4009 78.8519 70.322C78.9279 70.2431 78.8519 70.1149 78.8519 70.0261C78.6998 69.5625 78.4622 69.8091 78.1865 69.5723C77.9109 69.3356 78.0535 69.1284 78.12 68.8818C78.1866 68.6352 78.3767 68.2407 78.4432 67.9842C78.5097 67.7277 78.5192 67.6291 78.5762 67.3825C78.5809 67.3194 78.6005 67.2584 78.6333 67.205C78.7447 67.0647 78.8886 66.9561 79.0515 66.8893L79.3556 66.7117C79.5461 66.5881 79.7272 66.4496 79.8974 66.2974L79.9544 66.2481C80.065 66.1564 80.1668 66.0541 80.2586 65.9423L80.3156 65.8733C80.5279 65.5588 80.7185 65.2292 80.8859 64.8868C81.038 64.6698 81.171 64.4923 81.2471 64.8277C81.3083 65.1215 81.2818 65.4278 81.1711 65.7056C81.0744 65.9461 80.9465 66.1718 80.7909 66.3763L80.7243 66.4651C80.5723 66.7019 80.3156 66.84 80.5342 67.1753L80.6008 67.2641C80.7538 67.4483 80.8906 67.6464 81.0095 67.856C81.1948 68.1701 81.3538 68.5001 81.4847 68.8424L81.6083 69.2172C81.6843 69.4934 81.8744 69.3948 81.9409 69.5428C82.016 69.6799 82.1308 69.789 82.269 69.8545C82.4072 69.92 82.5618 69.9387 82.7108 69.9077C82.7614 69.9031 82.8123 69.9031 82.8629 69.9077C83.015 69.9077 83.2336 69.9867 83.3667 69.9077C83.4997 69.8288 83.5663 69.9077 83.6803 69.8091C83.7944 69.7104 83.7373 69.5428 83.6803 69.4638C83.4902 69.1482 83.5092 69.2074 83.2526 69.2074C83.0788 69.2152 82.9061 69.1734 82.7536 69.0864C82.6011 68.9994 82.4745 68.8707 82.3877 68.7142L82.3402 68.6451L82.2641 68.507C82.2119 68.4124 82.1675 68.3134 82.1311 68.2111C82.0455 68.0138 81.979 67.787 81.9029 67.5798C81.8495 67.4778 81.811 67.3681 81.7889 67.2543C81.7889 67.1162 81.9314 67.0274 82.0075 66.9485L82.2641 66.692L82.3972 66.5638C82.5188 66.4395 82.633 66.3077 82.7393 66.1692C82.8986 65.9707 83.0328 65.752 83.1386 65.5182C83.1928 65.3905 83.2373 65.2585 83.2716 65.1236C83.2716 65.0151 83.3191 64.7882 83.4617 64.7882C83.5318 64.7914 83.6002 64.8117 83.6613 64.8474L83.8419 64.9165C84.1236 65.0081 84.4133 65.0709 84.7068 65.1039H85.1916C85.1949 65.2543 85.2376 65.4009 85.3151 65.528C85.3825 65.6404 85.4555 65.7491 85.5338 65.8536C85.5963 65.9328 85.6505 66.0187 85.6954 66.11C85.7844 66.2786 85.8241 66.4706 85.8094 66.6624L86.0185 66.544C86.1326 66.6229 86.0945 66.6328 86.2561 66.6723C86.3015 66.6767 86.3455 66.6913 86.3849 66.7152C86.4243 66.739 86.4582 66.7715 86.4842 66.8104C86.544 66.8744 86.611 66.9307 86.6838 66.978C86.8264 67.0865 86.9975 67.1655 87.1401 67.2641L87.2446 67.343L87.4537 67.5107C87.5514 67.6048 87.6235 67.7239 87.6628 67.856L87.5963 67.9448C87.5831 67.9809 87.5638 68.0143 87.5393 68.0434C87.4823 68.1026 87.3682 68.0434 87.2731 68.0434C87.1781 68.0434 87.007 68.1223 86.8929 68.0434C86.8255 68.0175 86.7534 68.0078 86.6818 68.0151C86.6103 68.0223 86.5413 68.0464 86.48 68.0853C86.4187 68.1242 86.3667 68.177 86.3279 68.2398C86.2891 68.3026 86.2646 68.3737 86.2561 68.4478C86.2561 68.8522 86.5413 68.8424 86.7694 68.8818C86.9975 68.9213 87.026 69.1284 87.4062 69.1284C87.7864 69.1284 87.8244 69.0101 88.062 69.0101C88.2753 69.0116 88.4829 68.9387 88.6513 68.803C88.908 68.6155 88.9365 68.3689 88.984 68.3393C89.0315 68.3097 89.1361 68.4676 89.1646 68.5366L89.2882 68.8226C89.3642 69.0199 89.4402 69.1975 89.5068 69.4047L89.5923 69.7104C89.7159 70.0064 89.944 70.0458 90.058 70.3418V70.4108C90.1208 70.4968 90.2032 70.5652 90.2977 70.61C90.3923 70.6548 90.4961 70.6744 90.5998 70.6672H90.7899C90.8999 70.6576 91.0084 70.6345 91.1131 70.5982C91.2746 70.5391 91.4932 70.6969 91.7309 70.5193C91.8164 70.4503 91.8354 70.322 91.9115 70.322C91.9875 70.322 91.997 70.322 92.0445 70.322C92.0642 70.3072 92.0804 70.288 92.0919 70.2658C92.1034 70.2436 92.11 70.219 92.1111 70.1938C92.1111 70.0655 91.8734 69.8485 91.7689 69.7598C91.7469 69.7314 91.7195 69.708 91.6885 69.691C91.6574 69.674 91.6233 69.6639 91.5883 69.6611C91.3222 69.6611 91.0466 69.7992 90.8374 69.6611C90.6585 69.5762 90.5093 69.4356 90.4105 69.259C90.3118 69.0823 90.2683 68.8781 90.2862 68.6747C90.2862 68.5662 90.2862 68.4873 90.2862 68.3689C90.2799 68 90.2353 67.6329 90.1531 67.274L89.9725 66.5243C89.9868 66.4468 90.0159 66.373 90.058 66.3073C90.1972 66.0293 90.3117 65.7387 90.4002 65.4392C90.4002 65.2814 90.4953 65.1335 90.5238 64.9658L90.6283 64.3148C90.6236 64.2656 90.6236 64.216 90.6283 64.1668C90.6683 64.0184 90.7326 63.8782 90.8184 63.7525C91.0085 63.3875 90.923 63.0916 91.018 63.0422H91.1131H91.2176C91.2281 63.0705 91.2447 63.0959 91.2661 63.1164C91.2875 63.1369 91.3132 63.152 91.3412 63.1606C91.3301 63.0802 91.3372 62.9983 91.3619 62.9212C91.3867 62.8442 91.4284 62.7741 91.4838 62.7167C91.6592 62.5556 91.7821 62.3419 91.8354 62.1051C91.8354 62.0163 91.8354 62.046 91.921 62.0164L92.0255 61.9572L92.1301 61.8783C92.3198 61.7109 92.4668 61.4974 92.5578 61.2568C92.5578 61.1878 92.5578 61.2568 92.6338 61.1681C92.7949 61.0188 92.9022 60.817 92.938 60.5959C92.9631 60.4958 92.979 60.3934 92.9855 60.2901C92.9855 60.1816 92.9855 60.0731 93.0331 59.9745C93.0806 59.8758 93.0901 59.6884 93.2422 59.6588C93.2892 59.6492 93.3376 59.6492 93.3847 59.6588C93.3847 59.4517 92.9855 59.4616 92.9855 59.2445C92.9855 59.0275 93.0521 58.9585 93.0616 58.8894C93.1547 58.4552 93.1216 58.0021 92.9665 57.5874C92.8632 57.398 92.7834 57.1958 92.7289 56.9856C92.7289 56.9363 92.7289 56.8968 92.7954 56.8574C92.2727 56.8574 92.5768 56.6108 92.3202 55.8709C92.2623 55.6974 92.1709 55.5379 92.0516 55.4022C91.9323 55.2666 91.7876 55.1575 91.6263 55.0818L91.3792 54.9733C91.2746 54.9141 91.075 54.8155 91.0465 54.6873C91.018 54.559 91.0465 54.6873 90.9705 54.7465C90.9487 54.7528 90.9257 54.7528 90.904 54.7465C90.7709 54.7465 90.6854 54.6182 90.6188 54.5195L90.4192 54.2039C90.3538 54.0998 90.2699 54.0094 90.1721 53.9376C90.1238 53.8926 90.0647 53.8619 90.001 53.8488C90.001 53.977 90.001 53.9376 90.001 54.0165C90.001 54.0954 89.7634 53.8291 89.5353 53.8291H89.3547C89.3547 53.8686 89.2121 53.9869 89.0505 53.9869Z" fill="#BC992E"/>
<path fill-rule="evenodd" clip-rule="evenodd" d="M84.7719 63.9401C84.9525 64.0387 85.0381 63.7427 85.1331 63.8315C85.2282 63.9203 84.9335 64.088 85.3327 64.088C85.2757 64.088 84.9715 64.1866 84.9905 63.9499C84.8985 63.9813 84.8023 63.998 84.7054 63.9993C84.5723 63.9993 84.5723 63.9105 84.5914 63.7921C84.3694 63.8607 84.1386 63.8939 83.907 63.8907C83.6314 63.8907 83.6409 63.5849 83.4793 63.5159C83.3177 63.4468 83.0801 63.7033 83.0611 63.9006C83.0608 64.007 83.0891 64.1114 83.1429 64.202C83.1966 64.2926 83.2736 64.3658 83.3652 64.4135C83.7043 64.6622 84.0951 64.8243 84.5058 64.887C84.7178 64.92 84.9343 64.8986 85.1364 64.8247C85.3386 64.7507 85.5202 64.6265 85.6654 64.4628C86.6159 63.358 85.4468 61.1288 86.6159 59.6886C86.6846 59.6215 86.7482 59.5489 86.806 59.4716C86.8133 59.4452 86.8117 59.4171 86.8013 59.3919C86.7909 59.3667 86.7724 59.3461 86.7489 59.3334C86.6896 59.3184 86.6277 59.3184 86.5683 59.3334C86.5683 59.2841 86.6254 59.2841 86.6254 59.2151C86.6296 59.1494 86.6296 59.0835 86.6254 59.0178C86.3663 59.0871 86.1026 59.1366 85.8365 59.1658C85.2689 59.186 84.701 59.1363 84.1446 59.0178C83.8763 58.9522 83.6026 58.9126 83.3272 58.8994C82.2912 58.8994 81.8445 60.3396 83.0991 60.9314C83.2892 61.0202 83.6123 61.1386 83.6218 61.3557C83.6314 61.5727 83.0896 61.9179 82.8805 62.0362C82.7765 62.0883 82.6778 62.1511 82.5858 62.2236C82.4718 62.3223 82.2437 62.6478 82.4147 62.8747C82.5858 63.1016 83.3652 62.9733 83.6409 63.5356C83.7169 63.6737 83.7169 63.7428 83.831 63.8217C83.945 63.9006 84.3727 63.8217 84.5914 63.7428C84.81 63.6639 84.7434 63.8118 84.7719 63.9401Z" fill="#BC992E"/>
<path fill-rule="evenodd" clip-rule="evenodd" d="M86.1204 65.8826C86.0208 65.7564 85.9377 65.6171 85.8733 65.4683C85.8221 65.3934 85.7947 65.3037 85.7947 65.2119C85.7947 65.12 85.8221 65.0304 85.8733 64.9554C85.9493 64.8666 86.1869 64.6989 86.2725 64.9554C86.2922 65.144 86.3337 65.3294 86.396 65.5078C86.5266 65.7999 86.6997 66.0694 86.9093 66.3068L87.0614 66.4744C87.261 66.7211 87.6221 67.086 87.8408 67.3425L88.1449 67.6977C88.3065 67.8949 88.0119 67.8949 87.9358 68.0429C87.8598 68.1908 87.7267 68.2994 87.5366 68.25C87.3465 68.2007 87.318 68.398 87.0234 68.25C86.987 68.2242 86.9439 68.2103 86.8998 68.2103C86.8557 68.2103 86.8126 68.2242 86.7762 68.25C86.7061 68.289 86.6446 68.3427 86.5956 68.4078C86.5673 68.4395 86.5462 68.4775 86.534 68.5188C86.5218 68.5602 86.5188 68.6038 86.5252 68.6466C86.5316 68.6893 86.5473 68.7299 86.571 68.7655C86.5947 68.801 86.6259 68.8305 86.6622 68.8518C86.8428 68.9603 86.8618 68.8517 87.1659 69.0096C87.6507 69.2956 87.7077 69.0096 88.1639 69.0096C88.4396 69.0096 88.4776 69.0095 88.6772 68.8813C88.8075 68.7758 88.9112 68.639 88.9791 68.4826C89.047 68.3262 89.0771 68.1549 89.0669 67.9837C88.8673 66.6422 87.4225 65.3795 87.6602 64.8271C87.8355 64.5665 88.0433 64.331 88.278 64.1268C88.5158 63.8903 88.6783 63.584 88.7437 63.2489C88.6146 63.2225 88.4921 63.1685 88.3842 63.0904C88.2762 63.0123 88.185 62.9117 88.1164 62.7951C87.9548 62.4696 88.0689 62.1539 87.7172 62.1046C87.7932 62.0553 87.8503 62.0159 87.8122 61.8876C87.7172 61.5621 87.0709 61.6509 87.1184 60.9012C87.1184 60.8124 87.1184 60.6645 87.0519 60.6447C86.9609 60.6533 86.873 60.6837 86.7953 60.7335C86.8197 60.6495 86.8388 60.5638 86.8523 60.4771C86.8831 60.1977 86.8538 59.9147 86.7667 59.6484C86.6156 59.7663 86.4922 59.918 86.4056 60.0923C86.1949 60.4979 86.0901 60.9536 86.1014 61.4142C86.1014 61.6904 86.1489 61.9369 86.1584 62.1934C86.1584 62.8642 86.4151 63.7026 86.0444 64.3339C85.9363 64.4964 85.7972 64.6341 85.6357 64.7384H85.7687L85.7022 64.8075C85.6453 64.8631 85.6 64.9302 85.5691 65.0047C85.5114 65.1152 85.4728 65.2355 85.4551 65.3598C85.5026 65.3598 85.5121 65.3598 85.5691 65.3598C85.5691 65.9616 86.0159 66.0898 86.0824 66.6521C86.0824 66.6521 86.1679 66.4449 86.244 66.5929C86.32 66.7408 86.3295 66.7408 86.4531 66.7309C86.4816 66.3955 86.1679 66.001 86.1204 65.8826Z" fill="#BC992E"/>
<path fill-rule="evenodd" clip-rule="evenodd" d="M76.6463 60.4974H76.5893L76.6558 60.4481C76.5417 60.4481 76.152 60.5665 76.057 60.6159C75.7814 60.713 75.5345 60.882 75.3398 61.1065C75.1451 61.331 75.0091 61.6036 74.945 61.8982C74.9279 62.1027 74.9727 62.3077 75.0732 62.4845C75.1738 62.6613 75.325 62.8012 75.5057 62.8846C75.9428 63.0425 76.4184 63.0425 76.8554 62.8846C77.3481 62.6916 77.7977 62.3962 78.1766 62.0166C78.5092 61.691 78.8609 61.1978 79.1841 60.823C79.2382 60.7422 79.3058 60.6721 79.3837 60.6159C79.6118 60.5172 79.6023 60.9907 79.5643 61.1584C79.4122 61.7798 79.013 62.0461 78.8514 62.8649C78.7661 63.2211 78.7661 63.5936 78.8514 63.9499C78.8514 64.0781 78.9084 64.1472 79.0035 64.1965C79.1036 64.243 79.2121 64.2671 79.3219 64.2671C79.4316 64.2671 79.5401 64.243 79.6403 64.1965C80.068 63.9696 80.049 63.3877 80.0585 62.9931C80.0585 61.9179 80.4672 60.6849 81.5983 60.5271C81.8739 60.5271 82.0735 60.5271 82.1591 60.2903C82.2446 60.0536 82.2066 59.3039 82.8814 59.008C82.9575 59.008 83.1476 58.9488 83.1951 58.9192C82.6333 58.8056 82.0556 58.8056 81.4937 58.9192C80.5708 59.0908 79.7323 59.5851 79.1175 60.3199L77.7393 61.7896C77.5802 61.9471 77.4049 62.0861 77.2166 62.204C76.7854 62.509 76.2599 62.6356 75.7433 62.5591C75.2111 62.4703 75.1255 61.8686 75.4772 61.3458C75.7503 60.9205 76.1677 60.6176 76.6463 60.4974Z" fill="#927E2F"/>
<path fill-rule="evenodd" clip-rule="evenodd" d="M88.491 56.463C88.4833 56.3063 88.5232 56.151 88.605 56.0191C88.6716 55.9007 88.7856 55.812 88.8142 55.6541C88.7002 55.6429 88.5854 55.6634 88.4815 55.7133C88.3184 55.8106 88.1735 55.9376 88.0538 56.0882C87.9112 56.2263 87.9872 56.2657 88.0538 56.3545C87.934 56.3516 87.8179 56.3976 87.7306 56.4828C87.512 56.6702 87.3599 57.3804 87.6736 57.4692L87.8446 57.1634C87.869 57.1322 87.8913 57.0992 87.9112 57.0647C87.8595 57.0674 87.8082 57.0537 87.7641 57.0255C87.72 56.9973 87.6851 56.956 87.6641 56.9069C87.6467 56.8766 87.6242 56.8498 87.5975 56.828C87.5975 56.7293 87.8066 56.5025 88.0443 56.9168C88.0443 57.0253 87.6355 57.4593 87.6736 57.6467C87.7211 57.6467 87.7401 57.6467 87.8256 57.6467H88.0062C88.1868 57.6467 88.1773 57.6467 88.3294 57.6467C88.3847 57.5956 88.4356 57.5394 88.4815 57.479L88.8236 57.1535C88.8236 57.1535 88.9757 57.045 88.9567 56.9661C88.9377 56.8872 88.8997 56.9661 88.8521 56.897C88.9001 56.829 88.966 56.7769 89.042 56.7471C89.1179 56.7173 89.2006 56.7112 89.2799 56.7294C89.4228 56.7731 89.5554 56.847 89.6696 56.9463C89.584 56.9463 89.5745 56.9463 89.4985 56.9463C89.4316 56.9947 89.3519 57.0206 89.2704 57.0206C89.1888 57.0206 89.1092 56.9947 89.0423 56.9463L88.9472 57.0351C88.8617 57.1141 88.4815 57.3804 88.548 57.5284C88.6146 57.6763 88.9852 57.7256 89.1088 58.0511C89.1859 58.2471 89.1859 58.4667 89.1088 58.6627C89.1815 58.7278 89.2343 58.8135 89.2609 58.9093C89.2609 59.1954 89.0518 59.4913 88.8142 59.4124C88.7381 59.4124 88.7381 59.3532 88.6906 59.3236C88.4632 59.269 88.2299 59.2458 87.9967 59.2546C87.9483 59.2563 87.901 59.2707 87.8594 59.2966C87.8179 59.3224 87.7833 59.3589 87.7591 59.4025C87.6921 59.4901 87.6524 59.5967 87.6451 59.7083C87.6451 59.7083 87.6926 59.7083 87.7401 59.7083C87.7876 59.7083 87.9872 59.8169 88.1773 59.9352C88.3009 59.7675 88.2629 60.1029 88.567 60.0042C88.6906 59.9549 88.8046 59.8464 88.8997 59.8267C88.9947 59.8069 88.8997 59.8267 88.9472 59.8267C89.0542 59.7496 89.1289 59.6333 89.1563 59.5012C89.2143 59.2297 89.3387 58.9783 89.5175 58.7712C89.5583 58.721 89.6064 58.6778 89.6601 58.643C89.8216 58.5641 89.9642 58.643 89.8407 58.7022H89.7551C89.6696 58.7022 89.3844 58.8008 89.4985 58.9784C89.6126 59.1559 89.5935 59.0967 89.6506 59.1066C89.7076 59.1165 89.6506 59.0474 89.6506 59.008C89.6506 58.9685 89.7741 59.1855 89.8502 59.2842C89.8692 59.2945 89.8904 59.2999 89.912 59.2999C89.9335 59.2999 89.9547 59.2945 89.9737 59.2842C90.0088 59.3498 90.0665 59.3992 90.1353 59.4223C90.1353 59.3138 90.1353 59.2941 90.2874 59.2546C90.3782 59.2326 90.4703 59.216 90.563 59.2052C90.8006 59.2052 90.7721 58.9981 90.6961 58.7909C90.7626 58.8501 90.7911 58.9192 90.8862 58.9586C90.7911 58.3273 91.0668 58.1202 91.0763 57.6566C91.0763 57.5284 91.0763 57.3015 90.9337 57.2719C90.7911 57.2423 90.8672 57.3705 90.8006 57.4494C90.8006 57.2127 90.8862 56.9464 90.506 56.6702L90.1828 56.463C90.0789 56.3882 89.9888 56.2947 89.9167 56.1868C89.9167 56.1868 89.9167 56.1868 89.8502 56.246C89.7741 56.029 89.9167 55.7429 89.8026 55.6344C89.6886 55.5259 89.5175 55.5358 89.432 55.4865C89.3464 55.4371 89.3844 55.4864 89.3559 55.3878C89.3274 55.2891 89.2799 55.447 89.1848 55.3878C89.1568 55.3731 89.1259 55.3654 89.0945 55.3654C89.0631 55.3654 89.0322 55.3731 89.0042 55.3878C88.605 55.8119 88.5955 56.394 88.491 56.463Z" fill="#927E2F"/>
<path fill-rule="evenodd" clip-rule="evenodd" d="M78.1874 70.3314C78.2634 70.4498 78.368 70.5879 78.5676 70.4498C78.7672 70.3117 78.6436 70.144 78.5676 69.9862C78.7006 70.0355 78.7006 70.2821 78.8052 70.3216C78.9097 70.361 78.8052 69.9763 78.7291 69.9073C78.6531 69.8382 78.6531 69.8185 78.5391 69.7988C78.425 69.7791 78.3775 69.7396 78.2919 69.7988L78.0543 69.4436C77.9878 69.345 78.0543 69.3253 78.0543 69.2069C78.1589 68.3586 77.9117 68.0923 78.3109 67.3229C78.3962 67.1884 78.4544 67.0374 78.482 66.879C78.482 66.6028 78.368 66.2082 78.349 65.7939C78.349 65.7939 78.2444 66.0504 78.2159 66.1095C77.9471 66.6138 77.7304 67.1462 77.5696 67.6977C77.5693 68.2334 77.4892 68.7658 77.3319 69.276C77.2844 69.3943 77.2179 69.4634 77.2749 69.6212C77.3243 69.7262 77.3656 69.835 77.3985 69.9467C77.3933 70.0731 77.4195 70.1988 77.4745 70.3117C77.5197 70.413 77.5844 70.5036 77.6646 70.578C77.7172 70.6074 77.776 70.6228 77.8357 70.6228C77.8954 70.6228 77.9542 70.6074 78.0068 70.578C78.0437 70.5637 78.0772 70.5413 78.1051 70.5124C78.133 70.4835 78.1546 70.4487 78.1684 70.4104C78.171 70.3833 78.1774 70.3567 78.1874 70.3314Z" fill="white"/>
<path fill-rule="evenodd" clip-rule="evenodd" d="M90.9146 70.667C91.0585 70.677 91.2017 70.639 91.3233 70.5585C91.3708 70.5585 91.3708 70.4993 91.4088 70.4598C91.4468 70.4204 91.4659 70.5585 91.5514 70.598C91.5826 70.6126 91.6162 70.6207 91.6504 70.6217C91.6846 70.6227 91.7186 70.6165 91.7505 70.6036C91.7824 70.5908 91.8115 70.5714 91.836 70.5467C91.8606 70.522 91.8802 70.4925 91.8936 70.4598C91.9222 70.3837 91.9222 70.2992 91.8936 70.2231C91.8936 70.2231 92.0742 70.4105 92.1502 70.3119C92.2262 70.2132 92.0932 70.0752 92.0647 70.0357C91.9992 69.9612 91.9178 69.9037 91.827 69.868C91.7683 69.8483 91.7052 69.8483 91.6464 69.868C91.5866 69.8776 91.5257 69.8776 91.4658 69.868C91.2456 69.904 91.0203 69.8587 90.829 69.7398C90.2968 69.4735 90.3443 69.286 90.3158 68.6251C90.3158 68.3687 90.2968 68.1122 90.2587 67.8557C90.2315 67.4244 90.0791 67.0117 89.8215 66.672C89.7743 66.5891 89.7131 66.5156 89.6409 66.455C89.5934 66.3958 89.4413 66.307 89.4033 66.455C89.4265 66.6922 89.471 66.9267 89.5364 67.1553C89.6825 68.0481 89.8922 68.9285 90.1637 69.7891C90.2777 70.1343 90.5439 70.667 90.9146 70.667Z" fill="#927E2F"/>
<path fill-rule="evenodd" clip-rule="evenodd" d="M78.6143 66.6818L78.7283 66.4943C78.9036 66.2664 79.1047 66.0611 79.3271 65.8828C79.9449 65.3698 80.7908 64.8963 80.7813 63.9099C80.7813 63.7422 80.7243 63.3181 80.5532 63.5351C80.4365 63.6609 80.3127 63.7795 80.1825 63.8902C80.0495 63.9987 79.9164 64.0973 79.7928 64.2157C79.247 64.6836 78.8715 65.3309 78.7283 66.0504C78.6998 66.2576 78.6238 66.5338 78.6143 66.6818Z" fill="#927E2F"/>
<path fill-rule="evenodd" clip-rule="evenodd" d="M90.1696 70.1048L90.008 69.6313C89.7228 68.6448 89.6753 67.9346 89.4187 67.0074C89.3521 66.7805 89.2856 66.4353 89.086 66.386C88.8864 66.3366 88.9054 66.386 88.8484 66.4649C88.7996 66.5353 88.7734 66.6198 88.7734 66.7066C88.7734 66.7933 88.7996 66.8778 88.8484 66.9482C88.9984 67.2417 89.1133 67.5531 89.1906 67.8755C89.2476 68.1615 89.143 68.0037 89.3236 68.3982C89.5042 68.7928 89.6278 68.9507 89.7418 69.2466C89.9034 69.6905 89.7989 69.8483 89.97 69.9765C90.0321 70.0263 90.099 70.0693 90.1696 70.1048Z" fill="#927E2F"/>
<path fill-rule="evenodd" clip-rule="evenodd" d="M86.1241 65.8833C86.1812 65.9425 86.2667 66.0905 86.3238 66.1596C86.4789 66.3362 86.6219 66.5241 86.7515 66.7218C86.8143 66.8219 86.8876 66.9146 86.9701 66.998C87.148 67.1505 87.3388 67.2858 87.5404 67.4024C87.6369 67.4676 87.7261 67.5437 87.8065 67.6293C87.854 67.6786 88.0061 67.8562 88.1011 67.8069C88.1962 67.7575 87.6734 67.1755 87.6069 67.1065L87.4263 66.8895L87.2362 66.6724C87.0398 66.4569 86.8557 66.2297 86.6849 65.9918C86.5036 65.7436 86.3682 65.4627 86.2857 65.1633C86.2857 65.0449 86.2857 64.8969 86.1622 64.8673C86.0386 64.8377 85.9436 64.9462 85.9055 64.9955C85.8675 65.0448 85.9055 65.4197 85.9816 65.6072L86.0481 65.7452C86.079 65.7877 86.1045 65.8341 86.1241 65.8833Z" fill="#927E2F"/>
<path fill-rule="evenodd" clip-rule="evenodd" d="M78.4138 65.8439C78.4089 66.0657 78.428 66.2874 78.4709 66.5048C78.4798 66.567 78.4991 66.627 78.5279 66.6824L78.5849 66.3273C78.7418 65.6936 79.0091 65.0952 79.3738 64.5616C79.4213 64.4827 79.5354 64.3741 79.5069 64.2854C79.4784 64.1966 79.2503 64.2854 79.1172 64.2854C79.0363 64.2723 78.9624 64.2305 78.9081 64.167C78.9081 64.2854 78.794 64.4136 78.7465 64.5517C78.5664 64.96 78.454 65.3968 78.4138 65.8439Z" fill="#927E2F"/>
<path fill-rule="evenodd" clip-rule="evenodd" d="M88.5186 57.7354C88.4236 57.7354 88.414 57.8142 88.376 57.8832C88.338 57.9522 87.9388 58.0212 87.9863 58.3465C88.0337 58.4824 88.1119 58.6045 88.2145 58.7024C88.3171 58.8002 88.441 58.8708 88.5756 58.9083C88.7277 58.9576 88.8133 58.9083 88.9368 58.7506C88.9893 58.6915 89.0285 58.621 89.0515 58.5443C89.0745 58.4676 89.0808 58.3866 89.0699 58.3071C89.0414 58.0114 88.7277 57.6762 88.5186 57.7354Z" fill="#927E2F"/>
<path fill-rule="evenodd" clip-rule="evenodd" d="M90.8289 60.2407V60.1421C90.6483 60.221 90.4772 60.5958 90.3537 60.8424C90.2338 61.1055 90.0906 61.3565 89.9259 61.5921C89.8594 61.454 89.8499 61.5921 89.8214 61.3751C89.7175 61.6441 89.6472 61.926 89.6123 62.2136L89.7644 62.0064C89.8214 61.9373 89.8879 61.8782 89.945 61.819C90.2537 61.5139 90.5107 61.1571 90.7053 60.7635C90.7053 60.6846 90.7719 60.5465 90.8574 60.5465C90.8727 60.5946 90.8727 60.6464 90.8574 60.6944C90.9715 60.6353 91.1045 60.29 91.1426 60.1421C91.1739 60.019 91.1962 59.8937 91.2091 59.7672C91.2425 59.6508 91.2679 59.5322 91.2851 59.4121C91.2447 59.4779 91.2097 59.5473 91.1806 59.6193C91.1236 59.7376 90.9145 60.221 90.8289 60.2407Z" fill="#927E2F"/>
<path fill-rule="evenodd" clip-rule="evenodd" d="M80.9825 67.2447V67.1658C81.0589 66.9843 81.1546 66.8123 81.2677 66.6529C81.5813 66.1794 82.009 65.6665 81.819 65.0549C81.7849 64.9467 81.737 64.8438 81.6764 64.749C81.6848 65.2187 81.5627 65.6811 81.3247 66.0807C81.1916 66.3471 81.0301 66.643 80.916 66.9093C80.8891 66.9648 80.8811 67.0281 80.8932 67.089C80.9052 67.1499 80.9367 67.2047 80.9825 67.2447Z" fill="#927E2F"/>
<path fill-rule="evenodd" clip-rule="evenodd" d="M88.8969 63.2988C88.8969 63.2988 88.8114 63.4764 88.7829 63.5158C88.6511 63.7141 88.4981 63.8961 88.3266 64.0584C88.1573 64.2264 88.0044 64.4114 87.8704 64.6108C87.8704 64.67 87.7753 64.8376 87.8704 64.8376C88.1472 64.6835 88.4003 64.4873 88.6213 64.2556C88.7322 64.1418 88.8223 64.0082 88.8874 63.8611C88.9287 63.7739 88.951 63.6783 88.9527 63.5811C88.9543 63.4839 88.9353 63.3875 88.8969 63.2988Z" fill="#927E2F"/>
<path fill-rule="evenodd" clip-rule="evenodd" d="M83.3085 69.9557C83.4605 69.7783 83.2419 69.6009 83.0994 69.5417C82.7382 69.384 82.4055 69.7881 81.9968 69.2657C81.9409 69.201 81.89 69.1318 81.8447 69.0588C81.8075 68.9768 81.7595 68.9004 81.7021 68.832L81.8732 69.3643C81.9588 69.5516 82.0633 69.4333 82.2629 69.6895C82.4625 69.9458 82.415 69.9655 82.7001 69.9557C82.8045 69.9659 82.9095 69.9659 83.0138 69.9557C83.1849 69.8768 83.1849 69.9163 83.3085 69.9557Z" fill="white"/>
<path fill-rule="evenodd" clip-rule="evenodd" d="M83.4406 63.5061C83.3086 63.3731 83.1423 63.2828 82.9617 63.246C82.7812 63.2092 82.5943 63.2276 82.4236 63.2989C82.11 63.4666 82.3096 63.6146 82.5377 63.7724C82.6042 63.7724 82.7658 63.9204 82.8704 63.8513C82.9749 63.7823 82.9749 63.7034 83.089 63.6047C83.203 63.5061 83.2505 63.516 83.4406 63.5061Z" fill="#927E2F"/>
<path fill-rule="evenodd" clip-rule="evenodd" d="M90.4668 55.4858C90.4668 55.4267 90.7329 55.1507 90.8565 55.1507C90.9745 55.1156 91.0997 55.1156 91.2177 55.1507C91.3412 55.1999 91.4268 55.6632 91.4458 55.811C91.4648 55.9589 91.4458 56.0969 91.4458 56.2349C91.5119 56.1036 91.563 55.9646 91.5979 55.8209C91.6551 55.6518 91.6551 55.4676 91.5979 55.2985C91.5954 55.2277 91.5779 55.1583 91.5467 55.0953C91.5155 55.0323 91.4713 54.9772 91.4173 54.9338C90.9515 54.6677 90.4668 55.2098 90.4668 55.4858Z" fill="#927E2F"/>
<path fill-rule="evenodd" clip-rule="evenodd" d="M80.8094 67.1058C80.8854 66.7902 81.2181 66.3956 81.3892 65.9517C81.4826 65.7412 81.5497 65.5191 81.5888 65.2909C81.6267 65.0955 81.6267 64.8943 81.5888 64.699C81.5888 64.699 81.5318 64.5806 81.4652 64.6102C81.3987 64.6398 81.4652 64.8469 81.4652 65.0048C81.4148 65.6849 81.1394 66.3261 80.6858 66.8198C80.6288 66.948 80.7619 67.0664 80.8094 67.1058Z" fill="#927E2F"/>
<path fill-rule="evenodd" clip-rule="evenodd" d="M87.5978 57.7939C87.4571 57.9302 87.3496 58.0991 87.2841 58.2868C87.2464 58.3984 87.2464 58.5201 87.2841 58.6318C87.2841 58.7008 87.4267 58.8289 87.5408 58.7697C87.6548 58.7106 87.5978 58.6712 87.6168 58.6613C87.6358 58.6515 87.6833 58.5923 87.7118 58.5529C87.9875 58.2276 87.8449 58.1488 87.7689 58.0108C87.6928 57.8728 87.7689 57.9024 87.7023 57.8728C87.6358 57.8432 87.6548 57.8728 87.5978 57.7939Z" fill="#927E2F"/>
<path fill-rule="evenodd" clip-rule="evenodd" d="M87.338 55.0027L87.2335 55.1801C87.1451 55.3099 87.0977 55.4648 87.0977 55.6236C87.0977 55.7824 87.1451 55.9374 87.2335 56.0672C87.338 56.0672 87.3475 56.0672 87.4046 56.008C87.4616 55.9489 87.357 55.8996 87.338 55.8405C87.3045 55.7703 87.2869 55.6931 87.2866 55.6148C87.2864 55.5364 87.3034 55.4591 87.3364 55.3887C87.3695 55.3182 87.4176 55.2566 87.4772 55.2085C87.5368 55.1604 87.6063 55.1271 87.6802 55.1111C87.8323 55.052 87.8893 55.1111 87.9273 54.8942C87.8276 54.8648 87.7227 54.8593 87.6206 54.8781C87.5186 54.8969 87.4219 54.9395 87.338 55.0027Z" fill="#927E2F"/>
<path fill-rule="evenodd" clip-rule="evenodd" d="M77.7883 66.8204C77.9423 66.5836 78.043 66.3139 78.0829 66.0313C77.8833 66.0312 77.8073 66.1595 77.7788 66.337C77.7502 66.5146 77.8168 66.633 77.7883 66.8204Z" fill="white"/>
<path fill-rule="evenodd" clip-rule="evenodd" d="M88.7092 64.4527C88.8517 64.4527 89.1559 64.2357 89.2224 64.1568C88.9658 64.1568 88.9468 64.1568 88.9658 63.9102C88.8993 63.9792 88.6426 64.285 88.7092 64.4527Z" fill="#927E2F"/>
<path fill-rule="evenodd" clip-rule="evenodd" d="M88.1191 59.1062V59.1951C88.1191 59.1951 88.1191 59.1951 88.2047 59.2543C88.2864 59.2691 88.37 59.2691 88.4518 59.2543C88.4627 59.209 88.4627 59.1615 88.4518 59.1161C88.3433 59.0848 88.2292 59.0814 88.1191 59.1062Z" fill="#927E2F"/>
<path fill-rule="evenodd" clip-rule="evenodd" d="M89.1553 56.8864C89.0887 56.8864 89.0792 56.8864 89.0127 56.8864C89.0127 57.1229 89.4214 57.0835 89.4404 56.8864C89.4009 56.8469 89.3515 56.8196 89.2978 56.8076C89.2978 57.0243 89.1648 56.9849 89.1363 56.9357C89.1077 56.8864 89.1458 56.9653 89.1553 56.8864Z" fill="#927E2F"/>
<path fill-rule="evenodd" clip-rule="evenodd" d="M87.8526 56.8574C87.8526 56.8574 87.7956 56.9559 87.729 56.9165C87.6625 56.8771 87.6815 56.818 87.729 56.749C87.5389 56.749 87.729 56.9855 87.729 57.0052C87.729 57.0249 88.0237 56.9165 87.8526 56.8574Z" fill="#927E2F"/>
<path fill-rule="evenodd" clip-rule="evenodd" d="M88.7115 59.2444C88.7304 59.1903 88.7304 59.131 88.7115 59.0769C88.7115 59.0079 88.7115 58.9883 88.5872 58.9883C88.5777 59.0569 88.5777 59.1266 88.5872 59.1952C88.5872 59.1952 88.5872 59.2542 88.6446 59.2641C88.7019 59.2739 88.6732 59.2543 88.7115 59.2444Z" fill="#927E2F"/>
<path fill-rule="evenodd" clip-rule="evenodd" d="M88.0997 59.2249C88.0997 59.1657 88.0328 59.1165 88.0041 59.0573C87.9755 58.9982 87.9468 58.9095 87.9181 58.8701C87.8945 58.9571 87.8945 59.0492 87.9181 59.1362C87.9468 59.2347 87.985 59.2446 88.0997 59.2249Z" fill="#927E2F"/>
<path fill-rule="evenodd" clip-rule="evenodd" d="M119.457 74.4349H57.9043C57.9043 74.4349 62.5046 59.1059 92.036 68.9602C92.036 68.9602 100.21 71.8504 119.457 74.4349Z" fill="url(#paint27_linear)"/>
<path fill-rule="evenodd" clip-rule="evenodd" d="M87.9762 37.2372L88.0617 37.1287L87.9762 37.2372ZM89.649 46.9436V46.8844V46.9436ZM96.521 46.0854C96.5256 46.0362 96.5256 45.9867 96.521 45.9375C96.5256 45.9867 96.5256 46.0362 96.521 46.0854ZM96.2263 34.0708L96.1028 33.844L96.2263 34.0708ZM92.2723 32.9957C91.7686 33.3462 91.3143 33.7678 90.9227 34.2484C90.824 34.2575 90.7256 34.2283 90.6465 34.1663C90.5675 34.1043 90.5134 34.014 90.495 33.913C90.7136 33.913 90.8181 33.617 90.8181 33.617C90.9245 33.6417 91.0349 33.6417 91.1413 33.617C91.03 33.5506 90.9073 33.5071 90.7801 33.4889L91.2173 33.2521C91.5747 33.2036 91.9276 33.1244 92.2723 33.0153V32.9957ZM92.3864 32.9167L92.2723 32.9957L92.491 32.9266L92.3864 32.9167ZM89.0027 30.2435L89.0882 30.3717L89.0027 30.2435ZM76.2948 33.0943L76.5704 32.9266L76.2948 33.0943ZM76.9981 68.1122C76.9878 67.5315 77.0227 66.9509 77.1027 66.3761C77.1502 65.6363 78.766 63.9593 78.766 63.9593C78.2141 64.2469 77.7051 64.6158 77.2548 65.0543C77.3118 64.0679 79.7546 61.5821 79.7546 61.5821C78.6805 61.7892 77.3878 64.0086 77.3878 64.0086C80.5339 46.9534 87.1303 38.2829 87.9762 37.2372C87.5722 37.8172 87.252 38.4552 87.0257 39.1312C87.3301 38.7569 87.7281 38.477 88.1758 38.3223C87.5386 38.9954 87.0263 39.7845 86.6645 40.6502C87.9097 39.1903 88.3183 39.5159 88.3183 39.5159C86.8261 41.035 86.7026 41.7649 86.7026 41.7649C86.8691 41.5953 87.0811 41.4819 87.3108 41.4394C87.0472 41.7195 86.846 42.0562 86.7216 42.4258C86.9872 42.1808 87.2699 41.9566 87.5675 41.755C87.3617 42.0184 87.2126 42.3245 87.1303 42.6527C88.0142 41.5578 88.5465 41.6663 88.5465 41.6663C87.2633 42.9585 87.2063 43.5602 87.2063 43.5602C87.2063 43.5602 88.0998 42.5738 88.4514 42.4258C88.8031 42.2779 88.4514 42.8599 88.4514 42.8599C88.0453 43.111 87.6971 43.4512 87.4311 43.8568C87.1651 44.2623 86.9878 44.7233 86.9117 45.2075C87.0446 44.9301 87.2387 44.6891 87.4781 44.504C87.7176 44.3189 87.9956 44.195 88.2898 44.1422C87.7767 44.5889 87.4139 45.1935 87.2538 45.8684C87.4629 45.6218 88.6605 44.4677 88.6605 44.4677C89.1358 43.9942 89.1548 44.4677 89.1548 44.4677C88.1152 45.2465 87.2577 46.2578 86.6455 47.4269C86.9592 46.6871 88.2804 46.1545 88.2804 46.1545C88.0322 46.4957 87.8188 46.8626 87.6435 47.2494C87.7917 47.0689 87.9975 46.9499 88.2233 46.914C87.9769 47.3226 87.7699 47.7554 87.6055 48.2062C88.1948 47.2198 88.7556 47.2198 88.7556 47.2198C88.6615 47.5743 88.507 47.9083 88.2994 48.2062C88.4704 48.1253 88.6252 48.0115 88.7556 47.8708C88.6378 48.4464 88.456 49.0059 88.2138 49.5379C89.0122 48.9953 89.649 46.8943 89.649 46.8943C89.6766 47.4408 89.6575 47.9888 89.592 48.5318C89.9277 47.7051 90.1207 46.8236 90.1623 45.9276C90.3246 46.4212 90.4206 46.9357 90.4474 47.4565C90.9037 46.5885 90.1908 43.8758 90.1908 43.8758C90.6945 44.1816 90.9987 46.0953 90.9987 46.0953C90.9892 45.2656 90.8644 44.4417 90.628 43.649C90.9607 43.7378 91.4644 44.9313 91.4644 44.9313C91.7021 44.6847 90.9702 42.5442 90.9702 42.5442C91.3764 43.0529 91.739 43.5975 92.0538 44.1717C91.8488 43.5731 91.5977 42.9925 91.3029 42.4356C91.7076 42.7897 92.0655 43.1977 92.3674 43.649C91.8181 42.5164 91.1824 41.4311 90.4664 40.4036C91.1936 41.0399 91.8332 41.7768 92.3674 42.5935C92.1128 41.9055 91.7945 41.2448 91.4169 40.6207C91.8108 41.0151 92.1673 41.4478 92.4815 41.9129C91.9078 40.7576 91.2026 39.6779 90.3809 38.6971C90.7801 38.5492 91.3314 39.8808 91.3314 39.6244C91.3314 39.3679 91.5595 39.4764 91.5595 39.4764C91.6704 39.6464 91.7359 39.8438 91.7496 40.0485C91.7496 39.7921 92.0632 39.7132 92.0632 39.7132C92.0448 40.1423 92.1297 40.5695 92.3104 40.956C92.7951 40.3938 93.0707 40.6207 93.0707 40.6207C92.8288 41.6379 92.7964 42.6967 92.9757 43.7278C92.9816 43.5424 93.0293 43.3609 93.1152 43.1982C93.201 43.0354 93.3226 42.8959 93.47 42.7908C93.3411 43.3017 93.3411 43.8384 93.47 44.3493C93.5808 43.899 93.7888 43.4808 94.0783 43.1261C94.025 43.5782 94.025 44.0353 94.0783 44.4874C94.1619 44.0761 94.3489 43.695 94.62 43.3826C94.4067 44.2826 94.3108 45.2082 94.3349 46.1347C94.4813 45.7066 94.7002 45.3091 94.9812 44.9609C94.7151 45.7303 94.9812 45.9473 94.9812 45.9473C95.0031 45.6593 95.0959 45.3821 95.2507 45.142C95.4054 44.9019 95.617 44.7071 95.8652 44.5762C95.39 45.4228 95.1807 46.4019 95.2664 47.3776C95.2858 47.0873 95.3718 46.8059 95.5173 46.5571C95.6628 46.3083 95.8636 46.0992 96.1028 45.9473C96.1028 46.7266 95.9982 48.7488 95.9982 48.7488C96.2497 47.8748 96.4309 46.9806 96.54 46.0755C96.4855 46.9737 96.511 47.8752 96.616 48.7685C96.6064 48.1237 96.8 47.4933 97.1673 46.9732C97.281 48.0078 97.3223 49.0495 97.2909 50.0903C97.5813 49.3018 97.6951 48.4552 97.6236 47.6143C97.8255 47.913 97.9737 48.2472 98.0608 48.6008C98.0661 47.6669 97.9801 46.735 97.8041 45.8191C94.6581 36.4481 88.4419 36.4284 88.4419 36.4284C88.4419 36.4284 88.2993 36.1325 88.4419 36.0042C88.5845 35.876 89.3354 36.0042 89.3354 36.0042C89.4019 36.3297 90.0767 36.5566 90.0767 36.5566C89.9912 36.3593 90.1623 36.0239 90.1623 36.0239C90.3492 36.2348 90.4859 36.4882 90.5615 36.7637C90.5335 36.4553 90.5758 36.1445 90.6851 35.8562C90.7816 36.2972 90.9807 36.707 91.2648 37.0498C91.1753 36.6549 91.1917 36.2421 91.3124 35.8562C91.5065 36.4376 91.8325 36.962 92.2629 37.3852C92.1773 37.0375 92.1515 36.6769 92.1868 36.3199C92.2566 36.288 92.3354 36.2845 92.4076 36.3101C92.4798 36.3356 92.5401 36.3884 92.5765 36.4579C92.5691 36.845 92.6715 37.2258 92.8712 37.5529C92.9492 37.2871 92.9939 37.0119 93.0042 36.7342C93.0734 37.1604 93.1881 37.5773 93.3464 37.9771C93.2698 37.3754 93.3691 36.7636 93.6315 36.2212C93.5907 36.752 93.6688 37.2855 93.8597 37.7798C93.8917 37.4803 94.0111 37.1981 94.2018 36.9709C94.143 37.4752 94.2051 37.9869 94.3824 38.4604C94.4019 38.3228 94.4493 38.1909 94.5214 38.0736C94.5934 37.9563 94.6886 37.8562 94.8006 37.7798C94.7066 38.2748 94.7066 38.7841 94.8006 39.2791C94.8913 38.7942 95.1236 38.3499 95.466 38.0066C95.2682 38.5716 95.2189 39.1811 95.3234 39.7724C95.3234 39.4567 95.7511 39.0621 95.7511 39.0621C95.6096 39.5187 95.6333 40.0132 95.8176 40.453C95.8075 40.0889 95.89 39.7285 96.0569 39.4082C96.2238 39.0878 96.4691 38.8187 96.7681 38.6281C96.4555 39.4612 96.3991 40.3744 96.6065 41.2421C96.6574 40.7164 96.8519 40.2167 97.1673 39.8019L97.0247 41.7748L97.6806 40.2754C97.6806 40.7291 97.481 42.8006 97.481 42.8006C97.8626 42.146 98.1236 41.4236 98.2509 40.67C98.2927 41.4644 98.2544 42.2611 98.1368 43.0472C98.4505 42.9091 98.6406 41.9227 98.6406 41.9227C98.753 42.6568 98.8102 43.3989 98.8116 44.1422C99.0497 43.4035 99.181 42.6323 99.2013 41.8537C99.4715 42.3613 99.6488 42.9165 99.7241 43.4911C99.8222 42.6335 99.7345 41.7641 99.4675 40.9462C99.7621 41.0547 100.18 41.9326 100.18 41.9326C99.9736 41.035 99.6199 40.1809 99.1348 39.4074C99.6196 39.4074 100.475 40.8771 100.475 40.8771C100.475 39.6934 99.0778 38.2434 99.0778 38.2434C99.4924 38.4687 99.876 38.7507 100.218 39.0818C99.5885 38.2471 98.8029 37.5526 97.9087 37.0399C98.1769 37.0179 98.4464 37.0584 98.6976 37.1583C97.3552 36.0785 95.8063 35.3084 94.1543 34.8994C94.0288 34.4661 93.8256 34.0611 93.5555 33.7058C93.9072 33.7058 94.9242 34.929 94.9242 34.929C94.7475 34.5402 94.5508 34.1615 94.3349 33.7946C95.0526 34.2935 95.7155 34.8724 96.3119 35.5209C95.9792 34.8698 95.542 34.1991 95.542 34.1991C96.0267 34.3963 96.7681 35.6688 96.7681 35.6688C96.6458 35.1127 96.4541 34.5755 96.1978 34.0708C96.6548 34.6915 97.1996 35.2369 97.8137 35.6886C97.5266 34.7654 97.0609 33.9127 96.445 33.183C97.0057 33.2817 98.4695 35.294 98.4695 35.294C98.9352 35.8562 99.2109 35.7477 99.2109 35.7477C97.9182 34.3273 98.2128 34.0906 98.2128 34.0906C98.7071 34.1399 99.3344 35.4814 99.3344 35.4814C99.3737 35.6279 99.4423 35.7642 99.5356 35.8815C99.6289 35.9987 99.745 36.0943 99.8762 36.162C99.7241 36.0141 99.8762 35.5209 99.8762 35.5209C100.269 35.9438 100.77 36.2415 101.321 36.3791C99.2774 34.4062 99.42 34.0609 99.42 34.0609C100.031 34.3258 100.596 34.6923 101.093 35.146C100.953 34.8419 100.736 34.5828 100.465 34.3963C101.265 34.6116 102.02 34.9795 102.69 35.4814C101.764 34.5049 100.591 33.8208 99.3059 33.5085C99.5319 33.3338 99.8036 33.2341 100.085 33.2225C99.1587 32.774 98.1592 32.5096 97.1388 32.4432C97.6172 32.2925 98.1124 32.2063 98.6121 32.1868C97.7592 32.0185 96.879 32.0796 96.0553 32.3643C96.0553 31.9402 97.3384 31.6146 97.3384 31.6146C96.521 31.3286 94.601 32.2953 94.601 32.2953C94.9429 31.8087 95.4366 31.4601 95.9982 31.3088C95.2474 31.1806 93.8026 32.3742 93.8026 32.3742C93.2825 32.4292 92.7832 32.6154 92.3484 32.9167C92.0482 32.8945 91.7577 32.7962 91.5025 32.6306C92.0767 32.6243 92.6493 32.5649 93.2133 32.4531C92.9742 32.4163 92.7387 32.3568 92.51 32.2755C92.79 32.2409 93.0666 32.1815 93.3369 32.098C93.1415 32.1067 92.9505 32.0359 92.8046 31.9007C93.3333 31.951 93.8662 31.8769 94.3634 31.6837C93.9744 31.7171 93.5844 31.6313 93.2419 31.4371C94.2779 31.4371 94.3824 31.2792 94.3824 31.2792C94.2808 31.2725 94.1817 31.2435 94.0916 31.1942C94.0015 31.1449 93.9224 31.0764 93.8597 30.9932C94.8672 30.8551 94.9717 30.4309 94.9717 30.4309C94.6485 30.4309 94.5725 30.2139 94.5725 30.2139C95.8176 30.2139 96.0362 29.6911 96.0362 29.6911C95.3614 29.6911 95.1998 29.4445 95.1998 29.4445H96.2359C96.3651 29.4298 96.4887 29.3815 96.5951 29.3039C96.7014 29.2262 96.7871 29.1219 96.8442 29.0006C96.7111 29.0795 96.3024 28.8231 96.3024 28.8231C97.1483 28.4877 97.2053 28.0931 97.2053 28.0931C96.9998 28.15 96.7835 28.15 96.578 28.0931C96.975 27.7691 97.4093 27.4974 97.8707 27.2842C97.3954 27.1067 96.6065 27.669 96.6065 27.669C96.7776 27.5407 96.7111 27.1166 96.7111 27.1166C96.222 27.3966 95.7947 27.7797 95.4565 28.2411C95.5162 27.9426 95.6291 27.6582 95.7891 27.4026C95.2759 27.59 94.4109 29.0993 94.4109 29.0993C94.4103 28.9986 94.384 28.8999 94.3349 28.8132C94.0326 29.0769 93.7498 29.3637 93.489 29.6714C93.7387 29.0712 94.0579 28.5048 94.4394 27.9846C93.9262 28.2214 92.8902 30.0462 92.8902 30.0462C92.991 29.5374 93.1606 29.0459 93.3939 28.5863C93.0079 29.035 92.6876 29.5402 92.4434 30.0857C92.3389 29.849 92.7476 28.7639 92.7476 28.7639C92.3959 28.8724 91.512 30.9636 91.512 30.9636L91.7496 29.7305C91.474 29.8489 90.8657 31.4568 90.8657 31.4568C90.0933 32.3977 89.3759 33.3859 88.7176 34.416C89.3977 33.1694 89.9367 31.8454 90.3239 30.4704C90.1908 30.9241 89.554 31.2595 89.554 31.2595C89.5065 31.0425 90.2383 30.2731 90.2383 30.2731C90.6634 29.7447 90.9104 29.0865 90.9417 28.3989C90.9417 28.6948 90.4569 28.7737 90.4569 28.7737C90.9108 28.2221 91.1691 27.5259 91.1888 26.8009C91.0538 27.2031 90.7971 27.5491 90.4569 27.7873C91.3029 26.4754 90.7991 25.9328 90.7991 25.9328C90.7991 25.9328 90.7991 25.9328 90.7991 25.992C90.7809 26.189 90.7213 26.3795 90.6244 26.55C90.5275 26.7204 90.3957 26.8667 90.2383 26.9784C90.1784 26.7057 90.1784 26.4226 90.2383 26.1499C90.4548 25.67 90.4821 25.1213 90.3144 24.6209C90.4094 24.9267 90.0007 25.0155 90.0007 25.0155C89.9394 24.7107 89.9139 24.3994 89.9247 24.0882C89.7061 24.1573 89.554 25.124 89.554 25.124C89.5005 24.775 89.4782 24.4217 89.4874 24.0685C89.2878 23.0229 88.8316 23.0821 88.8316 23.0821C89.1168 23.6345 88.7556 23.9008 88.7556 23.9008C88.1283 22.4606 87.3679 22.5889 87.3679 22.5889C88.518 23.7134 88.4514 24.4828 88.4514 24.4828C87.7671 23.7923 87.3204 23.8811 87.3204 23.8811C87.5381 23.9414 87.7337 24.0672 87.8826 24.2428C88.0314 24.4184 88.1268 24.6357 88.1568 24.8675C87.893 24.75 87.6071 24.6961 87.3204 24.7097C87.6288 24.8419 87.9054 25.043 88.1304 25.2988C88.3555 25.5545 88.5235 25.8586 88.6225 26.1893C88.3325 25.9534 88.068 25.6855 87.8336 25.3903C88.0986 25.9235 88.4172 26.4261 88.7841 26.8897C88.5655 26.9982 87.8336 25.9033 87.8336 25.9033C88.0895 26.4752 88.4402 26.9961 88.8696 27.4421C88.6986 27.5013 87.7005 26.7516 87.7005 26.7516C88.051 27.3505 88.4655 27.9064 88.9362 28.4088C88.7205 28.221 88.4557 28.1042 88.1758 28.0734C88.632 28.5164 88.9188 29.1153 88.9837 29.7602C88.6665 29.5448 88.3787 29.286 88.1283 28.9907C88.352 29.45 88.6127 29.8889 88.9076 30.3027C88.7915 30.1932 88.6511 30.1153 88.4989 30.0758C88.5563 30.1376 88.5972 30.2137 88.6175 30.2969C88.6379 30.3801 88.637 30.4673 88.6149 30.5499C88.5928 30.6326 88.5504 30.7079 88.4917 30.7683C88.433 30.8287 88.3602 30.8723 88.2804 30.8946C85.9707 23.1512 83.6705 23.1413 83.6705 23.1413C84.4787 23.8132 85.1506 24.6447 85.6475 25.5876C85.0012 24.69 84.3834 24.7097 84.3834 24.7097C85.7521 25.3706 86.5695 27.7479 86.5695 27.7479C86.3509 27.4475 86.0677 27.2043 85.7426 27.0376C86.1718 27.4734 86.4465 28.047 86.522 28.6652C85.7045 28.3595 85.4669 28.6061 85.4669 28.6061C86.4174 29.1881 86.5124 29.701 86.5124 29.701C86.0826 29.3147 85.5858 29.0168 85.0487 28.8231C85.0499 29.1225 85.1217 29.4172 85.2578 29.6812C84.9198 29.3576 84.6023 29.0117 84.3073 28.6455C84.0862 28.6206 83.8631 28.6206 83.642 28.6455C83.6783 28.8561 83.7667 29.0533 83.8986 29.2176C83.8986 29.2176 83.68 28.971 83.4614 28.6751C83.3708 28.6891 83.2816 28.7122 83.1953 28.7441C82.7581 28.8428 82.5299 30.3224 82.5299 30.3224C82.9167 30.196 83.3241 30.1523 83.7275 30.1942C83.494 30.3569 83.3068 30.5817 83.1858 30.8452C83.5278 30.6399 83.9331 30.5798 84.3168 30.6775C83.8511 30.8255 83.3664 31.6639 83.3664 31.6639C83.6283 31.5946 83.9028 31.5946 84.1648 31.6639C83.9557 31.9204 84.0697 32.0782 84.0697 32.0782C84.3856 31.9872 84.7223 32.0152 85.0202 32.1572C84.9217 32.2645 84.8528 32.3974 84.8206 32.5419C85.0084 32.4813 85.2074 32.4686 85.401 32.5046C85.5945 32.5407 85.7769 32.6245 85.9327 32.749C85.6 32.6208 84.8396 33.0548 84.8396 33.0548H85.1248C85.4272 33.0815 85.7246 33.1511 86.0087 33.2619C85.8091 33.2619 85.5905 33.5283 85.5905 33.5283L86.2748 33.4395C86.8853 34.2107 87.3701 35.0804 87.7101 36.0141C86.4296 35.0314 85.0257 34.2348 83.5374 33.6467C83.7684 34.4869 83.9368 35.3443 84.0412 36.2113C83.3913 35.1068 82.6705 34.049 81.8836 33.045C81.3133 32.8575 80.7716 32.7095 80.2773 32.5813C80.0866 33.1578 80.0154 33.7696 80.0682 34.3766C79.8632 33.7374 79.7324 33.0751 79.6785 32.4038L79.1367 32.2854C79.0317 32.8373 78.9902 33.4002 79.0132 33.9623C78.837 33.3818 78.7035 32.7883 78.614 32.1868L78.1577 32.1078C78.1527 32.1636 78.1527 32.2197 78.1577 32.2755L78.1007 32.098L77.6445 32.0388C77.1001 31.9455 76.5446 31.9455 76.0001 32.0388C76.0001 32.0388 76.0001 32.098 76.0001 32.1374C75.9961 32.1047 75.9961 32.0715 76.0001 32.0388C75.6546 32.0842 75.3119 32.1501 74.9736 32.2361C76.4184 32.5616 75.6485 32.6109 75.6485 32.6109C75.3089 32.6138 74.9739 32.6918 74.6657 32.8398C74.3576 32.9878 74.0834 33.2023 73.8616 33.4691C74.0327 33.3014 74.755 33.2916 74.755 33.2916C74.7075 33.5678 73.7475 34.4259 73.7475 34.4259C74.6096 34.0912 75.4374 33.6683 76.2188 33.1633C75.6958 33.4688 75.2723 33.9289 75.0022 34.4851C75.639 33.9048 76.3488 33.417 77.1122 33.0351C76.4056 33.5661 75.8293 34.2622 75.4299 35.0671C75.9952 34.2957 76.7961 33.7462 77.7015 33.5085C75.8006 34.8797 76.1332 35.294 76.1332 35.294C76.3133 34.9833 76.5531 34.7144 76.8376 34.5039C77.1221 34.2935 77.4453 34.1461 77.7871 34.0708C77.5329 34.2191 77.3119 34.4214 77.1382 34.6645C76.9646 34.9076 76.8424 35.1859 76.7795 35.4814C77.23 34.9239 77.8282 34.5157 78.4999 34.3075C77.9314 34.7185 77.5076 35.3108 77.2928 35.9943C77.7013 35.5678 78.1576 35.1935 78.652 34.8797C78.3009 35.1766 78.0483 35.5802 77.9296 36.0338C79.0702 34.4752 79.8306 34.564 79.8306 34.564C79.3908 34.8364 79.0551 35.258 78.8801 35.7576C79.0883 35.4717 79.3676 35.25 79.688 35.1164C79.2888 35.5406 79.2888 35.7773 79.2888 35.7773C80.5434 34.6626 80.9046 34.7219 80.9046 34.7219C80.7698 34.8832 80.6838 35.0822 80.6575 35.294C80.8377 35.2074 81.0339 35.1625 81.2325 35.1625C81.4311 35.1625 81.6274 35.2074 81.8076 35.294C78.747 35.7083 77.8916 37.5529 77.8916 37.5529C76.8176 37.7798 75.9906 39.7724 75.9906 39.7724C76.1468 39.711 76.3192 39.711 76.4754 39.7724C75.8386 40.1176 75.734 41.5775 75.734 41.5775C76.0181 40.969 76.4548 40.4512 76.9981 40.0781C76.7893 40.4196 76.6834 40.818 76.694 41.2224C77.3308 39.2495 78.2053 39.0818 78.2053 39.0818C77.9742 39.3332 77.8112 39.6435 77.7328 39.9813C77.6543 40.319 77.6632 40.6723 77.7585 41.0054C77.8898 40.451 78.1047 39.9216 78.3953 39.4369C78.3779 39.6966 78.4306 39.9563 78.5474 40.1866C78.5091 39.5162 78.72 38.856 79.1367 38.342C78.8686 38.893 78.7256 39.5004 78.7185 40.1176C78.8785 39.4869 79.1598 38.8963 79.5454 38.3815C79.3146 38.9074 79.2009 39.4806 79.2128 40.0584C79.3156 39.5441 79.5485 39.0674 79.8876 38.6774C79.8725 38.9603 79.8311 39.2412 79.764 39.5159C79.9379 39.0769 80.0684 38.6208 80.1537 38.1546C80.3819 37.1682 80.8476 37.3359 80.8476 37.3359C80.445 37.9908 80.249 38.7597 80.2868 39.5356C80.4104 38.8916 80.7465 38.3125 81.2373 37.8981C81.1738 38.3002 81.0587 38.6917 80.8951 39.0621C81.2977 38.6916 81.6214 38.2381 81.8456 37.7305L81.9121 37.8093C81.9661 38.0552 81.9916 38.3069 81.9882 38.559C82.2068 38.8845 82.3113 38.4308 82.3113 38.4308C82.3684 38.2631 82.606 37.9869 82.701 38.0066C82.7961 38.0264 82.8151 38.3716 82.8151 38.3716H83.1383L83.2428 38.0559C83.5184 37.7797 83.7941 37.7305 83.8701 37.8587C83.9462 37.9869 84.2598 38.0165 84.2598 38.0165C84.251 37.8555 84.251 37.6941 84.2598 37.5332C84.2598 37.3063 85.2103 37.109 85.2103 37.109C85.8756 36.961 85.6475 37.4542 85.6475 37.4542C84.9911 37.9045 84.2541 38.2132 83.4804 38.3617C82.795 38.4888 82.1409 38.7567 81.5566 39.1496C80.9722 39.5426 80.4694 40.0528 80.0777 40.6502C80.4389 40.7291 80.4009 40.8475 80.4009 40.8475C79.8294 41.0381 79.3305 41.4109 78.9752 41.9129C79.0702 41.8537 79.5074 42.0016 79.5074 42.0016C78.4904 42.3271 77.8156 44.1027 77.8156 44.1027C78.2243 44.0435 78.2528 44.2408 78.2528 44.2408C77.8459 44.5471 77.5725 45.0082 77.4924 45.5231C77.8346 45.2667 78.0152 45.4443 78.0152 45.4443C77.7486 45.6687 77.5371 45.9557 77.3983 46.2815C77.2595 46.6073 77.1973 46.9627 77.2168 47.3184C77.2168 47.062 77.8156 46.4504 77.8156 46.4504C77.7933 46.6305 77.7933 46.8128 77.8156 46.9929C77.8156 46.6082 78.652 45.8388 78.652 45.8388C78.6716 46.1814 78.5992 46.5228 78.4429 46.8252C78.8609 46.3194 79.1486 45.712 79.2793 45.0596C79.274 45.3004 79.3593 45.5338 79.5169 45.7106C79.4599 44.4085 79.7831 44.2507 79.7831 44.2507C79.9013 44.6407 79.9684 45.0455 79.9827 45.4541C80.0545 45.0564 80.0545 44.6484 79.9827 44.2507C79.9256 43.6194 80.2963 43.5306 80.2963 43.5306C80.2963 44.9609 80.686 45.1779 80.686 45.1779C80.5662 44.4694 80.6454 43.74 80.9141 43.0768C80.8727 43.2605 80.869 43.4512 80.9034 43.6365C80.9378 43.8218 81.0095 43.9975 81.1137 44.1521C81.1076 43.5776 81.2416 43.0109 81.5034 42.5047C81.3704 42.8697 81.7125 43.7377 81.7125 43.7377C81.6843 43.2121 81.7687 42.6866 81.9596 42.1989C81.9474 42.7585 82.0147 43.3169 82.1593 43.8561C82.1102 42.7645 82.2618 41.6732 82.606 40.6404C82.5404 41.3698 82.6213 42.1053 82.8436 42.8006C82.8662 41.9631 82.9713 41.1302 83.1573 40.3149C83.1357 40.9789 83.2028 41.6428 83.3568 42.2877C83.5824 41.5915 83.7447 40.8748 83.8416 40.1472C83.8824 40.4742 83.8983 40.804 83.8891 41.1336C84.1025 40.545 84.2492 39.9325 84.3264 39.3087C84.3236 39.6486 84.3917 39.9851 84.5259 40.2951C84.6875 39.9104 84.9917 38.6577 84.9917 38.6577C84.9757 39.0403 84.9085 39.4187 84.7921 39.7822C85.0331 39.5125 85.1745 39.1631 85.1913 38.7957C85.1438 38.3124 86.579 37.9278 86.579 37.9278C85.9627 38.5151 85.417 39.1775 84.9537 39.9006C80.6385 46.4011 76.2188 62.0753 76.2188 62.0753C75.8196 63.9791 74.0992 68.6646 74.0992 68.6646C73.5859 69.3847 73.5574 68.5758 73.5574 68.5758C73.0822 65.3305 72.0557 65.3995 72.0557 65.3995C72.4355 66.6442 72.7528 67.9085 73.0061 69.1874C72.8302 68.9301 72.6225 68.698 72.3883 68.4969C72.3727 68.5973 72.3335 68.6921 72.2743 68.7731C72.7236 69.4005 73.1302 70.0597 73.4909 70.7459C73.1582 70.5881 72.4929 71.2096 72.4929 71.2096H72.9776V71.4759C72.9776 71.5449 77.5399 71.4759 77.5399 71.4759C77.4639 71.0024 79.0512 70.4894 79.0512 70.4894C78.9086 70.3316 77.4449 70.6473 77.4449 70.6473C77.7015 70.1048 79.1082 69.6609 79.1082 69.6609C78.7565 69.4044 76.675 70.45 76.675 70.45C77.9329 69.0435 79.479 67.948 81.1993 67.2441C79.5454 67.1554 76.9506 69.3945 76.9506 69.3945C76.9506 69.1874 76.9506 69.0394 77.1122 68.4969C77.2738 67.9544 78.7756 66.7411 78.7756 66.7411C78.1206 67.1037 77.5215 67.5658 76.9981 68.1122Z" fill="url(#paint28_linear)"/>
<path fill-rule="evenodd" clip-rule="evenodd" d="M66.8737 17.0844C66.9421 17.1264 67.0058 17.176 67.0638 17.2323L66.8737 17.0844ZM82.7087 33.2123C83.4956 34.2164 84.2164 35.2743 84.8663 36.3788C84.7656 35.5111 84.5971 34.6534 84.3625 33.8141C81.2735 22.9634 68.3945 24.2162 68.3945 24.2162C70.4571 23.3777 71.1889 24.2162 71.1889 24.2162C71.147 24.0683 71.1462 23.9112 71.1866 23.7628C71.227 23.6145 71.3068 23.4811 71.417 23.3778C71.5155 23.6138 71.6628 23.8244 71.8484 23.9949C72.0339 24.1653 72.2534 24.2914 72.4911 24.3642C72.2931 24.2203 72.1554 24.0035 72.1059 23.7579C72.0565 23.5124 72.099 23.2565 72.2249 23.0424C72.32 23.7723 73.5176 24.1965 73.5176 24.1965C73.36 24.0611 73.2463 23.8787 73.1919 23.674C73.1375 23.4694 73.145 23.2523 73.2134 23.0522C73.2705 23.575 74.9433 24.3049 74.9433 24.3049C74.7817 23.7328 75.1619 23.7131 75.1619 23.7131C75.2364 23.9927 75.3827 24.246 75.5853 24.4459C75.7879 24.6457 76.0391 24.7846 76.312 24.8475C76.1694 24.3247 75.9223 23.6046 75.9223 23.6046C76.5591 23.9203 76.8253 25.1927 76.8253 25.1927C77.0153 25.104 77.7757 25.7156 77.7757 25.7156C77.6266 25.2722 77.4221 24.851 77.1674 24.4628C77.5096 24.2557 78.5741 25.8142 78.6977 25.9917C78.1559 25.173 77.8708 22.3124 77.8708 22.3124C78.1556 23.7454 78.6322 25.13 79.287 26.4258C79.287 26.1989 79.5151 26.1397 79.5151 26.1397C79.4581 26.4357 79.9618 26.6921 79.9618 26.6921C79.893 26.4003 79.9267 26.0925 80.0569 25.8241C80.3174 26.2611 80.5492 26.7159 80.7507 27.1853C80.694 26.3208 80.5376 25.4663 80.285 24.6404C80.7962 25.6467 81.2162 26.7001 81.5396 27.787C81.3674 26.6899 81.4389 25.5664 81.7487 24.5022C81.684 25.8245 81.9561 27.1412 82.5376 28.3197C82.4677 28.0077 82.4664 27.6835 82.5339 27.371C82.6013 27.0584 82.7358 26.7657 82.9273 26.5146C82.6802 27.0374 83.3456 28.9017 83.3456 28.9017C82.9844 26.12 83.4596 26.2285 83.4596 26.2285C83.4099 26.7131 83.4605 27.2032 83.608 27.6659C83.7556 28.1286 83.9966 28.5533 84.315 28.9116H84.4956C84.4258 28.4276 84.4258 27.9356 84.4956 27.4516C84.5762 28.0038 84.8184 28.517 85.1895 28.9214C85.4324 28.9495 85.6715 29.0057 85.9023 29.0891C85.885 28.6433 85.9137 28.1969 85.9879 27.7574C86.216 27.7574 86.8433 28.2802 86.8433 28.2802C86.4656 27.5362 85.9252 26.8944 85.2655 26.406C85.6267 26.1002 86.8433 27.284 86.8433 27.284C86.6627 25.9227 83.355 24.2162 83.355 24.2162C84.0299 23.9992 85.1419 24.7785 85.1419 24.7785C84.486 23.8996 83.5875 23.2492 82.5662 22.9141C82.8418 22.7267 83.6402 22.9141 83.6402 22.9141C83.2505 21.7699 80.2945 21.9277 80.2945 21.9277C80.2945 21.4937 82.5186 21.8389 82.5186 21.8389C77.9373 19.1854 69.0218 23.5849 69.0218 23.5849C68.8507 22.9832 71.7307 22.2631 71.7307 22.2631C72.5661 21.7261 73.4767 21.3268 74.4301 21.0794C72.8618 21.1978 72.6432 20.7539 72.6432 20.7539C73.5416 20.607 74.4592 20.6473 75.3425 20.8722C75.1996 20.8344 75.0708 20.7532 74.9726 20.639C74.8744 20.5248 74.8113 20.3827 74.7912 20.2311C75.6294 20.5356 76.5258 20.6269 77.4051 20.4974C77.0653 20.4262 76.7635 20.2256 76.5591 19.9351C78.0514 20.0732 78.4601 19.511 78.4601 19.511C77.1654 19.6057 75.8667 19.4001 74.6582 18.9093C74.6582 18.5245 77.272 18.8501 77.272 18.8501C76.7587 18.3667 74.8292 18.416 74.8292 18.416C75.409 17.8834 76.8443 18.0609 76.8443 18.0609C77.3437 18.3344 77.9245 18.4014 78.4696 18.2484C78.2517 18.2405 78.0393 18.1747 77.8529 18.0572C77.6666 17.9398 77.5123 17.7746 77.4051 17.5776C78.1179 17.9623 79.0684 18.1004 79.4106 17.6565C78.8783 17.6565 77.5096 16.7983 78.3365 17.114C79.0221 17.2991 79.7484 17.2293 80.3895 16.9167C79.9715 16.9 79.5553 16.8506 79.1444 16.7687C78.8308 16.6306 79.192 16.4432 79.192 16.4432C79.5673 16.5655 79.9664 16.5872 80.352 16.5061C80.7377 16.425 81.0972 16.2439 81.3971 15.9796C80.8959 16.055 80.3869 16.055 79.8858 15.9796C80.1519 15.4667 81.8818 14.9932 81.8818 14.9932C81.2355 14.5296 79.6577 15.437 79.6577 15.437C74.6772 14.7564 73.356 18.1596 73.356 18.1596C72.3295 20.5171 68.1949 24.0781 68.1949 24.0781C68.1914 23.9291 68.2165 23.7808 68.2687 23.642C68.321 23.5031 68.3993 23.3764 68.4991 23.2692C68.4991 22.6182 70.2955 21.3951 70.2955 21.3951C70.0274 21.4939 69.7432 21.5374 69.459 21.5233C69.288 21.2175 70.4095 20.9709 70.4095 20.9709C71.1034 20.8624 71.0749 20.6355 71.0749 20.6355C70.9021 20.6687 70.7249 20.6687 70.5521 20.6355C70.5947 20.5226 70.6641 20.4228 70.7539 20.3452C70.8436 20.2676 70.9507 20.2148 71.0654 20.1916C71.3789 20.1377 71.6719 19.9943 71.9113 19.7773C71.7063 19.8379 71.4871 19.8204 71.2935 19.728C71.5007 19.7219 71.7048 19.6734 71.8939 19.5854C72.0831 19.4974 72.2537 19.3715 72.396 19.215C72.0432 19.3493 71.6558 19.3493 71.303 19.215C71.6731 19.1752 72.0139 18.9878 72.2535 18.6923C71.303 18.8205 71.5026 18.6923 71.5026 18.6923L72.0634 18.4259C72.5088 18.2458 72.8857 17.9204 73.1374 17.4987C72.6718 17.6987 72.1487 17.6987 71.6832 17.4987C72.5867 17.218 73.4475 16.8062 74.24 16.2755C73.6663 16.1888 73.0811 16.2394 72.5291 16.4235C73.3264 15.9544 74.1796 15.5963 75.0669 15.3582C74.6245 15.2993 74.1754 15.3329 73.7457 15.4568C74.4789 15.0206 75.2654 14.6888 76.0839 14.4704C75.4851 14.1152 73.5841 14.8551 73.5841 14.8551C74.3635 13.4938 76.8158 12.7441 76.8158 12.7441C76.2134 12.6521 75.5985 12.7117 75.0229 12.9176C74.4473 13.1236 73.9278 13.4701 73.5081 13.9278C73.4225 13.6714 73.8978 12.9414 73.8978 12.9414C73.0233 13.1979 71.7497 15.2496 71.7497 15.2496C71.7584 14.9629 71.8231 14.6811 71.9398 14.4211C71.4361 14.5098 70.8087 16.167 70.8087 16.167C70.7557 16.1947 70.6971 16.2092 70.6377 16.2092C70.5782 16.2092 70.5196 16.1947 70.4665 16.167C69.8003 17.0936 69.3689 18.1789 69.2119 19.3235C68.9553 19.8661 68.6606 19.5011 68.6606 19.5011C69.0222 18.9059 69.2406 18.2293 69.2975 17.5282C68.9648 17.7748 68.9458 17.5282 68.9458 17.5282C69.1918 17.3522 69.3784 17.1004 69.479 16.8083C69.5796 16.5162 69.5893 16.1987 69.5066 15.9007C69.4772 16.0676 69.3947 16.2195 69.2724 16.3321C69.1501 16.4448 68.9949 16.5117 68.8317 16.5221C69.5731 14.7466 69.1739 13.8883 69.1739 13.8883C69.0567 14.1636 68.9582 14.4471 68.8793 14.7367C68.4991 14.8255 68.6226 14.4901 68.6226 14.4901C68.8032 12.0734 68.1474 11.9944 68.1474 11.9944C68.2139 12.3594 68.2615 13.2373 68.2615 13.2373C68.0619 13.987 67.9573 13.336 67.9573 13.336C67.6151 11.1757 67.1494 11.2941 67.1494 11.2941C67.384 11.922 67.4433 12.6057 67.3205 13.267C66.2084 10.722 65.4195 11.156 65.4195 11.156C65.9149 11.7238 66.2847 12.3972 66.5031 13.1288C65.0678 12.32 64.6021 12.7441 64.6021 12.7441C65.2476 13.0553 65.8019 13.5386 66.2084 14.1448C65.41 13.77 65.1629 14.1448 65.1629 14.1448C67.0638 15.1312 67.311 16.0486 67.311 16.0486C66.6272 15.9535 65.9753 15.6897 65.41 15.2792C65.5336 15.9105 66.5886 16.8378 67.0258 17.1929C66.5061 16.9129 65.9619 16.6849 65.4005 16.5123C65.8173 17.1665 66.3088 17.766 66.8643 18.2977C66.5614 18.1816 66.2789 18.015 66.0278 17.8045C66.3899 18.441 66.8238 19.0304 67.3205 19.5603C67.1099 19.4433 66.9203 19.2899 66.7597 19.1065C66.7597 19.4617 67.4821 20.162 67.4821 20.162C67.587 20.5298 67.632 20.9132 67.6151 21.2964C67.9334 22.0743 68.1291 22.9003 68.1949 23.7427C67.9193 24.0584 67.7957 23.7427 67.7957 23.7427C67.7409 22.495 67.4771 21.2666 67.0163 20.1127C66.2179 17.3014 60.7337 16.384 60.7337 16.384C56.5135 14.569 50.8011 22.1546 50.8011 22.1546C51.9385 21.7503 52.9974 21.1391 53.9282 20.3494C53.1203 21.0893 53.4815 21.6219 53.4815 21.6219C56.447 18.4062 56.8367 18.8303 56.8367 18.8303C56.4827 19.0855 56.1905 19.4222 55.9827 19.8141C55.775 20.206 55.6573 20.6424 55.6391 21.0893C56.0375 20.5271 56.4863 20.0053 56.9793 19.5307C57.4165 19.215 57.388 19.5307 57.388 19.5307C57.1589 19.6757 56.9656 19.8744 56.8237 20.1107C56.6818 20.3471 56.5951 20.6146 56.5706 20.892C56.8937 20.5862 56.9793 20.4777 57.1979 20.4086C57.4165 20.3396 57.54 20.6157 57.54 20.6157C57.9486 19.8773 58.5703 19.2908 59.3174 18.9389C58.8408 19.4014 58.4395 19.9411 58.1294 20.5369C58.4715 20.7144 58.6331 20.5369 58.6331 20.5369C60.0588 18.6725 60.7622 18.9191 60.7622 18.9191C59.8117 19.9055 59.9638 20.6355 59.9638 20.6355C60.3345 20.0042 60.7147 19.9845 60.7147 19.9845C60.3915 20.5171 60.8667 20.3494 60.8667 20.3494C61.9027 18.6923 62.3875 19.1953 62.3875 19.1953C61.7697 19.4518 61.2754 20.6355 61.2754 20.6355C61.5606 20.1719 62.5206 20.1127 62.5206 20.1127C62.1499 20.2212 62.0453 20.892 62.0453 20.892C62.4255 20.4185 64.1649 20.2212 64.1649 20.2212C64.0673 20.2867 63.9861 20.3755 63.9281 20.48C63.8701 20.5846 63.837 20.702 63.8314 20.8225C63.8258 20.943 63.848 21.0632 63.896 21.1731C63.9441 21.2829 64.0167 21.3793 64.1078 21.4542C65.0583 21.0202 65.5621 21.4542 65.5621 21.4542C65.0488 21.4542 64.9823 22.0559 64.9823 22.0559C65.4345 21.8553 65.9336 21.797 66.4175 21.8883C66.2374 21.9312 66.0684 22.0143 65.9223 22.1319C65.7762 22.2494 65.6566 22.3985 65.5716 22.5689C66.5221 22.3026 66.6931 22.7464 66.6931 22.7464C66.5594 22.7732 66.435 22.8367 66.333 22.9304C66.231 23.0241 66.1552 23.1445 66.1134 23.2791C66.9973 23.1015 67.3965 24.1373 67.3965 24.1373C67.4899 24.2476 67.5566 24.3793 67.5913 24.5217C67.626 24.664 67.6277 24.8129 67.5961 24.956C67.2349 24.7785 65.9328 25.4394 65.9328 25.4394C66.3177 25.0076 66.7631 24.6385 67.2539 24.3444C66.1419 23.9499 64.0413 21.7501 64.0413 21.7501C62.7499 21.1095 61.3381 20.7727 59.9067 20.7637C56.7242 20.8264 53.5798 21.4951 50.6301 22.7366C47.3889 23.1805 47.3984 23.94 47.3984 23.94C47.7216 24.2754 50.9152 23.6046 50.9152 23.6046C49.4705 24.0288 49.3469 24.7094 49.3469 24.7094C50.3193 24.2596 51.3566 23.9797 52.417 23.8808C51.8555 24.4851 51.2379 25.0303 50.573 25.5084C51.3809 25.5084 52.2554 24.6502 53.4245 23.8117C54.5936 22.9733 54.8977 23.3284 54.8977 23.3284C51.9417 24.9363 52.3409 25.7057 52.3409 25.7057C56.0763 23.1114 56.1429 23.6342 56.1429 23.6342C53.2914 25.607 53.6716 26.2285 53.6716 26.2285C54.9932 25.555 56.2288 24.7134 57.35 23.723C58.8422 22.7366 58.538 23.3679 58.538 23.3679C55.1543 25.4098 55.5155 26.2186 55.5155 26.2186C55.9137 25.8106 56.3767 25.4769 56.8842 25.2322C57.2264 25.1335 57.1598 25.3703 57.1598 25.3703C56.6941 25.6169 56.3234 26.6132 56.3234 26.6132C57.4778 25.7565 58.6808 24.9726 59.9257 24.2655C57.5781 26.2383 57.6921 27.0472 57.6921 27.0472C60.3154 24.808 60.5435 25.2421 60.5435 25.2421C60.3178 25.4 60.1393 25.6206 60.0284 25.8787C59.9175 26.1368 59.8786 26.4221 59.9162 26.702C60.0493 26.1101 61.418 25.2519 61.418 25.2519L61.0473 25.6958C60.9388 25.8023 60.8643 25.9405 60.8337 26.0922C60.8031 26.2438 60.818 26.4015 60.8762 26.5441C61.4332 26.2721 61.9619 25.9416 62.454 25.5577C62.1879 26.189 61.8932 26.7414 61.8932 26.7414C62.4065 26.7414 63.9748 25.4887 63.9748 25.4887C62.416 26.9091 62.5491 27.4615 62.5491 27.4615C63.8702 27.1656 63.4995 27.6687 63.4995 27.6687C59.8212 29.0003 59.2034 30.8252 59.2034 30.8252C61.3039 29.4344 61.8552 29.6908 61.8552 29.6908C58.0533 31.6637 58.0533 32.6501 58.0533 32.6501C59.7261 31.2296 60.2774 31.565 60.2774 31.565C57.9107 32.6106 57.6541 34.1495 57.6541 34.1495C59.1559 32.4725 59.5551 33.0151 59.5551 33.0151C56.7036 34.9879 56.7036 36.2604 56.7036 36.2604C57.7206 35.0471 58.0723 35.4417 58.0723 35.4417C56.1048 36.6254 55.1163 39.7227 55.1163 39.7227C57.1503 36.9805 57.5305 37.4934 57.5305 37.4934C55.449 40.5415 56.1999 41.4983 56.1999 41.4983C56.8937 38.5884 57.4355 39.2985 57.4355 39.2985C56.2474 42.2578 56.8652 43.0667 56.8652 43.0667C57.7586 39.121 58.2434 39.6833 58.2434 39.6833C58.1091 40.3335 58.1091 41.0059 58.2434 41.6561C58.423 41.5433 58.5743 41.3879 58.685 41.2028C58.7957 41.0176 58.8626 40.8079 58.8802 40.5908C59.1273 37.2468 59.7451 37.6315 59.7451 37.6315C59.2794 39.6043 59.7451 39.5156 59.7451 39.5156C59.9462 38.1184 60.2643 36.742 60.6956 35.4022C61.0283 33.3011 61.5035 33.6266 61.5035 33.6266C60.4295 35.5995 60.2869 39.8411 60.2869 39.8411C61.1733 38.2109 61.6901 36.3927 61.7982 34.5243C61.8932 33.7253 62.2449 33.9818 62.2449 33.9818C62.1689 35.0866 61.9028 36.7931 61.9028 36.7931C61.9028 37.6019 62.2069 37.4737 62.2069 37.4737C62.6821 36.4873 62.7677 32.4035 62.7677 32.4035H63.0718L62.9673 36.3492C63.2531 36.2197 63.4784 35.9788 63.5946 35.6784C63.5946 34.1001 64.1078 34.2777 64.1078 34.2777C64.0943 34.4099 64.1068 34.5437 64.1443 34.6708C64.1819 34.7979 64.2439 34.9159 64.3265 35.0175C64.6535 34.3101 64.8991 33.5651 65.0583 32.7981C65.505 32.5909 65.3055 33.2025 65.3055 33.2025C60.0113 54.736 66.3795 70.6865 66.3795 70.6865C66.1362 70.3157 65.8214 70.0015 65.4548 69.7637C65.0883 69.526 64.6782 69.3699 64.2504 69.3055C64.57 69.9991 65.0117 70.6247 65.5526 71.1501C64.7637 70.8344 62.2164 70.5878 62.5396 71.0219C63.0153 71.3913 63.5638 71.6473 64.1459 71.7716H73.5081L73.4226 71.5939C73.1028 71.1136 72.6668 70.7293 72.1584 70.4793C72.5426 70.0847 72.8925 69.6555 73.2039 69.1969C73.1279 69.0983 73.0519 68.9898 72.9758 68.901C72.184 69.3641 71.4249 69.8849 70.7042 70.4596C71.2397 69.9274 71.7004 69.3198 72.0729 68.6544C72.1573 68.5535 72.2366 68.4482 72.3105 68.3388C72.6375 67.7748 72.8176 67.1324 72.8333 66.4744C71.6642 66.8789 70.362 69.7493 70.362 69.7493C69.6967 70.1636 69.7442 69.3351 69.7442 69.3351C70.4418 68.4259 70.9207 67.3574 71.1414 66.218C70.9418 65.1428 71.8067 61.7101 71.8067 61.7101C71.3856 61.9765 71.0282 62.3387 70.7615 62.7693C70.4948 63.1998 70.3257 63.6876 70.267 64.1958C70.0558 65.5562 69.6756 66.8825 69.1359 68.1415C69.1791 67.6954 69.1305 67.2449 68.9933 66.8197C68.9837 67.0757 68.901 67.3228 68.7557 67.5299C62.7867 52.6744 66.5411 33.2617 66.5411 33.2617C66.6241 32.0563 66.8119 30.8612 67.1019 29.6908C67.6532 28.7044 68.309 28.8819 68.309 28.8819C67.6411 29.4467 67.206 30.2546 67.0924 31.1409C68.309 29.75 68.8887 30.0558 68.8887 30.0558C67.9602 30.681 67.2711 31.623 66.9403 32.7191C67.3939 31.7489 68.1958 31.0018 69.1739 30.6378C67.9324 31.4985 67.0656 32.8301 66.7597 34.3468C66.9633 33.918 67.2498 33.5372 67.6014 33.2284C67.953 32.9195 68.3621 32.6891 68.8032 32.5515C66.9023 34.6723 66.8357 36.2012 66.8357 36.2012C68.8888 33.0644 69.8392 33.242 69.8392 33.242C68.7493 34.1943 67.9391 35.4452 67.5011 36.8522C69.5066 34.2086 69.5446 35.1063 69.5446 35.1063C69.1842 35.3428 68.8738 35.6527 68.632 36.0172C68.3902 36.3817 68.2221 36.7933 68.1379 37.2271C69.0884 36.0927 69.421 36.5465 69.421 36.5465C67.4345 38.6771 67.6721 40.4921 67.6721 40.4921C68.7367 38.2727 70.0198 38.2727 70.0198 38.2727C69.4826 38.9344 69.1513 39.7495 69.0693 40.6105C69.3756 39.9569 69.8843 39.4289 70.5141 39.1111C70.3145 39.4113 70.1666 39.745 70.0768 40.0975C68.309 44.5463 69.3545 45.0296 69.3545 45.0296C69.6016 43.7868 70.0864 43.7276 70.0864 43.8164C70.0864 43.9051 69.9058 44.6943 69.9058 44.6943C69.7476 45.0984 69.6883 45.5369 69.7331 45.9707C69.7778 46.4044 69.9254 46.8198 70.1624 47.18C69.8297 46.4205 70.8562 45.1382 70.8562 45.1382C71.19 44.284 71.4168 43.3889 71.5311 42.4749C71.6546 44.0433 72.3865 44.0235 72.3865 44.0235C72.5956 43.1259 71.8828 39.7721 71.8828 39.7721C72.4341 39.5945 72.9188 41.883 72.9188 41.883C73.4226 40.8176 72.7477 37.6809 72.7477 37.6809C73.2442 38.1601 73.5777 38.7934 73.6982 39.486C73.8194 38.9474 73.8194 38.3871 73.6982 37.8485C73.3114 36.899 73.1453 35.8684 73.2134 34.84C73.8958 35.7876 74.4462 36.8303 74.8483 37.9373C75.333 36.8719 73.7172 34.1889 73.7172 34.1889C74.0023 34.1889 74.4491 34.8597 74.4491 34.8597C74.6867 33.9719 73.2324 31.9004 73.2324 31.9004C73.6507 31.7919 74.7627 32.9855 74.7627 32.9855C75.0003 32.2259 72.4055 29.1582 72.4055 29.1582C72.7606 29.3951 73.0808 29.6842 73.356 30.0164C72.4922 28.3246 71.2743 26.8551 69.7917 25.7156C69.5161 25.2125 68.2329 24.6502 68.2329 24.6502C68.4313 24.6174 68.6334 24.6174 68.8317 24.6502C69.6206 24.739 70.5236 26.0707 70.5236 26.0707C70.5321 26.0306 70.5495 25.9932 70.5743 25.9613C70.5991 25.9294 70.6307 25.9038 70.6665 25.8866C70.7024 25.8694 70.7417 25.8611 70.7811 25.8622C70.8206 25.8633 70.8594 25.8739 70.8943 25.8931C70.7802 26.3074 71.4361 26.3863 71.4361 26.3863C71.7402 25.9523 71.8543 26.2877 71.8543 26.2877C71.7996 26.669 71.8239 27.058 71.9255 27.4288C72.0271 27.7996 72.2037 28.1437 72.4436 28.438C72.396 27.2938 72.8427 27.0078 72.8427 27.0078C72.8759 27.6464 72.9812 28.2787 73.1564 28.8918C73.1132 28.6484 73.144 28.3972 73.2444 28.1727C73.3449 27.9483 73.5101 27.7618 73.7172 27.639C73.641 27.9976 73.6441 28.3695 73.7264 28.7266C73.8087 29.0837 73.9681 29.4168 74.1924 29.7007C73.8883 27.7279 74.5346 27.3136 74.5346 27.3136C74.4677 28.2414 74.5942 29.1733 74.9053 30.0459C74.802 29.0024 74.9221 27.9481 75.257 26.9584C75.1414 28.23 75.1701 29.5113 75.3425 30.7759C75.3843 30.0761 75.5933 29.3981 75.9508 28.8031C75.5992 29.8092 75.5725 30.9067 75.8748 31.93C75.9508 29.7007 76.6447 29.2568 76.6447 29.2568C76.3944 30.232 76.4308 31.2625 76.7492 32.2161C76.7492 30.2432 77.7948 30.0065 77.7948 30.0065C77.6192 30.6919 77.6866 31.4201 77.9848 32.0583C77.8708 30.6378 78.6597 30.3123 78.6597 30.3123C78.5621 30.9753 78.6241 31.653 78.8403 32.2851H78.9068C78.9068 30.914 79.363 30.697 79.363 30.697C79.263 31.2478 79.263 31.8132 79.363 32.364C79.4526 32.9655 79.586 33.5591 79.7622 34.1396C79.742 33.5771 79.7867 33.0141 79.8953 32.4627C79.9884 31.9103 80.1819 31.3814 80.4656 30.9041C80.3949 31.4607 80.3949 32.0245 80.4656 32.581C80.5268 33.2521 80.6607 33.9139 80.8648 34.5539C80.8029 33.9475 80.8711 33.3344 81.0644 32.7586C81.1551 32.4758 81.2696 32.2019 81.4066 31.9399C81.879 32.3058 82.3039 32.7335 82.6707 33.2123H82.7087ZM70.5806 70.1045C70.5245 70.156 70.4641 70.2022 70.4 70.2426L70.5806 70.1045Z" fill="url(#paint29_linear)"/>
<defs>
<linearGradient id="paint0_linear" x1="2897.31" y1="5084.09" x2="3743.23" y2="5118.18" gradientUnits="userSpaceOnUse">
<stop stop-color="#A2792C"/>
<stop offset="0.26" stop-color="#BC992E"/>
<stop offset="0.42" stop-color="#BC992E"/>
<stop offset="0.53" stop-color="#A2792C"/>
<stop offset="1" stop-color="#BC992E"/>
</linearGradient>
<linearGradient id="paint1_linear" x1="4395.25" y1="4778.02" x2="5652.89" y2="4861.29" gradientUnits="userSpaceOnUse">
<stop stop-color="#A2792C"/>
<stop offset="0.26" stop-color="#BC992E"/>
<stop offset="0.42" stop-color="#BC992E"/>
<stop offset="0.53" stop-color="#A2792C"/>
<stop offset="1" stop-color="#BC992E"/>
</linearGradient>
<linearGradient id="paint2_linear" x1="2551.17" y1="6003.22" x2="3270.83" y2="6024.47" gradientUnits="userSpaceOnUse">
<stop stop-color="#A2792C"/>
<stop offset="0.26" stop-color="#BC992E"/>
<stop offset="0.42" stop-color="#BC992E"/>
<stop offset="0.53" stop-color="#A2792C"/>
<stop offset="1" stop-color="#BC992E"/>
</linearGradient>
<linearGradient id="paint3_linear" x1="1049.06" y1="3196.46" x2="1311.2" y2="3201.99" gradientUnits="userSpaceOnUse">
<stop stop-color="#A2792C"/>
<stop offset="0.26" stop-color="#BC992E"/>
<stop offset="0.42" stop-color="#BC992E"/>
<stop offset="0.53" stop-color="#A2792C"/>
<stop offset="1" stop-color="#BC992E"/>
</linearGradient>
<linearGradient id="paint4_linear" x1="1355.36" y1="2716.65" x2="1713.17" y2="2728.46" gradientUnits="userSpaceOnUse">
<stop stop-color="#A2792C"/>
<stop offset="0.26" stop-color="#BC992E"/>
<stop offset="0.42" stop-color="#BC992E"/>
<stop offset="0.53" stop-color="#A2792C"/>
<stop offset="1" stop-color="#BC992E"/>
</linearGradient>
<linearGradient id="paint5_linear" x1="1561.53" y1="2053.69" x2="1987.48" y2="2075.38" gradientUnits="userSpaceOnUse">
<stop stop-color="#A2792C"/>
<stop offset="0.26" stop-color="#BC992E"/>
<stop offset="0.42" stop-color="#BC992E"/>
<stop offset="0.53" stop-color="#A2792C"/>
<stop offset="1" stop-color="#BC992E"/>
</linearGradient>
<linearGradient id="paint6_linear" x1="1680.64" y1="1251.97" x2="2147.51" y2="1294.73" gradientUnits="userSpaceOnUse">
<stop stop-color="#A2792C"/>
<stop offset="0.26" stop-color="#BC992E"/>
<stop offset="0.42" stop-color="#BC992E"/>
<stop offset="0.53" stop-color="#A2792C"/>
<stop offset="1" stop-color="#BC992E"/>
</linearGradient>
<linearGradient id="paint7_linear" x1="1685.6" y1="1048.72" x2="2157.53" y2="1100.76" gradientUnits="userSpaceOnUse">
<stop stop-color="#A2792C"/>
<stop offset="0.26" stop-color="#BC992E"/>
<stop offset="0.42" stop-color="#BC992E"/>
<stop offset="0.53" stop-color="#A2792C"/>
<stop offset="1" stop-color="#BC992E"/>
</linearGradient>
<linearGradient id="paint8_linear" x1="1593.94" y1="1619.94" x2="2043.82" y2="1650.16" gradientUnits="userSpaceOnUse">
<stop stop-color="#A2792C"/>
<stop offset="0.26" stop-color="#BC992E"/>
<stop offset="0.42" stop-color="#BC992E"/>
<stop offset="0.53" stop-color="#A2792C"/>
<stop offset="1" stop-color="#BC992E"/>
</linearGradient>
<linearGradient id="paint9_linear" x1="1421.24" y1="2296.49" x2="1817.44" y2="2313.22" gradientUnits="userSpaceOnUse">
<stop stop-color="#A2792C"/>
<stop offset="0.26" stop-color="#BC992E"/>
<stop offset="0.42" stop-color="#BC992E"/>
<stop offset="0.53" stop-color="#A2792C"/>
<stop offset="1" stop-color="#BC992E"/>
</linearGradient>
<linearGradient id="paint10_linear" x1="1221.84" y1="3084.93" x2="1558.6" y2="3093.92" gradientUnits="userSpaceOnUse">
<stop stop-color="#A2792C"/>
<stop offset="0.26" stop-color="#BC992E"/>
<stop offset="0.42" stop-color="#BC992E"/>
<stop offset="0.53" stop-color="#A2792C"/>
<stop offset="1" stop-color="#BC992E"/>
</linearGradient>
<linearGradient id="paint11_linear" x1="943.772" y1="3609.55" x2="1197.25" y2="3613.92" gradientUnits="userSpaceOnUse">
<stop stop-color="#A2792C"/>
<stop offset="0.26" stop-color="#BC992E"/>
<stop offset="0.42" stop-color="#BC992E"/>
<stop offset="0.53" stop-color="#A2792C"/>
<stop offset="1" stop-color="#BC992E"/>
</linearGradient>
<linearGradient id="paint12_linear" x1="621.471" y1="3916" x2="778.328" y2="3917.54" gradientUnits="userSpaceOnUse">
<stop stop-color="#A2792C"/>
<stop offset="0.26" stop-color="#BC992E"/>
<stop offset="0.42" stop-color="#BC992E"/>
<stop offset="0.53" stop-color="#A2792C"/>
<stop offset="1" stop-color="#BC992E"/>
</linearGradient>
<linearGradient id="paint13_linear" x1="529.456" y1="3947.74" x2="643.744" y2="3948.65" gradientUnits="userSpaceOnUse">
<stop stop-color="#A2792C"/>
<stop offset="0.26" stop-color="#BC992E"/>
<stop offset="0.42" stop-color="#BC992E"/>
<stop offset="0.53" stop-color="#A2792C"/>
<stop offset="1" stop-color="#BC992E"/>
</linearGradient>
<linearGradient id="paint14_linear" x1="764.022" y1="3725.31" x2="942.132" y2="3727.64" gradientUnits="userSpaceOnUse">
<stop stop-color="#A2792C"/>
<stop offset="0.26" stop-color="#BC992E"/>
<stop offset="0.42" stop-color="#BC992E"/>
<stop offset="0.53" stop-color="#A2792C"/>
<stop offset="1" stop-color="#BC992E"/>
</linearGradient>
<linearGradient id="paint15_linear" x1="1039.84" y1="3298.21" x2="1301.39" y2="3303.69" gradientUnits="userSpaceOnUse">
<stop stop-color="#A2792C"/>
<stop offset="0.26" stop-color="#BC992E"/>
<stop offset="0.42" stop-color="#BC992E"/>
<stop offset="0.53" stop-color="#A2792C"/>
<stop offset="1" stop-color="#BC992E"/>
</linearGradient>
<linearGradient id="paint16_linear" x1="1343.48" y1="2794.86" x2="1701.29" y2="2806.67" gradientUnits="userSpaceOnUse">
<stop stop-color="#A2792C"/>
<stop offset="0.26" stop-color="#BC992E"/>
<stop offset="0.42" stop-color="#BC992E"/>
<stop offset="0.53" stop-color="#A2792C"/>
<stop offset="1" stop-color="#BC992E"/>
</linearGradient>
<linearGradient id="paint17_linear" x1="1548.94" y1="2109.34" x2="1975.55" y2="2131.14" gradientUnits="userSpaceOnUse">
<stop stop-color="#A2792C"/>
<stop offset="0.26" stop-color="#BC992E"/>
<stop offset="0.42" stop-color="#BC992E"/>
<stop offset="0.53" stop-color="#A2792C"/>
<stop offset="1" stop-color="#BC992E"/>
</linearGradient>
<linearGradient id="paint18_linear" x1="1664.39" y1="1305.32" x2="2131.39" y2="1347.09" gradientUnits="userSpaceOnUse">
<stop stop-color="#A2792C"/>
<stop offset="0.26" stop-color="#BC992E"/>
<stop offset="0.42" stop-color="#BC992E"/>
<stop offset="0.53" stop-color="#A2792C"/>
<stop offset="1" stop-color="#BC992E"/>
</linearGradient>
<linearGradient id="paint19_linear" x1="1668.94" y1="1056.74" x2="2140.82" y2="1108.96" gradientUnits="userSpaceOnUse">
<stop stop-color="#A2792C"/>
<stop offset="0.26" stop-color="#BC992E"/>
<stop offset="0.42" stop-color="#BC992E"/>
<stop offset="0.53" stop-color="#A2792C"/>
<stop offset="1" stop-color="#BC992E"/>
</linearGradient>
<linearGradient id="paint20_linear" x1="1580.23" y1="1621.96" x2="2030.83" y2="1652.39" gradientUnits="userSpaceOnUse">
<stop stop-color="#A2792C"/>
<stop offset="0.26" stop-color="#BC992E"/>
<stop offset="0.42" stop-color="#BC992E"/>
<stop offset="0.53" stop-color="#A2792C"/>
<stop offset="1" stop-color="#BC992E"/>
</linearGradient>
<linearGradient id="paint21_linear" x1="1405.85" y1="2297.13" x2="1802.06" y2="2313.64" gradientUnits="userSpaceOnUse">
<stop stop-color="#A2792C"/>
<stop offset="0.26" stop-color="#BC992E"/>
<stop offset="0.42" stop-color="#BC992E"/>
<stop offset="0.53" stop-color="#A2792C"/>
<stop offset="1" stop-color="#BC992E"/>
</linearGradient>
<linearGradient id="paint22_linear" x1="1208.91" y1="3013.35" x2="1545.71" y2="3022.4" gradientUnits="userSpaceOnUse">
<stop stop-color="#A2792C"/>
<stop offset="0.26" stop-color="#BC992E"/>
<stop offset="0.42" stop-color="#BC992E"/>
<stop offset="0.53" stop-color="#A2792C"/>
<stop offset="1" stop-color="#BC992E"/>
</linearGradient>
<linearGradient id="paint23_linear" x1="933.989" y1="3537.08" x2="1187.47" y2="3541.45" gradientUnits="userSpaceOnUse">
<stop stop-color="#A2792C"/>
<stop offset="0.26" stop-color="#BC992E"/>
<stop offset="0.42" stop-color="#BC992E"/>
<stop offset="0.53" stop-color="#A2792C"/>
<stop offset="1" stop-color="#BC992E"/>
</linearGradient>
<linearGradient id="paint24_linear" x1="602.864" y1="3817.9" x2="756.094" y2="3819.38" gradientUnits="userSpaceOnUse">
<stop stop-color="#A2792C"/>
<stop offset="0.26" stop-color="#BC992E"/>
<stop offset="0.42" stop-color="#BC992E"/>
<stop offset="0.53" stop-color="#A2792C"/>
<stop offset="1" stop-color="#BC992E"/>
</linearGradient>
<linearGradient id="paint25_linear" x1="524.374" y1="3824.05" x2="638.336" y2="3824.96" gradientUnits="userSpaceOnUse">
<stop stop-color="#A2792C"/>
<stop offset="0.26" stop-color="#BC992E"/>
<stop offset="0.42" stop-color="#BC992E"/>
<stop offset="0.53" stop-color="#A2792C"/>
<stop offset="1" stop-color="#BC992E"/>
</linearGradient>
<linearGradient id="paint26_linear" x1="771.49" y1="3614.58" x2="951.262" y2="3616.95" gradientUnits="userSpaceOnUse">
<stop stop-color="#A2792C"/>
<stop offset="0.26" stop-color="#BC992E"/>
<stop offset="0.42" stop-color="#BC992E"/>
<stop offset="0.53" stop-color="#A2792C"/>
<stop offset="1" stop-color="#BC992E"/>
</linearGradient>
<linearGradient id="paint27_linear" x1="15826.6" y1="5932.75" x2="20399" y2="6919.31" gradientUnits="userSpaceOnUse">
<stop stop-color="#A2792C"/>
<stop offset="0.26" stop-color="#BC992E"/>
<stop offset="0.42" stop-color="#BC992E"/>
<stop offset="0.53" stop-color="#A2792C"/>
<stop offset="1" stop-color="#BC992E"/>
</linearGradient>
<linearGradient id="paint28_linear" x1="8078.54" y1="31526.5" x2="10289.4" y2="31599.3" gradientUnits="userSpaceOnUse">
<stop stop-color="#927E2F"/>
<stop offset="0.24" stop-color="#AE9431"/>
<stop offset="0.42" stop-color="#CAAD2E"/>
<stop offset="0.75" stop-color="#E2C022"/>
<stop offset="1" stop-color="#FFD700"/>
</linearGradient>
<linearGradient id="paint29_linear" x1="10189.5" y1="38758.8" x2="13210.6" y2="38862.3" gradientUnits="userSpaceOnUse">
<stop stop-color="#927E2F"/>
<stop offset="0.24" stop-color="#AE9431"/>
<stop offset="0.42" stop-color="#CAAD2E"/>
<stop offset="0.75" stop-color="#E2C022"/>
<stop offset="1" stop-color="#FFD700"/>
</linearGradient>
</defs>
</svg>
