<svg width="244" height="25" viewBox="0 0 244 25" fill="none" xmlns="http://www.w3.org/2000/svg">
<path fill-rule="evenodd" clip-rule="evenodd" d="M2.96011 24.9621H0.545901C0.232243 24.9621 0.127684 24.7649 0.213227 24.3703L6.04917 3.18201C6.08991 2.99933 6.19352 2.83836 6.34054 2.72937C6.48755 2.62039 6.66785 2.57087 6.84757 2.59012H10.2028C10.3835 2.56392 10.5671 2.61071 10.7157 2.72083C10.8642 2.83094 10.9664 2.99602 11.0012 3.18201L16.8371 24.3703C16.9322 24.7649 16.8086 24.9621 16.4664 24.9621H14.0902C14.0158 24.9714 13.9403 24.9648 13.8684 24.9428C13.7965 24.9208 13.7297 24.8837 13.672 24.8339C13.571 24.699 13.5055 24.5393 13.4819 24.3703L12.2083 19.8426H4.84206L3.56842 24.3703C3.47337 24.7649 3.27377 24.9621 2.96011 24.9621ZM8.45388 5.9341L5.5074 17.0609H11.5714L8.59646 5.9341H8.45388Z" fill="url(#paint0_linear)"/>
<path fill-rule="evenodd" clip-rule="evenodd" d="M24.9836 7.216H27.835C28.2437 7.216 28.4433 7.40343 28.4433 7.77827V9.58343C28.4433 9.978 28.2437 10.1753 27.835 10.1753H24.9836C24.9384 10.1687 24.8924 10.1731 24.8491 10.1881C24.8059 10.2032 24.7666 10.2284 24.7344 10.2619C24.7021 10.2954 24.6778 10.3361 24.6633 10.381C24.6488 10.4259 24.6446 10.4737 24.6509 10.5205V24.3304C24.6509 24.725 24.4513 24.9222 24.0426 24.9222H21.9325C21.8551 24.9338 21.776 24.9265 21.7018 24.9008C21.6275 24.8752 21.56 24.8319 21.5047 24.7744C21.4493 24.717 21.4076 24.6469 21.3829 24.5699C21.3582 24.4928 21.3511 24.4108 21.3622 24.3304V10.5205C21.3622 10.2937 21.2387 10.1753 20.9916 10.1753H19.2142C19.1374 10.1851 19.0595 10.1766 18.9865 10.1502C18.9134 10.1237 18.8472 10.0802 18.793 10.023C18.7388 9.96577 18.698 9.89633 18.6738 9.8201C18.6496 9.74387 18.6426 9.66291 18.6534 9.58343V7.77827C18.6382 7.62083 18.6787 7.46303 18.7674 7.33436C18.8973 7.23925 19.0563 7.19712 19.2142 7.216H20.9916C21.2387 7.216 21.3622 7.09765 21.3622 6.87078V5.88436C21.277 4.44739 21.7338 3.03237 22.6359 1.93868C23.1292 1.44956 23.7153 1.0724 24.3567 0.831244C24.9982 0.590086 25.681 0.490229 26.3618 0.537979H27.835C28.2152 0.537979 28.4053 0.725346 28.4053 1.10019V2.90535C28.4164 2.98576 28.4093 3.06777 28.3846 3.14485C28.3599 3.22193 28.3182 3.29193 28.2629 3.34937C28.2075 3.40681 28.14 3.45009 28.0658 3.47574C27.9915 3.5014 27.9125 3.50879 27.835 3.49724H26.8275C26.5194 3.46273 26.2079 3.49966 25.9153 3.60543C25.6227 3.7112 25.3564 3.88316 25.1356 4.10881C24.7631 4.69031 24.5921 5.38601 24.6509 6.08165V6.92008C24.6519 6.96295 24.6615 7.00513 24.6793 7.04387C24.697 7.08261 24.7223 7.11705 24.7537 7.14496C24.7851 7.17286 24.8218 7.19364 24.8614 7.20588C24.901 7.21812 24.9426 7.22154 24.9836 7.216Z" fill="url(#paint1_linear)"/>
<path fill-rule="evenodd" clip-rule="evenodd" d="M33.7275 24.9619H31.6174C31.5399 24.9735 31.4609 24.9662 31.3866 24.9405C31.3124 24.9148 31.2449 24.8716 31.1895 24.8141C31.1342 24.7567 31.0925 24.6867 31.0678 24.6096C31.0431 24.5325 31.036 24.4505 31.0471 24.3701V7.80814C31.036 7.72773 31.0431 7.64572 31.0678 7.56864C31.0925 7.49157 31.1342 7.4215 31.1895 7.36406C31.2449 7.30662 31.3124 7.26335 31.3866 7.23769C31.4609 7.21203 31.5399 7.2047 31.6174 7.21626H33.7275C33.8049 7.2047 33.8839 7.21203 33.9582 7.23769C34.0325 7.26335 34.1 7.30662 34.1553 7.36406C34.2107 7.4215 34.2524 7.49157 34.2771 7.56864C34.3018 7.64572 34.3089 7.72773 34.2978 7.80814V9.12991H34.4403C34.6867 8.51697 35.1441 8.02119 35.7235 7.73909C36.3815 7.38743 37.1124 7.20793 37.8525 7.21626H39.0977C39.1752 7.2047 39.2542 7.21203 39.3284 7.23769C39.4027 7.26335 39.4702 7.30662 39.5255 7.36406C39.5809 7.4215 39.6226 7.49157 39.6473 7.56864C39.672 7.64572 39.6791 7.72773 39.668 7.80814V9.61325C39.668 10.0538 39.4779 10.2413 39.0977 10.1755H37.0446C35.1944 10.1755 34.2661 11.231 34.2597 13.3419V24.3701C34.2698 24.4469 34.2632 24.525 34.2406 24.5988C34.2179 24.6727 34.1797 24.7403 34.1288 24.797C34.0779 24.8536 34.0154 24.8978 33.946 24.9264C33.8766 24.9549 33.802 24.967 33.7275 24.9619Z" fill="url(#paint2_linear)"/>
<path fill-rule="evenodd" clip-rule="evenodd" d="M42.4436 4.25684V1.09047C42.4339 1.01469 42.4414 0.937577 42.4654 0.865298C42.4893 0.793018 42.5291 0.727532 42.5817 0.673962C42.6342 0.620392 42.698 0.580206 42.7681 0.55662C42.8382 0.533034 42.9125 0.526715 42.9854 0.538076H45.162C45.2345 0.526278 45.3086 0.53237 45.3784 0.555958C45.4482 0.579545 45.5116 0.619933 45.5635 0.673781C45.6154 0.72763 45.6542 0.793432 45.677 0.86584C45.6997 0.938247 45.7056 1.01524 45.6943 1.09047V4.25684C45.6943 4.65141 45.5232 4.84873 45.162 4.84873H42.9854C42.6242 4.84873 42.4436 4.65141 42.4436 4.25684ZM42.4436 24.37V7.80799C42.4436 7.41342 42.6242 7.2161 42.9854 7.2161H45.1335C45.2102 7.20623 45.2881 7.21486 45.3612 7.24127C45.4342 7.26767 45.5004 7.31113 45.5546 7.36836C45.6088 7.42559 45.6496 7.49503 45.6739 7.57126C45.6981 7.64749 45.7051 7.72851 45.6943 7.80799V24.37C45.7124 24.5338 45.6718 24.6988 45.5802 24.8335C45.5225 24.8833 45.4557 24.9204 45.3838 24.9425C45.3119 24.9645 45.2364 24.9711 45.162 24.9618H43.0139C42.9364 24.9733 42.8574 24.966 42.7831 24.9404C42.7089 24.9147 42.6414 24.8714 42.586 24.814C42.5307 24.7565 42.489 24.6865 42.4643 24.6095C42.4395 24.5324 42.4325 24.4504 42.4436 24.37Z" fill="url(#paint3_linear)"/>
<path fill-rule="evenodd" clip-rule="evenodd" d="M60.4837 22.5939V24.399C60.4837 24.7739 60.2841 24.9613 59.8754 24.9613H54.9519C54.2519 25.0335 53.5453 24.9436 52.8829 24.6979C52.2204 24.4523 51.6188 24.0571 51.1214 23.5409C50.624 23.0247 50.2433 22.4004 50.0066 21.7129C49.7699 21.0255 49.6832 20.292 49.7528 19.5656V12.6113C49.6832 11.8849 49.7699 11.1515 50.0066 10.464C50.2433 9.77656 50.624 9.15218 51.1214 8.63597C51.6188 8.11977 52.2204 7.72462 52.8829 7.47899C53.5453 7.23336 54.2519 7.14339 54.9519 7.21559H59.8564C60.2651 7.21559 60.4647 7.41291 60.4647 7.80748V9.61258C60.4647 9.98742 60.2651 10.1748 59.8564 10.1748H55.3986C55.0657 10.131 54.7275 10.1681 54.4107 10.2831C54.0939 10.3981 53.8071 10.5879 53.5731 10.8375C53.339 11.0871 53.164 11.3898 53.0618 11.7215C52.9597 12.0533 52.9332 12.4052 52.9844 12.7494V19.4275C52.9332 19.7717 52.9597 20.1236 53.0618 20.4554C53.164 20.7872 53.339 21.0898 53.5731 21.3394C53.8071 21.589 54.0939 21.7788 54.4107 21.8938C54.7275 22.0088 55.0657 22.0458 55.3986 22.002H59.8564C60.2841 22.002 60.4837 22.1993 60.4837 22.5939Z" fill="url(#paint4_linear)"/>
<path fill-rule="evenodd" clip-rule="evenodd" d="M69.8368 24.9613H68.5252C67.8252 25.0335 67.1185 24.9436 66.4561 24.6979C65.7937 24.4523 65.1921 24.0571 64.6947 23.5409C64.1973 23.0247 63.8165 22.4004 63.5798 21.7129C63.3432 21.0255 63.2565 20.292 63.326 19.5656V12.6113C63.2565 11.8849 63.3432 11.1515 63.5798 10.464C63.8165 9.77656 64.1973 9.15218 64.6947 8.63597C65.1921 8.11977 65.7937 7.72462 66.4561 7.47899C67.1185 7.23336 67.8252 7.14339 68.5252 7.21559H76.0149C76.4141 7.21559 76.6137 7.41291 76.6137 7.80748V24.3695C76.6137 24.764 76.4141 24.9613 76.0149 24.9613H73.9239C73.8464 24.9728 73.7674 24.9655 73.6931 24.9398C73.6189 24.9142 73.5514 24.8709 73.496 24.8135C73.4407 24.756 73.399 24.686 73.3743 24.609C73.3495 24.5319 73.3425 24.4499 73.3536 24.3695V23.1167H73.2205C72.6787 24.3398 71.5572 24.9613 69.8368 24.9613ZM73.3536 19.0428V10.5201C73.3536 10.2933 73.23 10.1748 72.9829 10.1748H68.9909C68.6579 10.131 68.3197 10.1681 68.0029 10.2831C67.6861 10.3981 67.3994 10.5879 67.1653 10.8375C66.9312 11.0871 66.7562 11.3898 66.6541 11.7215C66.5519 12.0533 66.5254 12.4052 66.5767 12.7494V19.4275C66.5254 19.7717 66.5519 20.1236 66.6541 20.4554C66.7562 20.7872 66.9312 21.0898 67.1653 21.3394C67.3994 21.589 67.6861 21.7788 68.0029 21.8938C68.3197 22.0088 68.6579 22.0458 68.9909 22.002H70.6067C72.4316 22.002 73.3536 21.0156 73.3536 19.0428Z" fill="url(#paint5_linear)"/>
<path fill-rule="evenodd" clip-rule="evenodd" d="M83.5019 24.962H81.3918C81.3143 24.9735 81.2353 24.9662 81.161 24.9405C81.0868 24.9149 81.0193 24.8716 80.964 24.8141C80.9086 24.7567 80.8669 24.6867 80.8422 24.6096C80.8175 24.5326 80.8104 24.4505 80.8215 24.3701V7.80816C80.8104 7.72775 80.8175 7.64574 80.8422 7.56866C80.8669 7.49158 80.9086 7.42152 80.964 7.36408C81.0193 7.30663 81.0868 7.26336 81.161 7.2377C81.2353 7.21205 81.3143 7.20472 81.3918 7.21627H83.5019C83.5794 7.20472 83.6584 7.21205 83.7326 7.2377C83.8069 7.26336 83.8744 7.30663 83.9298 7.36408C83.9851 7.42152 84.0268 7.49158 84.0515 7.56866C84.0762 7.64574 84.0833 7.72775 84.0722 7.80816V9.06087H84.2052C84.747 7.82785 85.8781 7.21627 87.5985 7.21627H89.0717C89.7558 7.16965 90.4419 7.269 91.0877 7.50821C91.7334 7.74742 92.325 8.12146 92.8261 8.60716C93.7546 9.71017 94.2229 11.1507 94.1282 12.612V24.3701C94.1282 24.7647 93.9286 24.962 93.5294 24.962H91.4194C91.3419 24.9735 91.2629 24.9662 91.1886 24.9405C91.1144 24.9149 91.0469 24.8716 90.9915 24.8141C90.9362 24.7567 90.8945 24.6867 90.8698 24.6096C90.845 24.5326 90.8379 24.4505 90.8491 24.3701V12.7501C90.9007 12.3997 90.8722 12.0416 90.7658 11.7048C90.6594 11.3679 90.4781 11.0618 90.2366 10.8112C89.9951 10.5605 89.7001 10.3724 89.3756 10.262C89.051 10.1516 88.706 10.1219 88.3683 10.1755H86.8001C84.9656 10.1755 84.0437 11.162 84.0437 13.1348V24.3701C84.0539 24.4478 84.0472 24.5268 84.024 24.6014C84.0009 24.676 83.9618 24.7443 83.9098 24.8011C83.8578 24.858 83.7941 24.9019 83.7235 24.9297C83.6529 24.9576 83.5771 24.9686 83.5019 24.962Z" fill="url(#paint6_linear)"/>
<path fill-rule="evenodd" clip-rule="evenodd" d="M104.386 24.9614H102.276C101.876 24.9614 101.677 24.7641 101.677 24.3696V5.93339C101.681 5.88599 101.676 5.83808 101.66 5.79329C101.644 5.7485 101.619 5.70802 101.586 5.6748C101.553 5.64159 101.514 5.61654 101.47 5.60153C101.426 5.58653 101.38 5.58196 101.335 5.58817H97.1144C96.7152 5.58817 96.5156 5.39085 96.5156 4.99628V3.22073C96.5156 2.82617 96.7152 2.62891 97.1144 2.62891H109.547C109.955 2.62891 110.155 2.82617 110.155 3.22073V4.94697C110.155 5.34154 109.955 5.5388 109.547 5.5388H105.327C105.079 5.5388 104.956 5.6572 104.956 5.88408V24.3597C104.969 24.4409 104.963 24.524 104.939 24.6024C104.915 24.6808 104.873 24.7521 104.818 24.8108C104.762 24.8694 104.694 24.9136 104.619 24.9398C104.544 24.966 104.464 24.9733 104.386 24.9614Z" fill="url(#paint7_linear)"/>
<path fill-rule="evenodd" clip-rule="evenodd" d="M115.383 24.962H113.273C113.195 24.9735 113.116 24.9662 113.042 24.9405C112.968 24.9149 112.9 24.8716 112.845 24.8141C112.789 24.7567 112.748 24.6867 112.723 24.6096C112.698 24.5325 112.691 24.4505 112.702 24.3701V7.80814C112.691 7.72773 112.698 7.64572 112.723 7.56864C112.748 7.49157 112.789 7.4215 112.845 7.36406C112.9 7.30662 112.968 7.26335 113.042 7.23769C113.116 7.21203 113.195 7.2047 113.273 7.21626H115.383C115.46 7.2047 115.539 7.21203 115.613 7.23769C115.688 7.26335 115.755 7.30662 115.811 7.36406C115.866 7.4215 115.908 7.49157 115.932 7.56864C115.957 7.64572 115.964 7.72773 115.953 7.80814V9.12991H116.086C116.339 8.51837 116.799 8.02382 117.379 7.73909C118.037 7.38743 118.768 7.20793 119.508 7.21626H120.743C120.821 7.2047 120.9 7.21203 120.974 7.23769C121.048 7.26335 121.116 7.30662 121.171 7.36406C121.227 7.4215 121.268 7.49157 121.293 7.56864C121.318 7.64572 121.325 7.72773 121.314 7.80814V9.61325C121.314 10.0539 121.124 10.2413 120.743 10.1755H118.785C116.929 10.1755 116.001 11.231 116.001 13.3419V24.3701C116.014 24.4555 116.007 24.5429 115.98 24.6247C115.953 24.7064 115.906 24.7799 115.845 24.8385C115.784 24.8972 115.71 24.9391 115.629 24.9607C115.548 24.9822 115.464 24.9827 115.383 24.962Z" fill="url(#paint8_linear)"/>
<path fill-rule="evenodd" clip-rule="evenodd" d="M130.093 24.9613H128.791C128.091 25.0335 127.384 24.9436 126.722 24.6979C126.059 24.4523 125.458 24.0571 124.96 23.5409C124.463 23.0247 124.082 22.4004 123.845 21.7129C123.609 21.0255 123.522 20.292 123.592 19.5656V12.6113C123.522 11.8849 123.609 11.1515 123.845 10.464C124.082 9.77656 124.463 9.15218 124.96 8.63597C125.458 8.11977 126.059 7.72462 126.722 7.47899C127.384 7.23336 128.091 7.14339 128.791 7.21559H136.3C136.699 7.21559 136.898 7.41291 136.898 7.80748V24.3695C136.898 24.764 136.699 24.9613 136.3 24.9613H134.189C134.112 24.9728 134.033 24.9655 133.959 24.9398C133.884 24.9142 133.817 24.8709 133.762 24.8135C133.706 24.756 133.665 24.686 133.64 24.609C133.615 24.5319 133.608 24.4499 133.619 24.3695V23.1167H133.477C132.944 24.3398 131.813 24.9613 130.093 24.9613ZM133.619 19.0428V10.5201C133.619 10.2933 133.496 10.1748 133.249 10.1748H129.238C128.905 10.131 128.566 10.1681 128.25 10.2831C127.933 10.3981 127.646 10.5879 127.412 10.8375C127.178 11.0871 127.003 11.3898 126.901 11.7215C126.799 12.0533 126.772 12.4052 126.823 12.7494V19.4275C126.772 19.7717 126.799 20.1236 126.901 20.4554C127.003 20.7872 127.178 21.0898 127.412 21.3394C127.646 21.589 127.933 21.7788 128.25 21.8938C128.566 22.0088 128.905 22.0458 129.238 22.002H130.844C132.697 22.002 133.619 21.0156 133.619 19.0428Z" fill="url(#paint9_linear)"/>
<path fill-rule="evenodd" clip-rule="evenodd" d="M140.021 7.21608H142.264C142.343 7.21075 142.423 7.2219 142.498 7.24889C142.573 7.27589 142.642 7.31817 142.702 7.37328C142.761 7.42839 142.809 7.49522 142.843 7.56985C142.877 7.64448 142.897 7.72545 142.9 7.80797L146.351 21.7954H146.588L150.01 7.80797C150.032 7.6344 150.117 7.47603 150.248 7.36582C150.378 7.2556 150.545 7.20198 150.713 7.21608H153.004C153.413 7.21608 153.546 7.4134 153.413 7.80797L148.889 24.3305C148.865 24.5136 148.775 24.6805 148.638 24.7976C148.5 24.9148 148.325 24.9734 148.147 24.9618H144.925C144.748 24.9732 144.574 24.9142 144.438 24.7969C144.302 24.6795 144.215 24.5127 144.193 24.3305L139.669 7.80797C139.526 7.4134 139.697 7.21608 140.021 7.21608Z" fill="url(#paint10_linear)"/>
<path fill-rule="evenodd" clip-rule="evenodd" d="M168.209 24.9613H160.967C160.267 25.0319 159.562 24.9408 158.901 24.6945C158.239 24.4482 157.639 24.0528 157.143 23.5367C156.646 23.0207 156.267 22.3969 156.03 21.7103C155.794 21.0236 155.708 20.2911 155.777 19.5656V12.6113C155.708 11.8858 155.794 11.1533 156.03 10.4667C156.267 9.78 156.646 9.15621 157.143 8.64019C157.639 8.12417 158.239 7.72875 158.901 7.48242C159.562 7.23609 160.267 7.14495 160.967 7.21558H163.714C164.415 7.17161 165.118 7.27376 165.78 7.51601C166.443 7.75827 167.053 8.13572 167.573 8.62616C168.046 9.154 168.412 9.77543 168.649 10.4534C168.886 11.1313 168.988 11.8518 168.951 12.5718V16.9911C168.962 17.0763 168.954 17.1631 168.927 17.2445C168.901 17.326 168.856 17.3998 168.797 17.4602C168.738 17.5205 168.666 17.5658 168.587 17.5922C168.508 17.6187 168.424 17.6256 168.342 17.6125H159.36C159.113 17.6125 158.99 17.7308 158.99 17.9577V19.4571C158.942 19.8025 158.972 20.1547 159.078 20.4857C159.185 20.8168 159.364 21.1174 159.602 21.3637C159.841 21.6099 160.131 21.7951 160.45 21.9042C160.77 22.0133 161.109 22.0435 161.442 21.9922H168.209C168.291 21.9805 168.375 21.9888 168.454 22.0165C168.532 22.0442 168.603 22.0906 168.661 22.1519C168.72 22.2132 168.763 22.2878 168.789 22.3696C168.814 22.4515 168.821 22.5384 168.808 22.6235V24.3596C168.808 24.7344 168.609 24.9219 168.209 24.9219V24.9613ZM159.36 15.2845H165.358C165.403 15.2933 165.45 15.2905 165.495 15.2763C165.539 15.2621 165.579 15.2369 165.612 15.2029C165.645 15.1689 165.669 15.1271 165.683 15.0812C165.696 15.0353 165.699 14.9865 165.691 14.9393V12.71C165.726 12.3583 165.694 12.0029 165.596 11.6642C165.498 11.3256 165.336 11.0105 165.12 10.7371C164.871 10.5099 164.58 10.3384 164.264 10.2332C163.949 10.128 163.616 10.0913 163.286 10.1255H161.442C161.111 10.0917 160.776 10.1285 160.459 10.2337C160.142 10.3388 159.849 10.5102 159.598 10.7371C159.382 11.0105 159.22 11.3256 159.122 11.6642C159.025 12.0029 158.992 12.3583 159.028 12.71V14.9393C159.019 14.9865 159.022 15.0353 159.036 15.0812C159.049 15.1271 159.074 15.1689 159.106 15.2029C159.139 15.2369 159.179 15.2621 159.224 15.2763C159.268 15.2905 159.315 15.2933 159.36 15.2845Z" fill="url(#paint11_linear)"/>
<path d="M175.484 0.498047H173.374C173.059 0.498047 172.804 0.763004 172.804 1.08988V24.3596C172.804 24.6864 173.059 24.9514 173.374 24.9514H175.484C175.799 24.9514 176.054 24.6864 176.054 24.3596V1.08988C176.054 0.763004 175.799 0.498047 175.484 0.498047Z" fill="url(#paint12_linear)"/>
<path fill-rule="evenodd" clip-rule="evenodd" d="M183.361 20.1187V24.3702C183.361 24.7648 183.18 24.962 182.829 24.962H180.567C180.489 24.9736 180.41 24.9663 180.336 24.9406C180.262 24.9149 180.194 24.8717 180.139 24.8142C180.083 24.7568 180.042 24.6868 180.017 24.6097C179.992 24.5326 179.985 24.4506 179.996 24.3702V20.1187C179.996 19.7538 180.186 19.5664 180.567 19.5664H182.848C182.918 19.5599 182.99 19.5699 183.056 19.5957C183.122 19.6215 183.182 19.6623 183.232 19.7153C183.281 19.7683 183.318 19.832 183.34 19.9018C183.363 19.9716 183.37 20.0457 183.361 20.1187Z" fill="url(#paint13_linear)"/>
<path fill-rule="evenodd" clip-rule="evenodd" d="M196.202 24.9616H192.314C191.614 25.0338 190.908 24.9439 190.245 24.6983C189.583 24.4526 188.981 24.0574 188.484 23.5412C187.986 23.025 187.606 22.4007 187.369 21.7132C187.132 21.0258 187.046 20.2924 187.115 19.5659V7.98536C187.046 7.25892 187.132 6.5255 187.369 5.83804C187.606 5.15059 187.986 4.5262 188.484 4.01C188.981 3.4938 189.583 3.09864 190.245 2.85301C190.908 2.60738 191.614 2.51741 192.314 2.58961H196.202C196.894 2.5514 197.586 2.65642 198.239 2.89859C198.892 3.14075 199.492 3.51522 200.004 4.00018C200.475 4.52883 200.84 5.15064 201.075 5.82853C201.31 6.50642 201.411 7.22651 201.372 7.94587V9.61292C201.383 9.69721 201.375 9.78302 201.349 9.86362C201.323 9.94421 201.279 10.0174 201.221 10.0776C201.163 10.1377 201.093 10.1831 201.015 10.2103C200.937 10.2375 200.855 10.2458 200.773 10.2344H198.663C198.283 10.2344 198.093 10.0272 198.093 9.61292V8.08398C198.144 7.73975 198.118 7.38786 198.016 7.05608C197.914 6.72429 197.739 6.42169 197.504 6.17207C197.27 5.92245 196.984 5.73268 196.667 5.61769C196.35 5.5027 196.012 5.46563 195.679 5.50944H192.761C192.428 5.46563 192.09 5.5027 191.773 5.61769C191.456 5.73268 191.169 5.92245 190.935 6.17207C190.701 6.42169 190.526 6.72429 190.424 7.05608C190.322 7.38786 190.295 7.73975 190.347 8.08398V19.3884C190.295 19.7326 190.322 20.0845 190.424 20.4163C190.526 20.7481 190.701 21.0507 190.935 21.3003C191.169 21.5499 191.456 21.7397 191.773 21.8547C192.09 21.9697 192.428 22.0067 192.761 21.9629H195.679C196.012 22.0067 196.35 21.9697 196.667 21.8547C196.984 21.7397 197.27 21.5499 197.504 21.3003C197.739 21.0507 197.914 20.7481 198.016 20.4163C198.118 20.0845 198.144 19.7326 198.093 19.3884V17.8594C198.093 17.4353 198.283 17.2281 198.663 17.2281H200.773C200.856 17.2164 200.939 17.2247 201.018 17.2524C201.096 17.2801 201.167 17.3265 201.226 17.3878C201.284 17.4491 201.327 17.5237 201.353 17.6055C201.378 17.6874 201.385 17.7744 201.372 17.8594V19.5265C201.442 20.252 201.355 20.9844 201.119 21.6711C200.883 22.3578 200.503 22.9816 200.007 23.4976C199.51 24.0137 198.91 24.409 198.249 24.6553C197.587 24.9017 196.882 24.9928 196.183 24.9222L196.202 24.9616Z" fill="url(#paint14_linear)"/>
<path d="M208.063 0.498047H205.953C205.638 0.498047 205.383 0.763004 205.383 1.08988V24.3596C205.383 24.6864 205.638 24.9514 205.953 24.9514H208.063C208.378 24.9514 208.633 24.6864 208.633 24.3596V1.08988C208.633 0.763004 208.378 0.498047 208.063 0.498047Z" fill="url(#paint15_linear)"/>
<path fill-rule="evenodd" clip-rule="evenodd" d="M219.354 24.962H217.852C217.174 25.0081 216.494 24.9064 215.855 24.6635C215.217 24.4206 214.634 24.0417 214.145 23.5514C213.24 22.4586 212.777 21.0448 212.853 19.6057V7.80814C212.842 7.72773 212.849 7.64572 212.873 7.56864C212.898 7.49157 212.94 7.42151 212.995 7.36406C213.051 7.30662 213.118 7.26335 213.192 7.23769C213.267 7.21203 213.346 7.2047 213.423 7.21626H215.533C215.611 7.2047 215.69 7.21203 215.764 7.23769C215.838 7.26335 215.906 7.30662 215.961 7.36406C216.016 7.42151 216.058 7.49157 216.083 7.56864C216.107 7.64572 216.115 7.72773 216.103 7.80814V19.4281C216.052 19.7724 216.079 20.1243 216.181 20.4561C216.283 20.7878 216.458 21.0904 216.692 21.3401C216.926 21.5897 217.213 21.7795 217.53 21.8945C217.846 22.0095 218.185 22.0465 218.518 22.0027H220.133C221.958 22.0027 222.88 21.0163 222.88 19.0434V7.80814C222.869 7.72773 222.876 7.64572 222.901 7.56864C222.926 7.49157 222.967 7.42151 223.023 7.36406C223.078 7.30662 223.146 7.26335 223.22 7.23769C223.294 7.21203 223.373 7.2047 223.451 7.21626H225.561C225.96 7.21626 226.159 7.41358 226.159 7.80814V24.3701C226.159 24.7647 225.96 24.962 225.561 24.962H223.451C223.373 24.9735 223.294 24.9662 223.22 24.9405C223.146 24.9149 223.078 24.8716 223.023 24.8141C222.967 24.7567 222.926 24.6867 222.901 24.6096C222.876 24.5325 222.869 24.4505 222.88 24.3701V23.1174H222.747C222.206 24.3405 221.074 24.962 219.354 24.962Z" fill="url(#paint16_linear)"/>
<path fill-rule="evenodd" clip-rule="evenodd" d="M233.973 22.0024H238.127C239.743 22.0024 240.541 21.1443 240.541 19.4279V12.6117C240.541 10.8954 239.743 10.0371 238.127 10.0371H236.349C234.524 10.0371 233.603 11.0236 233.603 12.9964V21.6572C233.594 21.7096 233.598 21.7634 233.614 21.8139C233.63 21.8645 233.657 21.9104 233.693 21.948C233.729 21.9856 233.773 22.0137 233.822 22.03C233.871 22.0463 233.923 22.0504 233.973 22.0419V22.0024ZM230.352 24.3699V1.09037C230.341 1.00996 230.348 0.927948 230.373 0.85087C230.397 0.773792 230.439 0.703731 230.494 0.646289C230.55 0.588847 230.617 0.545573 230.691 0.519916C230.766 0.494259 230.845 0.486927 230.922 0.498483H233.032C233.11 0.486927 233.189 0.494259 233.263 0.519916C233.337 0.545573 233.405 0.588847 233.46 0.646289C233.515 0.703731 233.557 0.773792 233.582 0.85087C233.607 0.927948 233.614 1.00996 233.603 1.09037V8.98173H233.736C234.296 7.72898 235.427 7.10751 237.119 7.10751H238.602C239.302 7.06319 240.003 7.16521 240.665 7.40752C241.326 7.64982 241.934 8.02747 242.451 8.51808C242.929 9.04263 243.298 9.66358 243.536 10.3423C243.773 11.0211 243.873 11.7432 243.83 12.4638V19.5956C243.869 20.3158 243.768 21.037 243.531 21.7152C243.294 22.3935 242.927 23.0147 242.451 23.5412C241.936 24.0368 241.329 24.419 240.668 24.6648C240.006 24.9106 239.303 25.015 238.602 24.9716H230.941C230.861 24.9871 230.779 24.9824 230.702 24.9578C230.624 24.9332 230.553 24.8895 230.495 24.8304C230.437 24.7713 230.394 24.6985 230.369 24.6183C230.344 24.5381 230.338 24.4529 230.352 24.3699Z" fill="url(#paint17_linear)"/>
<defs>
<linearGradient id="paint0_linear" x1="3448.84" y1="15834.2" x2="8502.39" y2="18850.9" gradientUnits="userSpaceOnUse">
<stop stop-color="#927E2F"/>
<stop offset="0.24" stop-color="#AE9431"/>
<stop offset="0.42" stop-color="#CAAD2E"/>
<stop offset="0.75" stop-color="#E2C022"/>
<stop offset="1" stop-color="#FFD700"/>
</linearGradient>
<linearGradient id="paint1_linear" x1="2125.04" y1="16997.7" x2="5196.63" y2="17985.1" gradientUnits="userSpaceOnUse">
<stop stop-color="#927E2F"/>
<stop offset="0.24" stop-color="#AE9431"/>
<stop offset="0.42" stop-color="#CAAD2E"/>
<stop offset="0.75" stop-color="#E2C022"/>
<stop offset="1" stop-color="#FFD700"/>
</linearGradient>
<linearGradient id="paint2_linear" x1="1914.26" y1="12324.1" x2="4709.76" y2="13412.3" gradientUnits="userSpaceOnUse">
<stop stop-color="#927E2F"/>
<stop offset="0.24" stop-color="#AE9431"/>
<stop offset="0.42" stop-color="#CAAD2E"/>
<stop offset="0.75" stop-color="#E2C022"/>
<stop offset="1" stop-color="#FFD700"/>
</linearGradient>
<linearGradient id="paint3_linear" x1="771.296" y1="16791.2" x2="2370.43" y2="16962.1" gradientUnits="userSpaceOnUse">
<stop stop-color="#927E2F"/>
<stop offset="0.24" stop-color="#AE9431"/>
<stop offset="0.42" stop-color="#CAAD2E"/>
<stop offset="0.75" stop-color="#E2C022"/>
<stop offset="1" stop-color="#FFD700"/>
</linearGradient>
<linearGradient id="paint4_linear" x1="2518.36" y1="12195.6" x2="6447.68" y2="14097.5" gradientUnits="userSpaceOnUse">
<stop stop-color="#927E2F"/>
<stop offset="0.24" stop-color="#AE9431"/>
<stop offset="0.42" stop-color="#CAAD2E"/>
<stop offset="0.75" stop-color="#E2C022"/>
<stop offset="1" stop-color="#FFD700"/>
</linearGradient>
<linearGradient id="paint5_linear" x1="3210.02" y1="12070.3" x2="7677.56" y2="14746.7" gradientUnits="userSpaceOnUse">
<stop stop-color="#927E2F"/>
<stop offset="0.24" stop-color="#AE9431"/>
<stop offset="0.42" stop-color="#CAAD2E"/>
<stop offset="0.75" stop-color="#E2C022"/>
<stop offset="1" stop-color="#FFD700"/>
</linearGradient>
<linearGradient id="paint6_linear" x1="3274.14" y1="11873.2" x2="8135.63" y2="14793.8" gradientUnits="userSpaceOnUse">
<stop stop-color="#927E2F"/>
<stop offset="0.24" stop-color="#AE9431"/>
<stop offset="0.42" stop-color="#CAAD2E"/>
<stop offset="0.75" stop-color="#E2C022"/>
<stop offset="1" stop-color="#FFD700"/>
</linearGradient>
<linearGradient id="paint7_linear" x1="3583.7" y1="14787.7" x2="8126.12" y2="17008.9" gradientUnits="userSpaceOnUse">
<stop stop-color="#927E2F"/>
<stop offset="0.24" stop-color="#AE9431"/>
<stop offset="0.42" stop-color="#CAAD2E"/>
<stop offset="0.75" stop-color="#E2C022"/>
<stop offset="1" stop-color="#FFD700"/>
</linearGradient>
<linearGradient id="paint8_linear" x1="2401.99" y1="11782.1" x2="5195.63" y2="12867.9" gradientUnits="userSpaceOnUse">
<stop stop-color="#927E2F"/>
<stop offset="0.24" stop-color="#AE9431"/>
<stop offset="0.42" stop-color="#CAAD2E"/>
<stop offset="0.75" stop-color="#E2C022"/>
<stop offset="1" stop-color="#FFD700"/>
</linearGradient>
<linearGradient id="paint9_linear" x1="3656.02" y1="11574.2" x2="8126.6" y2="14256.4" gradientUnits="userSpaceOnUse">
<stop stop-color="#927E2F"/>
<stop offset="0.24" stop-color="#AE9431"/>
<stop offset="0.42" stop-color="#CAAD2E"/>
<stop offset="0.75" stop-color="#E2C022"/>
<stop offset="1" stop-color="#FFD700"/>
</linearGradient>
<linearGradient id="paint10_linear" x1="3984.47" y1="11467.5" x2="8089.87" y2="14032" gradientUnits="userSpaceOnUse">
<stop stop-color="#927E2F"/>
<stop offset="0.24" stop-color="#AE9431"/>
<stop offset="0.42" stop-color="#CAAD2E"/>
<stop offset="0.75" stop-color="#E2C022"/>
<stop offset="1" stop-color="#FFD700"/>
</linearGradient>
<linearGradient id="paint11_linear" x1="3854.3" y1="11327.1" x2="8278.98" y2="13957" gradientUnits="userSpaceOnUse">
<stop stop-color="#927E2F"/>
<stop offset="0.24" stop-color="#AE9431"/>
<stop offset="0.42" stop-color="#CAAD2E"/>
<stop offset="0.75" stop-color="#E2C022"/>
<stop offset="1" stop-color="#FFD700"/>
</linearGradient>
<linearGradient id="paint12_linear" x1="728.407" y1="15061.8" x2="2318.13" y2="15231" gradientUnits="userSpaceOnUse">
<stop stop-color="#927E2F"/>
<stop offset="0.24" stop-color="#AE9431"/>
<stop offset="0.42" stop-color="#CAAD2E"/>
<stop offset="0.75" stop-color="#E2C022"/>
<stop offset="1" stop-color="#FFD700"/>
</linearGradient>
<linearGradient id="paint13_linear" x1="1130.91" y1="3410.64" x2="2408" y2="4049.25" gradientUnits="userSpaceOnUse">
<stop stop-color="#927E2F"/>
<stop offset="0.24" stop-color="#AE9431"/>
<stop offset="0.42" stop-color="#CAAD2E"/>
<stop offset="0.75" stop-color="#E2C022"/>
<stop offset="1" stop-color="#FFD700"/>
</linearGradient>
<linearGradient id="paint14_linear" x1="4493.5" y1="13988.6" x2="9351.53" y2="16470.7" gradientUnits="userSpaceOnUse">
<stop stop-color="#927E2F"/>
<stop offset="0.24" stop-color="#AE9431"/>
<stop offset="0.42" stop-color="#CAAD2E"/>
<stop offset="0.75" stop-color="#E2C022"/>
<stop offset="1" stop-color="#FFD700"/>
</linearGradient>
<linearGradient id="paint15_linear" x1="806.101" y1="14662.2" x2="2395.81" y2="14831.5" gradientUnits="userSpaceOnUse">
<stop stop-color="#927E2F"/>
<stop offset="0.24" stop-color="#AE9431"/>
<stop offset="0.42" stop-color="#CAAD2E"/>
<stop offset="0.75" stop-color="#E2C022"/>
<stop offset="1" stop-color="#FFD700"/>
</linearGradient>
<linearGradient id="paint16_linear" x1="4162.4" y1="10668.2" x2="9022.29" y2="13585.9" gradientUnits="userSpaceOnUse">
<stop stop-color="#927E2F"/>
<stop offset="0.24" stop-color="#AE9431"/>
<stop offset="0.42" stop-color="#CAAD2E"/>
<stop offset="0.75" stop-color="#E2C022"/>
<stop offset="1" stop-color="#FFD700"/>
</linearGradient>
<linearGradient id="paint17_linear" x1="4427.74" y1="14667.3" x2="9668.56" y2="16980.3" gradientUnits="userSpaceOnUse">
<stop stop-color="#927E2F"/>
<stop offset="0.24" stop-color="#AE9431"/>
<stop offset="0.42" stop-color="#CAAD2E"/>
<stop offset="0.75" stop-color="#E2C022"/>
<stop offset="1" stop-color="#FFD700"/>
</linearGradient>
</defs>
</svg>
