<svg width="33" height="23" viewBox="0 0 33 23" fill="none" xmlns="http://www.w3.org/2000/svg">
<path d="M22.1792 0H10.9292C10.4114 0 9.9917 0.41975 9.9917 0.9375V2.8125C9.9917 3.33025 10.4114 3.75 10.9292 3.75H22.1792C22.6969 3.75 23.1167 3.33025 23.1167 2.8125V0.9375C23.1167 0.41975 22.6969 0 22.1792 0Z" fill="#A2792C"/>
<path d="M30.6792 13.25H27.5542C26.5186 13.25 25.6792 14.0894 25.6792 15.125V16.0625C25.6792 16.5803 26.0989 17 26.6167 17H31.6167C32.1344 17 32.5542 16.5803 32.5542 16.0625V15.125C32.5542 14.0894 31.7148 13.25 30.6792 13.25Z" fill="#A2792C"/>
<path d="M29.1167 11.375C30.3248 11.375 31.3042 10.3956 31.3042 9.1875C31.3042 7.97938 30.3248 7 29.1167 7C27.9086 7 26.9292 7.97938 26.9292 9.1875C26.9292 10.3956 27.9086 11.375 29.1167 11.375Z" fill="#A2792C"/>
<path d="M23.0527 20.722L21.657 17H11.4514L10.0554 20.7224C14.0092 22.8687 19.099 22.8686 23.0527 20.722Z" fill="#A2792C"/>
<path d="M25.3667 21.4852V19.0918C24.6592 19.7296 23.8807 20.2727 23.0527 20.7222L23.7139 22.4853C24.2859 22.1902 24.8388 21.8572 25.3667 21.4852Z" fill="#A2792C"/>
<path d="M5.5542 13.25H2.4292C1.39364 13.25 0.554199 14.0894 0.554199 15.125V16.0625C0.554199 16.5803 0.973949 17 1.4917 17H6.4917C7.00945 17 7.4292 16.5803 7.4292 16.0625V15.125C7.4292 14.0894 6.58976 13.25 5.5542 13.25Z" fill="#A2792C"/>
<path d="M3.9917 11.375C5.19982 11.375 6.1792 10.3956 6.1792 9.1875C6.1792 7.97938 5.19982 7 3.9917 7C2.78358 7 1.8042 7.97938 1.8042 9.1875C1.8042 10.3956 2.78358 11.375 3.9917 11.375Z" fill="#A2792C"/>
<path d="M10.0554 20.722C9.22745 20.2726 8.44914 19.7294 7.7417 19.0918V21.4847C8.2697 21.8566 8.82207 22.1903 9.3942 22.4854L10.0554 20.722Z" fill="#A2792C"/>
<path d="M11.8667 5.625H21.2417V15.125H11.8667V5.625Z" fill="#A2792C"/>
</svg>
