<svg width="35" height="35" viewBox="0 0 35 35" fill="none" xmlns="http://www.w3.org/2000/svg">
<path d="M14.5832 26.25C17.1717 26.2495 19.6856 25.3829 21.7246 23.7883L28.1355 30.1992L30.1975 28.1371L23.7867 21.7262C25.3821 19.687 26.2492 17.1725 26.2498 14.5833C26.2498 8.15062 21.0159 2.91667 14.5832 2.91667C8.15046 2.91667 2.9165 8.15062 2.9165 14.5833C2.9165 21.016 8.15046 26.25 14.5832 26.25ZM14.5832 5.83333C19.4088 5.83333 23.3332 9.75771 23.3332 14.5833C23.3332 19.409 19.4088 23.3333 14.5832 23.3333C9.75755 23.3333 5.83317 19.409 5.83317 14.5833C5.83317 9.75771 9.75755 5.83333 14.5832 5.83333Z" fill="#927E2F"/>
<path d="M16.6423 12.5212C17.195 13.0754 17.4998 13.8075 17.4998 14.5833H20.4165C20.4178 13.8169 20.2671 13.0577 19.9733 12.3499C19.6794 11.642 19.2481 10.9994 18.7044 10.4591C16.4965 8.25415 12.6684 8.25415 10.4619 10.4591L12.5211 12.5242C13.6294 11.4187 15.5398 11.4217 16.6423 12.5212Z" fill="#927E2F"/>
</svg>
