<svg width="32" height="32" viewBox="0 0 32 32" fill="none" xmlns="http://www.w3.org/2000/svg">
<path d="M11.1597 8.24598C11.5336 8.24631 11.9039 8.17296 12.2494 8.03012C12.5949 7.88727 12.9089 7.67773 13.1734 7.41347C13.4379 7.14922 13.6477 6.83542 13.7909 6.49003C13.934 6.14464 14.0077 5.77442 14.0077 5.40054C14.0076 5.02689 13.9338 4.65692 13.7906 4.31182C13.6474 3.96672 13.4375 3.65325 13.1729 3.38937C12.9084 3.12549 12.5944 2.91637 12.2489 2.77398C11.9035 2.63159 11.5333 2.55874 11.1597 2.55958C10.7861 2.55899 10.416 2.63201 10.0706 2.77448C9.72527 2.91695 9.41134 3.12607 9.14681 3.3899C8.88227 3.65372 8.6723 3.96708 8.5289 4.31207C8.3855 4.65706 8.31148 5.02693 8.31106 5.40054C8.31156 6.15559 8.61195 6.87953 9.14616 7.41314C9.68036 7.94674 10.4046 8.24632 11.1597 8.24598ZM0.640015 23.7865C1.28001 23.7865 1.95137 23.6329 2.52609 23.3749C3.13751 23.0917 3.80298 22.9441 4.47681 22.9423C5.14946 22.9437 5.81377 23.0913 6.4237 23.3749C7.02075 23.6421 7.66721 23.7809 8.3213 23.7826C8.97315 23.7813 9.61737 23.6423 10.2119 23.3749C10.8225 23.0908 11.4878 22.9432 12.1613 22.9423C12.8343 22.9445 13.4988 23.0921 14.1095 23.3749C14.7039 23.6424 15.3482 23.7813 16 23.7826C16.6701 23.7826 17.3184 23.6329 17.8899 23.3749C18.5021 23.0918 19.1681 22.9442 19.8426 22.9423C20.5351 22.9423 21.1975 23.1023 21.7875 23.3749C22.3838 23.6418 23.0293 23.7807 23.6826 23.7826C24.3546 23.7826 24.9978 23.6329 25.5763 23.3749C26.1428 23.1112 26.7568 22.9649 27.3814 22.9449C28.0059 22.9249 28.6281 23.0315 29.2103 23.2585C30.0896 22.3067 30.5789 21.0592 30.5811 19.7634C30.5811 16.9001 28.2573 14.582 25.3907 14.582L24.809 14.6441C24.1709 17.2277 21.5808 17.3365 21.5808 17.3365L9.72801 17.3333L8.7373 16.7516L11.1264 12.7516L13.7421 14.2594C15.3082 15.2725 16.1235 13.8524 16.1235 13.8524L18.7463 9.58614C19.8861 7.7327 17.4682 6.24662 16.3354 8.1071L14.4992 11.0972L10.1357 8.68822C7.1117 7.00566 5.83041 9.79286 5.83041 9.79286L2.40321 15.6501C1.82017 16.8674 2.33665 17.3903 2.33665 17.3903L0.640015 17.3877V23.7865ZM31.36 29.4396C30.7094 29.4392 30.0662 29.3005 29.4733 29.0325C28.8612 28.7494 28.1951 28.6021 27.5207 28.6005C26.8489 28.6017 26.1854 28.7491 25.5763 29.0325C24.9807 29.2999 24.3354 29.4386 23.6826 29.4396C23.0293 29.4385 22.3836 29.2998 21.7875 29.0325C21.1781 28.7495 20.5145 28.6021 19.8426 28.6005C19.1682 28.6022 18.5021 28.7496 17.8899 29.0325C17.2959 29.3004 16.6517 29.4392 16 29.4396C15.3481 29.439 14.7038 29.3003 14.1095 29.0325C13.4988 28.7499 12.8342 28.6026 12.1613 28.6005C11.488 28.6013 10.823 28.7487 10.2125 29.0325C9.61807 29.3 8.97378 29.4387 8.32194 29.4396C7.66782 29.4388 7.02122 29.3001 6.42434 29.0325C5.81481 28.7491 5.15093 28.6017 4.47873 28.6005C3.80576 28.6021 3.14111 28.7494 2.53057 29.0325C1.93615 29.3 1.29186 29.4387 0.640015 29.4396V26.6127C1.29212 26.6106 1.93641 26.4706 2.53057 26.2018C3.14123 25.9191 3.8058 25.7717 4.47873 25.7698C5.17122 25.7698 5.8381 25.9298 6.42434 26.2018C7.02106 26.4703 7.66759 26.6103 8.32194 26.6127C8.97404 26.6106 9.61833 26.4706 10.2125 26.2018C10.8231 25.9183 11.4881 25.7709 12.1613 25.7698C12.8531 25.7698 13.5155 25.9298 14.1095 26.2018C14.7036 26.4706 15.3479 26.6106 16 26.6127C16.652 26.611 17.2961 26.4709 17.8899 26.2018C18.5022 25.9191 19.1682 25.7718 19.8426 25.7698C20.5351 25.7698 21.1975 25.9298 21.7875 26.2018C22.3835 26.47 23.0291 26.61 23.6826 26.6127C24.3546 26.6127 24.9978 26.4604 25.5763 26.2018C26.1855 25.9187 26.8489 25.7713 27.5207 25.7698C28.2163 25.7698 28.88 25.9298 29.4733 26.2018C30.0455 26.4597 30.6893 26.6127 31.36 26.6127V29.4396Z" fill="#A2792C"/>
</svg>
