<svg width="149" height="96" viewBox="0 0 149 96" fill="none" xmlns="http://www.w3.org/2000/svg">
<path d="M148.364 0H0V95.06H148.364V0Z" fill="#A2792C"/>
<path d="M141.554 7.7334H6.81445V87.326H141.554V7.7334Z" fill="white"/>
<path d="M6.99158 87.5542L6.63477 87.0985L24.728 63.9921L30.4054 71.2423L40.3719 58.5139L52.6094 74.1424L73.4259 47.5577L82.8879 59.6419L103.578 33.2181L115.185 48.0411L136.454 20.8789L136.811 21.3346L115.185 48.9525L103.578 34.1295L82.8879 60.5529L73.4259 48.4691L52.6094 75.0537L40.3719 59.4252L30.4054 72.1537L24.728 64.9031L6.99158 87.5542Z" fill="#A2792C"/>
<g clip-path="url(#clip0)">
<path d="M37.3576 53.8574C34.6802 53.8574 32.5098 56.0279 32.5098 58.7053C32.5098 61.3827 34.6802 63.5531 37.3576 63.5531C40.0351 63.5531 42.2055 61.3827 42.2055 58.7053C42.2055 56.0279 40.0351 53.8574 37.3576 53.8574ZM37.7762 61.3337V62.0165H37.1231V61.3414C36.0514 61.1946 35.5821 60.314 35.5821 60.314L36.2492 59.756C36.2492 59.756 36.6752 60.4975 37.4457 60.4975C37.8713 60.4975 38.1942 60.2696 38.1942 59.8804C38.1942 58.9705 35.7426 59.0809 35.7426 57.3928C35.7426 56.6589 36.3229 56.1303 37.1228 56.0052V55.3231H37.7759V56.0052C38.3336 56.0786 38.994 56.3721 38.994 57.0035V57.4878H38.1281V57.253C38.1281 57.0108 37.8196 56.8494 37.4744 56.8494C37.0341 56.8494 36.7115 57.0695 36.7115 57.3777C36.7115 58.3097 39.1632 58.0822 39.1632 59.851C39.1632 60.5782 38.6201 61.2086 37.7762 61.3337Z" fill="#A2792C"/>
</g>
<g clip-path="url(#clip1)">
<path d="M56.5686 68.8008C53.8911 68.8008 51.7207 70.9712 51.7207 73.6486C51.7207 76.3261 53.8911 78.4965 56.5686 78.4965C59.246 78.4965 61.4164 76.3261 61.4164 73.6486C61.4164 70.9712 59.246 68.8008 56.5686 68.8008ZM56.9872 76.277V76.9598H56.3341V76.2847C55.2624 76.138 54.7931 75.2574 54.7931 75.2574L55.4602 74.6993C55.4602 74.6993 55.8861 75.4408 56.6566 75.4408C57.0822 75.4408 57.4051 75.213 57.4051 74.8238C57.4051 73.9138 54.9535 74.0242 54.9535 72.3361C54.9535 71.6023 55.5339 71.0736 56.3337 70.9485V70.2664H56.9868V70.9485C57.5445 71.0219 58.205 71.3154 58.205 71.9469V72.4312H57.3391V72.1964C57.3391 71.9542 57.0305 71.7928 56.6853 71.7928C56.245 71.7928 55.9225 72.0129 55.9225 72.3211C55.9225 73.253 58.3741 73.0256 58.3741 74.7944C58.3741 75.5215 57.8311 76.152 56.9872 76.277Z" fill="#A2792C"/>
</g>
<g clip-path="url(#clip2)">
<path d="M86.4563 54.9248C83.7788 54.9248 81.6084 57.0952 81.6084 59.7727C81.6084 62.4501 83.7788 64.6205 86.4563 64.6205C89.1337 64.6205 91.3041 62.4501 91.3041 59.7727C91.3041 57.0952 89.1337 54.9248 86.4563 54.9248ZM86.8749 62.4011V63.0838H86.2218V62.4087C85.1501 62.262 84.6808 61.3814 84.6808 61.3814L85.3479 60.8234C85.3479 60.8234 85.7738 61.5648 86.5443 61.5648C86.9699 61.5648 87.2928 61.337 87.2928 60.9478C87.2928 60.0378 84.8412 60.1482 84.8412 58.4601C84.8412 57.7263 85.4216 57.1976 86.2214 57.0726V56.3904H86.8745V57.0726C87.4322 57.1459 88.0927 57.4395 88.0927 58.0709V58.5552H87.2268V58.3204C87.2268 58.0782 86.9182 57.9168 86.573 57.9168C86.1327 57.9168 85.8102 58.1369 85.8102 58.4451C85.8102 59.3771 88.2618 59.1496 88.2618 60.9184C88.2618 61.6456 87.7188 62.276 86.8749 62.4011Z" fill="#A2792C"/>
</g>
<g clip-path="url(#clip3)">
<path d="M70.4465 42.1162C67.7691 42.1162 65.5986 44.2866 65.5986 46.9641C65.5986 49.6415 67.7691 51.8119 70.4465 51.8119C73.1239 51.8119 75.2944 49.6415 75.2944 46.9641C75.2944 44.2866 73.1239 42.1162 70.4465 42.1162ZM70.8651 49.5925V50.2753H70.212V49.6001C69.1403 49.4534 68.671 48.5728 68.671 48.5728L69.3381 48.0148C69.3381 48.0148 69.764 48.7563 70.5346 48.7563C70.9602 48.7563 71.283 48.5284 71.283 48.1392C71.283 47.2292 68.8314 47.3397 68.8314 45.6515C68.8314 44.9177 69.4118 44.389 70.2117 44.264V43.5818H70.8648V44.264C71.4225 44.3373 72.0829 44.6309 72.0829 45.2623V45.7466H71.217V45.5118C71.217 45.2696 70.9085 45.1082 70.5632 45.1082C70.1229 45.1082 69.8004 45.3283 69.8004 45.6365C69.8004 46.5685 72.252 46.341 72.252 48.1098C72.252 48.837 71.709 49.4674 70.8651 49.5925Z" fill="#A2792C"/>
</g>
<g clip-path="url(#clip4)">
<path d="M99.2649 29.3086C96.5874 29.3086 94.417 31.479 94.417 34.1565C94.417 36.8339 96.5874 39.0043 99.2649 39.0043C101.942 39.0043 104.113 36.8339 104.113 34.1565C104.113 31.479 101.942 29.3086 99.2649 29.3086ZM99.6835 36.7849V37.4676H99.0304V36.7925C97.9587 36.6458 97.4894 35.7652 97.4894 35.7652L98.1565 35.2071C98.1565 35.2071 98.5824 35.9486 99.3529 35.9486C99.7785 35.9486 100.101 35.7208 100.101 35.3316C100.101 34.4216 97.6498 34.532 97.6498 32.8439C97.6498 32.1101 98.2302 31.5814 99.03 31.4563V30.7742H99.6831V31.4563C100.241 31.5297 100.901 31.8233 100.901 32.4547V32.939H100.035V32.7042C100.035 32.462 99.7268 32.3006 99.3816 32.3006C98.9413 32.3006 98.6188 32.5207 98.6188 32.8289C98.6188 33.7609 101.07 33.5334 101.07 35.3022C101.07 36.0294 100.527 36.6598 99.6835 36.7849Z" fill="#A2792C"/>
</g>
<g clip-path="url(#clip5)">
<path d="M119.543 42.1162C116.866 42.1162 114.695 44.2866 114.695 46.9641C114.695 49.6415 116.866 51.8119 119.543 51.8119C122.221 51.8119 124.391 49.6415 124.391 46.9641C124.391 44.2866 122.221 42.1162 119.543 42.1162ZM119.962 49.5925V50.2753H119.309V49.6001C118.237 49.4534 117.768 48.5728 117.768 48.5728L118.435 48.0148C118.435 48.0148 118.861 48.7563 119.631 48.7563C120.057 48.7563 120.38 48.5284 120.38 48.1392C120.38 47.2292 117.928 47.3397 117.928 45.6515C117.928 44.9177 118.508 44.389 119.308 44.264V43.5818H119.961V44.264C120.519 44.3373 121.18 44.6309 121.18 45.2623V45.7466H120.314V45.5118C120.314 45.2696 120.005 45.1082 119.66 45.1082C119.22 45.1082 118.897 45.3283 118.897 45.6365C118.897 46.5685 121.349 46.341 121.349 48.1098C121.349 48.837 120.806 49.4674 119.962 49.5925Z" fill="#A2792C"/>
</g>
<defs>
<clipPath id="clip0">
<rect width="10.6737" height="10.6737" fill="white" transform="translate(32.0215 53.3682)"/>
</clipPath>
<clipPath id="clip1">
<rect width="10.6737" height="10.6737" fill="white" transform="translate(51.2324 68.3115)"/>
</clipPath>
<clipPath id="clip2">
<rect width="10.6737" height="10.6737" fill="white" transform="translate(81.1201 54.4355)"/>
</clipPath>
<clipPath id="clip3">
<rect width="10.6737" height="10.6737" fill="white" transform="translate(65.1104 41.627)"/>
</clipPath>
<clipPath id="clip4">
<rect width="10.6737" height="10.6737" fill="white" transform="translate(93.9287 28.8193)"/>
</clipPath>
<clipPath id="clip5">
<rect width="10.6737" height="10.6737" fill="white" transform="translate(114.207 41.627)"/>
</clipPath>
</defs>
</svg>
