<svg width="32" height="32" viewBox="0 0 32 32" fill="none" xmlns="http://www.w3.org/2000/svg">
<path d="M8.00004 9.33301H24C24.8755 9.33301 25.7424 9.50545 26.5513 9.84048C27.3601 10.1755 28.095 10.6666 28.7141 11.2856C29.3331 11.9047 29.8242 12.6396 30.1592 13.4485C30.4943 14.2573 30.6667 15.1242 30.6667 15.9997C30.6667 16.8752 30.4943 17.7421 30.1592 18.5509C29.8242 19.3597 29.3331 20.0947 28.7141 20.7137C28.095 21.3328 27.3601 21.8238 26.5513 22.1589C25.7424 22.4939 24.8755 22.6663 24 22.6663C21.8134 22.6663 19.88 21.613 18.6667 19.9997H13.3334C12.12 21.613 10.1867 22.6663 8.00004 22.6663C7.12456 22.6663 6.25765 22.4939 5.44882 22.1589C4.63998 21.8238 3.90505 21.3328 3.286 20.7137C2.03575 19.4635 1.33337 17.7678 1.33337 15.9997C1.33337 14.2316 2.03575 12.5359 3.286 11.2856C4.53624 10.0354 6.23193 9.33301 8.00004 9.33301ZM26.3334 12.6663C25.8913 12.6663 25.4674 12.8419 25.1549 13.1545C24.8423 13.4671 24.6667 13.891 24.6667 14.333C24.6667 14.5519 24.7098 14.7686 24.7936 14.9708C24.8773 15.173 25.0001 15.3568 25.1549 15.5115C25.3096 15.6663 25.4934 15.789 25.6956 15.8728C25.8978 15.9566 26.1145 15.9997 26.3334 15.9997C26.5522 15.9997 26.769 15.9566 26.9712 15.8728C27.1734 15.789 27.3571 15.6663 27.5119 15.5115C27.6666 15.3568 27.7894 15.173 27.8732 14.9708C27.9569 14.7686 28 14.5519 28 14.333C28 13.891 27.8244 13.4671 27.5119 13.1545C27.1993 12.8419 26.7754 12.6663 26.3334 12.6663ZM23 15.9997C22.558 15.9997 22.1341 16.1753 21.8215 16.4878C21.509 16.8004 21.3334 17.2243 21.3334 17.6663C21.3334 18.1084 21.509 18.5323 21.8215 18.8449C22.1341 19.1574 22.558 19.333 23 19.333C23.4421 19.333 23.866 19.1574 24.1786 18.8449C24.4911 18.5323 24.6667 18.1084 24.6667 17.6663C24.6667 17.2243 24.4911 16.8004 24.1786 16.4878C23.866 16.1753 23.4421 15.9997 23 15.9997ZM6.66671 11.9997V14.6663H4.00004V17.333H6.66671V19.9997H9.33337V17.333H12V14.6663H9.33337V11.9997H6.66671Z" fill="#A2792C"/>
</svg>
