<svg width="32" height="32" viewBox="0 0 32 32" fill="none" xmlns="http://www.w3.org/2000/svg">
<path d="M13.3333 4.66699C13.3333 3.56033 14.2267 2.66699 15.3333 2.66699C16.44 2.66699 17.3333 3.56033 17.3333 4.66699C17.3333 5.77366 16.44 6.66699 15.3333 6.66699C14.2267 6.66699 13.3333 5.77366 13.3333 4.66699ZM29.3333 10.667V15.3337L27.96 15.8003C27.8477 16.5944 27.4529 17.3214 26.848 17.8479C26.2431 18.3745 25.4686 18.6653 24.6667 18.667H24.56C24.3733 19.5737 23.9333 20.387 23.3333 21.0403V29.3337H20V22.667H19.6667C19.3867 22.667 19.1067 22.627 18.84 22.587L12.92 21.6003L11.4267 24.2803L12.4267 29.3337H9.03999L7.99999 24.3337C7.95999 23.9337 7.99999 23.5337 8.21333 23.187L9.57333 20.7737C8.91149 20.4054 8.35691 19.8713 7.96415 19.2237C7.57139 18.5761 7.35399 17.8374 7.33333 17.0803C7.27999 17.2803 7.25333 17.5737 7.29333 18.0003C7.33333 18.587 7.47999 19.4537 7.38666 20.4137C7.33333 21.3737 6.89333 22.3603 6.33333 23.0137C5.75999 23.667 5.13333 24.1203 4.46666 24.467L3.53333 23.5337C3.78666 22.907 4.03999 22.347 4.09333 21.827C4.17333 21.3337 4.07999 20.9337 3.93333 20.5737L3.22666 19.067C2.94666 18.387 2.59999 17.4003 2.66666 16.2403C2.70666 15.107 3.33333 13.627 4.51999 12.8137C5.71999 12.0003 7.01333 11.8803 8.06666 12.107C8.73333 12.2403 9.41333 12.5603 9.99999 13.0137C10.4933 12.787 11.0667 12.667 11.6667 12.667H12V10.8137C12 9.48033 12.9067 8.25366 14.2133 8.04033C14.5961 7.97429 14.9888 7.99268 15.3637 8.09422C15.7387 8.19577 16.0869 8.378 16.3841 8.62819C16.6813 8.87837 16.9202 9.19046 17.0842 9.54263C17.2481 9.89479 17.3332 10.2785 17.3333 10.667V12.667H19.3333V12.0003C19.3333 9.05366 21.72 6.66699 24.6667 6.66699H29.3333L28.1467 8.45366C28.8667 8.93366 29.3333 9.74699 29.3333 10.667ZM26.6667 14.9337L25.28 12.7203C25.1067 12.4403 24.6667 12.5603 24.6667 12.8937V17.3337C25.7733 17.3337 26.6667 16.4403 26.6667 15.3337V14.9337Z" fill="#A2792C"/>
</svg>
