<svg width="24" height="24" viewBox="0 0 24 24" fill="none" xmlns="http://www.w3.org/2000/svg">
<g clip-path="url(#clip0)">
<g filter="url(#filter0_d)">
<path d="M23.375 20.4059L13.9641 10.995L2.9691 0H2.10984L1.93438 0.445828C1.47131 1.62258 1.27345 2.82614 1.36228 3.92625C1.46353 5.18025 1.93992 6.26592 2.74003 7.06603L11.3233 15.6493L12.4554 14.5172L20.3907 23.3903C21.18 24.1797 22.5387 24.2265 23.375 23.3903C24.1978 22.5675 24.1978 21.2287 23.375 20.4059Z" fill="#A2792C"/>
</g>
<path d="M7.34727 13.6611L0.624875 20.3835C-0.197875 21.2063 -0.197875 22.5451 0.624875 23.3678C1.40647 24.1494 2.75858 24.2184 3.60917 23.3678L10.3316 16.6454L7.34727 13.6611Z" fill="#A2792C"/>
<path d="M22.9792 3.99573L19.1658 7.80901L18.171 6.81423L21.9843 3.0009L20.9895 2.00612L17.1763 5.8194L16.1815 4.82462L19.9948 1.01134L19.0001 0.0166016L14.0262 4.99051C13.4177 5.59899 13.0544 6.40693 13.003 7.26559C12.99 7.48313 12.9407 7.69712 12.8589 7.90065L16.0899 11.1317C16.2935 11.0498 16.5075 11.0005 16.725 10.9876C17.5837 10.9363 18.3916 10.5729 19.0001 9.96441L23.974 4.99055L22.9792 3.99573Z" fill="#A2792C"/>
</g>
<defs>
<filter id="filter0_d" x="-2.65845" y="0" width="30.6505" height="32" filterUnits="userSpaceOnUse" color-interpolation-filters="sRGB">
<feFlood flood-opacity="0" result="BackgroundImageFix"/>
<feColorMatrix in="SourceAlpha" type="matrix" values="0 0 0 0 0 0 0 0 0 0 0 0 0 0 0 0 0 0 127 0"/>
<feOffset dy="4"/>
<feGaussianBlur stdDeviation="2"/>
<feColorMatrix type="matrix" values="0 0 0 0 0 0 0 0 0 0 0 0 0 0 0 0 0 0 0.25 0"/>
<feBlend mode="normal" in2="BackgroundImageFix" result="effect1_dropShadow"/>
<feBlend mode="normal" in="SourceGraphic" in2="effect1_dropShadow" result="shape"/>
</filter>
<clipPath id="clip0">
<rect width="24" height="24" fill="white"/>
</clipPath>
</defs>
</svg>
