<svg width="20" height="32" viewBox="0 0 20 32" fill="none" xmlns="http://www.w3.org/2000/svg">
<path d="M16.523 27.1623C16.2343 27.1176 16.0163 27.0867 15.8389 27.0617C15.294 26.9843 15.1477 26.9635 14.5106 26.7652C14.2595 26.687 13.2774 25.6964 13.2774 23.7576C13.2774 21.26 13.8704 19.0544 14.1252 18.2221C14.132 18.2004 14.1486 18.1375 14.1716 18.0524C14.2137 17.8961 14.5229 16.9524 14.5229 16.9524C14.6905 16.4723 14.864 15.9757 14.9767 15.4656L14.9827 15.4395C15.1528 14.7009 15.7113 12.0011 15.7509 8.26675C15.7509 7.88993 15.4376 7.56206 15.2506 7.36625C15.2163 7.33028 15.186 7.2988 15.1633 7.27233C14.9832 7.06286 14.746 6.80427 14.4713 6.50502C14.2904 6.30766 14.0911 6.09024 13.8764 5.8524C13.5329 5.47247 13.1498 5.12488 12.7792 4.78888C12.3235 4.37591 11.8526 3.94884 11.4656 3.46737C10.8872 2.74806 10.3524 1.48908 10.4492 0.474426C10.4639 0.321345 10.4282 0.189108 10.3487 0.101757C10.2605 0.00463247 10.1221 -0.0256377 10.0003 0.0225351C9.87822 -0.0256377 9.73976 0.00463247 9.65171 0.101757C9.57232 0.189108 9.53643 0.321345 9.5513 0.474426C9.64791 1.48908 9.11316 2.74806 8.53491 3.46737C8.14772 3.94884 7.6768 4.37591 7.2211 4.78888C6.85068 5.12488 6.46737 5.47247 6.12402 5.8524C5.90937 6.09024 5.70984 6.30766 5.529 6.50502C5.25423 6.80427 5.01726 7.06286 4.83694 7.27233C4.81428 7.2988 4.78418 7.33028 4.74984 7.36625C4.56277 7.56206 4.24943 7.88993 4.24943 8.26865C4.28913 12.0011 4.84757 14.7009 5.01769 15.4395L5.02366 15.4656C5.13635 15.9757 5.30993 16.4724 5.47737 16.9524C5.47737 16.9524 5.78647 17.8961 5.82859 18.0524C5.85168 18.1375 5.86837 18.2004 5.87512 18.2221C6.12982 19.0544 6.72277 21.26 6.72277 23.7576C6.72277 25.6965 5.74072 26.687 5.48973 26.7652C4.85268 26.9635 4.70625 26.9843 4.16122 27.0617C3.98383 27.0867 3.76606 27.1176 3.47737 27.1623C0.348558 27.4953 0.0107422 29.0485 0.0107422 29.701C0.0107422 29.8759 0.101293 30.4441 0.514265 30.9679C0.885378 31.4386 1.62449 32 3.03923 32C3.25147 32 3.47599 31.9873 3.70673 31.9624C4.64831 31.8612 5.59724 31.7092 6.51477 31.5623C6.84809 31.5089 7.1808 31.4556 7.51412 31.4045C7.95814 31.3364 8.7584 31.2913 9.89232 31.2705C9.94542 31.2695 9.98235 31.2687 10.0003 31.2682C10.0182 31.2687 10.0551 31.2696 10.108 31.2705C11.2421 31.2913 12.0423 31.3364 12.4864 31.4045C12.8195 31.4556 13.1523 31.5089 13.4856 31.5623C14.4032 31.7092 15.3522 31.8612 16.2936 31.9624C16.5243 31.9872 16.7489 32 16.9611 32C18.3761 32 19.1154 31.4388 19.4862 30.9679C19.8992 30.4442 19.9896 29.8758 19.9896 29.701C19.9894 29.0485 19.6518 27.4953 16.523 27.1623ZM11.6546 14.4464C11.608 14.4464 11.5638 14.4362 11.5191 14.4151C11.3736 14.357 11.1869 14.079 11.1695 13.971C11.8945 13.4666 12.3842 12.5086 12.3842 11.4089C12.3842 9.78493 12.2128 8.46835 10.0001 8.46835C7.78733 8.46835 7.61591 9.78493 7.61591 11.4089C7.61591 12.5086 8.10568 13.4666 8.83052 13.971C8.81349 14.0787 8.62261 14.3435 8.48103 14.4151C8.43641 14.4362 8.3923 14.4464 8.34551 14.4464C7.87961 14.4465 7.29565 13.4261 7.14231 13.02C6.88104 12.3301 6.5549 11.1443 6.48493 9.41382L6.48208 9.34722C6.46417 8.98268 7.01328 8.05045 7.08601 7.89097C7.18599 7.67138 8.48311 5.69422 8.86832 5.22581C9.00471 5.06019 9.69565 4.14274 10.0002 3.73781C10.3046 4.14274 10.9955 5.06019 11.1318 5.22581C11.5172 5.69422 12.814 7.67138 12.9141 7.89097C12.987 8.05045 13.5361 8.98268 13.5183 9.34722L13.5154 9.41382C13.4453 11.1444 13.1194 12.3302 12.8578 13.02C12.7045 13.426 12.1207 14.4464 11.6546 14.4464Z" fill="#A2792C"/>
</svg>
