<svg width="37" height="37" viewBox="0 0 37 37" fill="none" xmlns="http://www.w3.org/2000/svg">
<path d="M18.5 19.9453C20.462 19.9453 22.041 18.3844 22.041 16.4766V8.38281C22.041 6.475 20.462 4.91406 18.5 4.91406C16.538 4.91406 14.959 6.475 14.959 8.38281V16.4766C14.959 18.3844 16.538 19.9453 18.5 19.9453Z" fill="black" fill-opacity="0.15"/>
<path d="M30.4238 16.4043C30.4238 16.2453 30.2938 16.1152 30.1348 16.1152H27.9668C27.8078 16.1152 27.6777 16.2453 27.6777 16.4043C27.6777 21.4737 23.5694 25.582 18.5 25.582C13.4306 25.582 9.32227 21.4737 9.32227 16.4043C9.32227 16.2453 9.19219 16.1152 9.0332 16.1152H6.86523C6.70625 16.1152 6.57617 16.2453 6.57617 16.4043C6.57617 22.4999 11.1506 27.5296 17.0547 28.2414V31.9414H11.8046C11.3096 31.9414 10.9121 32.4581 10.9121 33.0977V34.3984C10.9121 34.5574 11.0133 34.6875 11.1361 34.6875H25.8639C25.9867 34.6875 26.0879 34.5574 26.0879 34.3984V33.0977C26.0879 32.4581 25.6904 31.9414 25.1954 31.9414H19.8008V28.2595C25.7735 27.6091 30.4238 22.5505 30.4238 16.4043Z" fill="#A2792C"/>
<path d="M18.5 22.5469C21.8929 22.5469 24.6426 19.8297 24.6426 16.4766V8.38281C24.6426 5.02969 21.8929 2.3125 18.5 2.3125C15.1071 2.3125 12.3574 5.02969 12.3574 8.38281V16.4766C12.3574 19.8297 15.1071 22.5469 18.5 22.5469ZM14.959 8.38281C14.959 6.475 16.538 4.91406 18.5 4.91406C20.462 4.91406 22.041 6.475 22.041 8.38281V16.4766C22.041 18.3844 20.462 19.9453 18.5 19.9453C16.538 19.9453 14.959 18.3844 14.959 16.4766V8.38281Z" fill="#A2792C"/>
</svg>
