<svg width="32" height="30" viewBox="0 0 32 30" fill="none" xmlns="http://www.w3.org/2000/svg">
<path d="M31.1819 4.45111C30.2949 3.82207 29.0819 4.00878 28.3513 5.03865C27.7123 5.93921 27.9346 7.36723 28.3345 7.95288C28.3345 7.95288 28.3574 7.98227 28.3151 7.99981C28.2441 8.0292 27.8228 8.25914 27.8228 8.25914C27.7116 8.29372 27.6985 8.37713 27.7933 8.44456L27.9448 8.55209C27.9448 8.55209 27.9973 8.59142 27.9657 8.63603C27.6582 9.06954 25.1094 12.7304 23.9837 14.3479C23.7528 14.6495 23.7972 14.3819 23.8276 14.2145C24.065 12.9089 24.357 11.3029 24.4253 10.9271C24.4351 10.8732 24.5094 10.8849 24.5094 10.8849L24.6827 10.9165C24.7972 10.9372 24.8476 10.8695 24.7947 10.7659C24.7947 10.7659 24.6702 10.3071 24.6393 10.2388C24.6188 10.1935 24.65 10.1909 24.65 10.1909C25.3635 10.0756 26.5302 9.22729 26.7284 8.13674C26.9544 6.89448 26.2398 5.89633 25.17 5.70184C24.1002 5.50734 23.0801 6.19006 22.8542 7.43241C22.6567 8.51881 23.4626 9.71837 24.0729 10.0797C24.0729 10.0797 24.1061 10.0967 24.0751 10.1305C24.0232 10.1871 23.7389 10.5739 23.7389 10.5739C23.6528 10.6522 23.6761 10.7335 23.7907 10.7542L23.9735 10.7875C23.9735 10.7875 24.0377 10.801 24.0279 10.8548C23.9381 11.3489 23.4711 13.9713 23.2311 15.2375C23.2197 15.2978 23.0216 15.4023 22.8963 15.5664C22.7835 15.714 21.7653 17.3643 20.3035 17.6098C19.8851 17.6098 17.1618 17.6098 16.714 17.6098C15.6499 17.431 14.7317 16.5789 14.4746 15.939C14.3611 15.6561 14.2361 15.3179 14.0882 14.9999L11.3976 8.955C11.2116 8.5552 11.0471 8.0197 10.2829 8.0197C10.0007 8.0197 9.72084 8.0197 9.39755 8.0197H5.41758C5.08815 8.0197 4.917 8.0197 4.51115 8.0197C3.74899 8.0197 3.35127 8.51622 3.13326 8.96364L0.410597 14.9487C0.0889464 15.6087 -0.297709 16.4062 0.355188 16.73C1.00852 17.0537 1.61162 16.7812 1.93345 16.1209L3.31108 13.7272C3.31108 13.7272 3.39 13.5867 3.36043 13.7422C3.17657 14.7103 1.73282 19.4952 1.73282 19.4952C1.60929 20.1012 2.01418 20.5972 2.63276 20.5972C2.63276 20.5972 3.73611 20.5972 4.10375 20.5972C4.20904 20.5972 4.19028 20.6764 4.19028 20.6764L4.47113 28.4074C4.47113 29.3878 4.80091 29.9019 5.55451 29.9019C6.30776 29.9019 6.63789 29.3878 6.63789 28.4074L6.91874 20.6531C6.91874 20.6531 6.91562 20.595 6.97708 20.5973C7.05635 20.5998 7.25698 20.5976 7.3468 20.5976C7.39814 20.5976 7.39175 20.6594 7.39175 20.6594L7.6726 28.4075C7.6726 29.3879 8.00272 29.902 8.75632 29.902C9.50958 29.902 9.8397 29.3879 9.8397 28.4075L10.1206 20.6922C10.1206 20.6922 10.1116 20.5973 10.2246 20.5973C10.6203 20.5973 11.807 20.5973 11.807 20.5973C12.4255 20.5973 12.8403 20.0994 12.7287 19.4911C12.7287 19.4911 11.2836 14.495 11.1481 13.6439C11.1093 13.3999 12.638 16.1385 12.638 16.1385C12.8813 16.6616 13.4076 16.5985 13.6392 16.9473C14.1409 17.7029 14.7328 18.4801 15.3382 18.8408C16.3159 19.4335 16.3312 19.1681 16.4243 20.0265L16.4084 20.6022L16.0849 23.0178C16.0654 23.1629 16.1336 23.2888 16.2486 23.3496C16.2742 23.3631 16.33 23.3786 16.3294 23.4632L16.1779 28.9399C16.1642 28.9914 16.1779 29.3533 16.2072 29.3672C16.3021 29.6708 16.5779 29.9017 16.9243 29.9017C17.2555 29.9017 17.5449 29.6947 17.6555 29.4054C17.6399 29.3949 18.4031 24.098 18.5088 24.098C18.6475 24.098 19.3622 29.4054 19.3622 29.4054C19.4864 29.6948 19.7621 29.9017 20.0933 29.9017C20.4415 29.9017 20.7138 29.6708 20.8242 29.3672C20.8242 29.3533 20.8518 28.9913 20.8242 28.9399L20.682 23.4517C20.675 23.3728 20.7397 23.355 20.7658 23.3391C20.8705 23.2754 20.9314 23.1554 20.913 23.0177L20.6125 20.7752L20.5931 20.0264C20.6863 19.168 20.7138 19.4335 21.6793 18.8407C22.6742 18.2473 23.6931 16.2566 23.7403 15.9858C23.7934 15.6811 23.6322 15.5589 23.7318 15.4167C24.456 14.383 27.9491 9.35765 28.2953 8.86985C28.3269 8.82508 28.3894 8.86717 28.3894 8.86717L28.533 8.96918C28.6279 9.03651 28.7022 8.99649 28.6982 8.88005C28.6982 8.88005 28.7796 8.41188 28.7806 8.33677C28.7812 8.28715 28.8105 8.29813 28.8105 8.29813C29.5056 8.49565 30.9218 8.22111 31.563 7.31701C32.2935 6.28696 32.0688 5.08015 31.1819 4.45111Z" fill="#A2792C"/>
<path d="M7.1553 6.97222C9.05366 6.97222 10.5926 5.4333 10.5926 3.53494C10.5926 1.63658 9.05366 0.0976562 7.1553 0.0976562C5.25694 0.0976562 3.71802 1.63658 3.71802 3.53494C3.71802 5.4333 5.25694 6.97222 7.1553 6.97222Z" fill="#A2792C"/>
<path d="M18.5086 16.9473C19.5585 16.9473 20.4103 16.0919 20.4103 15.0442C20.4103 13.9856 19.5585 13.1406 18.5086 13.1406C17.4449 13.1406 16.5914 13.9856 16.5914 15.0442C16.5915 16.092 17.4449 16.9473 18.5086 16.9473Z" fill="#A2792C"/>
</svg>
