<svg width="24" height="24" viewBox="0 0 24 24" fill="none" xmlns="http://www.w3.org/2000/svg">
<path d="M4.44958 9.12039H6.32926L6.61822 17.7604H4.1995L4.44958 9.12039ZM2.87998 18.2404H21.12V19.2004H22.56V20.6404H23.52V21.6004H0.47998V20.6404H1.43998V19.2004H2.87998V18.2404ZM22.08 6.63015L12.0009 2.40039L1.91998 6.63015V7.20039H22.08V6.63015ZM3.83998 7.68039H20.16V8.64039H3.83998V7.68039ZM17.6333 9.12039H19.512L19.8033 17.7604H17.3813L17.6333 9.12039ZM13.2403 9.12039H15.119L15.407 17.7604H12.9873L13.2403 9.12039ZM8.84638 9.12039H10.7256L11.0117 17.7604H8.59294L8.84638 9.12039Z" fill="#A2792C"/>
</svg>
