<svg width="52" height="52" viewBox="0 0 52 52" fill="none" xmlns="http://www.w3.org/2000/svg">
<path d="M45.125 0.5625C43.4994 0.5625 41.9014 1.2 40.6753 2.424L19.625 23.4062L19.1575 23.8737L19.03 24.5389L17.5637 31.9764L16.905 35.0959L20.0224 34.4371L27.4599 32.9709L28.125 32.8434L28.5925 32.3759L49.5747 11.3256C50.4535 10.4438 51.0516 9.32157 51.2938 8.10039C51.5359 6.87921 51.4112 5.61369 50.9354 4.46325C50.4596 3.31281 49.654 2.32892 48.62 1.63553C47.586 0.942135 46.3699 0.57026 45.125 0.56675V0.5625ZM45.125 4.685C45.6244 4.685 46.111 4.94 46.587 5.41388C47.5347 6.36163 47.5347 7.38588 46.587 8.33575L26 28.9185L22.345 29.6495L23.0781 25.9945L43.6651 5.4075C44.139 4.93362 44.6256 4.67862 45.125 4.67862V4.685ZM0.5 8.99875V51.4987H43V23.4742L38.75 27.7242V47.2487H4.75V13.2487H24.2745L28.5245 8.99875H0.5Z" fill="#A2792C"/>
</svg>
