<svg width="85" height="85" viewBox="0 0 85 85" fill="none" xmlns="http://www.w3.org/2000/svg">
<g filter="url(#filter0_d)">
<circle cx="42.5" cy="41.5" r="40.5" fill="white"/>
</g>
<path d="M62.9161 22.2002C62.7734 22.0434 62.6004 21.9172 62.4076 21.8291C62.2147 21.7411 62.006 21.6931 61.7941 21.688C61.5821 21.6828 61.3713 21.7208 61.1744 21.7994C60.9776 21.8781 60.7987 21.9958 60.6486 22.1455L59.4406 23.3477C59.2942 23.4942 59.2119 23.6928 59.2119 23.8999C59.2119 24.107 59.2942 24.3057 59.4406 24.4522L60.548 25.5576C60.6206 25.6306 60.7069 25.6884 60.8019 25.7279C60.8969 25.7674 60.9988 25.7878 61.1017 25.7878C61.2046 25.7878 61.3065 25.7674 61.4015 25.7279C61.4965 25.6884 61.5828 25.6306 61.6554 25.5576L62.8331 24.3858C63.4288 23.791 63.4845 22.8223 62.9161 22.2002Z" fill="#CAAD2E"/>
<path d="M56.9982 25.7898L39.3693 43.3874C39.2624 43.4939 39.1847 43.626 39.1437 43.7712L38.3282 46.1999C38.3087 46.2658 38.3073 46.3358 38.3242 46.4024C38.3412 46.469 38.3757 46.5298 38.4243 46.5784C38.4729 46.627 38.5338 46.6616 38.6004 46.6785C38.667 46.6954 38.737 46.6941 38.8029 46.6745L41.2296 45.8591C41.3748 45.8181 41.507 45.7404 41.6134 45.6335L59.2111 28.0026C59.3739 27.8381 59.4652 27.616 59.4652 27.3845C59.4652 27.153 59.3739 26.9309 59.2111 26.7663L58.2394 25.7898C58.0746 25.6255 57.8514 25.5332 57.6188 25.5332C57.3861 25.5332 57.1629 25.6255 56.9982 25.7898Z" fill="#CAAD2E"/>
<path d="M55.7285 35.9121L43.8252 47.8389C43.3651 48.3001 42.7997 48.6423 42.1777 48.8359L39.6484 49.6826C39.0482 49.8521 38.4136 49.8585 37.81 49.7011C37.2065 49.5438 36.6558 49.2283 36.2147 48.7872C35.7737 48.3462 35.4582 47.7955 35.3008 47.1919C35.1434 46.5884 35.1498 45.9538 35.3193 45.3535L36.166 42.8242C36.3591 42.2025 36.7007 41.637 37.1611 41.1768L49.0879 29.2715C49.1972 29.1623 49.2717 29.0231 49.3019 28.8716C49.3322 28.72 49.3168 28.5629 49.2577 28.4201C49.1986 28.2774 49.0986 28.1553 48.9701 28.0694C48.8417 27.9835 48.6907 27.9376 48.5361 27.9375H28.1562C26.7058 27.9375 25.3148 28.5137 24.2893 29.5393C23.2637 30.5648 22.6875 31.9558 22.6875 33.4062V56.8438C22.6875 58.2942 23.2637 59.6852 24.2893 60.7107C25.3148 61.7363 26.7058 62.3125 28.1562 62.3125H51.5938C53.0442 62.3125 54.4352 61.7363 55.4607 60.7107C56.4863 59.6852 57.0625 58.2942 57.0625 56.8438V36.4639C57.0624 36.3093 57.0165 36.1583 56.9306 36.0299C56.8447 35.9014 56.7226 35.8014 56.5799 35.7423C56.4371 35.6832 56.28 35.6678 56.1284 35.6981C55.9769 35.7283 55.8377 35.8028 55.7285 35.9121Z" fill="#CAAD2E"/>
<defs>
<filter id="filter0_d" x="0" y="0" width="85" height="85" filterUnits="userSpaceOnUse" color-interpolation-filters="sRGB">
<feFlood flood-opacity="0" result="BackgroundImageFix"/>
<feColorMatrix in="SourceAlpha" type="matrix" values="0 0 0 0 0 0 0 0 0 0 0 0 0 0 0 0 0 0 127 0"/>
<feMorphology radius="1" operator="dilate" in="SourceAlpha" result="effect1_dropShadow"/>
<feOffset dy="1"/>
<feGaussianBlur stdDeviation="0.5"/>
<feColorMatrix type="matrix" values="0 0 0 0 0 0 0 0 0 0 0 0 0 0 0 0 0 0 0.25 0"/>
<feBlend mode="normal" in2="BackgroundImageFix" result="effect1_dropShadow"/>
<feBlend mode="normal" in="SourceGraphic" in2="effect1_dropShadow" result="shape"/>
</filter>
</defs>
</svg>
