<svg width="22" height="26" viewBox="0 0 22 26" fill="none" xmlns="http://www.w3.org/2000/svg">
<g filter="url(#filter0_d)">
<path d="M15.1663 17.3327C16.5496 17.3327 17.6663 16.216 17.6663 14.8327C17.6663 13.4493 16.5496 12.3327 15.1663 12.3327C14.0829 12.3327 13.1663 13.0327 12.8163 13.9993H8.61628L10.2746 11.4493C10.7557 11.5158 11.2436 11.5158 11.7246 11.4493L12.5746 12.7577C12.9246 12.316 13.3746 11.966 13.9079 11.7493L13.4079 10.9743C14.4288 10.5125 15.2948 9.76613 15.9023 8.82464C16.5098 7.88315 16.8329 6.78647 16.8329 5.66602H5.16628C5.16628 8.03268 6.57461 10.0577 8.59961 10.9743L4.84961 16.741L6.24961 17.6493L7.53294 15.666H12.8163C13.1663 16.6327 14.0829 17.3327 15.1663 17.3327ZM15.1663 13.9993C15.6246 13.9993 15.9996 14.3743 15.9996 14.8327C15.9996 15.291 15.6246 15.666 15.1663 15.666C14.7079 15.666 14.3329 15.291 14.3329 14.8327C14.3329 14.3743 14.7079 13.9993 15.1663 13.9993ZM8.84128 4.83268H9.67461C9.79961 3.87435 9.86628 3.46602 8.93294 2.36602C8.58294 1.94935 8.36628 1.72435 8.54961 0.666016H7.72461C7.54961 1.59102 7.74961 2.37435 8.46628 3.13268C8.64961 3.33268 9.12461 3.69102 8.84128 4.83268ZM10.9079 4.83268H11.7413C11.8663 3.87435 11.9329 3.46602 10.9996 2.36602C10.6496 1.94935 10.4329 1.71602 10.6163 0.666016H9.79128C9.61628 1.59102 9.81628 2.37435 10.5329 3.13268C10.7246 3.33268 11.1996 3.69102 10.9079 4.83268ZM13.0079 4.83268H13.8413C13.9663 3.87435 14.0329 3.46602 13.0996 2.36602C12.7496 1.94935 12.5329 1.72435 12.7163 0.666016H11.8913C11.7163 1.59102 11.9163 2.37435 12.6329 3.13268C12.8163 3.33268 13.2913 3.69102 13.0079 4.83268Z" fill="#E2C022"/>
</g>
<defs>
<filter id="filter0_d" x="0.849609" y="0.666016" width="20.8167" height="24.9833" filterUnits="userSpaceOnUse" color-interpolation-filters="sRGB">
<feFlood flood-opacity="0" result="BackgroundImageFix"/>
<feColorMatrix in="SourceAlpha" type="matrix" values="0 0 0 0 0 0 0 0 0 0 0 0 0 0 0 0 0 0 127 0"/>
<feOffset dy="4"/>
<feGaussianBlur stdDeviation="2"/>
<feColorMatrix type="matrix" values="0 0 0 0 0 0 0 0 0 0 0 0 0 0 0 0 0 0 0.25 0"/>
<feBlend mode="normal" in2="BackgroundImageFix" result="effect1_dropShadow"/>
<feBlend mode="normal" in="SourceGraphic" in2="effect1_dropShadow" result="shape"/>
</filter>
</defs>
</svg>
