<svg width="33" height="32" viewBox="0 0 33 32" fill="none" xmlns="http://www.w3.org/2000/svg">
<path fill-rule="evenodd" clip-rule="evenodd" d="M11.1322 4.52903C11.3641 4.65632 11.6316 4.70256 11.8925 4.66049C12.2896 4.53327 12.26 4.66049 12.7627 4.66049C13.1344 4.66049 13.7131 4.26187 13.6751 5.50862L13.8187 5.54677H13.8609L13.5357 6.07685C13.6033 6.11501 13.4977 6.11925 13.6202 6.07685L13.7384 6.0175C13.7089 6.41612 13.9201 5.97509 13.7384 6.3313C13.9137 6.26555 14.0623 6.14324 14.1608 5.98356C14.2726 5.84177 14.3663 5.68647 14.4396 5.52132C14.862 3.99046 14.4396 4.50781 13.9032 4.08799C14.0025 4.02048 14.1182 3.98129 14.238 3.97457C14.3577 3.96785 14.477 3.99386 14.5832 4.04984C14.5832 3.88445 14.5368 3.91413 14.3805 3.83356C14.2242 3.75299 14.2495 3.72755 14.1017 3.63002C13.8694 3.47312 13.5568 3.63002 13.2569 3.57489C12.8767 3.0957 13.1091 3.08722 13.1598 2.88791C12.7627 2.60379 11.939 2.80733 11.4279 2.84973C10.7985 2.90486 10.2071 2.72675 9.73828 2.76492L10.0002 2.84549C9.87767 2.9303 9.78897 2.87094 10.0002 2.90911C10.0002 2.90911 9.90302 3.04056 9.86923 2.97695L11.5842 2.9515C11.5976 3.05273 11.6217 3.15224 11.656 3.24835C11.77 3.52823 11.901 3.52823 11.9728 3.7233C12.0446 3.91837 11.9728 3.90567 12.0911 4.00744C12.0911 4.00744 12.0657 4.00744 12.0615 4.03288C11.9549 4.16906 11.8063 4.26596 11.6391 4.30851C11.4194 4.34244 11.1702 4.36788 10.9464 4.38484L11.0266 4.43572C11.128 4.50781 11.0604 4.43998 11.1322 4.52903Z" fill="url(#paint0_linear)"/>
<path fill-rule="evenodd" clip-rule="evenodd" d="M25.4984 8.5067C24.4973 8.59576 24.3579 8.43036 24.0074 9.07495C23.7203 9.5921 23.5841 10.18 23.6145 10.7712L23.7412 10.5422C23.8004 10.7161 23.7412 10.644 23.8468 10.7119C23.982 9.91463 23.9229 10.0588 24.4847 9.59658L24.6536 9.42694C24.8733 9.17249 24.8141 9.2361 24.7466 9.08344C24.8288 9.10046 24.9136 9.10046 24.9958 9.08344H25.0338L25.1394 9.03255C25.291 8.99897 25.4482 8.99897 25.5998 9.03255C25.6547 8.83748 25.4858 9.10887 25.6758 8.83747C26.0238 9.14682 26.4789 9.3067 26.943 9.28274C27.0467 9.26669 27.1527 9.27605 27.252 9.31002C27.3513 9.34399 27.4409 9.40156 27.5133 9.47782C27.8216 9.36756 27.4288 9.38878 27.6738 9.3591H27.7709C27.6907 9.27428 27.6358 9.25731 27.5893 9.13857C27.5429 9.01983 27.6907 9.21065 27.5597 9.07495C27.5597 9.07495 27.2007 8.78235 27.188 8.77387C27.5006 8.3498 27.074 8.74419 27.6104 8.3498L27.8808 8.17592C28.4383 8.09958 28.0328 7.92573 28.2483 7.87484C28.5355 7.83243 28.5777 7.90877 28.8903 7.92997C29.1242 7.91223 29.3569 7.88107 29.5873 7.83666C30.0392 7.81546 30.4321 8.01902 30.9643 7.99781C30.9009 7.75609 30.8376 7.9978 30.9305 7.90875C31.0234 7.81969 30.9643 7.90875 30.9643 7.90875L27.8005 7.45923C27.1542 7.43379 27.319 7.74336 26.6178 8.07414C26.3977 8.18645 26.148 8.22651 25.9039 8.18865C25.4182 8.12928 25.604 8.34132 25.4984 8.5067Z" fill="url(#paint1_linear)"/>
<path fill-rule="evenodd" clip-rule="evenodd" d="M20.902 6.95044C21.3198 6.95044 21.7281 6.82608 22.0754 6.59309C22.4227 6.3601 22.6934 6.02896 22.8533 5.64151C23.0131 5.25407 23.0549 4.82774 22.9735 4.41643C22.892 4.00511 22.6908 3.62728 22.3955 3.33075C22.1001 3.03421 21.7238 2.83228 21.3141 2.75046C20.9044 2.66865 20.4797 2.71062 20.0938 2.87111C19.7079 3.03159 19.378 3.30337 19.146 3.65206C18.9139 4.00076 18.79 4.4107 18.79 4.83007C18.79 5.39243 19.0126 5.93177 19.4086 6.32942C19.8047 6.72707 20.3419 6.95044 20.902 6.95044Z" fill="url(#paint2_linear)"/>
<path fill-rule="evenodd" clip-rule="evenodd" d="M21.5867 2.61658C21.5477 2.39268 21.5833 2.16214 21.6879 1.96056C21.7925 1.75899 21.9603 1.59759 22.1654 1.50131C22.3329 1.35937 22.4621 1.17736 22.5411 0.972063C22.6201 0.766771 22.6463 0.544805 22.6173 0.32666C22.5366 0.571868 22.407 0.798002 22.2363 0.991216C22.0657 1.18443 21.8575 1.34068 21.6247 1.45042C21.4292 1.56296 21.2682 1.72733 21.1594 1.92552C21.0507 2.12371 20.9983 2.34811 21.008 2.57418L21.5867 2.61658Z" fill="url(#paint3_linear)"/>
<path fill-rule="evenodd" clip-rule="evenodd" d="M22.1441 2.84973C22.1649 2.62453 22.2588 2.41243 22.4115 2.24613C22.5641 2.07983 22.7671 1.96856 22.9889 1.9295C23.1875 1.83483 23.3592 1.69167 23.4883 1.51312C23.6175 1.33456 23.6999 1.12631 23.7281 0.907471C23.5866 1.12891 23.4009 1.31857 23.1829 1.46453C22.9648 1.61049 22.719 1.70959 22.4609 1.75562C22.2434 1.81344 22.0459 1.93031 21.8902 2.09339C21.7345 2.25647 21.6265 2.45948 21.5781 2.68012L22.1441 2.84973Z" fill="url(#paint4_linear)"/>
<path fill-rule="evenodd" clip-rule="evenodd" d="M22.6131 3.23987C22.6917 3.02752 22.8377 2.84697 23.0284 2.72593C23.2192 2.6049 23.4443 2.55007 23.6691 2.56986C23.885 2.53068 24.0876 2.43747 24.2582 2.29886C24.4287 2.16026 24.5617 1.98072 24.6448 1.77686C24.4534 1.94956 24.2286 2.08083 23.9844 2.16254C23.7402 2.24425 23.4819 2.27465 23.2255 2.25181C23.0006 2.25205 22.78 2.31425 22.5879 2.43164C22.3957 2.54904 22.2393 2.71714 22.1357 2.9176L22.6131 3.23987Z" fill="url(#paint5_linear)"/>
<path fill-rule="evenodd" clip-rule="evenodd" d="M22.9681 3.74023C23.0982 3.5553 23.2854 3.41854 23.5007 3.35109C23.716 3.28365 23.9474 3.28927 24.1592 3.36709C24.3782 3.38482 24.5981 3.34714 24.7988 3.25751C24.9995 3.16788 25.1747 3.02914 25.3082 2.854C25.0783 2.97094 24.827 3.03918 24.5697 3.0545C24.3125 3.06982 24.0549 3.0319 23.8129 2.94306C23.5954 2.88478 23.3661 2.88758 23.1501 2.95113C22.9341 3.01469 22.7396 3.13656 22.5879 3.30347L22.9681 3.74023Z" fill="url(#paint6_linear)"/>
<path fill-rule="evenodd" clip-rule="evenodd" d="M23.1835 4.31264C23.3563 4.16734 23.572 4.08322 23.7972 4.07326C24.0224 4.06329 24.2446 4.12803 24.4296 4.25751C24.6362 4.33257 24.8583 4.35404 25.0754 4.31994C25.2925 4.28584 25.4975 4.19725 25.6714 4.06241C25.4196 4.11513 25.1596 4.11561 24.9076 4.06384C24.6555 4.01206 24.4167 3.90912 24.2057 3.76132C24.0121 3.64959 23.7918 3.59293 23.5686 3.59741C23.3453 3.6019 23.1275 3.66735 22.9385 3.78676L23.1835 4.31264Z" fill="url(#paint7_linear)"/>
<path fill-rule="evenodd" clip-rule="evenodd" d="M23.2423 4.92754C23.4466 4.83181 23.6765 4.80652 23.8966 4.85561C24.1166 4.90469 24.3142 5.0254 24.4589 5.19895C24.6415 5.32735 24.8537 5.4068 25.0754 5.4298C25.2972 5.45281 25.5211 5.41861 25.726 5.33041C25.4691 5.3167 25.2176 5.25014 24.9873 5.13489C24.757 5.01963 24.5527 4.85813 24.387 4.66037C24.2285 4.50037 24.0292 4.38724 23.8109 4.33338C23.5926 4.27953 23.3638 4.28701 23.1494 4.35502L23.2423 4.92754Z" fill="url(#paint8_linear)"/>
<path fill-rule="evenodd" clip-rule="evenodd" d="M23.1406 5.52995C23.363 5.49185 23.5917 5.52805 23.7916 5.633C23.9915 5.73795 24.1516 5.90585 24.2473 6.11094C24.3892 6.27853 24.5706 6.40783 24.7749 6.48709C24.9793 6.56634 25.2001 6.59302 25.4174 6.56471C25.1746 6.48564 24.9503 6.35808 24.758 6.18973C24.5656 6.02138 24.4091 5.81571 24.298 5.58509C24.1866 5.3891 24.0236 5.22769 23.8269 5.11848C23.6302 5.00927 23.4074 4.95648 23.1829 4.96592L23.1406 5.52995Z" fill="url(#paint9_linear)"/>
<path fill-rule="evenodd" clip-rule="evenodd" d="M22.8877 6.08973C23.1125 6.11033 23.3244 6.20447 23.4907 6.35769C23.6571 6.51091 23.7688 6.71474 23.8085 6.93784C23.9021 7.13683 24.044 7.30905 24.2211 7.43871C24.3982 7.56837 24.6049 7.65131 24.8223 7.67993C24.6044 7.53704 24.4187 7.3501 24.2768 7.13105C24.135 6.912 24.0402 6.66566 23.9986 6.40777C23.9397 6.19003 23.8229 5.99248 23.6607 5.83634C23.4985 5.6802 23.2969 5.57136 23.0778 5.52148L22.8877 6.08973Z" fill="url(#paint10_linear)"/>
<path fill-rule="evenodd" clip-rule="evenodd" d="M22.499 6.56025C22.7112 6.63851 22.8918 6.78471 23.0131 6.97629C23.1344 7.16788 23.1896 7.39421 23.1702 7.62042C23.2088 7.83675 23.3009 8.03986 23.4381 8.21104C23.5753 8.38222 23.7532 8.51597 23.9553 8.60001C23.7842 8.40725 23.6541 8.18148 23.5728 7.9365C23.4915 7.69151 23.4608 7.43247 23.4825 7.17515C23.4836 6.94957 23.4228 6.72806 23.3066 6.53502C23.1904 6.34197 23.0234 6.18487 22.8241 6.08105L22.499 6.56025Z" fill="url(#paint11_linear)"/>
<path fill-rule="evenodd" clip-rule="evenodd" d="M22 6.91662C22.1916 7.04508 22.3348 7.23438 22.4068 7.45424C22.4787 7.6741 22.4752 7.91183 22.3968 8.12945C22.3779 8.34899 22.4144 8.56978 22.5029 8.7714C22.5914 8.97301 22.7292 9.14893 22.9033 9.28289C22.7882 9.05247 22.721 8.80095 22.7058 8.5436C22.6905 8.28625 22.7276 8.02846 22.8147 7.78595C22.8727 7.56797 22.8704 7.33818 22.8079 7.12144C22.7454 6.90469 22.6251 6.70923 22.4601 6.55615L22 6.91662Z" fill="url(#paint12_linear)"/>
<path fill-rule="evenodd" clip-rule="evenodd" d="M21.43 7.13297C21.5791 7.30867 21.6652 7.52958 21.6743 7.76027C21.6835 7.99096 21.6153 8.21806 21.4807 8.40517C21.4073 8.61307 21.3871 8.83611 21.4217 9.05392C21.4564 9.27173 21.5449 9.47735 21.6791 9.65192C21.6253 9.39914 21.6242 9.13791 21.6758 8.88468C21.7274 8.63144 21.8305 8.39166 21.9788 8.1804C22.0889 7.98551 22.1443 7.76423 22.1391 7.54019C22.1339 7.31614 22.0683 7.09772 21.9492 6.9082L21.43 7.13297Z" fill="url(#paint13_linear)"/>
<path fill-rule="evenodd" clip-rule="evenodd" d="M20.8218 7.19206C20.916 7.39799 20.9406 7.62922 20.8918 7.85048C20.843 8.07173 20.7236 8.2709 20.5517 8.41762C20.4221 8.60006 20.3415 8.81304 20.3179 9.03591C20.2942 9.25879 20.3282 9.48402 20.4166 9.68982C20.4315 9.43166 20.4987 9.17927 20.6142 8.94812C20.7296 8.71697 20.8907 8.51192 21.0878 8.34554C21.2462 8.18586 21.3583 7.98574 21.4118 7.76677C21.4654 7.5478 21.4584 7.31831 21.3917 7.10303L20.8218 7.19206Z" fill="url(#paint14_linear)"/>
<path fill-rule="evenodd" clip-rule="evenodd" d="M20.2182 7.09033C20.2569 7.31365 20.2212 7.54355 20.1166 7.74441C20.012 7.94528 19.8443 8.10589 19.6396 8.20142C19.4724 8.34447 19.3438 8.52742 19.2656 8.73343C19.1874 8.93945 19.162 9.16193 19.1918 9.38037C19.2712 9.13446 19.4003 8.90768 19.5711 8.71428C19.7419 8.52088 19.9508 8.36503 20.1844 8.25655C20.3786 8.14274 20.5381 7.978 20.6461 7.78C20.754 7.58201 20.8061 7.35826 20.7969 7.13276L20.2182 7.09033Z" fill="url(#paint15_linear)"/>
<path fill-rule="evenodd" clip-rule="evenodd" d="M19.6651 6.85693C19.6439 7.08241 19.5498 7.29476 19.3973 7.46165C19.2448 7.62853 19.0422 7.74081 18.8203 7.78141C18.6216 7.87474 18.4496 8.01698 18.3204 8.19492C18.1911 8.37286 18.1088 8.58074 18.0811 8.79919C18.2242 8.58117 18.4106 8.39517 18.6287 8.25287C18.8467 8.11057 19.0917 8.01503 19.3483 7.97225C19.5658 7.91443 19.7633 7.79758 19.919 7.6345C20.0747 7.47141 20.1827 7.26841 20.2311 7.04777L19.6651 6.85693Z" fill="url(#paint16_linear)"/>
<path fill-rule="evenodd" clip-rule="evenodd" d="M19.1919 6.43311C19.1142 6.64547 18.9692 6.82639 18.7792 6.94816C18.5893 7.06993 18.3648 7.12586 18.1401 7.10733C17.9236 7.14622 17.7203 7.23925 17.549 7.37784C17.3777 7.51642 17.244 7.6961 17.1602 7.90027C17.3516 7.72758 17.5764 7.5963 17.8206 7.51459C18.0647 7.43289 18.3231 7.40252 18.5794 7.42535C18.8049 7.42495 19.026 7.3627 19.2188 7.24538C19.4116 7.12805 19.5688 6.9601 19.6735 6.75962L19.1919 6.43311Z" fill="url(#paint17_linear)"/>
<path fill-rule="evenodd" clip-rule="evenodd" d="M18.8372 5.94971C18.707 6.13465 18.5199 6.27142 18.3045 6.33887C18.0892 6.40632 17.8578 6.4007 17.646 6.32287C17.4231 6.30573 17.1996 6.3458 16.9964 6.43926C16.7932 6.53273 16.617 6.67654 16.4844 6.85718C16.7142 6.74023 16.9656 6.67199 17.2228 6.65667C17.48 6.64135 17.7377 6.67927 17.9797 6.76812C18.1972 6.8264 18.4264 6.8236 18.6424 6.76004C18.8584 6.69648 19.0529 6.57461 19.2047 6.40769L18.8372 5.94971Z" fill="url(#paint18_linear)"/>
<path fill-rule="evenodd" clip-rule="evenodd" d="M18.6208 5.3729C18.4479 5.51818 18.2322 5.60229 18.007 5.61225C17.7818 5.62222 17.5596 5.55748 17.3747 5.42803C17.168 5.35298 16.9459 5.33151 16.7288 5.3656C16.5117 5.3997 16.3067 5.48827 16.1328 5.6231C16.3847 5.57039 16.6446 5.5699 16.8966 5.62167C17.1487 5.67345 17.3876 5.77637 17.5985 5.92415C17.7927 6.03478 18.0131 6.09046 18.2362 6.08523C18.4594 6.08001 18.677 6.01406 18.8658 5.89446L18.6208 5.3729Z" fill="url(#paint19_linear)"/>
<path fill-rule="evenodd" clip-rule="evenodd" d="M18.5619 4.76217C18.3576 4.85789 18.1276 4.88318 17.9076 4.8341C17.6876 4.78501 17.4899 4.66431 17.3453 4.49076C17.1628 4.36242 16.9508 4.28266 16.7291 4.25893C16.5075 4.2352 16.2835 4.26826 16.0781 4.35506C16.3353 4.37004 16.5867 4.43759 16.8169 4.55353C17.0472 4.66947 17.2514 4.83137 17.4171 5.02933C17.5768 5.18889 17.7769 5.30165 17.9958 5.35545C18.2146 5.40926 18.4439 5.40206 18.659 5.33464L18.5619 4.76217Z" fill="url(#paint20_linear)"/>
<path fill-rule="evenodd" clip-rule="evenodd" d="M18.6635 4.16021C18.4411 4.19831 18.2124 4.16212 18.0125 4.05718C17.8126 3.95224 17.6525 3.78435 17.5568 3.57927C17.4157 3.41078 17.2344 3.28083 17.0298 3.20151C16.8253 3.12218 16.604 3.09605 16.3867 3.12554C16.6314 3.20565 16.8571 3.33545 17.0497 3.50688C17.2423 3.67832 17.3976 3.88772 17.5061 4.12204C17.6188 4.31755 17.7827 4.4783 17.9801 4.58672C18.1775 4.69514 18.4007 4.74708 18.6255 4.73691L18.6635 4.16021Z" fill="url(#paint21_linear)"/>
<path fill-rule="evenodd" clip-rule="evenodd" d="M18.9171 3.60031C18.6925 3.58021 18.4808 3.48612 18.3151 3.33272C18.1493 3.17933 18.0387 2.97522 18.0004 2.75215C17.9061 2.55282 17.7635 2.38044 17.5857 2.25078C17.4078 2.12112 17.2004 2.03834 16.9824 2.01001C17.1979 2.15057 17.3823 2.33419 17.524 2.54943C17.6657 2.76467 17.7618 3.00692 17.8061 3.26105C17.8651 3.47991 17.9824 3.67847 18.1454 3.83539C18.3084 3.99231 18.5109 4.10164 18.7312 4.15161L18.9171 3.60031Z" fill="url(#paint22_linear)"/>
<path fill-rule="evenodd" clip-rule="evenodd" d="M19.3059 3.1252C19.0943 3.04762 18.9142 2.90202 18.7935 2.71108C18.6728 2.52013 18.6183 2.29452 18.6385 2.06928C18.5987 1.85231 18.5056 1.64871 18.3677 1.47693C18.2298 1.30515 18.0514 1.17061 17.8486 1.08545C18.0198 1.2782 18.15 1.50397 18.2314 1.74896C18.3127 1.99394 18.3435 2.25299 18.3217 2.5103C18.3217 2.73622 18.3831 2.95787 18.4992 3.1514C18.6153 3.34492 18.7817 3.50301 18.9807 3.60864L19.3059 3.1252Z" fill="url(#paint23_linear)"/>
<path fill-rule="evenodd" clip-rule="evenodd" d="M19.8031 2.76924C19.6183 2.63918 19.4813 2.45152 19.4134 2.23532C19.3454 2.01913 19.3504 1.78646 19.4274 1.57337C19.4464 1.35383 19.4099 1.13304 19.3213 0.93142C19.2328 0.729805 19.0951 0.553887 18.9209 0.419922C19.0373 0.650679 19.1053 0.903014 19.1205 1.16126C19.1357 1.41951 19.098 1.67814 19.0096 1.92111C18.9515 2.13909 18.9538 2.36888 19.0163 2.58562C19.0788 2.80237 19.1991 2.99783 19.3641 3.15091L19.8031 2.76924Z" fill="url(#paint24_linear)"/>
<path fill-rule="evenodd" clip-rule="evenodd" d="M20.3735 2.55719C20.2251 2.38115 20.1395 2.16034 20.1303 1.92984C20.1212 1.69934 20.1889 1.47237 20.3228 1.28499C20.3964 1.07808 20.4172 0.855956 20.3833 0.638901C20.3493 0.421846 20.2618 0.216788 20.1287 0.0424805C20.1813 0.294637 20.1819 0.554966 20.1303 0.807347C20.0788 1.05973 19.9762 1.2988 19.829 1.50976C19.7187 1.70442 19.6628 1.9254 19.6672 2.14935C19.6717 2.3733 19.7363 2.59189 19.8543 2.78196L20.3735 2.55719Z" fill="url(#paint25_linear)"/>
<path fill-rule="evenodd" clip-rule="evenodd" d="M20.9827 2.49773C20.889 2.29137 20.8651 2.05988 20.9147 1.83859C20.9642 1.6173 21.0845 1.41839 21.2571 1.2722C21.3856 1.08921 21.4652 0.876076 21.4881 0.653285C21.511 0.430495 21.4765 0.205532 21.3879 0C21.3732 0.259075 21.3052 0.512276 21.1883 0.743643C21.0713 0.975009 20.9079 1.17952 20.7083 1.34428C20.5491 1.50436 20.4366 1.70521 20.383 1.92502C20.3295 2.14482 20.3369 2.37516 20.4044 2.59104L20.9827 2.49773Z" fill="url(#paint26_linear)"/>
<path fill-rule="evenodd" clip-rule="evenodd" d="M18.7061 23.209C18.6865 23.2113 18.6666 23.2113 18.647 23.209C18.6047 23.2895 18.4907 23.2895 18.402 23.2768H18.2837C18.2584 23.2781 18.2338 23.2854 18.2119 23.298C18.3048 23.298 18.44 23.4931 18.3133 23.4931C18.2839 23.4979 18.2539 23.4979 18.2246 23.4931C18.2541 23.5312 18.2879 23.5609 18.2246 23.5991C18.1372 23.5673 18.0416 23.5673 17.9542 23.5991C17.9162 23.5991 17.8571 23.6373 17.8486 23.6839H17.8824C17.8824 23.7518 17.743 23.8281 17.8317 24.108C17.836 24.1261 17.836 24.145 17.8317 24.1631C17.7635 24.1876 17.7074 24.2378 17.6754 24.3031L17.629 24.4048C17.5994 24.4727 17.5867 24.46 17.5656 24.4939C17.6374 24.4939 17.5952 24.5957 17.5656 24.6211C17.5491 24.6421 17.5349 24.6648 17.5234 24.6889C17.4854 24.7695 17.5234 24.9052 17.4938 24.9943C17.4642 25.0833 17.4642 25.0536 17.46 25.0706C17.5403 25.024 17.5529 25.0706 17.5529 25.1681C17.5475 25.216 17.5475 25.2644 17.5529 25.3123L17.4473 25.342C17.1838 25.395 16.9125 25.395 16.649 25.342L16.3913 25.3038C16.2477 25.3038 16.1126 25.2572 15.9689 25.2402H15.7915H15.6986C15.5793 25.2271 15.4589 25.2271 15.3396 25.2402H15.2255C15.1722 25.2493 15.1198 25.2635 15.0692 25.2826C15.0184 25.2966 14.9689 25.315 14.9214 25.3378C14.8752 25.3564 14.83 25.3776 14.7862 25.4014L14.4694 25.6219L14.4314 25.6516L14.1948 25.8848C14.1442 25.9357 14.0555 26.0417 14.0048 26.0926C13.9541 26.1435 13.8569 26.258 13.7809 26.3343L13.7133 26.4022C13.644 26.4689 13.5707 26.5312 13.4937 26.5888C13.4297 26.6378 13.3602 26.679 13.2867 26.7117C13.2035 26.7455 13.1172 26.7711 13.029 26.7881C12.9636 26.8075 12.8944 26.8107 12.8275 26.7974C12.7605 26.7841 12.6978 26.7547 12.6446 26.7117C12.5179 26.5718 12.6108 26.3682 12.7164 26.2495L12.7502 26.2156C12.8109 26.1554 12.8808 26.1053 12.9572 26.0672H13.0037C13.1938 25.9781 13.1684 26.0035 13.3712 26.0672C13.4447 26.0948 13.5257 26.0948 13.5993 26.0672H13.6457L13.6837 26.0332C13.7068 26.0075 13.7267 25.979 13.7429 25.9484C13.771 25.9081 13.8052 25.8723 13.8443 25.8424C13.8588 25.8335 13.8717 25.822 13.8823 25.8085H13.8485H13.8062C13.8062 25.8085 13.8062 25.8085 13.8062 25.7703C13.8062 25.7321 13.8654 25.6982 13.8907 25.6601L13.8443 25.6813C13.6795 25.7406 13.519 25.5583 13.2825 25.7237C13.1769 25.7958 13.1726 25.9018 13.0881 25.923C12.9886 25.949 12.8923 25.9859 12.8009 26.0332C12.6883 26.0876 12.5867 26.1624 12.501 26.2537L12.4461 26.3258C12.429 26.3532 12.4135 26.3815 12.3996 26.4106C12.3662 26.4735 12.3475 26.5431 12.3447 26.6142V26.6821C12.3483 26.7444 12.3656 26.8053 12.3954 26.8602C12.447 26.9397 12.5178 27.0048 12.6013 27.0493C12.6848 27.0938 12.7782 27.1163 12.8727 27.1146C13.0003 27.118 13.1274 27.0994 13.2487 27.0595L13.3416 27.0298C13.4381 26.9939 13.5325 26.9529 13.6246 26.9068L13.6668 26.8856C13.7686 26.8333 13.8673 26.7753 13.9625 26.7117C14.0428 26.6524 14.1273 26.5972 14.2033 26.5379C14.2793 26.4785 14.2244 26.5379 14.2455 26.5379C14.2299 26.5903 14.2102 26.6413 14.1864 26.6905C14.1322 26.8375 14.0926 26.9895 14.0681 27.1443C14.066 27.1669 14.066 27.1896 14.0681 27.2121C14.0753 27.3725 14.0654 27.5331 14.0386 27.6913L14.009 27.755C13.9738 27.8164 13.9428 27.8801 13.9161 27.9458C13.8907 28.0136 13.8907 28.1027 13.8612 28.179C13.8443 28.221 13.8147 28.2566 13.7767 28.2808C13.7454 28.2971 13.7184 28.3205 13.6978 28.3493C13.6773 28.378 13.6637 28.4112 13.6584 28.4462C13.6374 28.6338 13.6021 28.8195 13.5528 29.0017C13.5528 29.0271 13.5528 29.0441 13.5274 29.0738C13.5069 29.1845 13.4928 29.2964 13.4852 29.4088C13.4793 29.5404 13.4493 29.6698 13.3965 29.7905C13.3374 29.9092 13.3965 29.9219 13.4303 30.0322C13.4641 30.1424 13.4303 30.1552 13.4641 30.2103C13.4937 30.3333 13.6499 30.4478 13.7724 30.3757C13.7978 30.3757 13.802 30.3375 13.8358 30.3375C13.9372 30.3375 13.9879 30.3587 14.047 30.2993C14.1061 30.24 14.1399 30.2654 14.1737 30.2315C14.2075 30.1976 14.1737 30.1424 14.1737 30.1043C14.1061 29.905 14.0005 30.011 13.878 29.9092C13.7555 29.8074 13.8189 29.7184 13.8485 29.6123C13.878 29.5063 13.9625 29.3367 13.9921 29.2264C14.0217 29.1162 14.0259 29.0738 14.0512 28.9678C14.0533 28.9406 14.062 28.9144 14.0766 28.8914C14.1261 28.8312 14.19 28.7845 14.2624 28.7557L14.3976 28.6794C14.4822 28.6263 14.5627 28.5667 14.6384 28.5013L14.6637 28.4801C14.7128 28.4407 14.7581 28.3967 14.7989 28.3486L14.8242 28.3189C14.9186 28.1838 15.0032 28.042 15.0777 27.8949C15.1453 27.8016 15.2044 27.7253 15.2382 27.8694C15.2654 27.9958 15.2536 28.1274 15.2044 28.2469C15.1614 28.3503 15.1046 28.4473 15.0354 28.5352L15.0059 28.5734C14.9383 28.6752 14.8242 28.7345 14.9214 28.8787L14.9509 28.9169C15.0189 28.9961 15.0797 29.0812 15.1326 29.1713C15.2149 29.3064 15.2856 29.4482 15.3438 29.5954L15.3987 29.7565C15.4325 29.8753 15.517 29.8329 15.5465 29.8965C15.5799 29.9554 15.6309 30.0023 15.6923 30.0305C15.7537 30.0587 15.8225 30.0667 15.8887 30.0534C15.9112 30.0514 15.9338 30.0514 15.9563 30.0534C16.0238 30.0534 16.121 30.0873 16.1801 30.0534C16.2393 30.0195 16.2688 30.0534 16.3195 30.011C16.3702 29.9686 16.3449 29.8965 16.3195 29.8625C16.235 29.7268 16.2435 29.7523 16.1295 29.7523C16.0522 29.7557 15.9755 29.7377 15.9077 29.7003C15.8399 29.6629 15.7837 29.6075 15.7451 29.5403L15.7239 29.5106L15.6901 29.4512C15.667 29.4105 15.6472 29.368 15.631 29.324C15.593 29.2392 15.5634 29.1416 15.5296 29.0526C15.5059 29.0087 15.4888 28.9616 15.4789 28.9126C15.4789 28.8533 15.5423 28.8151 15.5761 28.7812L15.6901 28.6709L15.7493 28.6158C15.8033 28.5624 15.8541 28.5057 15.9013 28.4462C15.9721 28.3608 16.0318 28.2668 16.0788 28.1663C16.1029 28.1114 16.1226 28.0547 16.1379 27.9966C16.1379 27.95 16.159 27.8525 16.2224 27.8525C16.2535 27.8539 16.2839 27.8626 16.3111 27.8779L16.3913 27.9076C16.5165 27.947 16.6453 27.974 16.7757 27.9882H16.9912C16.9926 28.0528 17.0116 28.1159 17.0461 28.1705C17.076 28.2188 17.1084 28.2655 17.1432 28.3105C17.171 28.3445 17.1951 28.3815 17.215 28.4207C17.2546 28.4932 17.2722 28.5758 17.2657 28.6582L17.3586 28.6073C17.4093 28.6412 17.3924 28.6455 17.4642 28.6624C17.4844 28.6643 17.5039 28.6706 17.5215 28.6809C17.539 28.6911 17.554 28.7051 17.5656 28.7218C17.5922 28.7493 17.622 28.7735 17.6543 28.7939C17.7177 28.8405 17.7937 28.8745 17.8571 28.9169L17.9035 28.9508L17.9965 29.0229C18.0399 29.0634 18.0719 29.1145 18.0894 29.1713L18.0598 29.2095C18.054 29.225 18.0454 29.2394 18.0345 29.2519C18.0091 29.2773 17.9585 29.2519 17.9162 29.2519C17.874 29.2519 17.7979 29.2858 17.7472 29.2519C17.7173 29.2408 17.6852 29.2366 17.6534 29.2397C17.6216 29.2428 17.591 29.2532 17.5637 29.2699C17.5365 29.2866 17.5134 29.3094 17.4961 29.3363C17.4789 29.3633 17.468 29.3939 17.4642 29.4257C17.4642 29.5996 17.591 29.5954 17.6923 29.6123C17.7937 29.6293 17.8064 29.7184 17.9753 29.7184C18.1443 29.7184 18.1612 29.6675 18.2668 29.6675C18.3616 29.6681 18.4538 29.6368 18.5287 29.5784C18.6427 29.4979 18.6554 29.3918 18.6765 29.3791C18.6977 29.3664 18.7441 29.4342 18.7568 29.4639L18.8117 29.5869C18.8455 29.6717 18.8793 29.7481 18.9089 29.8371L18.9469 29.9686C19.0018 30.0958 19.1032 30.1128 19.1539 30.24V30.2697C19.1817 30.3066 19.2183 30.336 19.2604 30.3553C19.3024 30.3745 19.3485 30.383 19.3946 30.3799H19.4791C19.528 30.3758 19.5762 30.3658 19.6227 30.3502C19.6945 30.3248 19.7917 30.3926 19.8973 30.3163C19.9353 30.2866 19.9437 30.2315 19.9775 30.2315C20.0113 30.2315 20.0156 30.2315 20.0367 30.2315C20.0454 30.2251 20.0526 30.2169 20.0577 30.2073C20.0628 30.1978 20.0658 30.1872 20.0662 30.1764C20.0662 30.1212 19.9606 30.0279 19.9142 29.9898C19.9044 29.9776 19.8922 29.9675 19.8784 29.9602C19.8646 29.9529 19.8495 29.9485 19.8339 29.9474C19.7156 29.9474 19.5932 30.0067 19.5002 29.9474C19.4207 29.9108 19.3544 29.8504 19.3105 29.7745C19.2666 29.6985 19.2473 29.6108 19.2552 29.5233C19.2552 29.4767 19.2552 29.4427 19.2552 29.3918C19.2525 29.2333 19.2326 29.0754 19.1961 28.9211L19.1158 28.5988C19.1222 28.5655 19.1351 28.5338 19.1539 28.5055C19.2157 28.386 19.2666 28.2611 19.3059 28.1324C19.3059 28.0645 19.3482 28.0009 19.3608 27.9288L19.4073 27.6489C19.4052 27.6278 19.4052 27.6065 19.4073 27.5853C19.4251 27.5215 19.4536 27.4613 19.4918 27.4072C19.5763 27.2503 19.5382 27.1231 19.5805 27.1019H19.6227H19.6692C19.6738 27.114 19.6812 27.1249 19.6907 27.1338C19.7002 27.1426 19.7117 27.1491 19.7241 27.1528C19.7192 27.1182 19.7223 27.083 19.7333 27.0499C19.7443 27.0167 19.7629 26.9866 19.7875 26.9619C19.8654 26.8927 19.92 26.8008 19.9437 26.699C19.9437 26.6608 19.9437 26.6736 19.9818 26.6609L20.0282 26.6354L20.0747 26.6015C20.159 26.5295 20.2243 26.4377 20.2648 26.3343C20.2648 26.3046 20.2648 26.3343 20.2986 26.2962C20.3701 26.232 20.4178 26.1452 20.4337 26.0502C20.4449 26.0071 20.4519 25.9631 20.4548 25.9187C20.4548 25.8721 20.4549 25.8254 20.476 25.783C20.4971 25.7406 20.5013 25.6601 20.5689 25.6473C20.5898 25.6432 20.6113 25.6432 20.6323 25.6473C20.6323 25.5583 20.4548 25.5625 20.4548 25.4692C20.4548 25.3759 20.4844 25.3463 20.4886 25.3166C20.53 25.1299 20.5153 24.9351 20.4464 24.7568C20.4005 24.6754 20.365 24.5885 20.3408 24.4981C20.3408 24.4769 20.3408 24.4599 20.3704 24.443C20.1381 24.443 20.2732 24.337 20.1592 24.0189C20.1334 23.9443 20.0928 23.8757 20.0398 23.8174C19.9868 23.7591 19.9225 23.7122 19.8508 23.6797L19.741 23.633C19.6945 23.6076 19.6058 23.5652 19.5931 23.51C19.5805 23.4549 19.5931 23.51 19.5594 23.5355C19.5497 23.5382 19.5395 23.5382 19.5298 23.5355C19.4706 23.5355 19.4326 23.4803 19.4031 23.4379L19.3144 23.3023C19.2853 23.2575 19.248 23.2186 19.2045 23.1878C19.1831 23.1684 19.1568 23.1552 19.1285 23.1496C19.1285 23.2047 19.1285 23.1878 19.1285 23.2217C19.1285 23.2556 19.0229 23.1411 18.9215 23.1411H18.8413C18.8413 23.1581 18.7779 23.209 18.7061 23.209Z" fill="#BC992E"/>
<path fill-rule="evenodd" clip-rule="evenodd" d="M16.8052 27.4878C16.8855 27.5302 16.9235 27.403 16.9658 27.4411C17.008 27.4793 16.877 27.5514 17.0545 27.5514C17.0291 27.5514 16.8939 27.5938 16.9024 27.492C16.8615 27.5055 16.8187 27.5127 16.7757 27.5132C16.7165 27.5132 16.7165 27.4751 16.725 27.4242C16.6263 27.4537 16.5238 27.468 16.4209 27.4666C16.2984 27.4666 16.3026 27.3351 16.2308 27.3054C16.159 27.2757 16.0534 27.386 16.0449 27.4708C16.0448 27.5166 16.0574 27.5614 16.0813 27.6004C16.1051 27.6393 16.1394 27.6708 16.1801 27.6913C16.3308 27.7982 16.5044 27.868 16.687 27.8949C16.7812 27.9091 16.8774 27.8999 16.9672 27.8681C17.0571 27.8363 17.1378 27.7829 17.2023 27.7125C17.6247 27.2376 17.1051 26.2792 17.6247 25.6601C17.6552 25.6312 17.6835 25.6 17.7092 25.5668C17.7124 25.5555 17.7117 25.5433 17.7071 25.5325C17.7025 25.5217 17.6942 25.5128 17.6838 25.5074C17.6575 25.5009 17.6299 25.5009 17.6036 25.5074C17.6036 25.4862 17.6289 25.4862 17.6289 25.4565C17.6308 25.4283 17.6308 25.3999 17.6289 25.3717C17.5138 25.4015 17.3966 25.4228 17.2783 25.4353C17.0261 25.444 16.7737 25.4226 16.5265 25.3717C16.4072 25.3435 16.2856 25.3264 16.1632 25.3208C15.7028 25.3208 15.5042 25.9399 16.0618 26.1944C16.1463 26.2325 16.2899 26.2835 16.2941 26.3767C16.2983 26.47 16.0576 26.6184 15.9647 26.6693C15.9184 26.6917 15.8746 26.7187 15.8337 26.7499C15.783 26.7923 15.6816 26.9323 15.7577 27.0298C15.8337 27.1273 16.1801 27.0722 16.3026 27.3139C16.3364 27.3733 16.3364 27.403 16.3871 27.4369C16.4377 27.4708 16.6278 27.4369 16.725 27.403C16.8221 27.3691 16.7926 27.4327 16.8052 27.4878Z" fill="#BC992E"/>
<path fill-rule="evenodd" clip-rule="evenodd" d="M17.405 28.3234C17.3608 28.2691 17.3239 28.2092 17.2952 28.1453C17.2725 28.113 17.2603 28.0745 17.2603 28.035C17.2603 27.9955 17.2725 27.957 17.2952 27.9248C17.329 27.8866 17.4346 27.8145 17.4726 27.9248C17.4814 28.0058 17.4998 28.0856 17.5275 28.1622C17.5856 28.2878 17.6625 28.4036 17.7556 28.5057L17.8232 28.5778C17.9119 28.6838 18.0724 28.8407 18.1696 28.951L18.3048 29.1037C18.3766 29.1885 18.2456 29.1885 18.2118 29.2521C18.178 29.3157 18.1189 29.3623 18.0344 29.3411C17.95 29.3199 17.9373 29.4047 17.8063 29.3411C17.7902 29.33 17.771 29.324 17.7514 29.324C17.7318 29.324 17.7127 29.33 17.6965 29.3411C17.6653 29.3579 17.638 29.381 17.6162 29.409C17.6036 29.4226 17.5943 29.4389 17.5889 29.4567C17.5834 29.4744 17.5821 29.4932 17.585 29.5116C17.5878 29.53 17.5947 29.5474 17.6053 29.5627C17.6158 29.578 17.6297 29.5907 17.6458 29.5998C17.7261 29.6464 17.7345 29.5998 17.8697 29.6676C18.0851 29.7906 18.1105 29.6676 18.3132 29.6676C18.4357 29.6676 18.4526 29.6676 18.5413 29.6125C18.5992 29.5672 18.6453 29.5083 18.6755 29.4411C18.7056 29.3738 18.719 29.3002 18.7145 29.2266C18.6258 28.6499 17.9837 28.1071 18.0893 27.8696C18.1673 27.7576 18.2596 27.6563 18.3639 27.5686C18.4696 27.4669 18.5418 27.3352 18.5709 27.1911C18.5135 27.1798 18.4591 27.1566 18.4111 27.123C18.3631 27.0894 18.3226 27.0462 18.2921 26.9961C18.2203 26.8561 18.271 26.7204 18.1147 26.6992C18.1485 26.678 18.1738 26.6611 18.1569 26.6059C18.1147 26.466 17.8275 26.5042 17.8486 26.1819C17.8486 26.1437 17.8486 26.0801 17.819 26.0716C17.7786 26.0753 17.7395 26.0884 17.705 26.1098C17.7158 26.0736 17.7243 26.0368 17.7303 25.9995C17.744 25.8794 17.731 25.7578 17.6923 25.6433C17.6251 25.694 17.5703 25.7592 17.5318 25.8341C17.4382 26.0085 17.3916 26.2044 17.3966 26.4024C17.3966 26.5211 17.4177 26.6271 17.4219 26.7374C17.4219 27.0258 17.536 27.3862 17.3713 27.6576C17.3232 27.7274 17.2614 27.7866 17.1896 27.8315H17.2488L17.2192 27.8612C17.1939 27.8851 17.1738 27.9139 17.1601 27.946C17.1344 27.9935 17.1172 28.0452 17.1094 28.0986C17.1305 28.0986 17.1347 28.0986 17.1601 28.0986C17.1601 28.3573 17.3586 28.4124 17.3882 28.6542C17.3882 28.6542 17.4262 28.5651 17.46 28.6287C17.4938 28.6923 17.498 28.6923 17.5529 28.6881C17.5656 28.5439 17.4262 28.3743 17.405 28.3234Z" fill="#BC992E"/>
<path fill-rule="evenodd" clip-rule="evenodd" d="M13.1932 26.0081H13.1679L13.1974 25.9869C13.1467 25.9869 12.9736 26.0378 12.9313 26.059C12.8089 26.1008 12.6991 26.1734 12.6126 26.2699C12.5261 26.3664 12.4657 26.4836 12.4371 26.6103C12.4295 26.6982 12.4495 26.7863 12.4941 26.8623C12.5388 26.9383 12.606 26.9985 12.6863 27.0343C12.8806 27.1022 13.0919 27.1022 13.2861 27.0343C13.5051 26.9514 13.7049 26.8244 13.8733 26.6611C14.0211 26.5212 14.1774 26.3092 14.321 26.148C14.3451 26.1133 14.3751 26.0832 14.4097 26.059C14.5111 26.0166 14.5069 26.2201 14.49 26.2922C14.4224 26.5594 14.245 26.6739 14.1732 27.0258C14.1353 27.179 14.1353 27.3391 14.1732 27.4923C14.1732 27.5474 14.1985 27.5771 14.2408 27.5983C14.2853 27.6183 14.3335 27.6287 14.3823 27.6287C14.431 27.6287 14.4792 27.6183 14.5238 27.5983C14.7138 27.5008 14.7054 27.2506 14.7096 27.081C14.7096 26.6187 14.8913 26.0887 15.3939 26.0208C15.5164 26.0208 15.6051 26.0208 15.6431 25.919C15.6811 25.8173 15.6642 25.495 15.9641 25.3678C15.9979 25.3678 16.0824 25.3423 16.1035 25.3296C15.8539 25.2808 15.5971 25.2808 15.3474 25.3296C14.9373 25.4034 14.5646 25.6159 14.2914 25.9318L13.679 26.5636C13.6082 26.6313 13.5303 26.691 13.4466 26.7417C13.255 26.8728 13.0215 26.9273 12.7919 26.8944C12.5554 26.8562 12.5174 26.5975 12.6737 26.3728C12.795 26.19 12.9805 26.0597 13.1932 26.0081Z" fill="#927E2F"/>
<path fill-rule="evenodd" clip-rule="evenodd" d="M18.4562 24.2734C18.4528 24.206 18.4706 24.1393 18.5069 24.0826C18.5365 24.0317 18.5872 23.9935 18.5999 23.9257C18.5492 23.9209 18.4982 23.9297 18.452 23.9511C18.3795 23.993 18.3152 24.0475 18.2619 24.1123C18.1986 24.1716 18.2324 24.1886 18.2619 24.2268C18.2087 24.2255 18.1571 24.2453 18.1183 24.2819C18.0212 24.3625 17.9536 24.6678 18.093 24.706L18.169 24.5745C18.1798 24.5611 18.1897 24.5469 18.1986 24.5321C18.1756 24.5332 18.1528 24.5273 18.1332 24.5152C18.1136 24.5031 18.0981 24.4854 18.0887 24.4642C18.0811 24.4512 18.071 24.4397 18.0592 24.4303C18.0592 24.3879 18.1521 24.2904 18.2577 24.4685C18.2577 24.5151 18.0761 24.7017 18.093 24.7823C18.1141 24.7823 18.1225 24.7823 18.1606 24.7823H18.2408C18.3211 24.7823 18.3168 24.7823 18.3844 24.7823C18.409 24.7603 18.4316 24.7361 18.452 24.7102L18.6041 24.5703C18.6041 24.5703 18.6717 24.5236 18.6632 24.4897C18.6548 24.4558 18.6379 24.4897 18.6167 24.46C18.638 24.4308 18.6674 24.4084 18.7011 24.3956C18.7349 24.3828 18.7716 24.3801 18.8068 24.3879C18.8703 24.4067 18.9293 24.4385 18.98 24.4812C18.942 24.4812 18.9378 24.4812 18.904 24.4812C18.8742 24.502 18.8388 24.5131 18.8026 24.5131C18.7663 24.5131 18.731 24.502 18.7012 24.4812L18.659 24.5194C18.621 24.5533 18.452 24.6678 18.4816 24.7314C18.5112 24.795 18.6759 24.8162 18.7308 24.9561C18.7651 25.0404 18.7651 25.1348 18.7308 25.219C18.7631 25.247 18.7866 25.2839 18.7984 25.3251C18.7984 25.448 18.7055 25.5752 18.5999 25.5413C18.5661 25.5413 18.5661 25.5159 18.5449 25.5031C18.4439 25.4797 18.3402 25.4697 18.2366 25.4735C18.2151 25.4742 18.1941 25.4804 18.1756 25.4915C18.1571 25.5027 18.1418 25.5183 18.131 25.5371C18.1012 25.5747 18.0836 25.6206 18.0803 25.6685C18.0803 25.6685 18.1014 25.6685 18.1225 25.6685C18.1437 25.6685 18.2324 25.7152 18.3168 25.7661C18.3718 25.694 18.3549 25.8381 18.49 25.7957C18.5449 25.7745 18.5956 25.7279 18.6379 25.7194C18.6801 25.7109 18.6379 25.7194 18.659 25.7194C18.7065 25.6863 18.7397 25.6363 18.7519 25.5795C18.7777 25.4628 18.8329 25.3547 18.9124 25.2657C18.9306 25.2441 18.9519 25.2255 18.9758 25.2106C19.0476 25.1767 19.111 25.2106 19.056 25.236H19.018C18.98 25.236 18.8533 25.2784 18.904 25.3547C18.9547 25.4311 18.9462 25.4056 18.9716 25.4099C18.9969 25.4141 18.9716 25.3844 18.9716 25.3675C18.9716 25.3505 19.0265 25.4438 19.0603 25.4862C19.0687 25.4907 19.0782 25.493 19.0877 25.493C19.0973 25.493 19.1067 25.4907 19.1152 25.4862C19.1308 25.5144 19.1564 25.5356 19.187 25.5456C19.187 25.4989 19.187 25.4904 19.2546 25.4735C19.2949 25.464 19.3359 25.4569 19.3771 25.4523C19.4827 25.4523 19.47 25.3632 19.4362 25.2742C19.4658 25.2996 19.4784 25.3293 19.5207 25.3463C19.4784 25.0749 19.6009 24.9858 19.6052 24.7865C19.6052 24.7314 19.6052 24.6339 19.5418 24.6211C19.4784 24.6084 19.5122 24.6635 19.4827 24.6975C19.4827 24.5957 19.5207 24.4812 19.3517 24.3625L19.2081 24.2734C19.1619 24.2413 19.1219 24.201 19.0898 24.1547C19.0898 24.1547 19.0898 24.1547 19.0603 24.1801C19.0265 24.0868 19.0898 23.9638 19.0391 23.9172C18.9885 23.8706 18.9124 23.8748 18.8744 23.8536C18.8364 23.8324 18.8533 23.8536 18.8406 23.8112C18.8279 23.7688 18.8068 23.8366 18.7646 23.8112C18.7521 23.8049 18.7384 23.8016 18.7245 23.8016C18.7105 23.8016 18.6968 23.8049 18.6843 23.8112C18.5069 23.9935 18.5027 24.2437 18.4562 24.2734Z" fill="#927E2F"/>
<path fill-rule="evenodd" clip-rule="evenodd" d="M13.8779 30.2358C13.9116 30.2867 13.9581 30.3461 14.0467 30.2867C14.1354 30.2274 14.0805 30.1553 14.0467 30.0874C14.1058 30.1086 14.1058 30.2146 14.1523 30.2316C14.1987 30.2486 14.1522 30.0832 14.1185 30.0535C14.0847 30.0238 14.0847 30.0153 14.0341 30.0069C13.9834 29.9984 13.9623 29.9814 13.9243 30.0069L13.8188 29.8542C13.7892 29.8118 13.8188 29.8033 13.8188 29.7524C13.8652 29.3877 13.7555 29.2732 13.9327 28.9425C13.9706 28.8846 13.9965 28.8197 14.0087 28.7516C14.0087 28.6329 13.9581 28.4633 13.9496 28.2852C13.9496 28.2852 13.9032 28.3954 13.8905 28.4208C13.7712 28.6376 13.6749 28.8665 13.6035 29.1036C13.6034 29.3339 13.5678 29.5628 13.498 29.7821C13.4769 29.833 13.4473 29.8627 13.4727 29.9305C13.4946 29.9756 13.5129 30.0224 13.5275 30.0705C13.5252 30.1248 13.5369 30.1788 13.5613 30.2274C13.5814 30.2709 13.6101 30.3099 13.6457 30.3419C13.6691 30.3545 13.6952 30.3611 13.7217 30.3611C13.7482 30.3611 13.7743 30.3545 13.7977 30.3419C13.8141 30.3357 13.829 30.3261 13.8413 30.3136C13.8537 30.3012 13.8633 30.2862 13.8694 30.2698C13.8706 30.2581 13.8735 30.2467 13.8779 30.2358Z" fill="white"/>
<path fill-rule="evenodd" clip-rule="evenodd" d="M19.5335 30.3802C19.5974 30.3846 19.661 30.3682 19.715 30.3336C19.7361 30.3336 19.7361 30.3081 19.7529 30.2912C19.7698 30.2742 19.7783 30.3336 19.8163 30.3506C19.8301 30.3569 19.845 30.3603 19.8602 30.3608C19.8754 30.3612 19.8905 30.3585 19.9047 30.353C19.9189 30.3475 19.9318 30.3391 19.9427 30.3285C19.9536 30.3179 19.9623 30.3052 19.9682 30.2912C19.9809 30.2585 19.9809 30.2221 19.9682 30.1894C19.9682 30.1894 20.0484 30.27 20.0822 30.2276C20.116 30.1852 20.0569 30.1258 20.0442 30.1088C20.0152 30.0768 19.979 30.0521 19.9387 30.0367C19.9126 30.0283 19.8846 30.0283 19.8585 30.0367C19.8319 30.0409 19.8048 30.0409 19.7783 30.0367C19.6805 30.0522 19.5804 30.0327 19.4955 29.9816C19.2591 29.8671 19.2802 29.7866 19.2675 29.5024C19.2675 29.3922 19.2591 29.2819 19.2422 29.1716C19.2301 28.9862 19.1624 28.8088 19.048 28.6628C19.027 28.6271 18.9999 28.5955 18.9678 28.5695C18.9467 28.544 18.8792 28.5059 18.8623 28.5695C18.8726 28.6715 18.8924 28.7723 18.9214 28.8705C18.9863 29.2544 19.0794 29.6328 19.2 30.0028C19.2506 30.1512 19.3688 30.3802 19.5335 30.3802Z" fill="#927E2F"/>
<path fill-rule="evenodd" clip-rule="evenodd" d="M14.0674 28.6669L14.118 28.5863C14.1959 28.4883 14.2852 28.4 14.384 28.3234C14.6583 28.1028 15.034 27.8993 15.0298 27.4752C15.0298 27.4031 15.0045 27.2208 14.9285 27.3141C14.8767 27.3682 14.8217 27.4192 14.7639 27.4667C14.7048 27.5134 14.6457 27.5558 14.5908 27.6067C14.3484 27.8078 14.1816 28.0861 14.118 28.3954C14.1054 28.4845 14.0716 28.6032 14.0674 28.6669Z" fill="#927E2F"/>
<path fill-rule="evenodd" clip-rule="evenodd" d="M19.204 30.1385L19.1322 29.9349C19.0056 29.5108 18.9845 29.2055 18.8705 28.8069C18.841 28.7094 18.8114 28.5609 18.7228 28.5397C18.6342 28.5185 18.6426 28.5397 18.6173 28.5737C18.5956 28.6039 18.584 28.6403 18.584 28.6776C18.584 28.7148 18.5956 28.7512 18.6173 28.7815C18.6839 28.9076 18.7349 29.0415 18.7692 29.1801C18.7946 29.3031 18.7481 29.2352 18.8283 29.4048C18.9085 29.5744 18.9634 29.6423 19.0141 29.7695C19.0858 29.9604 19.0394 30.0282 19.1154 30.0833C19.1429 30.1047 19.1727 30.1232 19.204 30.1385Z" fill="#927E2F"/>
<path fill-rule="evenodd" clip-rule="evenodd" d="M17.4045 28.3232C17.4298 28.3487 17.4678 28.4123 17.4931 28.442C17.5621 28.5179 17.6255 28.5987 17.6831 28.6837C17.711 28.7267 17.7435 28.7666 17.7802 28.8024C17.8592 28.868 17.9439 28.9262 18.0334 28.9763C18.0763 29.0043 18.1159 29.037 18.1516 29.0738C18.1727 29.095 18.2403 29.1714 18.2825 29.1502C18.3247 29.129 18.0925 28.8787 18.063 28.8491L17.9828 28.7558L17.8984 28.6625C17.8111 28.5698 17.7294 28.4721 17.6535 28.3699C17.573 28.2632 17.5129 28.1424 17.4762 28.0137C17.4762 27.9628 17.4762 27.8992 17.4214 27.8864C17.3665 27.8737 17.3243 27.9203 17.3074 27.9415C17.2905 27.9627 17.3074 28.1239 17.3412 28.2045L17.3707 28.2638C17.3844 28.2821 17.3958 28.3021 17.4045 28.3232Z" fill="#927E2F"/>
<path fill-rule="evenodd" clip-rule="evenodd" d="M13.9789 28.3064C13.9767 28.4017 13.9852 28.497 14.0042 28.5905C14.0082 28.6172 14.0167 28.643 14.0295 28.6668L14.0548 28.5142C14.1245 28.2418 14.2432 27.9845 14.4052 27.7551C14.4263 27.7212 14.4769 27.6745 14.4643 27.6363C14.4516 27.5982 14.3503 27.6363 14.2912 27.6363C14.2553 27.6307 14.2225 27.6127 14.1983 27.5854C14.1983 27.6363 14.1477 27.6915 14.1266 27.7508C14.0466 27.9264 13.9967 28.1142 13.9789 28.3064Z" fill="#927E2F"/>
<path fill-rule="evenodd" clip-rule="evenodd" d="M18.4686 24.8206C18.4264 24.8206 18.4221 24.8545 18.4053 24.8841C18.3884 24.9138 18.2111 24.9435 18.2322 25.0833C18.2532 25.1417 18.288 25.1942 18.3336 25.2363C18.3791 25.2783 18.4341 25.3087 18.4939 25.3248C18.5615 25.346 18.5994 25.3248 18.6543 25.257C18.6776 25.2316 18.695 25.2013 18.7052 25.1683C18.7155 25.1354 18.7182 25.1005 18.7134 25.0663C18.7007 24.9392 18.5615 24.7951 18.4686 24.8206Z" fill="#927E2F"/>
<path fill-rule="evenodd" clip-rule="evenodd" d="M19.4954 25.8977V25.8553C19.4152 25.8892 19.3392 26.0504 19.2843 26.1564C19.2311 26.2695 19.1675 26.3774 19.0944 26.4787C19.0648 26.4193 19.0606 26.4787 19.0479 26.3854C19.0018 26.5011 18.9706 26.6222 18.9551 26.7459L19.0226 26.6568C19.0479 26.6271 19.0775 26.6017 19.1028 26.5762C19.2399 26.4451 19.3541 26.2917 19.4405 26.1225C19.4405 26.0885 19.47 26.0292 19.508 26.0292C19.5148 26.0498 19.5148 26.0721 19.508 26.0928C19.5587 26.0673 19.6178 25.9189 19.6347 25.8553C19.6486 25.8024 19.6585 25.7486 19.6642 25.6942C19.679 25.6441 19.6903 25.5931 19.698 25.5415C19.68 25.5698 19.6645 25.5996 19.6516 25.6306C19.6262 25.6815 19.5334 25.8892 19.4954 25.8977Z" fill="#927E2F"/>
<path fill-rule="evenodd" clip-rule="evenodd" d="M15.1202 28.9086V28.8747C15.1542 28.7967 15.1966 28.7227 15.2469 28.6542C15.3862 28.4506 15.5761 28.2301 15.4917 27.9672C15.4766 27.9207 15.4553 27.8764 15.4284 27.8357C15.4321 28.0376 15.3779 28.2364 15.2722 28.4082C15.2131 28.5227 15.1414 28.6499 15.0907 28.7644C15.0788 28.7883 15.0752 28.8155 15.0806 28.8417C15.0859 28.8678 15.0999 28.8914 15.1202 28.9086Z" fill="#927E2F"/>
<path fill-rule="evenodd" clip-rule="evenodd" d="M18.6377 27.2124C18.6377 27.2124 18.5997 27.2887 18.5871 27.3057C18.5286 27.3909 18.4606 27.4692 18.3845 27.5389C18.3093 27.6112 18.2414 27.6907 18.1818 27.7764C18.1818 27.8019 18.1396 27.8739 18.1818 27.8739C18.3048 27.8077 18.4172 27.7233 18.5153 27.6237C18.5646 27.5748 18.6046 27.5174 18.6335 27.4541C18.6519 27.4166 18.6618 27.3755 18.6625 27.3337C18.6632 27.292 18.6548 27.2505 18.6377 27.2124Z" fill="#927E2F"/>
<path fill-rule="evenodd" clip-rule="evenodd" d="M16.1538 30.0744C16.2213 29.9981 16.1242 29.9218 16.0609 29.8964C15.9005 29.8286 15.7528 30.0023 15.5713 29.7778C15.5465 29.7499 15.5239 29.7202 15.5037 29.6888C15.4872 29.6535 15.4659 29.6207 15.4404 29.5913L15.5164 29.8201C15.5544 29.9007 15.6008 29.8498 15.6895 29.96C15.7781 30.0701 15.757 30.0786 15.8836 30.0744C15.93 30.0788 15.9766 30.0788 16.0229 30.0744C16.0989 30.0405 16.0989 30.0574 16.1538 30.0744Z" fill="white"/>
<path fill-rule="evenodd" clip-rule="evenodd" d="M16.213 27.3014C16.1544 27.2442 16.0805 27.2054 16.0003 27.1896C15.9202 27.1738 15.8371 27.1817 15.7614 27.2123C15.6221 27.2844 15.7107 27.348 15.812 27.4159C15.8416 27.4159 15.9133 27.4795 15.9598 27.4498C16.0062 27.4201 16.0062 27.3862 16.0568 27.3438C16.1075 27.3014 16.1286 27.3056 16.213 27.3014Z" fill="#927E2F"/>
<path fill-rule="evenodd" clip-rule="evenodd" d="M19.335 23.8535C19.335 23.8281 19.4532 23.7094 19.508 23.7094C19.5604 23.6943 19.616 23.6943 19.6684 23.7094C19.7233 23.7306 19.7613 23.9297 19.7697 23.9933C19.7782 24.0569 19.7697 24.1162 19.7697 24.1755C19.7991 24.1191 19.8218 24.0593 19.8373 23.9975C19.8627 23.9249 19.8627 23.8457 19.8373 23.773C19.8362 23.7425 19.8284 23.7127 19.8146 23.6856C19.8007 23.6585 19.7811 23.6348 19.7571 23.6162C19.5502 23.5018 19.335 23.7348 19.335 23.8535Z" fill="#927E2F"/>
<path fill-rule="evenodd" clip-rule="evenodd" d="M15.0435 28.8493C15.0773 28.7136 15.225 28.544 15.301 28.3532C15.3425 28.2626 15.3722 28.1672 15.3896 28.0691C15.4065 27.9851 15.4065 27.8986 15.3896 27.8146C15.3896 27.8146 15.3643 27.7637 15.3348 27.7765C15.3052 27.7892 15.3348 27.8782 15.3348 27.9461C15.3123 28.2385 15.1901 28.5141 14.9886 28.7264C14.9633 28.7815 15.0224 28.8324 15.0435 28.8493Z" fill="#927E2F"/>
<path fill-rule="evenodd" clip-rule="evenodd" d="M18.0591 24.8459C17.9966 24.9045 17.9489 24.9771 17.9198 25.0578C17.903 25.1058 17.903 25.1581 17.9198 25.2061C17.9198 25.2358 17.9831 25.2909 18.0338 25.2654C18.0844 25.24 18.0591 25.2231 18.0675 25.2188C18.076 25.2146 18.0971 25.1892 18.1097 25.1722C18.2321 25.0324 18.1688 24.9985 18.1351 24.9392C18.1013 24.8799 18.1351 24.8926 18.1055 24.8799C18.076 24.8671 18.0844 24.8798 18.0591 24.8459Z" fill="#927E2F"/>
<path fill-rule="evenodd" clip-rule="evenodd" d="M17.9456 23.6459L17.8992 23.7222C17.8599 23.7779 17.8389 23.8445 17.8389 23.9128C17.8389 23.9811 17.8599 24.0477 17.8992 24.1035C17.9456 24.1035 17.9498 24.1035 17.9752 24.0781C18.0005 24.0527 17.9541 24.0315 17.9456 24.0061C17.9307 23.9759 17.9229 23.9427 17.9228 23.909C17.9227 23.8754 17.9302 23.8421 17.9449 23.8118C17.9596 23.7816 17.981 23.7551 18.0074 23.7344C18.0339 23.7137 18.0647 23.6994 18.0976 23.6925C18.1651 23.6671 18.1904 23.6925 18.2073 23.5993C18.163 23.5866 18.1165 23.5843 18.0711 23.5923C18.0258 23.6004 17.9829 23.6187 17.9456 23.6459Z" fill="#927E2F"/>
<path fill-rule="evenodd" clip-rule="evenodd" d="M13.7008 28.7262C13.7692 28.6244 13.8139 28.5085 13.8317 28.387C13.743 28.387 13.7093 28.4421 13.6966 28.5184C13.6839 28.5948 13.7135 28.6456 13.7008 28.7262Z" fill="white"/>
<path fill-rule="evenodd" clip-rule="evenodd" d="M18.5537 27.7083C18.617 27.7083 18.7521 27.615 18.7816 27.5811C18.6676 27.5811 18.6592 27.5811 18.6677 27.4751C18.6381 27.5048 18.5241 27.6362 18.5537 27.7083Z" fill="#927E2F"/>
<path fill-rule="evenodd" clip-rule="evenodd" d="M18.292 25.4099V25.4481C18.292 25.4481 18.292 25.4481 18.33 25.4736C18.3663 25.4799 18.4034 25.4799 18.4397 25.4736C18.4446 25.454 18.4446 25.4336 18.4397 25.4141C18.3916 25.4007 18.3409 25.3992 18.292 25.4099Z" fill="#927E2F"/>
<path fill-rule="evenodd" clip-rule="evenodd" d="M18.7528 24.4558C18.7232 24.4558 18.719 24.4558 18.6895 24.4558C18.6895 24.5574 18.871 24.5405 18.8794 24.4558C18.8619 24.4388 18.8399 24.427 18.8161 24.4219C18.8161 24.515 18.757 24.4981 18.7443 24.4769C18.7317 24.4558 18.7485 24.4896 18.7528 24.4558Z" fill="#927E2F"/>
<path fill-rule="evenodd" clip-rule="evenodd" d="M18.1735 24.4431C18.1735 24.4431 18.1481 24.4854 18.1186 24.4685C18.089 24.4516 18.0975 24.4261 18.1186 24.3965C18.0342 24.3965 18.1186 24.4981 18.1186 24.5066C18.1186 24.5151 18.2494 24.4685 18.1735 24.4431Z" fill="#927E2F"/>
<path fill-rule="evenodd" clip-rule="evenodd" d="M18.5544 25.4692C18.5629 25.446 18.5629 25.4205 18.5544 25.3972C18.5544 25.3676 18.5544 25.3591 18.4993 25.3591C18.495 25.3886 18.495 25.4186 18.4993 25.4481C18.4993 25.4481 18.4993 25.4735 18.5247 25.4777C18.5502 25.4819 18.5375 25.4735 18.5544 25.4692Z" fill="#927E2F"/>
<path fill-rule="evenodd" clip-rule="evenodd" d="M18.2838 25.4606C18.2838 25.4352 18.2541 25.414 18.2414 25.3886C18.2287 25.3632 18.2159 25.3251 18.2032 25.3081C18.1927 25.3455 18.1927 25.3851 18.2032 25.4225C18.2159 25.4649 18.2329 25.4691 18.2838 25.4606Z" fill="#927E2F"/>
<path fill-rule="evenodd" clip-rule="evenodd" d="M32.218 32H4.86328C4.86328 32 6.90771 25.4101 20.0317 29.6465C20.0317 29.6465 23.6644 30.889 32.218 32Z" fill="url(#paint27_linear)"/>
<path fill-rule="evenodd" clip-rule="evenodd" d="M18.2286 16.0086L18.2666 15.9619L18.2286 16.0086ZM18.972 20.1814V20.156V20.1814ZM22.0259 19.8125C22.028 19.7913 22.028 19.77 22.0259 19.7489C22.028 19.77 22.028 19.7913 22.0259 19.8125ZM21.895 14.6473L21.8401 14.5498L21.895 14.6473ZM20.1378 14.1851C19.9139 14.3358 19.7121 14.5171 19.538 14.7237C19.4942 14.7276 19.4504 14.715 19.4153 14.6884C19.3801 14.6617 19.3561 14.6229 19.3479 14.5795C19.4451 14.5795 19.4915 14.4523 19.4915 14.4523C19.5388 14.4629 19.5879 14.4629 19.6351 14.4523C19.5857 14.4237 19.5312 14.405 19.4746 14.3972L19.669 14.2954C19.8278 14.2745 19.9846 14.2405 20.1378 14.1936V14.1851ZM20.1885 14.1512L20.1378 14.1851L20.235 14.1554L20.1885 14.1512ZM18.6847 13.002L18.7228 13.0571L18.6847 13.002ZM13.0372 14.2275L13.1597 14.1554L13.0372 14.2275ZM13.3498 29.2818C13.3452 29.0322 13.3607 28.7826 13.3963 28.5355C13.4174 28.2174 14.1355 27.4965 14.1355 27.4965C13.8902 27.6202 13.664 27.7787 13.4639 27.9673C13.4892 27.5432 14.5748 26.4745 14.5748 26.4745C14.0975 26.5636 13.523 27.5177 13.523 27.5177C14.9211 20.1856 17.8526 16.4581 18.2286 16.0086C18.049 16.2579 17.9067 16.5322 17.8062 16.8228C17.9414 16.6619 18.1183 16.5416 18.3173 16.4751C18.0341 16.7644 17.8064 17.1037 17.6456 17.4759C18.199 16.8482 18.3806 16.9882 18.3806 16.9882C17.7174 17.6413 17.6625 17.9551 17.6625 17.9551C17.7366 17.8822 17.8308 17.8334 17.9329 17.8151C17.8157 17.9355 17.7263 18.0803 17.671 18.2392C17.789 18.1339 17.9147 18.0375 18.0469 17.9508C17.9555 18.0641 17.8892 18.1956 17.8526 18.3367C18.2454 17.866 18.482 17.9127 18.482 17.9127C17.9118 18.4682 17.8864 18.7269 17.8864 18.7269C17.8864 18.7269 18.2835 18.3028 18.4398 18.2392C18.596 18.1756 18.4398 18.4258 18.4398 18.4258C18.2593 18.5337 18.1045 18.68 17.9863 18.8544C17.8681 19.0287 17.7893 19.2269 17.7555 19.435C17.8146 19.3158 17.9008 19.2122 18.0072 19.1326C18.1136 19.053 18.2372 18.9998 18.3679 18.9771C18.1399 19.1691 17.9787 19.429 17.9075 19.7192C18.0005 19.6132 18.5327 19.117 18.5327 19.117C18.7439 18.9134 18.7523 19.117 18.7523 19.117C18.2904 19.4518 17.9093 19.8866 17.6372 20.3892C17.7766 20.0711 18.3637 19.8421 18.3637 19.8421C18.2535 19.9888 18.1586 20.1466 18.0807 20.3129C18.1466 20.2353 18.238 20.1841 18.3384 20.1687C18.2289 20.3443 18.1369 20.5304 18.0638 20.7242C18.3257 20.3001 18.5749 20.3001 18.5749 20.3001C18.5331 20.4525 18.4644 20.5961 18.3722 20.7242C18.4482 20.6894 18.517 20.6405 18.5749 20.58C18.5226 20.8275 18.4418 21.068 18.3342 21.2967C18.689 21.0635 18.972 20.1602 18.972 20.1602C18.9842 20.3951 18.9758 20.6307 18.9466 20.8642C19.0958 20.5088 19.1816 20.1298 19.2001 19.7446C19.2722 19.9568 19.3149 20.178 19.3268 20.4019C19.5296 20.0287 19.2127 18.8626 19.2127 18.8626C19.4366 18.994 19.5718 19.8167 19.5718 19.8167C19.5676 19.46 19.5121 19.1058 19.4071 18.765C19.5549 18.8032 19.7788 19.3163 19.7788 19.3163C19.8844 19.2103 19.5591 18.2901 19.5591 18.2901C19.7397 18.5088 19.9008 18.7429 20.0407 18.9898C19.9496 18.7324 19.838 18.4828 19.707 18.2434C19.8868 18.3956 20.0459 18.571 20.1801 18.765C19.9359 18.2781 19.6534 17.8116 19.3352 17.3698C19.6584 17.6434 19.9427 17.9602 20.1801 18.3113C20.0669 18.0155 19.9254 17.7315 19.7577 17.4631C19.9327 17.6327 20.0911 17.8187 20.2307 18.0187C19.9758 17.522 19.6624 17.0579 19.2972 16.6362C19.4746 16.5726 19.7196 17.1451 19.7196 17.0348C19.7196 16.9246 19.821 16.9712 19.821 16.9712C19.8703 17.0443 19.8994 17.1292 19.9055 17.2172C19.9055 17.1069 20.0449 17.073 20.0449 17.073C20.0367 17.2575 20.0744 17.4411 20.1547 17.6073C20.3701 17.3656 20.4926 17.4631 20.4926 17.4631C20.3851 17.9005 20.3707 18.3556 20.4504 18.7989C20.453 18.7192 20.4742 18.6412 20.5124 18.5712C20.5505 18.5012 20.6045 18.4413 20.67 18.3961C20.6128 18.6157 20.6128 18.8465 20.67 19.0661C20.7193 18.8725 20.8117 18.6927 20.9404 18.5403C20.9167 18.7346 20.9167 18.9311 20.9404 19.1255C20.9776 18.9486 21.0606 18.7848 21.1811 18.6505C21.0863 19.0374 21.0437 19.4354 21.0544 19.8337C21.1195 19.6496 21.2168 19.4787 21.3417 19.329C21.2234 19.6598 21.3417 19.7531 21.3417 19.7531C21.3514 19.6293 21.3926 19.5101 21.4614 19.4069C21.5302 19.3037 21.6242 19.2199 21.7345 19.1637C21.5233 19.5276 21.4303 19.9485 21.4684 20.368C21.477 20.2432 21.5152 20.1222 21.5799 20.0153C21.6446 19.9083 21.7338 19.8184 21.8401 19.7531C21.8401 20.0881 21.7936 20.9574 21.7936 20.9574C21.9054 20.5817 21.9859 20.1973 22.0344 19.8082C22.0102 20.1943 22.0215 20.5819 22.0682 20.9659C22.0639 20.6887 22.1499 20.4177 22.3132 20.1941C22.3637 20.6389 22.3821 21.0867 22.3681 21.5342C22.4972 21.1952 22.5477 20.8312 22.5159 20.4698C22.6057 20.5982 22.6715 20.7418 22.7102 20.8938C22.7126 20.4924 22.6744 20.0917 22.5962 19.698C21.198 15.6694 18.4355 15.6609 18.4355 15.6609C18.4355 15.6609 18.3722 15.5337 18.4355 15.4785C18.4989 15.4234 18.8326 15.4785 18.8326 15.4785C18.8622 15.6185 19.1621 15.716 19.1621 15.716C19.124 15.6312 19.2001 15.487 19.2001 15.487C19.2831 15.5776 19.3439 15.6866 19.3775 15.805C19.365 15.6725 19.3838 15.5388 19.4324 15.4149C19.4753 15.6045 19.5638 15.7807 19.6901 15.928C19.6503 15.7583 19.6576 15.5808 19.7112 15.4149C19.7975 15.6648 19.9423 15.8903 20.1336 16.0722C20.0956 15.9227 20.0841 15.7677 20.0998 15.6142C20.1308 15.6005 20.1658 15.599 20.1979 15.61C20.23 15.621 20.2568 15.6437 20.273 15.6736C20.2697 15.84 20.3152 16.0037 20.4039 16.1443C20.4386 16.03 20.4585 15.9117 20.4631 15.7923C20.4938 15.9756 20.5448 16.1548 20.6151 16.3267C20.5811 16.068 20.6252 15.805 20.7418 15.5718C20.7237 15.8 20.7584 16.0293 20.8432 16.2418C20.8575 16.1131 20.9105 15.9918 20.9953 15.8941C20.9692 16.1109 20.9967 16.3309 21.0755 16.5344C21.0842 16.4753 21.1053 16.4186 21.1373 16.3682C21.1693 16.3177 21.2116 16.2747 21.2614 16.2418C21.2196 16.4546 21.2196 16.6736 21.2614 16.8864C21.3017 16.6779 21.4049 16.4869 21.5571 16.3394C21.4692 16.5822 21.4473 16.8443 21.4937 17.0985C21.4937 16.9628 21.6838 16.7931 21.6838 16.7931C21.6209 16.9894 21.6314 17.202 21.7134 17.3911C21.7089 17.2346 21.7456 17.0796 21.8197 16.9419C21.8939 16.8042 22.0029 16.6885 22.1358 16.6065C21.9969 16.9647 21.9718 17.3573 22.064 17.7303C22.0866 17.5043 22.173 17.2895 22.3132 17.1112L22.2498 17.9593L22.5413 17.3147C22.5413 17.5098 22.4526 18.4003 22.4526 18.4003C22.6222 18.1189 22.7382 17.8083 22.7947 17.4843C22.8133 17.8259 22.7963 18.1684 22.744 18.5063C22.8834 18.447 22.9679 18.0229 22.9679 18.0229C23.0179 18.3385 23.0433 18.6575 23.0439 18.9771C23.1497 18.6595 23.2081 18.328 23.2171 17.9932C23.3372 18.2115 23.416 18.4501 23.4494 18.6972C23.493 18.3285 23.4541 17.9547 23.3354 17.6031C23.4663 17.6497 23.6522 18.0272 23.6522 18.0272C23.5603 17.6413 23.4031 17.2741 23.1876 16.9416C23.403 16.9416 23.7831 17.5734 23.7831 17.5734C23.7831 17.0645 23.1622 16.4411 23.1622 16.4411C23.3465 16.538 23.5169 16.6593 23.6691 16.8016C23.3892 16.4427 23.0401 16.1442 22.6427 15.9238C22.7618 15.9143 22.8816 15.9317 22.9933 15.9747C22.3967 15.5105 21.7083 15.1794 20.9742 15.0036C20.9184 14.8173 20.8281 14.6432 20.7081 14.4904C20.8643 14.4904 21.3163 15.0163 21.3163 15.0163C21.2378 14.8491 21.1504 14.6863 21.0544 14.5286C21.3734 14.7431 21.668 14.9919 21.933 15.2707C21.7852 14.9909 21.5909 14.7025 21.5909 14.7025C21.8063 14.7873 22.1358 15.3343 22.1358 15.3343C22.0814 15.0952 21.9962 14.8643 21.8823 14.6473C22.0854 14.9142 22.3275 15.1486 22.6004 15.3428C22.4729 14.9459 22.2659 14.5794 21.9922 14.2657C22.2414 14.3081 22.8919 15.1732 22.8919 15.1732C23.0989 15.4149 23.2214 15.3683 23.2214 15.3683C22.6469 14.7576 22.7778 14.6558 22.7778 14.6558C22.9975 14.677 23.2763 15.2538 23.2763 15.2538C23.2937 15.3167 23.3242 15.3753 23.3657 15.4257C23.4071 15.4762 23.4587 15.5173 23.517 15.5464C23.4494 15.4828 23.517 15.2707 23.517 15.2707C23.6917 15.4525 23.9145 15.5805 24.1591 15.6397C23.2509 14.7915 23.3143 14.6431 23.3143 14.6431C23.5857 14.7569 23.8368 14.9145 24.0577 15.1096C23.9955 14.9788 23.8992 14.8675 23.7789 14.7873C24.1344 14.8798 24.4696 15.038 24.7673 15.2538C24.3561 14.8339 23.8347 14.5399 23.2636 14.4056C23.364 14.3305 23.4848 14.2876 23.61 14.2827C23.1982 14.0898 22.754 13.9762 22.3005 13.9476C22.5131 13.8828 22.7332 13.8458 22.9552 13.8374C22.5762 13.765 22.185 13.7913 21.819 13.9137C21.819 13.7314 22.3892 13.5914 22.3892 13.5914C22.026 13.4684 21.1727 13.884 21.1727 13.884C21.3246 13.6749 21.544 13.525 21.7936 13.46C21.4599 13.4048 20.8179 13.918 20.8179 13.918C20.5867 13.9416 20.3648 14.0217 20.1716 14.1512C20.0382 14.1416 19.9091 14.0994 19.7957 14.0282C20.0509 14.0255 20.3053 14 20.556 13.9519C20.4497 13.9361 20.3451 13.9105 20.2434 13.8755C20.3678 13.8607 20.4908 13.8351 20.6109 13.7992C20.5241 13.803 20.4392 13.7725 20.3744 13.7144C20.6093 13.7361 20.8461 13.7042 21.0671 13.6211C20.8942 13.6355 20.7209 13.5986 20.5687 13.5151C21.0291 13.5151 21.0755 13.4472 21.0755 13.4472C21.0304 13.4443 20.9863 13.4319 20.9463 13.4107C20.9062 13.3895 20.8711 13.36 20.8432 13.3243C21.291 13.2649 21.3374 13.0825 21.3374 13.0825C21.1938 13.0825 21.16 12.9893 21.16 12.9893C21.7134 12.9893 21.8105 12.7645 21.8105 12.7645C21.5106 12.7645 21.4388 12.6585 21.4388 12.6585H21.8992C21.9567 12.6522 22.0116 12.6314 22.0589 12.598C22.1061 12.5646 22.1442 12.5198 22.1696 12.4676C22.1104 12.5016 21.9288 12.3913 21.9288 12.3913C22.3047 12.2471 22.3301 12.0775 22.3301 12.0775C22.2387 12.102 22.1426 12.102 22.0513 12.0775C22.2277 11.9382 22.4207 11.8214 22.6258 11.7298C22.4146 11.6534 22.064 11.8952 22.064 11.8952C22.14 11.84 22.1104 11.6577 22.1104 11.6577C21.8931 11.7781 21.7032 11.9428 21.5529 12.1411C21.5794 12.0128 21.6296 11.8906 21.7007 11.7807C21.4726 11.8612 21.0882 12.5101 21.0882 12.5101C21.0879 12.4668 21.0763 12.4244 21.0544 12.3871C20.9201 12.5004 20.7944 12.6238 20.6785 12.756C20.7895 12.498 20.9313 12.2545 21.1009 12.0309C20.8728 12.1326 20.4124 12.9172 20.4124 12.9172C20.4572 12.6984 20.5325 12.4871 20.6362 12.2895C20.4647 12.4824 20.3224 12.6996 20.2138 12.9341C20.1674 12.8324 20.349 12.3659 20.349 12.3659C20.1927 12.4125 19.7999 13.3115 19.7999 13.3115L19.9055 12.7814C19.783 12.8323 19.5127 13.5236 19.5127 13.5236C19.1694 13.9281 18.8506 14.3529 18.558 14.7958C18.8603 14.2598 19.0998 13.6906 19.2719 13.0995C19.2128 13.2946 18.9297 13.4388 18.9297 13.4388C18.9086 13.3455 19.2339 13.0147 19.2339 13.0147C19.4228 12.7875 19.5326 12.5046 19.5464 12.209C19.5464 12.3362 19.331 12.3701 19.331 12.3701C19.5327 12.133 19.6475 11.8337 19.6563 11.522C19.5963 11.6949 19.4822 11.8436 19.331 11.9461C19.707 11.382 19.4831 11.1488 19.4831 11.1488C19.4831 11.1488 19.4831 11.1488 19.4831 11.1743C19.475 11.2589 19.4485 11.3408 19.4054 11.4141C19.3624 11.4874 19.3038 11.5503 19.2339 11.5983C19.2073 11.4811 19.2073 11.3594 19.2339 11.2421C19.3301 11.0358 19.3422 10.7999 19.2677 10.5848C19.3099 10.7163 19.1283 10.7544 19.1283 10.7544C19.101 10.6234 19.0897 10.4896 19.0945 10.3558C18.9973 10.3855 18.9297 10.8011 18.9297 10.8011C18.906 10.6511 18.8961 10.4992 18.9002 10.3473C18.8115 9.89781 18.6087 9.92325 18.6087 9.92325C18.7354 10.1607 18.5749 10.2752 18.5749 10.2752C18.2961 9.6561 17.9582 9.71122 17.9582 9.71122C18.4693 10.1947 18.4398 10.5254 18.4398 10.5254C18.1356 10.2286 17.9371 10.2667 17.9371 10.2667C18.0339 10.2927 18.1208 10.3468 18.1869 10.4222C18.2531 10.4977 18.2955 10.5912 18.3088 10.6908C18.1916 10.6403 18.0645 10.6171 17.9371 10.623C18.0742 10.6798 18.1971 10.7663 18.2971 10.8762C18.3971 10.9861 18.4718 11.1169 18.5158 11.2591C18.3869 11.1576 18.2693 11.0425 18.1652 10.9156C18.283 11.1448 18.4245 11.3609 18.5876 11.5602C18.4904 11.6068 18.1652 11.1361 18.1652 11.1361C18.2789 11.382 18.4348 11.6059 18.6256 11.7976C18.5496 11.8231 18.1061 11.5008 18.1061 11.5008C18.2618 11.7583 18.446 11.9973 18.6552 12.2132C18.5593 12.1325 18.4417 12.0823 18.3173 12.069C18.52 12.2595 18.6475 12.517 18.6763 12.7942C18.5353 12.7016 18.4075 12.5903 18.2961 12.4634C18.3956 12.6609 18.5114 12.8495 18.6425 13.0274C18.5909 12.9804 18.5285 12.9469 18.4609 12.9299C18.4864 12.9564 18.5045 12.9892 18.5136 13.0249C18.5226 13.0607 18.5222 13.0982 18.5124 13.1337C18.5026 13.1693 18.4837 13.2016 18.4577 13.2276C18.4316 13.2536 18.3992 13.2723 18.3637 13.2819C17.3373 9.95296 16.3151 9.9487 16.3151 9.9487C16.6742 10.2376 16.9728 10.595 17.1937 11.0004C16.9064 10.6145 16.6319 10.623 16.6319 10.623C17.2401 10.9071 17.6034 11.9291 17.6034 11.9291C17.5063 11.8 17.3804 11.6954 17.2359 11.6238C17.4267 11.8111 17.5488 12.0577 17.5823 12.3235C17.219 12.192 17.1134 12.298 17.1134 12.298C17.5358 12.5482 17.5781 12.7687 17.5781 12.7687C17.387 12.6027 17.1662 12.4746 16.9276 12.3913C16.9281 12.5201 16.96 12.6467 17.0205 12.7603C16.8703 12.6211 16.7292 12.4724 16.5981 12.315C16.4998 12.3043 16.4007 12.3043 16.3024 12.315C16.3185 12.4055 16.3578 12.4903 16.4164 12.561C16.4164 12.561 16.3193 12.4549 16.2221 12.3277C16.1819 12.3338 16.1422 12.3437 16.1039 12.3574C15.9096 12.3998 15.8082 13.0359 15.8082 13.0359C15.98 12.9815 16.1611 12.9628 16.3404 12.9808C16.2366 13.0507 16.1534 13.1474 16.0996 13.2606C16.2516 13.1724 16.4318 13.1465 16.6023 13.1886C16.3953 13.2522 16.1799 13.6126 16.1799 13.6126C16.2963 13.5828 16.4183 13.5828 16.5347 13.6126C16.4418 13.7229 16.4925 13.7907 16.4925 13.7907C16.6328 13.7516 16.7825 13.7636 16.9149 13.8247C16.8711 13.8708 16.8405 13.9279 16.8262 13.9901C16.9096 13.964 16.9981 13.9585 17.0841 13.974C17.1701 13.9895 17.2512 14.0256 17.3204 14.0791C17.1726 14.024 16.8346 14.2106 16.8346 14.2106H16.9613C17.0957 14.222 17.2279 14.252 17.3542 14.2996C17.2655 14.2996 17.1683 14.4141 17.1683 14.4141L17.4725 14.3759C17.7437 14.7075 17.9592 15.0814 18.1103 15.4828C17.5412 15.0603 16.9173 14.7179 16.2559 14.465C16.3586 14.8262 16.4334 15.1948 16.4798 15.5676C16.191 15.0927 15.8706 14.638 15.521 14.2063C15.2675 14.1258 15.0267 14.0621 14.8071 14.007C14.7224 14.2548 14.6907 14.5178 14.7142 14.7788C14.6231 14.504 14.5649 14.2193 14.541 13.9307L14.3002 13.8798C14.2535 14.1171 14.2351 14.3591 14.2453 14.6007C14.167 14.3511 14.1077 14.096 14.0679 13.8374L13.8651 13.8035C13.8629 13.8274 13.8629 13.8516 13.8651 13.8755L13.8398 13.7992L13.637 13.7738C13.3951 13.7337 13.1482 13.7337 12.9063 13.7738C12.9063 13.7738 12.9063 13.7992 12.9063 13.8162C12.9045 13.8021 12.9045 13.7879 12.9063 13.7738C12.7527 13.7933 12.6004 13.8216 12.4501 13.8586C13.0921 13.9985 12.75 14.0197 12.75 14.0197C12.5991 14.021 12.4502 14.0545 12.3133 14.1181C12.1763 14.1817 12.0545 14.274 11.9559 14.3887C12.0319 14.3166 12.3529 14.3123 12.3529 14.3123C12.3318 14.4311 11.9052 14.8 11.9052 14.8C12.2883 14.6561 12.6562 14.4743 13.0034 14.2572C12.771 14.3885 12.5828 14.5863 12.4628 14.8254C12.7458 14.576 13.0612 14.3663 13.4005 14.2021C13.0865 14.4304 12.8303 14.7296 12.6528 15.0757C12.9041 14.744 13.26 14.5078 13.6624 14.4056C12.8176 14.9951 12.9654 15.1732 12.9654 15.1732C13.0455 15.0396 13.152 14.924 13.2785 14.8335C13.4049 14.7431 13.5485 14.6797 13.7004 14.6473C13.5875 14.7111 13.4892 14.7981 13.4121 14.9026C13.3349 15.0071 13.2806 15.1267 13.2527 15.2538C13.4528 15.0141 13.7187 14.8386 14.0172 14.7491C13.7646 14.9258 13.5762 15.1804 13.4808 15.4743C13.6623 15.2909 13.8651 15.13 14.0848 14.9951C13.9288 15.1227 13.8165 15.2962 13.7638 15.4912C14.2706 14.8212 14.6086 14.8594 14.6086 14.8594C14.4131 14.9765 14.2639 15.1577 14.1862 15.3725C14.2787 15.2496 14.4028 15.1543 14.5452 15.0969C14.3678 15.2792 14.3678 15.381 14.3678 15.381C14.9254 14.9018 15.0859 14.9272 15.0859 14.9272C15.026 14.9966 14.9878 15.0821 14.9761 15.1732C15.0561 15.136 15.1434 15.1167 15.2316 15.1167C15.3199 15.1167 15.4071 15.136 15.4872 15.1732C14.127 15.3513 13.7469 16.1443 13.7469 16.1443C13.2695 16.2418 12.9021 17.0985 12.9021 17.0985C12.9715 17.0721 13.0481 17.0721 13.1175 17.0985C12.8345 17.2469 12.788 17.8745 12.788 17.8745C12.9143 17.6129 13.1083 17.3903 13.3498 17.2299C13.257 17.3767 13.2099 17.548 13.2146 17.7218C13.4977 16.8737 13.8863 16.8016 13.8863 16.8016C13.7836 16.9097 13.7111 17.0431 13.6763 17.1883C13.6414 17.3335 13.6454 17.4854 13.6877 17.6285C13.7461 17.3902 13.8416 17.1626 13.9707 16.9543C13.963 17.0659 13.9864 17.1775 14.0383 17.2766C14.0213 16.9883 14.115 16.7045 14.3002 16.4836C14.181 16.7204 14.1175 16.9815 14.1144 17.2469C14.1855 16.9757 14.3105 16.7219 14.4819 16.5005C14.3793 16.7266 14.3287 16.973 14.334 17.2214C14.3797 17.0003 14.4832 16.7954 14.6339 16.6277C14.6272 16.7494 14.6088 16.8701 14.579 16.9882C14.6562 16.7995 14.7143 16.6034 14.7522 16.403C14.8536 15.9789 15.0605 16.051 15.0605 16.051C14.8816 16.3326 14.7945 16.6631 14.8113 16.9967C14.8662 16.7198 15.0156 16.4709 15.2337 16.2927C15.2055 16.4656 15.1544 16.6339 15.0817 16.7931C15.2606 16.6339 15.4044 16.4389 15.5041 16.2206L15.5336 16.2545C15.5576 16.3602 15.5689 16.4684 15.5674 16.5768C15.6646 16.7168 15.711 16.5217 15.711 16.5217C15.7364 16.4496 15.842 16.3309 15.8842 16.3394C15.9265 16.3478 15.9349 16.4963 15.9349 16.4963H16.0785L16.125 16.3606C16.2475 16.2418 16.37 16.2206 16.4038 16.2758C16.4376 16.3309 16.577 16.3436 16.577 16.3436C16.573 16.2744 16.573 16.205 16.577 16.1358C16.577 16.0383 16.9994 15.9535 16.9994 15.9535C17.295 15.8899 17.1937 16.1019 17.1937 16.1019C16.902 16.2955 16.5744 16.4282 16.2306 16.492C15.926 16.5466 15.6353 16.6618 15.3756 16.8307C15.1159 16.9997 14.8925 17.219 14.7184 17.4759C14.8789 17.5098 14.862 17.5607 14.862 17.5607C14.6081 17.6426 14.3863 17.8029 14.2284 18.0187C14.2706 17.9932 14.465 18.0568 14.465 18.0568C14.013 18.1968 13.7131 18.9601 13.7131 18.9601C13.8947 18.9346 13.9074 19.0195 13.9074 19.0195C13.7266 19.1511 13.6051 19.3494 13.5695 19.5707C13.7215 19.4605 13.8018 19.5368 13.8018 19.5368C13.6833 19.6333 13.5893 19.7567 13.5277 19.8968C13.466 20.0368 13.4383 20.1896 13.447 20.3425C13.447 20.2323 13.7131 19.9694 13.7131 19.9694C13.7032 20.0468 13.7032 20.1252 13.7131 20.2026C13.7131 20.0372 14.0848 19.7064 14.0848 19.7064C14.0935 19.8537 14.0613 20.0005 13.9919 20.1305C14.1776 19.9131 14.3055 19.6519 14.3636 19.3714C14.3612 19.475 14.3991 19.5753 14.4692 19.6513C14.4438 19.0915 14.5875 19.0237 14.5875 19.0237C14.64 19.1914 14.6698 19.3654 14.6762 19.5411C14.7081 19.3701 14.7081 19.1947 14.6762 19.0237C14.6508 18.7523 14.8155 18.7141 14.8155 18.7141C14.8155 19.329 14.9887 19.4223 14.9887 19.4223C14.9355 19.1177 14.9707 18.8041 15.0901 18.5191C15.0717 18.598 15.0701 18.68 15.0853 18.7597C15.1006 18.8393 15.1325 18.9149 15.1788 18.9813C15.1761 18.7344 15.2357 18.4907 15.352 18.2731C15.2929 18.43 15.4449 18.8032 15.4449 18.8032C15.4324 18.5772 15.4699 18.3513 15.5547 18.1416C15.5493 18.3822 15.5792 18.6222 15.6435 18.8541C15.6217 18.3848 15.689 17.9156 15.842 17.4716C15.8128 17.7852 15.8488 18.1014 15.9476 18.4003C15.9576 18.0403 16.0043 17.6822 16.087 17.3317C16.0774 17.6172 16.1072 17.9026 16.1757 18.1798C16.2759 17.8805 16.3481 17.5724 16.3911 17.2596C16.4092 17.4002 16.4163 17.542 16.4122 17.6837C16.507 17.4306 16.5723 17.1673 16.6065 16.8991C16.6053 17.0453 16.6356 17.1899 16.6952 17.3232C16.767 17.1578 16.9022 16.6193 16.9022 16.6193C16.8951 16.7838 16.8652 16.9464 16.8135 17.1027C16.9206 16.9868 16.9835 16.8366 16.9909 16.6786C16.9698 16.4708 17.6076 16.3055 17.6076 16.3055C17.3337 16.558 17.0912 16.8427 16.8853 17.1536C14.9676 19.9482 13.0034 26.6866 13.0034 26.6866C12.826 27.505 12.0615 29.5193 12.0615 29.5193C11.8334 29.8289 11.8207 29.4811 11.8207 29.4811C11.6095 28.086 11.1533 28.1157 11.1533 28.1157C11.3221 28.6508 11.4631 29.1943 11.5757 29.7441C11.4976 29.6335 11.4052 29.5337 11.3012 29.4472C11.2942 29.4904 11.2768 29.5311 11.2505 29.566C11.4502 29.8357 11.6308 30.1191 11.7912 30.4141C11.6433 30.3462 11.3476 30.6134 11.3476 30.6134H11.5631V30.7279C11.5631 30.7576 13.5906 30.7279 13.5906 30.7279C13.5568 30.5243 14.2622 30.3038 14.2622 30.3038C14.1988 30.236 13.5483 30.3717 13.5483 30.3717C13.6624 30.1385 14.2875 29.9476 14.2875 29.9476C14.1312 29.8374 13.2062 30.2869 13.2062 30.2869C13.7652 29.6822 14.4523 29.2112 15.2168 28.9087C14.4818 28.8705 13.3287 29.8331 13.3287 29.8331C13.3287 29.7441 13.3287 29.6805 13.4005 29.4472C13.4723 29.214 14.1397 28.6924 14.1397 28.6924C13.8486 28.8483 13.5824 29.047 13.3498 29.2818Z" fill="url(#paint28_linear)"/>
<path fill-rule="evenodd" clip-rule="evenodd" d="M8.85129 7.34489C8.88167 7.36295 8.91 7.38426 8.93578 7.40848L8.85129 7.34489ZM15.8885 14.2784C16.2382 14.71 16.5585 15.1648 16.8473 15.6396C16.8026 15.2666 16.7277 14.8979 16.6235 14.537C15.2507 9.8723 9.52714 10.4109 9.52714 10.4109C10.4437 10.0504 10.769 10.4109 10.769 10.4109C10.7504 10.3473 10.75 10.2797 10.768 10.216C10.7859 10.1522 10.8214 10.0948 10.8704 10.0504C10.9141 10.1519 10.9796 10.2425 11.0621 10.3157C11.1445 10.389 11.242 10.4432 11.3477 10.4745C11.2597 10.4126 11.1985 10.3194 11.1765 10.2139C11.1546 10.1083 11.1735 9.9983 11.2294 9.90624C11.2717 10.22 11.8039 10.4024 11.8039 10.4024C11.7339 10.3442 11.6833 10.2658 11.6591 10.1778C11.635 10.0898 11.6383 9.9965 11.6687 9.91048C11.6941 10.1352 12.4375 10.449 12.4375 10.449C12.3657 10.2031 12.5346 10.1946 12.5346 10.1946C12.5677 10.3148 12.6328 10.4237 12.7228 10.5096C12.8128 10.5955 12.9245 10.6552 13.0457 10.6823C12.9824 10.4575 12.8726 10.148 12.8726 10.148C13.1556 10.2837 13.2738 10.8307 13.2738 10.8307C13.3583 10.7925 13.6962 11.0555 13.6962 11.0555C13.6299 10.8649 13.5391 10.6838 13.4259 10.5169C13.578 10.4278 14.0511 11.0979 14.106 11.1742C13.8652 10.8222 13.7385 9.59243 13.7385 9.59243C13.865 10.2085 14.0769 10.8037 14.3679 11.3608C14.3679 11.2632 14.4692 11.2378 14.4692 11.2378C14.4439 11.365 14.6678 11.4753 14.6678 11.4753C14.6372 11.3498 14.6521 11.2175 14.71 11.1021C14.8258 11.29 14.9288 11.4855 15.0184 11.6873C14.9931 11.3156 14.9236 10.9483 14.8114 10.5932C15.0386 11.0258 15.2252 11.4787 15.3689 11.946C15.2924 11.4743 15.3242 10.9913 15.4619 10.5338C15.4331 11.1023 15.554 11.6684 15.8125 12.175C15.7814 12.0409 15.7808 11.9015 15.8108 11.7671C15.8408 11.6328 15.9006 11.5069 15.9857 11.399C15.8758 11.6237 16.1715 12.4252 16.1715 12.4252C16.011 11.2293 16.2222 11.276 16.2222 11.276C16.2001 11.4843 16.2226 11.695 16.2882 11.8939C16.3537 12.0928 16.4608 12.2754 16.6024 12.4294H16.6826C16.6516 12.2214 16.6516 12.0098 16.6826 11.8018C16.7184 12.0392 16.8261 12.2598 16.991 12.4337C17.0989 12.4457 17.2052 12.4699 17.3078 12.5058C17.3001 12.3141 17.3128 12.1222 17.3458 11.9333C17.4472 11.9333 17.726 12.158 17.726 12.158C17.5581 11.8382 17.3179 11.5622 17.0248 11.3523C17.1853 11.2208 17.726 11.7297 17.726 11.7297C17.6457 11.1445 16.1757 10.4109 16.1757 10.4109C16.4756 10.3176 16.9699 10.6526 16.9699 10.6526C16.6784 10.2748 16.279 9.99516 15.8251 9.85111C15.9476 9.77053 16.3025 9.85111 16.3025 9.85111C16.1293 9.35919 14.8156 9.42704 14.8156 9.42704C14.8156 9.24045 15.804 9.38886 15.804 9.38886C13.7681 8.24813 9.80592 10.1395 9.80592 10.1395C9.72989 9.88079 11.0098 9.57123 11.0098 9.57123C11.381 9.34037 11.7857 9.1687 12.2094 9.06235C11.5124 9.11324 11.4153 8.9224 11.4153 8.9224C11.8145 8.85928 12.2223 8.87657 12.6149 8.97329C12.5514 8.95702 12.4941 8.92212 12.4505 8.87302C12.4069 8.82391 12.3788 8.76286 12.3699 8.69766C12.7424 8.82856 13.1408 8.86781 13.5315 8.81214C13.3805 8.78153 13.2464 8.6953 13.1556 8.57042C13.8187 8.62979 14.0004 8.38807 14.0004 8.38807C13.425 8.4288 12.8479 8.34044 12.3108 8.1294C12.3108 7.96401 13.4724 8.10396 13.4724 8.10396C13.2443 7.89616 12.3868 7.91737 12.3868 7.91737C12.6445 7.68837 13.2823 7.76471 13.2823 7.76471C13.5043 7.88227 13.7623 7.91106 14.0046 7.84528C13.9077 7.8419 13.8134 7.8136 13.7306 7.7631C13.6477 7.71261 13.5792 7.64163 13.5315 7.55692C13.8483 7.72231 14.2707 7.78166 14.4228 7.59083C14.1862 7.59083 13.578 7.2219 13.9455 7.3576C14.2501 7.43719 14.5729 7.40718 14.8578 7.27278C14.6721 7.26563 14.4871 7.24438 14.3045 7.20918C14.1651 7.14982 14.3256 7.06924 14.3256 7.06924C14.4924 7.12183 14.6698 7.13114 14.8412 7.09628C15.0125 7.06143 15.1723 6.98357 15.3056 6.86994C15.0829 6.90236 14.8567 6.90236 14.634 6.86994C14.7522 6.64942 15.521 6.44587 15.521 6.44587C15.2338 6.24656 14.5326 6.63668 14.5326 6.63668C12.3192 6.34407 11.7321 7.80711 11.7321 7.80711C11.2759 8.82062 9.43844 10.3515 9.43844 10.3515C9.43689 10.2874 9.44804 10.2237 9.47124 10.164C9.49445 10.1043 9.52925 10.0498 9.57361 10.0038C9.57361 9.72388 10.3719 9.19805 10.3719 9.19805C10.2528 9.24054 10.1265 9.25927 10.0002 9.25319C9.92419 9.12172 10.4226 9.01571 10.4226 9.01571C10.731 8.96906 10.7183 8.87152 10.7183 8.87152C10.6415 8.88579 10.5628 8.88579 10.486 8.87152C10.5049 8.82301 10.5358 8.78009 10.5757 8.74673C10.6155 8.71338 10.6631 8.69065 10.7141 8.68068C10.8534 8.65752 10.9836 8.59586 11.09 8.50258C10.9989 8.52862 10.9015 8.5211 10.8155 8.48138C10.9076 8.47875 10.9982 8.4579 11.0823 8.42007C11.1664 8.38223 11.2422 8.32813 11.3054 8.26086C11.1486 8.3186 10.9765 8.3186 10.8197 8.26086C10.9842 8.24375 11.1356 8.16318 11.2421 8.03612C10.8197 8.09125 10.9084 8.03612 10.9084 8.03612L11.1576 7.92161C11.3555 7.84419 11.5231 7.70429 11.6349 7.52299C11.428 7.60898 11.1956 7.60898 10.9886 7.52299C11.3902 7.40233 11.7727 7.2253 12.1249 6.99715C11.8699 6.95988 11.6099 6.98162 11.3646 7.06075C11.7189 6.85912 12.0981 6.70515 12.4924 6.60277C12.2958 6.57748 12.0962 6.59189 11.9053 6.64517C12.2311 6.45765 12.5806 6.31502 12.9444 6.2211C12.6783 6.06844 11.8334 6.3865 11.8334 6.3865C12.1798 5.80128 13.2696 5.47899 13.2696 5.47899C13.0019 5.43944 12.7287 5.46503 12.4729 5.55358C12.2171 5.64214 11.9862 5.79108 11.7997 5.98787C11.7616 5.87762 11.9728 5.56381 11.9728 5.56381C11.5842 5.67406 11.0182 6.55611 11.0182 6.55611C11.0221 6.43285 11.0508 6.31169 11.1027 6.19991C10.8788 6.23807 10.6 6.95048 10.6 6.95048C10.5765 6.96241 10.5504 6.96865 10.524 6.96865C10.4976 6.96865 10.4716 6.96241 10.448 6.95048C10.1519 7.34883 9.96017 7.81543 9.89041 8.3075C9.77636 8.54074 9.64541 8.38383 9.64541 8.38383C9.80608 8.12797 9.90315 7.83709 9.92842 7.5357C9.78058 7.64171 9.77212 7.5357 9.77212 7.5357C9.88147 7.46001 9.96437 7.35175 10.0091 7.22619C10.0538 7.10063 10.0581 6.96414 10.0214 6.836C10.0083 6.90777 9.97163 6.97306 9.91727 7.02148C9.86292 7.0699 9.79397 7.09867 9.72144 7.10317C10.0509 6.33985 9.87351 5.97089 9.87351 5.97089C9.82142 6.08923 9.77766 6.21112 9.74257 6.33561C9.57361 6.37378 9.62851 6.22959 9.62851 6.22959C9.70877 5.19063 9.41731 5.15669 9.41731 5.15669C9.44688 5.3136 9.46801 5.69102 9.46801 5.69102C9.3793 6.01331 9.33284 5.73342 9.33284 5.73342C9.18077 4.80471 8.97379 4.85562 8.97379 4.85562C9.07807 5.12553 9.10442 5.41949 9.04982 5.70376C8.55561 4.60967 8.20502 4.79625 8.20502 4.79625C8.42515 5.04037 8.58951 5.32983 8.68656 5.64438C8.04874 5.29665 7.84176 5.47899 7.84176 5.47899C8.1286 5.61275 8.37495 5.82054 8.55562 6.08115C8.2008 5.92001 8.09097 6.08115 8.09097 6.08115C8.93578 6.50522 9.04561 6.8996 9.04561 6.8996C8.74172 6.85873 8.45202 6.74531 8.2008 6.56884C8.25572 6.84024 8.72457 7.23887 8.91888 7.39153C8.68793 7.27114 8.44607 7.17316 8.19658 7.09892C8.38179 7.38017 8.60021 7.63789 8.84708 7.86648C8.7125 7.81659 8.58694 7.74497 8.47536 7.65445C8.63626 7.9281 8.82911 8.18149 9.04982 8.40927C8.95626 8.35901 8.87198 8.29305 8.80061 8.21422C8.80061 8.36688 9.12164 8.66797 9.12164 8.66797C9.16827 8.82609 9.18825 8.9909 9.18077 9.15563C9.3222 9.49008 9.4092 9.84518 9.43844 10.2073C9.31594 10.343 9.26102 10.2073 9.26102 10.2073C9.23665 9.67091 9.11944 9.14281 8.91465 8.64675C8.55983 7.43816 6.12258 7.04379 6.12258 7.04379C4.24712 6.26351 1.70848 9.52457 1.70848 9.52457C2.21394 9.35079 2.68453 9.08802 3.09819 8.74855C2.73914 9.0666 2.89966 9.29558 2.89966 9.29558C4.21755 7.91313 4.39073 8.09547 4.39073 8.09547C4.23344 8.20517 4.10355 8.34993 4.01122 8.51839C3.91889 8.68686 3.86662 8.87448 3.8585 9.0666C4.03559 8.82493 4.235 8.60059 4.45409 8.39656C4.6484 8.26086 4.63573 8.39656 4.63573 8.39656C4.53391 8.45891 4.44803 8.54431 4.38496 8.64592C4.32188 8.74753 4.28335 8.86255 4.27246 8.98178C4.41608 8.85032 4.4541 8.80367 4.55125 8.77399C4.6484 8.7443 4.70331 8.86303 4.70331 8.86303C4.88488 8.54558 5.16119 8.29343 5.49321 8.14213C5.28137 8.34097 5.10306 8.57297 4.96521 8.82912C5.11727 8.90545 5.18908 8.82912 5.18908 8.82912C5.82268 8.02763 6.13525 8.13364 6.13525 8.13364C5.71285 8.55771 5.78044 8.87152 5.78044 8.87152C5.94517 8.60011 6.11414 8.59164 6.11414 8.59164C5.97052 8.82064 6.18171 8.74855 6.18171 8.74855C6.64213 8.03611 6.85756 8.25237 6.85756 8.25237C6.583 8.36263 6.36335 8.87152 6.36335 8.87152C6.49007 8.6722 6.9167 8.64675 6.9167 8.64675C6.75196 8.6934 6.7055 8.98178 6.7055 8.98178C6.87446 8.77822 7.64745 8.69341 7.64745 8.69341C7.60406 8.72159 7.56799 8.75973 7.54222 8.80469C7.51644 8.84964 7.50172 8.9001 7.49924 8.95191C7.49676 9.00372 7.50661 9.0554 7.52797 9.10262C7.54934 9.14985 7.58161 9.19128 7.6221 9.2235C8.0445 9.03691 8.26838 9.2235 8.26838 9.2235C8.04028 9.2235 8.01072 9.48217 8.01072 9.48217C8.21169 9.3959 8.4335 9.37084 8.64855 9.41009C8.56849 9.42855 8.49338 9.46428 8.42846 9.51481C8.36355 9.56534 8.31036 9.62946 8.2726 9.70269C8.69501 9.5882 8.77103 9.77902 8.77103 9.77902C8.71159 9.79052 8.65632 9.81784 8.611 9.85812C8.56567 9.8984 8.53196 9.95017 8.51338 10.008C8.90621 9.93168 9.08362 10.3769 9.08362 10.3769C9.12511 10.4244 9.15477 10.481 9.17019 10.5422C9.18562 10.6034 9.18635 10.6674 9.17232 10.7289C9.01181 10.6526 8.43312 10.9367 8.43312 10.9367C8.60419 10.7511 8.80211 10.5924 9.02025 10.466C8.52604 10.2964 7.59254 9.35071 7.59254 9.35071C7.01862 9.0753 6.3912 8.9305 5.75509 8.92665C4.34075 8.95357 2.94335 9.24105 1.63245 9.77478C0.192063 9.96561 0.196289 10.2921 0.196289 10.2921C0.339906 10.4363 1.75918 10.148 1.75918 10.148C1.11713 10.3303 1.06221 10.6229 1.06221 10.6229C1.49436 10.4296 1.95535 10.3092 2.42657 10.2667C2.17705 10.5265 1.90257 10.7609 1.60711 10.9664C1.96615 10.9664 2.35476 10.5975 2.87431 10.237C3.39387 9.87654 3.52903 10.0292 3.52903 10.0292C2.21536 10.7204 2.39278 11.0512 2.39278 11.0512C4.05282 9.93593 4.08239 10.1607 4.08239 10.1607C2.81518 11.0088 2.98414 11.276 2.98414 11.276C3.57146 10.9864 4.12058 10.6246 4.61883 10.1988C5.282 9.77478 5.14684 10.0462 5.14684 10.0462C3.64309 10.924 3.8036 11.2717 3.8036 11.2717C3.98056 11.0963 4.18633 10.9528 4.41186 10.8477C4.56393 10.8052 4.53435 10.907 4.53435 10.907C4.32737 11.013 4.16263 11.4414 4.16263 11.4414C4.67567 11.0731 5.21027 10.736 5.76354 10.4321C4.72021 11.2802 4.77089 11.6279 4.77089 11.6279C5.93672 10.6653 6.0381 10.8519 6.0381 10.8519C5.93776 10.9198 5.85843 11.0146 5.80914 11.1256C5.75986 11.2366 5.74259 11.3592 5.75931 11.4795C5.81845 11.2251 6.42671 10.8561 6.42671 10.8561L6.26197 11.047C6.21376 11.0927 6.18064 11.1522 6.16705 11.2174C6.15346 11.2825 6.16006 11.3503 6.18594 11.4117C6.43348 11.2947 6.66844 11.1526 6.88713 10.9876C6.76886 11.259 6.63791 11.4965 6.63791 11.4965C6.86601 11.4965 7.56297 10.9579 7.56297 10.9579C6.87023 11.5686 6.92937 11.806 6.92937 11.806C7.51651 11.6788 7.35177 11.8951 7.35177 11.8951C5.71708 12.4676 5.44251 13.2521 5.44251 13.2521C6.37602 12.6542 6.62101 12.7644 6.62101 12.7644C4.93141 13.6126 4.93141 14.0366 4.93141 14.0366C5.67483 13.426 5.91982 13.5702 5.91982 13.5702C4.86804 14.0197 4.754 14.6812 4.754 14.6812C5.4214 13.9603 5.59881 14.1935 5.59881 14.1935C4.3316 15.0417 4.3316 15.5887 4.3316 15.5887C4.78357 15.0671 4.93986 15.2367 4.93986 15.2367C4.06549 15.7456 3.62619 17.0772 3.62619 17.0772C4.53013 15.8983 4.69909 16.1188 4.69909 16.1188C3.77403 17.4292 4.10773 17.8405 4.10773 17.8405C4.41608 16.5895 4.65685 16.8948 4.65685 16.8948C4.12885 18.167 4.4034 18.5148 4.4034 18.5148C4.80046 16.8185 5.01589 17.0602 5.01589 17.0602C4.95619 17.3398 4.95619 17.6288 5.01589 17.9084C5.09571 17.8598 5.16295 17.7931 5.21214 17.7135C5.26133 17.6339 5.29105 17.5437 5.29889 17.4504C5.40872 16.0128 5.68328 16.1782 5.68328 16.1782C5.4763 17.0263 5.68328 16.9881 5.68328 16.9881C5.77265 16.3875 5.91398 15.7958 6.10568 15.2198C6.25352 14.3165 6.46473 14.4565 6.46473 14.4565C5.98741 15.3046 5.92405 17.1281 5.92405 17.1281C6.31796 16.4273 6.54765 15.6456 6.59567 14.8424C6.63791 14.4989 6.7942 14.6091 6.7942 14.6091C6.76041 15.0841 6.64214 15.8177 6.64214 15.8177C6.64214 16.1655 6.7773 16.1103 6.7773 16.1103C6.9885 15.6863 7.02651 13.9306 7.02651 13.9306H7.16169L7.11523 15.6269C7.24225 15.5712 7.34239 15.4677 7.39401 15.3385C7.39401 14.66 7.6221 14.7364 7.6221 14.7364C7.61611 14.7932 7.62162 14.8507 7.63832 14.9053C7.65501 14.96 7.68255 15.0107 7.71926 15.0544C7.86458 14.7503 7.97374 14.43 8.0445 14.1003C8.24303 14.0112 8.15433 14.2741 8.15433 14.2741C5.80156 23.5315 8.63165 30.3886 8.63165 30.3886C8.52354 30.2292 8.38361 30.0941 8.22072 29.9919C8.05783 29.8897 7.87556 29.8226 7.68547 29.7949C7.82751 30.0931 8.02377 30.3621 8.26416 30.5879C7.91357 30.4522 6.78153 30.3462 6.92514 30.5328C7.13659 30.6916 7.38033 30.8017 7.639 30.8551H11.7997L11.7616 30.7787C11.6195 30.5723 11.4258 30.407 11.1998 30.2996C11.3706 30.1299 11.5261 29.9454 11.6645 29.7483C11.6307 29.7059 11.5969 29.6592 11.5631 29.6211C11.2112 29.8201 10.8739 30.044 10.5536 30.2911C10.7916 30.0623 10.9963 29.8011 11.1618 29.515C11.1993 29.4717 11.2346 29.4264 11.2674 29.3793C11.4127 29.1369 11.4928 28.8607 11.4998 28.5778C10.9802 28.7517 10.4015 29.9857 10.4015 29.9857C10.1058 30.1639 10.127 29.8076 10.127 29.8076C10.437 29.4168 10.6498 28.9575 10.7479 28.4676C10.6592 28.0054 11.0436 26.5296 11.0436 26.5296C10.8564 26.6442 10.6976 26.7999 10.5791 26.985C10.4605 27.1701 10.3854 27.3798 10.3593 27.5983C10.2654 28.1831 10.0965 28.7533 9.85661 29.2945C9.8758 29.1027 9.85421 28.9091 9.79325 28.7263C9.78897 28.8363 9.75222 28.9426 9.68765 29.0316C7.03497 22.6452 8.70345 14.2996 8.70345 14.2996C8.74037 13.7814 8.82379 13.2676 8.95268 12.7644C9.19767 12.3404 9.48912 12.4167 9.48912 12.4167C9.19233 12.6595 8.99897 13.0068 8.94845 13.3878C9.48912 12.7899 9.74678 12.9213 9.74678 12.9213C9.33414 13.1901 9.02789 13.5951 8.88086 14.0663C9.08246 13.6492 9.43881 13.328 9.87351 13.1715C9.32176 13.5416 8.93655 14.114 8.80061 14.766C8.8911 14.5817 9.01844 14.418 9.17468 14.2852C9.33092 14.1525 9.51273 14.0534 9.70877 13.9942C8.86396 14.906 8.8344 15.5633 8.8344 15.5633C9.74679 14.2148 10.1692 14.2911 10.1692 14.2911C9.68481 14.7005 9.32477 15.2383 9.13008 15.8432C10.0213 14.7067 10.0382 15.0926 10.0382 15.0926C9.87808 15.1942 9.74012 15.3275 9.63267 15.4842C9.52523 15.6409 9.45053 15.8178 9.41309 16.0043C9.83549 15.5166 9.98333 15.7117 9.98333 15.7117C9.10051 16.6277 9.20611 17.408 9.20611 17.408C9.6792 16.4538 10.2494 16.4538 10.2494 16.4538C10.0107 16.7383 9.86344 17.0887 9.82704 17.4588C9.96313 17.1779 10.1892 16.9509 10.4691 16.8143C10.3804 16.9433 10.3147 17.0868 10.2748 17.2383C9.48912 19.1509 9.95377 19.3587 9.95377 19.3587C10.0636 18.8243 10.279 18.7989 10.279 18.8371C10.279 18.8752 10.1988 19.2145 10.1988 19.2145C10.1285 19.3882 10.1021 19.5767 10.122 19.7632C10.1419 19.9497 10.2075 20.1283 10.3128 20.2831C10.165 19.9566 10.6212 19.4053 10.6212 19.4053C10.7695 19.0381 10.8703 18.6533 10.9211 18.2603C10.976 18.9346 11.3012 18.9261 11.3012 18.9261C11.3942 18.5402 11.0774 17.0984 11.0774 17.0984C11.3223 17.0221 11.5378 18.0059 11.5378 18.0059C11.7616 17.5479 11.4617 16.1994 11.4617 16.1994C11.6824 16.4054 11.8306 16.6777 11.8841 16.9754C11.938 16.7439 11.938 16.503 11.8841 16.2715C11.7122 15.8633 11.6385 15.4202 11.6687 14.9781C11.972 15.3855 12.2166 15.8337 12.3952 16.3096C12.6107 15.8516 11.8926 14.6982 11.8926 14.6982C12.0193 14.6982 12.2178 14.9865 12.2178 14.9865C12.3234 14.6049 11.6772 13.7143 11.6772 13.7143C11.863 13.6677 12.3572 14.1808 12.3572 14.1808C12.4628 13.8543 11.3097 12.5355 11.3097 12.5355C11.4675 12.6373 11.6098 12.7616 11.7321 12.9044C11.3482 12.1771 10.8069 11.5453 10.1481 11.0555C10.0256 10.8392 9.45532 10.5975 9.45532 10.5975C9.54347 10.5834 9.63329 10.5834 9.72144 10.5975C10.072 10.6356 10.4733 11.2081 10.4733 11.2081C10.4771 11.1909 10.4848 11.1748 10.4959 11.1611C10.5069 11.1474 10.5209 11.1364 10.5368 11.129C10.5528 11.1216 10.5702 11.118 10.5878 11.1185C10.6053 11.119 10.6225 11.1235 10.6381 11.1318C10.5874 11.3099 10.8788 11.3438 10.8788 11.3438C11.014 11.1572 11.0647 11.3014 11.0647 11.3014C11.0404 11.4653 11.0512 11.6326 11.0963 11.792C11.1415 11.9514 11.22 12.0993 11.3266 12.2259C11.3055 11.7339 11.504 11.611 11.504 11.611C11.5187 11.8855 11.5655 12.1574 11.6434 12.4209C11.6242 12.3163 11.6378 12.2083 11.6825 12.1118C11.7271 12.0153 11.8006 11.9351 11.8926 11.8824C11.8587 12.0365 11.8601 12.1964 11.8967 12.3499C11.9333 12.5034 12.0041 12.6466 12.1038 12.7687C11.9686 11.9206 12.2558 11.7424 12.2558 11.7424C12.2261 12.1413 12.2823 12.542 12.4206 12.9171C12.3747 12.4685 12.4281 12.0153 12.5769 11.5898C12.5255 12.1364 12.5383 12.6873 12.6149 13.2309C12.6335 12.9301 12.7264 12.6386 12.8852 12.3828C12.729 12.8153 12.7171 13.2872 12.8514 13.7271C12.8852 12.7687 13.1936 12.5778 13.1936 12.5778C13.0824 12.9971 13.0986 13.4401 13.2401 13.85C13.2401 13.0019 13.7047 12.9001 13.7047 12.9001C13.6267 13.1948 13.6566 13.5079 13.7892 13.7822C13.7385 13.1716 14.0891 13.0316 14.0891 13.0316C14.0457 13.3166 14.0733 13.608 14.1693 13.8797H14.1989C14.1989 13.2903 14.4017 13.197 14.4017 13.197C14.3572 13.4338 14.3572 13.6769 14.4017 13.9137C14.4414 14.1722 14.5007 14.4274 14.5791 14.677C14.5701 14.4352 14.5899 14.1931 14.6382 13.9561C14.6796 13.7186 14.7656 13.4912 14.8916 13.286C14.8602 13.5253 14.8602 13.7677 14.8916 14.0069C14.9188 14.2955 14.9783 14.58 15.069 14.8551C15.0415 14.5944 15.0718 14.3308 15.1577 14.0833C15.198 13.9617 15.2489 13.8439 15.3098 13.7313C15.5198 13.8886 15.7086 14.0725 15.8716 14.2784H15.8885ZM10.4987 30.1384C10.4737 30.1606 10.4469 30.1804 10.4184 30.1978L10.4987 30.1384Z" fill="url(#paint29_linear)"/>
<defs>
<linearGradient id="paint0_linear" x1="1266.73" y1="2185.65" x2="1642.62" y2="2201.31" gradientUnits="userSpaceOnUse">
<stop stop-color="#A2792C"/>
<stop offset="0.26" stop-color="#BC992E"/>
<stop offset="0.42" stop-color="#BC992E"/>
<stop offset="0.53" stop-color="#A2792C"/>
<stop offset="1" stop-color="#BC992E"/>
</linearGradient>
<linearGradient id="paint1_linear" x1="1932.42" y1="2054.13" x2="2491.16" y2="2092.37" gradientUnits="userSpaceOnUse">
<stop stop-color="#A2792C"/>
<stop offset="0.26" stop-color="#BC992E"/>
<stop offset="0.42" stop-color="#BC992E"/>
<stop offset="0.53" stop-color="#A2792C"/>
<stop offset="1" stop-color="#BC992E"/>
</linearGradient>
<linearGradient id="paint2_linear" x1="1112.89" y1="2580.86" x2="1432.69" y2="2590.62" gradientUnits="userSpaceOnUse">
<stop stop-color="#A2792C"/>
<stop offset="0.26" stop-color="#BC992E"/>
<stop offset="0.42" stop-color="#BC992E"/>
<stop offset="0.53" stop-color="#A2792C"/>
<stop offset="1" stop-color="#BC992E"/>
</linearGradient>
<linearGradient id="paint3_linear" x1="445.341" y1="1374.14" x2="561.836" y2="1376.68" gradientUnits="userSpaceOnUse">
<stop stop-color="#A2792C"/>
<stop offset="0.26" stop-color="#BC992E"/>
<stop offset="0.42" stop-color="#BC992E"/>
<stop offset="0.53" stop-color="#A2792C"/>
<stop offset="1" stop-color="#BC992E"/>
</linearGradient>
<linearGradient id="paint4_linear" x1="581.466" y1="1167.91" x2="740.469" y2="1173.34" gradientUnits="userSpaceOnUse">
<stop stop-color="#A2792C"/>
<stop offset="0.26" stop-color="#BC992E"/>
<stop offset="0.42" stop-color="#BC992E"/>
<stop offset="0.53" stop-color="#A2792C"/>
<stop offset="1" stop-color="#BC992E"/>
</linearGradient>
<linearGradient id="paint5_linear" x1="673.095" y1="882.891" x2="862.361" y2="892.856" gradientUnits="userSpaceOnUse">
<stop stop-color="#A2792C"/>
<stop offset="0.26" stop-color="#BC992E"/>
<stop offset="0.42" stop-color="#BC992E"/>
<stop offset="0.53" stop-color="#A2792C"/>
<stop offset="1" stop-color="#BC992E"/>
</linearGradient>
<linearGradient id="paint6_linear" x1="726.024" y1="538.182" x2="933.39" y2="557.814" gradientUnits="userSpaceOnUse">
<stop stop-color="#A2792C"/>
<stop offset="0.26" stop-color="#BC992E"/>
<stop offset="0.42" stop-color="#BC992E"/>
<stop offset="0.53" stop-color="#A2792C"/>
<stop offset="1" stop-color="#BC992E"/>
</linearGradient>
<linearGradient id="paint7_linear" x1="728.229" y1="450.885" x2="937.784" y2="474.769" gradientUnits="userSpaceOnUse">
<stop stop-color="#A2792C"/>
<stop offset="0.26" stop-color="#BC992E"/>
<stop offset="0.42" stop-color="#BC992E"/>
<stop offset="0.53" stop-color="#A2792C"/>
<stop offset="1" stop-color="#BC992E"/>
</linearGradient>
<linearGradient id="paint8_linear" x1="687.482" y1="696.429" x2="887.349" y2="710.307" gradientUnits="userSpaceOnUse">
<stop stop-color="#A2792C"/>
<stop offset="0.26" stop-color="#BC992E"/>
<stop offset="0.42" stop-color="#BC992E"/>
<stop offset="0.53" stop-color="#A2792C"/>
<stop offset="1" stop-color="#BC992E"/>
</linearGradient>
<linearGradient id="paint9_linear" x1="610.743" y1="987.303" x2="786.795" y2="994.987" gradientUnits="userSpaceOnUse">
<stop stop-color="#A2792C"/>
<stop offset="0.26" stop-color="#BC992E"/>
<stop offset="0.42" stop-color="#BC992E"/>
<stop offset="0.53" stop-color="#A2792C"/>
<stop offset="1" stop-color="#BC992E"/>
</linearGradient>
<linearGradient id="paint10_linear" x1="522.131" y1="1326.19" x2="671.781" y2="1330.32" gradientUnits="userSpaceOnUse">
<stop stop-color="#A2792C"/>
<stop offset="0.26" stop-color="#BC992E"/>
<stop offset="0.42" stop-color="#BC992E"/>
<stop offset="0.53" stop-color="#A2792C"/>
<stop offset="1" stop-color="#BC992E"/>
</linearGradient>
<linearGradient id="paint11_linear" x1="398.292" y1="1551.76" x2="510.86" y2="1553.77" gradientUnits="userSpaceOnUse">
<stop stop-color="#A2792C"/>
<stop offset="0.26" stop-color="#BC992E"/>
<stop offset="0.42" stop-color="#BC992E"/>
<stop offset="0.53" stop-color="#A2792C"/>
<stop offset="1" stop-color="#BC992E"/>
</linearGradient>
<linearGradient id="paint12_linear" x1="255.156" y1="1683.5" x2="324.816" y2="1684.21" gradientUnits="userSpaceOnUse">
<stop stop-color="#A2792C"/>
<stop offset="0.26" stop-color="#BC992E"/>
<stop offset="0.42" stop-color="#BC992E"/>
<stop offset="0.53" stop-color="#A2792C"/>
<stop offset="1" stop-color="#BC992E"/>
</linearGradient>
<linearGradient id="paint13_linear" x1="214.293" y1="1697.15" x2="265.048" y2="1697.57" gradientUnits="userSpaceOnUse">
<stop stop-color="#A2792C"/>
<stop offset="0.26" stop-color="#BC992E"/>
<stop offset="0.42" stop-color="#BC992E"/>
<stop offset="0.53" stop-color="#A2792C"/>
<stop offset="1" stop-color="#BC992E"/>
</linearGradient>
<linearGradient id="paint14_linear" x1="318.463" y1="1601.52" x2="397.561" y2="1602.6" gradientUnits="userSpaceOnUse">
<stop stop-color="#A2792C"/>
<stop offset="0.26" stop-color="#BC992E"/>
<stop offset="0.42" stop-color="#BC992E"/>
<stop offset="0.53" stop-color="#A2792C"/>
<stop offset="1" stop-color="#BC992E"/>
</linearGradient>
<linearGradient id="paint15_linear" x1="441.237" y1="1417.96" x2="557.466" y2="1420.48" gradientUnits="userSpaceOnUse">
<stop stop-color="#A2792C"/>
<stop offset="0.26" stop-color="#BC992E"/>
<stop offset="0.42" stop-color="#BC992E"/>
<stop offset="0.53" stop-color="#A2792C"/>
<stop offset="1" stop-color="#BC992E"/>
</linearGradient>
<linearGradient id="paint16_linear" x1="576.184" y1="1201.54" x2="735.188" y2="1206.97" gradientUnits="userSpaceOnUse">
<stop stop-color="#A2792C"/>
<stop offset="0.26" stop-color="#BC992E"/>
<stop offset="0.42" stop-color="#BC992E"/>
<stop offset="0.53" stop-color="#A2792C"/>
<stop offset="1" stop-color="#BC992E"/>
</linearGradient>
<linearGradient id="paint17_linear" x1="667.503" y1="906.743" x2="857.06" y2="916.756" gradientUnits="userSpaceOnUse">
<stop stop-color="#A2792C"/>
<stop offset="0.26" stop-color="#BC992E"/>
<stop offset="0.42" stop-color="#BC992E"/>
<stop offset="0.53" stop-color="#A2792C"/>
<stop offset="1" stop-color="#BC992E"/>
</linearGradient>
<linearGradient id="paint18_linear" x1="718.805" y1="561.14" x2="926.229" y2="580.321" gradientUnits="userSpaceOnUse">
<stop stop-color="#A2792C"/>
<stop offset="0.26" stop-color="#BC992E"/>
<stop offset="0.42" stop-color="#BC992E"/>
<stop offset="0.53" stop-color="#A2792C"/>
<stop offset="1" stop-color="#BC992E"/>
</linearGradient>
<linearGradient id="paint19_linear" x1="720.822" y1="454.27" x2="930.356" y2="478.243" gradientUnits="userSpaceOnUse">
<stop stop-color="#A2792C"/>
<stop offset="0.26" stop-color="#BC992E"/>
<stop offset="0.42" stop-color="#BC992E"/>
<stop offset="0.53" stop-color="#A2792C"/>
<stop offset="1" stop-color="#BC992E"/>
</linearGradient>
<linearGradient id="paint20_linear" x1="681.401" y1="697.283" x2="881.589" y2="711.256" gradientUnits="userSpaceOnUse">
<stop stop-color="#A2792C"/>
<stop offset="0.26" stop-color="#BC992E"/>
<stop offset="0.42" stop-color="#BC992E"/>
<stop offset="0.53" stop-color="#A2792C"/>
<stop offset="1" stop-color="#BC992E"/>
</linearGradient>
<linearGradient id="paint21_linear" x1="603.906" y1="987.494" x2="779.967" y2="995.082" gradientUnits="userSpaceOnUse">
<stop stop-color="#A2792C"/>
<stop offset="0.26" stop-color="#BC992E"/>
<stop offset="0.42" stop-color="#BC992E"/>
<stop offset="0.53" stop-color="#A2792C"/>
<stop offset="1" stop-color="#BC992E"/>
</linearGradient>
<linearGradient id="paint22_linear" x1="516.388" y1="1295.49" x2="666.058" y2="1299.65" gradientUnits="userSpaceOnUse">
<stop stop-color="#A2792C"/>
<stop offset="0.26" stop-color="#BC992E"/>
<stop offset="0.42" stop-color="#BC992E"/>
<stop offset="0.53" stop-color="#A2792C"/>
<stop offset="1" stop-color="#BC992E"/>
</linearGradient>
<linearGradient id="paint23_linear" x1="394.205" y1="1520.6" x2="506.85" y2="1522.61" gradientUnits="userSpaceOnUse">
<stop stop-color="#A2792C"/>
<stop offset="0.26" stop-color="#BC992E"/>
<stop offset="0.42" stop-color="#BC992E"/>
<stop offset="0.53" stop-color="#A2792C"/>
<stop offset="1" stop-color="#BC992E"/>
</linearGradient>
<linearGradient id="paint24_linear" x1="246.891" y1="1641.33" x2="314.94" y2="1642.01" gradientUnits="userSpaceOnUse">
<stop stop-color="#A2792C"/>
<stop offset="0.26" stop-color="#BC992E"/>
<stop offset="0.42" stop-color="#BC992E"/>
<stop offset="0.53" stop-color="#A2792C"/>
<stop offset="1" stop-color="#BC992E"/>
</linearGradient>
<linearGradient id="paint25_linear" x1="212.034" y1="1643.97" x2="262.644" y2="1644.39" gradientUnits="userSpaceOnUse">
<stop stop-color="#A2792C"/>
<stop offset="0.26" stop-color="#BC992E"/>
<stop offset="0.42" stop-color="#BC992E"/>
<stop offset="0.53" stop-color="#A2792C"/>
<stop offset="1" stop-color="#BC992E"/>
</linearGradient>
<linearGradient id="paint26_linear" x1="321.78" y1="1553.92" x2="401.616" y2="1555.01" gradientUnits="userSpaceOnUse">
<stop stop-color="#A2792C"/>
<stop offset="0.26" stop-color="#BC992E"/>
<stop offset="0.42" stop-color="#BC992E"/>
<stop offset="0.53" stop-color="#A2792C"/>
<stop offset="1" stop-color="#BC992E"/>
</linearGradient>
<linearGradient id="paint27_linear" x1="7012.61" y1="2550.49" x2="9038.48" y2="3002.34" gradientUnits="userSpaceOnUse">
<stop stop-color="#A2792C"/>
<stop offset="0.26" stop-color="#BC992E"/>
<stop offset="0.42" stop-color="#BC992E"/>
<stop offset="0.53" stop-color="#A2792C"/>
<stop offset="1" stop-color="#BC992E"/>
</linearGradient>
<linearGradient id="paint28_linear" x1="3569.31" y1="13553.3" x2="4551.78" y2="13586.8" gradientUnits="userSpaceOnUse">
<stop stop-color="#927E2F"/>
<stop offset="0.24" stop-color="#AE9431"/>
<stop offset="0.42" stop-color="#CAAD2E"/>
<stop offset="0.75" stop-color="#E2C022"/>
<stop offset="1" stop-color="#FFD700"/>
</linearGradient>
<linearGradient id="paint29_linear" x1="4507.42" y1="16662.5" x2="5849.95" y2="16710.1" gradientUnits="userSpaceOnUse">
<stop stop-color="#927E2F"/>
<stop offset="0.24" stop-color="#AE9431"/>
<stop offset="0.42" stop-color="#CAAD2E"/>
<stop offset="0.75" stop-color="#E2C022"/>
<stop offset="1" stop-color="#FFD700"/>
</linearGradient>
</defs>
</svg>
