<svg width="28" height="30" viewBox="0 0 28 30" fill="none" xmlns="http://www.w3.org/2000/svg">
<path d="M18.834 22.794C19.6105 22.0295 19.1915 20.2735 17.923 18.245C18.384 18.173 18.815 18.063 19.141 17.8945C20.314 17.289 21.106 16.1855 21.7055 15.044C22.35 13.8195 22.7825 12.4735 23.6235 11.3585C23.7655 11.17 23.9075 11.001 24.049 10.842C25.8635 11.0595 27.312 11.4495 27.312 11.4495L27.8655 10.043C27.1669 9.79227 26.4506 9.59389 25.7225 9.4495C26.1685 9.196 26.4595 9.117 26.4595 9.117L25.935 7.699C25.094 8.0545 24.4115 8.579 23.84 9.207C21.704 9.0875 19.553 9.513 17.856 10.829C16.58 11.819 15.718 13.1915 14.907 14.5645C14.1884 13.8593 13.4232 13.2034 12.6165 12.601C12.7695 12.3495 12.9335 12.1235 13.11 11.949C14.1765 10.899 15.5835 10.2275 16.5065 9.026C18.4465 6.503 17.0275 2.548 15.4315 0.5C15.1455 0.7755 14.6725 1.177 14.3165 1.494C16.013 3.2315 17.1995 6.2735 15.87 8.5465C15.127 9.817 13.754 10.614 12.794 11.7055C12.628 11.895 12.4795 12.135 12.345 12.4C9.8345 10.5995 7.5305 9.875 6.6175 10.774C6.52684 10.8667 6.45217 10.9739 6.3965 11.091L6.393 11.0875L6.3685 11.159C6.3345 11.2365 6.3035 11.317 6.2825 11.405L0 29.5L18.331 23.091L18.326 23.086C18.523 23.0225 18.6965 22.929 18.834 22.794ZM3.6465 27.166L2.1165 26.453L3.149 23.478L7.8845 25.684L3.6465 27.166ZM12.122 24.2025L4.1825 20.503L5.215 17.5285L11.148 20.5065C7.6065 18.2015 6.2475 14.553 6.2475 14.553L6.6005 13.5365C7.228 15.124 8.6085 17.101 10.5055 18.967C12.4185 20.85 14.446 22.214 16.0665 22.8235L12.122 24.2025ZM15.1715 14.8325C16.0005 13.644 16.855 12.4445 18.043 11.591C19.174 10.778 21.01 10.6295 22.7505 10.727C22.1625 11.754 21.728 12.8935 21.338 13.988C20.8665 15.313 20.2345 16.687 19.0295 17.4995C18.7045 17.7185 18.249 17.8785 17.7625 17.997C17.094 16.9725 16.217 15.8895 15.1715 14.8325Z" fill="#A2792C"/>
</svg>
