<svg width="20" height="20" viewBox="0 0 20 20" fill="none" xmlns="http://www.w3.org/2000/svg">
<path d="M8.82812 5.89844H6.48438C6.16078 5.89844 5.89844 6.16078 5.89844 6.48438V13.5156C5.89844 13.8392 6.16078 14.1016 6.48438 14.1016H8.82812C9.15172 14.1016 9.41406 13.8392 9.41406 13.5156V6.48438C9.41406 6.16078 9.15172 5.89844 8.82812 5.89844ZM8.24219 12.9297H7.07031V7.07031H8.24219V12.9297ZM13.5156 5.89844H11.1719C10.8483 5.89844 10.5859 6.16078 10.5859 6.48438V13.5156C10.5859 13.8392 10.8483 14.1016 11.1719 14.1016H13.5156C13.8392 14.1016 14.1016 13.8392 14.1016 13.5156V6.48438C14.1016 6.16078 13.8392 5.89844 13.5156 5.89844ZM12.9297 12.9297H11.7578V7.07031H12.9297V12.9297ZM10 0C4.46836 0 0 4.46973 0 10C0 15.5317 4.46977 20 10 20C15.5317 20 20 15.5302 20 10C20 4.46832 15.5303 0 10 0ZM10 18.8281C5.13215 18.8281 1.17188 14.8679 1.17188 10C1.17188 5.13215 5.13215 1.17188 10 1.17188C14.8679 1.17188 18.8281 5.13215 18.8281 10C18.8281 14.8679 14.8679 18.8281 10 18.8281Z" fill="#A2792C"/>
</svg>
