<svg width="32" height="30" viewBox="0 0 32 30" fill="none" xmlns="http://www.w3.org/2000/svg">
<path d="M26.6875 14.3977V13.996C27.4792 13.7281 28.1146 13.2259 28.5938 12.4893C29.0729 11.7527 29.3125 10.9156 29.3125 9.9781V7.1656C29.3125 5.9156 28.9375 4.88881 28.1875 4.08524C27.4375 3.28167 26.4792 2.87988 25.3125 2.87988C24.1875 2.87988 23.2396 3.28167 22.4688 4.08524C21.6979 4.88881 21.3125 5.9156 21.3125 7.1656V9.9781C21.3125 10.9156 21.5625 11.7527 22.0625 12.4893C22.5625 13.2259 23.2083 13.7281 24 13.996V14.3977C22.7917 14.7102 21.6875 15.3352 20.6875 16.2727C19.8542 15.3799 18.7292 14.7549 17.3125 14.3977V13.996C18.1042 13.7281 18.75 13.2259 19.25 12.4893C19.75 11.7527 20 10.9156 20 9.9781V7.1656C20 5.9156 19.6146 4.88881 18.8438 4.08524C18.0729 3.28167 17.125 2.87988 16 2.87988C14.875 2.87988 13.9271 3.28167 13.1562 4.08524C12.3854 4.88881 12 5.9156 12 7.1656V9.9781C12 10.9156 12.25 11.7527 12.75 12.4893C13.25 13.2259 13.8958 13.7281 14.6875 13.996V14.3977C13.4792 14.7102 12.3542 15.3352 11.3125 16.2727C10.3125 15.3352 9.20833 14.7102 8 14.3977V13.996C8.79167 13.7281 9.4375 13.2259 9.9375 12.4893C10.4375 11.7527 10.6875 10.9156 10.6875 9.9781V7.1656C10.6875 5.9156 10.3021 4.88881 9.53125 4.08524C8.76042 3.28167 7.8125 2.87988 6.6875 2.87988C5.52083 2.87988 4.5625 3.28167 3.8125 4.08524C3.0625 4.88881 2.6875 5.9156 2.6875 7.1656V9.9781C2.6875 10.9156 2.92708 11.7527 3.40625 12.4893C3.88542 13.2259 4.52083 13.7281 5.3125 13.996V14.3977C3.77083 14.7549 2.5 15.5919 1.5 16.9089C0.5 18.2259 0 19.7326 0 21.429V25.7147H32V21.429C32 19.7326 31.5 18.2259 30.5 16.9089C29.5 15.5919 28.2292 14.7549 26.6875 14.3977ZM5.3125 7.1656C5.3125 6.18345 5.77083 5.69238 6.6875 5.69238C7.0625 5.69238 7.375 5.82631 7.625 6.09417C7.875 6.36203 8 6.71917 8 7.1656V9.9781C8 10.4245 7.875 10.7817 7.625 11.0495C7.375 11.3174 7.0625 11.4513 6.6875 11.4513C5.77083 11.4513 5.3125 10.9602 5.3125 9.9781V7.1656ZM10.6875 22.8352H2.6875V21.429C2.6875 20.2236 3.0625 19.208 3.8125 18.3821C4.5625 17.5562 5.52083 17.1433 6.6875 17.1433C7.85417 17.1433 8.875 17.6567 9.75 18.6835C10.375 19.5317 10.6875 20.4468 10.6875 21.429V22.8352ZM14.6875 7.1656C14.6875 6.18345 15.125 5.69238 16 5.69238C16.875 5.69238 17.3125 6.18345 17.3125 7.1656V9.9781C17.3125 10.9602 16.875 11.4513 16 11.4513C15.125 11.4513 14.6875 10.9602 14.6875 9.9781V7.1656ZM20 22.8352H12V21.429C12 20.4022 12.3125 19.487 12.9375 18.6835C13.8125 17.6567 14.8333 17.1433 16 17.1433C17.1667 17.1433 18.1875 17.6567 19.0625 18.6835C19.6875 19.487 20 20.4022 20 21.429V22.8352ZM24 7.1656C24 6.71917 24.125 6.36203 24.375 6.09417C24.625 5.82631 24.9375 5.69238 25.3125 5.69238C26.2292 5.69238 26.6875 6.18345 26.6875 7.1656V9.9781C26.6875 10.9602 26.2292 11.4513 25.3125 11.4513C24.9375 11.4513 24.625 11.3174 24.375 11.0495C24.125 10.7817 24 10.4245 24 9.9781V7.1656ZM29.3125 22.8352H21.3125V21.429C21.3125 20.4468 21.625 19.5317 22.25 18.6835C23.125 17.6567 24.1458 17.1433 25.3125 17.1433C26.4792 17.1433 27.4375 17.5562 28.1875 18.3821C28.9375 19.208 29.3125 20.2236 29.3125 21.429V22.8352Z" fill="#A2792C"/>
</svg>
