<svg width="26" height="32" viewBox="0 0 26 32" fill="none" xmlns="http://www.w3.org/2000/svg">
<path d="M6.59637 22.5781C7.00794 23.6811 8.07181 24.4688 9.31644 24.4688H16.6836C17.9283 24.4688 18.9921 23.6811 19.4037 22.5781H6.59637Z" fill="#A2792C"/>
<path d="M16.6836 26.3594H9.31644C7.71613 26.3594 6.41406 27.6614 6.41406 29.2617V31.0625C6.41406 31.5802 6.83381 32 7.35156 32H18.6484C19.1662 32 19.5859 31.5802 19.5859 31.0625V29.2617C19.5859 27.6614 18.2839 26.3594 16.6836 26.3594Z" fill="#A2792C"/>
<path d="M17.7071 5.70801C16.6852 5.70801 15.8539 6.53932 15.8539 7.56113C15.8539 8.58295 16.6853 9.41426 17.7071 9.41426C18.7289 9.41426 19.5602 8.58295 19.5602 7.56113C19.5602 6.53932 18.7289 5.70801 17.7071 5.70801Z" fill="#A2792C"/>
<path d="M6.40625 5.64062H8.29688V7.53125H6.40625V5.64062Z" fill="#A2792C"/>
<path d="M21.9922 0H4.00781C2.22006 0 0.765625 1.45444 0.765625 3.24219V17.4609C0.765625 19.2487 2.22006 20.7031 4.00781 20.7031H21.9922C23.7799 20.7031 25.2344 19.2487 25.2344 17.4609V3.24219C25.2344 1.45444 23.7799 0 21.9922 0ZM4.53125 4.70312C4.53125 4.18538 4.951 3.76562 5.46875 3.76562H9.23438C9.75212 3.76562 10.1719 4.18538 10.1719 4.70312V8.46875C10.1719 8.9865 9.75212 9.40625 9.23438 9.40625H5.46875C4.951 9.40625 4.53125 8.9865 4.53125 8.46875V4.70312ZM5.46875 11.2969H9.23438C9.75212 11.2969 10.1719 11.7166 10.1719 12.2344C10.1719 12.7521 9.75212 13.1719 9.23438 13.1719H5.46875C4.951 13.1719 4.53125 12.7521 4.53125 12.2344C4.53125 11.7166 4.951 11.2969 5.46875 11.2969ZM4.53125 16C4.53125 15.4823 4.951 15.0625 5.46875 15.0625H9.23438C9.75212 15.0625 10.1719 15.4823 10.1719 16C10.1719 16.5177 9.75212 16.9375 9.23438 16.9375H5.46875C4.951 16.9375 4.53125 16.5177 4.53125 16ZM19.5899 15.3491H15.8242C15.3065 15.3491 14.8867 14.9294 14.8867 14.4116C14.8867 13.8939 15.3065 13.4741 15.8242 13.4741H19.5899C20.1076 13.4741 20.5274 13.8939 20.5274 14.4116C20.5274 14.9294 20.1076 15.3491 19.5899 15.3491ZM17.7071 11.2891C15.6513 11.2891 13.9789 9.61662 13.9789 7.56094C13.9789 5.50525 15.6514 3.83281 17.7071 3.83281C19.7627 3.83281 21.4352 5.50525 21.4352 7.56094C21.4352 9.61662 19.7627 11.2891 17.7071 11.2891Z" fill="#A2792C"/>
</svg>
