<svg width="20" height="20" viewBox="0 0 20 20" fill="none" xmlns="http://www.w3.org/2000/svg">
<path d="M0 14.7368C0 15.6632 0.483189 16.4947 1.23895 17.0737V18.9474C1.23895 19.5263 1.79647 20 2.47789 20H3.71684C4.39825 20 4.95578 19.5263 4.95578 18.9474V17.8947H14.8673V18.9474C14.8673 19.5263 15.4249 20 16.1063 20H17.3452C18.0266 20 18.5842 19.5263 18.5842 18.9474V17.0737C19.3399 16.4947 19.8231 15.6632 19.8231 14.7368V4.21053C19.8231 0.526316 15.3877 0 9.91156 0C4.43542 0 0 0.526316 0 4.21053V14.7368ZM4.33631 15.7895C3.30798 15.7895 2.47789 15.0842 2.47789 14.2105C2.47789 13.3368 3.30798 12.6316 4.33631 12.6316C5.36463 12.6316 6.19473 13.3368 6.19473 14.2105C6.19473 15.0842 5.36463 15.7895 4.33631 15.7895ZM15.4868 15.7895C14.4585 15.7895 13.6284 15.0842 13.6284 14.2105C13.6284 13.3368 14.4585 12.6316 15.4868 12.6316C16.5151 12.6316 17.3452 13.3368 17.3452 14.2105C17.3452 15.0842 16.5151 15.7895 15.4868 15.7895ZM17.3452 9.47368H2.47789V4.21053H17.3452V9.47368Z" fill="#E4C430"/>
</svg>
