<svg width="32" height="32" viewBox="0 0 32 32" fill="none" xmlns="http://www.w3.org/2000/svg">
<path d="M8 5.81836C6.78982 5.81836 5.81818 6.79 5.81818 8.00018C5.81818 9.21036 6.78982 10.182 8 10.182H11.6364L10.2982 14.5456H5.09091C3.88363 14.5456 2.90909 15.5202 2.90909 16.7275C2.90909 17.9347 3.88363 18.9093 5.09091 18.9093H8.94836L5.81818 29.0911H8.72727L11.8575 18.9093H20.1425L23.2727 29.0911H26.1818L23.0516 18.9093H26.9091C28.1164 18.9093 29.0909 17.9347 29.0909 16.7275C29.0909 15.5202 28.1164 14.5456 26.9091 14.5456H21.7018L20.3636 10.182H24C25.2073 10.182 26.1818 9.21036 26.1818 8.00018C26.1818 6.79 25.2073 5.81836 24 5.81836H8ZM14.5455 10.182H17.4545L18.7927 14.5456H13.2073L14.5455 10.182Z" fill="#A2792C"/>
</svg>
