<svg width="32" height="32" viewBox="0 0 32 32" fill="none" xmlns="http://www.w3.org/2000/svg">
<path d="M30.5146 1.92762L31.8958 0H16.0997L17.481 1.92762C18.2213 2.96069 18.6198 4.19788 18.6369 5.45581H29.3582C29.3752 4.19944 29.7738 2.96137 30.5146 1.92762Z" fill="#A2792C"/>
<path d="M27.9787 25.6429L23.9973 23.7662L20.0162 25.6429L16.3177 23.2217C16.6738 24.6777 17.3181 26.0626 18.2336 27.3039L19.5422 29.0781H28.4532L29.7618 27.3039C30.6297 26.1272 31.2542 24.8051 31.6197 23.4168L27.9787 25.6429Z" fill="#A2792C"/>
<path d="M20.5738 18.603C19.1668 20.2836 17.5233 20.8605 16.3856 21.0483L20.0163 23.4923L23.9974 21.6157L27.9788 23.4923L31.9881 21.0013C32.0293 20.0835 31.9613 19.1569 31.7781 18.242L30.8833 13.7725H22.0491C22.0851 15.1395 21.8554 17.0723 20.5738 18.603Z" fill="#A2792C"/>
<path d="M21.3547 9.10434L21.8312 11.8958H30.5076L29.5939 7.33203H18.4055L17.7611 10.6597C18.1199 10.561 21.3547 9.10434 21.3547 9.10434Z" fill="#A2792C"/>
<path d="M15.9701 19.2825C16.8305 19.168 18.0838 18.7546 19.1841 17.4404C20.7103 15.6174 19.9634 11.7266 19.9634 11.7266L19.1243 12.1072C19.1108 12.1133 17.7506 12.7199 16.1048 12.695C15.2551 12.6799 14.446 13.0009 13.8399 13.6071C12.709 14.7379 12.8713 16.0616 12.8684 16.1807L15.9701 19.2825Z" fill="#A2792C"/>
<path d="M9.68817 19.4512L11.5854 17.5539L14.443 20.4115L12.5457 22.3087L9.68817 19.4512Z" fill="#A2792C"/>
<path d="M8.3642 20.7793L0.592197 28.5513C0.210509 28.933 0.000259399 29.4405 0.000259399 29.9803C0.000321899 30.5201 0.210509 31.0276 0.592259 31.4093C0.986197 31.8033 1.50376 32.0002 2.02126 32.0002C2.53876 32.0002 3.05626 31.8033 3.45026 31.4093L11.2222 23.6374L8.3642 20.7793Z" fill="#A2792C"/>
</svg>
