<svg width="28" height="30" viewBox="0 0 28 30" fill="none" xmlns="http://www.w3.org/2000/svg">
<path d="M24.6668 27.0006C22.9468 27.0006 21.2268 26.454 19.6801 25.4806C19.4668 25.3473 19.1868 25.3473 18.9735 25.4806C15.8935 27.4407 12.0935 27.4407 9.01347 25.4806C8.80014 25.3473 8.52014 25.3473 8.30681 25.4806C6.77347 26.454 5.05347 27.0006 3.33347 27.0006H2.00014C1.26681 27.0006 0.666806 27.6006 0.666806 28.334C0.666806 29.0673 1.26681 29.6673 2.00014 29.6673H3.33347C5.17347 29.6673 6.98681 29.2006 8.66681 28.3473C10.3168 29.1951 12.1451 29.6374 14.0001 29.6374C15.8552 29.6374 17.6835 29.1951 19.3335 28.3473C21.0135 29.214 22.8268 29.6673 24.6668 29.6673H26.0001C26.7335 29.6673 27.3335 29.0673 27.3335 28.334C27.3335 27.6006 26.7335 27.0006 26.0001 27.0006H24.6668ZM3.26681 24.334H3.33347C5.22681 24.334 6.93347 23.4007 8.21347 22.1473C8.46681 21.9073 8.88014 21.9073 9.13347 22.1473C10.4001 23.4007 12.1068 24.334 14.0001 24.334C15.8935 24.334 17.6001 23.4007 18.8801 22.1473C19.1335 21.894 19.5335 21.894 19.8001 22.1473C21.0668 23.4007 22.7735 24.334 24.6668 24.334H24.7335L27.2535 15.4273C27.3601 15.0806 27.3335 14.7073 27.1735 14.3873C27.0135 14.0673 26.7201 13.8273 26.3735 13.7206L24.6668 13.1607V7.00065C24.6668 5.53398 23.4668 4.33398 22.0001 4.33398H18.0001V1.66732C18.0001 0.933984 17.4001 0.333984 16.6668 0.333984H11.3335C10.6001 0.333984 10.0001 0.933984 10.0001 1.66732V4.33398H6.00014C4.53347 4.33398 3.33347 5.53398 3.33347 7.00065V13.1607L1.61347 13.7206C1.44248 13.7732 1.2837 13.8593 1.14647 13.9741C1.00924 14.0888 0.896318 14.2298 0.814339 14.3888C0.732361 14.5478 0.682978 14.7216 0.669091 14.8999C0.655204 15.0782 0.677093 15.2576 0.733472 15.4273L3.26681 24.334ZM7.33347 7.00065H20.6668C21.4001 7.00065 22.0001 7.60065 22.0001 8.33398V12.294L14.8268 9.93398C14.2801 9.76065 13.7068 9.76065 13.1601 9.93398L6.00014 12.294V8.33398C6.00014 7.60065 6.60014 7.00065 7.33347 7.00065Z" fill="#A2792C"/>
</svg>
