<svg width="16" height="16" viewBox="0 0 16 16" fill="none" xmlns="http://www.w3.org/2000/svg">
<path d="M8.00017 1.3335C6.68162 1.3335 5.39269 1.72449 4.29636 2.45703C3.20004 3.18957 2.34555 4.23077 1.84097 5.44894C1.33638 6.66711 1.20436 8.00756 1.4616 9.30077C1.71883 10.594 2.35377 11.7819 3.28612 12.7142C4.21847 13.6466 5.40636 14.2815 6.69956 14.5387C7.99277 14.796 9.33321 14.6639 10.5514 14.1594C11.7696 13.6548 12.8108 12.8003 13.5433 11.704C14.2758 10.6076 14.6668 9.31871 14.6668 8.00016C14.6668 7.12468 14.4944 6.25778 14.1594 5.44894C13.8243 4.6401 13.3333 3.90517 12.7142 3.28612C12.0952 2.66706 11.3602 2.176 10.5514 1.84097C9.74255 1.50593 8.87564 1.3335 8.00017 1.3335ZM8.00017 13.3335C6.94533 13.3335 5.91419 13.0207 5.03712 12.4347C4.16006 11.8486 3.47648 11.0157 3.07281 10.0411C2.66914 9.0666 2.56352 7.99425 2.76931 6.95968C2.9751 5.92512 3.48305 4.97481 4.22893 4.22893C4.97481 3.48305 5.92512 2.9751 6.95968 2.76931C7.99425 2.56352 9.0666 2.66914 10.0411 3.07281C11.0157 3.47647 11.8486 4.16006 12.4347 5.03712C13.0207 5.91418 13.3335 6.94533 13.3335 8.00016C13.3335 9.41465 12.7716 10.7712 11.7714 11.7714C10.7712 12.7716 9.41465 13.3335 8.00017 13.3335Z" fill="#4F4F4F" fill-opacity="0.63"/>
<path d="M8.00033 4.00004C7.38149 4.00004 6.78799 4.24588 6.35041 4.68346C5.91282 5.12105 5.66699 5.71454 5.66699 6.33338C5.66699 6.51019 5.73723 6.67976 5.86225 6.80478C5.98728 6.92981 6.15685 7.00004 6.33366 7.00004C6.51047 7.00004 6.68004 6.92981 6.80506 6.80478C6.93009 6.67976 7.00033 6.51019 7.00033 6.33338C7.00033 6.1356 7.05897 5.94226 7.16886 5.77781C7.27874 5.61336 7.43492 5.48519 7.61764 5.4095C7.80037 5.33381 8.00143 5.31401 8.19542 5.35259C8.3894 5.39118 8.56758 5.48642 8.70743 5.62627C8.84728 5.76612 8.94253 5.94431 8.98111 6.13829C9.0197 6.33227 8.99989 6.53334 8.9242 6.71606C8.84852 6.89879 8.72034 7.05497 8.5559 7.16485C8.39145 7.27473 8.19811 7.33338 8.00033 7.33338C7.82351 7.33338 7.65395 7.40362 7.52892 7.52864C7.4039 7.65366 7.33366 7.82323 7.33366 8.00004V9.33338C7.33366 9.51019 7.4039 9.67976 7.52892 9.80478C7.65395 9.92981 7.82351 10 8.00033 10C8.17714 10 8.34671 9.92981 8.47173 9.80478C8.59675 9.67976 8.66699 9.51019 8.66699 9.33338V8.56004C9.20573 8.40271 9.66944 8.05595 9.97265 7.58367C10.2759 7.11139 10.3981 6.54542 10.317 5.99009C10.2358 5.43475 9.95658 4.92748 9.53085 4.56177C9.10512 4.19606 8.56155 3.99656 8.00033 4.00004Z" fill="#4F4F4F" fill-opacity="0.63"/>
<path d="M8.00016 12.0003C8.36835 12.0003 8.66683 11.7018 8.66683 11.3337C8.66683 10.9655 8.36835 10.667 8.00016 10.667C7.63197 10.667 7.3335 10.9655 7.3335 11.3337C7.3335 11.7018 7.63197 12.0003 8.00016 12.0003Z" fill="#4F4F4F" fill-opacity="0.63"/>
</svg>
