<svg width="28" height="28" viewBox="0 0 28 28" fill="none" xmlns="http://www.w3.org/2000/svg">
<path d="M13.9997 2.33301C11.6922 2.33301 9.4366 3.01725 7.51803 4.2992C5.59945 5.58115 4.10411 7.40323 3.22109 9.53503C2.33806 11.6668 2.10702 14.0126 2.55718 16.2757C3.00735 18.5388 4.11849 20.6176 5.7501 22.2493C7.38171 23.8809 9.46051 24.992 11.7236 25.4422C13.9867 25.8923 16.3325 25.6613 18.4643 24.7783C20.5961 23.8952 22.4182 22.3999 23.7002 20.4813C24.9821 18.5628 25.6663 16.3071 25.6663 13.9997C25.6663 12.4676 25.3646 10.9505 24.7783 9.53503C24.192 8.11957 23.3326 6.83345 22.2493 5.7501C21.1659 4.66675 19.8798 3.80738 18.4643 3.22108C17.0489 2.63478 15.5318 2.33301 13.9997 2.33301ZM13.9997 23.333C12.1537 23.333 10.3492 22.7856 8.81436 21.7601C7.2795 20.7345 6.08322 19.2768 5.3768 17.5714C4.67039 15.8659 4.48556 13.9893 4.84568 12.1788C5.20581 10.3683 6.09473 8.7053 7.40002 7.40001C8.70531 6.09472 10.3683 5.20581 12.1788 4.84568C13.9893 4.48555 15.8659 4.67038 17.5714 5.3768C19.2768 6.08322 20.7345 7.27949 21.7601 8.81435C22.7856 10.3492 23.333 12.1537 23.333 13.9997C23.333 16.475 22.3497 18.849 20.5993 20.5993C18.849 22.3497 16.475 23.333 13.9997 23.333Z" fill="white"/>
<path d="M13.9998 7.00008C12.9169 7.00008 11.8783 7.43029 11.1125 8.19606C10.3467 8.96183 9.9165 10.0004 9.9165 11.0834C9.9165 11.3928 10.0394 11.6896 10.2582 11.9084C10.477 12.1272 10.7738 12.2501 11.0832 12.2501C11.3926 12.2501 11.6893 12.1272 11.9081 11.9084C12.1269 11.6896 12.2498 11.3928 12.2498 11.0834C12.2498 10.7373 12.3525 10.399 12.5448 10.1112C12.7371 9.82338 13.0104 9.59908 13.3301 9.46662C13.6499 9.33417 14.0018 9.29951 14.3412 9.36704C14.6807 9.43456 14.9925 9.60123 15.2373 9.84597C15.482 10.0907 15.6487 10.4025 15.7162 10.742C15.7837 11.0815 15.7491 11.4333 15.6166 11.7531C15.4842 12.0729 15.2599 12.3462 14.9721 12.5385C14.6843 12.7308 14.346 12.8334 13.9998 12.8334C13.6904 12.8334 13.3937 12.9563 13.1749 13.1751C12.9561 13.3939 12.8332 13.6907 12.8332 14.0001V16.3334C12.8332 16.6428 12.9561 16.9396 13.1749 17.1584C13.3937 17.3772 13.6904 17.5001 13.9998 17.5001C14.3093 17.5001 14.606 17.3772 14.8248 17.1584C15.0436 16.9396 15.1665 16.6428 15.1665 16.3334V14.9801C16.1093 14.7048 16.9208 14.0979 17.4514 13.2714C17.982 12.4449 18.196 11.4545 18.0539 10.4827C17.9119 9.51082 17.4233 8.62309 16.6783 7.9831C15.9332 7.34311 14.982 6.99398 13.9998 7.00008Z" fill="white"/>
<path d="M13.9997 20.9993C14.644 20.9993 15.1663 20.477 15.1663 19.8327C15.1663 19.1883 14.644 18.666 13.9997 18.666C13.3553 18.666 12.833 19.1883 12.833 19.8327C12.833 20.477 13.3553 20.9993 13.9997 20.9993Z" fill="white"/>
</svg>
