<svg width="21" height="21" viewBox="0 0 21 21" fill="none" xmlns="http://www.w3.org/2000/svg">
<path d="M18.9452 10.1599C18.9854 5.5601 15.2848 1.79426 10.685 1.75404C6.0852 1.71383 2.31936 5.41438 2.27915 10.0142C2.23893 14.614 5.93948 18.3799 10.5393 18.4201C15.1391 18.4603 18.905 14.7597 18.9452 10.1599ZM3.94575 10.0288C3.97795 6.34558 6.98726 3.38844 10.6704 3.42065C14.3536 3.45285 17.3108 6.46215 17.2786 10.1453C17.2464 13.8285 14.2371 16.7857 10.5539 16.7535C6.87068 16.7213 3.91354 13.712 3.94575 10.0288Z" fill="#A2792C"/>
<path d="M6.44565 10.0506C6.42553 12.3517 8.27463 14.2334 10.5757 14.2536C12.8768 14.2737 14.7585 12.4246 14.7787 10.1235C14.7988 7.82238 12.9497 5.94066 10.6486 5.92054C8.34749 5.90042 6.46577 7.74952 6.44565 10.0506Z" fill="#A2792C"/>
</svg>
