<svg width="30" height="32" viewBox="0 0 30 32" fill="none" xmlns="http://www.w3.org/2000/svg">
<path d="M15.9375 18.066C19.0041 17.2256 21.1768 21.0046 18.9471 23.2342C14.5403 27.3137 15.0388 26.8523 15 26.8882L11.0529 23.2342C8.82237 21.0038 10.9971 17.2261 14.0625 18.066V15.9375H2.8125V32H27.1875V15.9375H15.9375V18.066Z" fill="#A2792C"/>
<path d="M12.0217 21.0468C12.0217 21.9659 12.7749 22.1172 14.9999 24.3334L17.6322 21.8972C18.0968 21.4209 18.0943 20.6584 17.6212 20.1852C17.145 19.7091 16.3743 19.7091 15.8982 20.1852L14.9999 21.0837C14.2627 20.4386 14.0125 19.8285 13.2401 19.8285C12.5668 19.8284 12.0217 20.3733 12.0217 21.0468Z" fill="#A2792C"/>
<path d="M16.9306 9.375L22.387 6.89481C24.3201 6.01613 25.0804 3.66169 24.0271 1.81856C23.3798 0.685688 22.2144 0.005875 20.9096 6.25e-05C19.6067 -0.0061875 18.4334 0.663625 17.7761 1.79062L15 6.5495L12.224 1.79062C11.5694 0.668375 10.4053 0 9.10725 0C5.24194 0 4.094 5.29531 7.613 6.89481L13.0694 9.375H0V14.0625H30V9.375H16.9306ZM19.3956 2.73537C19.7101 2.19619 20.2695 1.875 20.8932 1.875H20.9013C21.5282 1.87781 22.0882 2.20444 22.3992 2.74875C22.9024 3.6295 22.5486 4.76175 21.6111 5.18781L16.6493 7.44319L19.3956 2.73537ZM9.10688 1.875C9.7305 1.875 10.2899 2.19619 10.6044 2.73537L13.3507 7.44325L8.38888 5.18787C6.69163 4.41644 7.25531 1.875 9.10688 1.875Z" fill="#A2792C"/>
</svg>
