<svg width="20" height="20" viewBox="0 0 20 20" fill="none" xmlns="http://www.w3.org/2000/svg">
<path d="M11.9994 3.75C13.6557 3.75 14.9994 2.91016 14.9994 1.875C14.9994 0.839844 13.6557 0 11.9994 0C10.3432 0 8.99941 0.839844 8.99941 1.875C8.99941 2.91016 10.3432 3.75 11.9994 3.75ZM17.9057 9.57422L16.4494 9.11328L15.8432 7.96484C14.9244 6.22266 12.3619 5.00391 9.45566 5C7.20566 4.99609 5.96191 5.39453 3.62441 5.98438C2.27441 6.32422 1.16816 6.96875 0.518164 7.78906L0.0994141 8.32031C-0.388086 8.9375 0.00566411 9.6875 0.986914 9.99609C1.96191 10.3047 3.14941 10.0547 3.64316 9.4375L4.06191 8.90625C4.28066 8.63281 4.64316 8.41797 5.09316 8.30469L6.76816 7.88281L5.81816 10.2539C5.49316 11.0664 5.84316 11.9297 6.74941 12.5508L10.4932 15.1055C10.9432 15.4141 11.2619 15.7852 11.4244 16.1875L12.5682 19.0508C12.8369 19.7188 13.9244 20.1289 14.9932 19.9609C16.0619 19.793 16.7182 19.1133 16.4494 18.4453L15.0619 14.9688C14.8994 14.5664 14.5807 14.1914 14.1307 13.8867L11.2869 11.9453L12.3619 9.26172L12.7057 9.90625C13.0369 10.5352 13.7494 11.0547 14.6869 11.3516L16.1432 11.8125C17.1182 12.1211 18.3057 11.8711 18.7994 11.2539C19.2807 10.6406 18.8869 9.88281 17.9057 9.57422ZM3.59941 15.0703C3.39941 15.3867 3.09941 15.6719 2.71191 15.9102L-0.413086 17.8672C-1.19434 18.3555 -1.19434 19.1484 -0.413086 19.6367C0.368164 20.125 1.63066 20.125 2.41191 19.6367L6.12441 17.3164C6.50566 17.0781 6.80566 16.793 7.01191 16.4766L7.85566 15.1562C4.39941 12.8008 5.43691 13.5234 4.89316 13.0586L3.59941 15.0703Z" fill="#E2C022"/>
</svg>
