<svg width="30" height="32" viewBox="0 0 30 32" fill="none" xmlns="http://www.w3.org/2000/svg">
<path d="M29.0799 31.3606C28.4706 31.3606 27.8742 31.2198 27.3487 30.9785C26.7896 30.7141 26.179 30.5765 25.5606 30.5753C24.9295 30.5753 24.3202 30.7238 23.7807 30.9785C23.2346 31.2281 22.6416 31.3584 22.0412 31.3606C21.4306 31.3606 20.8354 31.2198 20.3081 30.9785C19.7494 30.7141 19.1393 30.5765 18.5212 30.5753C17.9047 30.5772 17.2961 30.7149 16.7388 30.9785C16.1941 31.2283 15.6023 31.3585 15.0031 31.3606C14.3862 31.3606 13.7974 31.2198 13.2674 30.9785C12.7097 30.7148 12.1007 30.5771 11.4838 30.5753C10.8457 30.5753 10.2351 30.7238 9.6956 30.9785C9.15096 31.2291 8.55877 31.3594 7.95928 31.3606C7.34616 31.3606 6.75352 31.2198 6.22488 30.9785C5.66672 30.7147 5.0573 30.577 4.43992 30.5753C3.80504 30.5753 3.19512 30.7238 2.65496 30.9785C2.11066 31.2287 1.51896 31.359 0.919922 31.3606V28.7353C1.53688 28.7353 2.12568 28.5945 2.65496 28.3533C3.21463 28.0947 3.8234 27.9596 4.43992 27.9571C5.05643 27.9597 5.66517 28.0948 6.22488 28.3533C6.76909 28.603 7.3605 28.7333 7.95928 28.7353C8.57688 28.7353 9.16888 28.5945 9.69496 28.3533C10.2556 28.0943 10.8655 27.9591 11.4831 27.9571C12.1167 27.9571 12.7273 28.1056 13.2668 28.3533C13.8114 28.6033 14.4033 28.7336 15.0025 28.7353C15.6156 28.7353 16.2082 28.5945 16.7382 28.3533C17.2971 28.0951 17.9049 27.96 18.5206 27.9571C19.1586 27.9571 19.7692 28.1056 20.3074 28.3533C20.8512 28.603 21.4422 28.7333 22.0406 28.7353C22.6562 28.7353 23.2463 28.5945 23.7801 28.3533C24.3381 28.095 24.9451 27.9599 25.5599 27.9571C26.1993 27.9571 26.8086 28.1056 27.3481 28.3533C27.8912 28.603 28.4815 28.7333 29.0793 28.7353V31.3606H29.0799ZM17.5599 0.640625V20.4806H1.7436L17.5599 0.640625ZM19.4799 5.19679C19.4799 7.41183 29.622 13.4406 28.8834 20.4806H19.4799V5.19679ZM26.8572 21.7606H5.39992V25.7286C6.03992 25.7926 5.94136 25.8637 6.1596 25.9699C6.71721 26.2137 7.31872 26.3411 7.92728 26.3443C8.54488 26.3443 9.15352 26.2035 9.6796 25.9699C10.2416 25.7053 10.8549 25.5677 11.4761 25.5667C12.1097 25.5667 12.7241 25.7145 13.2636 25.9699C13.8106 26.2139 14.4023 26.3414 15.0012 26.3443C15.6143 26.3443 16.2076 26.2035 16.7375 25.9699C17.2951 25.7063 17.9038 25.5686 18.5206 25.5667C19.1389 25.5672 19.7494 25.7049 20.3081 25.9699C20.8536 26.2136 21.4438 26.3411 22.0412 26.3443C22.1609 26.3443 22.2716 26.3161 22.3842 26.3021L22.413 26.3161L22.623 26.2809C22.7631 26.2598 22.9026 26.2451 23.0434 26.2105C24.3042 25.9488 25.1196 24.9267 25.1196 24.9267L27.574 21.7606H26.8572Z" fill="#A2792C"/>
</svg>
