<svg width="96" height="76" viewBox="0 0 96 76" fill="none" xmlns="http://www.w3.org/2000/svg">
<path d="M93.1814 69.9074H87.5077V32.3813C87.5077 30.8273 86.2457 29.5674 84.6891 29.5674H69.1265C67.5699 29.5674 66.308 30.8273 66.308 32.3813V69.9074H58.5999V21.2328C58.5999 19.6788 57.338 18.4189 55.7814 18.4189H40.2188C38.6622 18.4189 37.4002 19.6788 37.4002 21.2328V69.9074H29.6922V29.4035C29.6922 27.8494 28.4303 26.5896 26.8736 26.5896H11.3109C9.75428 26.5896 8.49234 27.8494 8.49234 29.4035V69.9074H2.81859C1.26194 69.9074 0 71.1673 0 72.7213C0 74.2754 1.26194 75.5352 2.81859 75.5352H93.1814C94.7381 75.5352 96 74.2754 96 72.7213C96 71.1673 94.7381 69.9074 93.1814 69.9074ZM14.1295 69.9074V32.2174H24.0551V69.9074H14.1295ZM43.0372 69.9074V24.0467H52.9628V69.9074H43.0372ZM71.9451 69.9074V35.1952H81.8707V69.9074H71.9451Z" fill="#A2792C"/>
<path d="M93.9402 11.1721C94.0336 9.99609 93.3482 8.552 91.7786 8.18675L82.6869 5.97691C81.1762 5.60866 79.655 6.53631 79.2881 8.04643C78.921 9.55656 79.8475 11.0783 81.3576 11.4452L83.9291 12.0703L76.6396 16.5686L49.0004 0.83329C48.2058 0.380628 47.2401 0.342547 46.4128 0.731427L18.939 13.627L5.80544 5.43045C4.48722 4.6071 2.75142 5.0093 1.92845 6.3277C1.10567 7.64592 1.50749 9.38172 2.8259 10.2047L17.2586 19.212C18.0684 19.7175 19.0795 19.7779 19.9439 19.3722L47.4835 6.44551L75.3055 22.2849C76.0294 22.6646 77.0385 22.8614 78.1755 22.2341L87.012 16.781L86.4235 19.5371C85.776 23.2032 90.9657 24.2443 91.9272 20.7125L93.8777 11.5779C93.8999 11.4499 93.9081 11.4679 93.9402 11.1721Z" fill="#333333"/>
</svg>
