<svg width="32" height="26" viewBox="0 0 32 26" fill="none" xmlns="http://www.w3.org/2000/svg">
<path d="M31.529 16.3761C31.4561 15.949 31.1082 15.4157 30.7256 15.2677C30.1291 15.036 29.0994 14.7712 27.5127 14.7712C26.0387 14.7712 23.9565 14.1649 22.1546 13.2494C21.8618 13.1014 21.3847 13.0746 21.0973 13.2351C20.6936 13.4611 20.184 13.7965 19.5546 14.2941C19.4546 14.3722 19.3388 14.4102 19.2243 14.4102C19.055 14.4102 18.8887 14.3285 18.7794 14.1729C18.5966 13.9126 18.6477 13.5435 18.8928 13.3499C19.2919 13.0352 19.6527 12.7754 19.9795 12.5612C20.2557 12.3796 20.2669 12.0929 20.0101 11.8824C19.9572 11.8394 19.9049 11.7951 19.8543 11.7513C19.6022 11.534 19.1808 11.4697 18.9052 11.6514C18.6172 11.8419 18.2911 12.0767 17.9232 12.367C17.8245 12.4445 17.7087 12.4831 17.5935 12.4831C17.4243 12.4831 17.2573 12.4007 17.1487 12.2453C16.9653 11.9848 17.0164 11.6164 17.2621 11.4222C17.6024 11.153 17.9145 10.9257 18.2018 10.7322C18.4763 10.5474 18.6814 10.3669 18.6538 10.312C18.6373 10.2782 18.6209 10.2452 18.6056 10.2114C18.5121 10.0034 18.42 9.76058 18.3282 9.48893C18.2195 9.1636 17.9127 9.02876 17.6371 9.21166C17.3579 9.39712 17.0441 9.62384 16.6926 9.90163C16.5939 9.97966 16.4782 10.0178 16.3624 10.0178C16.1937 10.0178 16.0262 9.93598 15.9174 9.78049C15.7352 9.52008 15.7858 9.151 16.0309 8.95686C16.5169 8.57342 16.9465 8.27252 17.3256 8.0358C17.6054 7.86099 17.7758 7.46443 17.7017 7.12852C17.6788 7.02424 17.6559 6.91871 17.6336 6.81319C17.5619 6.47663 17.2621 6.30737 16.9747 6.46788C16.5704 6.69388 16.0597 7.02926 15.4279 7.52881C15.3286 7.60685 15.2128 7.64498 15.0982 7.64498C14.929 7.64498 14.7627 7.56316 14.6533 7.40768C14.4705 7.14726 14.5217 6.7789 14.7673 6.58463C15.5678 5.95207 16.2184 5.5412 16.7391 5.27706C17.0323 5.12844 17.2304 4.76008 17.171 4.42097C16.9771 3.3176 16.8242 2.31974 16.7296 1.67033C16.6668 1.24196 16.2882 0.924797 15.895 1.03907C15.4055 1.18077 14.7579 1.4568 14.2524 1.99004C13.9627 2.2948 13.8046 2.9623 13.8046 3.39563V4.32727C13.8046 4.32727 12.5122 4.76876 9.32807 4.7194C6.14271 4.67068 6.14271 4.67068 6.14271 4.67068C6.14271 4.67068 6.25377 2.58447 5.18063 0.703691C4.96964 0.333438 4.47305 0.240385 4.12218 0.460186L2.99367 1.16732C2.64219 1.38712 2.57403 1.83482 2.77617 2.21134C3.27983 3.14925 3.96331 5.07561 3.15703 7.77754C2.63217 9.54032 1.897 10.6681 1.26698 11.6615C3.70125 12.4808 9.12692 14.8974 9.12692 20.1345H8.01912C8.01912 15.5161 2.68103 13.3519 0.651101 12.6956C0.204416 13.5311 -0.0770661 14.3978 0.0186871 15.623C0.264954 18.7614 0.634568 19.9384 0.634568 19.9384L0.585831 22.38C0.579378 22.6922 0.804441 23.0126 1.0901 23.0825C1.94813 23.2916 3.72891 23.6451 5.28161 23.4334C5.57311 23.394 5.80586 23.0843 5.80586 22.7715V22.6597C5.80586 22.3469 6.04327 22.0846 6.33717 22.0728L6.85846 22.0509C7.1523 22.0385 7.38978 22.2813 7.38978 22.5936V22.9339C7.38978 23.2461 7.61779 23.5726 7.90696 23.6308C8.47232 23.7444 9.45437 23.8562 10.6104 23.6239C10.8989 23.5658 11.1287 23.2461 11.1287 22.9339V22.8391C11.1287 22.5268 11.3626 22.322 11.6483 22.3926C12.3453 22.5649 13.5953 22.9227 14.471 23.4497C14.7266 23.6027 14.9141 23.9979 14.9141 24.292C14.9141 24.5862 15.1445 24.8852 15.4318 24.9527C16.1142 25.1119 17.3107 25.3498 18.0219 25.2593C18.3139 25.2224 18.5137 24.8159 18.5137 24.5037V24.2121C18.5137 23.8999 18.7518 23.6475 19.0456 23.6475H19.2284C19.5222 23.6475 19.7603 23.8998 19.7603 24.2121V24.7147C19.7603 25.0269 19.9795 25.3798 20.2627 25.4609C20.8363 25.6277 21.8372 25.8 22.9497 25.4647C23.2324 25.3798 23.4517 25.027 23.4517 24.7148V24.3114C23.4517 23.9986 23.6897 23.7363 23.983 23.725L24.1663 23.7182C24.4601 23.7063 24.6976 23.9499 24.6976 24.2621V24.3576C24.6976 24.6698 24.9357 24.9065 25.226 24.8584C25.715 24.7779 26.459 24.6005 27.079 24.2183C27.3329 24.0617 27.5121 23.6732 27.5121 23.4022C27.5121 23.1318 27.7413 22.8421 28.024 22.7572L28.6158 22.5773C28.8985 22.4917 29.1277 22.6747 29.1277 22.9869V23.0338C29.1277 23.346 29.364 23.5677 29.6508 23.4971C30.4089 23.3085 31.7465 22.8071 31.9434 21.5876C32.1472 20.3256 31.7523 17.6849 31.529 16.3761Z" fill="#A2792C"/>
</svg>
