<svg width="60" height="60" viewBox="0 0 60 60" fill="none" xmlns="http://www.w3.org/2000/svg">
<path d="M25 45C29.4374 44.9991 33.747 43.5136 37.2425 40.78L48.2325 51.77L51.7675 48.235L40.7775 37.245C43.5125 33.7492 44.9989 29.4386 45 25C45 13.9725 36.0275 5 25 5C13.9725 5 5 13.9725 5 25C5 36.0275 13.9725 45 25 45ZM25 10C33.2725 10 40 16.7275 40 25C40 33.2725 33.2725 40 25 40C16.7275 40 10 33.2725 10 25C10 16.7275 16.7275 10 25 10Z" fill="#4F4F4F" fill-opacity="0.63"/>
<path d="M28.5296 21.4657C29.4771 22.4157 29.9996 23.6707 29.9996 25.0007H34.9996C35.0018 23.6868 34.7435 22.3854 34.2398 21.1719C33.736 19.9584 32.9967 18.8568 32.0646 17.9307C28.2796 14.1507 21.7171 14.1507 17.9346 17.9307L21.4646 21.4707C23.3646 19.5757 26.6396 19.5807 28.5296 21.4657Z" fill="#4F4F4F" fill-opacity="0.63"/>
</svg>
