<svg width="36" height="36" viewBox="0 0 36 36" fill="none" xmlns="http://www.w3.org/2000/svg">
<g clip-path="url(#clip0)">
<path d="M24.3737 30.271L20.5203 7.77016C20.9083 7.72621 21.2488 7.45185 21.3568 7.05206C21.486 6.57316 21.2609 6.01094 20.5797 5.82715C20.526 6.04469 20.5865 5.86202 19.3373 9.22428L22.9825 30.5092C23.0483 30.8933 23.413 31.1515 23.7972 31.0857C24.1814 31.0199 24.4395 30.6552 24.3737 30.271Z" fill="#A2792C"/>
<path d="M17.0002 11.9834L19.3347 5.69975C19.626 4.91563 19.2265 4.04376 18.4423 3.75245C17.6582 3.46115 16.7863 3.86059 16.495 4.64479L14.6242 9.68027L9.91023 8.59043L13.4658 8.69871C13.0383 7.75498 12.0002 7.20022 10.9445 7.42247L7.00359 8.25202C5.78311 8.50887 5.00194 9.70657 5.25886 10.927L7.54598 21.7937L7.23604 27.0725L3.47399 33.3257C2.97168 34.1606 3.24132 35.2446 4.07628 35.747C4.91138 36.2494 5.99538 35.9796 6.49762 35.1447L10.4836 28.5192C10.6307 28.2746 10.7164 27.998 10.7332 27.7131L11.0957 21.5393L12.5371 21.2359L14.4808 25.9642L14.5657 34.2533C14.5757 35.2126 15.3542 36.0057 16.348 35.9995C17.3224 35.9895 18.1041 35.1915 18.0942 34.2172L18.0058 25.5891C18.0035 25.3651 17.9585 25.1436 17.8734 24.9364L15.9583 20.2776L14.6331 13.9812L9.22827 11.5419L15.2395 12.9317C15.9811 13.1031 16.7349 12.6973 17.0002 11.9834Z" fill="#A2792C"/>
<path d="M15.2509 4.38891C15.0718 3.79161 14.5973 3.2978 13.951 3.12343C13.0583 2.88254 12.1425 3.3331 11.7711 4.14753C11.889 3.6732 11.9043 3.16562 11.7969 2.65522C11.4166 0.848407 9.64363 -0.307947 7.83689 0.0723715C6.03008 0.45269 4.87372 2.22561 5.25404 4.03236C5.63436 5.83924 7.40735 6.99559 9.21403 6.61527C10.3574 6.3746 11.2396 5.57599 11.6375 4.56434C11.45 5.51658 12.029 6.46488 12.9802 6.72152C13.5227 6.86791 14.0736 6.7585 14.5059 6.46776C14.7854 5.7157 14.9992 5.13998 15.2758 4.39559L15.2509 4.38891Z" fill="#A2792C"/>
<path d="M31.9481 1.20466L31.9478 1.20326C31.361 1.33643 27.3906 2.23755 26.6942 2.39561L26.6961 2.40426C26.4917 2.4963 26.3491 2.70154 26.3491 2.94032V6.93476C26.1653 6.88716 25.9677 6.861 25.7616 6.861C24.7876 6.861 23.998 7.44023 23.998 8.15481C23.998 8.8694 24.7876 9.44863 25.7616 9.44863C26.8086 9.44863 27.4938 8.78959 27.5126 8.00182C27.5147 7.9135 27.5217 7.22634 27.5253 4.45843L31.6028 3.53298V5.73432C31.419 5.68672 31.2214 5.66056 31.0154 5.66056C30.0413 5.66056 29.2517 6.23979 29.2517 6.95437C29.2517 7.66896 30.0413 8.24819 31.0154 8.24819C32.0621 8.24819 32.7475 7.58936 32.7663 6.80137C32.7685 6.71131 32.7732 6.30005 32.7791 1.74002C32.7789 1.31379 32.338 1.02755 31.9481 1.20466Z" fill="#A2792C"/>
</g>
<defs>
<clipPath id="clip0">
<rect width="36" height="36" fill="white"/>
</clipPath>
</defs>
</svg>
