<svg width="50" height="50" viewBox="0 0 50 50" fill="none" xmlns="http://www.w3.org/2000/svg">
<path d="M29.94 14.5474H20.0598C17.5044 14.5474 15.4255 16.6263 15.4255 19.1816V21.8495H34.5744V19.1816C34.5744 16.6265 32.4954 14.5474 29.94 14.5474Z" fill="#979797"/>
<path d="M41.1067 0.480957H8.89331C5.68394 0.480957 3.073 3.09199 3.073 6.30137V22.0846C3.70552 21.9324 4.3645 21.8496 5.04302 21.8496H12.0435V19.1817C12.0435 14.7614 15.6397 11.1652 20.06 11.1652H29.9402C34.3605 11.1652 37.9567 14.7614 37.9567 19.1817V21.8496H44.9572C45.6357 21.8496 46.2949 21.9323 46.9273 22.0846V6.30137C46.9271 3.09199 44.3161 0.480957 41.1067 0.480957Z" fill="#979797"/>
<path d="M44.957 25.2319H36.2655H13.7345H5.04297C2.26221 25.2318 0 27.4941 0 30.2749V40.3561H50V30.2749C50 27.4941 47.7378 25.2319 44.957 25.2319Z" fill="#979797"/>
<path d="M3.073 43.7378V47.8278C3.073 48.7617 3.83013 49.5189 4.76411 49.5189C5.6981 49.5189 6.45523 48.7618 6.45523 47.8278V43.7378H3.073Z" fill="#979797"/>
<path d="M43.5449 43.7378V47.8278C43.5449 48.7617 44.3021 49.5189 45.236 49.5189C46.17 49.5189 46.9271 48.7618 46.9271 47.8278V43.7378H43.5449Z" fill="#979797"/>
</svg>
