<svg width="32" height="32" viewBox="0 0 32 32" fill="none" xmlns="http://www.w3.org/2000/svg">
<path d="M27.0002 6C28.6564 6 30.0002 4.65625 30.0002 3C30.0002 1.34375 28.6564 0 27.0002 0C25.3439 0 24.0002 1.34375 24.0002 3C24.0002 4.65625 25.3439 6 27.0002 6ZM31.5627 28.2563C30.9752 27.6688 30.0252 27.6688 29.4439 28.2563C28.6877 29.0125 27.5377 29.2188 26.6252 28.8L18.1377 24.4125L21.2127 19.8C22.0064 18.6125 21.8502 17.0188 20.8377 16.0125L18.3127 13.4813L11.6252 10.1625C11.4439 11.4063 11.8377 12.6625 12.7314 13.5625L17.4252 18.2625L14.5564 22.5625L2.18766 16.1688C1.45641 15.7938 0.550161 16.075 0.168911 16.8125C-0.212339 17.55 0.0751613 18.4563 0.812661 18.8313L25.3064 31.4875C26.0502 31.8313 26.8377 31.9938 27.6252 31.9938C29.0752 31.9938 30.5002 31.4313 31.5627 30.3688C32.1439 29.7875 32.1439 28.8375 31.5627 28.2563ZM7.50016 5.725L6.78141 7.13125C7.68141 7.5875 8.73141 7.4375 9.45641 6.83125L12.4064 8.29375C12.4002 8.3 12.4002 8.30625 12.3939 8.3125L19.5502 11.8625L21.5752 11.05L21.9752 12.2438C22.2252 13 22.7627 13.6188 23.4752 13.975L27.1064 15.7875C28.1002 16.2813 29.2939 15.8813 29.7877 14.8938C30.2814 13.9063 29.8814 12.7063 28.8939 12.2125L25.6377 10.5813L24.5689 7.38125C24.0627 5.86875 22.0127 3.84375 19.2877 4.93125L14.2127 6.9625L10.3064 5.025C10.3252 4.11875 9.85641 3.2375 9.00016 2.8L8.30641 4.15625H8.29391L6.14391 3.71875C6.03141 3.69375 5.91266 3.73125 5.83141 3.825C5.71266 3.9625 5.72516 4.16875 5.86266 4.2875L7.50016 5.725Z" fill="#A2792C"/>
</svg>
