<svg width="50" height="50" viewBox="0 0 50 50" fill="none" xmlns="http://www.w3.org/2000/svg">
<path d="M26.0416 14.5832C26.0416 12.2707 27.8958 10.4165 30.2083 10.4165H37.4999C39.7916 10.4165 41.6666 12.2915 41.6666 14.5832V19.0832C39.2499 19.9373 37.4999 22.229 37.4999 24.9373V29.1665H26.0416V14.5832ZM12.4999 24.9165V29.1665H23.9583V14.5832C23.9583 12.2707 22.1041 10.4165 19.7916 10.4165H12.4999C10.2083 10.4165 8.33325 12.2915 8.33325 14.5832V19.0623C10.7499 19.9165 12.4999 22.229 12.4999 24.9165ZM43.0416 20.8957C40.9999 21.229 39.5833 23.1665 39.5833 25.2498V31.2498H10.4166V24.9998C10.4166 23.8948 9.9776 22.835 9.1962 22.0536C8.4148 21.2722 7.35499 20.8332 6.24992 20.8332C5.14485 20.8332 4.08504 21.2722 3.30364 22.0536C2.52224 22.835 2.08325 23.8948 2.08325 24.9998V35.4165C2.08325 37.7082 3.95825 39.5832 6.24992 39.5832V43.7498H10.4166V39.5832H39.5833V43.7498H43.7499V39.5832C46.0416 39.5832 47.9166 37.7082 47.9166 35.4165V24.9998C47.9166 22.479 45.6457 20.4582 43.0416 20.8957Z" fill="#979797"/>
</svg>
