<svg width="32" height="32" viewBox="0 0 32 32" fill="none" xmlns="http://www.w3.org/2000/svg">
<path d="M27.1914 22.4861C29.5 22.4861 31.3698 20.6153 31.3698 18.3078C31.3698 16.0003 29.5 14.1289 27.1914 14.1289C24.884 14.1289 23.0131 16.0003 23.0131 18.3078C23.0131 20.6152 24.884 22.4861 27.1914 22.4861Z" fill="#A2792C"/>
<path d="M10.0503 4.59487C10.3117 4.69335 10.5929 4.68249 10.8687 4.59824C10.8456 5.55388 11.1311 6.52224 11.7822 7.3214C13.2297 9.10039 15.8467 9.36848 17.6256 7.92045C19.4047 6.47241 19.6728 3.85653 18.2241 2.07691C16.8029 0.330219 14.2602 0.0490103 12.4835 1.40956C12.3598 0.908992 12.0721 0.516179 11.6476 0.356402C10.8161 0.0430316 9.78327 0.738356 9.34235 1.90841C8.90143 3.07908 9.21982 4.28205 10.0503 4.59487Z" fill="#A2792C"/>
<path d="M29.7593 27.161H24.1936L23.3654 25.6654C23.6432 24.9838 23.7056 24.2097 23.4803 23.4498C23.0317 21.9377 21.6105 20.9886 20.1028 21.0614C20.4321 20.8294 20.709 20.5143 20.8775 20.1162C21.3599 18.9766 20.8282 17.6615 19.6881 17.1784L15.5656 15.4306L13.0416 12.8803C13.0635 12.7889 13.0722 12.7266 13.0592 12.7266C13.4518 11.3895 12.9858 9.88798 11.7878 9.03178C10.2746 7.94976 8.17072 8.29989 7.08973 9.81301C7.08973 9.81301 4.55377 13.97 3.30743 15.3945C2.5897 16.208 1.97258 16.6052 0 18.2146V20.9547C0.137787 20.9471 0.295434 20.9378 0.49239 20.9268C1.08862 20.9076 1.9398 20.8797 2.96176 20.8463C3.98365 20.825 5.17618 20.8053 6.45399 20.8141C7.09193 20.8184 7.75269 20.8234 8.42341 20.8278C8.61267 20.831 8.80413 20.8344 8.99449 20.8381C9.09187 20.7249 9.19811 20.6133 9.29102 20.499C9.99013 19.6696 10.6499 18.5448 11.2189 17.4087L12.6914 18.8972C12.8971 19.1051 13.1411 19.2703 13.4103 19.384L17.9398 21.3041C18.1531 21.3944 18.372 21.4382 18.5919 21.4606C16.9354 22.0804 12.7604 23.5613 10.3141 23.7002C8.63452 23.7188 4.7778 23.6313 0 23.7674V28.3949V31.6373C2.76591 31.7161 7.84361 31.7696 10.5974 31.64C13.9005 31.3846 17.5996 29.8397 19.8895 28.6407L20.9125 30.4875C21.3075 31.2003 22.058 31.6423 22.8731 31.6423H29.7593C30.9967 31.6423 32 30.6389 32 29.4017C32 28.1643 30.9967 27.161 29.7593 27.161Z" fill="#A2792C"/>
</svg>
