<svg width="32" height="32" viewBox="0 0 32 32" fill="none" xmlns="http://www.w3.org/2000/svg">
<path d="M10.197 8.87085L1.35053 0.0244141L0.0247803 1.35023L8.87122 10.1967C9.08847 9.97335 9.30759 9.75066 9.52934 9.52891C9.75103 9.30723 9.97372 9.0881 10.197 8.87085Z" fill="#A2792C"/>
<path d="M7.83405 23.4165L7.80492 23.4657C7.61561 23.7862 7.79936 24.0247 7.88711 24.1124C7.97499 24.2002 8.21386 24.3842 8.53418 24.1947C8.69193 24.1013 8.85536 24.0024 9.0198 23.9005C11.2769 22.5014 13.6866 20.5805 16.0301 18.3157L13.6841 15.9697C11.2846 18.4553 9.22499 21.0741 7.83405 23.4165Z" fill="#A2792C"/>
<path d="M30.1851 9.48301C32.3246 5.37582 32.2558 3.05313 31.5808 1.74495L23.3448 9.98095L24.7509 10.1793L24.4891 12.0359L22.1298 11.7032V14.0858H20.2548V13.071L16.8456 16.4803L18.6872 18.3219L18.0243 18.9848C15.3729 21.6363 12.6008 23.8874 10.0074 25.4948C9.83201 25.6034 9.65751 25.7092 9.48876 25.809C9.09963 26.0392 8.67507 26.1518 8.25526 26.1518C7.63851 26.1518 7.03176 25.9089 6.56163 25.4392C5.77182 24.6499 5.62257 23.474 6.19013 22.5132L6.22176 22.4598C7.81563 19.7758 10.2283 16.7628 13.0153 13.9758L13.6781 13.3128L15.5198 15.1544L19.3614 11.3128L17.6336 11.0691L17.8954 9.21251L20.2548 9.54526V7.16251H22.1298V8.54432L30.2551 0.419134C28.9469 -0.255804 26.6243 -0.324679 22.5169 1.81495C18.8686 3.71545 14.7113 6.9102 10.8108 10.8108C6.91026 14.7113 3.71544 18.8686 1.81494 22.5169C-0.829808 27.5941 -0.100245 29.9446 0.977567 31.0224C1.50863 31.5535 2.34851 32 3.67157 32C5.03357 32 6.90757 31.5266 9.48307 30.185C13.1314 28.2845 17.2887 25.0898 21.1893 21.1892C25.0898 17.2887 28.2846 13.1314 30.1851 9.48301Z" fill="#A2792C"/>
<path d="M30.1727 25.295C29.0388 24.1611 27.5323 23.494 25.9307 23.4166L24.6824 23.3562L23.1289 21.8027C22.9117 22.026 22.6925 22.2488 22.4708 22.4705C22.2491 22.6922 22.0264 22.9113 21.8031 23.1285L23.3567 24.6821L23.417 25.9303C23.4944 27.532 24.1615 29.0385 25.2954 30.1724L26.1141 30.991C26.7864 31.6634 27.6696 31.9995 28.5528 31.9995C29.436 31.9995 30.3192 31.6634 30.9915 30.991C32.3362 29.6464 32.3362 27.4584 30.9915 26.1136L30.1727 25.295Z" fill="#A2792C"/>
</svg>
