<svg width="26" height="26" viewBox="0 0 26 26" fill="none" xmlns="http://www.w3.org/2000/svg">
<path d="M24.7106 9.28331C24.8263 9.37345 24.9131 9.4955 24.9603 9.6344C25.0561 9.91906 24.9744 10.2322 24.7518 10.4334C24.7516 10.4335 24.7515 10.4337 24.7513 10.4338L19.0818 15.5358L18.8497 15.7447L18.9355 16.0449L21.2214 24.0434C21.2214 24.0436 21.2215 24.0439 21.2216 24.0441C21.263 24.1916 21.2585 24.3482 21.2084 24.493C21.1583 24.638 21.065 24.7642 20.941 24.8546C20.817 24.945 20.6683 24.9953 20.5149 24.9987C20.3616 25.002 20.211 24.9584 20.0832 24.8737C20.0831 24.8736 20.083 24.8735 20.0828 24.8735L13.2774 20.3365L13 20.1516L12.7227 20.3365L5.91643 24.874L5.91588 24.8743C5.79089 24.9579 5.64367 25.002 5.49332 25.0008C5.34297 24.9997 5.19644 24.9534 5.07274 24.8679C4.94903 24.7825 4.85387 24.6618 4.7996 24.5216C4.74533 24.3814 4.73445 24.2281 4.76838 24.0816L4.76846 24.0813L6.63096 16.0163L6.69427 15.7421L6.4928 15.5457L1.22655 10.412L1.22652 10.4119C1.12332 10.3114 1.05128 10.1832 1.01903 10.0427L0.531714 10.1546L1.01903 10.0427C0.986773 9.90227 0.995665 9.7555 1.04464 9.61996C1.09361 9.48443 1.1806 9.36588 1.29519 9.27849C1.40977 9.1911 1.54711 9.13857 1.69077 9.12719L1.69089 9.12718L8.81714 8.56093L9.11161 8.53753L9.23321 8.26832L12.317 1.44082L12.3176 1.43943C12.3766 1.30775 12.4724 1.19597 12.5935 1.11756C12.7147 1.03915 12.8559 0.997465 13.0002 0.997544C13.1444 0.997624 13.2856 1.03946 13.4067 1.118C13.5277 1.19655 13.6234 1.30844 13.6823 1.44018L13.6831 1.4421L16.7669 8.26835L16.8885 8.53754L17.1829 8.56093L24.3089 9.12716C24.309 9.12717 24.309 9.12717 24.3091 9.12718C24.3091 9.12718 24.3092 9.12718 24.3092 9.12718C24.4553 9.13894 24.5949 9.19321 24.7106 9.28331Z" fill="white" stroke="#979797"/>
</svg>
