<svg width="130" height="130" viewBox="0 0 130 130" fill="none" xmlns="http://www.w3.org/2000/svg">
<circle cx="65" cy="65" r="65" fill="#34A939"/>
<path d="M100.737 32.8413C99.8521 32.222 98.8535 31.783 97.7986 31.5497C96.7438 31.3163 95.6533 31.293 94.5894 31.4812C93.5255 31.6693 92.5091 32.0653 91.5983 32.6463C90.6875 33.2274 89.9001 33.9822 89.281 34.8676L58.006 79.5326L37.4998 65.5251C35.8551 64.4001 33.8309 63.9745 31.8724 64.3419C29.914 64.7094 28.1817 65.8398 27.0567 67.4845C25.9317 69.1291 25.5061 71.1534 25.8735 73.1118C26.241 75.0703 27.3714 76.8026 29.016 77.9276L56.5035 96.7026C57.3501 97.2805 58.3069 97.6774 59.3139 97.8686C60.3209 98.0598 61.3565 98.0412 62.356 97.8138C63.4221 97.6275 64.4409 97.2326 65.354 96.6517C66.2672 96.0708 67.0567 95.3154 67.6773 94.4288L102.765 44.3038C104.015 42.514 104.504 40.3009 104.124 38.1508C103.743 36.0008 102.525 34.0897 100.736 32.8376" fill="white"/>
</svg>
