<svg width="24" height="24" viewBox="0 0 24 24" fill="none" xmlns="http://www.w3.org/2000/svg">
<path d="M21 3.33896H6.42188L6.28125 2.75832C6.125 2.01638 5.77344 1.41154 5.22656 0.9438C4.67969 0.476058 4.03125 0.242188 3.28125 0.242188H0.984375C0.703125 0.242188 0.46875 0.338962 0.28125 0.53251C0.09375 0.726058 0 0.984123 0 1.3067C0 1.59703 0.09375 1.83896 0.28125 2.03251C0.46875 2.22606 0.703125 2.32283 0.984375 2.32283H3.28125C3.875 2.32283 4.21875 2.59703 4.3125 3.14541L6.60938 15.5325C6.79688 16.2099 7.16406 16.7583 7.71094 17.1777C8.25781 17.597 8.85938 17.8067 9.51562 17.8067H18.9844C19.2969 17.8067 19.5469 17.7099 19.7344 17.5164C19.9219 17.3228 20.0156 17.0809 20.0156 16.7906C20.0156 16.0809 19.6719 15.7261 18.9844 15.7261H9.51562C9.07812 15.7261 8.76562 15.5325 8.57812 15.1454L8.48438 14.7099H18.5156C19.1406 14.7099 19.7109 14.5164 20.2266 14.1293C20.7422 13.7422 21.0938 13.2422 21.2812 12.6293L24 6.67767V6.43574C24 5.56477 23.7109 4.8309 23.1328 4.23412C22.5547 3.63735 21.8438 3.33896 21 3.33896ZM9 12.6293H8.10938L6.79688 5.41961H9V12.6293ZM12.9844 12.6293H11.0156V5.41961H12.9844V12.6293ZM17.0156 12.6293H15V5.41961H17.0156V12.6293ZM19.5 11.8067V11.9035C19.4062 12.2261 19.2344 12.4357 18.9844 12.5325V5.41961H21C21.5625 5.41961 21.8906 5.6938 21.9844 6.24219L19.5 11.8067ZM12 20.9035C12 21.4841 11.8047 21.9761 11.4141 22.3793C11.0234 22.7825 10.5469 22.9841 9.98438 22.9841C9.45312 22.9841 8.99219 22.7825 8.60156 22.3793C8.21094 21.9761 8.01562 21.4841 8.01562 20.9035C8.01562 20.3228 8.21094 19.8309 8.60156 19.4277C8.99219 19.0244 9.45312 18.8228 9.98438 18.8228C10.5469 18.8228 11.0234 19.0244 11.4141 19.4277C11.8047 19.8309 12 20.3228 12 20.9035ZM20.0156 20.9035C20.0156 21.4841 19.8203 21.9761 19.4297 22.3793C19.0391 22.7825 18.5625 22.9841 18 22.9841C17.4375 22.9841 16.9609 22.7825 16.5703 22.3793C16.1797 21.9761 15.9844 21.4841 15.9844 20.9035C15.9844 20.3228 16.1797 19.8309 16.5703 19.4277C16.9609 19.0244 17.4375 18.8228 18 18.8228C18.5625 18.8228 19.0391 19.0244 19.4297 19.4277C19.8203 19.8309 20.0156 20.3228 20.0156 20.9035Z" fill="#A2792C"/>
</svg>
