<svg width="32" height="23" viewBox="0 0 32 23" fill="none" xmlns="http://www.w3.org/2000/svg">
<path d="M31.3601 22.5998C30.7083 22.5997 30.0641 22.4598 29.4709 22.1896C28.8593 21.9118 28.1957 21.7669 27.524 21.7646C26.8509 21.7673 26.1859 21.9121 25.5726 22.1896C24.9795 22.4596 24.3354 22.5994 23.6837 22.5994C23.032 22.5994 22.3878 22.4596 21.7947 22.1896C21.1812 21.9136 20.5167 21.7689 19.844 21.7646C19.1709 21.7678 18.506 21.9126 17.8926 22.1896C17.2984 22.4596 16.6532 22.5993 16.0005 22.5993C15.3477 22.5993 14.7026 22.4596 14.1083 22.1896C13.4978 21.9126 12.8357 21.7677 12.1653 21.7646C11.4924 21.7678 10.8277 21.9126 10.2145 22.1896C9.62043 22.4598 8.97535 22.5996 8.3227 22.5996C7.67005 22.5996 7.02497 22.4598 6.43086 22.1896C5.81784 21.912 5.15306 21.7672 4.48014 21.7646C3.80962 21.7685 3.14739 21.9132 2.53646 22.1896C1.9406 22.4593 1.29419 22.5991 0.640137 22.5998V19.7864C1.29319 19.7827 1.93857 19.6453 2.53646 19.3826C3.14575 19.1005 3.80875 18.9534 4.48014 18.9512C5.17518 18.9512 5.84142 19.1112 6.43086 19.3826C7.02538 19.6453 7.66762 19.7827 8.31758 19.7864C8.97095 19.7837 9.61673 19.6462 10.2145 19.3826C10.8261 19.0998 11.4915 18.9527 12.1653 18.9512C12.8552 18.9512 13.5182 19.1112 14.1083 19.3826C14.7054 19.6455 15.3502 19.783 16.0027 19.7864C16.6537 19.783 17.2971 19.6455 17.8926 19.3826C18.5044 19.0999 19.17 18.9527 19.844 18.9512C20.5307 18.9512 21.1963 19.1112 21.7947 19.3826C22.3675 19.6341 23.0107 19.7864 23.6827 19.7864C24.3338 19.7835 24.9772 19.6461 25.5726 19.3826C26.1842 19.0994 26.85 18.9522 27.524 18.9512C28.219 18.9512 28.884 19.1112 29.4709 19.3826C30.0661 19.6459 30.7093 19.7834 31.3601 19.7864V22.5998ZM26.9109 14.6408C28.9281 14.6408 30.5653 13.0088 30.5653 11.0069C30.5653 9.00304 28.9281 7.37936 26.9109 7.37936C24.8904 7.37936 23.2552 9.00368 23.2552 11.0069C23.2552 13.0088 24.7451 14.6408 26.9109 14.6408ZM5.62638 16.6837C5.9099 16.7509 6.17742 16.8488 6.4315 16.9627C7.02491 17.2303 7.66794 17.37 8.31886 17.373C8.99086 17.373 9.64302 17.2206 10.2152 16.9627C10.8276 16.6826 11.4924 16.5352 12.1659 16.5301C12.8558 16.5301 13.5201 16.6978 14.1089 16.9627C14.7047 17.2305 15.3501 17.3703 16.0033 17.373C16.6689 17.373 17.3205 17.2206 17.8926 16.9627C18.5053 16.6826 19.1703 16.5352 19.844 16.5301C20.5313 16.5301 21.1976 16.6978 21.7947 16.9627C22.3681 17.22 23.0107 17.373 23.684 17.373C24.1736 17.373 24.6453 17.2904 25.0901 17.1515L18.9941 6.23568L26.0846 4.9512C27.1253 4.75408 27.8805 3.94256 27.8805 2.90384C27.8805 1.75824 26.9416 0.839844 25.7928 0.839844L25.556 0.846884L14.603 2.82576C13.8344 3.00048 12.8161 4.11792 13.396 5.4888L13.4894 5.7096L16.3477 10.8315L5.62638 16.6837Z" fill="#A2792C"/>
</svg>
