<svg width="32" height="32" viewBox="0 0 32 32" fill="none" xmlns="http://www.w3.org/2000/svg">
<g clip-path="url(#clip0)">
<path d="M31.9973 16.2176C32.0205 15.9656 31.8894 15.7244 31.6653 15.607L25.8113 12.5381L31.5595 10.7615C31.8012 10.6868 31.9741 10.4737 31.9973 10.2215C32.0205 9.96951 31.8894 9.7283 31.6653 9.61086L20.0251 3.50905C19.8789 3.43239 19.708 3.41652 19.5503 3.46535L0.440385 9.37136C0.198686 9.44631 0.0258343 9.65945 0.00264091 9.9114C-0.0205525 10.1636 0.110795 10.4046 0.334917 10.5222L4.35396 12.6292C4.98848 12.9617 5.63546 13.2608 6.29366 13.5266L0.437456 15.3684C0.196489 15.4441 0.0248578 15.6575 0.00239677 15.909C-0.0200641 16.1607 0.111039 16.4009 0.334672 16.5181L6.18892 19.5869L0.440385 21.3636C0.198686 21.4383 0.0258343 21.6514 0.00264091 21.9036C-0.0205525 22.1556 0.110795 22.3968 0.334917 22.5142L11.9751 28.6162C12.0654 28.6636 12.165 28.6875 12.2651 28.6875C12.3271 28.6875 12.3894 28.6785 12.4497 28.6597L19.5769 26.4571C19.9067 26.3553 20.0913 26.0052 19.9895 25.6753C19.8877 25.3457 19.5376 25.1607 19.2077 25.2627L12.3269 27.3894L2.25704 22.1106L7.75899 20.4099L11.9751 22.6201C12.0654 22.6675 12.165 22.6917 12.2651 22.6917C12.3271 22.6917 12.3894 22.6824 12.4497 22.6636L21.2326 19.9492C21.2346 19.9488 21.2365 19.948 21.2385 19.9475L24.1174 19.0576L29.7431 22.0069L23.9909 23.7845C23.6611 23.8865 23.4763 24.2364 23.5783 24.5662C23.6611 24.8345 23.9084 25.0069 24.1753 25.0069C24.2363 25.0069 24.2986 24.9978 24.3598 24.9788L31.5595 22.7537C31.8012 22.679 31.9741 22.4659 31.9973 22.2137C32.0205 21.9617 31.8894 21.7205 31.6653 21.6031L25.811 18.5342L31.5595 16.7576C31.8012 16.6829 31.9741 16.4698 31.9973 16.2176ZM25.6548 13.8675L20.7243 18.7979L14.4912 20.7244L21.2756 13.94L24.1174 13.0615L25.6548 13.8675ZM9.48702 13.2539C10.9043 12.9756 12.2014 12.283 13.2265 11.2495C13.9983 12.3416 15.0373 13.1978 16.2519 13.7478C13.9797 13.9695 11.6975 13.8025 9.48702 13.2539ZM12.2883 14.9868L8.09859 19.1765L5.48409 17.8062L8.90157 14.3887C10.007 14.677 11.1377 14.8772 12.2883 14.9868ZM13.9616 15.0813C14.0891 15.0835 14.2163 15.0857 14.3435 15.0857C15.8366 15.0857 17.3193 14.9295 18.78 14.6187L13.9609 19.4378C13.9104 19.4883 13.8711 19.5454 13.8413 19.6062L12.1482 21.2996L9.25826 19.7847L13.9616 15.0813ZM2.25679 10.1184L19.6731 4.73586L29.7431 10.0147L23.9939 11.7915C23.9934 11.7915 23.9926 11.7918 23.9922 11.792L20.3012 12.9326C19.8437 13.0742 19.3833 13.1983 18.9214 13.3067L17.6101 12.9229C15.9987 12.4512 14.6672 11.3806 13.8606 9.90823C13.7595 9.7239 13.5727 9.60256 13.3632 9.58547C13.1538 9.56814 12.9494 9.65774 12.82 9.82351C11.6684 11.2969 9.93502 12.1421 8.0649 12.1421H6.22554C5.79024 11.951 5.35933 11.7449 4.93428 11.522L2.25679 10.1184ZM6.86495 14.6575L4.32418 17.198L2.24752 16.1094L6.86495 14.6575ZM23.9941 17.7874C23.9934 17.7876 23.9926 17.7879 23.9917 17.7881L23.2829 18.0071L26.8147 14.4754L29.7431 16.0105L23.9941 17.7874Z" fill="#A2792C"/>
<path d="M21.78 24.4971C21.6157 24.4971 21.4543 24.564 21.3381 24.6802C21.2219 24.7966 21.155 24.9578 21.155 25.1221C21.155 25.2866 21.2219 25.4478 21.3381 25.564C21.455 25.6802 21.6157 25.7471 21.78 25.7471C21.945 25.7471 22.1056 25.6802 22.2223 25.564C22.3386 25.4478 22.405 25.2866 22.405 25.1221C22.405 24.9578 22.3386 24.7966 22.2223 24.6802C22.1061 24.564 21.945 24.4971 21.78 24.4971Z" fill="#A2792C"/>
</g>
<defs>
<clipPath id="clip0">
<rect width="32" height="32" fill="white"/>
</clipPath>
</defs>
</svg>
