<svg width="32" height="31" viewBox="0 0 32 31" fill="none" xmlns="http://www.w3.org/2000/svg">
<path d="M31.7432 0.900391H24.2347H7.76539H0.256924H0V11.944V15.7661V26.8097H2.74791C2.80575 25.7757 3.06808 24.7771 3.51529 23.8984C3.75876 23.42 4.05129 22.9868 4.38483 22.6077C3.95546 21.8706 3.71776 21.0041 3.71776 20.1047C3.71776 18.9456 4.10758 17.8854 4.74939 17.0719C3.90832 15.9023 3.01655 14.8778 2.23552 14.0582C2.74992 13.9288 3.34972 13.7121 4.00891 13.3522C6.33349 12.0832 8.40536 9.63912 10.1822 6.07656C11.9821 6.32999 13.9448 6.46941 16 6.46941C18.0551 6.46941 20.0179 6.3299 21.8178 6.07656C23.5946 9.63912 25.6665 12.0832 27.9911 13.3522C28.6503 13.7122 29.2501 13.9288 29.7645 14.0582C28.9835 14.8778 28.0918 15.9023 27.2505 17.0719C27.8924 17.8854 28.2822 18.9457 28.2822 20.1047C28.2822 21.0041 28.0445 21.8707 27.6152 22.6077C27.9486 22.9867 28.2412 23.42 28.4847 23.8984C28.9319 24.7771 29.1942 25.7757 29.2521 26.8097H32V15.7661V11.944V0.900391H31.7432ZM3.65689 12.4758C3.43804 12.5985 3.22697 12.7027 3.0246 12.792C4.65896 10.9421 6.51573 8.38307 7.38929 5.56288C7.97472 5.69852 8.58677 5.82066 9.22272 5.92817C7.2033 9.85301 5.12622 11.6526 3.65689 12.4758ZM22.7765 5.92827C23.4129 5.82066 24.0253 5.69833 24.6108 5.56279C25.4844 8.38307 27.3411 10.9422 28.9757 12.7921C27.3003 12.0513 24.994 10.2473 22.7765 5.92827Z" fill="#A2792C"/>
<path d="M9.52397 22.7728C10.2785 22.1939 10.7745 21.2151 10.7745 20.1049C10.7745 18.3268 9.5021 16.8857 7.93263 16.8857C6.36327 16.8857 5.09073 18.3269 5.09073 20.1049C5.09073 21.2151 5.58682 22.1939 6.34139 22.7728C5.02409 23.55 4.10852 25.2608 4.10852 27.2478C4.10852 29.9658 5.82068 30.1004 7.93254 30.1004C10.0445 30.1004 11.7566 29.9658 11.7566 27.2478C11.7567 25.2608 10.8412 23.55 9.52397 22.7728Z" fill="#A2792C"/>
<path d="M17.5977 22.7728C18.3522 22.1939 18.8482 21.2151 18.8482 20.1049C18.8482 18.3268 17.5759 16.8857 16.0064 16.8857C14.4369 16.8857 13.1646 18.3269 13.1646 20.1049C13.1646 21.2151 13.6605 22.1939 14.4151 22.7728C13.0977 23.55 12.1823 25.2608 12.1823 27.2478C12.1823 29.9658 13.8943 30.1004 16.0063 30.1004C18.1181 30.1004 19.8302 29.9658 19.8302 27.2478C19.8303 25.2608 18.9148 23.55 17.5977 22.7728Z" fill="#A2792C"/>
<path d="M25.6587 22.7728C26.4132 22.1939 26.9092 21.2151 26.9092 20.1049C26.9092 18.3268 25.6369 16.8857 24.0673 16.8857C22.498 16.8857 21.2255 18.3269 21.2255 20.1049C21.2255 21.2151 21.7215 22.1939 22.4761 22.7728C21.1588 23.55 20.2434 25.2608 20.2434 27.2478C20.2434 29.9658 21.9555 30.1004 24.0673 30.1004C26.1792 30.1004 27.8915 29.9658 27.8915 27.2478C27.8915 25.2608 26.976 23.55 25.6587 22.7728Z" fill="#A2792C"/>
</svg>
