<svg width="14" height="13" viewBox="0 0 14 13" fill="none" xmlns="http://www.w3.org/2000/svg">
<path d="M4.8239 12.4001C4.7039 12.4161 4.6159 12.3841 4.4959 12.3441C4.0479 12.1921 3.8319 11.7121 3.9679 11.2641C4.1039 10.8241 4.7679 8.83209 4.7679 8.40009C4.7679 7.97609 4.1679 7.60009 3.6879 7.60009L1.2879 7.60009C0.807904 7.60009 0.487904 7.28009 0.487904 6.80009C0.487904 6.32009 2.0879 1.20009 2.0879 1.20009C2.2239 0.888087 2.5279 0.400087 2.8879 0.400087L10.1999 0.400088L10.1999 7.60009L8.4879 7.60009C8.1599 7.92809 5.8479 11.3681 5.6239 11.8161C5.4559 12.1441 5.1439 12.3601 4.8239 12.4001ZM13.3999 7.60009L11.7999 7.60009L11.7999 0.400088L13.3999 0.400088L13.3999 7.60009Z" fill="#CAAD2E"/>
</svg>
