<svg width="14" height="13" viewBox="0 0 14 13" fill="none" xmlns="http://www.w3.org/2000/svg">
<path d="M9.1761 0.599911C9.2961 0.583911 9.3841 0.615911 9.5041 0.655911C9.9521 0.807911 10.1681 1.28791 10.0321 1.73591C9.8961 2.17591 9.2321 4.16791 9.2321 4.59991C9.2321 5.02391 9.8321 5.39991 10.3121 5.39991H12.7121C13.1921 5.39991 13.5121 5.71991 13.5121 6.19991C13.5121 6.67991 11.9121 11.7999 11.9121 11.7999C11.7761 12.1119 11.4721 12.5999 11.1121 12.5999H3.8001V5.39991H5.5121C5.8401 5.07191 8.1521 1.63191 8.3761 1.18391C8.5441 0.855911 8.8561 0.639911 9.1761 0.599911ZM0.600098 5.39991H2.2001V12.5999H0.600098V5.39991Z" fill="#CAAD2E"/>
</svg>
