<svg width="27" height="25" viewBox="0 0 27 25" fill="none" xmlns="http://www.w3.org/2000/svg">
<path d="M17.3522 0.200066C17.5922 0.168066 17.7682 0.232066 18.0082 0.312066C18.9042 0.616066 19.3362 1.57607 19.0642 2.47207C18.7922 3.35207 17.4642 7.33607 17.4642 8.20007C17.4642 9.04807 18.6642 9.80007 19.6242 9.80007H24.4242C25.3842 9.80007 26.0242 10.4401 26.0242 11.4001C26.0242 12.3601 22.8242 22.6001 22.8242 22.6001C22.5522 23.2241 21.9442 24.2001 21.2242 24.2001H6.6002V9.80007H10.0242C10.6802 9.14407 15.3042 2.26407 15.7522 1.36807C16.0882 0.712066 16.7122 0.280066 17.3522 0.200066ZM0.200195 9.80007H3.4002V24.2001H0.200195V9.80007Z" fill="#CAAD2E"/>
</svg>
