<svg width="55" height="55" viewBox="0 0 55 55" fill="none" xmlns="http://www.w3.org/2000/svg">
<circle cx="27.5" cy="27.5" r="27.5" fill="#E7D99F" fill-opacity="0.5"/>
<path fill-rule="evenodd" clip-rule="evenodd" d="M24.39 11.6644C24.5525 9.32686 26.77 7.51936 29.16 8.11436L29.8125 8.27936C30.97 8.56936 31.9975 9.41936 32.3425 10.6919C32.8925 12.7319 33.675 16.9694 32.4975 21.9669C32.8657 21.916 33.2349 21.8735 33.605 21.8394C35.3875 21.6769 37.7775 21.6594 39.895 22.3644C41.19 22.7969 42.38 24.0669 42.895 25.5469C43.355 26.8769 43.295 28.4519 42.31 29.8794C42.455 30.1769 42.5675 30.4844 42.655 30.7869C42.8475 31.4619 42.9375 32.2044 42.9375 32.9269C42.9375 33.6494 42.8475 34.3919 42.655 35.0669C42.5575 35.4044 42.43 35.7494 42.255 36.0769C42.6775 37.0444 42.5225 38.1244 42.2475 38.9469C41.966 39.759 41.5539 40.5198 41.0275 41.1994C41.1625 41.5794 41.2175 41.9794 41.2175 42.3619C41.2175 43.1244 40.995 43.9244 40.585 44.6419C39.75 46.1069 38.0925 47.3019 35.75 47.3019V44.8019C37.1575 44.8019 38.0025 44.1219 38.415 43.4019C38.6024 43.0865 38.7065 42.7286 38.7175 42.3619C38.7175 42.0619 38.63 41.9494 38.6175 41.9369L37.7325 41.0519L38.615 40.1669C39.12 39.6644 39.6325 38.8894 39.8775 38.1569C40.1375 37.3769 39.985 37.0544 39.865 36.9369L38.9825 36.0519L39.865 35.1669C39.9725 35.0619 40.1275 34.8169 40.25 34.3794C40.37 33.9619 40.4375 33.4544 40.4375 32.9269C40.4375 32.3994 40.37 31.8919 40.25 31.4744C40.125 31.0394 39.9725 30.7919 39.865 30.6869L38.9825 29.8019L39.865 28.9169C40.7475 28.0369 40.7975 27.1344 40.5325 26.3669C40.2275 25.4919 39.5425 24.8844 39.105 24.7369C37.4725 24.1944 35.4875 24.1769 33.83 24.3269C32.9104 24.4125 31.9969 24.5553 31.095 24.7544L31.06 24.7619L31.0525 24.7644C30.8353 24.8183 30.6077 24.813 30.3933 24.7489C30.1789 24.6849 29.9857 24.5644 29.8337 24.4002C29.6817 24.236 29.5766 24.034 29.5294 23.8153C29.4821 23.5966 29.4944 23.3692 29.565 23.1569C30.8231 19.336 30.949 15.2327 29.9275 11.3419C29.8525 11.0644 29.6075 10.8044 29.2075 10.7044L28.5525 10.5419C27.7875 10.3494 26.9475 10.9319 26.885 11.8369C26.6975 14.5419 26.2875 17.2119 25.68 18.9619C25.245 20.2169 24.1725 22.1319 22.585 23.9044C20.9925 25.6844 18.7875 27.4294 16.05 28.1744C15.065 28.4444 14.5 29.1644 14.5 29.7994V39.8044C14.5 40.4544 15.05 41.0919 15.8825 41.1794C19.115 41.5219 20.7225 42.5044 22.11 43.3494L22.21 43.4119C22.885 43.8219 23.4475 44.1519 24.15 44.3944C24.8425 44.6319 25.725 44.8019 27 44.8019H35.75V47.3019H27C25.4875 47.3019 24.325 47.0994 23.335 46.7569C22.4837 46.446 21.6703 46.0401 20.91 45.5469L20.79 45.4719C19.53 44.7044 18.2925 43.9494 15.62 43.6669C13.705 43.4619 12 41.9169 12 39.8019V29.8019C12 27.6769 13.7125 26.2219 15.3925 25.7644C17.515 25.1844 19.3275 23.7969 20.7225 22.2394C22.1225 20.6719 23.0075 19.0394 23.32 18.1419C23.8175 16.7044 24.21 14.2944 24.39 11.6669V11.6644Z" fill="#A2792C"/>
</svg>
