<svg width="24" height="24" viewBox="0 0 24 24" fill="none" xmlns="http://www.w3.org/2000/svg">
<path d="M23.2969 22.5938H16.2645L15.2853 19.5093C15.7584 19.3149 16.2108 19.08 16.6378 18.8087C16.7389 19.0998 16.9054 19.373 17.1375 19.6051C17.5487 20.0163 18.0889 20.2219 18.6291 20.2219C19.1693 20.2219 19.7094 20.0163 20.1206 19.605C20.9431 18.7826 20.9431 17.4444 20.1206 16.6219C19.8885 16.3898 19.6153 16.2233 19.3243 16.1222C19.8505 15.2941 20.24 14.3713 20.4614 13.3854C20.7379 13.5189 21.0479 13.5937 21.375 13.5937C22.5381 13.5937 23.4843 12.6474 23.4843 11.4843C23.4843 10.3212 22.5381 9.37495 21.375 9.37495C21.0479 9.37495 20.7379 9.44977 20.4614 9.58322C20.24 8.59739 19.8504 7.67456 19.3243 6.84647C19.6154 6.74536 19.8885 6.57886 20.1206 6.34673C20.9431 5.52431 20.9431 4.18608 20.1206 3.36361C19.2982 2.54114 17.9599 2.54128 17.1375 3.36361C16.9054 3.59569 16.7389 3.86892 16.6378 4.15997C15.8097 3.6338 14.8868 3.24422 13.901 3.02287C14.0346 2.74641 14.1094 2.43647 14.1094 2.10938C14.1094 0.946266 13.1631 0 12 0C10.8369 0 9.89062 0.946266 9.89062 2.10938C9.89062 2.43647 9.96544 2.74641 10.0989 3.02297C9.11306 3.24431 8.19024 3.63389 7.36214 4.16006C7.26103 3.86897 7.09453 3.59578 6.86241 3.36366C6.03998 2.54128 4.7017 2.54123 3.87928 3.36366C3.05681 4.18608 3.05681 5.52431 3.87928 6.34678C4.11136 6.57891 4.38459 6.74541 4.67564 6.84652C4.14947 7.67456 3.75989 8.59744 3.53855 9.58327C3.26203 9.44981 2.95209 9.375 2.625 9.375C1.46189 9.375 0.515625 10.3213 0.515625 11.4844C0.515625 12.6475 1.46189 13.5938 2.625 13.5938C2.95209 13.5938 3.26203 13.5189 3.53859 13.3855C3.75994 14.3713 4.14952 15.2941 4.67569 16.1222C4.38459 16.2233 4.11141 16.3898 3.87933 16.6219C3.05686 17.4443 3.05686 18.7826 3.87933 19.605C4.29052 20.0162 4.8307 20.2218 5.37084 20.2218C5.91103 20.2218 6.45122 20.0162 6.86241 19.605C7.09453 19.3729 7.26103 19.0997 7.36214 18.8086C7.78917 19.08 8.24156 19.3148 8.71467 19.5092L7.7355 22.5938H0.703125C0.314812 22.5938 0 22.9086 0 23.2969C0 23.6852 0.314812 24 0.703125 24H23.2969C23.6852 24 24 23.6852 24 23.2969C24 22.9086 23.6852 22.5938 23.2969 22.5938ZM6.39159 16.0984C5.49694 15.0128 4.91095 13.6641 4.7685 12.1875H6.18295C6.31392 13.2774 6.74494 14.2764 7.39125 15.0988L6.39159 16.0984ZM16.6087 15.0988C17.2551 14.2764 17.6861 13.2774 17.817 12.1875H19.2315C19.089 13.6641 18.5031 15.0128 17.6084 16.0984L16.6087 15.0988ZM17.817 10.7812C17.6861 9.69131 17.2551 8.69231 16.6087 7.86998L17.6084 6.87033C18.5031 7.95586 19.089 9.30469 19.2315 10.7812H17.817ZM15.6144 6.87562C14.7921 6.22931 13.7931 5.7983 12.7031 5.66733V4.25287C14.1797 4.39533 15.5285 4.98127 16.614 5.87597L15.6144 6.87562ZM11.2969 5.66733C10.2069 5.7983 9.20794 6.22931 8.38561 6.87562L7.386 5.87597C8.47153 4.98131 9.82031 4.39533 11.2969 4.25287V5.66733ZM7.39125 7.86998C6.74494 8.69231 6.31392 9.69131 6.18295 10.7812H4.7685C4.91095 9.30469 5.49689 7.95591 6.39159 6.87033L7.39125 7.86998ZM7.54688 11.4844C7.54688 9.02892 9.54455 7.03125 12 7.03125C14.4555 7.03125 16.4531 9.02892 16.4531 11.4844C16.4531 13.2209 15.4539 14.7281 14.0004 15.4621L13.2715 13.1661C13.7801 12.7806 14.1094 12.1703 14.1094 11.4844C14.1094 10.3213 13.1631 9.375 12 9.375C10.8369 9.375 9.89062 10.3213 9.89062 11.4844C9.89062 12.1703 10.2199 12.7806 10.7285 13.1661L9.99956 15.4621C8.54606 14.7281 7.54688 13.2209 7.54688 11.4844ZM12 12.1875C11.6123 12.1875 11.2969 11.8721 11.2969 11.4844C11.2969 11.0967 11.6123 10.7812 12 10.7812C12.3877 10.7812 12.7031 11.0967 12.7031 11.4844C12.7031 11.8721 12.3877 12.1875 12 12.1875ZM12 13.8082L12.6604 15.8885C12.4448 15.9206 12.2243 15.9375 12 15.9375C11.7757 15.9375 11.5552 15.9206 11.3396 15.8885L12 13.8082ZM12 17.3438C12.3724 17.3438 12.7367 17.3084 13.09 17.2417L13.518 18.59C13.0282 18.6945 12.5205 18.75 12 18.75C11.4795 18.75 10.9718 18.6945 10.482 18.59L10.91 17.2417C11.2633 17.3084 11.6276 17.3438 12 17.3438ZM14.4301 16.8155C14.8544 16.6214 15.2516 16.3783 15.6144 16.0931L16.614 17.0928C16.0859 17.5281 15.4953 17.8901 14.8582 18.1638L14.4301 16.8155ZM19.1263 18.6107C18.8522 18.8849 18.4061 18.8849 18.1319 18.6107C17.8577 18.3365 17.8577 17.8905 18.1319 17.6163C18.269 17.4792 18.4491 17.4107 18.6291 17.4107C18.8092 17.4107 18.9892 17.4792 19.1263 17.6163C19.4005 17.8905 19.4005 18.3366 19.1263 18.6107ZM21.375 10.7812C21.7627 10.7812 22.0781 11.0967 22.0781 11.4844C22.0781 11.8721 21.7627 12.1875 21.375 12.1875C20.9873 12.1875 20.6719 11.8721 20.6719 11.4844C20.6719 11.0967 20.9873 10.7812 21.375 10.7812ZM18.1319 4.35806C18.269 4.221 18.4491 4.15247 18.6291 4.15247C18.8092 4.15247 18.9893 4.221 19.1263 4.35806C19.4004 4.63223 19.4004 5.0783 19.1263 5.35247C18.8521 5.62664 18.4062 5.62669 18.1319 5.35247C17.8578 5.0783 17.8578 4.63219 18.1319 4.35806ZM11.2969 2.10938C11.2969 1.72167 11.6123 1.40625 12 1.40625C12.3877 1.40625 12.7031 1.72167 12.7031 2.10938C12.7031 2.49708 12.3877 2.8125 12 2.8125C11.6123 2.8125 11.2969 2.49708 11.2969 2.10938ZM4.87369 4.35806C5.14791 4.08394 5.59397 4.08394 5.86809 4.35806C6.14227 4.63223 6.14227 5.0783 5.86809 5.35247C5.59387 5.62669 5.14791 5.62664 4.87369 5.35247C4.59952 5.0783 4.59952 4.63219 4.87369 4.35806ZM2.625 12.1875C2.2373 12.1875 1.92188 11.8721 1.92188 11.4844C1.92188 11.0967 2.2373 10.7812 2.625 10.7812C3.0127 10.7812 3.32812 11.0967 3.32812 11.4844C3.32812 11.8721 3.0127 12.1875 2.625 12.1875ZM5.86809 18.6107C5.59392 18.8849 5.14786 18.8849 4.87369 18.6107C4.59952 18.3365 4.59952 17.8905 4.87369 17.6163C5.0108 17.4792 5.19084 17.4107 5.37089 17.4107C5.55094 17.4107 5.73098 17.4792 5.86805 17.6163C6.14222 17.8905 6.14222 18.3366 5.86809 18.6107ZM7.38595 17.0928L8.38556 16.0931C8.74837 16.3783 9.14564 16.6214 9.56986 16.8155L9.14184 18.1638C8.50472 17.8901 7.91409 17.5281 7.38595 17.0928ZM9.21094 22.5938L10.0546 19.9361C10.6802 20.0801 11.3314 20.1562 12 20.1562C12.6686 20.1562 13.3198 20.0801 13.9454 19.9361L14.7891 22.5938H9.21094Z" fill="#A2792C"/>
</svg>
