<svg width="20" height="20" viewBox="0 0 20 20" fill="none" xmlns="http://www.w3.org/2000/svg">
<path d="M17.6167 1.2C17.3833 0.472727 16.75 0 16 0H4.01667C3.25 0 2.63333 0.472727 2.38333 1.2L0 8.67273L0.016667 18.6909C0.016667 19.3818 0.533333 20 1.16667 20H2.2C2.83333 20 3.33333 19.3091 3.33333 18.6182V16.3636H16.6667V18.6182C16.6667 19.3091 17.1833 20 17.8167 20H18.8333C19.4667 20 19.9833 19.3818 19.9833 18.6909L20 16.2V8.67273L17.6167 1.2ZM4.01667 1.81818H16L17.7167 7.27273H2.3L4.01667 1.81818ZM3.33333 12.7273C2.41667 12.7273 1.66667 11.9091 1.66667 10.9091C1.66667 9.90909 2.41667 9.09091 3.33333 9.09091C4.25 9.09091 5 9.90909 5 10.9091C5 11.9091 4.25 12.7273 3.33333 12.7273ZM16.6667 12.7273C15.75 12.7273 15 11.9091 15 10.9091C15 9.90909 15.75 9.09091 16.6667 9.09091C17.5833 9.09091 18.3333 9.90909 18.3333 10.9091C18.3333 11.9091 17.5833 12.7273 16.6667 12.7273Z" fill="#A2792C"/>
</svg>
