<svg width="56" height="59" viewBox="0 0 56 59" fill="none" xmlns="http://www.w3.org/2000/svg">
<path fill-rule="evenodd" clip-rule="evenodd" d="M19.3933 8.40672C19.7949 8.64101 20.2581 8.72613 20.71 8.64869C21.3976 8.41452 21.3464 8.64869 22.2168 8.64869C22.8605 8.64869 23.8626 7.91496 23.7968 10.2098L24.0455 10.28H24.1186L23.5554 11.2557C23.6724 11.326 23.4896 11.3338 23.7017 11.2557L23.9065 11.1465C23.8553 11.8802 24.221 11.0684 23.9065 11.7241C24.21 11.6031 24.4673 11.3779 24.638 11.084C24.8315 10.823 24.9937 10.5372 25.1207 10.2332C25.8522 7.41538 25.1207 8.36766 24.1918 7.59491C24.3638 7.47064 24.5641 7.39851 24.7715 7.38614C24.9789 7.37377 25.1855 7.42165 25.3694 7.52468C25.3694 7.22026 25.289 7.2749 25.0183 7.12659C24.7477 6.97828 24.7916 6.93147 24.5355 6.75194C24.1332 6.46313 23.5919 6.75193 23.0726 6.65046C22.4143 5.76843 22.8166 5.75282 22.9044 5.38596C22.2168 4.86299 20.7904 5.23764 19.9054 5.31569C18.8155 5.41716 17.7914 5.08932 16.9795 5.15957L17.433 5.30788C17.2209 5.46399 17.0673 5.35473 17.433 5.42498C17.433 5.42498 17.2648 5.66693 17.2062 5.54985L20.176 5.50302C20.1992 5.68933 20.2409 5.8725 20.3004 6.04942C20.4979 6.56458 20.7246 6.56458 20.849 6.92364C20.9733 7.28269 20.849 7.25931 21.0538 7.44665C21.0538 7.44665 21.0099 7.44664 21.0026 7.49348C20.8179 7.74413 20.5607 7.9225 20.2711 8.00081C19.8907 8.06326 19.4592 8.11008 19.0715 8.14131L19.2105 8.23497C19.386 8.36766 19.269 8.2428 19.3933 8.40672Z" fill="url(#paint0_linear)"/>
<path fill-rule="evenodd" clip-rule="evenodd" d="M44.2715 15.728C42.5379 15.892 42.2965 15.5875 41.6894 16.774C41.1923 17.7258 40.9565 18.8079 41.0092 19.8962L41.2286 19.4747C41.331 19.7947 41.2286 19.662 41.4115 19.7869C41.6455 18.3195 41.5431 18.5849 42.516 17.7341L42.8086 17.4218C43.1889 16.9535 43.0865 17.0706 42.9695 16.7896C43.1118 16.8209 43.2587 16.8209 43.401 16.7896H43.4669L43.6497 16.6959C43.9123 16.6341 44.1844 16.6341 44.447 16.6959C44.5421 16.3369 44.2495 16.8364 44.5787 16.3369C45.1813 16.9063 45.9692 17.2005 46.7731 17.1564C46.9526 17.1269 47.1361 17.1441 47.3081 17.2066C47.48 17.2692 47.6352 17.3751 47.7605 17.5155C48.2945 17.3126 47.6142 17.3516 48.0385 17.297H48.2067C48.0677 17.1409 47.9726 17.1096 47.8922 16.8911C47.8117 16.6725 48.0677 17.0237 47.841 16.774C47.841 16.774 47.2192 16.2354 47.1973 16.2198C47.7386 15.4392 46.9998 16.1652 47.9287 15.4392L48.3969 15.1192C49.3624 14.9787 48.6602 14.6587 49.0332 14.565C49.5306 14.487 49.6038 14.6275 50.1451 14.6665C50.5501 14.6339 50.953 14.5765 51.3519 14.4948C52.1346 14.4557 52.8149 14.8304 53.7365 14.7914C53.6268 14.3465 53.5171 14.7914 53.678 14.6274C53.8389 14.4635 53.7365 14.6274 53.7365 14.6274L48.2579 13.8001C47.1388 13.7532 47.424 14.323 46.2098 14.9319C45.8286 15.1386 45.3962 15.2123 44.9737 15.1426C44.1325 15.0334 44.4543 15.4236 44.2715 15.728Z" fill="url(#paint1_linear)"/>
<path fill-rule="evenodd" clip-rule="evenodd" d="M36.3126 12.8632C37.0359 12.8632 37.743 12.6343 38.3445 12.2054C38.9459 11.7766 39.4147 11.1671 39.6915 10.4539C39.9683 9.7408 40.0407 8.95609 39.8996 8.19902C39.7585 7.44195 39.4102 6.74651 38.8987 6.2007C38.3872 5.65488 37.7355 5.28321 37.0261 5.13262C36.3166 4.98203 35.5813 5.05928 34.913 5.35468C34.2447 5.65007 33.6735 6.15031 33.2716 6.79212C32.8698 7.43393 32.6553 8.18848 32.6553 8.96038C32.6553 9.99547 33.0406 10.9882 33.7265 11.7201C34.4124 12.452 35.3426 12.8632 36.3126 12.8632Z" fill="url(#paint2_linear)"/>
<path fill-rule="evenodd" clip-rule="evenodd" d="M37.4973 4.88642C37.4298 4.47429 37.4914 4.04994 37.6726 3.6789C37.8537 3.30786 38.1443 3.01077 38.4994 2.83355C38.7895 2.57228 39.0133 2.23725 39.1501 1.85937C39.2869 1.48149 39.3323 1.07292 39.2821 0.671387C39.1424 1.12274 38.9179 1.53898 38.6223 1.89463C38.3268 2.25027 37.9664 2.53788 37.5631 2.73988C37.2245 2.94704 36.9457 3.24958 36.7574 3.61439C36.569 3.9792 36.4783 4.39225 36.4951 4.80838L37.4973 4.88642Z" fill="url(#paint3_linear)"/>
<path fill-rule="evenodd" clip-rule="evenodd" d="M38.4626 5.31617C38.4984 4.90166 38.6611 4.51127 38.9255 4.20517C39.1898 3.89908 39.5412 3.69428 39.9254 3.62238C40.2692 3.44813 40.5666 3.18462 40.7902 2.85597C41.0138 2.52732 41.1566 2.14401 41.2055 1.74121C40.9603 2.1488 40.6389 2.4979 40.2612 2.76655C39.8836 3.0352 39.458 3.21761 39.0111 3.30232C38.6344 3.40875 38.2925 3.62387 38.0228 3.92404C37.7532 4.22421 37.5662 4.59787 37.4824 5.00398L38.4626 5.31617Z" fill="url(#paint4_linear)"/>
<path fill-rule="evenodd" clip-rule="evenodd" d="M39.2748 6.0332C39.4111 5.64235 39.6638 5.31003 39.9941 5.08724C40.3245 4.86445 40.7142 4.76354 41.1035 4.79996C41.4775 4.72784 41.8283 4.55628 42.1237 4.30116C42.419 4.04603 42.6493 3.71558 42.7933 3.34033C42.4617 3.65821 42.0724 3.89983 41.6496 4.05023C41.2267 4.20063 40.7794 4.25659 40.3355 4.21455C39.9459 4.21499 39.564 4.32947 39.2312 4.54556C38.8984 4.76164 38.6276 5.07104 38.4482 5.44002L39.2748 6.0332Z" fill="url(#paint5_linear)"/>
<path fill-rule="evenodd" clip-rule="evenodd" d="M39.8898 6.95408C40.1151 6.61366 40.4392 6.36192 40.8121 6.23777C41.1849 6.11362 41.5857 6.12396 41.9525 6.26721C42.3316 6.29986 42.7124 6.2305 43.06 6.0655C43.4076 5.90051 43.7108 5.64514 43.942 5.32275C43.544 5.53801 43.1087 5.66362 42.6633 5.69182C42.2179 5.72002 41.7717 5.65021 41.3527 5.48668C40.9761 5.37941 40.5791 5.38455 40.205 5.50155C39.831 5.61854 39.4942 5.84287 39.2314 6.15011L39.8898 6.95408Z" fill="url(#paint6_linear)"/>
<path fill-rule="evenodd" clip-rule="evenodd" d="M40.2621 8.00883C40.5615 7.74138 40.935 7.58655 41.325 7.56821C41.715 7.54987 42.0998 7.66903 42.42 7.90735C42.7778 8.04551 43.1625 8.08504 43.5384 8.02227C43.9143 7.9595 44.2693 7.79644 44.5705 7.54825C44.1344 7.64528 43.6842 7.64617 43.2478 7.55087C42.8113 7.45556 42.3977 7.26609 42.0323 6.99404C41.697 6.78839 41.3156 6.6841 40.929 6.69235C40.5424 6.7006 40.1652 6.82108 39.8379 7.04087L40.2621 8.00883Z" fill="url(#paint7_linear)"/>
<path fill-rule="evenodd" clip-rule="evenodd" d="M40.365 9.14092C40.7187 8.96473 41.1169 8.91819 41.4979 9.00853C41.8789 9.09887 42.2212 9.32105 42.4716 9.64048C42.7879 9.87682 43.1554 10.023 43.5394 10.0654C43.9234 10.1077 44.3112 10.0448 44.666 9.88245C44.221 9.85722 43.7856 9.73471 43.3867 9.52257C42.9879 9.31043 42.6341 9.01317 42.3473 8.64918C42.0728 8.35468 41.7276 8.14646 41.3496 8.04734C40.9716 7.94821 40.5753 7.96198 40.2041 8.08716L40.365 9.14092Z" fill="url(#paint8_linear)"/>
<path fill-rule="evenodd" clip-rule="evenodd" d="M40.1895 10.2491C40.5745 10.179 40.9705 10.2456 41.3167 10.4388C41.6629 10.632 41.9401 10.941 42.1059 11.3185C42.3516 11.627 42.6656 11.865 43.0195 12.0109C43.3734 12.1567 43.7558 12.2059 44.132 12.1537C43.7117 12.0082 43.3233 11.7734 42.9902 11.4635C42.6571 11.1537 42.3861 10.7751 42.1937 10.3506C42.0007 9.98989 41.7185 9.69278 41.3779 9.49177C41.0373 9.29076 40.6515 9.19359 40.2626 9.21097L40.1895 10.2491Z" fill="url(#paint9_linear)"/>
<path fill-rule="evenodd" clip-rule="evenodd" d="M39.751 11.2789C40.1403 11.3168 40.5072 11.4901 40.7953 11.7721C41.0834 12.0541 41.2767 12.4293 41.3456 12.84C41.5077 13.2062 41.7534 13.5232 42.0601 13.7619C42.3668 14.0006 42.7247 14.1532 43.1011 14.2059C42.7238 13.9429 42.4021 13.5988 42.1565 13.1956C41.9109 12.7924 41.7469 12.339 41.6748 11.8643C41.5728 11.4635 41.3705 11.0999 41.0896 10.8125C40.8087 10.5251 40.4597 10.3247 40.0801 10.2329L39.751 11.2789Z" fill="url(#paint10_linear)"/>
<path fill-rule="evenodd" clip-rule="evenodd" d="M39.0771 12.1457C39.4448 12.2898 39.7578 12.5589 39.968 12.9115C40.1781 13.2642 40.2738 13.6808 40.2402 14.0972C40.307 14.4954 40.4667 14.8692 40.7045 15.1843C40.9422 15.4994 41.2504 15.7456 41.6007 15.9003C41.3042 15.5455 41.0787 15.1299 40.9379 14.679C40.797 14.228 40.7438 13.7512 40.7814 13.2776C40.7834 12.8623 40.6778 12.4546 40.4765 12.0993C40.2752 11.7439 39.9858 11.4548 39.6404 11.2637L39.0771 12.1457Z" fill="url(#paint11_linear)"/>
<path fill-rule="evenodd" clip-rule="evenodd" d="M38.2139 12.8017C38.5459 13.0381 38.7941 13.3866 38.9188 13.7912C39.0434 14.1959 39.0373 14.6335 38.9015 15.0341C38.8687 15.4382 38.9319 15.8446 39.0854 16.2157C39.2388 16.5868 39.4775 16.9106 39.7793 17.1572C39.5798 16.733 39.4633 16.2701 39.4369 15.7964C39.4105 15.3227 39.4747 14.8482 39.6257 14.4018C39.7263 14.0006 39.7222 13.5776 39.6139 13.1787C39.5056 12.7797 39.2972 12.4199 39.0112 12.1382L38.2139 12.8017Z" fill="url(#paint12_linear)"/>
<path fill-rule="evenodd" clip-rule="evenodd" d="M37.2265 13.1999C37.4849 13.5233 37.634 13.9299 37.6499 14.3545C37.6658 14.7791 37.5476 15.1971 37.3143 15.5415C37.1872 15.9242 37.1521 16.3348 37.2121 16.7357C37.2722 17.1366 37.4255 17.5151 37.6581 17.8364C37.565 17.3711 37.563 16.8903 37.6524 16.4242C37.7418 15.958 37.9205 15.5167 38.1774 15.1278C38.3683 14.7691 38.4643 14.3618 38.4553 13.9494C38.4463 13.537 38.3325 13.135 38.1262 12.7861L37.2265 13.1999Z" fill="url(#paint13_linear)"/>
<path fill-rule="evenodd" clip-rule="evenodd" d="M36.1741 13.3084C36.3373 13.6875 36.3799 14.1131 36.2954 14.5203C36.2109 14.9276 36.0039 15.2942 35.706 15.5642C35.4813 15.9 35.3418 16.2921 35.3008 16.7023C35.2597 17.1125 35.3187 17.5271 35.4719 17.9059C35.4977 17.4307 35.6142 16.9662 35.8142 16.5407C36.0142 16.1152 36.2935 15.7378 36.6349 15.4316C36.9095 15.1376 37.1037 14.7693 37.1965 14.3662C37.2893 13.9632 37.2773 13.5408 37.1616 13.1445L36.1741 13.3084Z" fill="url(#paint14_linear)"/>
<path fill-rule="evenodd" clip-rule="evenodd" d="M35.1286 13.1211C35.1955 13.5321 35.1337 13.9553 34.9525 14.325C34.7713 14.6947 34.481 14.9903 34.1264 15.1662C33.8371 15.4294 33.6144 15.7662 33.4789 16.1454C33.3434 16.5246 33.2994 16.9341 33.3511 17.3361C33.4885 16.8835 33.7121 16.4661 34.0079 16.1101C34.3037 15.7541 34.6654 15.4673 35.07 15.2676C35.4062 15.0581 35.6826 14.7549 35.8694 14.3905C36.0563 14.0261 36.1466 13.6142 36.1307 13.1992L35.1286 13.1211Z" fill="url(#paint15_linear)"/>
<path fill-rule="evenodd" clip-rule="evenodd" d="M34.1697 12.6919C34.133 13.1069 33.9702 13.4978 33.7061 13.8049C33.442 14.1121 33.0911 14.3188 32.7068 14.3935C32.3627 14.5653 32.065 14.8271 31.8412 15.1546C31.6174 15.4821 31.4748 15.8648 31.4268 16.2669C31.6746 15.8656 31.9974 15.5232 32.375 15.2613C32.7526 14.9994 33.1768 14.8235 33.6211 14.7448C33.9978 14.6383 34.3397 14.4233 34.6094 14.1231C34.8791 13.8229 35.0661 13.4493 35.1498 13.0432L34.1697 12.6919Z" fill="url(#paint16_linear)"/>
<path fill-rule="evenodd" clip-rule="evenodd" d="M33.3504 11.9116C33.2158 12.3025 32.9647 12.6356 32.6358 12.8597C32.3068 13.0839 31.9181 13.1868 31.5291 13.1527C31.1541 13.2243 30.802 13.3956 30.5054 13.6507C30.2088 13.9058 29.9772 14.2365 29.832 14.6123C30.1636 14.2945 30.5528 14.0528 30.9757 13.9024C31.3985 13.752 31.8458 13.6961 32.2898 13.7381C32.6802 13.7374 33.0631 13.6228 33.397 13.4068C33.7308 13.1909 34.0031 12.8817 34.1843 12.5127L33.3504 11.9116Z" fill="url(#paint17_linear)"/>
<path fill-rule="evenodd" clip-rule="evenodd" d="M32.7354 11.021C32.5101 11.3614 32.186 11.6132 31.8131 11.7374C31.4403 11.8615 31.0395 11.8512 30.6727 11.7079C30.2867 11.6764 29.8996 11.7501 29.5477 11.9222C29.1959 12.0942 28.8908 12.3589 28.6611 12.6915C29.0592 12.4762 29.4944 12.3506 29.9399 12.3224C30.3853 12.2942 30.8315 12.364 31.2505 12.5275C31.6272 12.6348 32.0241 12.6297 32.3982 12.5127C32.7723 12.3957 33.1091 12.1713 33.3718 11.864L32.7354 11.021Z" fill="url(#paint18_linear)"/>
<path fill-rule="evenodd" clip-rule="evenodd" d="M32.363 9.95942C32.0637 10.2269 31.6902 10.3817 31.3002 10.4C30.9102 10.4184 30.5254 10.2992 30.2052 10.0609C29.8474 9.92274 29.4627 9.88322 29.0868 9.94599C28.7108 10.0088 28.3558 10.1718 28.0547 10.42C28.4908 10.323 28.9409 10.3221 29.3774 10.4174C29.8139 10.5127 30.2275 10.7021 30.5929 10.9742C30.929 11.1779 31.3107 11.2804 31.6971 11.2707C32.0836 11.2611 32.4604 11.1397 32.7873 10.9195L32.363 9.95942Z" fill="url(#paint19_linear)"/>
<path fill-rule="evenodd" clip-rule="evenodd" d="M32.26 8.83599C31.9063 9.01218 31.508 9.05873 31.1271 8.96838C30.7461 8.87804 30.4038 8.65587 30.1534 8.33645C29.8372 8.10021 29.4701 7.95342 29.0863 7.90974C28.7026 7.86606 28.3147 7.92691 27.959 8.08667C28.4043 8.11425 28.8396 8.23857 29.2383 8.45197C29.637 8.66537 29.9907 8.96336 30.2777 9.32773C30.5542 9.62141 30.9007 9.82896 31.2797 9.92799C31.6586 10.027 32.0557 10.0138 32.4282 9.88969L32.26 8.83599Z" fill="url(#paint20_linear)"/>
<path fill-rule="evenodd" clip-rule="evenodd" d="M32.4358 7.72754C32.0507 7.79768 31.6547 7.73105 31.3085 7.53788C30.9623 7.34471 30.6851 7.03566 30.5194 6.65816C30.275 6.348 29.961 6.10879 29.6068 5.96277C29.2526 5.81675 28.8695 5.76865 28.4932 5.82294C28.9169 5.97039 29.3077 6.20933 29.6412 6.52491C29.9747 6.84049 30.2437 7.22594 30.4316 7.65727C30.6267 8.01718 30.9106 8.31307 31.2524 8.51264C31.5942 8.71222 31.9807 8.80784 32.37 8.78911L32.4358 7.72754Z" fill="url(#paint21_linear)"/>
<path fill-rule="evenodd" clip-rule="evenodd" d="M32.8746 6.69753C32.4857 6.66053 32.1192 6.48737 31.8321 6.20503C31.545 5.92269 31.3535 5.54702 31.2873 5.13645C31.124 4.76958 30.877 4.4523 30.5691 4.21366C30.2611 3.97502 29.9019 3.82265 29.5244 3.77051C29.8976 4.02922 30.2169 4.36718 30.4623 4.76333C30.7077 5.15949 30.874 5.60536 30.9508 6.07311C31.0529 6.47593 31.256 6.84139 31.5383 7.1302C31.8205 7.41902 32.1713 7.62025 32.5527 7.71223L32.8746 6.69753Z" fill="url(#paint22_linear)"/>
<path fill-rule="evenodd" clip-rule="evenodd" d="M33.548 5.82238C33.1816 5.67957 32.8697 5.41158 32.6607 5.06011C32.4517 4.70864 32.3573 4.29337 32.3923 3.87878C32.3233 3.4794 32.1621 3.10464 31.9232 2.78845C31.6844 2.47227 31.3755 2.22462 31.0244 2.06787C31.3208 2.42267 31.5464 2.83823 31.6872 3.28917C31.8281 3.7401 31.8813 4.21693 31.8437 4.69055C31.8437 5.10639 31.9499 5.51438 32.151 5.87059C32.352 6.22681 32.6403 6.51779 32.9848 6.71223L33.548 5.82238Z" fill="url(#paint23_linear)"/>
<path fill-rule="evenodd" clip-rule="evenodd" d="M34.4106 5.16659C34.0903 4.9272 33.8529 4.58178 33.7352 4.18383C33.6175 3.78589 33.6261 3.35762 33.7596 2.96539C33.7924 2.56129 33.7291 2.15489 33.5757 1.78378C33.4223 1.41268 33.1836 1.08887 32.8818 0.842285C33.0836 1.26703 33.2013 1.7315 33.2277 2.20684C33.2541 2.68219 33.1887 3.15824 33.0355 3.60546C32.9349 4.0067 32.9389 4.42967 33.0472 4.82862C33.1555 5.22757 33.3639 5.58736 33.6499 5.86912L34.4106 5.16659Z" fill="url(#paint24_linear)"/>
<path fill-rule="evenodd" clip-rule="evenodd" d="M35.398 4.77664C35.1409 4.45261 34.9926 4.04617 34.9767 3.62191C34.9608 3.19764 35.0782 2.77988 35.3103 2.43497C35.4377 2.05412 35.4737 1.64527 35.4149 1.24575C35.3562 0.846227 35.2045 0.468787 34.9738 0.147949C35.065 0.612081 35.066 1.09125 34.9767 1.5558C34.8873 2.02034 34.7096 2.46039 34.4545 2.84869C34.2634 3.20698 34.1665 3.61374 34.1743 4.02595C34.182 4.43817 34.294 4.8405 34.4984 5.19035L35.398 4.77664Z" fill="url(#paint25_linear)"/>
<path fill-rule="evenodd" clip-rule="evenodd" d="M36.4521 4.66767C36.2897 4.28783 36.2483 3.86176 36.3341 3.45445C36.42 3.04714 36.6284 2.68101 36.9275 2.41194C37.1503 2.07512 37.2882 1.68283 37.3279 1.27276C37.3676 0.862686 37.3078 0.448618 37.1543 0.0703125C37.1288 0.54717 37.011 1.01321 36.8083 1.43907C36.6056 1.86493 36.3224 2.24134 35.9766 2.54462C35.7007 2.83925 35.5057 3.20895 35.4129 3.61352C35.32 4.0181 35.3328 4.44207 35.4499 4.83941L36.4521 4.66767Z" fill="url(#paint26_linear)"/>
<path fill-rule="evenodd" clip-rule="evenodd" d="M32.5091 42.7904C32.4751 42.7948 32.4407 42.7948 32.4067 42.7904C32.3335 42.9387 32.136 42.9387 31.9824 42.9153H31.7776C31.7338 42.9176 31.6912 42.931 31.6532 42.9543C31.8142 42.9543 32.0482 43.3134 31.8288 43.3134C31.7779 43.3222 31.726 43.3222 31.6752 43.3134C31.7264 43.3836 31.7849 43.4382 31.6752 43.5085C31.5239 43.4501 31.3583 43.4501 31.2071 43.5085C31.1412 43.5085 31.0388 43.5788 31.0242 43.6646H31.0827C31.0827 43.7895 30.8413 43.93 30.9949 44.4452C31.0024 44.4785 31.0024 44.5133 30.9949 44.5466C30.8768 44.5917 30.7797 44.6841 30.7243 44.8042L30.6438 44.9916C30.5926 45.1165 30.5707 45.0931 30.5341 45.1555C30.6584 45.1555 30.5853 45.3428 30.5341 45.3897C30.5055 45.4283 30.481 45.4702 30.4609 45.5145C30.3951 45.6628 30.461 45.9126 30.4098 46.0765C30.3586 46.2405 30.3585 46.1858 30.3512 46.217C30.4902 46.1312 30.5122 46.217 30.5122 46.3966C30.5027 46.4847 30.5027 46.5738 30.5122 46.662L30.3293 46.7166C29.873 46.8142 29.4031 46.8142 28.9468 46.7166L28.5006 46.6463C28.2519 46.6463 28.0178 46.5605 27.7691 46.5292H27.4619H27.301C27.0944 46.5051 26.8859 46.5051 26.6793 46.5292H26.4818C26.3894 46.5459 26.2988 46.5721 26.2111 46.6073C26.1231 46.6329 26.0374 46.6669 25.9551 46.7088C25.8751 46.7431 25.7969 46.7821 25.721 46.8258L25.1724 47.2318L25.1066 47.2864L24.697 47.7157C24.6092 47.8094 24.4556 48.0045 24.3678 48.0982C24.2801 48.1918 24.1118 48.4026 23.9802 48.5431L23.8631 48.668C23.7431 48.7908 23.6161 48.9055 23.4828 49.0114C23.372 49.1016 23.2517 49.1776 23.1243 49.2378C22.9802 49.2999 22.8308 49.347 22.6781 49.3783C22.5648 49.414 22.445 49.4199 22.3291 49.3954C22.2132 49.3709 22.1046 49.3168 22.0125 49.2378C21.7931 48.9802 21.954 48.6055 22.1368 48.387L22.1954 48.3245C22.3005 48.2137 22.4215 48.1215 22.5538 48.0513H22.6343C22.9634 47.8874 22.9195 47.9342 23.2706 48.0513C23.398 48.1022 23.5383 48.1022 23.6656 48.0513H23.7461L23.8119 47.9889C23.8519 47.9415 23.8863 47.8891 23.9143 47.8328C23.9631 47.7585 24.0223 47.6927 24.0899 47.6377C24.1151 47.6212 24.1374 47.6 24.1557 47.5752H24.0972H24.024C24.024 47.5752 24.024 47.5752 24.024 47.5049C24.024 47.4347 24.1264 47.3723 24.1703 47.302L24.0899 47.341C23.8046 47.4503 23.5266 47.1147 23.117 47.4191C22.9342 47.5518 22.9268 47.7469 22.7805 47.786C22.6082 47.8338 22.4414 47.9018 22.2831 47.9889C22.0881 48.089 21.9121 48.2266 21.7638 48.3948L21.6687 48.5275C21.6391 48.5778 21.6122 48.6299 21.5882 48.6836C21.5304 48.7992 21.4979 48.9273 21.4932 49.0583V49.1831C21.4994 49.298 21.5294 49.4099 21.5809 49.511C21.6702 49.6574 21.7929 49.7772 21.9375 49.8591C22.0821 49.941 22.2438 49.9824 22.4075 49.9793C22.6284 49.9856 22.8486 49.9513 23.0585 49.8778L23.2194 49.8232C23.3865 49.7572 23.5501 49.6817 23.7095 49.5969L23.7826 49.5578C23.9589 49.4616 24.1299 49.3548 24.2947 49.2378C24.4337 49.1285 24.58 49.027 24.7116 48.9177C24.8433 48.8085 24.7482 48.9177 24.7848 48.9177C24.7578 49.0142 24.7235 49.1082 24.6824 49.1988C24.5885 49.4693 24.5199 49.7491 24.4775 50.034C24.4739 50.0755 24.4739 50.1173 24.4775 50.1588C24.4899 50.4539 24.4728 50.7496 24.4263 51.0409L24.3751 51.158C24.3142 51.2711 24.2605 51.3884 24.2142 51.5092C24.1703 51.6341 24.1703 51.798 24.1191 51.9385C24.0899 52.0158 24.0388 52.0813 23.9728 52.1258C23.9186 52.1558 23.8719 52.199 23.8363 52.2519C23.8007 52.3048 23.7773 52.3659 23.768 52.4302C23.7317 52.7756 23.6706 53.1174 23.5852 53.4528C23.5852 53.4996 23.5852 53.5308 23.5413 53.5855C23.5056 53.7893 23.4812 53.9952 23.4681 54.2021C23.4579 54.4444 23.4059 54.6826 23.3145 54.9046C23.2121 55.1232 23.3145 55.1466 23.373 55.3495C23.4315 55.5525 23.373 55.5759 23.4315 55.6774C23.4828 55.9037 23.7534 56.1145 23.9655 55.9818C24.0094 55.9818 24.0167 55.9115 24.0752 55.9115C24.2508 55.9115 24.3386 55.9506 24.441 55.8413C24.5434 55.732 24.6019 55.7788 24.6604 55.7164C24.7189 55.6539 24.6604 55.5525 24.6604 55.4822C24.5434 55.1154 24.3605 55.3105 24.1484 55.1231C23.9362 54.9358 24.046 54.7719 24.0972 54.5768C24.1484 54.3816 24.2947 54.0694 24.3459 53.8665C24.3971 53.6635 24.4044 53.5855 24.4483 53.3903C24.4518 53.3404 24.4669 53.2921 24.4922 53.2498C24.5779 53.1389 24.6887 53.053 24.814 53.0001L25.0481 52.8596C25.1947 52.7618 25.3341 52.6521 25.465 52.5317L25.5089 52.4927C25.594 52.4202 25.6724 52.3391 25.743 52.2507L25.7869 52.1961C25.9502 51.9472 26.0969 51.6864 26.2258 51.4155C26.3428 51.2438 26.4452 51.1033 26.5037 51.3687C26.5508 51.6012 26.5304 51.8435 26.4452 52.0634C26.3708 52.2537 26.2723 52.4323 26.1526 52.5942L26.1014 52.6644C25.9844 52.8518 25.7869 52.961 25.9551 53.2264L26.0063 53.2967C26.1241 53.4424 26.2293 53.5992 26.3208 53.765C26.4634 54.0135 26.5858 54.2747 26.6866 54.5455L26.7817 54.8422C26.8402 55.0607 26.9865 54.9827 27.0377 55.0998C27.0954 55.2083 27.1838 55.2946 27.2901 55.3464C27.3965 55.3983 27.5155 55.413 27.6302 55.3886C27.6691 55.3849 27.7083 55.3849 27.7472 55.3886C27.8642 55.3886 28.0325 55.451 28.1349 55.3886C28.2373 55.3261 28.2885 55.3885 28.3763 55.3105C28.464 55.2324 28.4201 55.0997 28.3763 55.0373C28.23 54.7875 28.2446 54.8343 28.0471 54.8343C27.9133 54.8406 27.7805 54.8075 27.6631 54.7386C27.5457 54.6698 27.4483 54.5679 27.3815 54.4441L27.3449 54.3894L27.2864 54.2802C27.2462 54.2053 27.212 54.1269 27.184 54.046C27.1182 53.8899 27.0669 53.7104 27.0084 53.5465C26.9673 53.4658 26.9377 53.3789 26.9206 53.2889C26.9206 53.1796 27.0304 53.1093 27.0889 53.0469L27.2864 52.8439L27.3888 52.7425C27.4824 52.6441 27.5703 52.5398 27.6521 52.4302C27.7747 52.2732 27.8779 52.1001 27.9593 51.9151C28.0011 51.814 28.0353 51.7096 28.0617 51.6028C28.0617 51.517 28.0983 51.3375 28.208 51.3375C28.262 51.34 28.3146 51.356 28.3616 51.3843L28.5006 51.439C28.7174 51.5115 28.9404 51.5612 29.1663 51.5873H29.5393C29.5419 51.7063 29.5747 51.8223 29.6344 51.9229C29.6863 52.0118 29.7424 52.0978 29.8026 52.1805C29.8508 52.2432 29.8925 52.3112 29.927 52.3834C29.9956 52.5169 30.0261 52.6688 30.0148 52.8205L30.1757 52.7268C30.2635 52.7893 30.2342 52.7971 30.3586 52.8283C30.3935 52.8318 30.4273 52.8434 30.4576 52.8623C30.4879 52.8812 30.514 52.9069 30.5341 52.9376C30.5801 52.9883 30.6317 53.0328 30.6877 53.0703C30.7974 53.1561 30.9291 53.2186 31.0388 53.2967L31.1193 53.3591L31.2802 53.4918C31.3553 53.5663 31.4108 53.6605 31.4411 53.765L31.3899 53.8353C31.3798 53.8639 31.3649 53.8903 31.346 53.9133C31.3021 53.9601 31.2144 53.9133 31.1412 53.9133C31.0681 53.9133 30.9364 53.9757 30.8486 53.9133C30.7968 53.8928 30.7412 53.8852 30.6862 53.8909C30.6311 53.8966 30.578 53.9157 30.5308 53.9465C30.4837 53.9773 30.4436 54.0191 30.4138 54.0688C30.384 54.1184 30.3651 54.1747 30.3586 54.2333C30.3586 54.5533 30.578 54.5455 30.7535 54.5768C30.9291 54.608 30.951 54.7719 31.2436 54.7719C31.5362 54.7719 31.5655 54.6782 31.7483 54.6782C31.9125 54.6794 32.0722 54.6217 32.2018 54.5143C32.3993 54.366 32.4213 54.1709 32.4579 54.1475C32.4944 54.124 32.5749 54.2489 32.5968 54.3036L32.6919 54.5299C32.7505 54.686 32.809 54.8266 32.8602 54.9905L32.926 55.2324C33.0211 55.4666 33.1966 55.4978 33.2844 55.732V55.7866C33.3327 55.8547 33.3961 55.9088 33.4689 55.9442C33.5417 55.9797 33.6216 55.9952 33.7014 55.9896H33.8476C33.9323 55.982 34.0158 55.9637 34.0963 55.935C34.2207 55.8881 34.3889 56.013 34.5718 55.8725C34.6376 55.8179 34.6523 55.7164 34.7108 55.7164C34.7693 55.7164 34.7766 55.7164 34.8132 55.7164C34.8283 55.7047 34.8408 55.6895 34.8496 55.6719C34.8585 55.6543 34.8636 55.6348 34.8644 55.6149C34.8644 55.5134 34.6815 55.3417 34.6011 55.2715C34.5841 55.249 34.5631 55.2305 34.5392 55.2171C34.5153 55.2036 34.489 55.1956 34.4621 55.1934C34.2573 55.1934 34.0452 55.3027 33.8842 55.1934C33.7465 55.1262 33.6317 55.015 33.5557 54.8752C33.4797 54.7354 33.4462 54.5738 33.46 54.4129C33.46 54.327 33.46 54.2646 33.46 54.1709C33.4552 53.879 33.4209 53.5885 33.3576 53.3045L33.2186 52.7113C33.2296 52.6499 33.252 52.5915 33.2844 52.5395C33.3915 52.3195 33.4797 52.0896 33.5477 51.8526C33.5477 51.7277 33.6209 51.6107 33.6428 51.478L33.7233 50.9628C33.7197 50.9239 33.7197 50.8847 33.7233 50.8457C33.7541 50.7283 33.8035 50.6174 33.8696 50.5179C34.0159 50.2291 33.95 49.9949 34.0232 49.9559H34.0963H34.1768C34.1849 49.9782 34.1976 49.9983 34.2141 50.0146C34.2306 50.0308 34.2504 50.0428 34.2719 50.0495C34.2634 49.9859 34.2688 49.9211 34.2879 49.8601C34.3069 49.7992 34.339 49.7437 34.3816 49.6983C34.5166 49.5708 34.6112 49.4017 34.6523 49.2143C34.6523 49.1441 34.6523 49.1675 34.7181 49.1441L34.7986 49.0973L34.879 49.0348C35.025 48.9024 35.1381 48.7334 35.2082 48.5431C35.2082 48.4884 35.2082 48.5431 35.2667 48.4729C35.3907 48.3547 35.4732 48.195 35.5008 48.0201C35.5201 47.9409 35.5323 47.8599 35.5373 47.7782C35.5373 47.6923 35.5373 47.6064 35.5739 47.5284C35.6105 47.4503 35.6178 47.302 35.7348 47.2786C35.7711 47.271 35.8083 47.271 35.8446 47.2786C35.8446 47.1147 35.5373 47.1225 35.5373 46.9508C35.5373 46.779 35.5885 46.7244 35.5959 46.6698C35.6675 46.3262 35.642 45.9676 35.5227 45.6394C35.4432 45.4896 35.3818 45.3296 35.3398 45.1633C35.3398 45.1242 35.3399 45.093 35.3911 45.0618C34.9887 45.0618 35.2228 44.8666 35.0253 44.2812C34.9808 44.1439 34.9104 44.0177 34.8186 43.9103C34.7268 43.803 34.6154 43.7167 34.4913 43.6568L34.3012 43.5709C34.2207 43.5241 34.0671 43.4461 34.0451 43.3446C34.0232 43.2431 34.0451 43.3446 33.9866 43.3914C33.9699 43.3964 33.9522 43.3964 33.9354 43.3914C33.833 43.3914 33.7672 43.2899 33.716 43.2119L33.5624 42.9621C33.512 42.8797 33.4475 42.8082 33.3722 42.7514C33.335 42.7158 33.2895 42.6915 33.2405 42.6811C33.2405 42.7826 33.2405 42.7514 33.2405 42.8138C33.2405 42.8763 33.0577 42.6655 32.8821 42.6655H32.7431C32.7431 42.6967 32.6334 42.7904 32.5091 42.7904Z" fill="#BC992E"/>
<path fill-rule="evenodd" clip-rule="evenodd" d="M29.2175 50.6665C29.3565 50.7445 29.4223 50.5103 29.4954 50.5806C29.5686 50.6508 29.3418 50.7835 29.649 50.7835C29.6051 50.7835 29.3711 50.8616 29.3857 50.6743C29.3148 50.6991 29.2408 50.7123 29.1663 50.7133C29.0639 50.7133 29.0639 50.6431 29.0785 50.5494C28.9076 50.6037 28.7301 50.63 28.5518 50.6274C28.3397 50.6274 28.347 50.3854 28.2227 50.3308C28.0983 50.2762 27.9154 50.4791 27.9008 50.6352C27.9006 50.7194 27.9224 50.802 27.9638 50.8737C28.0051 50.9454 28.0644 51.0034 28.1349 51.0411C28.3958 51.2379 28.6966 51.3662 29.0127 51.4158C29.1758 51.4419 29.3424 51.425 29.498 51.3665C29.6535 51.308 29.7933 51.2097 29.9051 51.0802C30.6365 50.2059 29.7368 48.4419 30.6365 47.3022C30.6894 47.2492 30.7383 47.1917 30.7828 47.1305C30.7885 47.1097 30.7872 47.0874 30.7792 47.0674C30.7712 47.0475 30.757 47.0312 30.7389 47.0212C30.6933 47.0093 30.6456 47.0093 30.5999 47.0212C30.5999 46.9822 30.6438 46.9822 30.6438 46.9275C30.6471 46.8755 30.6471 46.8234 30.6438 46.7714C30.4444 46.8263 30.2415 46.8654 30.0367 46.8885C29.5999 46.9045 29.1628 46.8652 28.7347 46.7714C28.5282 46.7195 28.3176 46.6881 28.1056 46.6777C27.3083 46.6777 26.9645 47.8174 27.9301 48.2857C28.0764 48.356 28.3251 48.4497 28.3324 48.6214C28.3397 48.7931 27.9228 49.0663 27.7618 49.1599C27.6818 49.2012 27.6058 49.2509 27.5351 49.3083C27.4473 49.3863 27.2718 49.6439 27.4034 49.8235C27.5351 50.003 28.1349 49.9015 28.347 50.3464C28.4055 50.4557 28.4055 50.5104 28.4933 50.5728C28.5811 50.6353 28.9103 50.5728 29.0785 50.5104C29.2467 50.4479 29.1955 50.565 29.2175 50.6665Z" fill="#BC992E"/>
<path fill-rule="evenodd" clip-rule="evenodd" d="M30.2561 52.2032C30.1795 52.1033 30.1156 51.9931 30.066 51.8754C30.0266 51.816 30.0055 51.7451 30.0055 51.6724C30.0055 51.5997 30.0266 51.5288 30.066 51.4695C30.1245 51.3992 30.3073 51.2665 30.3732 51.4695C30.3883 51.6187 30.4203 51.7655 30.4683 51.9066C30.5687 52.1377 30.702 52.351 30.8633 52.5388L30.9803 52.6715C31.1339 52.8666 31.4118 53.1555 31.5801 53.3584L31.8141 53.6394C31.9385 53.7956 31.7117 53.7955 31.6532 53.9126C31.5947 54.0297 31.4923 54.1156 31.346 54.0766C31.1997 54.0375 31.1778 54.1936 30.951 54.0766C30.923 54.0561 30.8899 54.0451 30.8559 54.0451C30.822 54.0451 30.7888 54.0561 30.7608 54.0766C30.7069 54.1074 30.6595 54.1499 30.6219 54.2014C30.6 54.2265 30.5838 54.2565 30.5745 54.2892C30.5651 54.3219 30.5627 54.3565 30.5677 54.3903C30.5726 54.4241 30.5846 54.4563 30.6029 54.4844C30.6212 54.5125 30.6452 54.5359 30.6731 54.5527C30.8121 54.6386 30.8267 54.5527 31.0607 54.6776C31.4338 54.9039 31.4777 54.6776 31.8288 54.6776C32.0409 54.6776 32.0702 54.6776 32.2238 54.5761C32.3241 54.4926 32.4038 54.3843 32.4561 54.2606C32.5083 54.1368 32.5315 54.0013 32.5237 53.8658C32.3701 52.8042 31.2582 51.8051 31.4411 51.368C31.576 51.1617 31.7359 50.9754 31.9166 50.8138C32.0996 50.6266 32.2246 50.3842 32.275 50.1191C32.1756 50.0982 32.0814 50.0555 31.9983 49.9937C31.9152 49.9318 31.845 49.8523 31.7922 49.76C31.6679 49.5024 31.7556 49.2526 31.485 49.2136C31.5435 49.1746 31.5874 49.1434 31.5581 49.0419C31.485 48.7843 30.9876 48.8546 31.0242 48.2614C31.0242 48.1911 31.0242 48.074 30.973 48.0584C30.9029 48.0652 30.8353 48.0892 30.7755 48.1287C30.7943 48.0621 30.809 47.9943 30.8194 47.9257C30.8431 47.7047 30.8206 47.4807 30.7535 47.27C30.6373 47.3633 30.5423 47.4834 30.4756 47.6213C30.3135 47.9422 30.2328 48.3028 30.2415 48.6673C30.2415 48.8858 30.2781 49.0809 30.2854 49.2839C30.2854 49.8147 30.4829 50.4781 30.1976 50.9777C30.1145 51.1063 30.0074 51.2152 29.8831 51.2978H29.9855L29.9343 51.3524C29.8905 51.3964 29.8557 51.4495 29.8319 51.5085C29.7875 51.5959 29.7578 51.6911 29.7441 51.7895C29.7807 51.7895 29.788 51.7895 29.8319 51.7895C29.8319 52.2657 30.1757 52.3671 30.2269 52.812C30.2269 52.812 30.2927 52.6481 30.3512 52.7652C30.4098 52.8823 30.4171 52.8823 30.5122 52.8745C30.5341 52.6091 30.2927 52.2969 30.2561 52.2032Z" fill="#BC992E"/>
<path fill-rule="evenodd" clip-rule="evenodd" d="M22.9634 47.9418H22.9195L22.9707 47.9028C22.883 47.9028 22.583 47.9965 22.5099 48.0355C22.2978 48.1124 22.1078 48.2461 21.958 48.4237C21.8081 48.6014 21.7035 48.8171 21.6541 49.0502C21.641 49.2121 21.6755 49.3742 21.7528 49.5141C21.8302 49.6541 21.9465 49.7648 22.0857 49.8308C22.422 49.9557 22.788 49.9557 23.1243 49.8308C23.5035 49.678 23.8495 49.4443 24.1411 49.1439C24.3971 48.8863 24.6677 48.496 24.9164 48.1994C24.9581 48.1354 25.0101 48.08 25.07 48.0355C25.2456 47.9574 25.2383 48.3321 25.209 48.4648C25.092 48.9565 24.7848 49.1673 24.6604 49.8151C24.5948 50.0971 24.5948 50.3918 24.6604 50.6737C24.6604 50.7752 24.7043 50.8298 24.7775 50.8689C24.8545 50.9057 24.938 50.9248 25.0225 50.9248C25.1069 50.9248 25.1904 50.9057 25.2675 50.8689C25.5967 50.6893 25.5821 50.2288 25.5894 49.9166C25.5894 49.0658 25.9039 48.0901 26.7744 47.9652C26.9865 47.9652 27.1401 47.9652 27.2059 47.7779C27.2718 47.5906 27.2425 46.9973 27.7618 46.7632C27.8204 46.7632 27.9667 46.7163 28.0032 46.6929C27.5709 46.603 27.1263 46.603 26.6939 46.6929C25.9836 46.8287 25.3383 47.2199 24.8652 47.8013L23.8046 48.9643C23.6821 49.0889 23.5472 49.1989 23.4023 49.2922C23.0705 49.5335 22.6661 49.6337 22.2685 49.5732C21.8589 49.5029 21.7931 49.0268 22.0637 48.6131C22.2738 48.2766 22.5951 48.0369 22.9634 47.9418Z" fill="#927E2F"/>
<path fill-rule="evenodd" clip-rule="evenodd" d="M32.0769 44.7492C32.071 44.6252 32.1017 44.5024 32.1647 44.398C32.2159 44.3043 32.3037 44.2341 32.3256 44.1092C32.2379 44.1003 32.1496 44.1165 32.0696 44.156C31.9441 44.233 31.8326 44.3335 31.7405 44.4526C31.6307 44.5619 31.6893 44.5931 31.7405 44.6634C31.6483 44.6611 31.559 44.6975 31.4918 44.7649C31.3235 44.9132 31.2065 45.4752 31.4479 45.5454L31.5795 45.3035C31.5983 45.2788 31.6154 45.2526 31.6307 45.2254C31.5909 45.2275 31.5515 45.2166 31.5175 45.1944C31.4836 45.1721 31.4567 45.1394 31.4406 45.1005C31.4272 45.0765 31.4099 45.0553 31.3894 45.038C31.3894 44.96 31.5503 44.7805 31.7332 45.1083C31.7332 45.1942 31.4186 45.5376 31.4479 45.6859C31.4844 45.6859 31.4991 45.6859 31.5649 45.6859H31.7039C31.8429 45.6859 31.8355 45.6859 31.9526 45.6859C31.9952 45.6454 32.0343 45.601 32.0696 45.5532L32.3329 45.2956C32.3329 45.2956 32.45 45.2098 32.4353 45.1473C32.4207 45.0849 32.3914 45.1473 32.3549 45.0927C32.3918 45.0389 32.4425 44.9976 32.501 44.9741C32.5594 44.9505 32.623 44.9456 32.684 44.96C32.794 44.9946 32.8961 45.0531 32.9839 45.1317C32.9181 45.1317 32.9108 45.1317 32.8523 45.1317C32.8008 45.17 32.7395 45.1905 32.6767 45.1905C32.6139 45.1905 32.5527 45.17 32.5012 45.1317L32.428 45.202C32.3622 45.2644 32.0696 45.4752 32.1208 45.5923C32.172 45.7093 32.4573 45.7483 32.5524 46.0059C32.6117 46.161 32.6117 46.3348 32.5524 46.4899C32.6083 46.5414 32.649 46.6092 32.6694 46.685C32.6694 46.9114 32.5085 47.1455 32.3256 47.0831C32.2671 47.0831 32.2671 47.0362 32.2305 47.0128C32.0556 46.9696 31.876 46.9513 31.6966 46.9582C31.6593 46.9595 31.6229 46.9709 31.5909 46.9914C31.5589 47.0119 31.5323 47.0408 31.5137 47.0753C31.4622 47.1446 31.4316 47.229 31.4259 47.3173C31.4259 47.3173 31.4625 47.3173 31.4991 47.3173C31.5357 47.3173 31.6893 47.4031 31.8355 47.4968C31.9306 47.3641 31.9014 47.6295 32.1354 47.5514C32.2305 47.5124 32.3183 47.4265 32.3915 47.4109C32.4646 47.3953 32.3915 47.4109 32.428 47.4109C32.5103 47.3499 32.5679 47.2579 32.5889 47.1534C32.6335 46.9385 32.7293 46.7396 32.8669 46.5757C32.8983 46.536 32.9353 46.5018 32.9766 46.4743C33.101 46.4118 33.2107 46.4743 33.1156 46.5211H33.0498C32.9839 46.5211 32.7645 46.5992 32.8523 46.7397C32.9401 46.8802 32.9254 46.8333 32.9693 46.8411C33.0132 46.8489 32.9693 46.7943 32.9693 46.7631C32.9693 46.7319 33.0644 46.9036 33.1229 46.9816C33.1376 46.9898 33.1539 46.9941 33.1705 46.9941C33.187 46.9941 33.2033 46.9898 33.218 46.9816C33.245 47.0336 33.2894 47.0726 33.3424 47.0909C33.3424 47.0051 33.3424 46.9895 33.4594 46.9582C33.5293 46.9408 33.6002 46.9277 33.6715 46.9192C33.8544 46.9192 33.8324 46.7553 33.7739 46.5913C33.8251 46.6382 33.8471 46.6928 33.9202 46.724C33.8471 46.2245 34.0592 46.0606 34.0665 45.6937C34.0665 45.5923 34.0665 45.4127 33.9568 45.3893C33.8471 45.3659 33.9056 45.4674 33.8544 45.5298C33.8544 45.3425 33.9202 45.1317 33.6276 44.9132L33.3789 44.7492C33.2989 44.6901 33.2296 44.616 33.1741 44.5307C33.1741 44.5307 33.1741 44.5307 33.1229 44.5775C33.0644 44.4058 33.1741 44.1794 33.0863 44.0936C32.9986 44.0077 32.8669 44.0155 32.8011 43.9765C32.7352 43.9375 32.7645 43.9765 32.7425 43.8984C32.7206 43.8204 32.684 43.9452 32.6109 43.8984C32.5894 43.8868 32.5655 43.8807 32.5414 43.8807C32.5173 43.8807 32.4934 43.8868 32.4719 43.8984C32.1647 44.2341 32.1574 44.6946 32.0769 44.7492Z" fill="#927E2F"/>
<path fill-rule="evenodd" clip-rule="evenodd" d="M24.1488 55.7243C24.2073 55.818 24.2878 55.9272 24.4414 55.818C24.595 55.7087 24.4999 55.576 24.4414 55.4511C24.5438 55.4902 24.5438 55.6853 24.6242 55.7165C24.7047 55.7477 24.6242 55.4433 24.5657 55.3887C24.5072 55.334 24.5072 55.3184 24.4194 55.3028C24.3317 55.2872 24.2951 55.256 24.2292 55.3028L24.0464 55.0218C23.9952 54.9437 24.0464 54.9281 24.0464 54.8345C24.1268 54.1632 23.9367 53.9525 24.2439 53.3436C24.3095 53.2372 24.3543 53.1177 24.3755 52.9924C24.3755 52.7738 24.2878 52.4616 24.2731 52.1338C24.2731 52.1338 24.1927 52.3367 24.1707 52.3835C23.9638 52.7825 23.7971 53.2038 23.6733 53.6402C23.6732 54.0641 23.6115 54.4854 23.4905 54.8891C23.4539 54.9828 23.4027 55.0374 23.4466 55.1623C23.4846 55.2453 23.5164 55.3315 23.5417 55.4199C23.5377 55.5199 23.5579 55.6193 23.6002 55.7087C23.635 55.7888 23.6848 55.8606 23.7465 55.9194C23.787 55.9427 23.8322 55.9548 23.8782 55.9548C23.9241 55.9548 23.9694 55.9427 24.0098 55.9194C24.0382 55.9081 24.064 55.8904 24.0855 55.8675C24.1069 55.8446 24.1235 55.8171 24.1342 55.7868C24.1362 55.7653 24.1411 55.7443 24.1488 55.7243Z" fill="white"/>
<path fill-rule="evenodd" clip-rule="evenodd" d="M33.9423 55.9889C34.0531 55.9969 34.1633 55.9668 34.2568 55.903C34.2934 55.903 34.2934 55.8562 34.3227 55.825C34.3519 55.7938 34.3666 55.9031 34.4324 55.9343C34.4564 55.9459 34.4822 55.9523 34.5086 55.9531C34.5349 55.9538 34.5611 55.9489 34.5856 55.9388C34.6101 55.9286 34.6325 55.9133 34.6514 55.8937C34.6703 55.8742 34.6854 55.8508 34.6957 55.825C34.7177 55.7648 34.7177 55.6979 34.6957 55.6377C34.6957 55.6377 34.8347 55.786 34.8932 55.7079C34.9517 55.6298 34.8493 55.5206 34.8274 55.4894C34.777 55.4304 34.7144 55.3849 34.6445 55.3566C34.5993 55.3411 34.5507 55.3411 34.5055 55.3566C34.4595 55.3642 34.4126 55.3642 34.3665 55.3566C34.1971 55.3852 34.0236 55.3493 33.8765 55.2552C33.4669 55.0444 33.5034 54.8961 33.4815 54.3731C33.4815 54.1702 33.4669 53.9672 33.4376 53.7643C33.4166 53.423 33.2993 53.0964 33.1011 52.8276C33.0648 52.762 33.0177 52.7038 32.9622 52.6559C32.9256 52.609 32.8086 52.5388 32.7793 52.6559C32.7971 52.8436 32.8314 53.0291 32.8817 53.21C32.9942 53.9165 33.1555 54.6132 33.3645 55.2942C33.4522 55.5674 33.657 55.9889 33.9423 55.9889Z" fill="#927E2F"/>
<path fill-rule="evenodd" clip-rule="evenodd" d="M24.4775 52.8363L24.5653 52.688C24.7002 52.5076 24.855 52.3451 25.0261 52.204C25.5016 51.7981 26.1526 51.4234 26.1453 50.6428C26.1453 50.5101 26.1014 50.1745 25.9698 50.3462C25.8799 50.4458 25.7847 50.5396 25.6845 50.6272C25.5821 50.7131 25.4797 50.7911 25.3846 50.8848C24.9645 51.2551 24.6755 51.7673 24.5653 52.3367C24.5434 52.5006 24.4849 52.7192 24.4775 52.8363Z" fill="#927E2F"/>
<path fill-rule="evenodd" clip-rule="evenodd" d="M33.3722 55.5438L33.2479 55.1691C33.0285 54.3885 32.9919 53.8265 32.7944 53.0928C32.7432 52.9133 32.692 52.6401 32.5384 52.6011C32.3848 52.562 32.3994 52.6011 32.3555 52.6635C32.318 52.7193 32.2979 52.7861 32.2979 52.8548C32.2979 52.9234 32.318 52.9903 32.3555 53.046C32.4709 53.2782 32.5594 53.5246 32.6189 53.7797C32.6627 54.0061 32.5823 53.8812 32.7213 54.1934C32.8602 54.5056 32.9553 54.6305 33.0431 54.8647C33.1674 55.2159 33.087 55.3408 33.2186 55.4423C33.2664 55.4817 33.3179 55.5157 33.3722 55.5438Z" fill="#927E2F"/>
<path fill-rule="evenodd" clip-rule="evenodd" d="M30.2559 52.2039C30.2998 52.2508 30.3656 52.3679 30.4095 52.4225C30.5289 52.5623 30.6389 52.711 30.7387 52.8674C30.787 52.9466 30.8434 53.02 30.9069 53.086C31.0438 53.2066 31.1907 53.3137 31.3458 53.406C31.4201 53.4576 31.4888 53.5178 31.5506 53.5855C31.5872 53.6246 31.7042 53.7651 31.7774 53.726C31.8505 53.687 31.4482 53.2264 31.397 53.1718L31.258 53.0001L31.1117 52.8284C30.9606 52.6578 30.8189 52.478 30.6874 52.2898C30.5479 52.0934 30.4437 51.8711 30.3802 51.6341C30.3802 51.5405 30.3802 51.4234 30.2851 51.4C30.1901 51.3766 30.1169 51.4624 30.0877 51.5014C30.0584 51.5404 30.0876 51.8371 30.1462 51.9854L30.1974 52.0946C30.2211 52.1283 30.2408 52.165 30.2559 52.2039Z" fill="#927E2F"/>
<path fill-rule="evenodd" clip-rule="evenodd" d="M24.3248 52.1727C24.321 52.3483 24.3357 52.5237 24.3687 52.6957C24.3756 52.7449 24.3904 52.7924 24.4126 52.8362L24.4565 52.5552C24.5772 52.0538 24.7829 51.5802 25.0636 51.158C25.1001 51.0955 25.1879 51.0096 25.166 50.9394C25.144 50.8691 24.9685 50.9394 24.8661 50.9394C24.8039 50.9291 24.7469 50.896 24.7051 50.8457C24.7051 50.9394 24.6174 51.0409 24.5808 51.1501C24.4422 51.4732 24.3557 51.8189 24.3248 52.1727Z" fill="#927E2F"/>
<path fill-rule="evenodd" clip-rule="evenodd" d="M32.1001 45.7564C32.027 45.7564 32.0197 45.8188 31.9904 45.8734C31.9611 45.928 31.6539 45.9826 31.6905 46.24C31.7269 46.3475 31.7872 46.4442 31.8661 46.5216C31.9451 46.599 32.0404 46.6549 32.144 46.6845C32.2611 46.7235 32.3269 46.6845 32.422 46.5598C32.4624 46.513 32.4925 46.4572 32.5102 46.3965C32.5279 46.3358 32.5328 46.2717 32.5244 46.2088C32.5024 45.9748 32.2611 45.7096 32.1001 45.7564Z" fill="#927E2F"/>
<path fill-rule="evenodd" clip-rule="evenodd" d="M33.8767 47.7382V47.6601C33.7377 47.7226 33.606 48.0192 33.5109 48.2143C33.4187 48.4225 33.3085 48.6211 33.1818 48.8076C33.1306 48.6983 33.1233 48.8075 33.1013 48.6358C33.0214 48.8487 32.9673 49.0717 32.9404 49.2993L33.0575 49.1354C33.1013 49.0808 33.1526 49.0339 33.1964 48.9871C33.434 48.7457 33.6318 48.4633 33.7816 48.1519C33.7816 48.0894 33.8328 47.9802 33.8986 47.9802C33.9103 48.0182 33.9103 48.0592 33.8986 48.0972C33.9864 48.0504 34.0888 47.7772 34.118 47.6601C34.1422 47.5628 34.1593 47.4636 34.1692 47.3635C34.1949 47.2714 34.2145 47.1775 34.2277 47.0825C34.1966 47.1346 34.1697 47.1895 34.1473 47.2465C34.1034 47.3401 33.9425 47.7226 33.8767 47.7382Z" fill="#927E2F"/>
<path fill-rule="evenodd" clip-rule="evenodd" d="M26.2986 53.2805V53.218C26.3574 53.0744 26.431 52.9383 26.518 52.8121C26.7594 52.4375 27.0886 52.0316 26.9423 51.5477C26.9161 51.4621 26.8792 51.3807 26.8326 51.3057C26.839 51.6774 26.7451 52.0432 26.5619 52.3594C26.4595 52.5702 26.3352 52.8043 26.2474 53.015C26.2267 53.059 26.2205 53.1091 26.2298 53.1573C26.2391 53.2054 26.2633 53.2488 26.2986 53.2805Z" fill="#927E2F"/>
<path fill-rule="evenodd" clip-rule="evenodd" d="M32.3919 50.1582C32.3919 50.1582 32.3261 50.2987 32.3041 50.3299C32.2028 50.4868 32.085 50.6309 31.953 50.7593C31.8227 50.8922 31.705 51.0386 31.6018 51.1964C31.6018 51.2432 31.5287 51.3759 31.6018 51.3759C31.8149 51.2539 32.0097 51.0987 32.1798 50.9153C32.2651 50.8253 32.3345 50.7195 32.3846 50.6031C32.4164 50.5341 32.4336 50.4585 32.4348 50.3816C32.4361 50.3046 32.4214 50.2284 32.3919 50.1582Z" fill="#927E2F"/>
<path fill-rule="evenodd" clip-rule="evenodd" d="M28.0917 55.4263C28.2087 55.2859 28.0405 55.1455 27.9308 55.0987C27.6528 54.9739 27.3968 55.2937 27.0822 54.8803C27.0392 54.8291 27.0001 54.7744 26.9652 54.7165C26.9365 54.6516 26.8996 54.5912 26.8555 54.5371L26.9871 54.9583C27.053 55.1065 27.1334 55.0129 27.287 55.2157C27.4407 55.4184 27.4041 55.4341 27.6235 55.4263C27.7038 55.4344 27.7846 55.4344 27.8649 55.4263C27.9966 55.3639 27.9966 55.3951 28.0917 55.4263Z" fill="white"/>
<path fill-rule="evenodd" clip-rule="evenodd" d="M28.1934 50.3225C28.0918 50.2173 27.9638 50.1458 27.8248 50.1167C27.6859 50.0876 27.5421 50.1021 27.4107 50.1585C27.1694 50.2912 27.323 50.4083 27.4985 50.5332C27.5497 50.5332 27.6741 50.6503 27.7545 50.5957C27.835 50.541 27.835 50.4786 27.9227 50.4005C28.0105 50.3225 28.0471 50.3303 28.1934 50.3225Z" fill="#927E2F"/>
<path fill-rule="evenodd" clip-rule="evenodd" d="M33.5986 43.9762C33.5986 43.9295 33.8035 43.7111 33.8985 43.7111C33.9894 43.6833 34.0857 43.6833 34.1765 43.7111C34.2716 43.7501 34.3374 44.1166 34.3521 44.2336C34.3667 44.3506 34.3521 44.4598 34.3521 44.569C34.403 44.465 34.4423 44.3551 34.4691 44.2414C34.5132 44.1076 34.5132 43.9618 34.4691 43.8281C34.4672 43.772 34.4538 43.7171 34.4298 43.6673C34.4057 43.6174 34.3717 43.5738 34.3301 43.5395C33.9717 43.3289 33.5986 43.7579 33.5986 43.9762Z" fill="#927E2F"/>
<path fill-rule="evenodd" clip-rule="evenodd" d="M26.1664 53.1719C26.2249 52.9222 26.4809 52.6099 26.6125 52.2587C26.6844 52.092 26.736 51.9163 26.7661 51.7357C26.7953 51.5812 26.7953 51.4219 26.7661 51.2673C26.7661 51.2673 26.7222 51.1737 26.671 51.1971C26.6198 51.2205 26.671 51.3844 26.671 51.5093C26.6322 52.0475 26.4203 52.5549 26.0713 52.9456C26.0274 53.0471 26.1298 53.1407 26.1664 53.1719Z" fill="#927E2F"/>
<path fill-rule="evenodd" clip-rule="evenodd" d="M31.3891 45.8027C31.2809 45.9105 31.1981 46.0442 31.1477 46.1927C31.1187 46.2811 31.1187 46.3774 31.1477 46.4657C31.1477 46.5203 31.2575 46.6217 31.3452 46.5749C31.433 46.5281 31.3891 46.4969 31.4038 46.4891C31.4184 46.4813 31.455 46.4345 31.4769 46.4033C31.6891 46.1459 31.5793 46.0835 31.5208 45.9744C31.4623 45.8652 31.5208 45.8885 31.4696 45.8651C31.4184 45.8417 31.433 45.8651 31.3891 45.8027Z" fill="#927E2F"/>
<path fill-rule="evenodd" clip-rule="evenodd" d="M31.1919 43.5936L31.1114 43.7339C31.0434 43.8366 31.0068 43.9592 31.0068 44.0849C31.0068 44.2106 31.0434 44.3332 31.1114 44.4359C31.1919 44.4359 31.1992 44.4359 31.2431 44.3891C31.287 44.3423 31.2065 44.3033 31.1919 44.2565C31.166 44.201 31.1525 44.1399 31.1523 44.0779C31.1521 44.0159 31.1652 43.9547 31.1906 43.899C31.2161 43.8433 31.2531 43.7945 31.299 43.7564C31.3449 43.7183 31.3983 43.692 31.4552 43.6793C31.5723 43.6325 31.6162 43.6793 31.6454 43.5077C31.5687 43.4845 31.488 43.4801 31.4094 43.495C31.3308 43.5098 31.2564 43.5436 31.1919 43.5936Z" fill="#927E2F"/>
<path fill-rule="evenodd" clip-rule="evenodd" d="M23.8411 52.9458C23.9598 52.7581 24.0375 52.5443 24.0682 52.3203C23.9143 52.3203 23.8557 52.4219 23.8337 52.5627C23.8117 52.7034 23.863 52.7972 23.8411 52.9458Z" fill="white"/>
<path fill-rule="evenodd" clip-rule="evenodd" d="M32.2457 51.0731C32.3556 51.0731 32.59 50.9011 32.6413 50.8385C32.4435 50.8385 32.4289 50.8385 32.4435 50.6431C32.3922 50.6978 32.1944 50.9402 32.2457 51.0731Z" fill="#927E2F"/>
<path fill-rule="evenodd" clip-rule="evenodd" d="M31.792 46.8411V46.9115C31.792 46.9115 31.792 46.9115 31.8579 46.9585C31.921 46.9701 31.9854 46.9701 32.0484 46.9585C32.0568 46.9225 32.0568 46.8849 32.0484 46.8489C31.9648 46.8242 31.8768 46.8215 31.792 46.8411Z" fill="#927E2F"/>
<path fill-rule="evenodd" clip-rule="evenodd" d="M32.5894 45.084C32.5381 45.084 32.5308 45.084 32.4795 45.084C32.4795 45.2714 32.7946 45.2402 32.8092 45.084C32.7788 45.0526 32.7407 45.031 32.6993 45.0215C32.6993 45.1933 32.5967 45.1621 32.5748 45.123C32.5528 45.084 32.5821 45.1465 32.5894 45.084Z" fill="#927E2F"/>
<path fill-rule="evenodd" clip-rule="evenodd" d="M31.5881 45.0605C31.5881 45.0605 31.5441 45.1386 31.4929 45.1074C31.4416 45.0762 31.4562 45.0293 31.4929 44.9746C31.3463 44.9746 31.4929 45.162 31.4929 45.1777C31.4929 45.1933 31.72 45.1074 31.5881 45.0605Z" fill="#927E2F"/>
<path fill-rule="evenodd" clip-rule="evenodd" d="M32.2477 46.9506C32.2625 46.9077 32.2625 46.8607 32.2477 46.8178C32.2477 46.7632 32.2477 46.7476 32.1511 46.7476C32.1437 46.8019 32.1437 46.8572 32.1511 46.9116C32.1511 46.9116 32.1511 46.9584 32.1957 46.9662C32.2403 46.974 32.218 46.9584 32.2477 46.9506Z" fill="#927E2F"/>
<path fill-rule="evenodd" clip-rule="evenodd" d="M31.7786 46.9344C31.7786 46.8875 31.727 46.8485 31.7049 46.8017C31.6829 46.7548 31.6608 46.6845 31.6387 46.6533C31.6204 46.7223 31.6204 46.7952 31.6387 46.8641C31.6608 46.9422 31.6902 46.95 31.7786 46.9344Z" fill="#927E2F"/>
<path fill-rule="evenodd" clip-rule="evenodd" d="M55.9089 58.971H8.53906C8.53906 58.971 12.0794 46.841 34.806 54.6389C34.806 54.6389 41.0967 56.926 55.9089 58.971Z" fill="url(#paint27_linear)"/>
<path fill-rule="evenodd" clip-rule="evenodd" d="M31.6828 29.536L31.7486 29.4501L31.6828 29.536ZM32.9701 37.2167V37.1698V37.2167ZM38.2586 36.5376C38.2622 36.4987 38.2622 36.4595 38.2586 36.4205C38.2622 36.4595 38.2622 36.4987 38.2586 36.5376ZM38.0319 27.0304L37.9368 26.8509L38.0319 27.0304ZM34.989 26.1796C34.6013 26.457 34.2517 26.7906 33.9503 27.1709C33.8744 27.1781 33.7986 27.155 33.7378 27.106C33.6769 27.0569 33.6354 26.9855 33.6211 26.9055C33.7894 26.9055 33.8698 26.6713 33.8698 26.6713C33.9517 26.6908 34.0366 26.6908 34.1185 26.6713C34.0329 26.6187 33.9385 26.5843 33.8406 26.5699L34.1771 26.3825C34.4521 26.3441 34.7237 26.2815 34.989 26.1952V26.1796ZM35.0768 26.1172L34.989 26.1796L35.1572 26.125L35.0768 26.1172ZM32.4727 24.0018L32.5386 24.1033L32.4727 24.0018ZM22.693 26.2577L22.9051 26.125L22.693 26.2577ZM23.2343 53.9675C23.2263 53.508 23.2532 53.0485 23.3148 52.5937C23.3513 52.0082 24.5948 50.6813 24.5948 50.6813C24.1701 50.9089 23.7784 51.2007 23.4318 51.5477C23.4757 50.7672 25.3556 48.8002 25.3556 48.8002C24.529 48.9641 23.5342 50.7203 23.5342 50.7203C25.9553 37.2245 31.0317 30.3634 31.6828 29.536C31.3719 29.9949 31.1254 30.4998 30.9513 31.0347C31.1856 30.7385 31.4918 30.5171 31.8364 30.3946C31.346 30.9272 30.9517 31.5517 30.6733 32.2367C31.6315 31.0815 31.9461 31.3391 31.9461 31.3391C30.7977 32.5412 30.7026 33.1187 30.7026 33.1187C30.8308 32.9846 30.9939 32.8948 31.1707 32.8612C30.9678 33.0828 30.813 33.3493 30.7172 33.6418C30.9216 33.4479 31.1392 33.2704 31.3682 33.1109C31.2099 33.3194 31.0951 33.5616 31.0317 33.8213C31.712 32.9548 32.1216 33.0407 32.1216 33.0407C31.1342 34.0632 31.0903 34.5394 31.0903 34.5394C31.0903 34.5394 31.7778 33.7588 32.0485 33.6418C32.3191 33.5247 32.0485 33.9852 32.0485 33.9852C31.736 34.1839 31.468 34.4531 31.2633 34.774C31.0586 35.095 30.9221 35.4598 30.8635 35.8429C30.9658 35.6234 31.1152 35.4326 31.2995 35.2862C31.4837 35.1397 31.6977 35.0417 31.9241 34.9999C31.5293 35.3534 31.25 35.8318 31.1268 36.3659C31.2878 36.1707 32.2094 35.2575 32.2094 35.2575C32.5751 34.8828 32.5898 35.2575 32.5898 35.2575C31.7898 35.8737 31.1298 36.674 30.6587 37.5991C30.9001 37.0137 31.9168 36.5922 31.9168 36.5922C31.7259 36.8622 31.5616 37.1526 31.4267 37.4586C31.5407 37.3158 31.6992 37.2216 31.8729 37.1933C31.6833 37.5166 31.524 37.8591 31.3975 38.2158C31.851 37.4352 32.2826 37.4352 32.2826 37.4352C32.2102 37.7157 32.0912 37.9801 31.9315 38.2158C32.0631 38.1517 32.1822 38.0617 32.2826 37.9504C32.1919 38.4059 32.052 38.8485 31.8656 39.2695C32.4801 38.8402 32.9701 37.1777 32.9701 37.1777C32.9914 37.6101 32.9767 38.0437 32.9262 38.4734C33.1846 37.8193 33.3331 37.1217 33.3651 36.4127C33.4901 36.8033 33.5639 37.2104 33.5846 37.6226C33.9357 36.9357 33.3871 34.7891 33.3871 34.7891C33.7747 35.0311 34.0088 36.5454 34.0088 36.5454C34.0015 35.8889 33.9054 35.2369 33.7236 34.6096C33.9796 34.6799 34.3672 35.6243 34.3672 35.6243C34.5501 35.4292 33.9869 33.7354 33.9869 33.7354C34.2995 34.1379 34.5785 34.5689 34.8208 35.0233C34.663 34.5496 34.4698 34.0902 34.2429 33.6495C34.5544 33.9297 34.8298 34.2525 35.0621 34.6096C34.6394 33.7134 34.1502 32.8546 33.5992 32.0416C34.1588 32.5451 34.6511 33.1281 35.0621 33.7744C34.8662 33.23 34.6212 32.7072 34.3307 32.2133C34.6338 32.5254 34.9081 32.8678 35.1499 33.2358C34.7084 32.3217 34.1657 31.4673 33.5334 30.6912C33.8406 30.5741 34.2648 31.6279 34.2648 31.4249C34.2648 31.222 34.4404 31.3078 34.4404 31.3078C34.5257 31.4423 34.5762 31.5985 34.5867 31.7606C34.5867 31.5576 34.8281 31.4952 34.8281 31.4952C34.8139 31.8348 34.8792 32.1728 35.0182 32.4787C35.3913 32.0338 35.6034 32.2133 35.6034 32.2133C35.4172 33.0183 35.3923 33.8561 35.5303 34.672C35.5348 34.5253 35.5715 34.3817 35.6376 34.2529C35.7037 34.1241 35.7972 34.0137 35.9106 33.9306C35.8115 34.3348 35.8115 34.7595 35.9106 35.1638C35.996 34.8075 36.156 34.4765 36.3788 34.1959C36.3378 34.5536 36.3378 34.9154 36.3788 35.2731C36.4432 34.9476 36.587 34.646 36.7957 34.3989C36.6315 35.111 36.5577 35.8435 36.5763 36.5766C36.689 36.2379 36.8574 35.9233 37.0737 35.6477C36.8689 36.2566 37.0737 36.4283 37.0737 36.4283C37.0905 36.2004 37.1619 35.981 37.281 35.791C37.4001 35.6011 37.563 35.4469 37.7539 35.3434C37.3882 36.0133 37.2272 36.788 37.2931 37.5601C37.308 37.3304 37.3743 37.1077 37.4862 36.9109C37.5982 36.714 37.7527 36.5485 37.9368 36.4283C37.9368 37.0449 37.8563 38.6451 37.8563 38.6451C38.0499 37.9535 38.1893 37.246 38.2733 36.5298C38.2314 37.2405 38.251 37.9539 38.3318 38.6607C38.3244 38.1505 38.4734 37.6517 38.756 37.2401C38.8435 38.0588 38.8753 38.8831 38.8511 39.7067C39.0746 39.0828 39.1622 38.4128 39.1072 37.7474C39.2626 37.9838 39.3766 38.2483 39.4436 38.528C39.4477 37.789 39.3815 37.0516 39.2461 36.3269C36.825 28.9116 32.0412 28.8959 32.0412 28.8959C32.0412 28.8959 31.9314 28.6618 32.0412 28.5603C32.1509 28.4588 32.7287 28.5603 32.7287 28.5603C32.78 28.8179 33.2993 28.9974 33.2993 28.9974C33.2335 28.8413 33.3651 28.5759 33.3651 28.5759C33.509 28.7428 33.6142 28.9432 33.6723 29.1613C33.6508 28.9173 33.6834 28.6713 33.7674 28.4432C33.8417 28.7922 33.9949 29.1164 34.2136 29.3877C34.1447 29.0752 34.1574 28.7486 34.2502 28.4432C34.3996 28.9032 34.6505 29.3182 34.9817 29.6531C34.9158 29.3779 34.896 29.0926 34.9232 28.8101C34.9769 28.7849 35.0375 28.7821 35.0931 28.8023C35.1486 28.8226 35.195 28.8643 35.2231 28.9193C35.2173 29.2256 35.2962 29.527 35.4498 29.7858C35.5099 29.5754 35.5443 29.3577 35.5522 29.1379C35.6054 29.4752 35.6938 29.8051 35.8155 30.1214C35.7566 29.6453 35.833 29.1612 36.035 28.732C36.0036 29.1521 36.0637 29.5742 36.2105 29.9653C36.2352 29.7283 36.3271 29.505 36.4739 29.3252C36.4286 29.7243 36.4764 30.1292 36.6128 30.5039C36.6279 30.395 36.6643 30.2907 36.7198 30.1978C36.7752 30.105 36.8485 30.0258 36.9347 29.9653C36.8623 30.357 36.8623 30.7601 36.9347 31.1518C37.0045 30.768 37.1833 30.4164 37.4467 30.1448C37.2945 30.5919 37.2566 31.0742 37.337 31.542C37.337 31.2923 37.6662 30.98 37.6662 30.98C37.5573 31.3413 37.5755 31.7326 37.7174 32.0806C37.7096 31.7926 37.7731 31.5074 37.9015 31.2539C38.0299 31.0003 38.2187 30.7874 38.4488 30.6366C38.2083 31.2958 38.1648 32.0184 38.3245 32.7051C38.3636 32.2891 38.5133 31.8937 38.756 31.5654L38.6463 33.1266L39.151 31.9401C39.151 32.2992 38.9974 33.9383 38.9974 33.9383C39.2911 33.4203 39.492 32.8487 39.5899 32.2523C39.6221 32.8809 39.5927 33.5114 39.5022 34.1335C39.7435 34.0242 39.8898 33.2437 39.8898 33.2437C39.9763 33.8245 40.0203 34.4117 40.0215 34.9999C40.2047 34.4154 40.3057 33.8051 40.3214 33.189C40.5293 33.5907 40.6657 34.03 40.7237 34.4847C40.7992 33.8061 40.7317 33.1181 40.5262 32.4709C40.753 32.5568 41.0748 33.2515 41.0748 33.2515C40.9157 32.5412 40.6435 31.8653 40.2702 31.2532C40.6432 31.2532 41.3016 32.4163 41.3016 32.4163C41.3016 31.4796 40.2263 30.3321 40.2263 30.3321C40.5454 30.5105 40.8406 30.7336 41.1041 30.9956C40.6193 30.3351 40.0148 29.7856 39.3266 29.3799C39.533 29.3625 39.7404 29.3945 39.9337 29.4736C38.9007 28.6191 37.7087 28.0097 36.4373 27.6861C36.3407 27.3432 36.1843 27.0227 35.9765 26.7416C36.2471 26.7416 37.0298 27.7095 37.0298 27.7095C36.8938 27.4018 36.7425 27.1022 36.5763 26.8119C37.1286 27.2066 37.6388 27.6647 38.0977 28.1778C37.8417 27.6627 37.5052 27.1319 37.5052 27.1319C37.8783 27.288 38.4488 28.2949 38.4488 28.2949C38.3547 27.8548 38.2071 27.4297 38.01 27.0304C38.3617 27.5215 38.7809 27.9531 39.2535 28.3105C39.0325 27.58 38.6741 26.9053 38.2001 26.3279C38.6317 26.4059 39.7582 27.9983 39.7582 27.9983C40.1166 28.4432 40.3287 28.3574 40.3287 28.3574C39.3339 27.2334 39.5607 27.046 39.5607 27.046C39.941 27.0851 40.4238 28.1466 40.4238 28.1466C40.454 28.2625 40.5068 28.3704 40.5786 28.4632C40.6504 28.556 40.7397 28.6316 40.8407 28.6852C40.7237 28.5681 40.8407 28.1778 40.8407 28.1778C41.1432 28.5125 41.529 28.7481 41.9526 28.8569C40.3799 27.2958 40.4896 27.0226 40.4896 27.0226C40.9597 27.2321 41.3945 27.5222 41.777 27.8812C41.6693 27.6406 41.5025 27.4355 41.2942 27.288C41.9098 27.4583 42.4902 27.7495 43.0059 28.1466C42.2937 27.3739 41.3908 26.8325 40.4018 26.5855C40.5758 26.4472 40.7849 26.3683 41.0017 26.3591C40.2885 26.0042 39.5194 25.795 38.7341 25.7425C39.1023 25.6232 39.4834 25.555 39.8679 25.5396C39.2115 25.4064 38.5341 25.4547 37.9002 25.6801C37.9002 25.3444 38.8877 25.0868 38.8877 25.0868C38.2587 24.8605 36.7811 25.6254 36.7811 25.6254C37.0442 25.2404 37.4241 24.9646 37.8563 24.8449C37.2785 24.7434 36.1667 25.6879 36.1667 25.6879C35.7664 25.7314 35.3821 25.8787 35.0475 26.1172C34.8165 26.0995 34.5929 26.0218 34.3965 25.8908C34.8384 25.8858 35.2791 25.8388 35.7132 25.7503C35.5291 25.7212 35.3479 25.6741 35.1719 25.6098C35.3873 25.5824 35.6002 25.5354 35.8082 25.4693C35.6578 25.4762 35.5109 25.4201 35.3986 25.3132C35.8055 25.353 36.2156 25.2943 36.5982 25.1415C36.2988 25.1679 35.9987 25.1 35.7351 24.9463C36.5324 24.9463 36.6128 24.8214 36.6128 24.8214C36.5346 24.8161 36.4583 24.7932 36.389 24.7541C36.3197 24.7151 36.2589 24.6609 36.2105 24.5951C36.9859 24.4858 37.0664 24.1501 37.0664 24.1501C36.8177 24.1501 36.7591 23.9784 36.7591 23.9784C37.7174 23.9784 37.8856 23.5647 37.8856 23.5647C37.3662 23.5647 37.2419 23.3696 37.2419 23.3696H38.0392C38.1387 23.358 38.2338 23.3197 38.3157 23.2583C38.3975 23.1969 38.4635 23.1143 38.5073 23.0183C38.4049 23.0808 38.0904 22.8778 38.0904 22.8778C38.7414 22.6124 38.7853 22.3002 38.7853 22.3002C38.6271 22.3453 38.4607 22.3453 38.3025 22.3002C38.6081 22.0438 38.9422 21.8288 39.2973 21.6602C38.9316 21.5197 38.3245 21.9646 38.3245 21.9646C38.4561 21.8631 38.4049 21.5275 38.4049 21.5275C38.0285 21.7491 37.6997 22.0522 37.4394 22.4173C37.4854 22.1811 37.5722 21.9561 37.6954 21.7538C37.3004 21.9021 36.6348 23.0964 36.6348 23.0964C36.6343 23.0168 36.6141 22.9387 36.5763 22.87C36.3437 23.0787 36.126 23.3057 35.9253 23.5491C36.1174 23.0742 36.3631 22.626 36.6567 22.2144C36.2617 22.4017 35.4644 23.8457 35.4644 23.8457C35.542 23.4431 35.6725 23.0542 35.8521 22.6905C35.555 23.0455 35.3086 23.4453 35.1206 23.877C35.0402 23.6896 35.3547 22.831 35.3547 22.831C35.0841 22.9169 34.4038 24.5716 34.4038 24.5716L34.5867 23.5959C34.3746 23.6896 33.9064 24.9619 33.9064 24.9619C33.312 25.7065 32.76 26.4885 32.2533 27.3036C32.7767 26.3171 33.1915 25.2694 33.4895 24.1813C33.3871 24.5404 32.897 24.8058 32.897 24.8058C32.8604 24.6341 33.4237 24.0253 33.4237 24.0253C33.7508 23.6071 33.9409 23.0863 33.9649 22.5422C33.9649 22.7764 33.5919 22.8388 33.5919 22.8388C33.9412 22.4023 34.1399 21.8514 34.1551 21.2777C34.0512 21.5959 33.8536 21.8698 33.5919 22.0583C34.2429 21.0201 33.8552 20.5908 33.8552 20.5908C33.8552 20.5908 33.8552 20.5908 33.8552 20.6376C33.8412 20.7935 33.7953 20.9442 33.7207 21.0791C33.6462 21.214 33.5448 21.3297 33.4237 21.4182C33.3776 21.2024 33.3776 20.9783 33.4237 20.7625C33.5902 20.3828 33.6112 19.9487 33.4822 19.5526C33.5553 19.7946 33.2408 19.8649 33.2408 19.8649C33.1936 19.6237 33.1739 19.3774 33.1823 19.1312C33.014 19.1858 32.897 19.9507 32.897 19.9507C32.8558 19.6746 32.8387 19.395 32.8458 19.1155C32.6922 18.2881 32.3411 18.335 32.3411 18.335C32.5605 18.7721 32.2826 18.9829 32.2826 18.9829C31.7998 17.8432 31.2146 17.9447 31.2146 17.9447C32.0997 18.8345 32.0485 19.4434 32.0485 19.4434C31.5218 18.897 31.178 18.9672 31.178 18.9672C31.3456 19.0149 31.4961 19.1145 31.6107 19.2535C31.7253 19.3924 31.7987 19.5644 31.8217 19.7478C31.6188 19.6548 31.3987 19.6122 31.178 19.6229C31.4154 19.7275 31.6283 19.8867 31.8015 20.089C31.9747 20.2914 32.104 20.532 32.1801 20.7938C31.9569 20.6071 31.7534 20.3951 31.573 20.1615C31.777 20.5834 32.0221 20.9811 32.3045 21.348C32.1363 21.4338 31.573 20.5674 31.573 20.5674C31.77 21.02 32.0398 21.4321 32.3703 21.7851C32.2387 21.8319 31.4706 21.2387 31.4706 21.2387C31.7403 21.7126 32.0593 22.1525 32.4215 22.55C32.2555 22.4014 32.0518 22.309 31.8364 22.2846C32.1874 22.6351 32.4082 23.1091 32.4581 23.6194C32.214 23.449 31.9926 23.2442 31.7998 23.0105C31.972 23.374 32.1726 23.7213 32.3996 24.0487C32.3102 23.962 32.2022 23.9004 32.0851 23.8692C32.1292 23.918 32.1607 23.9783 32.1763 24.0441C32.192 24.1099 32.1913 24.1789 32.1743 24.2443C32.1573 24.3098 32.1246 24.3693 32.0795 24.4171C32.0343 24.4649 31.9783 24.4994 31.9168 24.517C30.1394 18.3897 28.3692 18.3818 28.3692 18.3818C28.9912 18.9135 29.5083 19.5715 29.8906 20.3176C29.3933 19.6073 28.9178 19.6229 28.9178 19.6229C29.9711 20.1459 30.6002 22.027 30.6002 22.027C30.432 21.7894 30.214 21.5969 29.9638 21.465C30.2942 21.8098 30.5056 22.2637 30.5636 22.753C29.9345 22.511 29.7517 22.7061 29.7517 22.7061C30.4831 23.1667 30.5563 23.5725 30.5563 23.5725C30.2255 23.2669 29.8432 23.0311 29.4298 22.8778C29.4307 23.1148 29.486 23.348 29.5907 23.5569C29.3306 23.3008 29.0863 23.0271 28.8593 22.7373C28.6891 22.7177 28.5174 22.7177 28.3473 22.7373C28.3752 22.904 28.4432 23.06 28.5448 23.1901C28.5448 23.1901 28.3765 22.9949 28.2083 22.7608C28.1385 22.7719 28.0699 22.7901 28.0035 22.8154C27.667 22.8934 27.4914 24.0643 27.4914 24.0643C27.789 23.9642 28.1026 23.9297 28.4131 23.9628C28.2333 24.0915 28.0893 24.2694 27.9962 24.478C28.2594 24.3155 28.5713 24.2679 28.8666 24.3453C28.5082 24.4624 28.1351 25.1258 28.1351 25.1258C28.3367 25.071 28.548 25.071 28.7496 25.1258C28.5886 25.3288 28.6764 25.4537 28.6764 25.4537C28.9195 25.3816 29.1786 25.4038 29.4079 25.5161C29.3321 25.6011 29.279 25.7062 29.2543 25.8205C29.3988 25.7726 29.552 25.7625 29.7009 25.7911C29.8499 25.8196 29.9902 25.8859 30.1101 25.9845C29.8541 25.883 29.2689 26.2265 29.2689 26.2265H29.4884C29.7211 26.2475 29.95 26.3027 30.1686 26.3903C30.015 26.3903 29.8468 26.6011 29.8468 26.6011L30.3734 26.5308C30.8432 27.1411 31.2163 27.8293 31.4779 28.5681C30.4925 27.7905 29.4121 27.1602 28.2668 26.6948C28.4445 27.3597 28.5741 28.0381 28.6545 28.7242C28.1543 27.8502 27.5996 27.0131 26.994 26.2186C26.5552 26.0703 26.1382 25.9532 25.7579 25.8518C25.6111 26.3079 25.5563 26.792 25.5969 27.2724C25.4392 26.7666 25.3385 26.2425 25.297 25.7113L24.8801 25.6176C24.7993 26.0543 24.7674 26.4998 24.785 26.9446C24.6494 26.4852 24.5467 26.0155 24.4778 25.5396L24.1267 25.4771C24.1228 25.5212 24.1228 25.5656 24.1267 25.6098L24.0828 25.4693L23.7317 25.4225C23.3127 25.3486 22.8852 25.3486 22.4663 25.4225C22.4663 25.4225 22.4663 25.4693 22.4663 25.5005C22.4631 25.4746 22.4631 25.4484 22.4663 25.4225C22.2004 25.4584 21.9366 25.5105 21.6763 25.5786C22.7881 25.8362 22.1956 25.8752 22.1956 25.8752C21.9343 25.8774 21.6765 25.9392 21.4393 26.0563C21.2022 26.1734 20.9912 26.3432 20.8204 26.5543C20.9521 26.4216 21.508 26.4138 21.508 26.4138C21.4715 26.6323 20.7327 27.3114 20.7327 27.3114C21.3961 27.0465 22.0332 26.7119 22.6345 26.3123C22.232 26.554 21.9061 26.9181 21.6982 27.3582C22.1883 26.899 22.7346 26.513 23.3221 26.2108C22.7783 26.631 22.3347 27.1818 22.0274 27.8188C22.4625 27.2084 23.0788 26.7735 23.7756 26.5855C22.3127 27.6705 22.5687 27.9983 22.5687 27.9983C22.7073 27.7524 22.8918 27.5396 23.1107 27.3731C23.3297 27.2066 23.5784 27.09 23.8414 27.0304C23.6459 27.1478 23.4757 27.3079 23.3421 27.5002C23.2085 27.6925 23.1144 27.9128 23.0661 28.1466C23.4127 27.7054 23.873 27.3825 24.39 27.2177C23.9525 27.543 23.6264 28.0116 23.4611 28.5525C23.7754 28.2149 24.1266 27.9188 24.5071 27.6705C24.2369 27.9054 24.0425 28.2248 23.9511 28.5837C24.8289 27.3504 25.4141 27.4207 25.4141 27.4207C25.0756 27.6362 24.8172 27.9699 24.6826 28.3652C24.8428 28.1389 25.0578 27.9635 25.3044 27.8578C24.9971 28.1934 24.9971 28.3808 24.9971 28.3808C25.9627 27.4987 26.2406 27.5456 26.2406 27.5456C26.1369 27.6732 26.0707 27.8307 26.0504 27.9983C26.1891 27.9298 26.3402 27.8943 26.493 27.8943C26.6458 27.8943 26.7968 27.9298 26.9355 27.9983C24.5802 28.3261 23.9219 29.7858 23.9219 29.7858C23.0953 29.9653 22.4589 31.542 22.4589 31.542C22.5791 31.4935 22.7118 31.4935 22.832 31.542C22.3419 31.8152 22.2614 32.9704 22.2614 32.9704C22.4801 32.489 22.8161 32.0792 23.2343 31.784C23.0736 32.0542 22.9921 32.3695 23.0002 32.6894C23.4903 31.1283 24.1633 30.9956 24.1633 30.9956C23.9854 31.1946 23.86 31.4401 23.7996 31.7074C23.7393 31.9746 23.7461 32.2542 23.8195 32.5177C23.9205 32.0791 24.0859 31.6602 24.3095 31.2766C24.2961 31.4821 24.3367 31.6876 24.4266 31.8699C24.3971 31.3393 24.5594 30.8169 24.8801 30.4102C24.6737 30.8462 24.5637 31.3268 24.5583 31.8152C24.6814 31.3162 24.8978 30.8489 25.1946 30.4414C25.017 30.8576 24.9295 31.3112 24.9386 31.7684C25.0178 31.3614 25.197 30.9842 25.458 30.6756C25.4464 30.8995 25.4145 31.1217 25.3629 31.3391C25.4966 30.9918 25.5971 30.6309 25.6628 30.2619C25.8383 29.4814 26.1967 29.614 26.1967 29.614C25.8869 30.1323 25.7361 30.7407 25.7652 31.3547C25.8603 30.8451 26.1189 30.3869 26.4966 30.059C26.4478 30.3772 26.3592 30.6869 26.2333 30.98C26.5432 30.6869 26.7923 30.328 26.9648 29.9263L27.016 29.9887C27.0575 30.1833 27.0771 30.3824 27.0745 30.5819C27.2427 30.8395 27.3232 30.4805 27.3232 30.4805C27.3671 30.3478 27.5499 30.1292 27.6231 30.1448C27.6962 30.1604 27.7109 30.4336 27.7109 30.4336H27.9596L28.04 30.1838C28.2522 29.9653 28.4643 29.9263 28.5228 30.0278C28.5813 30.1292 28.8227 30.1526 28.8227 30.1526C28.8159 30.0252 28.8159 29.8976 28.8227 29.7702C28.8227 29.5906 29.5542 29.4345 29.5542 29.4345C30.0662 29.3175 29.8906 29.7077 29.8906 29.7077C29.3855 30.064 28.8183 30.3083 28.2229 30.4258C27.6954 30.5263 27.192 30.7383 26.7424 31.0493C26.2927 31.3603 25.9057 31.764 25.6043 32.2367C25.8822 32.2992 25.853 32.3928 25.853 32.3928C25.4132 32.5436 25.0292 32.8386 24.7558 33.2358C24.8289 33.189 25.1654 33.3061 25.1654 33.3061C24.3827 33.5637 23.8634 34.9687 23.8634 34.9687C24.1779 34.9218 24.1998 35.0779 24.1998 35.0779C23.8867 35.3203 23.6763 35.6852 23.6147 36.0927C23.878 35.8897 24.017 36.0303 24.017 36.0303C23.8118 36.2079 23.6491 36.4349 23.5423 36.6928C23.4354 36.9506 23.3875 37.2318 23.4025 37.5133C23.4025 37.3103 23.8634 36.8264 23.8634 36.8264C23.8462 36.9689 23.8462 37.1132 23.8634 37.2557C23.8634 36.9513 24.5071 36.3424 24.5071 36.3424C24.5221 36.6135 24.4664 36.8837 24.3461 37.123C24.6678 36.7227 24.8893 36.2421 24.9898 35.7258C24.9858 35.9164 25.0513 36.1011 25.1727 36.241C25.1288 35.2106 25.3775 35.0858 25.3775 35.0858C25.4685 35.3944 25.5202 35.7147 25.5311 36.038C25.5864 35.7233 25.5864 35.4004 25.5311 35.0858C25.4872 34.5862 25.7725 34.516 25.7725 34.516C25.7725 35.6478 26.0724 35.8195 26.0724 35.8195C25.9802 35.2588 26.0411 34.6816 26.248 34.1569C26.216 34.3023 26.2132 34.4532 26.2397 34.5998C26.2662 34.7464 26.3213 34.8854 26.4016 35.0077C26.3968 34.5532 26.5 34.1047 26.7015 33.7042C26.5991 33.993 26.8624 34.6799 26.8624 34.6799C26.8407 34.264 26.9056 33.8481 27.0525 33.4622C27.0432 33.905 27.0949 34.3468 27.2062 34.7735C27.1684 33.9097 27.2851 33.0462 27.55 32.2289C27.4995 32.8061 27.5618 33.3881 27.7328 33.9383C27.7502 33.2756 27.8311 32.6165 27.9742 31.9713C27.9576 32.4968 28.0093 33.0222 28.1278 33.5325C28.3014 32.9815 28.4263 32.4145 28.5009 31.8387C28.5323 32.0974 28.5445 32.3584 28.5374 32.6192C28.7016 32.1534 28.8146 31.6688 28.8739 31.1752C28.8718 31.4441 28.9242 31.7104 29.0275 31.9557C29.1519 31.6513 29.3859 30.66 29.3859 30.66C29.3736 30.9628 29.3219 31.2622 29.2323 31.5498C29.4178 31.3365 29.5267 31.06 29.5396 30.7693C29.503 30.3868 30.6075 30.0824 30.6075 30.0824C30.1332 30.5472 29.7133 31.0713 29.3567 31.6435C26.0358 36.7874 22.6345 49.1904 22.6345 49.1904C22.3273 50.6969 21.0033 54.4046 21.0033 54.4046C20.6083 54.9744 20.5864 54.3343 20.5864 54.3343C20.2206 51.7663 19.4307 51.8209 19.4307 51.8209C19.723 52.8058 19.9671 53.8063 20.1621 54.8182C20.0268 54.6147 19.8669 54.431 19.6867 54.2719C19.6746 54.3513 19.6445 54.4263 19.5989 54.4904C19.9447 54.9869 20.2576 55.5085 20.5352 56.0515C20.2792 55.9266 19.7671 56.4184 19.7671 56.4184H20.1402V56.6291C20.1402 56.6838 23.6512 56.6291 23.6512 56.6291C23.5927 56.2545 24.8143 55.8486 24.8143 55.8486C24.7045 55.7237 23.5781 55.9735 23.5781 55.9735C23.7756 55.5442 24.8581 55.1929 24.8581 55.1929C24.5875 54.99 22.9856 55.8174 22.9856 55.8174C23.9537 54.7044 25.1435 53.8375 26.4674 53.2806C25.1946 53.2103 23.1977 54.9822 23.1977 54.9822C23.1977 54.8183 23.1977 54.7012 23.3221 54.2719C23.4464 53.8426 24.6021 52.8825 24.6021 52.8825C24.0981 53.1694 23.637 53.5351 23.2343 53.9675Z" fill="url(#paint28_linear)"/>
<path fill-rule="evenodd" clip-rule="evenodd" d="M15.4438 13.5894C15.4964 13.6226 15.5455 13.6618 15.5901 13.7064L15.4438 13.5894ZM27.6301 26.3515C28.2356 27.146 28.7903 27.9831 29.2905 28.8571C29.213 28.1705 29.0833 27.4918 28.9028 26.8276C26.5255 18.2415 16.6142 19.2328 16.6142 19.2328C18.2015 18.5693 18.7647 19.2328 18.7647 19.2328C18.7325 19.1158 18.7318 18.9914 18.7629 18.874C18.794 18.7567 18.8554 18.6511 18.9402 18.5693C19.016 18.7561 19.1293 18.9228 19.2722 19.0577C19.415 19.1925 19.5839 19.2923 19.7668 19.3499C19.6144 19.236 19.5084 19.0644 19.4704 18.8701C19.4323 18.6758 19.4651 18.4734 19.562 18.3039C19.6351 18.8815 20.5568 19.2172 20.5568 19.2172C20.4355 19.11 20.348 18.9657 20.3061 18.8038C20.2643 18.6418 20.2701 18.4701 20.3227 18.3117C20.3666 18.7254 21.654 19.303 21.654 19.303C21.5296 18.8503 21.8222 18.8347 21.8222 18.8347C21.8795 19.0559 21.9921 19.2564 22.1481 19.4145C22.304 19.5727 22.4973 19.6825 22.7073 19.7324C22.5976 19.3187 22.4074 18.7488 22.4074 18.7488C22.8975 18.9986 23.1023 20.0055 23.1023 20.0055C23.2486 19.9353 23.8337 20.4192 23.8337 20.4192C23.7189 20.0684 23.5616 19.7351 23.3656 19.4279C23.6289 19.264 24.4482 20.4973 24.5433 20.6378C24.1263 19.9899 23.9069 17.7263 23.9069 17.7263C24.126 18.8603 24.4929 19.9559 24.9968 20.9812C24.9968 20.8017 25.1723 20.7549 25.1723 20.7549C25.1285 20.9891 25.5161 21.192 25.5161 21.192C25.4631 20.961 25.4891 20.7175 25.5893 20.5051C25.7897 20.851 25.9681 21.2108 26.1232 21.5823C26.0796 20.8981 25.9592 20.222 25.7648 19.5684C26.1582 20.3647 26.4815 21.1983 26.7304 22.0584C26.5978 21.1902 26.6529 20.3012 26.8913 19.4591C26.8415 20.5055 27.0509 21.5474 27.4984 22.4799C27.4446 22.233 27.4436 21.9765 27.4955 21.7292C27.5474 21.4818 27.6509 21.2502 27.7983 21.0515C27.6081 21.4652 28.1202 22.9404 28.1202 22.9404C27.8422 20.7393 28.2079 20.8251 28.2079 20.8251C28.1697 21.2086 28.2086 21.5964 28.3222 21.9625C28.4357 22.3287 28.6212 22.6648 28.8662 22.9483H29.0052C28.9515 22.5653 28.9515 22.1759 29.0052 21.793C29.0672 22.2299 29.2536 22.636 29.5392 22.9561C29.7261 22.9783 29.9102 23.0228 30.0878 23.0887C30.0745 22.736 30.0965 22.3827 30.1536 22.035C30.3292 22.035 30.812 22.4487 30.812 22.4487C30.5213 21.8599 30.1054 21.352 29.5977 20.9656C29.8757 20.7236 30.812 21.6603 30.812 21.6603C30.673 20.5831 28.1275 19.2328 28.1275 19.2328C28.6468 19.0611 29.5026 19.6777 29.5026 19.6777C28.9979 18.9823 28.3063 18.4676 27.5203 18.2024C27.7325 18.0541 28.3469 18.2024 28.3469 18.2024C28.047 17.297 25.7721 17.4219 25.7721 17.4219C25.7721 17.0784 27.4838 17.3516 27.4838 17.3516C23.9581 15.2519 17.0969 18.7332 17.0969 18.7332C16.9653 18.2571 19.1816 17.6873 19.1816 17.6873C19.8245 17.2624 20.5253 16.9464 21.259 16.7506C20.0521 16.8443 19.8838 16.493 19.8838 16.493C20.5752 16.3768 21.2814 16.4087 21.9612 16.5867C21.8512 16.5567 21.7521 16.4925 21.6765 16.4021C21.6009 16.3117 21.5523 16.1994 21.537 16.0793C22.182 16.3203 22.8718 16.3925 23.5485 16.2901C23.287 16.2337 23.0548 16.075 22.8975 15.8451C24.0459 15.9544 24.3604 15.5095 24.3604 15.5095C23.3641 15.5845 22.3646 15.4218 21.4345 15.0334C21.4345 14.729 23.4461 14.9865 23.4461 14.9865C23.0511 14.6041 21.5662 14.6431 21.5662 14.6431C22.0124 14.2216 23.1169 14.3621 23.1169 14.3621C23.5013 14.5785 23.9482 14.6315 24.3677 14.5104C24.2 14.5042 24.0366 14.4521 23.8932 14.3591C23.7497 14.2662 23.631 14.1355 23.5485 13.9796C24.0971 14.2841 24.8285 14.3933 25.0919 14.042C24.6823 14.042 23.6289 13.363 24.2653 13.6127C24.7929 13.7593 25.3519 13.704 25.8453 13.4566C25.5236 13.4435 25.2032 13.4044 24.8871 13.3396C24.6457 13.2303 24.9236 13.082 24.9236 13.082C25.2125 13.1788 25.5197 13.1959 25.8164 13.1318C26.1132 13.0676 26.3898 12.9243 26.6206 12.7151C26.235 12.7748 25.8433 12.7748 25.4576 12.7151C25.6624 12.3092 26.9937 11.9346 26.9937 11.9346C26.4963 11.5677 25.2821 12.2858 25.2821 12.2858C21.4492 11.7472 20.4324 14.4401 20.4324 14.4401C19.6424 16.3057 16.4606 19.1235 16.4606 19.1235C16.4579 19.0056 16.4772 18.8883 16.5174 18.7784C16.5576 18.6685 16.6178 18.5682 16.6946 18.4834C16.6946 17.9683 18.0771 17.0004 18.0771 17.0004C17.8708 17.0786 17.6521 17.1131 17.4334 17.1019C17.3017 16.8599 18.1649 16.6648 18.1649 16.6648C18.6988 16.5789 18.6769 16.3994 18.6769 16.3994C18.5439 16.4256 18.4076 16.4256 18.2746 16.3994C18.3074 16.3101 18.3608 16.2311 18.4299 16.1697C18.4989 16.1083 18.5814 16.0664 18.6696 16.0481C18.9109 16.0055 19.1364 15.892 19.3206 15.7203C19.1628 15.7682 18.9942 15.7544 18.8451 15.6813C19.0046 15.6764 19.1617 15.638 19.3073 15.5684C19.4528 15.4987 19.5841 15.3992 19.6936 15.2753C19.4221 15.3816 19.124 15.3816 18.8525 15.2753C19.1373 15.2439 19.3996 15.0956 19.5839 14.8617C18.8525 14.9631 19.0061 14.8617 19.0061 14.8617L19.4376 14.6509C19.7804 14.5084 20.0705 14.2509 20.2642 13.9172C19.9059 14.0755 19.5033 14.0755 19.145 13.9172C19.8404 13.6951 20.5028 13.3692 21.1127 12.9493C20.6712 12.8807 20.2208 12.9207 19.7961 13.0663C20.4096 12.6952 21.0662 12.4118 21.7491 12.2234C21.4087 12.1768 21.063 12.2034 20.7323 12.3014C21.2966 11.9563 21.9018 11.6937 22.5317 11.5209C22.0709 11.2399 20.608 11.8253 20.608 11.8253C21.2078 10.7481 23.095 10.1549 23.095 10.1549C22.6314 10.0821 22.1582 10.1292 21.7152 10.2922C21.2723 10.4552 20.8725 10.7293 20.5495 11.0916C20.4836 10.8886 20.8494 10.311 20.8494 10.311C20.1764 10.5139 19.1962 12.1375 19.1962 12.1375C19.203 11.9106 19.2527 11.6876 19.3425 11.4818C18.9549 11.5521 18.4721 12.8634 18.4721 12.8634C18.4313 12.8854 18.3862 12.8968 18.3404 12.8968C18.2947 12.8968 18.2496 12.8854 18.2088 12.8634C17.696 13.5966 17.3641 14.4555 17.2432 15.3612C17.0457 15.7905 16.819 15.5017 16.819 15.5017C17.0972 15.0307 17.2653 14.4953 17.3091 13.9406C17.0531 14.1357 17.0384 13.9406 17.0384 13.9406C17.2278 13.8013 17.3713 13.602 17.4488 13.3709C17.5262 13.1398 17.5336 12.8885 17.47 12.6527C17.4474 12.7848 17.3839 12.9049 17.2898 12.9941C17.1956 13.0832 17.0762 13.1362 16.9506 13.1444C17.5212 11.7394 17.214 11.0603 17.214 11.0603C17.1238 11.2781 17.048 11.5025 16.9872 11.7316C16.6946 11.8019 16.7897 11.5365 16.7897 11.5365C16.9287 9.62411 16.424 9.56165 16.424 9.56165C16.4752 9.85045 16.5118 10.5452 16.5118 10.5452C16.3582 11.1384 16.2777 10.6232 16.2777 10.6232C16.0144 8.91377 15.6559 9.00748 15.6559 9.00748C15.8365 9.50429 15.8822 10.0454 15.7876 10.5686C14.9318 8.55476 14.3247 8.89819 14.3247 8.89819C14.7059 9.34753 14.9905 9.88033 15.1586 10.4593C14.054 9.81925 13.6956 10.1549 13.6956 10.1549C14.1923 10.4011 14.6189 10.7836 14.9318 11.2633C14.3174 10.9666 14.1272 11.2633 14.1272 11.2633C15.5901 12.0438 15.7803 12.7697 15.7803 12.7697C15.2541 12.6945 14.7524 12.4857 14.3174 12.1609C14.4125 12.6605 15.2244 13.3942 15.5609 13.6752C15.1609 13.4536 14.7421 13.2733 14.31 13.1366C14.6308 13.6543 15.009 14.1287 15.4365 14.5494C15.2035 14.4576 14.986 14.3258 14.7928 14.1592C15.0715 14.6629 15.4054 15.1293 15.7876 15.5485C15.6256 15.456 15.4796 15.3346 15.356 15.1895C15.356 15.4705 15.912 16.0247 15.912 16.0247C15.9927 16.3157 16.0273 16.6191 16.0144 16.9223C16.2593 17.5379 16.4099 18.1915 16.4606 18.8581C16.2484 19.1079 16.1533 18.8581 16.1533 18.8581C16.1111 17.8708 15.9082 16.8987 15.5535 15.9856C14.9391 13.761 10.7185 13.0351 10.7185 13.0351C7.47083 11.5989 3.0747 17.6014 3.0747 17.6014C3.95 17.2815 4.76491 16.7979 5.48123 16.173C4.85949 16.7584 5.13744 17.1799 5.13744 17.1799C7.41962 14.6353 7.71952 14.9709 7.71952 14.9709C7.44713 15.1728 7.22221 15.4393 7.06232 15.7494C6.90244 16.0595 6.81192 16.4048 6.79786 16.7584C7.10452 16.3136 7.44984 15.9007 7.82924 15.5251C8.16571 15.2754 8.14378 15.5251 8.14378 15.5251C7.96747 15.6399 7.81875 15.7971 7.70952 15.9841C7.60029 16.1711 7.53357 16.3828 7.51471 16.6023C7.76341 16.3603 7.82924 16.2745 7.99748 16.2198C8.16572 16.1652 8.2608 16.3837 8.2608 16.3837C8.57522 15.7994 9.05371 15.3353 9.62866 15.0568C9.26183 15.4228 8.95304 15.8498 8.71433 16.3213C8.97766 16.4618 9.10201 16.3213 9.10201 16.3213C10.1992 14.8461 10.7405 15.0412 10.7405 15.0412C10.009 15.8217 10.1261 16.3994 10.1261 16.3994C10.4113 15.8998 10.7039 15.8842 10.7039 15.8842C10.4552 16.3057 10.8209 16.173 10.8209 16.173C11.6182 14.8617 11.9913 15.2597 11.9913 15.2597C11.5158 15.4627 11.1355 16.3994 11.1355 16.3994C11.3549 16.0325 12.0937 15.9856 12.0937 15.9856C11.8084 16.0715 11.728 16.6023 11.728 16.6023C12.0206 16.2276 13.3591 16.0715 13.3591 16.0715C13.284 16.1234 13.2215 16.1936 13.1769 16.2763C13.1323 16.3591 13.1068 16.452 13.1025 16.5473C13.0982 16.6427 13.1152 16.7378 13.1522 16.8247C13.1892 16.9117 13.2451 16.9879 13.3152 17.0472C14.0467 16.7038 14.4344 17.0472 14.4344 17.0472C14.0394 17.0472 13.9882 17.5234 13.9882 17.5234C14.3362 17.3646 14.7203 17.3184 15.0927 17.3907C14.9541 17.4247 14.824 17.4904 14.7116 17.5834C14.5992 17.6764 14.5071 17.7945 14.4417 17.9293C15.1732 17.7185 15.3048 18.0698 15.3048 18.0698C15.2019 18.0909 15.1062 18.1412 15.0277 18.2154C14.9492 18.2895 14.8908 18.3848 14.8587 18.4912C15.5389 18.3507 15.8461 19.1703 15.8461 19.1703C15.918 19.2576 15.9693 19.3619 15.9961 19.4745C16.0228 19.5871 16.024 19.7049 15.9997 19.8182C15.7218 19.6777 14.7197 20.2007 14.7197 20.2007C15.0159 19.859 15.3587 19.567 15.7364 19.3343C14.8806 19.022 13.2641 17.2814 13.2641 17.2814C12.2702 16.7745 11.1837 16.5079 10.0822 16.5008C7.63296 16.5504 5.21311 17.0795 2.94304 18.0619C0.448736 18.4132 0.456055 19.0142 0.456055 19.0142C0.704754 19.2796 3.16249 18.7488 3.16249 18.7488C2.05066 19.0845 1.95557 19.6231 1.95557 19.6231C2.7039 19.2672 3.50219 19.0456 4.3182 18.9674C3.88612 19.4455 3.41079 19.877 2.89915 20.2553C3.5209 20.2553 4.19385 19.5762 5.09356 18.9127C5.99326 18.2493 6.22732 18.5303 6.22732 18.5303C3.95246 19.8026 4.25969 20.4114 4.25969 20.4114C7.13436 18.3586 7.18556 18.7722 7.18556 18.7722C4.99116 20.3334 5.28374 20.8251 5.28374 20.8251C6.3008 20.2922 7.2517 19.6262 8.11452 18.8425C9.26292 18.0619 9.02885 18.5615 9.02885 18.5615C6.42483 20.1773 6.70279 20.8173 6.70279 20.8173C7.00923 20.4944 7.36556 20.2304 7.75611 20.0367C8.01944 19.9587 7.96822 20.146 7.96822 20.146C7.6098 20.3412 7.32452 21.1295 7.32452 21.1295C8.21294 20.4517 9.1387 19.8313 10.0968 19.2718C8.29007 20.8329 8.37784 21.473 8.37784 21.473C10.3967 19.7011 10.5722 20.0445 10.5722 20.0445C10.3985 20.1696 10.2611 20.3441 10.1758 20.5484C10.0904 20.7526 10.0605 20.9783 10.0895 21.1998C10.1919 20.7315 11.2452 20.0524 11.2452 20.0524L10.9599 20.4036C10.8764 20.4878 10.8191 20.5973 10.7956 20.7172C10.772 20.8372 10.7834 20.962 10.8283 21.0749C11.2569 20.8597 11.6638 20.5981 12.0425 20.2943C11.8377 20.7939 11.6109 21.231 11.6109 21.231C12.0059 21.231 13.2128 20.2397 13.2128 20.2397C12.0132 21.3637 12.1156 21.8008 12.1156 21.8008C13.1324 21.5666 12.8471 21.9647 12.8471 21.9647C10.0163 23.0185 9.54087 24.4625 9.54087 24.4625C11.1574 23.3619 11.5817 23.5649 11.5817 23.5649C8.6558 25.126 8.6558 25.9066 8.6558 25.9066C9.94318 24.7825 10.3674 25.048 10.3674 25.048C8.54608 25.8753 8.34859 27.093 8.34859 27.093C9.50431 25.7661 9.81153 26.1954 9.81153 26.1954C7.61713 27.7565 7.61713 28.7634 7.61713 28.7634C8.3998 27.8033 8.67044 28.1155 8.67044 28.1155C7.1563 29.0522 6.39557 31.5031 6.39557 31.5031C7.96091 29.3332 8.2535 29.7391 8.2535 29.7391C6.65159 32.1511 7.22945 32.9082 7.22945 32.9082C7.76342 30.6055 8.18035 31.1675 8.18035 31.1675C7.26601 33.5092 7.74146 34.1493 7.74146 34.1493C8.42904 31.027 8.8021 31.4719 8.8021 31.4719C8.69872 31.9865 8.69872 32.5185 8.8021 33.0331C8.94032 32.9438 9.05676 32.8208 9.14194 32.6743C9.22712 32.5278 9.2786 32.3619 9.29217 32.19C9.48235 29.5439 9.95781 29.8484 9.95781 29.8484C9.59939 31.4095 9.95781 31.3393 9.95781 31.3393C10.1126 30.2337 10.3573 29.1445 10.6893 28.0843C10.9453 26.4217 11.311 26.6793 11.311 26.6793C10.4845 28.2404 10.3748 31.5968 10.3748 31.5968C11.0569 30.3069 11.4546 28.8681 11.5378 27.3896C11.6109 26.7574 11.8816 26.9603 11.8816 26.9603C11.8231 27.8346 11.6183 29.1849 11.6183 29.1849C11.6183 29.825 11.8523 29.7235 11.8523 29.7235C12.218 28.9429 12.2839 25.7114 12.2839 25.7114H12.5179L12.4375 28.8336C12.6575 28.7312 12.8309 28.5406 12.9203 28.3029C12.9203 27.054 13.3152 27.1945 13.3152 27.1945C13.3049 27.2991 13.3144 27.4049 13.3433 27.5055C13.3722 27.6061 13.4199 27.6995 13.4835 27.7799C13.7351 27.2201 13.9242 26.6306 14.0467 26.0237C14.3905 25.8597 14.2369 26.3437 14.2369 26.3437C10.1626 43.3833 15.0635 56.0049 15.0635 56.0049C14.8763 55.7115 14.6339 55.4629 14.3519 55.2747C14.0698 55.0866 13.7542 54.9631 13.425 54.9122C13.6709 55.461 14.0108 55.9561 14.4271 56.3718C13.82 56.122 11.8596 55.9269 12.1083 56.2703C12.4745 56.5627 12.8966 56.7652 13.3445 56.8635H20.5495L20.4836 56.723C20.2376 56.3429 19.902 56.0388 19.5108 55.841C19.8065 55.5287 20.0757 55.1891 20.3154 54.8263C20.2569 54.7482 20.1984 54.6623 20.1398 54.5921C19.5305 54.9585 18.9463 55.3707 18.3916 55.8254C18.8037 55.4043 19.1583 54.9234 19.4449 54.397C19.5099 54.3171 19.5709 54.2337 19.6278 54.1472C19.8794 53.7009 20.0181 53.1925 20.0301 52.6719C19.1304 52.9919 18.1283 55.2634 18.1283 55.2634C17.6163 55.5912 17.6529 54.9355 17.6529 54.9355C18.1897 54.2161 18.5583 53.3706 18.7281 52.469C18.5745 51.6182 19.2401 48.9018 19.2401 48.9018C18.916 49.1127 18.641 49.3993 18.4358 49.74C18.2305 50.0807 18.1004 50.4667 18.0552 50.8688C17.8927 51.9453 17.6001 52.9948 17.1847 53.9911C17.2179 53.638 17.1805 53.2816 17.075 52.9451C17.0676 53.1477 17.0039 53.3433 16.8921 53.5071C12.2985 41.7519 15.1878 26.3905 15.1878 26.3905C15.2517 25.4367 15.3962 24.491 15.6194 23.5649C16.0436 22.7843 16.5483 22.9248 16.5483 22.9248C16.0344 23.3717 15.6995 24.011 15.6121 24.7123C16.5483 23.6117 16.9945 23.8537 16.9945 23.8537C16.28 24.3484 15.7496 25.0938 15.495 25.9612C15.8441 25.1935 16.4612 24.6022 17.214 24.3142C16.2585 24.9953 15.5915 26.049 15.356 27.2491C15.5128 26.9098 15.7333 26.6086 16.0038 26.3642C16.2744 26.1197 16.5892 25.9374 16.9287 25.8285C15.4658 27.5067 15.4146 28.7166 15.4146 28.7166C16.9945 26.2344 17.726 26.3749 17.726 26.3749C16.8872 27.1285 16.2637 28.1184 15.9266 29.2317C17.47 27.1398 17.4992 27.8501 17.4992 27.8501C17.2219 28.0373 16.983 28.2825 16.7969 28.571C16.6109 28.8594 16.4815 29.1851 16.4167 29.5284C17.1481 28.6307 17.4041 28.9898 17.4041 28.9898C15.8754 30.6758 16.0582 32.112 16.0582 32.112C16.8775 30.3557 17.865 30.3557 17.865 30.3557C17.4516 30.8793 17.1965 31.5243 17.1335 32.2057C17.3692 31.6885 17.7607 31.2707 18.2453 31.0192C18.0918 31.2567 17.9779 31.5208 17.9089 31.7998C16.5483 35.3201 17.353 35.7026 17.353 35.7026C17.5431 34.7191 17.9162 34.6722 17.9162 34.7425C17.9162 34.8127 17.7772 35.4372 17.7772 35.4372C17.6555 35.757 17.6098 36.104 17.6443 36.4472C17.6787 36.7904 17.7923 37.1191 17.9747 37.4042C17.7187 36.8031 18.5087 35.7885 18.5087 35.7885C18.7655 35.1125 18.94 34.4042 19.028 33.6809C19.1231 34.922 19.6863 34.9064 19.6863 34.9064C19.8473 34.1961 19.2987 31.5422 19.2987 31.5422C19.7229 31.4017 20.096 33.2126 20.096 33.2126C20.4836 32.3696 19.9643 29.8874 19.9643 29.8874C20.3464 30.2667 20.603 30.7678 20.6957 31.3158C20.789 30.8896 20.789 30.4463 20.6957 30.0201C20.3981 29.2688 20.2703 28.4532 20.3227 27.6394C20.8479 28.3893 21.2714 29.2144 21.5808 30.0903C21.9539 29.2473 20.7104 27.1242 20.7104 27.1242C20.9298 27.1242 21.2736 27.655 21.2736 27.655C21.4565 26.9525 20.3373 25.3133 20.3373 25.3133C20.6592 25.2275 21.515 26.172 21.515 26.172C21.6979 25.5709 19.701 23.1434 19.701 23.1434C19.9742 23.3309 20.2206 23.5596 20.4324 23.8225C19.7676 22.4838 18.8304 21.3209 17.6894 20.4192C17.4773 20.0212 16.4898 19.5762 16.4898 19.5762C16.6425 19.5503 16.798 19.5503 16.9506 19.5762C17.5578 19.6465 18.2526 20.7002 18.2526 20.7002C18.2592 20.6686 18.2726 20.6389 18.2917 20.6137C18.3108 20.5884 18.3351 20.5682 18.3627 20.5546C18.3903 20.541 18.4205 20.5344 18.4509 20.5353C18.4813 20.5361 18.5111 20.5445 18.5379 20.5597C18.4502 20.8876 18.9549 20.95 18.9549 20.95C19.1889 20.6066 19.2767 20.8719 19.2767 20.8719C19.2347 21.1737 19.2533 21.4815 19.3315 21.7749C19.4097 22.0684 19.5457 22.3406 19.7302 22.5736C19.6937 21.6681 20.0374 21.4418 20.0374 21.4418C20.0629 21.9471 20.1439 22.4475 20.2788 22.9326C20.2456 22.74 20.2692 22.5412 20.3466 22.3636C20.4239 22.186 20.551 22.0384 20.7104 21.9413C20.6517 22.225 20.6541 22.5193 20.7175 22.8019C20.7808 23.0845 20.9035 23.348 21.0761 23.5727C20.8421 22.0116 21.3394 21.6838 21.3394 21.6838C21.288 22.418 21.3853 23.1554 21.6247 23.8459C21.5452 23.0202 21.6376 22.1859 21.8954 21.4027C21.8064 22.4089 21.8285 23.4228 21.9612 24.4235C21.9933 23.8697 22.1542 23.3332 22.4293 22.8624C22.1588 23.6586 22.1382 24.527 22.3708 25.3368C22.4293 23.5727 22.9633 23.2214 22.9633 23.2214C22.7707 23.9931 22.7987 24.8086 23.0438 25.5631C23.0438 24.002 23.8484 23.8147 23.8484 23.8147C23.7132 24.3571 23.7652 24.9332 23.9947 25.4382C23.9069 24.3142 24.514 24.0566 24.514 24.0566C24.4389 24.5813 24.4867 25.1176 24.653 25.6178H24.7042C24.7042 24.5328 25.0553 24.3611 25.0553 24.3611C24.9783 24.7969 24.9783 25.2443 25.0553 25.6802C25.1242 26.1562 25.2269 26.6258 25.3625 27.0852C25.347 26.6401 25.3814 26.1946 25.4649 25.7582C25.5366 25.3212 25.6855 24.9026 25.9038 24.5249C25.8494 24.9654 25.8494 25.4115 25.9038 25.8519C25.9509 26.3829 26.0539 26.9066 26.211 27.413C26.1634 26.9332 26.2158 26.4481 26.3646 25.9924C26.4344 25.7686 26.5225 25.5519 26.628 25.3446C26.9915 25.6341 27.3185 25.9725 27.6008 26.3515H27.6301ZM18.2965 55.5444C18.2533 55.5852 18.2068 55.6217 18.1576 55.6536L18.2965 55.5444Z" fill="url(#paint29_linear)"/>
<defs>
<linearGradient id="paint0_linear" x1="2193.68" y1="4023.13" x2="2844.74" y2="4048.64" gradientUnits="userSpaceOnUse">
<stop stop-color="#A2792C"/>
<stop offset="0.26" stop-color="#BC992E"/>
<stop offset="0.42" stop-color="#BC992E"/>
<stop offset="0.53" stop-color="#A2792C"/>
<stop offset="1" stop-color="#BC992E"/>
</linearGradient>
<linearGradient id="paint1_linear" x1="3346.42" y1="3780.91" x2="4314.49" y2="3843.24" gradientUnits="userSpaceOnUse">
<stop stop-color="#A2792C"/>
<stop offset="0.26" stop-color="#BC992E"/>
<stop offset="0.42" stop-color="#BC992E"/>
<stop offset="0.53" stop-color="#A2792C"/>
<stop offset="1" stop-color="#BC992E"/>
</linearGradient>
<linearGradient id="paint2_linear" x1="1927.28" y1="4750.45" x2="2481.13" y2="4766.35" gradientUnits="userSpaceOnUse">
<stop stop-color="#A2792C"/>
<stop offset="0.26" stop-color="#BC992E"/>
<stop offset="0.42" stop-color="#BC992E"/>
<stop offset="0.53" stop-color="#A2792C"/>
<stop offset="1" stop-color="#BC992E"/>
</linearGradient>
<linearGradient id="paint3_linear" x1="771.324" y1="2529.44" x2="973.072" y2="2533.57" gradientUnits="userSpaceOnUse">
<stop stop-color="#A2792C"/>
<stop offset="0.26" stop-color="#BC992E"/>
<stop offset="0.42" stop-color="#BC992E"/>
<stop offset="0.53" stop-color="#A2792C"/>
<stop offset="1" stop-color="#BC992E"/>
</linearGradient>
<linearGradient id="paint4_linear" x1="1007" y1="2149.76" x2="1282.37" y2="2158.6" gradientUnits="userSpaceOnUse">
<stop stop-color="#A2792C"/>
<stop offset="0.26" stop-color="#BC992E"/>
<stop offset="0.42" stop-color="#BC992E"/>
<stop offset="0.53" stop-color="#A2792C"/>
<stop offset="1" stop-color="#BC992E"/>
</linearGradient>
<linearGradient id="paint5_linear" x1="1165.72" y1="1625.15" x2="1493.58" y2="1641.39" gradientUnits="userSpaceOnUse">
<stop stop-color="#A2792C"/>
<stop offset="0.26" stop-color="#BC992E"/>
<stop offset="0.42" stop-color="#BC992E"/>
<stop offset="0.53" stop-color="#A2792C"/>
<stop offset="1" stop-color="#BC992E"/>
</linearGradient>
<linearGradient id="paint6_linear" x1="1257.34" y1="990.723" x2="1616.79" y2="1022.74" gradientUnits="userSpaceOnUse">
<stop stop-color="#A2792C"/>
<stop offset="0.26" stop-color="#BC992E"/>
<stop offset="0.42" stop-color="#BC992E"/>
<stop offset="0.53" stop-color="#A2792C"/>
<stop offset="1" stop-color="#BC992E"/>
</linearGradient>
<linearGradient id="paint7_linear" x1="1261.18" y1="829.993" x2="1624.61" y2="868.961" gradientUnits="userSpaceOnUse">
<stop stop-color="#A2792C"/>
<stop offset="0.26" stop-color="#BC992E"/>
<stop offset="0.42" stop-color="#BC992E"/>
<stop offset="0.53" stop-color="#A2792C"/>
<stop offset="1" stop-color="#BC992E"/>
</linearGradient>
<linearGradient id="paint8_linear" x1="1190.63" y1="1281.91" x2="1536.93" y2="1304.53" gradientUnits="userSpaceOnUse">
<stop stop-color="#A2792C"/>
<stop offset="0.26" stop-color="#BC992E"/>
<stop offset="0.42" stop-color="#BC992E"/>
<stop offset="0.53" stop-color="#A2792C"/>
<stop offset="1" stop-color="#BC992E"/>
</linearGradient>
<linearGradient id="paint9_linear" x1="1057.73" y1="1817.33" x2="1362.66" y2="1829.85" gradientUnits="userSpaceOnUse">
<stop stop-color="#A2792C"/>
<stop offset="0.26" stop-color="#BC992E"/>
<stop offset="0.42" stop-color="#BC992E"/>
<stop offset="0.53" stop-color="#A2792C"/>
<stop offset="1" stop-color="#BC992E"/>
</linearGradient>
<linearGradient id="paint10_linear" x1="904.29" y1="2441.16" x2="1163.46" y2="2447.88" gradientUnits="userSpaceOnUse">
<stop stop-color="#A2792C"/>
<stop offset="0.26" stop-color="#BC992E"/>
<stop offset="0.42" stop-color="#BC992E"/>
<stop offset="0.53" stop-color="#A2792C"/>
<stop offset="1" stop-color="#BC992E"/>
</linearGradient>
<linearGradient id="paint11_linear" x1="690.269" y1="2856.4" x2="885.341" y2="2859.67" gradientUnits="userSpaceOnUse">
<stop stop-color="#A2792C"/>
<stop offset="0.26" stop-color="#BC992E"/>
<stop offset="0.42" stop-color="#BC992E"/>
<stop offset="0.53" stop-color="#A2792C"/>
<stop offset="1" stop-color="#BC992E"/>
</linearGradient>
<linearGradient id="paint12_linear" x1="442.267" y1="3098.81" x2="562.987" y2="3099.97" gradientUnits="userSpaceOnUse">
<stop stop-color="#A2792C"/>
<stop offset="0.26" stop-color="#BC992E"/>
<stop offset="0.42" stop-color="#BC992E"/>
<stop offset="0.53" stop-color="#A2792C"/>
<stop offset="1" stop-color="#BC992E"/>
</linearGradient>
<linearGradient id="paint13_linear" x1="371.438" y1="3123.95" x2="459.392" y2="3124.63" gradientUnits="userSpaceOnUse">
<stop stop-color="#A2792C"/>
<stop offset="0.26" stop-color="#BC992E"/>
<stop offset="0.42" stop-color="#BC992E"/>
<stop offset="0.53" stop-color="#A2792C"/>
<stop offset="1" stop-color="#BC992E"/>
</linearGradient>
<linearGradient id="paint14_linear" x1="551.96" y1="2947.91" x2="689.033" y2="2949.66" gradientUnits="userSpaceOnUse">
<stop stop-color="#A2792C"/>
<stop offset="0.26" stop-color="#BC992E"/>
<stop offset="0.42" stop-color="#BC992E"/>
<stop offset="0.53" stop-color="#A2792C"/>
<stop offset="1" stop-color="#BC992E"/>
</linearGradient>
<linearGradient id="paint15_linear" x1="764.217" y1="2609.96" x2="965.505" y2="2614.06" gradientUnits="userSpaceOnUse">
<stop stop-color="#A2792C"/>
<stop offset="0.26" stop-color="#BC992E"/>
<stop offset="0.42" stop-color="#BC992E"/>
<stop offset="0.53" stop-color="#A2792C"/>
<stop offset="1" stop-color="#BC992E"/>
</linearGradient>
<linearGradient id="paint16_linear" x1="997.865" y1="2211.65" x2="1273.24" y2="2220.49" gradientUnits="userSpaceOnUse">
<stop stop-color="#A2792C"/>
<stop offset="0.26" stop-color="#BC992E"/>
<stop offset="0.42" stop-color="#BC992E"/>
<stop offset="0.53" stop-color="#A2792C"/>
<stop offset="1" stop-color="#BC992E"/>
</linearGradient>
<linearGradient id="paint17_linear" x1="1156.03" y1="1669.18" x2="1484.38" y2="1685.5" gradientUnits="userSpaceOnUse">
<stop stop-color="#A2792C"/>
<stop offset="0.26" stop-color="#BC992E"/>
<stop offset="0.42" stop-color="#BC992E"/>
<stop offset="0.53" stop-color="#A2792C"/>
<stop offset="1" stop-color="#BC992E"/>
</linearGradient>
<linearGradient id="paint18_linear" x1="1244.86" y1="1033.01" x2="1604.41" y2="1064.29" gradientUnits="userSpaceOnUse">
<stop stop-color="#A2792C"/>
<stop offset="0.26" stop-color="#BC992E"/>
<stop offset="0.42" stop-color="#BC992E"/>
<stop offset="0.53" stop-color="#A2792C"/>
<stop offset="1" stop-color="#BC992E"/>
</linearGradient>
<linearGradient id="paint19_linear" x1="1248.35" y1="836.318" x2="1611.74" y2="875.427" gradientUnits="userSpaceOnUse">
<stop stop-color="#A2792C"/>
<stop offset="0.26" stop-color="#BC992E"/>
<stop offset="0.42" stop-color="#BC992E"/>
<stop offset="0.53" stop-color="#A2792C"/>
<stop offset="1" stop-color="#BC992E"/>
</linearGradient>
<linearGradient id="paint20_linear" x1="1180.07" y1="1283.48" x2="1526.92" y2="1306.26" gradientUnits="userSpaceOnUse">
<stop stop-color="#A2792C"/>
<stop offset="0.26" stop-color="#BC992E"/>
<stop offset="0.42" stop-color="#BC992E"/>
<stop offset="0.53" stop-color="#A2792C"/>
<stop offset="1" stop-color="#BC992E"/>
</linearGradient>
<linearGradient id="paint21_linear" x1="1045.89" y1="1817.83" x2="1350.84" y2="1830.2" gradientUnits="userSpaceOnUse">
<stop stop-color="#A2792C"/>
<stop offset="0.26" stop-color="#BC992E"/>
<stop offset="0.42" stop-color="#BC992E"/>
<stop offset="0.53" stop-color="#A2792C"/>
<stop offset="1" stop-color="#BC992E"/>
</linearGradient>
<linearGradient id="paint22_linear" x1="894.332" y1="2384.49" x2="1153.53" y2="2391.27" gradientUnits="userSpaceOnUse">
<stop stop-color="#A2792C"/>
<stop offset="0.26" stop-color="#BC992E"/>
<stop offset="0.42" stop-color="#BC992E"/>
<stop offset="0.53" stop-color="#A2792C"/>
<stop offset="1" stop-color="#BC992E"/>
</linearGradient>
<linearGradient id="paint23_linear" x1="682.764" y1="2798.99" x2="877.841" y2="2802.26" gradientUnits="userSpaceOnUse">
<stop stop-color="#A2792C"/>
<stop offset="0.26" stop-color="#BC992E"/>
<stop offset="0.42" stop-color="#BC992E"/>
<stop offset="0.53" stop-color="#A2792C"/>
<stop offset="1" stop-color="#BC992E"/>
</linearGradient>
<linearGradient id="paint24_linear" x1="427.923" y1="3021.21" x2="545.844" y2="3022.32" gradientUnits="userSpaceOnUse">
<stop stop-color="#A2792C"/>
<stop offset="0.26" stop-color="#BC992E"/>
<stop offset="0.42" stop-color="#BC992E"/>
<stop offset="0.53" stop-color="#A2792C"/>
<stop offset="1" stop-color="#BC992E"/>
</linearGradient>
<linearGradient id="paint25_linear" x1="367.501" y1="3026.04" x2="455.197" y2="3026.72" gradientUnits="userSpaceOnUse">
<stop stop-color="#A2792C"/>
<stop offset="0.26" stop-color="#BC992E"/>
<stop offset="0.42" stop-color="#BC992E"/>
<stop offset="0.53" stop-color="#A2792C"/>
<stop offset="1" stop-color="#BC992E"/>
</linearGradient>
<linearGradient id="paint26_linear" x1="557.708" y1="2860.24" x2="696.06" y2="2862.02" gradientUnits="userSpaceOnUse">
<stop stop-color="#A2792C"/>
<stop offset="0.26" stop-color="#BC992E"/>
<stop offset="0.42" stop-color="#BC992E"/>
<stop offset="0.53" stop-color="#A2792C"/>
<stop offset="1" stop-color="#BC992E"/>
</linearGradient>
<linearGradient id="paint27_linear" x1="12143.7" y1="4694.74" x2="15671.1" y2="5434.89" gradientUnits="userSpaceOnUse">
<stop stop-color="#A2792C"/>
<stop offset="0.26" stop-color="#BC992E"/>
<stop offset="0.42" stop-color="#BC992E"/>
<stop offset="0.53" stop-color="#A2792C"/>
<stop offset="1" stop-color="#BC992E"/>
</linearGradient>
<linearGradient id="paint28_linear" x1="6181.05" y1="24947.1" x2="7882.59" y2="25001.6" gradientUnits="userSpaceOnUse">
<stop stop-color="#927E2F"/>
<stop offset="0.24" stop-color="#AE9431"/>
<stop offset="0.42" stop-color="#CAAD2E"/>
<stop offset="0.75" stop-color="#E2C022"/>
<stop offset="1" stop-color="#FFD700"/>
</linearGradient>
<linearGradient id="paint29_linear" x1="7805.56" y1="30670.1" x2="10130.7" y2="30747.6" gradientUnits="userSpaceOnUse">
<stop stop-color="#927E2F"/>
<stop offset="0.24" stop-color="#AE9431"/>
<stop offset="0.42" stop-color="#CAAD2E"/>
<stop offset="0.75" stop-color="#E2C022"/>
<stop offset="1" stop-color="#FFD700"/>
</linearGradient>
</defs>
</svg>
