<svg width="32" height="32" viewBox="0 0 32 32" fill="none" xmlns="http://www.w3.org/2000/svg">
<circle cx="16" cy="16" r="16" fill="#7BCF8D"/>
<g clip-path="url(#clip0)">
<path d="M11.083 14.7627C9.71816 14.7627 8.61475 15.8658 8.61475 17.2263C8.61475 18.5869 9.71816 19.69 11.0792 19.69C12.4402 19.69 13.5436 18.5869 13.5436 17.2263C13.5474 15.8658 12.444 14.7627 11.083 14.7627ZM11.083 18.9905C10.1103 18.9905 9.31832 18.2026 9.31832 17.2263C9.31832 16.2501 10.1065 15.4622 11.083 15.4622C12.0596 15.4622 12.8439 16.2539 12.8439 17.2263C12.8439 18.1987 12.0557 18.9905 11.083 18.9905Z" fill="black"/>
<path d="M11.0907 18.4482C11.768 18.4482 12.3171 17.8993 12.3171 17.2221C12.3171 16.545 11.768 15.9961 11.0907 15.9961C10.4134 15.9961 9.86426 16.545 9.86426 17.2221C9.86426 17.8993 10.4134 18.4482 11.0907 18.4482Z" fill="black"/>
<path d="M20.9254 14.7627C19.5644 14.7627 18.4609 15.8658 18.4609 17.2263C18.4609 18.5869 19.5644 19.69 20.9254 19.69C22.2864 19.69 23.3898 18.5869 23.3898 17.2263C23.3898 15.8658 22.2864 14.7627 20.9254 14.7627ZM20.9254 18.9905C19.9527 18.9905 19.1607 18.2026 19.1607 17.2263C19.1607 16.2501 19.9488 15.4622 20.9254 15.4622C21.9019 15.4622 22.6862 16.2539 22.6862 17.2263C22.6862 18.1987 21.8981 18.9905 20.9254 18.9905Z" fill="black"/>
<path d="M20.933 18.4482C21.6103 18.4482 22.1594 17.8993 22.1594 17.2221C22.1594 16.545 21.6103 15.9961 20.933 15.9961C20.2556 15.9961 19.7065 16.545 19.7065 17.2221C19.7065 17.8993 20.2556 18.4482 20.933 18.4482Z" fill="black"/>
<path d="M24.3933 13.7367L25.8428 12.2993H22.9054C21.2599 10.9618 18.5264 9.84717 15.9928 9.84717C13.4553 9.84717 10.7448 10.9618 9.0993 12.2993H6.1543L7.60373 13.7367C6.70793 14.6284 6.1543 15.8621 6.1543 17.2265C6.1543 19.9477 8.36113 22.1538 11.0831 22.1538C12.3327 22.1538 13.4745 21.6888 14.3434 20.9201L16.012 22.1461L17.6613 20.947L17.6421 20.9009C18.5149 21.6772 19.6606 22.15 20.9216 22.15C23.6436 22.15 25.8504 19.9438 25.8504 17.2227C25.8466 15.8621 25.2891 14.6284 24.3933 13.7367ZM20.3026 12.3377C17.9689 12.6298 16.1389 14.5515 16.0005 16.9306C15.8582 14.5477 14.0243 12.6221 11.6829 12.3377C12.8594 11.4922 14.3588 11.0771 15.9928 11.0771C17.6267 11.0771 19.1262 11.4922 20.3026 12.3377ZM11.0831 20.9239C9.03779 20.9239 7.38459 19.2674 7.38459 17.2265C7.38459 15.1857 9.04163 13.5292 11.0831 13.5292C13.1247 13.5292 14.7817 15.1857 14.7817 17.2265C14.7779 19.2674 13.1247 20.9239 11.0831 20.9239ZM20.9254 20.9239C18.8839 20.9239 17.2269 19.2674 17.2269 17.2265C17.2269 15.1857 18.8839 13.5292 20.9254 13.5292C22.967 13.5292 24.624 15.1857 24.624 17.2265C24.6202 19.2674 22.967 20.9239 20.9254 20.9239Z" fill="black"/>
</g>
<defs>
<clipPath id="clip0">
<rect width="19.6923" height="12.3077" fill="white" transform="translate(6.1543 9.84619)"/>
</clipPath>
</defs>
</svg>
