<svg width="16" height="14" viewBox="0 0 16 14" fill="none" xmlns="http://www.w3.org/2000/svg">
<path d="M5.75 6.25C6.34334 6.25 6.92336 6.07405 7.41671 5.74441C7.91006 5.41477 8.29458 4.94623 8.52164 4.39805C8.7487 3.84987 8.80811 3.24667 8.69236 2.66473C8.5766 2.08279 8.29088 1.54824 7.87132 1.12868C7.45176 0.709123 6.91721 0.423401 6.33527 0.307646C5.75333 0.19189 5.15013 0.2513 4.60195 0.478363C4.05377 0.705426 3.58524 1.08994 3.25559 1.58329C2.92595 2.07664 2.75 2.65666 2.75 3.25C2.75 4.04565 3.06607 4.80871 3.62868 5.37132C4.19129 5.93393 4.95435 6.25 5.75 6.25ZM11.75 7.75C12.195 7.75 12.63 7.61804 13 7.37081C13.37 7.12357 13.6584 6.77217 13.8287 6.36104C13.999 5.94991 14.0436 5.49751 13.9568 5.06105C13.87 4.62459 13.6557 4.22368 13.341 3.90901C13.0263 3.59434 12.6254 3.38005 12.189 3.29323C11.7525 3.20642 11.3001 3.25098 10.889 3.42127C10.4778 3.59157 10.1264 3.87996 9.87919 4.24997C9.63196 4.61998 9.5 5.05499 9.5 5.5C9.5 6.09674 9.73705 6.66903 10.159 7.09099C10.581 7.51295 11.1533 7.75 11.75 7.75ZM14.75 13C14.9489 13 15.1397 12.921 15.2803 12.7803C15.421 12.6397 15.5 12.4489 15.5 12.25C15.4994 11.549 15.3023 10.8623 14.9312 10.2677C14.5601 9.67303 14.0297 9.19432 13.4003 8.88585C12.7708 8.57738 12.0675 8.45151 11.3702 8.5225C10.6728 8.59349 10.0094 8.85852 9.455 9.2875C8.72038 8.55577 7.78554 8.05795 6.76837 7.85682C5.75119 7.65569 4.69724 7.76027 3.73942 8.15735C2.7816 8.55444 1.96281 9.22625 1.38631 10.0881C0.809802 10.9499 0.501403 11.9631 0.5 13C0.5 13.1989 0.579018 13.3897 0.71967 13.5303C0.860322 13.671 1.05109 13.75 1.25 13.75H10.25C10.4489 13.75 10.6397 13.671 10.7803 13.5303C10.921 13.3897 11 13.1989 11 13" fill="#A2792C"/>
</svg>
