<svg width="25" height="25" viewBox="0 0 25 25" fill="none" xmlns="http://www.w3.org/2000/svg">
<path d="M12.5 3.09616C12.9252 3.09616 13.3462 3.1799 13.739 3.3426C14.1317 3.5053 14.4886 3.74377 14.7893 4.0444C15.0899 4.34503 15.3284 4.70193 15.4911 5.09472C15.6538 5.48751 15.7375 5.9085 15.7375 6.33366C15.7375 6.75881 15.6538 7.1798 15.4911 7.5726C15.3284 7.96539 15.0899 8.32229 14.7893 8.62292C14.4886 8.92355 14.1317 9.16202 13.739 9.32472C13.3462 9.48742 12.9252 9.57116 12.5 9.57116C11.6414 9.57116 10.8179 9.23007 10.2108 8.62292C9.60361 8.01577 9.26252 7.1923 9.26252 6.33366C9.26252 5.47502 9.60361 4.65155 10.2108 4.0444C10.8179 3.43725 11.6414 3.09616 12.5 3.09616ZM12.5 16.9712C17.0788 16.9712 21.9042 19.222 21.9042 20.2087V21.9045H3.09585V20.2087C3.09585 19.222 7.92127 16.9712 12.5 16.9712ZM12.5 0.166992C9.09294 0.166992 6.33335 2.92658 6.33335 6.33366C6.33335 9.74074 9.09294 12.5003 12.5 12.5003C15.9071 12.5003 18.6667 9.74074 18.6667 6.33366C18.6667 2.92658 15.9071 0.166992 12.5 0.166992ZM12.5 14.042C8.38377 14.042 0.166687 16.1078 0.166687 20.2087V24.8337H24.8334V20.2087C24.8334 16.1078 16.6163 14.042 12.5 14.042Z" fill="#A2792C"/>
</svg>
