<svg width="32" height="32" viewBox="0 0 32 32" fill="none" xmlns="http://www.w3.org/2000/svg">
<g clip-path="url(#clip0)">
<path d="M14 4.00039C14.012 4.53307 13.9175 5.06278 13.722 5.55844C13.5265 6.05409 13.234 6.5057 12.8615 6.88673C12.4891 7.26777 12.0443 7.57057 11.5533 7.77734C11.0622 7.98411 10.5348 8.09069 10.002 8.09082C9.46916 8.09095 8.94169 7.98464 8.45053 7.77811C7.95937 7.57159 7.51442 7.26902 7.1418 6.88816C6.76919 6.50731 6.47642 6.05586 6.28068 5.5603C6.08494 5.06474 5.99017 4.53507 6.00195 4.00239C6.02507 2.95727 6.4564 1.96272 7.20363 1.23165C7.95086 0.500578 8.9546 0.0910818 9.99998 0.0908204C11.0454 0.090559 12.0493 0.499553 12.7969 1.23025C13.5445 1.96095 13.9763 2.95528 14 4.00039Z" fill="#A2792C"/>
<path d="M19.5999 3.60042C19.1999 2.60042 16.1999 3.40042 15.5999 4.60042C15.1999 5.20042 15.1999 7.00042 13.1999 8.40042C11.5999 9.40042 9.99993 9.40042 9.99993 9.40042C9.39993 10.6004 9.79993 11.6004 10.3999 12.6004C11.3999 14.4004 11.5999 16.2004 11.7999 18.2004C11.9999 20.8004 10.7999 23.0004 7.19993 24.6004C5.59993 25.2004 4.59993 26.4004 5.19993 28.4004C5.19993 28.4004 9.19993 27.8004 11.3999 26.0004C14.3999 23.6004 14.9999 21.4004 14.9999 21.4004C14.9999 21.4004 15.1999 22.8004 14.9999 25.2004C14.7999 27.2004 14.5999 28.2004 14.1999 29.6004C13.7999 31.0004 14.7999 32.0004 15.9999 32.0004C17.1999 32.0004 17.9999 31.2004 17.9999 30.0004L18.5999 26.2004C19.1999 22.0004 18.5999 17.6004 16.9999 13.6004C16.9999 13.4004 16.7999 13.4004 16.7999 13.2004C15.5999 10.0004 17.1999 8.00042 17.9999 7.20042C18.5999 6.40042 20.3999 4.80042 19.5999 3.60042Z" fill="#A2792C"/>
<path d="M24 0V20H26V8L32 4L24 0Z" fill="#A2792C"/>
<path d="M32 20C32 20.5304 31.7893 21.0391 31.4142 21.4142C31.0391 21.7893 30.5304 22 30 22C29.4696 22 28.9609 21.7893 28.5858 21.4142C28.2107 21.0391 28 20.5304 28 20C28 19.4696 28.2107 18.9609 28.5858 18.5858C28.9609 18.2107 29.4696 18 30 18C30.5304 18 31.0391 18.2107 31.4142 18.5858C31.7893 18.9609 32 19.4696 32 20Z" fill="#A2792C"/>
<path d="M2 16.7998L9.4 9.3998L8 8.7998L0.400004 15.9998C0.400004 15.9998 -0.399996 17.3998 0.600004 19.3998C1.6 21.3998 3.8 19.9998 3.8 19.9998C4.6 19.5998 4.2 19.1998 3.8 18.7998C3.4 18.3998 2 16.7998 2 16.7998Z" fill="#A2792C"/>
</g>
<defs>
<clipPath id="clip0">
<rect width="32" height="32" fill="white"/>
</clipPath>
</defs>
</svg>
