<svg width="75" height="54" viewBox="0 0 75 54" fill="none" xmlns="http://www.w3.org/2000/svg">
<path d="M2.832 4.92H0.048V3.6H7.176V4.92H4.392V12H2.832V4.92ZM11.8388 5.52C12.6468 5.52 13.2948 5.756 13.7828 6.228C14.2708 6.7 14.5148 7.4 14.5148 8.328V12H13.0148V8.52C13.0148 7.96 12.8828 7.54 12.6188 7.26C12.3548 6.972 11.9788 6.828 11.4908 6.828C10.9388 6.828 10.5028 6.996 10.1828 7.332C9.86275 7.66 9.70275 8.136 9.70275 8.76V12H8.20275V3.096H9.70275V6.336C9.95075 6.072 10.2548 5.872 10.6148 5.736C10.9828 5.592 11.3908 5.52 11.8388 5.52ZM22.6216 5.592V12H21.1936V11.184C20.9536 11.472 20.6536 11.696 20.2936 11.856C19.9336 12.008 19.5456 12.084 19.1296 12.084C18.2736 12.084 17.5976 11.848 17.1016 11.376C16.6136 10.896 16.3696 10.188 16.3696 9.252V5.592H17.8696V9.048C17.8696 9.624 17.9976 10.056 18.2536 10.344C18.5176 10.624 18.8896 10.764 19.3696 10.764C19.9056 10.764 20.3296 10.6 20.6416 10.272C20.9616 9.936 21.1216 9.456 21.1216 8.832V5.592H22.6216ZM33.278 11.232V12H27.386V11.388L30.878 7.968C31.318 7.536 31.614 7.164 31.766 6.852C31.926 6.532 32.006 6.212 32.006 5.892C32.006 5.396 31.834 5.012 31.49 4.74C31.154 4.46 30.67 4.32 30.038 4.32C29.054 4.32 28.29 4.632 27.746 5.256L27.134 4.728C27.462 4.344 27.878 4.048 28.382 3.84C28.894 3.632 29.47 3.528 30.11 3.528C30.966 3.528 31.642 3.732 32.138 4.14C32.642 4.54 32.894 5.092 32.894 5.796C32.894 6.228 32.798 6.644 32.606 7.044C32.414 7.444 32.05 7.904 31.514 8.424L28.658 11.232H33.278ZM38.1423 5.64C38.9343 5.64 39.5623 5.872 40.0263 6.336C40.4983 6.792 40.7343 7.46 40.7343 8.34V12H39.8823V8.424C39.8823 7.768 39.7183 7.268 39.3903 6.924C39.0623 6.58 38.5943 6.408 37.9863 6.408C37.3063 6.408 36.7663 6.612 36.3663 7.02C35.9743 7.42 35.7783 7.976 35.7783 8.688V12H34.9263V5.688H35.7423V6.852C35.9743 6.468 36.2943 6.172 36.7023 5.964C37.1183 5.748 37.5983 5.64 38.1423 5.64ZM48.8308 3.096V12H48.0148V10.752C47.7588 11.176 47.4188 11.5 46.9948 11.724C46.5788 11.948 46.1068 12.06 45.5788 12.06C44.9868 12.06 44.4508 11.924 43.9708 11.652C43.4908 11.38 43.1148 11 42.8428 10.512C42.5708 10.024 42.4348 9.468 42.4348 8.844C42.4348 8.22 42.5708 7.664 42.8428 7.176C43.1148 6.688 43.4908 6.312 43.9708 6.048C44.4508 5.776 44.9868 5.64 45.5788 5.64C46.0908 5.64 46.5508 5.748 46.9588 5.964C47.3748 6.172 47.7148 6.48 47.9788 6.888V3.096H48.8308ZM45.6508 11.304C46.0908 11.304 46.4868 11.204 46.8388 11.004C47.1988 10.796 47.4788 10.504 47.6788 10.128C47.8868 9.752 47.9908 9.324 47.9908 8.844C47.9908 8.364 47.8868 7.936 47.6788 7.56C47.4788 7.184 47.1988 6.896 46.8388 6.696C46.4868 6.488 46.0908 6.384 45.6508 6.384C45.2028 6.384 44.7988 6.488 44.4388 6.696C44.0868 6.896 43.8068 7.184 43.5988 7.56C43.3988 7.936 43.2988 8.364 43.2988 8.844C43.2988 9.324 43.3988 9.752 43.5988 10.128C43.8068 10.504 44.0868 10.796 44.4388 11.004C44.7988 11.204 45.2028 11.304 45.6508 11.304Z" fill="#927C22"/>
<path d="M60.94 24.043V25H55.407V24.252L58.542 21.227C58.9233 20.8603 59.18 20.545 59.312 20.281C59.444 20.0097 59.51 19.7383 59.51 19.467C59.51 19.0637 59.367 18.752 59.081 18.532C58.8023 18.3047 58.399 18.191 57.871 18.191C57.0203 18.191 56.364 18.4697 55.902 19.027L55.154 18.378C55.4547 18.0113 55.847 17.7253 56.331 17.52C56.8223 17.3147 57.3687 17.212 57.97 17.212C58.7767 17.212 59.4183 17.4063 59.895 17.795C60.3717 18.1763 60.61 18.697 60.61 19.357C60.61 19.7677 60.522 20.1563 60.346 20.523C60.17 20.8897 59.8363 21.3077 59.345 21.777L56.991 24.043H60.94ZM64.3414 17.212C65.3754 17.212 66.1711 17.5457 66.7284 18.213C67.2931 18.8803 67.5754 19.8263 67.5754 21.051C67.5754 21.909 67.4214 22.6423 67.1134 23.251C66.8127 23.8523 66.3874 24.3107 65.8374 24.626C65.2947 24.934 64.6604 25.088 63.9344 25.088C63.5604 25.088 63.2084 25.0513 62.8784 24.978C62.5484 24.8973 62.2624 24.7837 62.0204 24.637L62.4384 23.779C62.8124 24.021 63.3074 24.142 63.9234 24.142C64.7227 24.142 65.3461 23.8963 65.7934 23.405C66.2481 22.9063 66.4754 22.184 66.4754 21.238V20.963C66.2554 21.293 65.9511 21.546 65.5624 21.722C65.1737 21.8907 64.7374 21.975 64.2534 21.975C63.7474 21.975 63.2927 21.8797 62.8894 21.689C62.4934 21.4983 62.1817 21.227 61.9544 20.875C61.7344 20.5157 61.6244 20.105 61.6244 19.643C61.6244 19.159 61.7417 18.7337 61.9764 18.367C62.2184 18.0003 62.5447 17.718 62.9554 17.52C63.3661 17.3147 63.8281 17.212 64.3414 17.212ZM64.4404 21.084C64.7851 21.084 65.0931 21.018 65.3644 20.886C65.6357 20.754 65.8447 20.5743 65.9914 20.347C66.1454 20.1197 66.2224 19.8667 66.2224 19.588C66.2224 19.3167 66.1491 19.071 66.0024 18.851C65.8631 18.6237 65.6541 18.444 65.3754 18.312C65.1041 18.1727 64.7741 18.103 64.3854 18.103C63.8794 18.103 63.4687 18.2387 63.1534 18.51C62.8454 18.7813 62.6914 19.1443 62.6914 19.599C62.6914 20.0537 62.8491 20.4167 63.1644 20.688C63.4797 20.952 63.9051 21.084 64.4404 21.084Z" fill="#927C22"/>
<path d="M61.214 32.7V39H60.566V33.276H59.081V32.7H61.214ZM64.682 32.646C65.516 32.646 66.155 32.922 66.599 33.474C67.043 34.02 67.265 34.794 67.265 35.796C67.265 36.498 67.145 37.092 66.905 37.578C66.665 38.064 66.329 38.433 65.897 38.685C65.465 38.931 64.961 39.054 64.385 39.054C63.761 39.054 63.263 38.94 62.891 38.712L63.152 38.19C63.452 38.388 63.86 38.487 64.376 38.487C65.072 38.487 65.618 38.268 66.014 37.83C66.41 37.386 66.608 36.744 66.608 35.904C66.608 35.748 66.599 35.577 66.581 35.391C66.425 35.733 66.176 36 65.834 36.192C65.492 36.378 65.099 36.471 64.655 36.471C64.241 36.471 63.872 36.393 63.548 36.237C63.23 36.081 62.981 35.862 62.801 35.58C62.621 35.292 62.531 34.959 62.531 34.581C62.531 34.197 62.624 33.858 62.81 33.564C62.996 33.27 63.251 33.045 63.575 32.889C63.905 32.727 64.274 32.646 64.682 32.646ZM64.754 35.922C65.072 35.922 65.351 35.862 65.591 35.742C65.837 35.622 66.029 35.457 66.167 35.247C66.305 35.037 66.374 34.803 66.374 34.545C66.374 34.305 66.308 34.083 66.176 33.879C66.05 33.675 65.861 33.51 65.609 33.384C65.357 33.258 65.057 33.195 64.709 33.195C64.253 33.195 63.881 33.321 63.593 33.573C63.311 33.819 63.17 34.149 63.17 34.563C63.17 34.977 63.311 35.307 63.593 35.553C63.881 35.799 64.268 35.922 64.754 35.922Z" fill="#927C22"/>
<circle cx="73" cy="35" r="1.75" stroke="#E2C022" stroke-width="0.5"/>
<circle cx="72.5" cy="16.5" r="2.25" stroke="#E2C022" stroke-width="0.5"/>
<path d="M43.0192 26.95C41.6058 21.2694 35.5683 17 28.3333 17C23.4417 17 19.11 18.9604 16.3717 21.9799C15.9292 21.9028 15.47 21.8611 15 21.8611C12.1733 21.8611 9.7625 23.3299 8.79333 25.4C3.84083 25.8972 0 29.4056 0 33.6667C0 38.2687 4.4775 42 10 42H40.8333C45.8958 42 50 38.5799 50 34.3611C50 30.7715 47.0242 27.7681 43.0192 26.95Z" fill="#EDEFF1"/>
</svg>
