<svg width="356" height="166" viewBox="0 0 356 166" fill="none" xmlns="http://www.w3.org/2000/svg">
<circle cx="126" cy="83" r="83" fill="#A2792C"/>
<circle cx="126" cy="83" r="68" fill="white"/>
<path fill-rule="evenodd" clip-rule="evenodd" d="M104.478 40.2858C105.235 40.7154 106.108 40.8715 106.96 40.7295C108.256 40.3001 108.16 40.7295 109.801 40.7295C111.015 40.7295 112.904 39.3841 112.78 43.5919L113.249 43.7207H113.387L112.325 45.5097C112.545 45.6385 112.201 45.6528 112.6 45.5097L112.987 45.3094C112.89 46.6548 113.58 45.1663 112.987 46.3685C113.559 46.1466 114.044 45.7338 114.366 45.1949C114.731 44.7163 115.036 44.1922 115.276 43.6348C116.655 38.4681 115.276 40.2142 113.524 38.7973C113.849 38.5694 114.226 38.4372 114.617 38.4145C115.008 38.3918 115.398 38.4796 115.745 38.6685C115.745 38.1103 115.593 38.2105 115.083 37.9386C114.573 37.6666 114.655 37.5808 114.173 37.2516C113.414 36.7221 112.394 37.2516 111.414 37.0656C110.173 35.4483 110.932 35.4197 111.097 34.747C109.801 33.7881 107.112 34.475 105.443 34.6181C103.388 34.8042 101.458 34.2031 99.9268 34.3319L100.782 34.6038C100.382 34.89 100.092 34.6897 100.782 34.8185C100.782 34.8185 100.465 35.2622 100.354 35.0475L105.953 34.9616C105.997 35.3032 106.076 35.6391 106.188 35.9635C106.56 36.9081 106.988 36.9081 107.222 37.5664C107.457 38.2248 107.222 38.1819 107.608 38.5254C107.608 38.5254 107.525 38.5254 107.512 38.6113C107.164 39.0709 106.679 39.3979 106.133 39.5415C105.415 39.656 104.602 39.7419 103.871 39.7992L104.133 39.9709C104.464 40.2142 104.243 39.9853 104.478 40.2858Z" fill="url(#paint0_linear)"/>
<path fill-rule="evenodd" clip-rule="evenodd" d="M151.382 53.71C148.114 54.0106 147.659 53.4524 146.514 55.6278C145.577 57.3732 145.132 59.3573 145.231 61.3527L145.645 60.5799C145.838 61.1667 145.645 60.9234 145.99 61.1524C146.431 58.4617 146.238 58.9483 148.072 57.3883L148.624 56.8158C149.341 55.957 149.148 56.1717 148.927 55.6565C149.196 55.7139 149.473 55.7139 149.741 55.6565H149.865L150.21 55.4847C150.705 55.3714 151.218 55.3714 151.713 55.4847C151.892 54.8264 151.341 55.7423 151.961 54.8263C153.097 55.8704 154.583 56.41 156.099 56.3291C156.437 56.2749 156.783 56.3065 157.107 56.4212C157.431 56.5358 157.724 56.7301 157.96 56.9875C158.967 56.6154 157.684 56.687 158.484 56.5868H158.801C158.539 56.3006 158.36 56.2433 158.208 55.8425C158.057 55.4418 158.539 56.0858 158.112 55.6278C158.112 55.6278 156.94 54.6403 156.898 54.6117C157.919 53.1805 156.526 54.5115 158.277 53.1805L159.16 52.5936C160.98 52.336 159.657 51.7493 160.36 51.5775C161.298 51.4344 161.435 51.692 162.456 51.7636C163.22 51.7037 163.979 51.5986 164.731 51.4487C166.207 51.3771 167.49 52.0641 169.227 51.9926C169.02 51.1768 168.814 51.9925 169.117 51.692C169.42 51.3914 169.227 51.692 169.227 51.692L158.898 50.1749C156.788 50.089 157.326 51.1338 155.037 52.2502C154.318 52.6292 153.503 52.7644 152.706 52.6366C151.12 52.4363 151.727 53.1519 151.382 53.71Z" fill="url(#paint1_linear)"/>
<path fill-rule="evenodd" clip-rule="evenodd" d="M136.377 48.4567C137.741 48.4567 139.074 48.037 140.208 47.2507C141.342 46.4644 142.225 45.3468 142.747 44.0392C143.269 42.7316 143.406 41.2927 143.14 39.9046C142.874 38.5164 142.217 37.2413 141.253 36.2405C140.288 35.2397 139.06 34.5582 137.722 34.2821C136.384 34.0059 134.998 34.1476 133.738 34.6892C132.478 35.2308 131.401 36.1481 130.644 37.3249C129.886 38.5017 129.481 39.8852 129.481 41.3006C129.481 43.1985 130.208 45.0188 131.501 46.3608C132.794 47.7028 134.548 48.4567 136.377 48.4567Z" fill="url(#paint2_linear)"/>
<path fill-rule="evenodd" clip-rule="evenodd" d="M138.61 33.8302C138.483 33.0745 138.599 32.2964 138.94 31.6161C139.282 30.9358 139.83 30.391 140.499 30.0661C141.046 29.587 141.468 28.9727 141.726 28.2798C141.984 27.587 142.069 26.8378 141.975 26.1016C141.711 26.9292 141.288 27.6924 140.731 28.3445C140.174 28.9966 139.494 29.5239 138.734 29.8943C138.096 30.2742 137.57 30.8289 137.215 31.4978C136.86 32.1667 136.689 32.9241 136.721 33.6871L138.61 33.8302Z" fill="url(#paint3_linear)"/>
<path fill-rule="evenodd" clip-rule="evenodd" d="M140.432 34.6175C140.5 33.8575 140.806 33.1417 141.305 32.5804C141.803 32.0192 142.466 31.6436 143.19 31.5118C143.838 31.1923 144.399 30.7091 144.821 30.1065C145.242 29.5039 145.511 28.8011 145.603 28.0625C145.141 28.8099 144.535 29.45 143.823 29.9426C143.111 30.4352 142.309 30.7696 141.466 30.9249C140.756 31.1201 140.111 31.5145 139.603 32.0649C139.094 32.6153 138.742 33.3005 138.584 34.0451L140.432 34.6175Z" fill="url(#paint4_linear)"/>
<path fill-rule="evenodd" clip-rule="evenodd" d="M141.962 35.9338C142.219 35.2171 142.695 34.6077 143.318 34.1992C143.941 33.7907 144.675 33.6057 145.409 33.6725C146.114 33.5402 146.776 33.2257 147.333 32.7579C147.889 32.2901 148.324 31.6841 148.595 30.9961C147.97 31.579 147.236 32.022 146.439 32.2978C145.642 32.5735 144.798 32.6761 143.961 32.5991C143.227 32.5999 142.507 32.8098 141.879 33.206C141.252 33.6022 140.741 34.1695 140.403 34.8461L141.962 35.9338Z" fill="url(#paint5_linear)"/>
<path fill-rule="evenodd" clip-rule="evenodd" d="M143.121 37.6241C143.546 36.9999 144.157 36.5383 144.86 36.3106C145.563 36.083 146.319 36.102 147.01 36.3646C147.725 36.4245 148.443 36.2973 149.098 35.9948C149.753 35.6922 150.325 35.224 150.761 34.6328C150.011 35.0275 149.19 35.2578 148.35 35.3096C147.51 35.3613 146.669 35.2333 145.879 34.9334C145.169 34.7367 144.421 34.7461 143.715 34.9607C143.01 35.1752 142.375 35.5865 141.88 36.1499L143.121 37.6241Z" fill="url(#paint6_linear)"/>
<path fill-rule="evenodd" clip-rule="evenodd" d="M143.823 39.5552C144.388 39.0648 145.092 38.7809 145.827 38.7473C146.562 38.7137 147.288 38.9322 147.892 39.3691C148.566 39.6224 149.291 39.6949 150 39.5798C150.709 39.4647 151.378 39.1658 151.946 38.7107C151.124 38.8886 150.275 38.8902 149.452 38.7155C148.629 38.5408 147.85 38.1934 147.161 37.6946C146.529 37.3175 145.809 37.1263 145.081 37.1415C144.352 37.1566 143.64 37.3775 143.023 37.7805L143.823 39.5552Z" fill="url(#paint7_linear)"/>
<path fill-rule="evenodd" clip-rule="evenodd" d="M144.016 41.631C144.683 41.3079 145.434 41.2226 146.152 41.3883C146.87 41.5539 147.516 41.9613 147.988 42.547C148.584 42.9804 149.277 43.2485 150.001 43.3261C150.725 43.4038 151.456 43.2884 152.125 42.9907C151.286 42.9444 150.465 42.7198 149.713 42.3308C148.961 41.9418 148.294 41.3968 147.754 40.7293C147.236 40.1893 146.585 39.8075 145.873 39.6258C145.16 39.444 144.413 39.4693 143.713 39.6988L144.016 41.631Z" fill="url(#paint8_linear)"/>
<path fill-rule="evenodd" clip-rule="evenodd" d="M143.686 43.663C144.412 43.5344 145.158 43.6566 145.811 44.0108C146.464 44.365 146.986 44.9316 147.299 45.6238C147.762 46.1894 148.354 46.6258 149.021 46.8933C149.688 47.1607 150.409 47.2508 151.119 47.1552C150.326 46.8884 149.594 46.4579 148.966 45.8897C148.338 45.3216 147.827 44.6274 147.464 43.8491C147.1 43.1877 146.568 42.6429 145.926 42.2744C145.284 41.9058 144.557 41.7276 143.823 41.7595L143.686 43.663Z" fill="url(#paint9_linear)"/>
<path fill-rule="evenodd" clip-rule="evenodd" d="M142.859 45.5526C143.593 45.6222 144.285 45.9399 144.828 46.457C145.371 46.9742 145.736 47.6621 145.866 48.4151C146.171 49.0867 146.635 49.668 147.213 50.1056C147.791 50.5432 148.466 50.8231 149.176 50.9197C148.464 50.4375 147.858 49.8065 147.395 49.0672C146.932 48.3279 146.622 47.4965 146.486 46.6261C146.294 45.8912 145.913 45.2244 145.383 44.6974C144.853 44.1705 144.196 43.8031 143.48 43.6348L142.859 45.5526Z" fill="url(#paint10_linear)"/>
<path fill-rule="evenodd" clip-rule="evenodd" d="M141.59 47.1407C142.283 47.4048 142.873 47.8983 143.269 48.5449C143.666 49.1915 143.846 49.9553 143.783 50.7188C143.909 51.4489 144.21 52.1344 144.658 52.7121C145.106 53.2899 145.687 53.7413 146.348 54.0249C145.789 53.3744 145.364 52.6124 145.098 51.7856C144.832 50.9587 144.732 50.0845 144.803 49.216C144.807 48.4547 144.608 47.7071 144.228 47.0556C143.849 46.404 143.303 45.8738 142.652 45.5234L141.59 47.1407Z" fill="url(#paint11_linear)"/>
<path fill-rule="evenodd" clip-rule="evenodd" d="M139.962 48.3435C140.588 48.7771 141.056 49.416 141.291 50.158C141.526 50.9 141.514 51.7024 141.258 52.4368C141.196 53.1778 141.316 53.923 141.605 54.6034C141.894 55.2839 142.344 55.8776 142.913 56.3297C142.537 55.552 142.317 54.7032 142.268 53.8346C142.218 52.966 142.339 52.096 142.624 51.2775C142.813 50.5418 142.806 49.7663 142.601 49.0348C142.397 48.3033 142.004 47.6436 141.465 47.127L139.962 48.3435Z" fill="url(#paint12_linear)"/>
<path fill-rule="evenodd" clip-rule="evenodd" d="M138.1 49.073C138.588 49.666 138.869 50.4116 138.899 51.1902C138.929 51.9688 138.706 52.7352 138.266 53.3667C138.026 54.0684 137.96 54.8212 138.073 55.5563C138.187 56.2914 138.476 56.9853 138.914 57.5745C138.739 56.7214 138.735 55.8397 138.903 54.9851C139.072 54.1304 139.409 53.3211 139.893 52.6081C140.253 51.9504 140.434 51.2036 140.417 50.4474C140.4 49.6912 140.186 48.9541 139.797 48.3145L138.1 49.073Z" fill="url(#paint13_linear)"/>
<path fill-rule="evenodd" clip-rule="evenodd" d="M136.116 49.2732C136.423 49.9682 136.504 50.7485 136.344 51.4953C136.185 52.242 135.795 52.9142 135.233 53.4094C134.81 54.0251 134.547 54.7439 134.469 55.4962C134.392 56.2484 134.503 57.0085 134.792 57.7031C134.841 56.8318 135.06 55.98 135.437 55.1998C135.814 54.4197 136.341 53.7277 136.985 53.1661C137.502 52.6272 137.868 51.9518 138.043 51.2128C138.218 50.4738 138.196 49.6992 137.977 48.9727L136.116 49.2732Z" fill="url(#paint14_linear)"/>
<path fill-rule="evenodd" clip-rule="evenodd" d="M134.142 48.9297C134.268 49.6834 134.151 50.4593 133.81 51.1371C133.468 51.815 132.921 52.3571 132.252 52.6795C131.707 53.1623 131.287 53.7797 131.031 54.475C130.776 55.1703 130.693 55.9211 130.791 56.6583C131.05 55.8284 131.471 55.063 132.029 54.4103C132.587 53.7576 133.268 53.2317 134.031 52.8656C134.665 52.4814 135.186 51.9255 135.539 51.2573C135.891 50.5891 136.061 49.8339 136.031 49.0729L134.142 48.9297Z" fill="url(#paint15_linear)"/>
<path fill-rule="evenodd" clip-rule="evenodd" d="M132.337 48.1426C132.267 48.9036 131.96 49.6202 131.462 50.1835C130.965 50.7467 130.303 51.1256 129.578 51.2626C128.93 51.5776 128.368 52.0577 127.946 52.6582C127.524 53.2588 127.256 53.9603 127.165 54.6976C127.632 53.9618 128.241 53.3341 128.953 52.8538C129.665 52.3736 130.465 52.0511 131.302 51.9067C132.012 51.7116 132.657 51.3172 133.166 50.7668C133.674 50.2164 134.027 49.5313 134.185 48.7866L132.337 48.1426Z" fill="url(#paint16_linear)"/>
<path fill-rule="evenodd" clip-rule="evenodd" d="M130.793 46.7109C130.539 47.4277 130.065 48.0384 129.445 48.4494C128.825 48.8604 128.092 49.0492 127.359 48.9866C126.652 49.1179 125.988 49.4319 125.429 49.8997C124.87 50.3674 124.433 50.9739 124.159 51.663C124.784 51.0801 125.518 50.637 126.315 50.3612C127.113 50.0855 127.956 49.983 128.793 50.06C129.529 50.0587 130.251 49.8486 130.88 49.4526C131.51 49.0566 132.023 48.4897 132.365 47.813L130.793 46.7109Z" fill="url(#paint17_linear)"/>
<path fill-rule="evenodd" clip-rule="evenodd" d="M129.632 45.0801C129.207 45.7043 128.596 46.1659 127.893 46.3935C127.19 46.6212 126.434 46.6022 125.743 46.3396C125.015 46.2817 124.285 46.4169 123.622 46.7324C122.958 47.0479 122.383 47.5332 121.95 48.1429C122.701 47.7482 123.521 47.5179 124.361 47.4662C125.201 47.4145 126.042 47.5425 126.832 47.8423C127.542 48.039 128.291 48.0296 128.996 47.8151C129.701 47.6005 130.336 47.1892 130.831 46.6258L129.632 45.0801Z" fill="url(#paint18_linear)"/>
<path fill-rule="evenodd" clip-rule="evenodd" d="M128.931 43.1325C128.367 43.6228 127.663 43.9067 126.928 43.9403C126.192 43.974 125.467 43.7555 124.863 43.3185C124.188 43.0652 123.463 42.9928 122.754 43.1078C122.046 43.2229 121.376 43.5219 120.809 43.9769C121.631 43.799 122.479 43.7974 123.302 43.9721C124.125 44.1469 124.905 44.4943 125.594 44.9931C126.228 45.3665 126.947 45.5544 127.676 45.5368C128.405 45.5191 129.115 45.2965 129.731 44.8929L128.931 43.1325Z" fill="url(#paint19_linear)"/>
<path fill-rule="evenodd" clip-rule="evenodd" d="M128.736 41.0732C128.069 41.3963 127.318 41.4817 126.6 41.316C125.882 41.1504 125.236 40.743 124.764 40.1572C124.168 39.7241 123.476 39.4549 122.752 39.3748C122.029 39.2947 121.298 39.4063 120.627 39.6992C121.467 39.7498 122.287 39.9778 123.039 40.3691C123.791 40.7604 124.458 41.3068 124.999 41.9749C125.52 42.5134 126.173 42.894 126.888 43.0756C127.602 43.2572 128.351 43.2329 129.053 43.0054L128.736 41.0732Z" fill="url(#paint20_linear)"/>
<path fill-rule="evenodd" clip-rule="evenodd" d="M129.068 39.0397C128.342 39.1683 127.595 39.0462 126.943 38.692C126.29 38.3378 125.767 37.7711 125.455 37.079C124.994 36.5103 124.402 36.0717 123.734 35.8039C123.066 35.5362 122.344 35.448 121.635 35.5476C122.434 35.8179 123.17 36.256 123.799 36.8346C124.428 37.4133 124.935 38.12 125.289 38.9109C125.657 39.5708 126.192 40.1133 126.837 40.4793C127.481 40.8452 128.21 41.0205 128.944 40.9862L129.068 39.0397Z" fill="url(#paint21_linear)"/>
<path fill-rule="evenodd" clip-rule="evenodd" d="M129.896 37.1503C129.163 37.0824 128.472 36.7649 127.931 36.2472C127.39 35.7295 127.028 35.0407 126.904 34.2878C126.596 33.6151 126.13 33.0334 125.55 32.5958C124.969 32.1582 124.292 31.8788 123.58 31.7832C124.284 32.2576 124.886 32.8773 125.348 33.6037C125.811 34.3301 126.124 35.1476 126.269 36.0053C126.462 36.7439 126.845 37.4141 127.377 37.9436C127.909 38.4732 128.57 38.8422 129.289 39.0109L129.896 37.1503Z" fill="url(#paint22_linear)"/>
<path fill-rule="evenodd" clip-rule="evenodd" d="M131.163 35.5482C130.472 35.2864 129.884 34.795 129.49 34.1506C129.096 33.5061 128.918 32.7447 128.984 31.9845C128.854 31.2522 128.55 30.5651 128.1 29.9853C127.65 29.4056 127.067 28.9515 126.405 28.6641C126.964 29.3146 127.389 30.0766 127.655 30.9034C127.92 31.7302 128.021 32.6045 127.95 33.473C127.95 34.2354 128.15 34.9835 128.529 35.6367C128.908 36.2898 129.452 36.8233 130.101 37.1799L131.163 35.5482Z" fill="url(#paint23_linear)"/>
<path fill-rule="evenodd" clip-rule="evenodd" d="M132.79 34.345C132.187 33.906 131.739 33.2727 131.517 32.543C131.295 31.8133 131.311 31.0281 131.563 30.3089C131.625 29.5679 131.506 28.8228 131.216 28.1423C130.927 27.4619 130.477 26.8681 129.908 26.416C130.289 27.1948 130.511 28.0465 130.56 28.918C130.61 29.7896 130.487 30.6625 130.198 31.4825C130.008 32.2182 130.016 32.9938 130.22 33.7253C130.424 34.4568 130.817 35.1165 131.356 35.6331L132.79 34.345Z" fill="url(#paint24_linear)"/>
<path fill-rule="evenodd" clip-rule="evenodd" d="M134.654 33.6297C134.169 33.0356 133.889 32.2904 133.86 31.5124C133.83 30.7345 134.051 29.9685 134.488 29.3361C134.729 28.6377 134.797 27.8881 134.686 27.1555C134.575 26.4229 134.289 25.7309 133.854 25.1426C134.026 25.9936 134.028 26.8722 133.859 27.724C133.691 28.5758 133.356 29.3827 132.875 30.0946C132.515 30.7516 132.332 31.4974 132.347 32.2533C132.361 33.0091 132.572 33.7468 132.958 34.3883L134.654 33.6297Z" fill="url(#paint25_linear)"/>
<path fill-rule="evenodd" clip-rule="evenodd" d="M136.639 33.4298C136.333 32.7334 136.255 31.9521 136.417 31.2053C136.579 30.4584 136.972 29.7871 137.536 29.2937C137.956 28.6761 138.216 27.9568 138.29 27.2048C138.365 26.4529 138.253 25.6937 137.963 25C137.915 25.8744 137.693 26.7289 137.311 27.5098C136.929 28.2907 136.395 28.9809 135.743 29.537C135.223 30.0772 134.855 30.7551 134.68 31.4969C134.505 32.2388 134.529 33.0162 134.75 33.7448L136.639 33.4298Z" fill="url(#paint26_linear)"/>
<path fill-rule="evenodd" clip-rule="evenodd" d="M129.206 103.331C129.142 103.339 129.077 103.339 129.013 103.331C128.875 103.602 128.503 103.602 128.213 103.559H127.827C127.745 103.564 127.664 103.588 127.593 103.631C127.896 103.631 128.338 104.289 127.924 104.289C127.828 104.306 127.73 104.306 127.634 104.289C127.731 104.418 127.841 104.518 127.634 104.647C127.349 104.54 127.037 104.54 126.752 104.647C126.628 104.647 126.434 104.776 126.407 104.933H126.517C126.517 105.162 126.062 105.42 126.352 106.365C126.366 106.426 126.366 106.49 126.352 106.551C126.129 106.633 125.946 106.803 125.841 107.023L125.69 107.367C125.593 107.596 125.552 107.553 125.483 107.667C125.717 107.667 125.579 108.011 125.483 108.097C125.429 108.167 125.383 108.244 125.345 108.325C125.221 108.597 125.345 109.055 125.248 109.356C125.152 109.657 125.152 109.556 125.138 109.614C125.4 109.456 125.441 109.614 125.441 109.943C125.424 110.104 125.424 110.268 125.441 110.429L125.097 110.53C124.236 110.709 123.351 110.709 122.49 110.53L121.649 110.401C121.18 110.401 120.739 110.243 120.27 110.186H119.691H119.387C118.998 110.142 118.605 110.142 118.215 110.186H117.843C117.669 110.217 117.498 110.265 117.333 110.329C117.167 110.376 117.005 110.438 116.85 110.515C116.699 110.578 116.552 110.65 116.409 110.73L115.374 111.474L115.25 111.574L114.478 112.362C114.312 112.533 114.023 112.891 113.857 113.063C113.692 113.235 113.375 113.621 113.126 113.879L112.906 114.108C112.679 114.333 112.44 114.543 112.189 114.737C111.98 114.903 111.753 115.042 111.513 115.152C111.241 115.266 110.959 115.353 110.672 115.41C110.458 115.476 110.232 115.486 110.014 115.441C109.795 115.397 109.59 115.297 109.417 115.152C109.003 114.68 109.306 113.993 109.651 113.592L109.761 113.478C109.96 113.275 110.188 113.106 110.437 112.977H110.589C111.209 112.676 111.127 112.762 111.789 112.977C112.029 113.07 112.293 113.07 112.533 112.977H112.685L112.809 112.862C112.885 112.776 112.949 112.679 113.002 112.576C113.094 112.44 113.206 112.319 113.333 112.218C113.381 112.188 113.423 112.149 113.457 112.104H113.347H113.209C113.209 112.104 113.209 112.104 113.209 111.975C113.209 111.846 113.402 111.732 113.485 111.603L113.333 111.675C112.795 111.875 112.271 111.259 111.499 111.818C111.154 112.061 111.14 112.419 110.865 112.49C110.54 112.578 110.225 112.703 109.927 112.862C109.559 113.046 109.227 113.298 108.948 113.607L108.768 113.85C108.713 113.942 108.662 114.038 108.617 114.136C108.508 114.348 108.446 114.583 108.438 114.823V115.052C108.449 115.263 108.506 115.468 108.603 115.653C108.771 115.922 109.003 116.142 109.275 116.292C109.548 116.442 109.853 116.518 110.161 116.512C110.578 116.524 110.993 116.461 111.389 116.326L111.692 116.226C112.007 116.105 112.316 115.966 112.616 115.811L112.754 115.739C113.086 115.563 113.409 115.367 113.719 115.152C113.981 114.952 114.257 114.766 114.505 114.566C114.754 114.365 114.574 114.566 114.643 114.566C114.592 114.742 114.528 114.915 114.45 115.081C114.273 115.577 114.144 116.09 114.064 116.612C114.057 116.688 114.057 116.765 114.064 116.841C114.087 117.382 114.055 117.925 113.968 118.459L113.871 118.673C113.756 118.881 113.655 119.096 113.568 119.317C113.485 119.546 113.485 119.847 113.388 120.105C113.333 120.246 113.237 120.366 113.113 120.448C113.01 120.503 112.922 120.582 112.855 120.679C112.788 120.776 112.744 120.888 112.726 121.006C112.658 121.639 112.543 122.266 112.382 122.881C112.382 122.967 112.382 123.024 112.299 123.124C112.232 123.498 112.186 123.876 112.161 124.255C112.142 124.699 112.044 125.136 111.871 125.543C111.678 125.944 111.871 125.987 111.982 126.359C112.092 126.731 111.982 126.774 112.092 126.96C112.189 127.375 112.699 127.762 113.099 127.518C113.181 127.518 113.195 127.389 113.306 127.389C113.637 127.389 113.802 127.461 113.995 127.261C114.188 127.06 114.299 127.146 114.409 127.032C114.519 126.917 114.409 126.731 114.409 126.602C114.188 125.93 113.843 126.287 113.444 125.944C113.044 125.6 113.25 125.3 113.347 124.942C113.444 124.584 113.719 124.012 113.816 123.64C113.912 123.267 113.926 123.124 114.009 122.767C114.016 122.675 114.044 122.586 114.092 122.509C114.253 122.306 114.462 122.148 114.698 122.051L115.14 121.793C115.416 121.614 115.679 121.413 115.926 121.192L116.009 121.121C116.169 120.988 116.317 120.839 116.45 120.677L116.533 120.577C116.841 120.121 117.117 119.642 117.36 119.146C117.581 118.831 117.774 118.573 117.884 119.06C117.973 119.486 117.934 119.93 117.774 120.333C117.634 120.682 117.448 121.01 117.222 121.307L117.126 121.436C116.905 121.779 116.533 121.979 116.85 122.466L116.946 122.595C117.168 122.862 117.367 123.149 117.539 123.454C117.808 123.909 118.039 124.388 118.229 124.885L118.408 125.429C118.519 125.829 118.794 125.686 118.891 125.901C119 126.1 119.166 126.258 119.367 126.353C119.567 126.448 119.792 126.475 120.008 126.43C120.081 126.424 120.155 126.424 120.229 126.43C120.449 126.43 120.766 126.545 120.959 126.43C121.153 126.316 121.249 126.43 121.415 126.287C121.58 126.144 121.497 125.901 121.415 125.786C121.139 125.328 121.166 125.414 120.794 125.414C120.542 125.426 120.291 125.365 120.07 125.239C119.849 125.113 119.665 124.926 119.539 124.699L119.47 124.598L119.36 124.398C119.284 124.261 119.22 124.117 119.167 123.969C119.043 123.683 118.946 123.353 118.836 123.053C118.758 122.905 118.702 122.746 118.67 122.581C118.67 122.38 118.877 122.251 118.987 122.137L119.36 121.765L119.553 121.579C119.729 121.398 119.895 121.207 120.049 121.006C120.28 120.718 120.475 120.401 120.629 120.062C120.707 119.876 120.772 119.685 120.822 119.489C120.822 119.332 120.891 119.002 121.097 119.002C121.199 119.007 121.298 119.036 121.387 119.088L121.649 119.189C122.058 119.322 122.478 119.413 122.904 119.46H123.607C123.612 119.679 123.674 119.891 123.787 120.076C123.884 120.239 123.99 120.397 124.104 120.548C124.195 120.663 124.273 120.788 124.338 120.92C124.468 121.165 124.525 121.444 124.504 121.722L124.807 121.55C124.973 121.664 124.917 121.679 125.152 121.736C125.218 121.742 125.282 121.764 125.339 121.798C125.396 121.833 125.445 121.88 125.483 121.936C125.57 122.029 125.667 122.111 125.772 122.18C125.979 122.337 126.228 122.452 126.434 122.595L126.586 122.709L126.889 122.953C127.031 123.089 127.136 123.262 127.193 123.454L127.096 123.582C127.077 123.635 127.049 123.683 127.014 123.725C126.931 123.811 126.765 123.725 126.628 123.725C126.49 123.725 126.241 123.84 126.076 123.725C125.978 123.688 125.873 123.674 125.77 123.684C125.666 123.695 125.566 123.73 125.477 123.786C125.388 123.843 125.312 123.919 125.256 124.011C125.2 124.102 125.164 124.205 125.152 124.312C125.152 124.899 125.566 124.885 125.897 124.942C126.228 124.999 126.269 125.3 126.821 125.3C127.372 125.3 127.427 125.128 127.772 125.128C128.082 125.13 128.383 125.024 128.627 124.828C129 124.556 129.041 124.198 129.11 124.155C129.179 124.112 129.33 124.341 129.372 124.441L129.551 124.856C129.661 125.142 129.772 125.4 129.868 125.701L129.992 126.144C130.172 126.574 130.503 126.631 130.668 127.06V127.16C130.759 127.285 130.879 127.384 131.016 127.449C131.153 127.514 131.304 127.543 131.454 127.532H131.73C131.89 127.519 132.047 127.485 132.199 127.432C132.433 127.346 132.751 127.575 133.095 127.318C133.219 127.218 133.247 127.032 133.357 127.032C133.468 127.032 133.482 127.032 133.55 127.032C133.579 127.01 133.602 126.982 133.619 126.95C133.636 126.918 133.645 126.882 133.647 126.846C133.647 126.659 133.302 126.345 133.151 126.216C133.119 126.175 133.079 126.141 133.034 126.116C132.989 126.091 132.939 126.077 132.888 126.073C132.502 126.073 132.102 126.273 131.799 126.073C131.539 125.949 131.323 125.746 131.18 125.489C131.036 125.233 130.973 124.937 130.999 124.641C130.999 124.484 130.999 124.37 130.999 124.198C130.99 123.663 130.925 123.13 130.806 122.609L130.544 121.521C130.565 121.409 130.607 121.302 130.668 121.206C130.87 120.803 131.036 120.382 131.165 119.947C131.165 119.718 131.303 119.503 131.344 119.26L131.496 118.315C131.489 118.244 131.489 118.172 131.496 118.101C131.554 117.885 131.647 117.682 131.771 117.5C132.047 116.97 131.923 116.541 132.061 116.469H132.199H132.351C132.366 116.51 132.39 116.547 132.421 116.577C132.452 116.607 132.489 116.628 132.53 116.641C132.514 116.524 132.524 116.405 132.56 116.294C132.596 116.182 132.656 116.08 132.737 115.997C132.991 115.763 133.17 115.453 133.247 115.109C133.247 114.981 133.247 115.024 133.371 114.981L133.523 114.895L133.675 114.78C133.95 114.537 134.163 114.228 134.295 113.879C134.295 113.778 134.295 113.879 134.405 113.75C134.639 113.533 134.795 113.24 134.847 112.92C134.883 112.774 134.906 112.626 134.916 112.476C134.916 112.319 134.916 112.161 134.985 112.018C135.054 111.875 135.067 111.603 135.288 111.56C135.356 111.546 135.427 111.546 135.495 111.56C135.495 111.26 134.916 111.274 134.916 110.959C134.916 110.644 135.012 110.544 135.026 110.444C135.161 109.814 135.113 109.156 134.888 108.555C134.738 108.28 134.622 107.986 134.543 107.681C134.543 107.61 134.543 107.553 134.64 107.495C133.881 107.495 134.323 107.138 133.95 106.064C133.866 105.812 133.734 105.581 133.561 105.384C133.388 105.187 133.178 105.029 132.944 104.919L132.585 104.762C132.433 104.676 132.144 104.533 132.102 104.347C132.061 104.161 132.102 104.347 131.992 104.433C131.961 104.442 131.927 104.442 131.896 104.433C131.702 104.433 131.578 104.246 131.482 104.103L131.192 103.645C131.097 103.494 130.976 103.363 130.834 103.259C130.764 103.194 130.678 103.149 130.585 103.13C130.585 103.316 130.585 103.259 130.585 103.373C130.585 103.488 130.241 103.102 129.91 103.102H129.648C129.648 103.159 129.441 103.331 129.206 103.331Z" fill="#BC992E"/>
<path fill-rule="evenodd" clip-rule="evenodd" d="M123 117.773C123.262 117.916 123.386 117.486 123.524 117.615C123.662 117.744 123.235 117.987 123.814 117.987C123.731 117.987 123.29 118.13 123.317 117.787C123.184 117.832 123.044 117.857 122.904 117.858C122.711 117.858 122.711 117.73 122.738 117.558C122.416 117.657 122.081 117.706 121.745 117.701C121.345 117.701 121.359 117.257 121.125 117.157C120.89 117.057 120.546 117.429 120.518 117.715C120.518 117.87 120.559 118.021 120.637 118.153C120.715 118.284 120.826 118.39 120.959 118.46C121.451 118.82 122.018 119.056 122.614 119.147C122.922 119.194 123.236 119.163 123.529 119.056C123.822 118.949 124.086 118.769 124.297 118.531C125.676 116.928 123.979 113.694 125.676 111.604C125.775 111.507 125.868 111.401 125.951 111.289C125.962 111.251 125.96 111.21 125.945 111.174C125.93 111.137 125.903 111.107 125.869 111.089C125.783 111.067 125.693 111.067 125.607 111.089C125.607 111.017 125.689 111.017 125.689 110.917C125.696 110.822 125.696 110.726 125.689 110.631C125.314 110.731 124.931 110.803 124.545 110.845C123.721 110.875 122.897 110.803 122.09 110.631C121.701 110.536 121.304 110.478 120.904 110.459C119.401 110.459 118.753 112.549 120.573 113.407C120.849 113.536 121.318 113.708 121.332 114.023C121.345 114.338 120.559 114.839 120.256 115.01C120.105 115.086 119.962 115.177 119.828 115.282C119.663 115.425 119.332 115.898 119.58 116.227C119.828 116.556 120.959 116.37 121.359 117.186C121.47 117.386 121.469 117.486 121.635 117.601C121.8 117.715 122.421 117.601 122.738 117.486C123.055 117.372 122.959 117.587 123 117.773Z" fill="#BC992E"/>
<path fill-rule="evenodd" clip-rule="evenodd" d="M124.958 120.592C124.813 120.409 124.693 120.207 124.599 119.991C124.525 119.882 124.485 119.752 124.485 119.619C124.485 119.486 124.525 119.356 124.599 119.247C124.709 119.118 125.054 118.875 125.178 119.247C125.207 119.521 125.267 119.79 125.357 120.048C125.547 120.472 125.798 120.863 126.102 121.208L126.323 121.451C126.612 121.809 127.136 122.338 127.454 122.71L127.895 123.226C128.129 123.512 127.702 123.512 127.592 123.727C127.481 123.941 127.288 124.099 127.012 124.027C126.737 123.956 126.695 124.242 126.268 124.027C126.215 123.99 126.152 123.97 126.088 123.97C126.024 123.97 125.962 123.99 125.909 124.027C125.807 124.084 125.718 124.162 125.647 124.256C125.606 124.302 125.575 124.357 125.558 124.417C125.54 124.477 125.536 124.541 125.545 124.603C125.554 124.664 125.577 124.723 125.611 124.775C125.646 124.827 125.691 124.869 125.744 124.9C126.006 125.058 126.033 124.9 126.475 125.129C127.178 125.544 127.261 125.129 127.923 125.129C128.322 125.129 128.378 125.129 128.667 124.943C128.856 124.79 129.007 124.591 129.105 124.365C129.204 124.138 129.247 123.889 129.233 123.641C128.943 121.694 126.847 119.862 127.192 119.061C127.446 118.683 127.747 118.341 128.088 118.045C128.433 117.702 128.669 117.257 128.764 116.771C128.576 116.733 128.399 116.654 128.242 116.541C128.085 116.428 127.953 116.282 127.854 116.112C127.619 115.64 127.785 115.182 127.274 115.111C127.385 115.039 127.467 114.982 127.412 114.796C127.274 114.323 126.337 114.452 126.406 113.365C126.406 113.236 126.406 113.021 126.309 112.992C126.177 113.005 126.05 113.049 125.937 113.121C125.972 112.999 126 112.875 126.019 112.749C126.064 112.344 126.022 111.933 125.895 111.547C125.676 111.718 125.497 111.938 125.371 112.191C125.066 112.779 124.914 113.441 124.93 114.109C124.93 114.51 124.999 114.867 125.013 115.239C125.013 116.213 125.385 117.429 124.847 118.345C124.69 118.581 124.489 118.781 124.254 118.932H124.447L124.351 119.032C124.268 119.113 124.202 119.21 124.158 119.318C124.074 119.479 124.018 119.653 123.992 119.834C124.061 119.834 124.075 119.834 124.158 119.834C124.158 120.707 124.806 120.893 124.902 121.709C124.902 121.709 125.026 121.408 125.137 121.623C125.247 121.837 125.261 121.837 125.44 121.823C125.482 121.336 125.026 120.764 124.958 120.592Z" fill="#BC992E"/>
<path fill-rule="evenodd" clip-rule="evenodd" d="M111.208 112.777H111.125L111.222 112.705C111.056 112.705 110.491 112.877 110.353 112.949C109.953 113.09 109.595 113.335 109.312 113.661C109.03 113.986 108.833 114.382 108.74 114.809C108.715 115.106 108.78 115.403 108.926 115.66C109.072 115.916 109.291 116.119 109.553 116.24C110.187 116.47 110.877 116.47 111.511 116.24C112.226 115.96 112.879 115.532 113.428 114.981C113.911 114.509 114.421 113.793 114.89 113.249C114.969 113.132 115.067 113.03 115.18 112.949C115.511 112.806 115.497 113.493 115.442 113.736C115.221 114.637 114.642 115.024 114.407 116.212C114.284 116.729 114.284 117.269 114.407 117.786C114.407 117.972 114.49 118.072 114.628 118.144C114.773 118.211 114.931 118.246 115.09 118.246C115.249 118.246 115.407 118.211 115.552 118.144C116.173 117.815 116.145 116.97 116.159 116.398C116.159 114.838 116.752 113.049 118.393 112.82C118.793 112.82 119.083 112.82 119.207 112.476C119.331 112.133 119.276 111.045 120.255 110.616C120.365 110.616 120.641 110.53 120.71 110.487C119.895 110.322 119.057 110.322 118.241 110.487C116.902 110.736 115.686 111.453 114.794 112.519L112.794 114.652C112.563 114.88 112.309 115.082 112.035 115.253C111.41 115.695 110.647 115.879 109.898 115.768C109.126 115.639 109.002 114.766 109.512 114.008C109.908 113.391 110.514 112.951 111.208 112.777Z" fill="#927E2F"/>
<path fill-rule="evenodd" clip-rule="evenodd" d="M128.393 106.923C128.382 106.695 128.44 106.47 128.559 106.279C128.655 106.107 128.821 105.978 128.862 105.749C128.697 105.733 128.53 105.763 128.379 105.835C128.143 105.976 127.933 106.161 127.759 106.379C127.552 106.579 127.662 106.637 127.759 106.765C127.585 106.761 127.417 106.828 127.29 106.951C126.973 107.223 126.752 108.254 127.207 108.383L127.455 107.939C127.491 107.894 127.523 107.846 127.552 107.796C127.477 107.8 127.402 107.78 127.338 107.739C127.274 107.698 127.224 107.638 127.193 107.567C127.168 107.523 127.136 107.484 127.097 107.452C127.097 107.309 127.4 106.98 127.745 107.581C127.745 107.739 127.152 108.368 127.207 108.64C127.276 108.64 127.304 108.64 127.428 108.64H127.69C127.952 108.64 127.938 108.64 128.159 108.64C128.239 108.566 128.313 108.485 128.379 108.397L128.876 107.925C128.876 107.925 129.096 107.767 129.069 107.653C129.041 107.538 128.986 107.653 128.917 107.553C128.987 107.454 129.082 107.378 129.193 107.335C129.303 107.292 129.423 107.283 129.538 107.309C129.745 107.373 129.938 107.48 130.103 107.624C129.979 107.624 129.965 107.624 129.855 107.624C129.758 107.694 129.642 107.732 129.524 107.732C129.406 107.732 129.29 107.694 129.193 107.624L129.055 107.753C128.931 107.867 128.379 108.254 128.476 108.469C128.572 108.683 129.11 108.755 129.29 109.227C129.401 109.511 129.401 109.83 129.29 110.114C129.395 110.209 129.472 110.333 129.51 110.472C129.51 110.887 129.207 111.317 128.862 111.202C128.752 111.202 128.752 111.116 128.683 111.073C128.353 110.994 128.014 110.96 127.676 110.973C127.606 110.976 127.537 110.997 127.477 111.034C127.417 111.072 127.366 111.125 127.331 111.188C127.234 111.315 127.176 111.47 127.166 111.632C127.166 111.632 127.235 111.632 127.304 111.632C127.373 111.632 127.662 111.789 127.938 111.961C128.117 111.717 128.062 112.204 128.503 112.061C128.683 111.989 128.848 111.832 128.986 111.803C129.124 111.775 128.986 111.803 129.055 111.803C129.21 111.691 129.319 111.523 129.359 111.331C129.443 110.937 129.623 110.572 129.883 110.272C129.942 110.199 130.012 110.136 130.089 110.086C130.324 109.971 130.531 110.086 130.351 110.172H130.227C130.103 110.172 129.69 110.315 129.855 110.572C130.02 110.83 129.993 110.744 130.076 110.758C130.158 110.773 130.076 110.673 130.076 110.615C130.076 110.558 130.255 110.873 130.365 111.016C130.393 111.031 130.424 111.039 130.455 111.039C130.486 111.039 130.517 111.031 130.545 111.016C130.595 111.111 130.679 111.183 130.779 111.217C130.779 111.059 130.779 111.03 131 110.973C131.131 110.941 131.265 110.917 131.4 110.902C131.744 110.902 131.703 110.601 131.593 110.3C131.689 110.386 131.731 110.487 131.868 110.544C131.731 109.628 132.13 109.327 132.144 108.655C132.144 108.469 132.144 108.139 131.937 108.096C131.731 108.054 131.841 108.24 131.744 108.354C131.744 108.011 131.868 107.624 131.317 107.223L130.848 106.923C130.697 106.814 130.566 106.679 130.462 106.522C130.462 106.522 130.462 106.522 130.365 106.608C130.255 106.293 130.462 105.878 130.296 105.721C130.131 105.563 129.883 105.577 129.758 105.506C129.634 105.434 129.689 105.506 129.648 105.363C129.607 105.22 129.538 105.449 129.4 105.363C129.359 105.341 129.314 105.33 129.269 105.33C129.223 105.33 129.178 105.341 129.138 105.363C128.559 105.978 128.545 106.823 128.393 106.923Z" fill="#927E2F"/>
<path fill-rule="evenodd" clip-rule="evenodd" d="M113.442 127.046C113.552 127.218 113.704 127.419 113.993 127.218C114.283 127.018 114.104 126.775 113.993 126.546C114.186 126.617 114.186 126.975 114.338 127.032C114.49 127.089 114.338 126.531 114.228 126.431C114.117 126.331 114.118 126.302 113.952 126.274C113.787 126.245 113.718 126.188 113.593 126.274L113.249 125.758C113.152 125.615 113.249 125.587 113.249 125.415C113.4 124.184 113.042 123.798 113.621 122.681C113.745 122.486 113.829 122.267 113.869 122.037C113.869 121.636 113.704 121.064 113.676 120.463C113.676 120.463 113.524 120.835 113.483 120.921C113.093 121.652 112.779 122.425 112.545 123.225C112.545 124.002 112.429 124.775 112.201 125.515C112.132 125.687 112.035 125.787 112.118 126.016C112.189 126.168 112.249 126.326 112.297 126.488C112.29 126.672 112.328 126.854 112.407 127.018C112.473 127.165 112.567 127.296 112.683 127.404C112.76 127.447 112.845 127.469 112.931 127.469C113.018 127.469 113.103 127.447 113.18 127.404C113.233 127.383 113.282 127.351 113.322 127.309C113.363 127.267 113.394 127.217 113.414 127.161C113.418 127.122 113.427 127.083 113.442 127.046Z" fill="white"/>
<path fill-rule="evenodd" clip-rule="evenodd" d="M131.908 127.533C132.116 127.548 132.324 127.493 132.501 127.376C132.57 127.376 132.57 127.29 132.625 127.233C132.68 127.176 132.707 127.376 132.832 127.433C132.877 127.455 132.926 127.466 132.975 127.468C133.025 127.469 133.074 127.46 133.12 127.442C133.167 127.423 133.209 127.395 133.245 127.359C133.28 127.323 133.309 127.28 133.328 127.233C133.37 127.122 133.37 127 133.328 126.889C133.328 126.889 133.59 127.161 133.7 127.018C133.811 126.875 133.618 126.675 133.576 126.618C133.481 126.509 133.363 126.426 133.231 126.374C133.146 126.346 133.055 126.346 132.969 126.374C132.883 126.388 132.794 126.388 132.707 126.374C132.388 126.426 132.061 126.361 131.783 126.188C131.011 125.802 131.08 125.53 131.039 124.571C131.039 124.199 131.011 123.827 130.956 123.454C130.916 122.829 130.695 122.23 130.322 121.737C130.253 121.617 130.164 121.51 130.06 121.422C129.991 121.336 129.77 121.207 129.715 121.422C129.748 121.766 129.813 122.107 129.908 122.438C130.12 123.734 130.424 125.011 130.818 126.26C130.984 126.761 131.37 127.533 131.908 127.533Z" fill="#927E2F"/>
<path fill-rule="evenodd" clip-rule="evenodd" d="M114.063 121.751L114.229 121.479C114.483 121.148 114.775 120.85 115.098 120.592C115.994 119.847 117.222 119.16 117.208 117.729C117.208 117.486 117.125 116.871 116.877 117.185C116.707 117.368 116.528 117.54 116.339 117.701C116.146 117.858 115.953 118.001 115.774 118.173C114.982 118.852 114.437 119.791 114.229 120.835C114.188 121.136 114.077 121.536 114.063 121.751Z" fill="#927E2F"/>
<path fill-rule="evenodd" clip-rule="evenodd" d="M130.832 126.717L130.598 126.03C130.184 124.599 130.115 123.569 129.743 122.223C129.646 121.894 129.55 121.393 129.26 121.322C128.971 121.25 128.998 121.322 128.915 121.436C128.845 121.538 128.807 121.661 128.807 121.787C128.807 121.913 128.845 122.035 128.915 122.137C129.133 122.563 129.3 123.015 129.412 123.483C129.495 123.898 129.343 123.669 129.605 124.241C129.867 124.814 130.046 125.043 130.212 125.472C130.446 126.116 130.294 126.345 130.543 126.531C130.633 126.603 130.73 126.666 130.832 126.717Z" fill="#927E2F"/>
<path fill-rule="evenodd" clip-rule="evenodd" d="M124.958 120.591C125.041 120.677 125.165 120.891 125.248 120.992C125.473 121.248 125.68 121.521 125.868 121.807C125.959 121.953 126.066 122.087 126.185 122.208C126.443 122.429 126.72 122.626 127.013 122.795C127.153 122.889 127.282 123 127.399 123.124C127.468 123.196 127.689 123.453 127.826 123.382C127.964 123.31 127.206 122.466 127.109 122.366L126.847 122.051L126.571 121.736C126.287 121.423 126.019 121.093 125.772 120.748C125.508 120.388 125.312 119.981 125.192 119.546C125.192 119.374 125.192 119.16 125.013 119.117C124.834 119.074 124.696 119.231 124.641 119.303C124.586 119.374 124.641 119.918 124.751 120.19L124.848 120.39C124.892 120.452 124.929 120.519 124.958 120.591Z" fill="#927E2F"/>
<path fill-rule="evenodd" clip-rule="evenodd" d="M113.775 120.535C113.767 120.857 113.795 121.178 113.857 121.494C113.87 121.584 113.898 121.671 113.94 121.751L114.023 121.236C114.25 120.317 114.638 119.448 115.167 118.674C115.236 118.56 115.402 118.402 115.36 118.273C115.319 118.144 114.988 118.273 114.795 118.273C114.678 118.254 114.57 118.194 114.492 118.102C114.492 118.273 114.326 118.459 114.257 118.66C113.996 119.252 113.833 119.886 113.775 120.535Z" fill="#927E2F"/>
<path fill-rule="evenodd" clip-rule="evenodd" d="M128.433 108.77C128.295 108.77 128.282 108.884 128.226 108.984C128.171 109.084 127.592 109.184 127.661 109.656C127.73 109.854 127.843 110.031 127.992 110.173C128.141 110.315 128.321 110.417 128.516 110.472C128.737 110.543 128.861 110.472 129.04 110.243C129.116 110.157 129.173 110.055 129.206 109.943C129.24 109.832 129.249 109.715 129.233 109.599C129.192 109.17 128.737 108.684 128.433 108.77Z" fill="#927E2F"/>
<path fill-rule="evenodd" clip-rule="evenodd" d="M131.784 112.405V112.262C131.522 112.377 131.274 112.921 131.094 113.278C130.92 113.66 130.712 114.024 130.474 114.366C130.377 114.166 130.363 114.366 130.322 114.051C130.171 114.442 130.069 114.851 130.019 115.268L130.239 114.967C130.322 114.867 130.418 114.781 130.501 114.695C130.949 114.253 131.322 113.735 131.604 113.164C131.604 113.049 131.701 112.849 131.825 112.849C131.847 112.919 131.847 112.994 131.825 113.064C131.991 112.978 132.184 112.477 132.239 112.262C132.284 112.084 132.317 111.902 132.335 111.718C132.384 111.55 132.421 111.377 132.446 111.203C132.387 111.299 132.336 111.399 132.294 111.504C132.211 111.675 131.908 112.377 131.784 112.405Z" fill="#927E2F"/>
<path fill-rule="evenodd" clip-rule="evenodd" d="M117.498 122.566V122.452C117.609 122.189 117.748 121.939 117.912 121.708C118.367 121.021 118.987 120.276 118.712 119.389C118.662 119.232 118.593 119.083 118.505 118.945C118.517 119.627 118.34 120.298 117.994 120.878C117.801 121.264 117.567 121.693 117.401 122.08C117.362 122.16 117.351 122.252 117.368 122.34C117.386 122.429 117.431 122.508 117.498 122.566Z" fill="#927E2F"/>
<path fill-rule="evenodd" clip-rule="evenodd" d="M128.983 116.842C128.983 116.842 128.859 117.099 128.818 117.157C128.627 117.444 128.405 117.708 128.156 117.944C127.91 118.188 127.688 118.456 127.494 118.745C127.494 118.831 127.356 119.075 127.494 119.075C127.896 118.851 128.263 118.566 128.583 118.23C128.744 118.065 128.875 117.871 128.97 117.658C129.029 117.531 129.062 117.392 129.064 117.251C129.067 117.11 129.039 116.97 128.983 116.842Z" fill="#927E2F"/>
<path fill-rule="evenodd" clip-rule="evenodd" d="M120.877 126.501C121.097 126.244 120.78 125.987 120.573 125.901C120.049 125.672 119.566 126.258 118.973 125.5C118.892 125.406 118.818 125.306 118.753 125.2C118.699 125.081 118.629 124.97 118.546 124.871L118.794 125.643C118.918 125.915 119.07 125.743 119.36 126.115C119.649 126.487 119.58 126.516 119.994 126.501C120.145 126.516 120.298 126.516 120.449 126.501C120.697 126.387 120.697 126.444 120.877 126.501Z" fill="white"/>
<path fill-rule="evenodd" clip-rule="evenodd" d="M121.068 117.142C120.876 116.95 120.635 116.818 120.373 116.765C120.111 116.712 119.84 116.738 119.592 116.842C119.137 117.085 119.427 117.3 119.758 117.529C119.854 117.529 120.089 117.744 120.241 117.643C120.392 117.543 120.392 117.429 120.558 117.286C120.723 117.142 120.792 117.157 121.068 117.142Z" fill="#927E2F"/>
<path fill-rule="evenodd" clip-rule="evenodd" d="M131.26 105.506C131.26 105.42 131.646 105.02 131.825 105.02C131.996 104.969 132.178 104.969 132.349 105.02C132.529 105.091 132.653 105.764 132.68 105.978C132.708 106.193 132.68 106.393 132.68 106.593C132.776 106.403 132.85 106.201 132.901 105.992C132.984 105.747 132.984 105.48 132.901 105.234C132.897 105.132 132.872 105.031 132.827 104.94C132.781 104.848 132.717 104.768 132.639 104.705C131.963 104.319 131.26 105.106 131.26 105.506Z" fill="#927E2F"/>
<path fill-rule="evenodd" clip-rule="evenodd" d="M117.248 122.366C117.359 121.908 117.841 121.336 118.09 120.692C118.225 120.386 118.322 120.064 118.379 119.733C118.434 119.449 118.434 119.157 118.379 118.874C118.379 118.874 118.296 118.702 118.2 118.745C118.103 118.788 118.2 119.089 118.2 119.318C118.127 120.304 117.727 121.235 117.069 121.951C116.986 122.137 117.179 122.309 117.248 122.366Z" fill="#927E2F"/>
<path fill-rule="evenodd" clip-rule="evenodd" d="M127.096 108.855C126.892 109.053 126.736 109.298 126.641 109.571C126.586 109.733 126.586 109.909 126.641 110.071C126.641 110.171 126.847 110.357 127.013 110.271C127.178 110.185 127.096 110.128 127.123 110.114C127.151 110.1 127.22 110.014 127.261 109.957C127.661 109.485 127.454 109.37 127.344 109.17C127.234 108.97 127.344 109.013 127.247 108.97C127.151 108.927 127.178 108.97 127.096 108.855Z" fill="#927E2F"/>
<path fill-rule="evenodd" clip-rule="evenodd" d="M126.723 104.804L126.571 105.061C126.443 105.25 126.374 105.474 126.374 105.705C126.374 105.935 126.443 106.16 126.571 106.348C126.723 106.348 126.737 106.348 126.819 106.263C126.902 106.177 126.75 106.105 126.723 106.02C126.674 105.918 126.649 105.806 126.648 105.692C126.648 105.578 126.673 105.466 126.72 105.364C126.768 105.262 126.838 105.172 126.925 105.103C127.011 105.033 127.112 104.984 127.219 104.961C127.44 104.876 127.523 104.961 127.578 104.647C127.433 104.604 127.281 104.596 127.133 104.623C126.985 104.651 126.845 104.712 126.723 104.804Z" fill="#927E2F"/>
<path fill-rule="evenodd" clip-rule="evenodd" d="M112.865 121.952C113.089 121.608 113.235 121.217 113.293 120.807C113.003 120.807 112.893 120.993 112.851 121.25C112.81 121.508 112.907 121.68 112.865 121.952Z" fill="white"/>
<path fill-rule="evenodd" clip-rule="evenodd" d="M128.708 118.516C128.915 118.516 129.356 118.201 129.453 118.086C129.081 118.086 129.053 118.086 129.081 117.729C128.984 117.829 128.612 118.272 128.708 118.516Z" fill="#927E2F"/>
<path fill-rule="evenodd" clip-rule="evenodd" d="M127.855 110.758V110.887C127.855 110.887 127.855 110.887 127.98 110.973C128.098 110.994 128.22 110.994 128.338 110.973C128.354 110.907 128.354 110.838 128.338 110.772C128.181 110.727 128.015 110.722 127.855 110.758Z" fill="#927E2F"/>
<path fill-rule="evenodd" clip-rule="evenodd" d="M129.357 107.538C129.261 107.538 129.247 107.538 129.15 107.538C129.15 107.881 129.743 107.824 129.771 107.538C129.714 107.481 129.642 107.441 129.564 107.424C129.564 107.738 129.371 107.681 129.33 107.61C129.288 107.538 129.343 107.653 129.357 107.538Z" fill="#927E2F"/>
<path fill-rule="evenodd" clip-rule="evenodd" d="M127.467 107.495C127.467 107.495 127.384 107.638 127.288 107.581C127.191 107.524 127.219 107.438 127.288 107.338C127.012 107.338 127.288 107.681 127.288 107.71C127.288 107.738 127.715 107.581 127.467 107.495Z" fill="#927E2F"/>
<path fill-rule="evenodd" clip-rule="evenodd" d="M128.711 110.96C128.739 110.881 128.739 110.795 128.711 110.716C128.711 110.616 128.711 110.588 128.531 110.588C128.517 110.687 128.517 110.789 128.531 110.888C128.531 110.888 128.531 110.974 128.614 110.988C128.697 111.002 128.656 110.974 128.711 110.96Z" fill="#927E2F"/>
<path fill-rule="evenodd" clip-rule="evenodd" d="M127.828 110.931C127.828 110.845 127.731 110.773 127.69 110.688C127.648 110.602 127.606 110.473 127.565 110.416C127.53 110.542 127.53 110.676 127.565 110.802C127.606 110.945 127.662 110.959 127.828 110.931Z" fill="#927E2F"/>
<path fill-rule="evenodd" clip-rule="evenodd" d="M173.323 133.001H84.0137C84.0137 133.001 90.6884 110.76 133.536 125.058C133.536 125.058 145.396 129.251 173.323 133.001Z" fill="url(#paint27_linear)"/>
<path fill-rule="evenodd" clip-rule="evenodd" d="M127.647 79.0295L127.771 78.872L127.647 79.0295ZM130.075 93.1127V93.0268V93.1127ZM140.045 91.8675C140.052 91.7961 140.052 91.7243 140.045 91.6529C140.052 91.7243 140.052 91.7961 140.045 91.8675ZM139.618 74.4352L139.438 74.106L139.618 74.4352ZM133.881 72.8752C133.15 73.3838 132.491 73.9955 131.923 74.6928C131.779 74.7061 131.637 74.6637 131.522 74.5737C131.407 74.4838 131.329 74.3528 131.302 74.2062C131.619 74.2062 131.771 73.7768 131.771 73.7768C131.925 73.8126 132.085 73.8126 132.24 73.7768C132.078 73.6804 131.9 73.6173 131.716 73.5908L132.35 73.2473C132.869 73.1769 133.381 73.062 133.881 72.9038V72.8752ZM134.046 72.7607L133.881 72.8752L134.198 72.775L134.046 72.7607ZM129.137 68.882L129.261 69.0681L129.137 68.882ZM110.699 73.0183L111.098 72.775L110.699 73.0183ZM111.719 123.827C111.704 122.984 111.755 122.142 111.871 121.308C111.94 120.234 114.284 117.801 114.284 117.801C113.483 118.219 112.745 118.754 112.091 119.39C112.174 117.959 115.718 114.352 115.718 114.352C114.16 114.653 112.284 117.873 112.284 117.873C116.849 93.1269 126.42 80.5466 127.647 79.0295C127.061 79.8709 126.597 80.7966 126.268 81.7774C126.71 81.2344 127.287 80.8283 127.937 80.6038C127.012 81.5804 126.269 82.7254 125.744 83.9814C127.551 81.8632 128.144 82.3356 128.144 82.3356C125.979 84.5397 125.799 85.5987 125.799 85.5987C126.041 85.3527 126.349 85.1882 126.682 85.1265C126.299 85.5328 126.008 86.0214 125.827 86.5577C126.212 86.2023 126.623 85.8769 127.054 85.5844C126.756 85.9666 126.54 86.4107 126.42 86.8869C127.703 85.2982 128.475 85.4556 128.475 85.4556C126.613 87.3305 126.53 88.2036 126.53 88.2036C126.53 88.2036 127.827 86.7724 128.337 86.5577C128.847 86.343 128.337 87.1875 128.337 87.1875C127.748 87.5518 127.242 88.0455 126.856 88.6339C126.471 89.2223 126.213 89.8912 126.103 90.5937C126.296 90.1912 126.577 89.8415 126.925 89.5729C127.272 89.3044 127.676 89.1246 128.102 89.048C127.358 89.6962 126.832 90.5734 126.599 91.5527C126.903 91.1949 128.64 89.5203 128.64 89.5203C129.33 88.8333 129.357 89.5203 129.357 89.5203C127.849 90.6503 126.605 92.1177 125.717 93.8139C126.172 92.7405 128.089 91.9677 128.089 91.9677C127.729 92.4627 127.419 92.9951 127.165 93.5563C127.38 93.2945 127.678 93.1218 128.006 93.0698C127.648 93.6626 127.348 94.2906 127.11 94.9447C127.965 93.5134 128.778 93.5134 128.778 93.5134C128.642 94.0277 128.418 94.5125 128.116 94.9447C128.364 94.8272 128.589 94.6621 128.778 94.458C128.607 95.2931 128.344 96.1049 127.992 96.8768C129.151 96.0896 130.075 93.0411 130.075 93.0411C130.115 93.834 130.087 94.6291 129.992 95.417C130.479 94.2176 130.759 92.9386 130.819 91.6385C131.055 92.3548 131.194 93.1012 131.233 93.8569C131.895 92.5974 130.861 88.6616 130.861 88.6616C131.592 89.1053 132.033 91.8818 132.033 91.8818C132.019 90.678 131.838 89.4825 131.495 88.3324C131.978 88.4612 132.709 90.193 132.709 90.193C133.053 89.8352 131.991 86.7295 131.991 86.7295C132.581 87.4675 133.107 88.2577 133.564 89.0909C133.266 88.2223 132.902 87.3799 132.474 86.572C133.061 87.0857 133.581 87.6777 134.019 88.3324C133.222 86.6891 132.299 85.1145 131.261 83.6236C132.316 84.5468 133.244 85.616 134.019 86.801C133.649 85.8028 133.187 84.8442 132.64 83.9386C133.211 84.5108 133.728 85.1386 134.184 85.8135C133.352 84.1372 132.329 82.5707 131.136 81.1476C131.716 80.933 132.516 82.8651 132.516 82.493C132.516 82.1209 132.846 82.2783 132.846 82.2783C133.007 82.5249 133.103 82.8113 133.122 83.1084C133.122 82.7363 133.577 82.6218 133.577 82.6218C133.551 83.2445 133.674 83.8643 133.936 84.4251C134.639 83.6093 135.039 83.9386 135.039 83.9386C134.688 85.4145 134.641 86.9507 134.901 88.4469C134.91 88.1777 134.979 87.9145 135.104 87.6783C135.228 87.4421 135.405 87.2397 135.618 87.0873C135.431 87.8286 135.431 88.6072 135.618 89.3485C135.779 88.6952 136.081 88.0884 136.501 87.5738C136.424 88.2298 136.424 88.893 136.501 89.5489C136.622 88.9521 136.894 88.3991 137.287 87.946C136.978 89.2518 136.838 90.5948 136.873 91.939C137.086 91.3179 137.403 90.7412 137.811 90.2359C137.425 91.3522 137.811 91.6671 137.811 91.6671C137.843 91.2493 137.978 90.847 138.202 90.4986C138.427 90.1503 138.734 89.8677 139.094 89.6778C138.404 90.9061 138.101 92.3267 138.225 93.7424C138.253 93.3211 138.378 92.9129 138.589 92.5519C138.8 92.1909 139.091 91.8875 139.438 91.6671C139.438 92.7978 139.287 95.7318 139.287 95.7318C139.652 94.4637 139.915 93.1664 140.073 91.8532C139.994 93.1563 140.031 94.4644 140.183 95.7605C140.169 94.8249 140.45 93.9103 140.983 93.1556C141.148 94.6567 141.208 96.1682 141.162 97.6783C141.584 96.5343 141.749 95.3058 141.645 94.0859C141.938 94.5192 142.153 95.0042 142.279 95.5171C142.287 94.1621 142.162 92.81 141.907 91.4811C137.342 77.8845 128.323 77.8558 128.323 77.8558C128.323 77.8558 128.116 77.4265 128.323 77.2404C128.53 77.0544 129.619 77.2404 129.619 77.2404C129.716 77.7127 130.695 78.0419 130.695 78.0419C130.571 77.7557 130.819 77.269 130.819 77.269C131.09 77.575 131.289 77.9426 131.398 78.3424C131.358 77.895 131.419 77.4439 131.578 77.0257C131.718 77.6656 132.007 78.2601 132.419 78.7575C132.289 78.1846 132.313 77.5856 132.488 77.0257C132.77 77.8692 133.243 78.6301 133.867 79.2441C133.743 78.7396 133.705 78.2164 133.757 77.6984C133.858 77.6522 133.972 77.6471 134.077 77.6842C134.182 77.7213 134.269 77.7979 134.322 77.8987C134.311 78.4604 134.46 79.0129 134.75 79.4875C134.863 79.1017 134.928 78.7025 134.943 78.2995C135.043 78.9179 135.21 79.5228 135.439 80.1029C135.328 79.2298 135.472 78.3422 135.853 77.5553C135.794 78.3254 135.907 79.0994 136.184 79.8166C136.23 79.3821 136.404 78.9726 136.68 78.643C136.595 79.3748 136.685 80.1171 136.942 80.8042C136.971 80.6045 137.039 80.4132 137.144 80.243C137.249 80.0728 137.387 79.9275 137.549 79.8166C137.413 80.5349 137.413 81.2739 137.549 81.9921C137.681 81.2884 138.018 80.6438 138.515 80.1458C138.227 80.9655 138.156 81.8498 138.308 82.7077C138.308 82.2497 138.928 81.6772 138.928 81.6772C138.723 82.3397 138.757 83.0571 139.025 83.6953C139.01 83.1671 139.13 82.6442 139.372 82.1793C139.614 81.7145 139.97 81.324 140.404 81.0475C139.95 82.2563 139.868 83.5812 140.169 84.8402C140.243 84.0775 140.525 83.3524 140.983 82.7506L140.776 85.6131L141.728 83.4376C141.728 84.0959 141.438 87.1015 141.438 87.1015C141.992 86.1517 142.371 85.1035 142.555 84.0101C142.616 85.1627 142.56 86.3187 142.39 87.4593C142.845 87.2589 143.121 85.8278 143.121 85.8278C143.284 86.8929 143.367 87.9696 143.369 89.048C143.714 87.9762 143.905 86.8573 143.934 85.7276C144.326 86.4641 144.583 87.2696 144.693 88.1034C144.835 86.8591 144.708 85.5976 144.32 84.4109C144.748 84.5683 145.355 85.8421 145.355 85.8421C145.055 84.5397 144.542 83.3005 143.838 82.1782C144.541 82.1782 145.782 84.3107 145.782 84.3107C145.782 82.5932 143.755 80.4893 143.755 80.4893C144.357 80.8162 144.913 81.2254 145.41 81.7058C144.496 80.4947 143.356 79.4871 142.059 78.7432C142.448 78.7113 142.839 78.7699 143.203 78.9149C141.256 77.3482 139.008 76.2309 136.611 75.6375C136.429 75.0087 136.134 74.4211 135.743 73.9057C136.253 73.9057 137.728 75.6804 137.728 75.6804C137.472 75.1162 137.187 74.5668 136.873 74.0345C137.915 74.7583 138.877 75.5982 139.742 76.5391C139.259 75.5945 138.625 74.6213 138.625 74.6213C139.328 74.9075 140.404 76.7538 140.404 76.7538C140.226 75.9469 139.948 75.1674 139.576 74.4352C140.239 75.3357 141.03 76.1271 141.921 76.7824C141.504 75.4429 140.829 74.2058 139.935 73.1471C140.749 73.2902 142.872 76.2099 142.872 76.2099C143.548 77.0257 143.948 76.8683 143.948 76.8683C142.073 74.8073 142.5 74.4639 142.5 74.4639C143.217 74.5354 144.127 76.4818 144.127 76.4818C144.184 76.6944 144.284 76.8922 144.419 77.0623C144.555 77.2324 144.723 77.3711 144.913 77.4694C144.693 77.2547 144.913 76.5391 144.913 76.5391C145.484 77.1528 146.211 77.5847 147.01 77.7843C144.045 74.9219 144.251 74.4209 144.251 74.4209C145.138 74.8051 145.957 75.3369 146.679 75.9953C146.476 75.554 146.161 75.1781 145.768 74.9075C146.929 75.2198 148.023 75.7536 148.995 76.4818C147.653 75.065 145.95 74.0724 144.086 73.6194C144.414 73.3658 144.808 73.2212 145.217 73.2044C143.872 72.5536 142.422 72.1701 140.942 72.0736C141.636 71.8549 142.354 71.7299 143.079 71.7016C141.842 71.4574 140.565 71.5461 139.37 71.9592C139.37 71.3438 141.231 70.8715 141.231 70.8715C140.045 70.4564 137.26 71.859 137.26 71.859C137.756 71.153 138.472 70.6473 139.287 70.4278C138.197 70.2417 136.101 71.9735 136.101 71.9735C135.346 72.0533 134.622 72.3235 133.991 72.7607C133.555 72.7284 133.134 72.5858 132.764 72.3456C133.597 72.3365 134.428 72.2503 135.246 72.088C134.899 72.0346 134.557 71.9484 134.226 71.8304C134.632 71.7801 135.033 71.6939 135.425 71.5728C135.142 71.5854 134.865 71.4827 134.653 71.2865C135.42 71.3596 136.193 71.252 136.915 70.9717C136.35 71.0201 135.785 70.8957 135.287 70.6139C136.791 70.6139 136.942 70.3848 136.942 70.3848C136.795 70.375 136.651 70.333 136.52 70.2615C136.39 70.1899 136.275 70.0906 136.184 69.9698C137.646 69.7694 137.797 69.154 137.797 69.154C137.328 69.154 137.218 68.8392 137.218 68.8392C139.025 68.8392 139.342 68.0806 139.342 68.0806C138.363 68.0806 138.128 67.7228 138.128 67.7228H139.632C139.819 67.7015 139.998 67.6313 140.153 67.5187C140.307 67.4061 140.431 67.2547 140.514 67.0787C140.321 67.1932 139.728 66.8211 139.728 66.8211C140.955 66.3345 141.038 65.762 141.038 65.762C140.74 65.8446 140.426 65.8446 140.128 65.762C140.704 65.2919 141.334 64.8976 142.004 64.5884C141.314 64.3308 140.169 65.1466 140.169 65.1466C140.418 64.9605 140.321 64.3451 140.321 64.3451C139.611 64.7515 138.991 65.3072 138.501 65.9767C138.587 65.5436 138.751 65.131 138.983 64.7601C138.239 65.032 136.984 67.2219 136.984 67.2219C136.983 67.0759 136.945 66.9326 136.873 66.8068C136.435 67.1893 136.025 67.6056 135.646 68.0519C136.008 67.1811 136.471 66.3593 137.025 65.6046C136.28 65.9481 134.777 68.5958 134.777 68.5958C134.923 67.8575 135.17 67.1444 135.508 66.4776C134.948 67.1286 134.483 67.8616 134.129 68.6531C133.977 68.3096 134.57 66.7352 134.57 66.7352C134.06 66.8926 132.778 69.9268 132.778 69.9268L133.122 68.1378C132.722 68.3095 131.84 70.6424 131.84 70.6424C130.719 72.0077 129.678 73.4415 128.723 74.9361C129.71 73.1273 130.492 71.2063 131.054 69.2112C130.861 69.8696 129.937 70.3562 129.937 70.3562C129.868 70.0414 130.93 68.925 130.93 68.925C131.546 68.1583 131.905 67.2033 131.95 66.2057C131.95 66.635 131.247 66.7495 131.247 66.7495C131.905 65.9492 132.28 64.9391 132.309 63.8871C132.113 64.4706 131.74 64.9727 131.247 65.3183C132.474 63.4148 131.743 62.6276 131.743 62.6276C131.743 62.6276 131.743 62.6276 131.743 62.7135C131.717 62.9993 131.63 63.2757 131.49 63.523C131.349 63.7703 131.158 63.9825 130.93 64.1447C130.843 63.749 130.843 63.3382 130.93 62.9425C131.244 62.2463 131.283 61.4502 131.04 60.7241C131.178 61.1677 130.585 61.2966 130.585 61.2966C130.496 60.8544 130.459 60.4027 130.474 59.9512C130.157 60.0514 129.937 61.454 129.937 61.454C129.859 60.9477 129.827 60.435 129.84 59.9226C129.55 58.4055 128.889 58.4913 128.889 58.4913C129.302 59.2928 128.778 59.6793 128.778 59.6793C127.868 57.5897 126.765 57.7757 126.765 57.7757C128.433 59.4073 128.337 60.5237 128.337 60.5237C127.344 59.5219 126.696 59.6506 126.696 59.6506C127.012 59.7381 127.296 59.9207 127.512 60.1755C127.728 60.4302 127.866 60.7456 127.909 61.0819C127.527 60.9114 127.112 60.8332 126.696 60.8529C127.143 61.0447 127.545 61.3365 127.871 61.7076C128.198 62.0786 128.441 62.5198 128.585 62.9997C128.164 62.6574 127.781 62.2687 127.441 61.8404C127.825 62.6141 128.287 63.3433 128.82 64.0159C128.502 64.1734 127.441 62.5847 127.441 62.5847C127.812 63.4145 128.321 64.1702 128.944 64.8174C128.695 64.9033 127.247 63.8155 127.247 63.8155C127.756 64.6845 128.357 65.4911 129.04 66.22C128.727 65.9476 128.343 65.7781 127.937 65.7333C128.599 66.3761 129.015 67.2451 129.109 68.1808C128.649 67.8683 128.231 67.4928 127.868 67.0644C128.193 67.7308 128.571 68.3676 128.999 68.9679C128.83 68.8091 128.627 68.696 128.406 68.6388C128.489 68.7283 128.548 68.8389 128.578 68.9595C128.607 69.0802 128.606 69.2067 128.574 69.3267C128.542 69.4466 128.48 69.5558 128.395 69.6435C128.31 69.7312 128.205 69.7944 128.089 69.8267C124.738 58.5916 121.4 58.5772 121.4 58.5772C122.573 59.5522 123.548 60.7586 124.269 62.1267C123.331 60.8243 122.434 60.8529 122.434 60.8529C124.42 61.8118 125.606 65.2611 125.606 65.2611C125.289 64.8253 124.878 64.4724 124.407 64.2306C125.029 64.8628 125.428 65.6951 125.537 66.5921C124.351 66.1484 124.007 66.5063 124.007 66.5063C125.386 67.3507 125.524 68.0949 125.524 68.0949C124.9 67.5344 124.179 67.1022 123.4 66.8211C123.401 67.2556 123.506 67.6831 123.703 68.0662C123.213 67.5967 122.752 67.0948 122.324 66.5635C122.003 66.5274 121.68 66.5274 121.359 66.5635C121.411 66.869 121.54 67.1551 121.731 67.3936C121.731 67.3936 121.414 67.0358 121.097 66.6064C120.965 66.6268 120.836 66.6603 120.711 66.7066C120.076 66.8497 119.745 68.9966 119.745 68.9966C120.306 68.8131 120.898 68.7498 121.483 68.8105C121.144 69.0465 120.872 69.3727 120.697 69.7551C121.193 69.4571 121.781 69.37 122.338 69.5118C121.662 69.7265 120.959 70.943 120.959 70.943C121.339 70.8424 121.737 70.8424 122.117 70.943C121.814 71.3151 121.979 71.5441 121.979 71.5441C122.438 71.412 122.926 71.4526 123.358 71.6586C123.216 71.8144 123.116 72.0072 123.069 72.2168C123.341 72.129 123.63 72.1104 123.911 72.1628C124.192 72.2151 124.456 72.3367 124.682 72.5174C124.2 72.3314 123.096 72.9611 123.096 72.9611H123.51C123.949 72.9997 124.38 73.1008 124.793 73.2616C124.503 73.2616 124.186 73.648 124.186 73.648L125.179 73.5192C126.065 74.6382 126.768 75.9001 127.261 77.2548C125.403 75.8289 123.366 74.6732 121.207 73.8198C121.542 75.0389 121.786 76.2829 121.938 77.5409C120.995 75.9383 119.949 74.4035 118.807 72.9468C117.98 72.6748 117.194 72.4601 116.477 72.274C116.2 73.1105 116.097 73.9981 116.173 74.8789C115.876 73.9514 115.686 72.9905 115.608 72.0164L114.822 71.8447C114.67 72.6455 114.609 73.4623 114.643 74.2778C114.387 73.4355 114.193 72.5743 114.063 71.7016L113.401 71.5871C113.394 71.668 113.394 71.7494 113.401 71.8304L113.319 71.5728L112.657 71.4869C111.867 71.3515 111.061 71.3515 110.271 71.4869C110.271 71.4869 110.271 71.5727 110.271 71.63C110.265 71.5825 110.265 71.5344 110.271 71.4869C109.77 71.5528 109.272 71.6484 108.782 71.7731C110.878 72.2455 109.761 72.317 109.761 72.317C109.268 72.3211 108.782 72.4343 108.335 72.6491C107.888 72.8638 107.49 73.1751 107.168 73.5622C107.416 73.3189 108.464 73.3046 108.464 73.3046C108.395 73.7053 107.003 74.9504 107.003 74.9504C108.253 74.4648 109.455 73.8511 110.588 73.1185C109.829 73.5617 109.215 74.2293 108.823 75.0363C109.747 74.1943 110.777 73.4865 111.885 72.9324C110.859 73.7029 110.023 74.7129 109.444 75.8808C110.264 74.7615 111.426 73.9642 112.74 73.6194C109.981 75.6088 110.464 76.2099 110.464 76.2099C110.725 75.7591 111.073 75.3689 111.486 75.0636C111.899 74.7583 112.368 74.5444 112.864 74.4352C112.495 74.6504 112.174 74.9439 111.922 75.2966C111.67 75.6493 111.493 76.0532 111.402 76.4818C112.055 75.6729 112.923 75.0808 113.898 74.7787C113.073 75.375 112.458 76.2343 112.147 77.2261C112.739 76.6072 113.401 76.0642 114.119 75.6088C113.609 76.0396 113.243 76.6252 113.071 77.2833C114.725 75.022 115.829 75.1508 115.829 75.1508C115.191 75.5461 114.703 76.1578 114.45 76.8826C114.752 76.4678 115.157 76.1461 115.622 75.9523C115.043 76.5677 115.043 76.9112 115.043 76.9112C116.863 75.2939 117.387 75.3799 117.387 75.3799C117.191 75.6139 117.067 75.9026 117.028 76.2099C117.29 76.0843 117.575 76.0192 117.863 76.0192C118.151 76.0192 118.436 76.0843 118.697 76.2099C114.257 76.811 113.015 79.4875 113.015 79.4875C111.457 79.8166 110.257 82.7077 110.257 82.7077C110.484 82.6187 110.734 82.6187 110.961 82.7077C110.037 83.2086 109.885 85.3268 109.885 85.3268C110.297 84.444 110.931 83.6926 111.719 83.1514C111.416 83.6469 111.262 84.2249 111.278 84.8116C112.202 81.9491 113.47 81.7058 113.47 81.7058C113.135 82.0706 112.899 82.5208 112.785 83.0108C112.671 83.5009 112.684 84.0135 112.822 84.4967C113.013 83.6924 113.325 82.9243 113.746 82.2211C113.721 82.5979 113.797 82.9746 113.967 83.3088C113.911 82.336 114.217 81.3781 114.822 80.6324C114.433 81.4319 114.225 82.3131 114.215 83.2086C114.447 82.2936 114.855 81.4367 115.415 80.6896C115.08 81.4527 114.915 82.2844 114.932 83.1227C115.082 82.3765 115.419 81.6849 115.911 81.119C115.89 81.5296 115.83 81.937 115.732 82.3356C115.984 81.6987 116.174 81.037 116.298 80.3605C116.629 78.9293 117.304 79.1726 117.304 79.1726C116.72 80.1228 116.436 81.2384 116.491 82.3642C116.67 81.4298 117.158 80.5896 117.87 79.9884C117.778 80.5718 117.611 81.1397 117.373 81.6772C117.957 81.1397 118.427 80.4817 118.752 79.7451L118.849 79.8595C118.927 80.2163 118.964 80.5814 118.959 80.9473C119.276 81.4196 119.428 80.7612 119.428 80.7612C119.511 80.5179 119.856 80.1171 119.993 80.1458C120.131 80.1744 120.159 80.6753 120.159 80.6753H120.628L120.78 80.2173C121.179 79.8166 121.579 79.7451 121.69 79.9311C121.8 80.1172 122.255 80.1601 122.255 80.1601C122.242 79.9265 122.242 79.6924 122.255 79.4588C122.255 79.1296 123.634 78.8434 123.634 78.8434C124.6 78.6287 124.269 79.3443 124.269 79.3443C123.316 79.9977 122.247 80.4454 121.124 80.661C120.13 80.8453 119.181 81.234 118.333 81.8042C117.485 82.3744 116.756 83.1146 116.187 83.9814C116.711 84.0959 116.656 84.2677 116.656 84.2677C115.827 84.5442 115.103 85.0851 114.588 85.8135C114.725 85.7276 115.36 85.9422 115.36 85.9422C113.884 86.4145 112.905 88.9907 112.905 88.9907C113.498 88.9049 113.539 89.1911 113.539 89.1911C112.949 89.6356 112.552 90.3045 112.436 91.0517C112.933 90.6796 113.195 90.9373 113.195 90.9373C112.808 91.2629 112.501 91.6792 112.3 92.152C112.098 92.6248 112.008 93.1404 112.036 93.6565C112.036 93.2844 112.905 92.397 112.905 92.397C112.873 92.6584 112.873 92.9229 112.905 93.1842C112.905 92.626 114.119 91.5097 114.119 91.5097C114.147 92.0067 114.042 92.5022 113.815 92.9409C114.422 92.207 114.839 91.3257 115.029 90.3791C115.021 90.7285 115.145 91.0672 115.374 91.3236C115.291 89.4344 115.76 89.2054 115.76 89.2054C115.931 89.7714 116.029 90.3586 116.049 90.9515C116.154 90.3745 116.154 89.7824 116.049 89.2054C115.967 88.2895 116.504 88.1607 116.504 88.1607C116.504 90.236 117.07 90.5508 117.07 90.5508C116.896 89.5227 117.011 88.4644 117.401 87.5023C117.341 87.7688 117.335 88.0455 117.385 88.3143C117.435 88.5832 117.539 88.8381 117.69 89.0624C117.682 88.2289 117.876 87.4066 118.256 86.6721C118.063 87.2017 118.559 88.4612 118.559 88.4612C118.518 87.6986 118.641 86.9361 118.918 86.2285C118.9 87.0404 118.998 87.8505 119.207 88.6329C119.136 87.0491 119.356 85.4657 119.856 83.9672C119.76 85.0255 119.878 86.0927 120.2 87.1015C120.233 85.8863 120.386 84.6778 120.655 83.4949C120.624 84.4583 120.722 85.4216 120.945 86.3573C121.272 85.3471 121.508 84.3074 121.648 83.2516C121.708 83.726 121.731 84.2046 121.717 84.6828C122.027 83.8287 122.24 82.9401 122.352 82.035C122.348 82.5282 122.447 83.0164 122.641 83.4662C122.876 82.908 123.317 81.0904 123.317 81.0904C123.294 81.6456 123.196 82.1946 123.027 82.722C123.377 82.3308 123.582 81.8238 123.607 81.2907C123.538 80.5894 125.62 80.0313 125.62 80.0313C124.726 80.8835 123.934 81.8446 123.262 82.8938C117.001 92.3256 110.588 115.068 110.588 115.068C110.009 117.83 107.513 124.628 107.513 124.628C106.768 125.673 106.727 124.499 106.727 124.499C106.037 119.791 104.548 119.891 104.548 119.891C105.099 121.697 105.559 123.531 105.927 125.387C105.672 125.013 105.37 124.677 105.031 124.385C105.008 124.531 104.951 124.668 104.865 124.786C105.517 125.696 106.107 126.652 106.63 127.648C106.148 127.419 105.182 128.321 105.182 128.321H105.886V128.707C105.886 128.807 112.505 128.707 112.505 128.707C112.395 128.02 114.698 127.276 114.698 127.276C114.491 127.047 112.367 127.505 112.367 127.505C112.74 126.718 114.781 126.074 114.781 126.074C114.27 125.702 111.25 127.219 111.25 127.219C113.075 125.178 115.319 123.588 117.815 122.567C115.415 122.438 111.65 125.687 111.65 125.687C111.65 125.387 111.65 125.172 111.885 124.385C112.119 123.598 114.298 121.837 114.298 121.837C113.348 122.363 112.478 123.034 111.719 123.827Z" fill="url(#paint28_linear)"/>
<path fill-rule="evenodd" clip-rule="evenodd" d="M97.0317 49.7889C97.1308 49.8498 97.2233 49.9218 97.3075 50.0035L97.0317 49.7889ZM120.007 73.1894C121.149 74.6461 122.195 76.181 123.138 77.7836C122.991 76.5247 122.747 75.2802 122.407 74.0624C117.925 58.3189 99.2382 60.1366 99.2382 60.1366C102.231 58.9201 103.293 60.1366 103.293 60.1366C103.232 59.9221 103.231 59.694 103.289 59.4788C103.348 59.2636 103.464 59.07 103.624 58.9201C103.767 59.2626 103.98 59.5682 104.249 59.8155C104.519 60.0628 104.837 60.2458 105.182 60.3513C104.895 60.1425 104.695 59.8279 104.623 59.4717C104.551 59.1154 104.613 58.7441 104.796 58.4334C104.934 59.4926 106.671 60.108 106.671 60.108C106.443 59.9115 106.278 59.6469 106.199 59.35C106.12 59.053 106.131 58.7381 106.23 58.4478C106.313 59.2063 108.74 60.2654 108.74 60.2654C108.506 59.4353 109.057 59.4067 109.057 59.4067C109.165 59.8124 109.378 60.1799 109.672 60.4699C109.965 60.7598 110.33 60.9613 110.726 61.0526C110.519 60.2941 110.16 59.2493 110.16 59.2493C111.084 59.7072 111.471 61.5535 111.471 61.5535C111.746 61.4247 112.85 62.3121 112.85 62.3121C112.633 61.6688 112.337 61.0577 111.967 60.4944C112.464 60.1939 114.008 62.4552 114.187 62.7128C113.401 61.5249 112.988 57.3744 112.988 57.3744C113.401 59.4535 114.092 61.4624 115.042 63.3425C115.042 63.0134 115.373 62.9275 115.373 62.9275C115.291 63.3569 116.022 63.729 116.022 63.729C115.922 63.3055 115.971 62.8589 116.159 62.4695C116.537 63.1037 116.874 63.7635 117.166 64.4446C117.084 63.1902 116.857 61.9505 116.49 60.752C117.232 62.2121 117.842 63.7405 118.311 65.3176C118.061 63.7257 118.165 62.0956 118.614 60.5516C118.52 62.4702 118.915 64.3806 119.759 66.0905C119.657 65.6379 119.655 65.1674 119.753 64.7139C119.851 64.2605 120.046 63.8358 120.324 63.4714C119.966 64.2299 120.931 66.9349 120.931 66.9349C120.407 62.8989 121.097 63.0563 121.097 63.0563C121.024 63.7595 121.098 64.4705 121.312 65.1419C121.526 65.8132 121.876 66.4295 122.338 66.9493H122.6C122.498 66.2471 122.498 65.5331 122.6 64.831C122.717 65.6322 123.068 66.3767 123.606 66.9636C123.959 67.0043 124.306 67.0859 124.641 67.2069C124.616 66.5601 124.657 65.9123 124.765 65.2747C125.096 65.2747 126.006 66.0332 126.006 66.0332C125.458 64.9538 124.674 64.0224 123.717 63.3139C124.241 62.8702 126.006 64.5877 126.006 64.5877C125.744 62.6126 120.945 60.1366 120.945 60.1366C121.924 59.8217 123.537 60.9524 123.537 60.9524C122.586 59.6772 121.282 58.7336 119.8 58.2474C120.2 57.9755 121.359 58.2474 121.359 58.2474C120.793 56.5872 116.504 56.8162 116.504 56.8162C116.504 56.1864 119.731 56.6873 119.731 56.6873C113.084 52.8373 100.148 59.2206 100.148 59.2206C99.9001 58.3476 104.079 57.3028 104.079 57.3028C105.291 56.5236 106.612 55.9443 107.995 55.5853C105.72 55.7571 105.403 55.113 105.403 55.113C106.706 54.9 108.038 54.9583 109.319 55.2847C109.112 55.2298 108.925 55.112 108.783 54.9463C108.64 54.7806 108.548 54.5745 108.519 54.3545C109.736 54.7963 111.036 54.9288 112.312 54.7409C111.819 54.6376 111.381 54.3465 111.084 53.9251C113.25 54.1254 113.843 53.3096 113.843 53.3096C111.964 53.4471 110.08 53.1489 108.326 52.4366C108.326 51.8784 112.119 52.3507 112.119 52.3507C111.374 51.6494 108.575 51.721 108.575 51.721C109.416 50.9481 111.498 51.2058 111.498 51.2058C112.223 51.6025 113.065 51.6997 113.856 51.4777C113.54 51.4663 113.232 51.3708 112.962 51.2004C112.691 51.03 112.467 50.7904 112.312 50.5045C113.346 51.0627 114.725 51.263 115.222 50.6189C114.449 50.6189 112.464 49.3738 113.663 49.8318C114.658 50.1004 115.712 49.9991 116.642 49.5455C116.036 49.5214 115.432 49.4497 114.836 49.3309C114.38 49.1305 114.905 48.8586 114.905 48.8586C115.449 49.0361 116.028 49.0675 116.588 48.9498C117.147 48.8322 117.669 48.5694 118.104 48.1859C117.377 48.2953 116.638 48.2953 115.911 48.1859C116.297 47.4417 118.807 46.7547 118.807 46.7547C117.87 46.082 115.58 47.3987 115.58 47.3987C108.354 46.4111 106.437 51.3489 106.437 51.3489C104.948 54.7695 98.9486 59.9362 98.9486 59.9362C98.9435 59.72 98.9799 59.5049 99.0557 59.3034C99.1315 59.1019 99.2451 58.9181 99.3899 58.7626C99.3899 57.818 101.996 56.0433 101.996 56.0433C101.607 56.1867 101.195 56.2499 100.783 56.2294C100.535 55.7857 102.162 55.4279 102.162 55.4279C103.169 55.2705 103.127 54.9413 103.127 54.9413C102.876 54.9894 102.619 54.9894 102.369 54.9413C102.431 54.7775 102.531 54.6327 102.661 54.5201C102.792 54.4075 102.947 54.3308 103.113 54.2972C103.568 54.219 103.993 54.0109 104.341 53.6961C104.043 53.784 103.725 53.7586 103.444 53.6246C103.745 53.6157 104.041 53.5453 104.316 53.4176C104.59 53.2899 104.838 53.1073 105.044 52.8803C104.532 53.0752 103.97 53.0752 103.458 52.8803C103.995 52.8226 104.49 52.5506 104.837 52.1218C103.458 52.3078 103.748 52.1218 103.748 52.1218L104.561 51.7353C105.208 51.474 105.755 51.0019 106.12 50.39C105.444 50.6802 104.685 50.6802 104.01 50.39C105.321 49.9828 106.57 49.3853 107.719 48.6153C106.887 48.4895 106.038 48.5629 105.237 48.8299C106.394 48.1494 107.632 47.6298 108.919 47.2842C108.278 47.1989 107.626 47.2475 107.002 47.4273C108.066 46.7945 109.207 46.3131 110.395 45.9961C109.526 45.4809 106.768 46.5543 106.768 46.5543C107.899 44.5792 111.457 43.4915 111.457 43.4915C110.583 43.358 109.691 43.4443 108.856 43.7432C108.02 44.0421 107.267 44.5448 106.658 45.209C106.534 44.8368 107.223 43.7777 107.223 43.7777C105.954 44.1498 104.106 47.1267 104.106 47.1267C104.119 46.7108 104.213 46.3018 104.382 45.9246C103.651 46.0534 102.741 48.4578 102.741 48.4578C102.664 48.498 102.579 48.5191 102.493 48.5191C102.407 48.5191 102.322 48.498 102.245 48.4578C101.278 49.8022 100.652 51.377 100.424 53.0377C100.052 53.8249 99.6243 53.2953 99.6243 53.2953C100.149 52.4318 100.466 51.4501 100.548 50.4329C100.066 50.7907 100.038 50.4329 100.038 50.4329C100.395 50.1774 100.666 49.812 100.812 49.3883C100.958 48.9645 100.972 48.5039 100.852 48.0714C100.809 48.3136 100.689 48.534 100.512 48.6974C100.334 48.8608 100.109 48.9579 99.8726 48.9731C100.948 46.3969 100.369 45.1516 100.369 45.1516C100.199 45.551 100.056 45.9624 99.9415 46.3826C99.3899 46.5114 99.5692 46.0248 99.5692 46.0248C99.8312 42.5183 98.8796 42.4037 98.8796 42.4037C98.9762 42.9333 99.0451 44.2071 99.0451 44.2071C98.7555 45.2948 98.6038 44.3502 98.6038 44.3502C98.1074 41.2158 97.4316 41.3876 97.4316 41.3876C97.7721 42.2986 97.8581 43.2907 97.6798 44.2501C96.0663 40.5575 94.9217 41.1872 94.9217 41.1872C95.6404 42.0111 96.177 42.9881 96.4938 44.0497C94.4114 42.8761 93.7357 43.4915 93.7357 43.4915C94.6722 43.9429 95.4765 44.6442 96.0663 45.5238C94.9079 44.9799 94.5493 45.5238 94.5493 45.5238C97.3075 46.955 97.6661 48.286 97.6661 48.286C96.6739 48.1481 95.7281 47.7653 94.9079 47.1697C95.0872 48.0857 96.6179 49.4311 97.2523 49.9463C96.4983 49.54 95.7087 49.2093 94.8941 48.9588C95.4988 49.908 96.2119 50.7778 97.0179 51.5493C96.5785 51.3809 96.1686 51.1391 95.8043 50.8337C96.3296 51.7572 96.9592 52.6124 97.6798 53.3812C97.3744 53.2116 97.0992 52.9889 96.8662 52.7229C96.8662 53.2381 97.9143 54.2543 97.9143 54.2543C98.0665 54.7879 98.1318 55.3442 98.1073 55.9002C98.5691 57.0289 98.8531 58.2274 98.9486 59.4496C98.5487 59.9076 98.3694 59.4496 98.3694 59.4496C98.2898 57.6392 97.9071 55.8569 97.2385 54.1827C96.0801 50.1037 88.1228 48.7727 88.1228 48.7727C81.9997 46.1392 73.7115 57.1453 73.7115 57.1453C75.3617 56.5588 76.8981 55.672 78.2487 54.5262C77.0764 55.5997 77.6005 56.3725 77.6005 56.3725C81.9032 51.7067 82.4686 52.3221 82.4686 52.3221C81.9551 52.6923 81.531 53.1809 81.2296 53.7495C80.9281 54.318 80.7575 54.9513 80.731 55.5997C81.3091 54.784 81.9602 54.0269 82.6755 53.3383C83.3099 52.8803 83.2685 53.3383 83.2685 53.3383C82.9361 53.5487 82.6557 53.8369 82.4498 54.1799C82.2438 54.5228 82.118 54.911 82.0825 55.3134C82.5514 54.8697 82.6755 54.7123 82.9927 54.6121C83.3099 54.5119 83.4891 54.9126 83.4891 54.9126C84.0819 53.8412 84.984 52.9902 86.068 52.4796C85.3764 53.1507 84.7943 53.9337 84.3442 54.7982C84.8407 55.0558 85.0751 54.7982 85.0751 54.7982C87.1437 52.0932 88.1642 52.4509 88.1642 52.4509C86.7851 53.8822 87.0058 54.9413 87.0058 54.9413C87.5436 54.0253 88.0953 53.9967 88.0953 53.9967C87.6264 54.7696 88.3159 54.5262 88.3159 54.5262C89.8191 52.1218 90.5224 52.8516 90.5224 52.8516C89.626 53.2238 88.9089 54.9413 88.9089 54.9413C89.3226 54.2686 90.7155 54.1827 90.7155 54.1827C90.1777 54.3401 90.026 55.3134 90.026 55.3134C90.5776 54.6264 93.1013 54.3402 93.1013 54.3402C92.9597 54.4353 92.8419 54.564 92.7577 54.7157C92.6736 54.8674 92.6255 55.0377 92.6174 55.2126C92.6093 55.3874 92.6415 55.5619 92.7112 55.7213C92.781 55.8806 92.8863 56.0205 93.0185 56.1292C94.3976 55.4995 95.1285 56.1292 95.1285 56.1292C94.3838 56.1292 94.2873 57.0022 94.2873 57.0022C94.9435 56.7111 95.6676 56.6265 96.3697 56.7589C96.1084 56.8213 95.8631 56.9418 95.6512 57.1124C95.4392 57.2829 95.2656 57.4993 95.1423 57.7465C96.5214 57.3601 96.7696 58.0041 96.7696 58.0041C96.5756 58.0429 96.3951 58.1351 96.2471 58.2711C96.0991 58.407 95.9891 58.5817 95.9284 58.7769C97.211 58.5193 97.7902 60.0221 97.7902 60.0221C97.9256 60.1822 98.0225 60.3733 98.0728 60.5798C98.1232 60.7864 98.1256 61.0024 98.0798 61.21C97.5557 60.9524 95.6664 61.9113 95.6664 61.9113C96.2249 61.2849 96.8711 60.7494 97.5833 60.3227C95.9698 59.7502 92.922 56.5585 92.922 56.5585C91.0483 55.629 88.9998 55.1403 86.9231 55.1273C82.3054 55.2182 77.7432 56.1885 73.4633 57.9898C68.7606 58.6338 68.7744 59.7358 68.7744 59.7358C69.2433 60.2224 73.877 59.2493 73.877 59.2493C71.7808 59.8647 71.6015 60.8522 71.6015 60.8522C73.0124 60.1996 74.5175 59.7934 76.0559 59.65C75.2413 60.5267 74.3451 61.3178 73.3805 62.0115C74.5527 62.0115 75.8215 60.7663 77.5177 59.5498C79.214 58.3332 79.6553 58.8485 79.6553 58.8485C75.3664 61.1814 75.9456 62.2978 75.9456 62.2978C81.3654 58.5337 81.4619 59.2921 81.4619 59.2921C77.3247 62.1546 77.8763 63.0563 77.8763 63.0563C79.7938 62.0791 81.5866 60.858 83.2133 59.421C85.3785 57.9898 84.9372 58.9058 84.9372 58.9058C80.0277 61.8684 80.5517 63.0419 80.5517 63.0419C81.1295 62.4499 81.8013 61.9658 82.5376 61.6107C83.0341 61.4676 82.9375 61.8111 82.9375 61.8111C82.2618 62.1689 81.7239 63.6145 81.7239 63.6145C83.3989 62.3715 85.1443 61.234 86.9506 60.2082C83.5443 63.0706 83.7098 64.2442 83.7098 64.2442C87.516 60.9953 87.847 61.6251 87.847 61.6251C87.5194 61.8543 87.2604 62.1743 87.0995 62.5488C86.9386 62.9233 86.8822 63.3372 86.9368 63.7433C87.1299 62.8846 89.1158 61.6394 89.1158 61.6394L88.5779 62.2834C88.4205 62.4379 88.3124 62.6385 88.268 62.8585C88.2237 63.0785 88.2452 63.3073 88.3297 63.5143C89.1379 63.1196 89.905 62.64 90.619 62.0831C90.2328 62.999 89.8053 63.8005 89.8053 63.8005C90.55 63.8005 92.8255 61.9829 92.8255 61.9829C90.5638 64.0438 90.7569 64.8453 90.7569 64.8453C92.6738 64.4159 92.136 65.1459 92.136 65.1459C86.7989 67.078 85.9025 69.7258 85.9025 69.7258C88.9503 67.7078 89.7501 68.0799 89.7501 68.0799C84.2338 70.9423 84.2338 72.3736 84.2338 72.3736C86.661 70.3126 87.4609 70.7992 87.4609 70.7992C84.027 72.3163 83.6547 74.549 83.6547 74.549C85.8336 72.116 86.4128 72.9031 86.4128 72.9031C82.2756 75.7656 82.2756 77.6119 82.2756 77.6119C83.7512 75.8515 84.2614 76.4239 84.2614 76.4239C81.4068 78.1414 79.9725 82.6354 79.9725 82.6354C82.9237 78.6566 83.4754 79.4009 83.4754 79.4009C80.4552 83.8234 81.5447 85.2117 81.5447 85.2117C82.5514 80.9896 83.3374 82.02 83.3374 82.02C81.6136 86.3137 82.51 87.4873 82.51 87.4873C83.8063 81.7624 84.5097 82.5782 84.5097 82.5782C84.3148 83.5216 84.3148 84.4972 84.5097 85.4406C84.7703 85.2769 84.9898 85.0515 85.1504 84.7829C85.311 84.5142 85.408 84.2099 85.4336 83.8949C85.7922 79.043 86.6886 79.6012 86.6886 79.6012C86.0128 82.4637 86.6886 82.3349 86.6886 82.3349C86.9804 80.3077 87.4418 78.3107 88.0677 76.3666C88.5503 73.3181 89.2399 73.7905 89.2399 73.7905C87.6815 76.6529 87.4747 82.8072 87.4747 82.8072C88.7607 80.442 89.5106 77.8038 89.6674 75.0929C89.8053 73.9336 90.3156 74.3058 90.3156 74.3058C90.2052 75.9087 89.8191 78.3847 89.8191 78.3847C89.8191 79.5583 90.2604 79.3723 90.2604 79.3723C90.9499 77.941 91.074 72.0158 91.074 72.0158H91.5154L91.3637 77.7407C91.7784 77.5528 92.1053 77.2032 92.2739 76.7674C92.2739 74.4775 93.0185 74.7351 93.0185 74.7351C92.999 74.927 93.017 75.121 93.0715 75.3055C93.126 75.4899 93.2159 75.661 93.3357 75.8085C93.8102 74.7821 94.1666 73.7012 94.3976 72.5883C95.0458 72.2877 94.7562 73.175 94.7562 73.175C87.0747 104.419 96.3146 127.562 96.3146 127.562C95.9616 127.024 95.5047 126.568 94.9729 126.223C94.4411 125.878 93.8461 125.651 93.2254 125.558C93.6892 126.564 94.3299 127.472 95.1148 128.234C93.9701 127.776 90.2742 127.418 90.7431 128.048C91.4334 128.584 92.2292 128.956 93.0737 129.136H106.658L106.534 128.878C106.07 128.181 105.437 127.624 104.699 127.261C105.257 126.688 105.764 126.066 106.216 125.4C106.106 125.257 105.996 125.1 105.885 124.971C104.736 125.643 103.635 126.399 102.589 127.232C103.366 126.46 104.035 125.579 104.575 124.613C104.698 124.467 104.813 124.314 104.92 124.155C105.394 123.337 105.656 122.405 105.678 121.45C103.982 122.037 102.093 126.202 102.093 126.202C101.128 126.803 101.196 125.601 101.196 125.601C102.209 124.282 102.904 122.731 103.224 121.078C102.934 119.518 104.189 114.537 104.189 114.537C103.578 114.924 103.06 115.45 102.673 116.074C102.286 116.699 102.04 117.407 101.955 118.144C101.649 120.118 101.097 122.042 100.314 123.869C100.377 123.222 100.306 122.568 100.107 121.951C100.093 122.323 99.973 122.681 99.7622 122.982C91.1016 101.427 96.549 73.2609 96.549 73.2609C96.6695 71.512 96.9419 69.778 97.3627 68.0799C98.1625 66.6487 99.1141 66.9063 99.1141 66.9063C98.1451 67.7257 97.5138 68.898 97.3489 70.1838C99.1141 68.1658 99.9553 68.6094 99.9553 68.6094C98.6081 69.5166 97.6082 70.8833 97.1282 72.4738C97.7864 71.066 98.9498 69.9819 100.369 69.4539C98.5677 70.7027 97.31 72.6348 96.8662 74.8353C97.1616 74.2132 97.5774 73.6607 98.0875 73.2126C98.5976 72.7645 99.1911 72.4302 99.8312 72.2305C97.073 75.3076 96.9765 77.526 96.9765 77.526C99.9553 72.9747 101.334 73.2323 101.334 73.2323C99.753 74.6141 98.5775 76.4291 97.9419 78.4706C100.852 74.6349 100.907 75.9373 100.907 75.9373C100.384 76.2805 99.9335 76.7301 99.5827 77.259C99.2319 77.7878 98.9881 78.385 98.8659 79.0145C100.245 77.3686 100.728 78.0269 100.728 78.0269C97.8453 81.1184 98.1901 83.7518 98.1901 83.7518C99.7346 80.5316 101.596 80.5316 101.596 80.5316C100.817 81.4916 100.336 82.6742 100.217 83.9235C100.662 82.9753 101.4 82.2092 102.314 81.7481C102.024 82.1835 101.809 82.6678 101.679 83.1793C99.1141 89.6341 100.631 90.3354 100.631 90.3354C100.99 88.5321 101.693 88.4462 101.693 88.575C101.693 88.7038 101.431 89.8488 101.431 89.8488C101.201 90.4352 101.115 91.0715 101.18 91.7008C101.245 92.3301 101.459 92.9328 101.803 93.4555C101.321 92.3534 102.81 90.4929 102.81 90.4929C103.294 89.2535 103.623 87.9548 103.789 86.6286C103.968 88.9042 105.03 88.8756 105.03 88.8756C105.334 87.5732 104.299 82.707 104.299 82.707C105.099 82.4494 105.803 85.7698 105.803 85.7698C106.534 84.2241 105.554 79.6729 105.554 79.6729C106.275 80.3682 106.759 81.2871 106.933 82.2919C107.109 81.5105 107.109 80.6976 106.933 79.9161C106.372 78.5385 106.131 77.0431 106.23 75.5509C107.22 76.9259 108.019 78.4387 108.602 80.0449C109.305 78.4992 106.961 74.6063 106.961 74.6063C107.375 74.6063 108.023 75.5795 108.023 75.5795C108.368 74.2914 106.258 71.2858 106.258 71.2858C106.864 71.1284 108.478 72.8602 108.478 72.8602C108.823 71.7582 105.058 67.3071 105.058 67.3071C105.573 67.6508 106.038 68.0702 106.437 68.5522C105.184 66.0976 103.417 63.9654 101.265 62.3121C100.865 61.5822 99.0037 60.7664 99.0037 60.7664C99.2915 60.7187 99.5848 60.7187 99.8726 60.7664C101.017 60.8952 102.327 62.8273 102.327 62.8273C102.34 62.7692 102.365 62.7149 102.401 62.6686C102.437 62.6223 102.483 62.5852 102.535 62.5603C102.587 62.5353 102.644 62.5232 102.701 62.5248C102.758 62.5264 102.815 62.5418 102.865 62.5697C102.7 63.1708 103.651 63.2853 103.651 63.2853C104.093 62.6556 104.258 63.1421 104.258 63.1421C104.179 63.6954 104.214 64.2599 104.361 64.7979C104.509 65.3359 104.765 65.8351 105.113 66.2622C105.044 64.602 105.692 64.187 105.692 64.187C105.74 65.1136 105.893 66.031 106.147 66.9206C106.085 66.5675 106.129 66.2029 106.275 65.8772C106.421 65.5516 106.661 65.281 106.961 65.1029C106.85 65.6232 106.855 66.1628 106.974 66.6809C107.094 67.199 107.325 67.6823 107.651 68.0942C107.209 65.2318 108.147 64.6307 108.147 64.6307C108.05 65.9769 108.233 67.329 108.685 68.5951C108.535 67.0811 108.709 65.5514 109.195 64.1154C109.027 65.9603 109.069 67.8194 109.319 69.6543C109.38 68.6389 109.683 67.6551 110.202 66.7918C109.692 68.2517 109.653 69.8441 110.092 71.3288C110.202 68.0942 111.209 67.4501 111.209 67.4501C110.845 68.865 110.898 70.3603 111.36 71.7438C111.36 68.8814 112.877 68.5379 112.877 68.5379C112.622 69.5324 112.72 70.5889 113.153 71.5149C112.988 69.4539 114.132 68.9816 114.132 68.9816C113.991 69.9435 114.081 70.9269 114.394 71.844H114.491C114.491 69.8546 115.153 69.5398 115.153 69.5398C115.008 70.339 115.008 71.1593 115.153 71.9585C115.283 72.8313 115.476 73.6925 115.732 74.5347C115.703 73.7186 115.767 72.9018 115.925 72.1016C116.06 71.3002 116.341 70.5327 116.752 69.8403C116.65 70.6478 116.65 71.4658 116.752 72.2734C116.841 73.2471 117.036 74.2073 117.332 75.1358C117.242 74.256 117.341 73.3664 117.621 72.531C117.753 72.1207 117.919 71.7232 118.118 71.3431C118.803 71.874 119.42 72.4945 119.952 73.1894H120.007ZM102.41 126.717C102.329 126.792 102.241 126.859 102.148 126.917L102.41 126.717Z" fill="url(#paint29_linear)"/>
<defs>
<linearGradient id="paint0_linear" x1="4203.79" y1="7401.65" x2="5431.15" y2="7451.11" gradientUnits="userSpaceOnUse">
<stop stop-color="#A2792C"/>
<stop offset="0.26" stop-color="#BC992E"/>
<stop offset="0.42" stop-color="#BC992E"/>
<stop offset="0.53" stop-color="#A2792C"/>
<stop offset="1" stop-color="#BC992E"/>
</linearGradient>
<linearGradient id="paint1_linear" x1="6377.2" y1="6957.56" x2="8201.94" y2="7078.38" gradientUnits="userSpaceOnUse">
<stop stop-color="#A2792C"/>
<stop offset="0.26" stop-color="#BC992E"/>
<stop offset="0.42" stop-color="#BC992E"/>
<stop offset="0.53" stop-color="#A2792C"/>
<stop offset="1" stop-color="#BC992E"/>
</linearGradient>
<linearGradient id="paint2_linear" x1="3701.57" y1="8735.23" x2="4745.73" y2="8766.06" gradientUnits="userSpaceOnUse">
<stop stop-color="#A2792C"/>
<stop offset="0.26" stop-color="#BC992E"/>
<stop offset="0.42" stop-color="#BC992E"/>
<stop offset="0.53" stop-color="#A2792C"/>
<stop offset="1" stop-color="#BC992E"/>
</linearGradient>
<linearGradient id="paint3_linear" x1="1522.11" y1="4662.82" x2="1902.46" y2="4670.85" gradientUnits="userSpaceOnUse">
<stop stop-color="#A2792C"/>
<stop offset="0.26" stop-color="#BC992E"/>
<stop offset="0.42" stop-color="#BC992E"/>
<stop offset="0.53" stop-color="#A2792C"/>
<stop offset="1" stop-color="#BC992E"/>
</linearGradient>
<linearGradient id="paint4_linear" x1="1966.53" y1="3966.65" x2="2485.69" y2="3983.79" gradientUnits="userSpaceOnUse">
<stop stop-color="#A2792C"/>
<stop offset="0.26" stop-color="#BC992E"/>
<stop offset="0.42" stop-color="#BC992E"/>
<stop offset="0.53" stop-color="#A2792C"/>
<stop offset="1" stop-color="#BC992E"/>
</linearGradient>
<linearGradient id="paint5_linear" x1="2265.66" y1="3004.75" x2="2883.69" y2="3036.23" gradientUnits="userSpaceOnUse">
<stop stop-color="#A2792C"/>
<stop offset="0.26" stop-color="#BC992E"/>
<stop offset="0.42" stop-color="#BC992E"/>
<stop offset="0.53" stop-color="#A2792C"/>
<stop offset="1" stop-color="#BC992E"/>
</linearGradient>
<linearGradient id="paint6_linear" x1="2438.48" y1="1841.52" x2="3115.89" y2="1903.56" gradientUnits="userSpaceOnUse">
<stop stop-color="#A2792C"/>
<stop offset="0.26" stop-color="#BC992E"/>
<stop offset="0.42" stop-color="#BC992E"/>
<stop offset="0.53" stop-color="#A2792C"/>
<stop offset="1" stop-color="#BC992E"/>
</linearGradient>
<linearGradient id="paint7_linear" x1="2445.69" y1="1546.62" x2="3130.41" y2="1622.12" gradientUnits="userSpaceOnUse">
<stop stop-color="#A2792C"/>
<stop offset="0.26" stop-color="#BC992E"/>
<stop offset="0.42" stop-color="#BC992E"/>
<stop offset="0.53" stop-color="#A2792C"/>
<stop offset="1" stop-color="#BC992E"/>
</linearGradient>
<linearGradient id="paint8_linear" x1="2312.68" y1="2375.41" x2="2965.42" y2="2419.26" gradientUnits="userSpaceOnUse">
<stop stop-color="#A2792C"/>
<stop offset="0.26" stop-color="#BC992E"/>
<stop offset="0.42" stop-color="#BC992E"/>
<stop offset="0.53" stop-color="#A2792C"/>
<stop offset="1" stop-color="#BC992E"/>
</linearGradient>
<linearGradient id="paint9_linear" x1="2062.11" y1="3357.04" x2="2636.96" y2="3381.31" gradientUnits="userSpaceOnUse">
<stop stop-color="#A2792C"/>
<stop offset="0.26" stop-color="#BC992E"/>
<stop offset="0.42" stop-color="#BC992E"/>
<stop offset="0.53" stop-color="#A2792C"/>
<stop offset="1" stop-color="#BC992E"/>
</linearGradient>
<linearGradient id="paint10_linear" x1="1772.81" y1="4501.01" x2="2261.41" y2="4514.05" gradientUnits="userSpaceOnUse">
<stop stop-color="#A2792C"/>
<stop offset="0.26" stop-color="#BC992E"/>
<stop offset="0.42" stop-color="#BC992E"/>
<stop offset="0.53" stop-color="#A2792C"/>
<stop offset="1" stop-color="#BC992E"/>
</linearGradient>
<linearGradient id="paint11_linear" x1="1369.34" y1="5262.2" x2="1737.13" y2="5268.54" gradientUnits="userSpaceOnUse">
<stop stop-color="#A2792C"/>
<stop offset="0.26" stop-color="#BC992E"/>
<stop offset="0.42" stop-color="#BC992E"/>
<stop offset="0.53" stop-color="#A2792C"/>
<stop offset="1" stop-color="#BC992E"/>
</linearGradient>
<linearGradient id="paint12_linear" x1="901.709" y1="5706.82" x2="1129.3" y2="5709.07" gradientUnits="userSpaceOnUse">
<stop stop-color="#A2792C"/>
<stop offset="0.26" stop-color="#BC992E"/>
<stop offset="0.42" stop-color="#BC992E"/>
<stop offset="0.53" stop-color="#A2792C"/>
<stop offset="1" stop-color="#BC992E"/>
</linearGradient>
<linearGradient id="paint13_linear" x1="768.204" y1="5752.88" x2="934.028" y2="5754.2" gradientUnits="userSpaceOnUse">
<stop stop-color="#A2792C"/>
<stop offset="0.26" stop-color="#BC992E"/>
<stop offset="0.42" stop-color="#BC992E"/>
<stop offset="0.53" stop-color="#A2792C"/>
<stop offset="1" stop-color="#BC992E"/>
</linearGradient>
<linearGradient id="paint14_linear" x1="1108.54" y1="5430.15" x2="1366.97" y2="5433.53" gradientUnits="userSpaceOnUse">
<stop stop-color="#A2792C"/>
<stop offset="0.26" stop-color="#BC992E"/>
<stop offset="0.42" stop-color="#BC992E"/>
<stop offset="0.53" stop-color="#A2792C"/>
<stop offset="1" stop-color="#BC992E"/>
</linearGradient>
<linearGradient id="paint15_linear" x1="1508.73" y1="4810.47" x2="1888.22" y2="4818.42" gradientUnits="userSpaceOnUse">
<stop stop-color="#A2792C"/>
<stop offset="0.26" stop-color="#BC992E"/>
<stop offset="0.42" stop-color="#BC992E"/>
<stop offset="0.53" stop-color="#A2792C"/>
<stop offset="1" stop-color="#BC992E"/>
</linearGradient>
<linearGradient id="paint16_linear" x1="1949.28" y1="4080.14" x2="2468.44" y2="4097.28" gradientUnits="userSpaceOnUse">
<stop stop-color="#A2792C"/>
<stop offset="0.26" stop-color="#BC992E"/>
<stop offset="0.42" stop-color="#BC992E"/>
<stop offset="0.53" stop-color="#A2792C"/>
<stop offset="1" stop-color="#BC992E"/>
</linearGradient>
<linearGradient id="paint17_linear" x1="2247.41" y1="3085.5" x2="2866.39" y2="3117.13" gradientUnits="userSpaceOnUse">
<stop stop-color="#A2792C"/>
<stop offset="0.26" stop-color="#BC992E"/>
<stop offset="0.42" stop-color="#BC992E"/>
<stop offset="0.53" stop-color="#A2792C"/>
<stop offset="1" stop-color="#BC992E"/>
</linearGradient>
<linearGradient id="paint18_linear" x1="2414.91" y1="1918.93" x2="3092.49" y2="1979.53" gradientUnits="userSpaceOnUse">
<stop stop-color="#A2792C"/>
<stop offset="0.26" stop-color="#BC992E"/>
<stop offset="0.42" stop-color="#BC992E"/>
<stop offset="0.53" stop-color="#A2792C"/>
<stop offset="1" stop-color="#BC992E"/>
</linearGradient>
<linearGradient id="paint19_linear" x1="2421.51" y1="1558.26" x2="3106.17" y2="1634.03" gradientUnits="userSpaceOnUse">
<stop stop-color="#A2792C"/>
<stop offset="0.26" stop-color="#BC992E"/>
<stop offset="0.42" stop-color="#BC992E"/>
<stop offset="0.53" stop-color="#A2792C"/>
<stop offset="1" stop-color="#BC992E"/>
</linearGradient>
<linearGradient id="paint20_linear" x1="2292.8" y1="2378.35" x2="2946.58" y2="2422.49" gradientUnits="userSpaceOnUse">
<stop stop-color="#A2792C"/>
<stop offset="0.26" stop-color="#BC992E"/>
<stop offset="0.42" stop-color="#BC992E"/>
<stop offset="0.53" stop-color="#A2792C"/>
<stop offset="1" stop-color="#BC992E"/>
</linearGradient>
<linearGradient id="paint21_linear" x1="2039.78" y1="3357.96" x2="2614.66" y2="3381.93" gradientUnits="userSpaceOnUse">
<stop stop-color="#A2792C"/>
<stop offset="0.26" stop-color="#BC992E"/>
<stop offset="0.42" stop-color="#BC992E"/>
<stop offset="0.53" stop-color="#A2792C"/>
<stop offset="1" stop-color="#BC992E"/>
</linearGradient>
<linearGradient id="paint22_linear" x1="1754.04" y1="4397.14" x2="2242.71" y2="4410.28" gradientUnits="userSpaceOnUse">
<stop stop-color="#A2792C"/>
<stop offset="0.26" stop-color="#BC992E"/>
<stop offset="0.42" stop-color="#BC992E"/>
<stop offset="0.53" stop-color="#A2792C"/>
<stop offset="1" stop-color="#BC992E"/>
</linearGradient>
<linearGradient id="paint23_linear" x1="1355.15" y1="5157.05" x2="1722.93" y2="5163.38" gradientUnits="userSpaceOnUse">
<stop stop-color="#A2792C"/>
<stop offset="0.26" stop-color="#BC992E"/>
<stop offset="0.42" stop-color="#BC992E"/>
<stop offset="0.53" stop-color="#A2792C"/>
<stop offset="1" stop-color="#BC992E"/>
</linearGradient>
<linearGradient id="paint24_linear" x1="874.713" y1="5564.5" x2="1097.04" y2="5566.64" gradientUnits="userSpaceOnUse">
<stop stop-color="#A2792C"/>
<stop offset="0.26" stop-color="#BC992E"/>
<stop offset="0.42" stop-color="#BC992E"/>
<stop offset="0.53" stop-color="#A2792C"/>
<stop offset="1" stop-color="#BC992E"/>
</linearGradient>
<linearGradient id="paint25_linear" x1="760.829" y1="5573.42" x2="926.18" y2="5574.73" gradientUnits="userSpaceOnUse">
<stop stop-color="#A2792C"/>
<stop offset="0.26" stop-color="#BC992E"/>
<stop offset="0.42" stop-color="#BC992E"/>
<stop offset="0.53" stop-color="#A2792C"/>
<stop offset="1" stop-color="#BC992E"/>
</linearGradient>
<linearGradient id="paint26_linear" x1="1119.38" y1="5269.49" x2="1380.21" y2="5272.93" gradientUnits="userSpaceOnUse">
<stop stop-color="#A2792C"/>
<stop offset="0.26" stop-color="#BC992E"/>
<stop offset="0.42" stop-color="#BC992E"/>
<stop offset="0.53" stop-color="#A2792C"/>
<stop offset="1" stop-color="#BC992E"/>
</linearGradient>
<linearGradient id="paint27_linear" x1="22963.2" y1="8632.99" x2="29597.5" y2="10064.4" gradientUnits="userSpaceOnUse">
<stop stop-color="#A2792C"/>
<stop offset="0.26" stop-color="#BC992E"/>
<stop offset="0.42" stop-color="#BC992E"/>
<stop offset="0.53" stop-color="#A2792C"/>
<stop offset="1" stop-color="#BC992E"/>
</linearGradient>
<linearGradient id="paint28_linear" x1="11721.4" y1="45767.6" x2="14929.2" y2="45873.3" gradientUnits="userSpaceOnUse">
<stop stop-color="#927E2F"/>
<stop offset="0.24" stop-color="#AE9431"/>
<stop offset="0.42" stop-color="#CAAD2E"/>
<stop offset="0.75" stop-color="#E2C022"/>
<stop offset="1" stop-color="#FFD700"/>
</linearGradient>
<linearGradient id="paint29_linear" x1="14784.2" y1="56261.1" x2="19167.7" y2="56411.4" gradientUnits="userSpaceOnUse">
<stop stop-color="#927E2F"/>
<stop offset="0.24" stop-color="#AE9431"/>
<stop offset="0.42" stop-color="#CAAD2E"/>
<stop offset="0.75" stop-color="#E2C022"/>
<stop offset="1" stop-color="#FFD700"/>
</linearGradient>
</defs>
</svg>
