<svg width="108" height="61" viewBox="0 0 108 61" fill="none" xmlns="http://www.w3.org/2000/svg">
<g clip-path="url(#clip0)">
<path d="M-5.64939 25.1126L-5.66504 64.0696L63.3296 64.0504L132.316 64.0217L63.3687 64.0025L-5.5868 63.9738L-5.61027 25.0647L-5.62592 -13.8349L-5.64939 25.1126Z" fill="white"/>
<path d="M58.0717 1.06581C58.0404 1.29565 57.9465 1.62125 57.8604 1.79362C57.7431 2.02346 57.704 2.23414 57.7274 2.54059C57.7509 2.91407 57.7352 2.95238 57.6335 2.82788C57.5631 2.73212 57.5162 2.47355 57.5162 2.07134C57.5083 1.62125 57.4614 1.38184 57.3284 1.14243L57.1562 0.816827L57.211 1.17116C57.2814 1.68828 57.2814 1.72659 57.211 2.23414C57.1484 2.66508 57.2423 3.18221 57.3988 3.3067C57.4301 3.33543 57.6179 3.23967 57.8135 3.11518C58.502 2.64593 59.394 2.80873 59.9339 3.51739C60.2312 3.91002 60.239 3.91002 60.4268 3.76637C60.552 3.66103 60.8024 3.60357 61.1154 3.594C61.4361 3.594 61.6709 3.52696 61.8117 3.41205C62.0856 3.20136 62.0386 3.1439 61.6943 3.25882C61.5144 3.32586 61.311 3.32586 61.0528 3.24925C60.6928 3.1439 60.5129 3.15348 60.1764 3.3067C60.0591 3.35459 60.0669 3.31628 60.239 3.12475C60.3642 2.9811 60.552 2.87576 60.6772 2.87576C60.9041 2.87576 61.397 2.53101 61.4518 2.32991C61.4674 2.25329 61.3657 2.27245 61.1388 2.39694C60.951 2.50228 60.6381 2.58847 60.4425 2.58847C60.1999 2.58847 60.0121 2.65551 59.8713 2.78958C59.7617 2.89492 59.6679 2.9428 59.6679 2.88534C59.6679 2.72254 59.9574 2.41609 60.2547 2.26287C60.4894 2.13838 60.8415 1.63083 60.8415 1.40099C60.8415 1.36268 60.7007 1.4776 60.5285 1.66913C60.3564 1.86066 60.1608 2.01388 60.0904 2.01388C59.8556 2.01388 59.4253 2.32991 59.3158 2.57889C59.2062 2.81831 59.2062 2.82788 59.1984 2.60762C59.1984 2.47355 59.3392 2.20541 59.5505 1.9277C59.7617 1.64998 59.9182 1.34353 59.9495 1.14243L60.0043 0.816827L59.7539 1.21904C59.6209 1.44887 59.4801 1.63083 59.4409 1.63083C59.3001 1.63083 58.8776 2.13838 58.7681 2.43525L58.6663 2.73212L58.6585 2.43525C58.6507 2.26287 58.7368 1.98515 58.8541 1.7649C59.0654 1.38184 59.2062 0.67318 59.0654 0.67318C59.0184 0.67318 58.9637 0.797673 58.9402 0.950897C58.9167 1.10412 58.7524 1.42972 58.5724 1.66913C58.3299 2.02346 58.2595 2.20541 58.2595 2.47355C58.2517 2.77042 58.2438 2.79915 58.1734 2.65551C58.1265 2.55974 58.1108 2.32033 58.1343 2.1288C58.2595 1.14243 58.2751 0.97005 58.2047 0.816827C58.1421 0.682756 58.1186 0.730639 58.0717 1.06581Z" fill="white"/>
<path d="M55.8888 2.61664C56.0296 2.80817 56.1783 3.15292 56.2252 3.3636C56.28 3.58386 56.413 3.8903 56.5382 4.04353C56.726 4.27336 56.7416 4.31167 56.6165 4.31167C56.5382 4.31167 56.3582 4.15844 56.2096 3.96692C55.9436 3.61259 55.5602 3.35402 55.3098 3.35402C55.2237 3.35402 55.2863 3.44021 55.4819 3.58386C55.6619 3.71793 55.881 3.99565 55.9827 4.2159C56.1079 4.49362 56.2722 4.67557 56.4913 4.80007L56.8121 4.98202H56.5304C56.3582 4.98202 56.1626 4.89583 55.9983 4.75218C55.6775 4.46489 55.3411 4.35955 55.1533 4.49362C55.0203 4.58939 55.0203 4.58939 55.169 4.59896C55.3567 4.59896 55.7167 4.85753 56.014 5.1927C56.2331 5.44169 56.6477 5.60449 56.7964 5.48957C56.8355 5.46084 56.8512 5.47999 56.8277 5.52788C56.7338 5.70983 56.3661 5.72898 56.014 5.58534C55.8105 5.49915 55.568 5.46084 55.4037 5.49915C55.0125 5.59491 54.989 5.74814 55.3646 5.74814C55.5367 5.74814 55.8262 5.83432 56.0062 5.94924C56.327 6.15035 56.7495 6.2078 56.9451 6.08331C56.9998 6.05458 56.9607 6.11204 56.859 6.21738C56.7182 6.38018 56.5695 6.41849 56.1861 6.41849C55.834 6.41849 55.6462 6.46637 55.5289 6.58129C55.3646 6.74409 55.388 6.75366 56.2174 6.75366C56.9294 6.75366 57.1016 6.72493 57.2111 6.59086C57.3363 6.43764 57.3363 6.40891 57.2267 6.25569C56.9294 5.82475 56.8042 4.68515 56.9998 4.23506C57.125 3.93819 57.1094 3.852 56.8747 3.71793C56.7495 3.65089 56.5695 3.39233 56.46 3.12419C56.3191 2.79859 56.1626 2.59748 55.9514 2.46341L55.6384 2.27188L55.8888 2.61664Z" fill="white"/>
<path d="M51.9766 3.02898C51.9531 3.05771 51.5384 3.08644 51.0689 3.08644C50.5682 3.07686 50.2004 3.11517 50.2004 3.16305C50.2004 3.22051 50.4978 3.25882 50.8655 3.25882C51.468 3.25882 51.5306 3.27797 51.5306 3.44077C51.5306 3.54611 51.5697 3.66103 51.6166 3.68976C51.6558 3.72806 51.734 3.87171 51.7731 4.00578C51.8748 4.3218 51.7027 4.50375 51.3193 4.50375C51.0533 4.50375 50.9829 4.62825 51.155 4.76232C51.2098 4.80062 51.6401 4.82935 52.1174 4.83893H52.9781L53.072 5.30818C53.1424 5.64335 53.1424 5.81573 53.0876 5.90192C53.025 5.99768 53.0328 6.08387 53.1111 6.21794C53.2284 6.41904 53.2284 6.41904 53.3928 6.19879C53.6197 5.90192 53.7996 5.34648 53.7996 4.94427C53.7996 4.65698 53.7605 4.58037 53.5492 4.43672L53.291 4.27392L53.5649 4.21646L53.8387 4.16858L53.5414 3.93874C53.3458 3.7951 53.1815 3.73764 53.0563 3.77594C52.8138 3.85256 52.5947 3.59399 52.6573 3.3067C52.6964 3.12475 52.6651 3.07686 52.4617 3.02898C52.1565 2.95237 52.0391 2.95237 51.9766 3.02898Z" fill="white"/>
<path d="M58.275 3.05775C57.6882 3.23971 57.1796 3.91006 57.0466 4.67617C56.9527 5.22203 57.1483 5.92111 57.516 6.38078C58.2124 7.22351 59.2374 7.1852 59.879 6.29459C60.4032 5.56678 60.4188 4.58041 59.9259 3.75683C59.5895 3.2014 58.8461 2.88538 58.275 3.05775Z" fill="white"/>
<path d="M60.3486 3.94006C60.2547 4.00709 60.2312 4.0837 60.286 4.19862C60.505 4.7349 60.419 5.69255 60.0982 6.22883L59.9104 6.54485L60.1373 6.87045C60.2703 7.04283 60.372 7.28224 60.372 7.38758C60.372 7.72276 60.5833 8.192 60.8102 8.38353L61.0371 8.55591L60.8884 8.28777C60.8102 8.14412 60.7163 7.74191 60.685 7.39716C60.6459 7.0141 60.552 6.66935 60.4503 6.50655C60.3642 6.35332 60.3094 6.22883 60.3329 6.22883C60.4972 6.22883 60.7085 6.48739 60.8806 6.89918C60.998 7.1769 61.1701 7.43546 61.311 7.52165C61.6474 7.73233 61.663 7.7036 61.397 7.33012C61.2718 7.14817 61.1232 6.81299 61.0762 6.59273C61.0215 6.37248 60.8806 6.07561 60.7476 5.92238C60.5755 5.73085 60.5442 5.65424 60.6381 5.65424C60.7085 5.65424 60.9119 5.81704 61.0997 6.02772C61.4909 6.45866 61.71 6.61189 61.9525 6.61189C62.1012 6.61189 62.0934 6.58316 61.8587 6.42993C61.71 6.33417 61.5066 6.11391 61.4127 5.93196C61.1858 5.5106 60.9119 5.17542 60.7867 5.17542C60.7398 5.17542 60.6694 5.12754 60.6459 5.07965C60.5442 4.87855 60.9902 4.99347 61.2797 5.23288C61.5848 5.49144 62.3203 5.68297 62.2264 5.49144C62.1951 5.43398 62.0777 5.36695 61.9525 5.33822C61.8352 5.30949 61.6005 5.12754 61.4361 4.94558C61.1545 4.61998 61.0449 4.55295 60.6068 4.47634C60.4112 4.44761 60.4112 4.44761 60.6381 4.36142C60.7711 4.31354 61.0215 4.33269 61.2718 4.4093C61.5222 4.48591 61.8039 4.50507 61.9838 4.45718L62.289 4.38057L61.8587 4.27523C61.6239 4.21777 61.3423 4.09328 61.2327 3.99751C61.0215 3.81556 60.5676 3.78683 60.3486 3.94006Z" fill="white"/>
<path d="M48.9487 5.19294C49.1521 5.6143 49.1443 5.65261 48.8782 5.55684C48.5653 5.4515 48.5183 5.53769 48.7687 5.7771C48.9565 5.95905 48.9565 5.97821 48.8235 6.03567C48.6983 6.09313 48.7139 6.13143 48.9643 6.33254C49.1208 6.45703 49.2851 6.62941 49.332 6.72517C49.4181 6.89755 49.4103 6.89755 49.1364 6.7539C48.9721 6.67729 48.8313 6.61983 48.8156 6.63898C48.8 6.65814 48.8782 6.79221 48.9956 6.94543L49.1912 7.21357L48.9721 7.13696L48.753 7.06992L48.9408 7.30934C49.0347 7.44341 49.0973 7.59663 49.0738 7.64451C49.0504 7.69239 49.0817 7.78816 49.1443 7.85519C49.2069 7.92223 49.2616 8.00842 49.2616 8.0563C49.2616 8.10418 49.113 7.99884 48.9252 7.82646C48.5574 7.48171 47.5012 7.01246 46.9222 6.92628C46.1867 6.82094 45.3729 7.34764 44.3949 8.5447C43.7924 9.27251 43.7846 9.46404 44.3714 9.05225C44.6296 8.86072 44.7157 8.83199 44.6766 8.94691C44.5983 9.20547 44.7548 9.11928 45.0443 8.75538C45.1852 8.56385 45.4042 8.33401 45.5138 8.22867L45.725 8.04672L45.5764 8.40105C45.4121 8.79368 45.4434 8.95648 45.6311 8.64046C45.6937 8.52555 45.8268 8.3819 45.9206 8.32444C46.085 8.2191 46.085 8.2191 45.9676 8.39147C45.7329 8.73623 45.7016 8.84157 45.8894 8.72665C45.9754 8.65961 46.0537 8.65004 46.0537 8.68834C46.0537 8.72665 46.1006 8.69792 46.1554 8.62131C46.2101 8.5447 46.3353 8.39147 46.4449 8.28613L46.6327 8.0946L46.4527 8.3819C46.2493 8.7075 46.3823 8.8703 46.5935 8.55427C46.7422 8.31486 47.2351 7.92223 47.1021 8.14249C47.0552 8.2191 46.9848 8.39147 46.9535 8.52555C46.8987 8.72665 46.9065 8.7458 47.0082 8.65004C47.0708 8.583 47.1491 8.55427 47.1725 8.59258C47.2038 8.62131 47.2977 8.53512 47.3916 8.40105C47.4777 8.2574 47.5872 8.14249 47.6342 8.14249C47.6811 8.14249 47.6655 8.2191 47.595 8.31486C47.4307 8.53512 47.4229 8.65961 47.5794 8.583C47.6498 8.55427 47.6968 8.583 47.6968 8.66919C47.6968 8.77453 47.7359 8.78411 47.9002 8.71707C48.1506 8.59258 48.3462 8.59258 48.2914 8.7075C48.1897 8.9086 48.3305 9.06182 48.5809 9.02352C48.8156 8.97564 48.8235 8.98521 48.7139 9.14801C48.6044 9.31081 48.6122 9.32039 48.8156 9.27251C48.9878 9.2342 49.0112 9.24378 48.9408 9.34912C48.8704 9.45446 48.8861 9.48319 49.0191 9.48319C49.113 9.48319 49.1834 9.54065 49.1677 9.59811C49.1599 9.66514 49.246 9.8471 49.3633 10.0003C49.5824 10.2876 49.6294 10.4408 49.5042 10.4408C49.4651 10.4408 49.3633 10.4696 49.2851 10.5079C49.1521 10.5653 49.1521 10.5653 49.2851 10.3738C49.4103 10.1918 49.4103 10.1823 49.246 10.0865C49.1443 10.029 48.8861 9.78964 48.667 9.55022C48.1036 8.92776 47.6185 8.77453 46.4527 8.84157C45.8189 8.87987 45.3338 8.96606 44.8409 9.13844C44.4575 9.28208 43.8707 9.47361 43.5499 9.57895C42.877 9.79921 42.5953 9.95244 42.6579 10.0769C42.6814 10.1248 42.8848 10.1248 43.1039 10.0961C43.4795 10.029 43.5029 10.0386 43.4012 10.1823C43.276 10.3738 43.2917 10.3738 43.5968 10.2589C43.722 10.211 43.9333 10.144 44.0585 10.1057L44.2932 10.0482L44.0193 10.4025C43.7846 10.6994 43.7768 10.7377 43.9411 10.6324C44.0506 10.5653 44.2775 10.393 44.4497 10.2493C44.6218 10.1057 44.8487 9.94286 44.9583 9.87582L45.1539 9.76091L44.9583 9.93328C44.5827 10.2685 44.2932 10.6132 44.348 10.6802C44.3793 10.7186 44.4966 10.6611 44.6218 10.5558C44.7392 10.46 44.9974 10.278 45.193 10.1631L45.5451 9.94286L45.1773 10.3451C44.7783 10.776 44.6531 11.1208 44.9817 10.9101C45.0756 10.843 45.4121 10.5653 45.7329 10.2876C46.0458 10.0003 46.3432 9.77048 46.3979 9.77048C46.4449 9.77048 46.3432 9.8854 46.171 10.0195C45.7876 10.3259 45.4277 10.7377 45.4277 10.843C45.4277 10.8909 45.506 10.8622 45.5999 10.7856C45.8346 10.5845 45.9206 10.5941 45.8189 10.8143C45.6859 11.1303 45.725 11.1303 46.0771 10.843C46.6092 10.4025 46.6405 10.393 46.4292 10.7377C46.1006 11.2836 46.085 11.3602 46.3745 11.1016C46.5153 10.9675 46.7187 10.8047 46.8204 10.7377C46.9848 10.6324 46.9926 10.6324 46.9535 10.8909C46.9222 11.0346 46.93 11.1112 46.9691 11.0633C47.0004 11.0058 47.0943 10.9101 47.1647 10.843C47.2743 10.7281 47.2899 10.7377 47.2508 10.9197C47.2038 11.1303 47.2117 11.1303 47.4542 10.9675C47.7124 10.8143 47.7124 10.8143 47.6576 11.025C47.595 11.2453 47.6029 11.2453 47.8063 11.0729C48.0176 10.9101 48.0176 10.9101 47.9393 11.1016C47.822 11.3698 47.8298 11.4942 47.9706 11.4368C48.0332 11.3985 48.088 11.4176 48.088 11.4751C48.088 11.523 47.9315 11.6379 47.7437 11.7241C47.4151 11.8773 46.6327 12.6243 46.7109 12.7105C46.7266 12.7296 46.8517 12.6817 46.9926 12.5955C47.3681 12.3561 47.3603 12.4902 46.9769 12.7679C46.7891 12.902 46.5544 13.1318 46.4449 13.2755L46.2493 13.534L46.5309 13.3329C46.9378 13.0265 46.9926 13.0744 46.617 13.4095C46.4371 13.5628 46.2571 13.783 46.2023 13.8979L46.1163 14.1086L46.351 13.9075C46.7422 13.5628 46.7109 13.6681 46.2493 14.214C45.7876 14.7694 45.6781 15.0567 46.038 14.779C46.2101 14.6449 46.1867 14.7024 45.9206 15.0567C45.6311 15.4493 45.2712 16.158 45.2712 16.3399C45.2712 16.3782 45.4121 16.2059 45.592 15.9569C45.7642 15.7175 45.9441 15.5164 45.9754 15.5164C46.0145 15.5164 45.9441 15.7558 45.8111 16.0526C45.6859 16.3495 45.5842 16.7038 45.592 16.8475C45.592 17.0677 45.6155 17.039 45.7485 16.6751C45.9285 16.1771 46.0224 16.2059 45.905 16.7326C45.8581 16.9337 45.8189 17.2497 45.8268 17.4316C45.8346 17.7381 45.8424 17.7189 45.9754 17.2018C46.1632 16.474 46.2884 16.3112 46.2884 16.79C46.2884 16.9816 46.3197 17.1444 46.3666 17.1444C46.484 17.1444 46.5779 16.8475 46.6248 16.292C46.6561 16.0048 46.7187 15.727 46.7657 15.6696C46.8361 15.593 46.8439 15.6313 46.8048 15.8324C46.7735 15.976 46.7813 16.1484 46.8048 16.2059C46.8361 16.2729 46.9222 16.0239 47.0004 15.6504L47.1334 14.9896L47.1021 15.7079L47.0708 16.4261L47.2273 16.0431C47.3055 15.8324 47.4151 15.4206 47.462 15.1333C47.6342 14.1086 47.6889 14.0033 47.642 14.7981C47.5794 15.909 47.775 15.6121 47.8689 14.4534C47.955 13.3521 48.041 13.1989 47.9941 14.2044C47.9628 14.9705 48.0567 15.1429 48.2053 14.597C48.2992 14.2235 48.3227 14.2044 48.4009 14.3672C48.4557 14.4725 48.487 14.4438 48.5496 14.2427C48.5966 14.0895 48.6357 13.9171 48.6357 13.8405C48.6357 13.7639 48.6748 13.6777 48.7217 13.6394C48.7765 13.6011 48.7922 13.6394 48.7609 13.7543C48.5809 14.4821 48.2992 16.4261 48.1662 17.9105C48.0489 19.1075 48.0489 22.2869 48.1662 23.5606C48.2758 24.8247 48.6513 27.1326 48.8939 28.0232L49.0738 28.7127L48.8391 28.5308C48.4479 28.2435 48.354 28.3009 48.5966 28.6936L48.8078 29.0287L48.3305 28.9617C47.8298 28.8947 47.6968 29.0096 48.0254 29.2203C48.174 29.316 48.1427 29.3448 47.6498 29.5363C46.4918 29.9864 45.5138 30.8578 44.9426 31.9304C44.7783 32.2368 44.6453 32.5337 44.6453 32.5816C44.6453 32.6199 49.3555 32.6582 55.1064 32.6582C60.8572 32.6582 65.544 32.6391 65.5283 32.6103C65.5049 32.5912 64.6442 32.4188 63.6192 32.2273C60.4425 31.6431 58.0953 31.0206 55.388 30.0438C54.8638 29.8523 54.1127 29.6225 53.7215 29.5267C53.3146 29.4309 53.0251 29.3256 53.0408 29.2681C53.0564 29.2107 53.1894 29.0862 53.3381 29L53.6041 28.8372L53.3303 28.8276H53.0564L53.2911 28.6744C53.5885 28.4829 53.6511 28.4063 53.432 28.4829C53.3068 28.5308 53.252 28.5116 53.252 28.4158C53.252 28.2818 53.9327 27.7742 54.1049 27.7742C54.1596 27.7742 54.2692 27.9657 54.3552 28.2052C54.4413 28.435 54.5508 28.6552 54.6056 28.7031C54.6604 28.7414 54.6604 28.7031 54.59 28.6074C54.4961 28.4541 54.4961 28.4446 54.6291 28.502C54.7073 28.5308 54.856 28.6074 54.9499 28.6648C55.0516 28.7223 55.1533 28.7414 55.1768 28.7031C55.255 28.6074 55.1298 28.4446 54.9734 28.4446C54.8325 28.4446 54.5821 28.0232 54.5821 27.7934C54.5821 27.7359 54.6995 27.4773 54.8403 27.2092C55.0751 26.7495 55.1064 26.7208 55.3646 26.7783C55.5132 26.807 55.701 26.9219 55.7793 27.0368L55.9201 27.2475L55.834 27.0272C55.7636 26.8453 55.7714 26.7591 55.8653 26.5772C55.9514 26.4144 55.9905 26.1462 55.9749 25.6482L55.967 24.9492L55.9201 25.6961C55.881 26.2899 55.8419 26.4814 55.7245 26.5867C55.5289 26.7495 55.5054 26.7495 55.1611 26.5772C54.9968 26.491 54.8951 26.3856 54.9186 26.3186C54.9342 26.2516 54.9968 26.2037 55.0516 26.2228C55.1377 26.2516 55.1377 26.2228 55.0516 26.1079C54.9968 26.0217 54.9108 25.9547 54.8482 25.9547C54.6291 25.9547 54.6526 25.7344 54.9029 25.4854L55.1611 25.2173L54.9734 25.0928C54.8638 25.0258 54.7386 24.9013 54.6839 24.8151C54.6291 24.7289 54.5821 24.7097 54.5821 24.7672C54.5821 24.8247 54.4804 24.9013 54.3474 24.93C54.0814 24.997 53.878 25.3993 53.878 25.8685C53.878 26.0409 53.8154 26.2611 53.7449 26.3665C53.5885 26.5867 53.7293 26.5197 53.9797 26.2611C54.097 26.1271 54.1127 26.1366 54.1127 26.3282C54.1127 26.5293 54.0501 26.625 53.4711 27.2667C53.3146 27.439 53.1894 27.6306 53.1972 27.6976C53.2051 28.0328 53.1659 28.253 53.0955 28.253C53.0095 28.253 52.986 27.937 53.0721 27.8317C53.1503 27.7359 53.1581 27.3912 53.0799 27.3912C53.0486 27.3912 53.0173 27.4773 53.0173 27.5731C53.0173 27.6784 52.986 27.7934 52.939 27.8221C52.7747 27.9466 52.8686 27.2379 53.0642 26.8836C53.299 26.4527 53.4007 26.4814 53.2207 26.9219C53.0955 27.2284 53.1112 27.4103 53.252 27.2379C53.2911 27.19 53.3381 26.9889 53.3459 26.7878C53.3616 26.5963 53.3929 26.4335 53.432 26.4335C53.4633 26.4335 53.4867 26.2707 53.4867 26.06C53.4867 25.8589 53.5337 25.6482 53.5885 25.5908C53.6432 25.5333 53.698 25.3418 53.7058 25.1694L53.7215 24.8534L53.4476 25.2269C53.299 25.4376 53.1581 25.5812 53.1347 25.5621C53.0016 25.3897 54.0266 21.358 54.6291 19.7013C55.2003 18.1211 56.1861 16.0048 56.2878 16.1292C56.3035 16.158 56.3974 16.1292 56.4835 16.0814C56.6165 15.9856 56.6165 16.0143 56.4443 16.292C56.147 16.7804 56.1001 16.9241 56.3191 16.6847C56.593 16.3782 56.6556 16.4261 56.4365 16.7804C56.28 17.039 56.2174 17.4029 56.2957 17.604C56.2957 17.6136 56.3974 17.5466 56.5147 17.4604C56.7417 17.2784 56.726 17.3838 56.4756 17.7381C56.4209 17.8243 56.3896 17.9488 56.4209 18.0062C56.4522 18.0637 56.4443 18.1595 56.3974 18.2265C56.3583 18.2935 56.3035 18.4276 56.2722 18.5234C56.2252 18.7053 56.2252 18.7053 56.3661 18.5521C56.5695 18.3223 56.6478 18.351 56.5069 18.6C56.2878 18.9735 56.3739 19.0118 56.6556 18.6766C56.8042 18.5042 56.9451 18.3797 56.9686 18.3989C56.9842 18.4276 56.8434 18.6383 56.6556 18.8681C56.46 19.0979 56.3035 19.3374 56.3035 19.3852C56.3035 19.4427 56.3426 19.4331 56.3974 19.3661C56.5539 19.1746 56.6008 19.232 56.5695 19.5576C56.546 19.797 56.5617 19.8353 56.6321 19.7491C56.6869 19.6821 56.7495 19.6342 56.773 19.6342C56.8434 19.6342 56.8121 20.1035 56.7338 20.3429C56.6086 20.7068 56.8277 20.4099 56.9686 20.0077C57.0937 19.6821 57.125 19.6438 57.172 19.7875C57.2111 19.9215 57.2424 19.8545 57.2894 19.5385C57.3441 19.1458 57.3598 19.1267 57.4145 19.3469C57.4537 19.5002 57.4615 19.3852 57.4537 18.983C57.438 18.6574 57.438 18.3893 57.4537 18.3893C57.4615 18.3893 57.5084 18.5329 57.5554 18.6957C57.6258 18.9926 57.6336 18.983 57.5945 18.5808C57.5554 18.1595 57.5554 18.1595 57.6806 18.3893C57.7979 18.6287 57.7979 18.6287 57.7588 18.2456C57.7197 17.8913 57.7275 17.8817 57.8292 18.0445C57.9701 18.2744 57.9857 18.169 57.8527 17.8817C57.7745 17.6806 57.7745 17.6806 57.9075 17.8147C58.0405 17.9488 58.0483 17.9488 57.9466 17.7189C57.8918 17.5849 57.7745 17.3455 57.6962 17.1922C57.571 16.9624 57.5945 16.9816 57.8058 17.2688C58.0561 17.6136 58.0718 17.6232 58.064 17.3933C58.064 17.2688 58.0327 17.1252 58.0014 17.0869C57.9701 17.039 57.9622 17.0869 57.9857 17.1922C58.0248 17.3455 58.0248 17.355 57.9622 17.2401C57.9153 17.1635 57.8996 17.0677 57.9231 17.0294C57.9388 16.9816 57.8684 16.7996 57.7588 16.6176L57.5476 16.292L57.7901 16.4548C57.9153 16.541 58.0248 16.6943 58.0248 16.79C58.0248 16.9145 58.064 16.9528 58.1657 16.9145C58.2987 16.8571 58.3065 16.9049 58.2752 17.4412C58.2517 17.8626 58.2674 18.0158 58.33 17.9679C58.3848 17.92 58.4161 17.9775 58.4161 18.1211C58.4239 18.3318 58.4239 18.3318 58.5334 18.1595C58.643 17.9871 58.6508 17.9871 58.6508 18.1403C58.6508 18.2361 58.6899 18.2744 58.7368 18.2361C58.7994 18.1882 58.8151 18.2935 58.7916 18.5712C58.7681 18.9447 58.8307 19.0979 58.909 18.8394C58.9403 18.7628 58.9559 18.7723 58.9638 18.8681C58.9638 18.9639 59.0107 18.9256 59.0811 18.7723L59.1985 18.5329L59.1515 18.8202C59.1281 18.9735 59.0889 19.1937 59.0655 19.2991C59.0342 19.4619 59.0576 19.4523 59.1907 19.2512L59.355 19.0118L59.3628 19.5385C59.3706 19.979 59.3863 20.0173 59.4332 19.7779L59.4958 19.4906L59.5036 19.7779L59.5193 20.0652L59.6288 19.7779C59.7305 19.4906 59.7305 19.5002 59.7384 20.0652C59.7462 20.477 59.7697 20.6014 59.8244 20.4961C59.8635 20.4195 59.9027 20.2184 59.9027 20.0652C59.9027 19.8353 59.9183 19.8066 59.9887 19.9215C60.0513 20.0269 60.0592 19.9119 60.02 19.4906C59.8948 17.9392 58.4865 15.6792 57.4615 15.3727C57.3207 15.3248 57.2659 15.2578 57.2972 15.162C57.3363 15.0471 57.3519 15.0471 57.4067 15.1524C57.4615 15.2482 57.4771 15.2482 57.4771 15.1429C57.4771 15.0375 57.5084 15.0567 57.5945 15.1908C57.704 15.3727 57.704 15.3727 57.7119 15.1812C57.7119 15.0184 57.7353 15.0375 57.8684 15.2769C58.0092 15.5451 58.0248 15.5451 58.0248 15.344C58.0248 15.2291 58.064 15.1333 58.1031 15.1333C58.15 15.1333 58.1813 15.2195 58.1813 15.3152C58.1813 15.5259 58.3848 15.66 58.4473 15.4876C58.4865 15.4014 58.5021 15.4014 58.5412 15.4972C58.5647 15.5547 58.6195 15.593 58.6586 15.5547C58.6977 15.5259 58.729 15.593 58.729 15.7079C58.729 15.8228 58.7681 15.8803 58.8073 15.8515C58.8542 15.8228 58.8855 15.8898 58.8855 16.0143C58.8933 16.2346 58.8933 16.2346 59.0107 16.0431C59.1281 15.8611 59.1281 15.8611 59.0811 16.1101C59.042 16.2729 59.0576 16.3782 59.1046 16.3782C59.1515 16.3782 59.1985 16.4548 59.2141 16.541C59.2376 16.6751 59.2767 16.6368 59.3784 16.3974C59.4567 16.2346 59.5271 16.0909 59.5428 16.0909C59.5584 16.0909 59.5506 16.3208 59.5349 16.5889C59.5115 16.9816 59.5271 17.0486 59.5897 16.8762C59.6992 16.5698 59.7697 16.6176 59.7071 16.9528C59.6445 17.288 59.7149 17.3359 59.8244 17.0199C59.887 16.8475 59.9027 16.8858 59.8792 17.2114C59.8557 17.6998 59.9261 17.7381 60.0435 17.3072C60.1296 17.0103 60.1296 17.0199 60.0905 17.4316C60.0513 17.8339 60.0592 17.853 60.1765 17.6806C60.2861 17.4987 60.2939 17.5083 60.3017 17.8722L60.3095 18.2456L60.4034 17.8147C60.4817 17.4891 60.513 17.4316 60.5443 17.5753C60.5756 17.7094 60.5912 17.6711 60.599 17.4508C60.6069 17.2688 60.6382 17.1539 60.6851 17.1922C60.8025 17.2784 60.779 17.1827 60.6069 16.7326L60.4425 16.3304L60.646 16.5985C60.8572 16.8954 60.9198 16.7421 60.7164 16.3974C60.6538 16.2825 60.6225 16.1484 60.646 16.0909C60.6695 16.0431 60.5443 15.8707 60.3721 15.7175C60.1922 15.5642 60.0983 15.4206 60.153 15.4014C60.2626 15.3536 59.0107 14.5587 58.8386 14.5587C58.7838 14.5587 58.6977 14.4725 58.6508 14.3672C58.5491 14.1278 58.6273 14.1182 58.8307 14.3385C58.9168 14.4342 58.9638 14.4534 58.9325 14.3863C58.8464 14.2044 58.9716 14.2523 59.1828 14.4821C59.3706 14.6928 59.3784 14.6928 59.3237 14.5108C59.2845 14.3576 59.3002 14.3576 59.441 14.5587C59.5584 14.7311 59.5897 14.7502 59.5584 14.6257C59.5193 14.4629 59.5349 14.4725 59.7227 14.6449C59.9966 14.9226 60.0357 14.8364 59.8244 14.3959L59.6523 14.032L60.067 14.5108C60.3956 14.9035 60.4425 14.9322 60.2939 14.6736C60.2 14.5012 60.1374 14.3289 60.1609 14.3097C60.1843 14.281 60.3017 14.4342 60.4191 14.6545C60.5443 14.8747 60.6538 15.0088 60.6695 14.9513C60.6851 14.8843 60.7555 14.8939 60.8651 14.9896C61.1546 15.2386 61.1546 15.1524 60.8807 14.7694C60.5677 14.3576 60.5286 14.214 60.7868 14.3768C60.8807 14.4438 61.0294 14.5012 61.1154 14.5108C61.2015 14.5204 61.3423 14.5587 61.4284 14.6066C61.5145 14.6449 61.4597 14.5683 61.3032 14.4342C61.1467 14.3001 60.9198 14.1565 60.8103 14.1182C60.6773 14.0799 60.6147 14.0033 60.6382 13.9362C60.6773 13.8022 60.3252 13.6106 60.0279 13.5915C59.8635 13.5915 59.8635 13.5819 60.02 13.4957C60.1374 13.4287 60.0826 13.4191 59.8088 13.4478C59.3941 13.4861 59.3471 13.4478 59.6132 13.3042C59.7618 13.2276 59.7462 13.218 59.5115 13.2563C59.3628 13.2755 59.1672 13.3233 59.0811 13.3617C58.9716 13.4 58.9872 13.3808 59.1202 13.2755C59.2376 13.1893 59.2689 13.1318 59.1985 13.1318C59.1359 13.1318 58.9403 13.2372 58.7681 13.3617C58.4004 13.6394 58.3378 13.6489 58.3378 13.4574C58.3378 13.3617 58.4161 13.3138 58.5569 13.3042C58.7447 13.3042 58.7525 13.2946 58.6117 13.218C58.463 13.1414 58.463 13.1318 58.6351 13.1318C58.7368 13.1222 58.7994 13.0839 58.776 13.0361C58.7525 12.9882 58.7838 12.9211 58.8542 12.8924C58.9168 12.8637 58.9559 12.7966 58.9325 12.7488C58.909 12.7009 59.0029 12.6434 59.1437 12.6051C59.3393 12.5572 59.3706 12.5189 59.2767 12.4519C59.1828 12.3753 59.2063 12.3561 59.3706 12.3561C59.574 12.3561 59.7775 12.1646 59.574 12.1646C59.5115 12.155 59.5271 12.1071 59.621 12.0209C59.6992 11.9539 59.7384 11.8486 59.7149 11.7911C59.6836 11.7432 59.7305 11.6475 59.801 11.59C59.9261 11.4942 59.9261 11.4847 59.7697 11.523C59.6679 11.5517 59.5897 11.523 59.5897 11.4655C59.5897 11.4081 59.5036 11.4655 59.3863 11.5996C59.2454 11.7624 59.2063 11.7815 59.2454 11.657C59.3315 11.3793 59.2141 11.4751 59.0029 11.8486C58.8933 12.0497 58.8073 12.1742 58.8073 12.1263C58.8073 12.0784 58.7525 12.0976 58.6899 12.1646C58.6273 12.2316 58.5725 12.2508 58.5725 12.2125C58.5725 12.1742 58.5178 12.1933 58.4552 12.2604C58.3926 12.3274 58.3378 12.3465 58.3378 12.2987C58.3378 12.2508 58.2987 12.2795 58.2517 12.3561C58.1813 12.471 58.1735 12.4615 58.2048 12.2795C58.2596 11.9922 58.1422 12.0976 58.0248 12.4519C57.9544 12.6721 57.9075 12.72 57.8605 12.6243C57.8136 12.5477 57.7901 12.5381 57.7901 12.6051C57.7901 12.7488 57.1563 13.9075 57.1094 13.8501C57.0937 13.8309 57.125 13.6873 57.1876 13.534C57.2502 13.3904 57.3285 13.1605 57.3598 13.0265C57.4145 12.8062 57.4145 12.7966 57.2737 12.9307C57.1955 13.0169 57.2268 12.9211 57.3441 12.7296C57.4615 12.5381 57.571 12.2412 57.5945 12.0784C57.6101 11.9156 57.6493 11.6954 57.6727 11.5804C57.704 11.4655 57.6962 11.3985 57.6571 11.4272C57.618 11.4559 57.5945 11.3506 57.618 11.1782C57.6493 10.8814 57.6493 10.8814 57.5241 11.0633C57.3989 11.2453 57.3911 11.2357 57.438 10.843C57.4771 10.5845 57.4615 10.4408 57.4067 10.4408C57.3598 10.4408 57.3207 10.3738 57.3207 10.2876C57.3207 10.211 57.2894 10.1631 57.2502 10.1918C57.2189 10.2206 57.1407 10.1248 57.0937 9.99074C57.0233 9.81837 56.9764 9.77048 56.9373 9.8471C56.8981 9.93328 56.8434 9.91413 56.7338 9.77048C56.5226 9.48319 56.4209 9.54065 56.6086 9.82794C56.7886 10.1057 56.8355 10.3642 56.6791 10.1727C56.5147 9.97159 56.4287 10.0482 56.5852 10.2685C56.7338 10.4696 56.7338 10.4696 56.5773 10.4025C56.4443 10.3451 56.4443 10.3642 56.6086 10.5749C56.726 10.7281 56.7573 10.8239 56.7025 10.8239C56.6165 10.8239 56.6165 10.8526 56.7025 10.9867C56.7964 11.1208 56.7964 11.1303 56.7025 11.0729C56.6399 11.025 56.6556 11.092 56.7417 11.2644C56.8747 11.5134 56.8747 11.5326 56.7495 11.4081C56.5773 11.2453 56.5773 11.3793 56.7495 11.6092C56.8277 11.7241 56.8434 11.7815 56.7808 11.7815C56.7182 11.7815 56.726 11.8486 56.8042 11.9922C56.9451 12.2316 56.9686 12.3944 56.8512 12.3082C56.8042 12.2699 56.7964 12.3657 56.8199 12.5477C56.8825 12.9116 56.7338 12.9403 56.6556 12.5668C56.5695 12.1167 55.9514 10.6036 55.7245 10.2685C55.5993 10.0961 55.4272 9.90455 55.3333 9.8471L55.169 9.74175L55.3255 9.96201L55.4819 10.1918L55.2472 9.99074C55.122 9.8854 54.9577 9.77048 54.8951 9.74175C54.8091 9.70345 54.8169 9.6843 54.9264 9.6843C55.0438 9.67472 55.0516 9.64599 54.9734 9.53107C54.9186 9.45446 54.8403 9.38742 54.8012 9.38742C54.7621 9.38742 54.6213 9.29166 54.4961 9.16717C54.277 8.97564 54.1753 8.95648 53.3459 8.96606C52.6182 8.97564 52.2818 9.0331 51.7263 9.22462C51.3429 9.3587 51.0143 9.45446 50.9986 9.43531C50.983 9.42573 51.1786 9.31081 51.4211 9.18632L51.8749 8.95648L51.6011 8.89902C51.3742 8.84157 51.3898 8.83199 51.7498 8.82241C51.9767 8.82241 52.1488 8.78411 52.1331 8.73623C52.1097 8.69792 52.274 8.68834 52.4852 8.7075C52.7278 8.72665 52.8608 8.69792 52.8295 8.64046C52.806 8.59258 52.8999 8.51597 53.0408 8.47766C53.2677 8.4202 53.2364 8.40105 52.72 8.28613C52.0001 8.12333 51.9297 8.04672 52.4774 8.03715L52.8999 8.02757L52.5087 7.8935L52.1175 7.75943L52.7043 7.80731C53.2051 7.85519 53.2677 7.84562 53.1425 7.7307C53.0173 7.61578 53.0329 7.6062 53.299 7.63493C53.5885 7.67324 53.5963 7.66366 53.4554 7.52959C53.3068 7.38595 53.3146 7.37637 53.6119 7.36679L53.9171 7.35722L53.6824 7.23272L53.4476 7.09865L53.7371 7.08908C53.8936 7.08908 54.0892 7.06035 54.1675 7.02204C54.277 6.96458 54.2457 6.93585 54.0344 6.89755L53.7606 6.84966L54.1127 6.62941L54.4648 6.40915L54.1909 6.46661C54.0423 6.49534 53.6198 6.5528 53.252 6.60068C52.3287 6.70602 51.8358 7.04119 51.5228 7.77858C51.3272 8.24783 50.6152 9.26293 50.1692 9.70345C49.7311 10.144 49.692 9.99074 50.1066 9.47361C50.3414 9.1959 50.3805 9.10013 50.2866 9.0714C50.2162 9.05225 50.2788 8.99479 50.4353 8.93733C50.5839 8.87987 50.7013 8.79368 50.6935 8.72665C50.6778 8.66919 50.7013 8.62131 50.7326 8.62131C50.7717 8.62131 50.8813 8.53512 50.983 8.42978C51.1395 8.2574 51.1473 8.23825 51.0221 8.23825C50.8813 8.23825 50.8813 8.22867 51.0299 8.0946C51.1082 8.01799 51.1473 7.95096 51.116 7.95096C51.0847 7.95096 51.1473 7.84562 51.2725 7.72112L51.4915 7.49129L51.2725 7.53917C50.9517 7.61578 51.0221 7.49129 51.4133 7.28061C51.8045 7.06992 51.8749 6.90712 51.5541 6.95501C51.4133 6.98374 51.4603 6.93585 51.6872 6.83051C51.8984 6.73475 51.9923 6.65814 51.9219 6.62941C51.8436 6.5911 51.9141 6.51449 52.1175 6.39957L52.4305 6.2272L52.0392 6.28465C51.5776 6.35169 51.6089 6.27508 52.2349 5.85371C52.6182 5.59515 52.6417 5.55684 52.4461 5.55684C52.3287 5.55684 52.094 5.64303 51.9219 5.74837C51.6402 5.92075 51.6167 5.93033 51.6559 5.7771C51.6793 5.68134 51.5307 5.81541 51.3272 6.08355C51.1238 6.34211 50.983 6.50491 51.0143 6.43788C51.0456 6.38042 51.0377 6.32296 50.9908 6.32296C50.9438 6.32296 50.8578 6.44745 50.7874 6.61025C50.7248 6.76348 50.5839 6.99331 50.4744 7.12738C50.3727 7.25188 50.2397 7.55832 50.1927 7.79773C50.1458 8.04672 50.0675 8.26698 50.0284 8.29571C49.9736 8.33401 49.9736 8.27656 50.0128 8.13291C50.0441 8.00842 50.0832 7.81689 50.091 7.71155C50.0988 7.52959 50.1771 7.2423 50.2631 7.05077C50.2866 7.00289 50.2475 6.98374 50.1771 7.02204C50.0675 7.06992 50.0597 7.01246 50.091 6.58152C50.1066 6.30381 50.1066 6.14101 50.0753 6.19847C49.9893 6.43788 49.9267 6.31338 49.9189 5.88244C49.911 5.64303 49.8641 5.39404 49.8093 5.33659C49.7311 5.24082 49.7233 5.2887 49.7546 5.52811C49.7859 5.71007 49.7702 5.84414 49.7311 5.84414C49.6841 5.84414 49.6528 5.74837 49.6528 5.62388C49.645 5.50896 49.5981 5.30786 49.5276 5.17379C49.4181 4.94395 49.4181 4.94395 49.4572 5.31743L49.5042 5.70049L49.3633 5.46108C49.0112 4.86734 48.6826 4.65666 48.9487 5.19294ZM51.5463 10.1535C51.5776 10.1535 51.5776 10.0769 51.5541 9.99074C51.515 9.85667 51.562 9.87582 51.8045 10.0578C52.0236 10.2206 52.1175 10.2493 52.141 10.1631C52.1644 10.0865 52.2114 10.1057 52.2896 10.2397C52.4226 10.4887 52.5244 10.4983 52.5713 10.2685C52.6026 10.1344 52.6182 10.1344 52.6652 10.3163C52.6965 10.4313 52.806 10.5941 52.9156 10.6802C53.1034 10.8335 53.1034 10.8335 53.0251 10.6419C52.8843 10.3355 52.9234 10.2972 53.1425 10.5462L53.3459 10.776L53.2911 10.4887C53.2442 10.211 53.252 10.211 53.3694 10.5366C53.5259 10.9484 53.7762 11.2548 53.8232 11.0825C53.8467 11.0058 53.9014 11.025 53.9953 11.1591C54.1205 11.341 54.1205 11.341 54.0814 11.0154L54.0423 10.6802L54.1909 11.0633L54.3396 11.4464L54.3474 11.0633L54.3631 10.6802L54.4726 11.1016C54.6056 11.6379 54.7386 11.8198 54.7465 11.4847C54.7465 11.2836 54.7621 11.3027 54.856 11.59L54.9577 11.9252L54.9734 11.59L54.9812 11.2548L55.0907 11.5804C55.2081 11.8965 55.1846 12.1167 55.0438 12.0114C55.0047 11.9826 54.9264 12.088 54.8716 12.2508L54.7699 12.5477L54.3083 11.9731C53.9875 11.5709 53.6511 11.2836 53.2129 11.025C52.6104 10.6611 51.7967 10.3451 51.4603 10.3451C51.3742 10.3451 51.2646 10.2589 51.2177 10.1631C51.1003 9.87582 51.1238 9.83752 51.3116 10.0003C51.4055 10.0865 51.515 10.1535 51.5463 10.1535ZM51.4524 11.7528C51.4603 12.0114 51.4603 12.0114 51.5698 11.839C51.6872 11.657 51.6872 11.657 51.6872 11.8869C51.6872 12.0114 51.7263 12.1837 51.7654 12.2604C51.8202 12.3753 51.8436 12.337 51.8436 12.1167C51.8436 11.9539 51.8828 11.7624 51.9219 11.6858C51.9767 11.5804 52.0001 11.6187 52.0001 11.8486C52.0001 12.0114 52.0236 12.2316 52.0627 12.3274C52.1018 12.4519 52.1331 12.3849 52.1644 12.0688C52.2114 11.6379 52.2114 11.6379 52.227 12.2125C52.2427 12.6338 52.2662 12.7392 52.3131 12.5955C52.3679 12.4519 52.3835 12.4998 52.3913 12.8349L52.407 13.2659L52.5165 12.8445C52.6652 12.2699 52.6887 12.2699 52.6808 12.8349C52.673 13.2946 52.6574 13.3329 52.4461 13.3808C52.3131 13.4191 52.2583 13.467 52.3131 13.5053C52.3757 13.5532 52.3444 13.5915 52.2349 13.6298C52.1097 13.6681 52.0549 13.6298 52.008 13.467C51.9688 13.3521 51.8202 13.0648 51.6715 12.8254C51.5228 12.5955 51.4133 12.3465 51.429 12.2891C51.4446 12.2316 51.4211 12.155 51.382 12.1167C51.2725 12.0401 51.2725 11.4942 51.3742 11.4942C51.4211 11.4942 51.4524 11.6092 51.4524 11.7528ZM49.5746 12.2795C49.3477 12.7296 49.3712 12.8924 49.6215 12.653C49.9189 12.3657 50.0284 12.404 49.7937 12.7105C49.5902 12.9882 49.4181 13.3329 49.4181 13.4766C49.4181 13.5149 49.4651 13.4861 49.5198 13.4095C49.5746 13.3329 49.6998 13.1797 49.8093 13.0744C49.9658 12.9211 49.9502 12.9594 49.7467 13.2755C49.6137 13.4957 49.4651 13.7926 49.4181 13.9458L49.332 14.2235L49.512 14.0224C49.8406 13.6585 49.9267 13.6489 49.7467 13.9937C49.5355 14.3768 49.3164 14.9418 49.3633 14.9992C49.379 15.0184 49.512 14.846 49.6528 14.6066C49.8015 14.3672 50.0049 14.099 50.1145 14.0129L50.3179 13.8501L50.0988 14.1757C49.9815 14.348 49.8093 14.664 49.7154 14.8843L49.5589 15.2769L49.8641 14.913C50.0284 14.7215 50.2005 14.5587 50.2397 14.5587C50.2866 14.5587 50.2631 14.6162 50.2005 14.6832C50.0519 14.8173 49.8093 15.2386 49.8093 15.344C49.8093 15.3919 49.8954 15.3536 50.0049 15.2674C50.224 15.095 50.2788 15.2291 50.0675 15.4302C49.9189 15.5834 49.6607 16.2537 49.6528 16.5027C49.6528 16.6272 49.7389 16.5698 49.9658 16.2729C50.3101 15.8228 50.4353 15.8228 50.2475 16.2729C50.0675 16.6847 50.091 16.8283 50.2866 16.5315C50.3805 16.3878 50.4666 16.292 50.4822 16.3112C50.4979 16.3304 50.4196 16.656 50.3101 17.0486C50.1849 17.4987 50.1223 17.8913 50.1379 18.1882L50.1614 18.6287L50.2944 18.3414L50.4196 18.0541L50.3805 18.6479C50.357 18.983 50.3648 19.2512 50.404 19.2512C50.5057 19.2512 50.9047 18.1786 50.9047 17.9009V17.6711L51.0064 17.9009C51.0534 18.035 51.1473 18.1499 51.2099 18.1786C51.2881 18.2169 51.3038 18.1211 51.2568 17.7094C51.2333 17.4221 51.1786 17.0486 51.1395 16.8762C51.0456 16.4548 51.1708 16.4836 51.3194 16.9241C51.4368 17.2784 51.4368 17.2784 51.4837 17.0486C51.515 16.9145 51.4994 16.5698 51.4603 16.2825C51.382 15.6792 51.4055 15.5738 51.5385 15.9377C51.7028 16.3782 51.7576 16.2059 51.6402 15.593C51.5776 15.2578 51.5307 14.8843 51.5463 14.7502C51.5698 14.5491 51.6089 14.6066 51.828 15.1237C52.0392 15.6504 52.0784 15.6983 52.0784 15.4589C52.0784 15.3057 52.0001 14.9896 51.9141 14.7502C51.828 14.5204 51.781 14.3576 51.8045 14.3863C51.8358 14.4151 51.9219 14.3672 52.008 14.2618C52.1644 14.0703 52.36 14.0129 52.2662 14.1852C52.2427 14.2427 52.3131 14.214 52.4305 14.1182L52.6495 13.9362L52.5009 14.2235L52.3522 14.5108L52.6026 14.2906C52.7356 14.1757 52.8764 14.0799 52.9156 14.0799C52.9469 14.0799 52.9156 14.1278 52.8452 14.1852C52.7669 14.2331 52.6652 14.3768 52.6182 14.4917L52.5244 14.7024L52.72 14.4821C52.9547 14.2235 53.0955 14.2044 52.8999 14.4629C52.7278 14.7024 52.7982 14.7119 53.0799 14.4917C53.2911 14.3289 53.2911 14.3289 53.1581 14.5204C52.986 14.7694 52.9782 14.8556 53.1503 14.779C53.2442 14.7311 53.2598 14.7502 53.2129 14.8556C53.1816 14.9322 53.252 14.8747 53.385 14.7215C53.6198 14.4534 53.8075 14.3576 53.6511 14.5874C53.518 14.7885 53.6511 14.8652 53.8467 14.7024C53.9719 14.6066 54.0814 14.5874 54.2066 14.6449C54.3552 14.7215 54.3631 14.7407 54.2457 14.7407C53.8154 14.7598 52.6339 15.9377 52.5791 16.3878C52.5635 16.5123 52.5322 16.723 52.5009 16.8571C52.4461 17.0869 52.4461 17.0869 52.6026 16.9241C52.6887 16.8379 52.7826 16.79 52.806 16.8283C52.8373 16.8571 52.8608 16.8475 52.8608 16.7996C52.8608 16.7517 52.9312 16.6081 53.0173 16.474L53.1738 16.2346L53.1268 16.5698C53.0877 16.8858 53.0877 16.8954 53.1894 16.6847C53.252 16.5698 53.3224 16.5027 53.3537 16.5315C53.385 16.5698 53.4085 16.5315 53.4085 16.4357C53.4085 16.3495 53.4476 16.3016 53.4867 16.3304C53.5337 16.3591 53.565 16.3304 53.5728 16.2633C53.5728 16.1676 53.5885 16.1676 53.6198 16.2537C53.6667 16.4165 53.831 16.2154 53.9953 15.7941C54.0579 15.6121 54.097 15.5451 54.0736 15.6408C54.0501 15.7462 54.011 15.9377 53.9875 16.0718L53.9406 16.3304L54.1049 16.0431C54.2457 15.8036 54.2692 15.7845 54.2692 15.9473C54.2692 16.1197 54.2848 16.1197 54.4257 15.8994C54.5587 15.6887 54.5821 15.6792 54.5821 15.842C54.5821 15.9473 54.4413 16.1676 54.2692 16.3495C54.097 16.5315 53.9562 16.723 53.9562 16.7804C53.9562 16.8283 53.8701 16.9624 53.7528 17.0677C53.6432 17.1731 53.5728 17.288 53.5963 17.3167C53.6198 17.3359 53.5337 17.5083 53.4007 17.6998C53.2598 17.8913 53.1816 18.0828 53.2129 18.1786C53.2364 18.2552 53.1894 18.4084 53.119 18.5138C53.0173 18.6479 53.0016 18.7149 53.0721 18.7436C53.1425 18.7723 53.1425 18.849 53.0486 19.0118C52.8608 19.3661 52.9547 19.4906 53.1894 19.2033C53.3303 19.0309 53.4085 18.9926 53.432 19.0788C53.4633 19.1554 53.4946 19.1267 53.5259 18.983C53.5572 18.8681 53.6119 18.7723 53.6511 18.7723C53.6902 18.7723 53.7215 18.6862 53.7215 18.5712C53.7215 18.4659 53.7606 18.4084 53.7997 18.4372C53.8467 18.4659 53.878 18.3989 53.8858 18.2744C53.8936 18.0733 53.9014 18.0828 53.9953 18.3414L54.1049 18.6287L54.1127 18.2935C54.1127 18.0733 54.1362 17.9967 54.1831 18.0828C54.2301 18.1786 54.2613 18.1403 54.3005 17.9488C54.3474 17.7381 54.3709 17.7094 54.4335 17.8243C54.4883 17.9296 54.5039 17.92 54.5117 17.7668C54.5196 17.604 54.5274 17.6136 54.5821 17.8147C54.6369 18.0158 54.6447 17.9871 54.6526 17.6232C54.6682 17.221 54.676 17.2018 54.7778 17.3742C54.8873 17.5561 54.8951 17.5466 54.9029 17.2305C54.9108 17.0103 54.9264 16.972 54.9499 17.1156C54.989 17.3838 55.1298 17.4029 55.1298 17.1444C55.1298 17.039 55.169 16.9528 55.2081 16.9528C55.255 16.9528 55.2863 16.8858 55.2863 16.8092C55.2863 16.7421 55.3333 16.6368 55.3959 16.5985C55.4585 16.5602 55.568 16.3782 55.6541 16.1963C55.7323 16.0143 55.8497 15.842 55.9045 15.8228C55.967 15.7941 55.8575 16.0526 55.6619 16.3878C54.9655 17.5944 54.0657 20.046 53.2207 23.0818C52.9782 23.9436 52.7121 24.7385 52.6417 24.8438C52.5557 24.9587 52.5478 24.997 52.6182 24.9492C52.7043 24.8917 52.72 24.9204 52.673 25.1024C52.6495 25.2269 52.6026 25.4567 52.5713 25.6004C52.5087 25.9834 52.2036 25.926 52.1723 25.5237C52.1566 25.2939 52.1644 25.2652 52.2349 25.3801C52.2975 25.4759 52.3131 25.4854 52.2975 25.3993C52.2505 25.1694 52.1175 25.2748 52.1175 25.5333C52.1175 25.744 52.227 25.9068 52.4539 26.0121C52.4931 26.0313 51.828 28.253 51.7732 28.253C51.7498 28.253 51.6793 28.0328 51.6246 27.7551C51.5307 27.2475 51.3429 26.8166 51.2255 26.8166C51.1864 26.8166 51.1708 26.9028 51.1942 27.0081C51.2177 27.123 51.1629 27.305 51.0377 27.4869C50.9282 27.6401 50.7561 27.9466 50.6622 28.1573C50.5605 28.368 50.4587 28.5403 50.4196 28.5403C50.3023 28.5403 50.357 28.2818 50.5448 27.8604C50.6543 27.6306 50.7639 27.1996 50.7874 26.9123C50.8108 26.625 50.8656 26.1558 50.9125 25.8781C50.9595 25.5908 50.983 25.3514 50.9673 25.3226C50.9438 25.3035 50.8578 25.3801 50.7639 25.5046C50.67 25.6291 50.5213 26.1079 50.3961 26.6633C50.2005 27.6114 50.1223 27.8604 50.1223 27.554C50.1223 27.4678 50.0753 27.4199 50.0206 27.4486C49.8484 27.5252 49.3633 25.5621 49.1051 23.7138C48.8626 21.9613 48.7687 19.6534 48.8626 17.6806C48.933 16.2154 49.246 13.0839 49.3868 12.3944C49.4259 12.2125 49.5902 11.9922 49.7076 11.9731C49.7233 11.9731 49.6607 12.1167 49.5746 12.2795Z" fill="white"/>
<path d="M59.707 6.70624C59.6757 6.76369 59.5427 6.85946 59.4097 6.93607C59.1671 7.05099 59.1593 7.07972 59.1437 7.62557C59.1359 7.93202 59.1124 8.38211 59.0811 8.62152C59.042 8.93755 59.0654 9.10035 59.1515 9.24399C59.2689 9.42595 59.2689 9.41637 59.2767 9.02373C59.2767 8.80348 59.3471 8.43957 59.441 8.21931C59.5505 7.95117 59.5975 7.70219 59.574 7.41489C59.5505 7.05099 59.5662 7.01268 59.6679 7.14675C59.7461 7.23294 59.7853 7.50108 59.7931 7.89371C59.8009 8.23847 59.8635 8.6311 59.9339 8.80348C60.0043 8.96628 60.0748 9.10035 60.0826 9.10035C60.0904 9.10035 60.0982 8.61195 60.0982 8.01821C60.0982 7.23294 60.0669 6.87861 59.9887 6.77327C59.8713 6.59132 59.7774 6.57217 59.707 6.70624Z" fill="white"/>
<path d="M57.6336 7.12776C57.5945 7.27141 57.4458 7.46293 57.3128 7.54912C56.906 7.81726 56.6947 8.0471 56.5695 8.35355L56.4443 8.64084L56.7495 8.35355C56.9138 8.19075 57.1955 8.01837 57.3754 7.96091C57.571 7.89388 57.7823 7.73108 57.8997 7.5587C58.0874 7.29056 58.1031 7.28098 58.1031 7.47251C58.1031 7.59701 57.9701 7.83642 57.7979 8.03752C57.5006 8.3727 57.3207 8.75576 57.3207 9.07178C57.3207 9.15797 57.3989 9.09093 57.5006 8.8994C57.5945 8.72703 57.8292 8.44931 58.017 8.29609C58.2283 8.12371 58.4082 7.87472 58.5021 7.62573L58.6508 7.2331V7.57785C58.6508 7.78853 58.5804 8.03752 58.4552 8.23863C58.2361 8.60253 58.1187 9.15797 58.2361 9.30161C58.2909 9.36865 58.33 9.30161 58.3613 9.11009C58.3926 8.94729 58.5334 8.65042 58.6899 8.43973C58.9872 8.03752 59.1046 7.66404 59.0577 7.30014C59.042 7.14691 58.9951 7.09903 58.8933 7.13734C58.7603 7.18522 58.1109 7.0703 57.8527 6.94581C57.751 6.89792 57.6962 6.94581 57.6336 7.12776Z" fill="white"/>
<path d="M63.4079 7.77878C63.1889 7.99903 63.0167 8.08522 62.7037 8.12353C62.4768 8.15226 62.2578 8.22887 62.2108 8.28633C62.1717 8.35336 61.9604 8.42998 61.7492 8.46828C61.5379 8.49701 61.3188 8.57362 61.2562 8.64066C61.0528 8.84176 60.8259 9.50254 60.7868 10.0292C60.7477 10.4793 60.7555 10.5368 60.8729 10.4793C60.9433 10.4506 60.998 10.3165 60.998 10.192C60.998 10.058 61.1467 9.78983 61.4127 9.47381C61.8822 8.89922 62.3047 8.72685 62.6099 8.97583C62.7116 9.05245 62.9776 9.14821 63.2045 9.18652C63.4314 9.2344 63.6661 9.28228 63.7287 9.30143C63.9243 9.36847 63.9009 9.11948 63.6974 8.88007L63.4862 8.65023L63.7053 8.43955C63.8226 8.32463 64.0026 8.20972 64.1043 8.18099C64.1982 8.14268 64.2843 8.06607 64.2843 7.99903C64.2843 7.90327 64.4877 7.87454 65.2075 7.89369C65.7239 7.91285 66.1777 7.95115 66.2247 7.98946C66.2716 8.01819 66.3264 8.00861 66.3577 7.95115C66.3812 7.90327 66.3577 7.85539 66.3029 7.85539C66.2482 7.85539 65.7474 7.7692 65.1841 7.66386C63.8461 7.41487 63.7522 7.42445 63.4079 7.77878Z" fill="white"/>
<path d="M56.7887 22.2881C56.6948 22.3072 56.6323 22.3743 56.6557 22.4222C56.687 22.47 56.6166 22.5466 56.5071 22.6041C56.3975 22.652 56.3036 22.719 56.3036 22.7477C56.3036 22.7861 56.3349 22.7765 56.3819 22.7477C56.4836 22.6711 56.3897 22.9872 56.2489 23.1883C56.1237 23.3798 55.9828 24.3087 56.0767 24.3853C56.1158 24.4141 56.1863 24.6152 56.2332 24.8354C56.2802 25.0557 56.3897 25.3142 56.4679 25.41C56.5462 25.5058 56.6166 25.6398 56.6166 25.726C56.6166 25.8026 56.6714 25.8888 56.7418 25.9271C56.8044 25.9559 56.8435 26.0421 56.82 26.1187C56.7966 26.1953 56.8122 26.224 56.8513 26.1953C56.8983 26.1665 56.9296 26.224 56.9296 26.3389C56.9296 26.4538 56.8983 26.5209 56.8592 26.4826C56.82 26.4538 56.7653 26.473 56.734 26.5305C56.7027 26.5879 56.6557 26.6071 56.6166 26.5783C56.4445 26.4538 56.4679 26.7603 56.6557 27.1529C56.8592 27.5743 56.9452 27.6892 56.9139 27.4785C56.8983 27.4211 56.953 27.354 57.0313 27.3445C57.2034 27.3061 57.399 27.7945 57.399 28.2351C57.399 28.5607 57.5242 28.733 57.7746 28.733C57.9154 28.733 57.9546 28.7713 57.9154 28.8863C57.892 28.9724 57.9076 29.0203 57.9546 29.0012C58.0797 28.9533 58.0641 28.8001 57.9154 28.7139C57.845 28.6756 57.7277 28.599 57.6572 28.5511C57.3286 28.3596 57.4147 26.54 57.7746 25.9559C57.8528 25.8409 57.978 25.6303 58.0719 25.4962C58.1658 25.3525 58.2832 25.1323 58.3379 24.9982C58.4631 24.7013 58.4475 23.9161 58.3067 23.5234C58.2441 23.3606 58.1736 23.1308 58.1423 23.0255C58.1189 22.9105 57.9937 22.7669 57.8685 22.6999C57.7433 22.6424 57.5868 22.5083 57.5086 22.403C57.3834 22.2306 57.18 22.2019 56.7887 22.2881ZM57.2425 23.1021C57.2425 23.1595 57.3364 23.3319 57.446 23.4947C57.6025 23.7245 57.6338 23.849 57.6025 24.0789C57.5555 24.3757 57.4225 24.5385 57.2817 24.4811C57.2425 24.4619 57.2112 24.3757 57.2112 24.2896C57.2269 24.1651 57.2034 24.1555 57.1174 24.2417C57.0313 24.3279 57.0078 24.3183 57 24.1746C57 24.0693 56.9765 24.0406 56.953 24.1076C56.9061 24.2608 56.7261 24.2704 56.6479 24.1172C56.6166 24.0597 56.6557 23.9544 56.734 23.8778C56.8748 23.7629 56.867 23.7533 56.6714 23.7533C56.5305 23.7533 56.4601 23.7054 56.4601 23.6001C56.4601 23.5234 56.4992 23.4851 56.5384 23.5139C56.5853 23.5426 56.6166 23.5234 56.6166 23.4756C56.6166 23.4181 56.5775 23.3702 56.5384 23.3702C56.4053 23.3702 56.7183 23.0159 56.8905 22.968C57.0861 22.9201 57.2425 22.9776 57.2425 23.1021Z" fill="white"/>
<path d="M30.2172 34.6793C29.4504 34.8996 29.0905 35.4838 29.0045 36.6234L28.9575 37.3033L28.5272 37.3512L28.0968 37.399L28.0734 37.9449C28.0499 38.4237 28.0734 38.5003 28.1907 38.5099C28.269 38.5195 28.402 38.5386 28.4881 38.5482C28.5741 38.5578 28.7228 38.5674 28.8167 38.5769L28.9966 38.5961L29.0123 41.5361L29.0358 44.4856L29.5365 44.5143C29.8886 44.5335 30.0607 44.5048 30.0999 44.4186C30.139 44.3515 30.1703 43.0108 30.1703 41.4403C30.1703 39.6208 30.2016 38.5961 30.2485 38.5865C30.2955 38.5769 30.3659 38.5578 30.405 38.5482C30.452 38.5386 30.6945 38.5195 30.9527 38.5099L31.4222 38.5003V37.9258V37.3512H30.7962H30.1703V36.834C30.1703 36.1062 30.3346 35.886 30.9214 35.8189L31.383 35.7711V35.1965V34.6219L30.9527 34.6027C30.718 34.5931 30.3815 34.6315 30.2172 34.6793Z" fill="white"/>
<path d="M81.0439 34.6512C80.9657 34.7183 80.95 35.7717 80.9657 39.6118L80.9891 44.4862L81.5212 44.515L82.0454 44.5437L82.0298 39.5831L82.0063 34.6225L81.576 34.5938C81.3412 34.5842 81.0987 34.6129 81.0439 34.6512Z" fill="white"/>
<path d="M92.1778 34.6889C92.1543 34.7559 92.1465 36.9872 92.1543 39.6495L92.1778 44.4856H92.6864H93.1949V39.5537V34.6218L92.702 34.5931C92.3577 34.574 92.2012 34.6027 92.1778 34.6889Z" fill="white"/>
<path d="M100.761 34.6506C100.683 34.7176 100.667 35.771 100.683 39.6112L100.706 44.4856H102.435H104.165L104.54 44.1983C104.79 44.0068 104.978 43.7674 105.103 43.4896C105.276 43.0874 105.283 42.9821 105.283 40.8944C105.283 38.8068 105.276 38.7014 105.103 38.2992C104.837 37.6959 104.36 37.3607 103.664 37.2841C102.874 37.2075 102.435 37.3128 102.115 37.6576L101.841 37.9449V36.3743C101.841 35.2826 101.809 34.7655 101.747 34.6889C101.645 34.5644 100.917 34.5357 100.761 34.6506ZM103.969 38.7685C104.141 38.9791 104.149 39.0366 104.149 40.904V42.8289L103.93 43.0587C103.726 43.2694 103.648 43.2885 102.772 43.2885H101.841V41.2871C101.841 40.1858 101.872 39.1707 101.919 39.0366C102.044 38.6248 102.349 38.4907 103.108 38.5195C103.703 38.5482 103.82 38.5769 103.969 38.7685Z" fill="white"/>
<path d="M36.242 34.8228C36.1716 35.0431 36.1872 36.1348 36.2655 36.2784C36.3046 36.3646 36.4767 36.3934 36.8288 36.3742L37.3296 36.3455L37.353 35.5028L37.3765 34.6696H36.8288C36.4063 34.6696 36.2811 34.6983 36.242 34.8228Z" fill="white"/>
<path d="M23.8637 35.5132C23.7307 35.6089 21.7042 44.3618 21.7825 44.4576C21.8216 44.5055 22.0798 44.5342 22.3537 44.515L22.8466 44.4863L23.097 43.4808L23.3395 42.4752L24.5992 42.4465L25.8511 42.4274L26.0076 43.069C26.0937 43.4329 26.2032 43.9021 26.258 44.1224L26.3441 44.5342H26.8839C27.3769 44.5342 27.4316 44.515 27.4316 44.3427C27.4316 44.0745 25.4756 35.7047 25.3817 35.5515C25.2956 35.427 24.0202 35.3887 23.8637 35.5132ZM25.1156 39.0181C25.366 40.1194 25.5851 41.0771 25.6086 41.1441C25.6399 41.2495 25.4521 41.2782 24.6149 41.2782C23.8246 41.2782 23.5899 41.2495 23.6134 41.1537C23.6368 41.0962 23.8559 40.1003 24.1141 38.9607C24.3645 37.8115 24.5992 36.9113 24.6227 36.9496C24.6462 36.9879 24.8731 37.9168 25.1156 39.0181Z" fill="white"/>
<path d="M54.8324 35.5508C54.7776 35.6178 54.7385 35.8285 54.7385 36.02C54.7385 36.6808 54.7385 36.6808 55.6853 36.6808H56.5381L56.5538 40.5784L56.5772 44.4856L57.078 44.5143C57.4301 44.5335 57.6022 44.5048 57.6413 44.4186C57.6805 44.3515 57.7118 42.5799 57.7118 40.4827V36.6808H58.5333C59.1279 36.6808 59.3705 36.6425 59.394 36.5563C59.48 36.2594 59.4957 35.8764 59.4331 35.6657L59.3549 35.4359H57.1406C55.521 35.4359 54.9028 35.4646 54.8324 35.5508Z" fill="white"/>
<path d="M87.0843 35.522C86.6931 35.6465 86.294 35.9913 86.0984 36.3744C85.9185 36.7287 85.9185 36.7574 85.9185 39.9942V43.2502L86.1375 43.6524C86.2549 43.8727 86.4975 44.1504 86.6852 44.2653C86.9904 44.4664 87.1156 44.4856 88.3049 44.4856C89.4941 44.4856 89.6193 44.4664 89.9245 44.2653C90.4409 43.9302 90.6678 43.4226 90.7304 42.5128C90.793 41.4116 90.7617 41.3541 90.167 41.3924L89.6741 41.4211L89.6272 42.1298C89.588 42.7523 89.5567 42.8672 89.369 43.0683C89.1734 43.2694 89.0873 43.2885 88.3049 43.2885C87.5146 43.2885 87.4364 43.2694 87.2329 43.0587L87.0139 42.8289V39.9847V37.1405L87.2329 36.9106C87.4364 36.7 87.5224 36.6808 88.2266 36.6808C89.4081 36.6808 89.5646 36.8149 89.635 37.9257L89.6741 38.5482H90.1827H90.6913V37.6289C90.6913 36.7957 90.6756 36.6808 90.48 36.3265C90.347 36.0871 90.1279 35.8572 89.8932 35.7136C89.5567 35.5125 89.4003 35.4837 88.4222 35.4646C87.8198 35.455 87.2173 35.4837 87.0843 35.522Z" fill="white"/>
<path d="M32.3376 37.4086C32.2593 37.5044 32.275 44.2654 32.3532 44.4186C32.3923 44.5048 32.5645 44.5335 32.9166 44.5143L33.4173 44.4856L33.4564 41.8521C33.4799 40.4061 33.5269 39.142 33.5582 39.0558C33.6833 38.7397 33.9728 38.6153 34.5831 38.5865C34.9587 38.5674 35.2091 38.5099 35.2404 38.4429C35.2717 38.3758 35.2795 38.1077 35.2717 37.8396L35.2404 37.3512H34.7787C34.2545 37.3512 33.8868 37.5044 33.6521 37.83L33.4956 38.0407L33.4564 37.7246L33.4173 37.399L32.9087 37.3703C32.6271 37.3512 32.3689 37.3703 32.3376 37.4086Z" fill="white"/>
<path d="M36.2497 37.4086C36.1714 37.5044 36.1871 44.2654 36.2653 44.4186C36.3045 44.5048 36.4766 44.5335 36.8287 44.5143L37.3294 44.4856V40.9423V37.399L36.8209 37.3703C36.5392 37.3512 36.281 37.3703 36.2497 37.4086Z" fill="white"/>
<path d="M39.6769 37.5331C38.9179 37.964 38.7614 38.462 38.7145 40.5592C38.6675 43.0108 38.8475 43.7865 39.583 44.2653C39.8881 44.4664 40.0133 44.4856 41.1635 44.4856H42.4154L42.4388 44.1121C42.4545 43.9014 42.4467 43.6333 42.4232 43.5088C42.3763 43.2885 42.3606 43.2885 41.3513 43.2885H40.3263L40.0994 43.0108L39.8725 42.7331V40.9902C39.8725 39.1707 39.9351 38.7684 40.248 38.6535C40.3185 38.6248 40.8192 38.5769 41.3513 38.5482C41.8833 38.529 42.3528 38.4716 42.3919 38.4237C42.431 38.3758 42.4545 38.1268 42.4388 37.8683L42.4154 37.399L41.2026 37.3799C40.162 37.3607 39.9429 37.3799 39.6769 37.5331Z" fill="white"/>
<path d="M44.4731 37.4476C44.121 37.5721 43.7924 37.9169 43.6046 38.3382C43.4481 38.7117 43.4325 38.8937 43.409 40.7132C43.3777 42.9541 43.4246 43.318 43.8315 43.8638C44.1679 44.3139 44.6531 44.5342 45.3416 44.5342C46.0301 44.5342 46.3979 44.4001 46.6326 44.0554L46.8282 43.7681L46.8517 44.1224L46.8752 44.4863L47.3759 44.515C47.728 44.5342 47.9001 44.5055 47.9393 44.4193C48.0175 44.2756 48.0332 37.7349 47.9627 37.5051C47.9236 37.371 47.7045 37.3518 46.2962 37.3614C45.412 37.3614 44.5905 37.3997 44.4731 37.4476ZM46.7421 38.5776C46.8126 38.6064 46.836 39.0852 46.836 40.5312C46.836 43.1647 46.7813 43.2892 45.5763 43.2892C44.5435 43.2892 44.4496 43.0403 44.4966 40.5216C44.5279 38.9415 44.5826 38.7692 45.0677 38.6064C45.3259 38.5297 46.57 38.501 46.7421 38.5776Z" fill="white"/>
<path d="M49.4336 40.9142L49.4571 44.4862H49.9657H50.4742L50.5134 41.8527C50.5525 39.0851 50.576 38.9127 50.9281 38.6733C51.0219 38.6159 51.3897 38.5584 51.7496 38.5584C52.3521 38.568 52.4147 38.5871 52.6103 38.8266L52.8215 39.0755L52.845 41.8144L52.8685 44.5437L53.3927 44.515L53.9169 44.4862L53.9404 41.7761C53.9639 38.8074 53.9326 38.501 53.557 37.9838C53.1971 37.4763 52.7824 37.3231 51.8591 37.3709C51.0767 37.3997 51.0689 37.3997 50.795 37.7253L50.5134 38.0604V37.7061V37.3518H49.9657H49.418L49.4336 40.9142Z" fill="white"/>
<path d="M60.3486 37.4086C60.2703 37.5044 60.286 44.2654 60.3642 44.4186C60.4033 44.5048 60.5755 44.5335 60.9276 44.5143L61.4283 44.4856L61.4674 41.8521C61.5066 39.0941 61.53 38.9025 61.8743 38.6823C61.9604 38.6248 62.3125 38.5578 62.6489 38.5291L63.267 38.4716V37.9162V37.3512H62.7976C62.2655 37.3512 61.8978 37.5044 61.663 37.83L61.5066 38.0407L61.4674 37.7246L61.4283 37.399L60.9197 37.3703C60.6381 37.3512 60.3799 37.3703 60.3486 37.4086Z" fill="white"/>
<path d="M64.9023 37.62C64.5737 37.8306 64.4485 37.9839 64.2842 38.3574C64.0964 38.8074 64.0886 38.9224 64.0651 40.6557C64.0338 42.8008 64.0964 43.2892 64.4876 43.8447C64.824 44.3235 65.3091 44.5342 66.0994 44.5342C66.6862 44.5342 67.054 44.3905 67.2965 44.0554L67.453 43.8447L67.4921 44.1607L67.5312 44.4863H68.0789H68.6266V40.943V37.3997L66.9757 37.371L65.3248 37.3518L64.9023 37.62ZM67.3435 38.568C67.4843 38.6159 67.4921 38.75 67.4921 40.5791C67.4921 43.1935 67.4452 43.2892 66.2324 43.2892C65.6691 43.2892 65.5908 43.2605 65.4187 43.0498C65.2231 42.82 65.2231 42.8104 65.2231 40.9717C65.2231 38.9128 65.2544 38.7691 65.716 38.6063C65.982 38.5202 67.1009 38.4914 67.3435 38.568Z" fill="white"/>
<path d="M69.5811 37.4182C69.5342 37.514 71.0834 44.2462 71.1929 44.4186C71.2477 44.5048 71.4746 44.5335 71.9832 44.5143L72.6874 44.4856L73.4933 41.0381C73.9314 39.142 74.2913 37.5331 74.2992 37.4661C74.2992 37.3703 74.1583 37.3512 73.7358 37.3703L73.1725 37.399L72.5778 40.2433C72.257 41.8042 71.9675 43.1066 71.9441 43.1449C71.9128 43.1736 71.8032 42.7523 71.6859 42.216C71.5685 41.6701 71.2946 40.3677 71.0677 39.3143L70.6609 37.399L70.1366 37.3703C69.855 37.3512 69.5968 37.3799 69.5811 37.4182Z" fill="white"/>
<path d="M75.9346 37.6198C75.606 37.8305 75.4808 37.9837 75.3165 38.3572C75.1287 38.8073 75.1209 38.9222 75.0896 40.6555C75.0583 42.9156 75.1209 43.3465 75.5825 43.9115C76.0285 44.4574 76.3414 44.534 78.0784 44.534C79.6824 44.534 79.6198 44.5627 79.6198 43.8732C79.6198 43.6817 79.5807 43.471 79.5259 43.404C79.4633 43.3274 79.0174 43.2891 78.0393 43.2891C76.6544 43.2891 76.6388 43.2891 76.451 43.0497C76.2867 42.8486 76.2554 42.7336 76.2554 42.1974V41.5653L77.922 41.5462L79.5807 41.5174L79.6042 40.3204C79.6355 38.8839 79.5416 38.4051 79.1504 37.9263C78.7748 37.4666 78.4071 37.3517 77.2882 37.3517C76.4119 37.3517 76.3258 37.3708 75.9346 37.6198ZM78.2115 38.6924C78.4149 38.8264 78.5401 39.3915 78.5088 40.0331L78.4853 40.5598L77.3743 40.5885L76.2554 40.6172V39.8607C76.2554 38.6636 76.4432 38.4913 77.6481 38.5679C77.875 38.587 78.1332 38.6349 78.2115 38.6924Z" fill="white"/>
<path d="M94.6737 37.4859C94.6502 37.5625 94.6424 38.8266 94.658 40.2918C94.6815 42.753 94.6972 42.9828 94.8458 43.385C95.1588 44.2277 95.6517 44.5342 96.6767 44.5342C97.3105 44.5342 97.8425 44.3139 97.999 43.9883C98.0694 43.8351 98.0772 43.8351 98.0851 44.0554C98.0929 44.4863 98.179 44.5438 98.7188 44.515L99.2196 44.4863V40.943V37.3997H98.6719H98.1242L98.0851 40.1003C98.0459 42.753 98.0459 42.8104 97.866 43.0211C97.7173 43.203 97.5921 43.2414 97.0601 43.2797C96.4029 43.3084 96.0273 43.1935 95.9178 42.9253C95.8865 42.8296 95.8395 41.5559 95.816 40.0811L95.7769 37.3997L95.2449 37.371C94.838 37.3518 94.705 37.371 94.6737 37.4859Z" fill="white"/>
<path d="M83.4303 42.3986C83.3599 42.4752 83.3599 44.1798 83.4225 44.381C83.4616 44.4959 83.5868 44.5342 84.0093 44.5342H84.5492V43.4329V42.3316H84.0171C83.7198 42.3316 83.4538 42.3603 83.4303 42.3986Z" fill="white"/>
<path d="M48.3773 47.272C48.346 47.3103 48.3226 47.521 48.3226 47.7412V48.1434L47.9001 48.0956C47.548 48.0573 47.4541 48.086 47.3132 48.2584C47.1724 48.4307 47.1489 48.5744 47.1489 49.2256C47.1489 50.279 47.2272 50.3748 48.127 50.3556L48.792 50.346L48.7764 48.8042C48.7529 47.339 48.7451 47.2624 48.5964 47.2337C48.5025 47.2145 48.4086 47.2337 48.3773 47.272ZM48.2287 48.5457C48.2991 48.5935 48.3226 48.8138 48.3069 49.2831C48.2834 49.8959 48.2678 49.9438 48.0957 49.9726C48.0018 49.9917 47.8296 49.9821 47.7279 49.9534C47.5558 49.8959 47.5401 49.8481 47.5401 49.2926C47.5401 48.9479 47.5793 48.6414 47.634 48.5744C47.7436 48.4403 48.08 48.4212 48.2287 48.5457Z" fill="white"/>
<path d="M69.7612 48.7947V50.3748H69.9568C70.1524 50.3748 70.1524 50.3653 70.1524 49.513C70.1524 48.6894 70.1603 48.6415 70.3402 48.5457C70.4498 48.4787 70.6219 48.4596 70.7314 48.4979C70.9349 48.5553 70.9349 48.5745 70.9349 49.4651C70.9349 50.3748 70.9349 50.3748 71.1305 50.3748C71.3574 50.3748 71.3417 50.4132 71.3417 49.2736C71.3339 48.5074 71.3183 48.3925 71.1696 48.2489C70.974 48.0573 70.5358 48.019 70.3011 48.1723C70.1603 48.268 70.1524 48.2393 70.1524 47.7413C70.1524 47.2434 70.1446 47.2146 69.9568 47.2146H69.7612V48.7947Z" fill="white"/>
<path d="M89.0089 47.7415C89.0089 48.2394 89.0011 48.2682 88.8603 48.1724C88.5786 47.9905 88.1561 48.0575 87.9527 48.3161C87.7806 48.5172 87.7571 48.6321 87.7571 49.2067C87.7571 50.0973 87.9214 50.375 88.4534 50.375C88.6569 50.375 88.8603 50.3271 88.9151 50.2601C88.9855 50.1739 89.0089 50.1739 89.0089 50.2601C89.0089 50.3271 89.095 50.375 89.2046 50.375H89.4002V48.7949V47.2148H89.2046C89.0168 47.2148 89.0089 47.2435 89.0089 47.7415Z" fill="white"/>
<path d="M93.9382 48.7949V50.375H94.126C94.2277 50.375 94.3295 50.3175 94.3529 50.2505C94.4155 50.059 94.4233 47.5595 94.3608 47.3776C94.3373 47.2914 94.2277 47.2148 94.126 47.2148H93.9382V48.7949Z" fill="white"/>
<path d="M26.4927 48.9385V50.375H27.1969C27.8463 50.375 27.901 50.3654 27.901 50.1835C27.901 50.0111 27.8463 49.9919 27.3925 49.9919H26.8839V49.561V49.1396L27.3299 49.1109C27.6898 49.0918 27.7915 49.0439 27.8072 48.9098C27.8306 48.7662 27.768 48.747 27.3612 48.747H26.8839V48.3161V47.8851H27.3925C27.8463 47.8851 27.901 47.866 27.901 47.6936C27.901 47.5117 27.8463 47.5021 27.1969 47.5021H26.4927V48.9385Z" fill="white"/>
<path d="M55.208 47.8376C55.208 48.0099 55.1689 48.077 55.0515 48.077C54.9498 48.077 54.895 48.144 54.895 48.2685C54.895 48.393 54.9498 48.46 55.0515 48.46C55.1923 48.46 55.208 48.5271 55.208 49.207C55.208 49.8678 55.2315 49.9827 55.388 50.1646C55.6383 50.4519 56.1469 50.4615 56.1469 50.1838C56.1469 50.0497 56.0921 49.9923 55.9591 49.9923C55.6696 49.9923 55.5914 49.7816 55.6149 49.1112L55.6383 48.5079L55.8965 48.4792C56.2486 48.4313 56.2173 48.1344 55.8496 48.0961C55.6462 48.0674 55.5992 48.0291 55.5992 47.828C55.5992 47.646 55.5601 47.5982 55.4036 47.5982C55.2471 47.5982 55.208 47.646 55.208 47.8376Z" fill="white"/>
<path d="M68.4311 47.8373C68.4311 48.0096 68.392 48.0767 68.2746 48.0767C68.1729 48.0767 68.1182 48.1437 68.1182 48.2682C68.1182 48.3927 68.1729 48.4597 68.2746 48.4597C68.4155 48.4597 68.4311 48.5268 68.4311 49.2163C68.4311 49.9249 68.4468 49.992 68.6346 50.1739C68.9162 50.4421 69.37 50.4516 69.37 50.1835C69.37 50.0399 69.3153 49.992 69.1744 49.992C68.9084 49.992 68.8067 49.7143 68.838 49.0535C68.8615 48.5076 68.8615 48.5076 69.1197 48.4789C69.4718 48.431 69.4405 48.1341 69.0727 48.0958C68.8693 48.0671 68.8223 48.0288 68.8223 47.8277C68.8223 47.6457 68.7832 47.5979 68.6267 47.5979C68.4703 47.5979 68.4311 47.6457 68.4311 47.8373Z" fill="white"/>
<path d="M28.2141 48.1245C28.2141 48.1437 28.3315 48.4023 28.4801 48.68L28.754 49.1971L28.4801 49.743C28.3315 50.0398 28.2141 50.308 28.2141 50.3367C28.2141 50.3558 28.308 50.375 28.4332 50.375C28.6053 50.375 28.6836 50.2984 28.8401 49.9441L29.0357 49.5131L29.2078 49.9441C29.3643 50.3175 29.4269 50.375 29.6303 50.375H29.8729L29.6929 50.0111C29.5912 49.8196 29.466 49.561 29.4034 49.4461C29.3017 49.245 29.3173 49.1779 29.5364 48.6991C29.6694 48.4118 29.779 48.1533 29.779 48.115C29.779 48.0862 29.6851 48.0767 29.5677 48.0958C29.3956 48.115 29.3173 48.2203 29.1922 48.5363L29.0357 48.9385L28.8479 48.5076C28.6914 48.1533 28.621 48.0767 28.441 48.0767C28.3158 48.0767 28.2141 48.0958 28.2141 48.1245Z" fill="white"/>
<path d="M30.1702 49.5613V51.0457H30.3658C30.5457 51.0457 30.5614 51.0073 30.5614 50.5956C30.5614 50.2412 30.5849 50.1742 30.6553 50.2604C30.71 50.3274 30.9135 50.3753 31.1169 50.3753C31.6489 50.3753 31.8133 50.0976 31.8133 49.207C31.8133 48.6324 31.7898 48.5175 31.6177 48.3164C31.4142 48.0578 30.9917 47.9908 30.71 48.1727C30.6083 48.2398 30.5614 48.2398 30.5614 48.1727C30.5614 48.1248 30.4753 48.077 30.3658 48.077H30.1702V49.5613Z" fill="white"/>
<path d="M32.4784 48.182C32.2281 48.3639 32.2046 48.4597 32.2046 49.245C32.2046 50.2697 32.2907 50.375 33.1435 50.375C33.7147 50.375 33.7695 50.3558 33.7695 50.1835C33.7695 50.0111 33.7147 49.9919 33.3078 49.9919C32.721 49.9919 32.5958 49.9345 32.5958 49.6472C32.5958 49.4269 32.6193 49.4174 33.1826 49.4174H33.7695V48.9577C33.7695 48.2969 33.6521 48.1437 33.0966 48.1054C32.8305 48.0862 32.5723 48.115 32.4784 48.182Z" fill="white"/>
<path d="M34.2388 49.2258V50.375H34.4344C34.63 50.375 34.63 50.3654 34.63 49.5131C34.63 48.6034 34.6926 48.4597 35.0916 48.4597C35.2012 48.4597 35.2559 48.4022 35.2559 48.2682C35.2559 48.0575 35.0368 48.0096 34.7786 48.1724C34.6769 48.2394 34.63 48.2394 34.63 48.1724C34.63 48.1245 34.5439 48.0766 34.4344 48.0766H34.2388V49.2258Z" fill="white"/>
<path d="M36.6253 48.3163C36.4532 48.5174 36.4297 48.6323 36.4297 49.2261C36.4297 49.8198 36.4532 49.9347 36.6253 50.1454C36.8053 50.3657 36.8678 50.3848 37.4234 50.3561C37.9007 50.3369 38.0337 50.2986 38.0337 50.1837C38.0337 50.0784 37.9007 50.0305 37.486 49.9922C36.9539 49.9443 36.9383 49.9347 36.9148 49.6761L36.8913 49.4176H37.4781H38.0728V48.9866C38.0728 48.345 37.8302 48.0769 37.2512 48.0769C36.8913 48.0769 36.7818 48.1152 36.6253 48.3163Z" fill="white"/>
<path d="M38.4639 49.2257V50.3749H38.6595C38.8551 50.3749 38.8551 50.3653 38.8551 49.5705C38.8551 48.6895 38.9412 48.4596 39.2854 48.4596C39.6219 48.4596 39.7236 48.699 39.7158 49.4556C39.7001 50.4036 39.6923 50.3749 39.9114 50.3749C40.107 50.3749 40.107 50.3749 40.107 49.4651C40.107 48.6224 40.0913 48.5267 39.9114 48.316C39.7079 48.0574 39.2854 47.9904 39.0037 48.1723C38.902 48.2394 38.8551 48.2394 38.8551 48.1723C38.8551 48.1244 38.769 48.0766 38.6595 48.0766H38.4639V49.2257Z" fill="white"/>
<path d="M40.6939 48.3161C40.5218 48.5172 40.4983 48.6321 40.4983 49.2258C40.4983 49.8196 40.5218 49.9345 40.6939 50.1356C40.8504 50.3367 40.9599 50.375 41.359 50.375C41.7737 50.375 41.8284 50.3558 41.8284 50.1835C41.8284 50.0207 41.7737 49.9919 41.4372 49.9919C40.9834 49.9919 40.8895 49.8579 40.8895 49.1875C40.8895 48.6321 41.0303 48.4597 41.4842 48.4597C41.7737 48.4597 41.8284 48.431 41.8284 48.2682C41.8284 48.0958 41.7737 48.0767 41.359 48.0767C40.9599 48.0767 40.8504 48.115 40.6939 48.3161Z" fill="white"/>
<path d="M42.3604 48.2682C42.157 48.4597 42.1414 48.5172 42.1414 49.2162C42.1414 50.2505 42.2431 50.375 43.0803 50.375C43.6514 50.375 43.7062 50.3558 43.7062 50.1835C43.7062 50.0111 43.6514 49.9919 43.2133 49.9919C42.7047 49.9919 42.5326 49.8866 42.5326 49.5897C42.5326 49.4365 42.603 49.4174 43.1194 49.4174H43.7062V48.9002C43.7062 48.2682 43.6045 48.1533 43.0177 48.0958C42.6499 48.0671 42.5326 48.0958 42.3604 48.2682Z" fill="white"/>
<path d="M45.2633 48.2589C45.099 48.4121 45.0834 48.5174 45.0834 49.2261C45.0755 49.9348 45.0912 50.0209 45.2633 50.1933C45.4667 50.404 46.0457 50.4423 46.1944 50.2604C46.2648 50.1742 46.2883 50.1742 46.2883 50.2604C46.2883 50.3274 46.3744 50.3753 46.4839 50.3753H46.6795V49.2261V48.0769H46.0614C45.5763 48.0769 45.4042 48.1152 45.2633 48.2589ZM46.2883 49.1207C46.2883 49.8677 46.2022 50.0209 45.8032 49.9731L45.545 49.9443L45.5215 49.2836C45.498 48.5366 45.5372 48.46 45.9988 48.46H46.2883V49.1207Z" fill="white"/>
<path d="M49.105 48.1915C49.105 48.2585 49.2223 48.7661 49.3632 49.3215L49.6214 50.3271L49.9031 50.3558L50.1769 50.3845L50.4273 49.3981C50.5681 48.8523 50.7011 48.3352 50.7246 48.2394C50.7559 48.0957 50.7246 48.067 50.5447 48.0957C50.3412 48.1245 50.3178 48.1819 50.1378 49.0151C50.0204 49.5609 49.9187 49.8578 49.8796 49.7812C49.8483 49.7142 49.7466 49.3024 49.6449 48.8619C49.4884 48.1628 49.4493 48.0766 49.2849 48.0766C49.191 48.0766 49.105 48.1341 49.105 48.1915Z" fill="white"/>
<path d="M51.2098 48.2586C51.0376 48.4214 51.022 48.5172 51.022 49.2258C51.022 50.2601 51.1237 50.375 52.0078 50.375C52.5712 50.375 52.626 50.3558 52.626 50.1835C52.626 50.0207 52.5634 50.0015 52.0626 49.9728C51.5071 49.9441 51.4914 49.9345 51.468 49.6759L51.4445 49.4174H52.0313H52.626V48.9864C52.626 48.3448 52.3834 48.0767 51.8201 48.0767C51.5149 48.0767 51.3349 48.1341 51.2098 48.2586Z" fill="white"/>
<path d="M53.0171 49.2258V50.375H53.2049C53.3848 50.375 53.3927 50.3463 53.424 49.5131C53.4474 48.5938 53.5022 48.4597 53.8543 48.4597C54.1829 48.4597 54.269 48.6991 54.269 49.5706C54.269 50.3654 54.269 50.375 54.4646 50.375C54.6602 50.375 54.6602 50.375 54.6602 49.4652C54.6602 48.6225 54.6445 48.5267 54.4646 48.3161C54.2611 48.0575 53.8386 47.9905 53.557 48.1724C53.4552 48.2395 53.4083 48.2395 53.4083 48.1724C53.4083 48.1245 53.3222 48.0767 53.2127 48.0767H53.0171V49.2258Z" fill="white"/>
<path d="M56.4913 48.2107C56.4678 48.2969 56.46 48.7279 56.4678 49.1684C56.5069 50.1739 56.6243 50.375 57.1641 50.375C57.3597 50.375 57.5632 50.3271 57.618 50.2601C57.6884 50.1739 57.7118 50.1739 57.7118 50.2601C57.7118 50.3271 57.7979 50.375 57.9075 50.375H58.1031V49.2258V48.0767H57.9075C57.7118 48.0767 57.7118 48.0862 57.7118 48.929C57.7118 49.8866 57.6492 50.0207 57.2267 49.9728L56.9685 49.9441L56.9294 49.0343C56.8903 48.182 56.8825 48.1245 56.7103 48.0958C56.6086 48.0767 56.5225 48.1245 56.4913 48.2107Z" fill="white"/>
<path d="M58.5725 49.2449V50.3845L58.7916 50.3558C59.0028 50.3271 59.0028 50.3271 59.0263 49.4652C59.0498 48.5554 59.0889 48.4597 59.4566 48.4597C59.6131 48.4597 59.6679 48.4118 59.6679 48.2777C59.6679 48.1149 59.6053 48.0958 59.1202 48.0958L58.5725 48.1053V49.2449Z" fill="white"/>
<path d="M60.106 48.2778C59.9182 48.4597 59.9026 48.5267 59.9026 49.2258C59.9026 50.2505 60.0043 50.375 60.8571 50.375C61.4127 50.375 61.4674 50.3558 61.4674 50.1835C61.4674 50.0111 61.4127 49.9919 60.9745 49.9919C60.4659 49.9919 60.2938 49.8866 60.2938 49.5897C60.2938 49.4365 60.3642 49.4174 60.8728 49.4174H61.4596L61.4831 49.1013C61.5222 48.6512 61.397 48.2682 61.1779 48.1628C60.8415 48.0096 60.3329 48.0575 60.106 48.2778Z" fill="white"/>
<path d="M62.0386 48.2203C61.6474 48.5555 61.8899 49.1588 62.5237 49.4174C62.7819 49.5227 62.9149 49.7334 62.8288 49.9058C62.8054 49.9536 62.5785 49.9919 62.3203 49.9919C61.9134 49.9919 61.8586 50.0111 61.8586 50.1835C61.8586 50.3558 61.9134 50.375 62.3907 50.375C63.0244 50.375 63.267 50.2122 63.267 49.8004C63.267 49.4748 63.2044 49.3886 62.6802 49.0535C62.1403 48.6991 62.1638 48.5172 62.7428 48.4789C63.1262 48.4501 63.1966 48.4214 63.1731 48.2873C63.134 48.0575 62.2811 48.0096 62.0386 48.2203Z" fill="white"/>
<path d="M64.4719 48.2395C64.4954 48.3352 64.6049 48.8523 64.7223 49.3886L64.9336 50.375H65.1839C65.4265 50.375 65.4343 50.3654 65.5752 49.6089C65.6534 49.1875 65.7395 48.8428 65.7708 48.8428C65.8021 48.8428 65.8881 49.1875 65.9585 49.6089L66.0994 50.375H66.3498H66.608L66.8192 49.3886C66.9366 48.8523 67.0461 48.3352 67.0696 48.2395C67.1009 48.115 67.0618 48.0767 66.8818 48.0767C66.6549 48.0767 66.6471 48.0862 66.5141 48.9385C66.4358 49.4078 66.3654 49.8004 66.3576 49.8004C66.3419 49.8004 66.2559 49.4078 66.162 48.929C65.9898 48.1054 65.9742 48.0671 65.7864 48.0958C65.5986 48.1245 65.5595 48.2011 65.4187 48.8428C65.3248 49.2354 65.2309 49.628 65.2152 49.7046C65.1918 49.7813 65.1057 49.4461 65.0274 48.9577C64.8944 48.0862 64.8866 48.0767 64.6597 48.0767C64.4797 48.0767 64.4406 48.115 64.4719 48.2395Z" fill="white"/>
<path d="M72.93 48.3163C72.7578 48.5174 72.7344 48.6323 72.7344 49.2547C72.7344 49.8581 72.7578 49.9826 72.9143 50.1645C73.063 50.3369 73.1804 50.3656 73.7359 50.356L74.3775 50.3465V49.2069V48.0768H73.7515C73.1804 48.0768 73.1021 48.1056 72.93 48.3163ZM73.908 49.1686C73.908 49.9155 73.8689 49.9921 73.4855 49.9921C73.2117 49.9921 73.1256 49.8006 73.1256 49.226C73.1256 48.594 73.2117 48.4599 73.6107 48.4599H73.908V49.1686Z" fill="white"/>
<path d="M74.8469 49.2258V50.375H75.0425C75.2381 50.375 75.2381 50.3654 75.2381 49.5131C75.2381 48.7662 75.2538 48.6417 75.3868 48.5555C75.8406 48.2586 76.0206 48.5459 76.0206 49.5706C76.0206 50.3654 76.0206 50.375 76.2162 50.375C76.4118 50.375 76.4118 50.3654 76.4118 49.5323C76.4118 48.6417 76.4744 48.4597 76.7639 48.4597C77.0534 48.4597 77.116 48.6417 77.116 49.5323C77.116 50.3654 77.116 50.375 77.3116 50.375H77.5072V49.4174C77.5072 48.5842 77.4837 48.431 77.3507 48.2682C77.1629 48.0383 76.6778 48.0096 76.4431 48.2107C76.3101 48.3256 76.271 48.3256 76.1379 48.2107C75.9658 48.0575 75.6059 48.0383 75.3868 48.1724C75.2851 48.2395 75.2381 48.2395 75.2381 48.1724C75.2381 48.1245 75.1521 48.0767 75.0425 48.0767H74.8469V49.2258Z" fill="white"/>
<path d="M78.2898 48.1436C78.0472 48.2489 77.9768 48.4979 77.9768 49.2449C77.9768 50.2695 78.0629 50.3749 78.9157 50.3557L79.5416 50.3462V49.2161V48.0765L78.9783 48.0861C78.6653 48.0861 78.3524 48.1148 78.2898 48.1436ZM79.1504 49.1778C79.1504 49.8578 79.1426 49.8961 78.9548 49.9535C78.8453 49.9822 78.6732 49.9822 78.5636 49.9535C78.3837 49.8961 78.368 49.8482 78.368 49.2927C78.368 48.5937 78.4463 48.4596 78.8531 48.4596H79.1504V49.1778Z" fill="white"/>
<path d="M79.9874 48.1341C79.9561 48.1724 79.9326 48.2586 79.9326 48.3352C79.9326 48.4214 80.0656 48.4597 80.4021 48.4597C80.6603 48.4597 80.8715 48.4884 80.8715 48.5172C80.8715 48.5459 80.6603 48.9098 80.4021 49.3216C80.1439 49.7334 79.9326 50.1452 79.9326 50.2218C79.9326 50.3463 80.0578 50.375 80.6759 50.375C81.3645 50.375 81.4192 50.3558 81.4192 50.1835C81.4192 50.0302 81.3566 50.0015 80.9576 49.9728L80.4881 49.9441L80.9576 49.1779C81.2158 48.7662 81.4114 48.3544 81.4036 48.2682C81.3801 48.1533 81.2393 48.115 80.7072 48.0958C80.3395 48.0862 80.0187 48.0958 79.9874 48.1341Z" fill="white"/>
<path d="M82.7495 49.2258V50.375H82.9451C83.1329 50.375 83.1329 50.3558 83.1564 49.494C83.1798 48.6225 83.1798 48.6034 83.3989 48.5172C83.798 48.3448 83.884 48.5076 83.9075 49.5035C83.931 50.3558 83.931 50.375 84.1188 50.375C84.3144 50.375 84.3144 50.375 84.3144 49.3791C84.3144 48.4501 84.2987 48.3639 84.1422 48.2299C83.9388 48.0575 83.5163 48.0288 83.2894 48.1724C83.1877 48.2395 83.1407 48.2395 83.1407 48.1724C83.1407 48.1245 83.0547 48.0767 82.9451 48.0767H82.7495V49.2258Z" fill="white"/>
<path d="M85.0575 48.1919C84.815 48.3643 84.7837 48.46 84.7837 49.1974C84.7837 49.772 84.815 49.9348 84.9402 50.088C85.1201 50.3083 85.7069 50.3562 85.8713 50.155C85.9495 50.0593 85.9651 50.0976 85.9417 50.3274C85.9182 50.6051 85.9104 50.6147 85.4331 50.6434C85.0028 50.6722 84.9402 50.7009 84.9402 50.8541C84.9402 51.0265 84.9949 51.0457 85.5113 51.0457C86.3329 51.0457 86.3485 51.0265 86.3485 49.3889V48.077H85.7852C85.4722 48.077 85.1436 48.1344 85.0575 48.1919Z" fill="white"/>
<path d="M90.1435 48.182C89.8931 48.3639 89.8696 48.4597 89.8696 49.245C89.8696 50.2697 89.9557 50.375 90.8086 50.375C91.3797 50.375 91.4345 50.3558 91.4345 50.1835C91.4345 50.0207 91.3719 50.0015 90.8711 49.9728C90.3156 49.9441 90.3 49.9345 90.2765 49.6759L90.253 49.4174H90.8399H91.4345V48.9577C91.4345 48.2969 91.3171 48.1437 90.7616 48.1054C90.4956 48.0862 90.2374 48.115 90.1435 48.182Z" fill="white"/>
<path d="M92.0213 48.3161C91.8492 48.5172 91.8257 48.6321 91.8257 49.2258C91.8257 49.8196 91.8492 49.9345 92.0213 50.1356C92.1621 50.3175 92.2951 50.375 92.5533 50.375C92.7333 50.375 92.9289 50.3271 92.9837 50.2601C93.0541 50.1739 93.0776 50.1739 93.0776 50.2601C93.0776 50.3271 93.1636 50.375 93.2732 50.375H93.4688V49.2258V48.0767H92.8428C92.2717 48.0767 92.1934 48.1054 92.0213 48.3161ZM93.0619 49.0535C93.0932 49.7717 92.9915 49.9919 92.6472 49.9919C92.3186 49.9919 92.2169 49.8004 92.2169 49.1875C92.2169 48.6417 92.3734 48.4406 92.7568 48.4789L93.0385 48.5076L93.0619 49.0535Z" fill="white"/>
<path d="M94.971 48.2299C94.7597 48.4118 94.7441 48.8428 94.9397 49.0535C95.0101 49.1396 95.2448 49.2929 95.4482 49.4078C95.7299 49.5514 95.8238 49.6472 95.8003 49.7717C95.7768 49.9153 95.683 49.9536 95.2839 49.9728C94.8614 50.0015 94.7988 50.0302 94.7988 50.1835C94.7988 50.3558 94.8536 50.375 95.3309 50.375C95.9881 50.375 96.2072 50.2218 96.2072 49.7525C96.2072 49.4557 96.1681 49.4078 95.7221 49.1109C95.0883 48.6991 95.0727 48.5172 95.683 48.4789C96.0663 48.4501 96.1289 48.4214 96.1289 48.2682C96.1289 48.0958 96.0742 48.0767 95.636 48.0767C95.323 48.0767 95.0883 48.1245 94.971 48.2299Z" fill="white"/>
</g>
<defs>
<clipPath id="clip0">
<rect width="108" height="61" fill="white"/>
</clipPath>
</defs>
</svg>
