<svg width="28" height="28" viewBox="0 0 28 28" fill="none" xmlns="http://www.w3.org/2000/svg">
<g filter="url(#filter0_d)">
<path d="M21.5514 20C21.1727 20 20.8038 19.9219 20.4447 19.7656C20.0855 19.6094 19.8211 19.4596 19.6513 19.3164C19.4816 19.1732 19.2791 18.9844 19.0441 18.75C18.2083 19.5833 16.9546 20 15.2831 20H5.88051C5.71074 20 5.56383 19.9382 5.43976 19.8145C5.3157 19.6908 5.25367 19.5443 5.25367 19.375C5.25367 19.2057 5.3157 19.0592 5.43976 18.9355C5.56383 18.8118 5.71074 18.75 5.88051 18.75C6.03722 18.75 6.22331 18.6035 6.43879 18.3105C6.65426 18.0176 6.85994 17.6465 7.05583 17.1973C7.25171 16.748 7.41822 16.2109 7.55534 15.5859C7.69246 14.9609 7.76102 14.349 7.76102 13.75C7.76102 13.4115 7.71858 13.125 7.63369 12.8906C7.54881 12.6562 7.44434 12.4544 7.32027 12.2852C7.19621 12.1159 7.07215 11.9303 6.94809 11.7285C6.82403 11.5267 6.71956 11.2272 6.63467 10.8301C6.54979 10.4329 6.50735 9.94792 6.50735 9.375C6.50735 9.03646 6.54979 8.75977 6.63467 8.54492C6.71956 8.33008 6.82403 8.16732 6.94809 8.05664C7.07215 7.94596 7.19621 7.83203 7.32027 7.71484C7.44434 7.59766 7.54881 7.41862 7.63369 7.17773C7.71858 6.93685 7.76102 6.6276 7.76102 6.25C7.76102 5.41667 7.34313 5 6.50735 5C5.91969 5 5.35488 4.77539 4.81293 4.32617C4.27098 3.87695 4 3.47656 4 3.125C4 2.82552 4.14039 2.54232 4.42116 2.27539C4.70193 2.00846 4.97943 1.875 5.25367 1.875C5.47568 1.875 5.68136 1.8099 5.87071 1.67969C6.06007 1.54948 6.23963 1.39323 6.4094 1.21094C6.57917 1.02865 6.76526 0.846354 6.96768 0.664062C7.17009 0.481771 7.44434 0.325521 7.7904 0.195312C8.13647 0.0651042 8.54456 0 9.01469 0C9.62847 0 10.128 0.0716146 10.5132 0.214844C10.8985 0.358073 11.1858 0.54362 11.3751 0.771484C11.5645 0.999349 11.7179 1.31836 11.8355 1.72852C11.953 2.13867 12.0346 2.54557 12.0803 2.94922C12.126 3.35286 12.2076 3.86719 12.3252 4.49219C12.4427 5.11719 12.5929 5.70312 12.7757 6.25C13.0238 6.99219 13.6082 7.93945 14.5289 9.0918C15.4496 10.2441 16.1188 10.9635 16.5367 11.25C18.2083 12.3568 19.0441 14.0234 19.0441 16.25C19.0441 16.888 19.4163 17.4642 20.1606 17.9785C20.905 18.4928 21.7865 18.75 22.8051 18.75C23.1446 18.75 23.5429 18.6849 24 18.5547C23.8825 19.0104 23.5952 19.3652 23.1381 19.6191C22.681 19.873 22.1521 20 21.5514 20ZM10.2684 13.75C10.2292 13.9583 10.177 14.2285 10.1117 14.5605C10.0464 14.8926 9.90597 15.3971 9.6905 16.0742C9.47502 16.7513 9.24976 17.2266 9.01469 17.5H11.522C11.522 16.9401 11.4567 16.4551 11.3262 16.0449C11.1956 15.6348 11.0519 15.3385 10.8952 15.1562C10.7385 14.974 10.5948 14.7624 10.4643 14.5215C10.3337 14.2806 10.2684 14.0234 10.2684 13.75Z" fill="#E2C022"/>
</g>
<defs>
<filter id="filter0_d" x="0" y="0" width="28" height="28" filterUnits="userSpaceOnUse" color-interpolation-filters="sRGB">
<feFlood flood-opacity="0" result="BackgroundImageFix"/>
<feColorMatrix in="SourceAlpha" type="matrix" values="0 0 0 0 0 0 0 0 0 0 0 0 0 0 0 0 0 0 127 0"/>
<feOffset dy="4"/>
<feGaussianBlur stdDeviation="2"/>
<feColorMatrix type="matrix" values="0 0 0 0 0 0 0 0 0 0 0 0 0 0 0 0 0 0 0.25 0"/>
<feBlend mode="normal" in2="BackgroundImageFix" result="effect1_dropShadow"/>
<feBlend mode="normal" in="SourceGraphic" in2="effect1_dropShadow" result="shape"/>
</filter>
</defs>
</svg>
