<svg width="24" height="24" viewBox="0 0 24 24" fill="none" xmlns="http://www.w3.org/2000/svg">
<path d="M20.194 0H17.5919C17.1373 0 16.6968 0.0997969 16.2969 0.283594C16.9476 0.579797 17.5372 0.982359 18.0519 1.48331L19.5592 2.95017C20.1572 3.53203 20.6249 4.21683 20.9494 4.98558C21.2739 5.75428 21.4385 6.56714 21.4385 7.40156V13.1908C21.4385 13.765 21.2795 14.327 20.9785 14.816C20.6775 15.305 20.2475 15.7001 19.735 15.9587L18.6401 16.5111L18.9585 16.8918C19.425 17.4495 20.1146 17.7718 20.8415 17.7718C22.1975 17.7718 23.2968 16.6722 23.2968 15.3159V3.10364C23.2968 1.38956 21.9076 0 20.194 0V0Z" fill="#A2792C"/>
<path d="M3.02147 14.816C2.72053 14.327 2.56144 13.765 2.56144 13.1908V7.40152C2.56144 6.56709 2.72597 5.75423 3.05053 4.98553C3.37505 4.21683 3.84281 3.53203 4.4407 2.95017L5.94802 1.48331C6.46275 0.982406 7.0523 0.579797 7.70306 0.283594C7.30312 0.0997969 6.86264 0 6.408 0H3.80597C2.09231 0 0.703125 1.38956 0.703125 3.10364V15.3159C0.703125 16.6722 1.80234 17.7718 3.15834 17.7718C3.88533 17.7718 4.57491 17.4495 5.04141 16.8918L5.35988 16.5111L4.26497 15.9587C3.75244 15.7001 3.32245 15.305 3.02147 14.816Z" fill="#A2792C"/>
<path d="M7.9728 17.8295L6.73333 17.2041C6.68618 18.4788 6.14763 19.711 5.23873 20.6093C4.96249 20.8823 4.95982 21.3276 5.23273 21.6039C5.37026 21.7431 5.55157 21.8129 5.73293 21.8129C5.91147 21.8129 6.09007 21.7453 6.22708 21.6099C7.23213 20.6166 7.88299 19.304 8.07991 17.9131C8.0501 17.8791 8.0141 17.8503 7.9728 17.8295Z" fill="#A2792C"/>
<path d="M15.9202 17.9131C16.1171 19.304 16.7679 20.6166 17.773 21.6099C17.9101 21.7453 18.0886 21.8129 18.2672 21.8129C18.4485 21.8129 18.6298 21.7431 18.7674 21.6039C19.0403 21.3276 19.0376 20.8822 18.7614 20.6093C17.8524 19.711 17.3139 18.4788 17.2667 17.2041L16.0273 17.8295C15.9859 17.8503 15.9499 17.8791 15.9202 17.9131Z" fill="#A2792C"/>
<path d="M18.5787 3.95841L17.0714 2.49155C16.1748 1.61906 14.9733 1.13086 13.7224 1.13086H10.2777C9.02676 1.13086 7.82526 1.61902 6.92868 2.49155L5.42137 3.95841C4.49202 4.86281 3.96777 6.10462 3.96777 7.40161V13.1909C3.96777 13.8301 4.32768 14.415 4.89834 14.7029L8.60615 16.5736C9.11015 16.8279 9.4619 17.3082 9.55232 17.8655L10.3149 22.566C10.3885 23.0193 10.6414 23.4238 11.0166 23.6883C11.6064 24.104 12.3937 24.104 12.9834 23.6883C13.3587 23.4238 13.6116 23.0193 13.6851 22.566L14.4478 17.8655C14.5382 17.3082 14.8899 16.8279 15.3939 16.5736L19.1017 14.7029C19.6724 14.415 20.0323 13.8301 20.0323 13.1909V7.40156C20.0323 6.10462 19.5081 4.86281 18.5787 3.95841ZM8.20316 10.5028C8.20316 10.8912 7.88835 11.2061 7.50004 11.2061C7.11173 11.2061 6.79691 10.8912 6.79691 10.5028V9.09619C6.79691 8.70778 7.11173 8.39287 7.50004 8.39287C7.88835 8.39287 8.20316 8.70778 8.20316 9.09619V10.5028ZM17.2032 10.5028C17.2032 10.8912 16.8884 11.2061 16.5 11.2061C16.1117 11.2061 15.7969 10.8912 15.7969 10.5028V9.09619C15.7969 8.70778 16.1117 8.39287 16.5 8.39287C16.8884 8.39287 17.2032 8.70778 17.2032 9.09619V10.5028Z" fill="#A2792C"/>
</svg>
