<svg width="20" height="20" viewBox="0 0 20 20" fill="none" xmlns="http://www.w3.org/2000/svg">
<path d="M3.49382 4.71035C3.96038 3.7991 4.52413 3.16723 5.14382 2.72973C4.57913 2.36379 3.59195 2.23535 3.11288 2.23535C3.11288 2.23535 2.54507 4.05129 3.49382 4.71035Z" fill="#E2C022"/>
<path d="M16.5054 4.70973C17.4529 4.05066 16.8864 2.23535 16.8864 2.23535C16.4064 2.23535 15.4198 2.36348 14.8545 2.72941C15.4748 3.16723 16.0386 3.79848 16.5054 4.70973Z" fill="#E2C022"/>
<path d="M13.1629 4.00998C12.4704 1.46373 7.51973 1.41467 6.83691 4.02685C8.20848 2.87842 11.7919 2.87967 13.1629 4.00998Z" fill="#E2C022"/>
<path d="M7.83398 5.03013C8.96148 4.08732 11.0384 4.08982 12.1662 5.01888C11.6984 3.30295 8.29555 3.2667 7.83398 5.03013Z" fill="#E2C022"/>
<path d="M19.375 11.5722L19.3616 11.0444C19.2984 8.51562 17.9081 7.12844 17.5809 6.83594C17.4867 6.43808 17.372 6.04537 17.2372 5.65938C18.9197 4.23125 17.9225 0.974688 17.8778 0.8325L17.8128 0.625H17.5891C16.5069 0.625 14.4722 0.930313 13.4159 1.74063C12.4587 1.47625 11.4672 1.45312 10.5297 1.45312L10 1.45406L9.46969 1.45312C8.53219 1.45312 7.54031 1.47625 6.58344 1.74063C5.52688 0.930313 3.49187 0.625 2.41 0.625H2.18656L2.12125 0.8325C2.07625 0.974688 1.07938 4.23125 2.76188 5.65938C2.62707 6.04526 2.51233 6.43787 2.41812 6.83563C2.09187 7.1275 0.700625 8.51437 0.637812 11.0444L0.625 11.5722L1.24406 11.2169C1.06562 11.9781 0.95375 13.2328 1.55594 14.6556L1.74406 15.0994L2.55 14.1838C2.79781 14.925 3.45437 16.1825 5.14781 16.9487L5.52781 17.1209L5.62594 16.2887C6.0225 16.5194 6.68375 16.8466 7.56375 17.0894C7.7025 17.5484 8.00313 18.105 8.64688 18.6103L9.61969 19.375L9.62344 18.9513C9.64969 18.9666 9.67656 18.9816 9.70375 18.9959L9.99562 19.1522L10.2878 18.9959C10.3147 18.9816 10.3416 18.9666 10.3678 18.9513L10.3697 19.1809L11.2744 18.6584C11.4554 18.5532 11.6205 18.4228 11.765 18.2712L12.0103 18.7222L12.5763 17.9266C12.8453 17.5484 13.02 17.1941 13.1272 16.8675C13.5587 16.7109 13.9758 16.5172 14.3737 16.2884L14.4716 17.1206L14.8519 16.9484C16.5453 16.1822 17.2016 14.9247 17.4497 14.1834L18.2553 15.0991L18.4434 14.6553C19.0453 13.2325 18.9334 11.9775 18.7553 11.2162L19.375 11.5722ZM2.64062 1.21563C3.61344 1.25531 5.46625 1.53688 6.30938 2.28313L6.43781 2.39688L6.60406 2.34594C7.52844 2.06281 8.52625 2.03906 9.46937 2.03906L10 2.03969L10.5297 2.03875C11.4728 2.03875 12.4706 2.0625 13.3953 2.34563L13.5612 2.39656L13.6897 2.28281C14.5328 1.53656 16.3859 1.255 17.3584 1.21531C17.5472 1.95062 18.0487 4.38812 16.7044 5.3225L16.5175 5.4525L16.5966 5.66156C16.7612 6.09688 16.9031 6.58125 17.0244 7.10844C17.0566 7.48594 17.1772 9.19 16.9113 10.6966C16.3153 12.6466 15.1703 13.005 14.1709 12.8737C14.0225 12.1809 13.7066 11.3647 13.2244 10.4216C14.6003 10.9394 16.5178 10.0981 16.3278 8.1675C16.2169 7.04281 16.2003 6.94656 13.9944 7.17375C11.7869 7.40188 11.7891 7.50063 11.9003 8.62406C11.9273 8.92128 12.011 9.21056 12.1469 9.47625C12.0791 10.2378 11.9584 11.3181 11.7863 11.8488C10.8231 11.6488 9.14875 11.6584 8.20406 11.8516C7.99156 11.2753 7.88125 10.2491 7.82687 9.50969C7.96281 9.26 8.05625 8.96625 8.09062 8.62437C8.20125 7.50094 8.20375 7.4025 5.99656 7.17406C3.79062 6.94656 3.77375 7.04312 3.66344 8.16781C3.47094 10.1153 5.42437 10.9547 6.80281 10.4075C6.37344 11.3006 6.08844 12.1181 5.95312 12.8538C4.92531 13.0316 3.70625 12.7291 3.08594 10.6913C2.82188 9.18875 2.94156 7.49219 2.97375 7.11062C3.09531 6.58313 3.23719 6.0975 3.40219 5.66156L3.48125 5.4525L3.29469 5.3225C1.95281 4.39031 2.45281 1.95094 2.64062 1.21563ZM14.7053 8.83906C15.1044 8.83906 15.4284 8.50969 15.4284 8.10344C15.4284 7.86562 15.3162 7.685 15.1441 7.57438C15.5872 7.60438 15.6128 7.77094 15.6644 8.18656C15.8809 9.9425 12.7669 10.2003 12.55 8.445C12.4716 7.80969 12.4703 7.75406 14.0222 7.62438C14.0912 7.61844 14.1541 7.61375 14.2172 7.60875C14.0737 7.72094 13.9819 7.88875 13.9819 8.10344C13.9819 8.50969 14.3053 8.83906 14.7053 8.83906ZM6.4675 8.83906C6.8675 8.83906 7.19031 8.50969 7.19031 8.10344C7.19031 7.97125 7.15344 7.85812 7.09375 7.76312C7.50688 7.86594 7.49125 8.03344 7.44094 8.445C7.22469 10.2003 4.10938 9.9425 4.32656 8.18656C4.40438 7.55219 4.41719 7.49656 5.95781 7.62344C5.82594 7.73563 5.74406 7.89906 5.74406 8.10344C5.74469 8.50969 6.06812 8.83906 6.4675 8.83906ZM1.27906 10.5166C1.42125 9.26969 1.92219 8.37281 2.32469 7.83375C2.30438 8.37594 2.30156 9.11625 2.37344 9.88875L1.27906 10.5166ZM5.56781 15.5494L5.14281 15.2281L5.025 16.2281C3.22781 15.2247 3.01438 13.5969 3.00594 13.5247L2.93062 12.8497L1.94406 13.9706C1.37063 12.1516 2.03656 10.7144 2.04344 10.6994L2.38344 9.99406C2.50187 11.1594 2.79469 12.3788 3.45688 13.0872C3.85031 13.5084 4.33875 13.7219 4.90875 13.7219H4.90969C5.21063 13.7219 5.53 13.66 5.86906 13.5413C5.8325 14.17 5.91875 14.7312 6.1325 15.2213C6.30364 15.6176 6.56609 15.9679 6.89844 16.2434C6.05531 15.9094 5.57687 15.5556 5.56781 15.5494ZM12.0788 17.5941L11.795 17.0725C11.795 17.0725 11.5859 17.7962 10.9644 18.1556L10.9584 17.4659C10.9584 17.4659 10.705 18.1034 9.99531 18.4834C9.28563 18.1034 9.0325 17.4659 9.0325 17.4659L9.02625 18.1556C7.89062 17.2638 8.06063 16.2159 8.06063 16.2159C8.06063 16.2159 4.95781 15.3688 7.37562 10.42C7.2875 11.2984 7.68281 12.1181 7.68281 12.1181L7.68969 12.1203C7.76938 12.3931 8.52781 12.9369 9.73688 13.0069C9.76219 13.5991 9.85781 14.2984 9.93563 14.7072C9.37844 15.0394 8.75344 15.5478 8.06063 16.2159C9.76156 15.8453 11.1737 14.1537 12.4041 15.0656C12.6691 15.4887 12.9566 16.3603 12.0788 17.5941ZM12.4731 15.0716C12.4334 15.0716 12.4109 15.0697 12.4109 15.0697C11.9587 14.2469 11.2916 14.0825 10.4259 14.4513C10.3628 14.0737 10.2891 13.4975 10.2659 13.0059C11.4694 12.9331 12.2203 12.3922 12.3009 12.1203L12.3088 12.1178C12.3088 12.1178 12.5731 11.4488 12.5656 10.4403C14.8547 14.4231 12.9066 15.0716 12.4731 15.0716ZM18.0547 13.9703L17.0684 12.8494L16.9934 13.5244C16.9913 13.5422 16.7838 15.2141 14.9738 16.2275L14.8559 15.2253L14.4306 15.5494C14.4225 15.5556 14.0047 15.8663 13.2613 16.1797C13.2777 15.9551 13.2634 15.7294 13.2188 15.5087C13.5518 15.3747 13.8303 15.133 14.01 14.8222C14.2053 14.4881 14.2891 14.0753 14.2669 13.5853C14.555 13.675 14.8297 13.7222 15.0891 13.7222C15.6591 13.7222 16.1478 13.5081 16.5409 13.0872C17.2047 12.3772 17.4978 11.1531 17.6153 9.98531L17.9547 10.6987C17.9622 10.7137 18.6284 12.1513 18.0547 13.9703ZM17.625 9.88937C17.6966 9.11656 17.6941 8.37594 17.6737 7.83375C18.0769 8.37313 18.5778 9.27 18.7203 10.5172L17.625 9.88937Z" fill="#E2C022"/>
</svg>
