<svg width="32" height="32" viewBox="0 0 32 32" fill="none" xmlns="http://www.w3.org/2000/svg">
<path d="M3.81958 24.3736L2.8125 25.9556L12.301 31.9998L13.3081 30.4178L9.35498 27.8994L11.7119 24.135C12.8591 24.2581 14.0486 24.3223 15.2368 24.3223C21.293 24.3223 27.4243 22.7119 27.4243 19.6348C27.4243 18.7644 26.9175 17.5774 24.7085 16.5708C24.8894 16.2505 25.0569 15.9197 25.1934 15.5672L26.8572 11.9722C25.7888 10.9121 23.4382 10.9932 22.4219 11.8977C20.6714 13.4541 16.3647 13.4541 14.6143 11.8977C13.6675 11.0564 11.52 10.9927 10.1274 11.6382C9.74683 14.5108 10.9119 17.1014 12.9229 18.7439L10.7637 22.1333C6.95776 21.5628 4.92432 20.3477 4.92432 19.6348C4.92432 19.2154 5.81958 18.3428 8.28613 17.6573L7.78247 15.8499C4.68628 16.7124 3.04932 18.0205 3.04932 19.6348C3.04932 21.74 5.9209 23.158 9.67383 23.844L7.77319 26.8919L3.81958 24.3736ZM14.5005 19.7581C17.6384 21.271 21.2734 20.4651 23.5398 18.1287C24.8855 18.677 25.5493 19.2723 25.5493 19.6348C25.5493 20.5896 21.9092 22.4473 15.2368 22.4473C14.3882 22.4473 13.5911 22.4163 12.8418 22.3616L14.5005 19.7581Z" fill="#A2792C"/>
<path d="M15.8594 10.4971C16.9031 11.4236 20.1331 11.4236 21.1768 10.4971C22.6976 9.14429 25.6468 8.82251 27.6631 10.231L29.1832 6.94678L18.3121 0L12.2256 7.23608C11.5904 7.89819 11.128 8.67212 10.7635 9.48608C12.6009 9.11548 14.6683 9.43726 15.8594 10.4971Z" fill="#A2792C"/>
</svg>
