<svg width="32" height="32" viewBox="0 0 32 32" fill="none" xmlns="http://www.w3.org/2000/svg">
<path d="M4.30363 0.821289H8.19025V9.66053H4.30363V0.821289Z" fill="#A2792C"/>
<path d="M22.4554 2.15188H20.2326C19.2527 0.812312 17.6773 0 16.0001 0C14.3229 0 12.7474 0.812312 11.7676 2.15188H10.0653V8.33062H11.7675C12.0873 8.768 12.4733 9.15406 12.9107 9.47375V11.8348H19.0894V9.4735C19.5269 9.1535 19.9129 8.76762 20.2324 8.33062H22.4555C24.3114 8.33062 25.8213 9.8405 25.8213 11.6964H27.6963V7.39281C27.6964 4.50294 25.3453 2.15188 22.4554 2.15188Z" fill="#A2792C"/>
<path d="M18.9254 18.4644C18.4815 16.9683 18.2561 15.4159 18.2561 13.8553V13.71H13.7441V13.8553C13.7441 15.4159 13.5187 16.9683 13.0748 18.4644C12.6309 19.9605 12.4055 21.5129 12.4055 23.0735V32.0001H19.5946V23.0735C19.5946 21.513 19.3692 19.9606 18.9254 18.4644Z" fill="#A2792C"/>
</svg>
