<svg width="16" height="16" viewBox="0 0 16 16" fill="none" xmlns="http://www.w3.org/2000/svg">
<path d="M1.63034 8.66797C1.04159 9.34547 0.639089 9.84672 0.599089 9.98922C0.377839 10.768 0.430339 11.8105 1.04034 12.3417C1.41784 12.6705 2.25159 12.9417 3.06409 12.6917C3.46784 12.568 4.24659 11.6942 4.34034 11.713C3.93284 10.3255 2.99534 9.03797 1.63034 8.66797Z" fill="#E2C022"/>
<path d="M7.87512 8.12547C8.87512 7.25047 7.87512 5.62547 7.37512 4.62547C7.16012 4.19672 6.86262 3.76922 6.50762 3.38672C6.19387 3.71172 5.80262 4.12047 5.37012 4.57797C6.90387 5.07672 8.17137 6.44422 7.87512 8.12547Z" fill="#E2C022"/>
<path d="M8.9998 6.87496C9.50855 6.07621 9.80605 5.19246 10.0886 4.29746C9.4873 3.72871 9.01105 3.35621 8.7898 3.34871C8.7448 3.10121 8.6723 2.85496 8.5123 2.66246C8.45023 2.58633 8.37884 2.5183 8.2998 2.45996C8.8023 3.88996 9.0998 5.38246 8.9998 6.87496Z" fill="#E2C022"/>
<path d="M5.12766 4.83594C3.95641 6.07969 2.56016 7.59469 1.62891 8.66719C1.72766 8.69344 1.82266 8.72719 1.91766 8.76219C2.31266 8.62969 2.71891 8.50969 3.12641 8.37469C4.65766 7.74344 4.82516 6.26719 5.12766 4.83594Z" fill="#E2C022"/>
<path d="M6.625 8.5C7.11125 9.18125 7.7475 10.015 7.9475 10.8813C8.12125 10.7238 8.2425 10.5762 8.32375 10.4625C8.05875 9.5675 7.61875 8.59875 6.625 8.5Z" fill="#E2C022"/>
<path d="M8.77852 11.4911C10.4098 10.4086 11.9723 9.18985 13.551 8.0011C13.3598 7.7836 13.161 7.55735 12.9585 7.32985C11.7798 8.31235 10.5673 9.28485 9.12477 9.62485C9.21727 7.96235 10.1285 6.5736 10.951 5.1536C10.646 4.83985 10.3548 4.5486 10.0885 4.29735C9.80602 5.19235 9.50852 6.0761 8.99977 6.87485C9.09977 5.38235 8.80227 3.88985 8.29852 2.45985C7.91727 2.1836 7.55727 2.3786 7.23602 2.65485C7.14727 2.7311 6.88227 2.9986 6.50727 3.3861C6.86227 3.7686 7.15977 4.1961 7.37477 4.62485C7.87477 5.62485 8.87477 7.24985 7.87477 8.12485C8.17102 6.4436 6.90352 5.0761 5.36977 4.5786C5.28977 4.66235 5.20852 4.7486 5.12727 4.8361C4.82477 6.26735 4.65727 7.7436 3.12477 8.37485C2.71852 8.50985 2.31102 8.62985 1.91602 8.76235C3.12602 9.22485 3.96102 10.4248 4.33852 11.7111C4.55852 11.7523 5.00727 11.8173 5.54852 11.7923C5.64477 11.7873 5.74477 11.7798 5.84602 11.7698C5.60477 10.2798 4.18352 9.34485 2.87477 8.74985C4.51602 9.0786 6.53852 9.6936 7.26977 11.3498C7.55227 11.2023 7.77477 11.0373 7.94727 10.8823C7.74727 10.0148 7.11102 9.1811 6.62477 8.49985C7.61852 8.5986 8.05852 9.56735 8.32351 10.4623C8.41476 10.3336 8.45352 10.2498 8.45352 10.2498L8.77852 11.4911Z" fill="url(#paint0_linear)"/>
<path d="M12.5013 6.82109C12.1138 6.39109 11.72 5.96234 11.3375 5.55859C10.8325 6.48359 10.3825 7.43859 10.25 8.49984C10.9675 7.90234 11.7138 7.33359 12.5013 6.82109Z" fill="url(#paint1_linear)"/>
<path d="M10.25 8.50027C10.3825 7.43902 10.8325 6.48402 11.3375 5.55902C11.2075 5.42152 11.0775 5.28527 10.9513 5.15527C10.1288 6.57402 9.2175 7.96277 9.125 9.62527C10.5675 9.28527 11.78 8.31277 12.9575 7.33027C12.8075 7.16152 12.655 6.99152 12.5013 6.82027C11.7138 7.33402 10.9675 7.90277 10.25 8.50027Z" fill="#E2C022"/>
<path d="M2.875 8.75C4.18375 9.345 5.605 10.28 5.84625 11.77C6.1575 11.7363 6.48875 11.67 6.81875 11.55C6.85 11.5388 6.87875 11.5263 6.91 11.5138C7.04 11.4625 7.15875 11.4075 7.27 11.3488C6.53875 9.69375 4.51625 9.07875 2.875 8.75Z" fill="#E2C022"/>
<path d="M13.5508 8.00098C11.9721 9.18848 10.4096 10.4085 8.77832 11.491L9.10707 12.7497C10.7196 11.3047 12.2833 9.85848 13.9096 8.41348C13.7933 8.27973 13.6733 8.14223 13.5508 8.00098Z" fill="#E2C022"/>
<path d="M14.7933 9.43848C13.1058 10.9385 11.1058 12.246 9.36328 13.7272L9.67703 14.9247C10.1145 14.6997 10.4695 14.3235 10.8758 13.9985C12.257 12.5185 13.7158 11.196 15.1908 9.90473C15.0808 9.77723 14.947 9.61973 14.7933 9.43848Z" fill="#E2C022"/>
<path d="M15.4995 10.275C15.4995 10.275 15.3858 10.1388 15.1895 9.90625C13.7145 11.1975 12.2558 12.52 10.8745 14C10.4683 14.325 10.1145 14.7313 9.67578 14.9563L9.81078 15.5H11.182C12.597 13.75 14.2458 12.225 15.4995 10.4012V10.275Z" fill="url(#paint2_linear)"/>
<path d="M15.5001 10.4014C14.2451 12.2251 12.5976 13.7501 11.1826 15.5001H13.4114C13.9226 14.0001 14.7126 12.7401 15.5014 11.4289V10.4014H15.5001Z" fill="#E2C022"/>
<path d="M15.5002 11.4287C14.7127 12.74 13.9227 14 13.4102 15.5H15.5002V11.4287Z" fill="url(#paint3_linear)"/>
<path d="M13.9099 8.41406C12.2849 9.85906 10.7212 11.3053 9.10742 12.7503L9.36367 13.7291C11.1062 12.2478 13.1062 10.9403 14.7937 9.44031C14.5449 9.14906 14.2437 8.79781 13.9099 8.41406Z" fill="url(#paint4_linear)"/>
<path d="M7.95655 2.67898C8.04405 2.67898 8.1453 2.74773 8.2578 2.88273C8.35655 3.00148 8.3928 3.19523 8.4303 3.40023C8.46155 3.57148 8.5953 3.69773 8.7678 3.70773C9.24655 3.81023 11.7503 6.09273 15.1253 9.75898V15.1252H10.1053L8.8178 10.2165C8.77655 10.0602 8.6428 9.94524 8.48155 9.93524C8.4728 9.93524 8.46655 9.93398 8.4578 9.93398C8.3053 9.93398 8.16905 10.024 8.11155 10.1665C8.09905 10.194 7.80655 10.8477 6.7453 11.2315C6.3278 11.3827 5.85905 11.459 5.3528 11.459C4.9453 11.459 4.6153 11.4077 4.45405 11.3777C4.43155 11.3727 4.40405 11.3715 4.38155 11.3715C4.19405 11.3715 4.0853 11.4702 3.7653 11.7652C3.5678 11.9465 3.1578 12.3227 2.9928 12.374C2.8178 12.4277 2.63155 12.4552 2.4403 12.4552C1.94905 12.4552 1.5228 12.2752 1.31905 12.0977C0.852798 11.6902 0.797798 10.8027 0.984048 10.1302C1.0078 10.0852 1.1528 9.84148 1.94155 8.92898C3.75405 6.83648 7.1778 3.21898 7.5253 2.91773C7.7128 2.75773 7.85405 2.67898 7.95655 2.67898ZM7.95655 2.30273C7.71905 2.30273 7.4928 2.45148 7.2803 2.63523C6.90655 2.95898 3.4378 6.63023 1.6578 8.68524C1.06655 9.36773 0.667798 9.87148 0.626548 10.0152C0.404048 10.799 0.459048 11.8477 1.07155 12.3827C1.34655 12.6227 1.8653 12.8327 2.4403 12.8327C2.65655 12.8327 2.8803 12.8027 3.10405 12.734C3.5053 12.6102 4.27655 11.7477 4.3828 11.7477H4.3853C4.57155 11.7827 4.92155 11.8365 5.35405 11.8365C5.80405 11.8365 6.34155 11.779 6.8753 11.5852C8.1278 11.1315 8.4603 10.3115 8.4603 10.3115L9.8153 15.5002H15.5015V9.61148C15.5015 9.61148 9.7528 3.36398 8.7903 3.33148C8.7453 3.08273 8.70405 2.83398 8.5428 2.64148C8.3378 2.39648 8.1453 2.30273 7.95655 2.30273Z" fill="#787878"/>
<path d="M6.34863 7.79844C6.79736 7.79844 7.16113 7.3871 7.16113 6.87969C7.16113 6.37228 6.79736 5.96094 6.34863 5.96094C5.8999 5.96094 5.53613 6.37228 5.53613 6.87969C5.53613 7.3871 5.8999 7.79844 6.34863 7.79844Z" fill="#E2C022"/>
<path d="M5.6875 1.28152L6.4375 3.46902C6.4375 3.46902 6.78 3.48277 7.37 3.64902C7.35625 2.74527 7.30375 1.84152 7.10625 0.936523C6.6375 1.00152 6.165 1.11652 5.6875 1.28152Z" fill="#E2C022"/>
<path d="M7.10645 0.936042C7.30395 1.83979 7.35645 2.74354 7.3702 3.64854C7.6852 3.73729 8.07395 3.87104 8.51645 4.06854C8.7302 3.06354 8.74895 1.99354 8.7502 0.918542C8.2077 0.854792 7.6602 0.858542 7.10645 0.936042Z" fill="#C7C7C7"/>
<path d="M8.75035 0.917969C8.7491 1.99297 8.73035 3.06297 8.5166 4.06797C8.9366 4.25422 9.4066 4.50047 9.9141 4.82047C10.1629 3.72422 10.6566 2.62172 10.6404 1.43172C10.0154 1.16422 9.3866 0.992969 8.75035 0.917969Z" fill="#E2C022"/>
<path d="M10.6403 1.43262C10.6566 2.62262 10.1628 3.72387 9.91406 4.82137C10.3441 5.09262 10.8016 5.42012 11.2803 5.81137C11.7991 4.74762 12.2728 3.59637 12.2641 2.35637C11.7253 1.97387 11.1853 1.66637 10.6403 1.43262Z" fill="#C7C7C7"/>
<path d="M12.7087 2.6877C12.5636 2.57368 12.4156 2.46323 12.265 2.35645C12.2738 3.5952 11.8 4.7477 11.2812 5.81145C11.415 5.92145 11.5513 6.03645 11.6888 6.15645C12.025 6.45145 12.33 6.7402 12.6125 7.02145C13.2538 5.97145 13.6763 4.85395 13.8313 3.6677C13.5175 3.36145 13.1475 3.03395 12.7087 2.6877Z" fill="#E2C022"/>
<path d="M13.8301 3.66797C13.6738 4.85422 13.2513 5.97172 12.6113 7.02172C13.0213 7.43172 13.3763 7.82422 13.6838 8.19297C14.3038 7.24047 14.8138 6.22047 15.0288 5.09797C14.7788 4.71047 14.4013 4.22672 13.8301 3.66797Z" fill="#C7C7C7"/>
<path d="M15.4998 6.10418C15.4998 6.10418 15.4386 5.73293 15.0286 5.09668C14.8123 6.21918 14.3036 7.23918 13.6836 8.19168C14.0811 8.66793 14.3948 9.10418 14.6448 9.48668C15.0086 8.91918 15.2736 8.31918 15.5011 7.70668V6.10418H15.4998Z" fill="#E2C022"/>
<path d="M15.4998 7.70703C15.2723 8.31953 15.0073 8.91953 14.6436 9.48703C15.2986 10.4908 15.4998 11.1245 15.4998 11.1245V7.70703Z" fill="#C7C7C7"/>
<path d="M8.0125 1.24707C9.53625 1.24707 10.9962 1.81457 12.4762 2.98207C14.6887 4.72707 15.08 5.97207 15.125 6.14457V9.53957C14.55 8.60707 13.565 7.30957 11.935 5.87582C9.4575 3.69457 7.42 3.22207 6.715 3.12082L6.16625 1.52082C6.79125 1.33832 7.41 1.24707 8.0125 1.24707ZM8.0125 0.87207C7.24875 0.87207 6.475 1.00832 5.6875 1.28082L6.4375 3.46832C6.4375 3.46832 8.73375 3.55832 11.6875 6.15582C14.8025 8.89582 15.5 11.1246 15.5 11.1246V6.10332C15.5 6.10332 15.2712 4.70707 12.7087 2.68707C11.1687 1.47332 9.6125 0.87207 8.0125 0.87207Z" fill="#E2C022"/>
<path d="M2.3484 9.65352C2.5509 9.70727 2.6884 9.91477 2.69965 10.1235C2.7109 10.3323 2.61215 10.5348 2.46965 10.6885C2.29965 10.8735 2.05215 10.8535 1.98965 10.581C1.95715 10.441 2.0984 10.256 2.06465 10.0998C2.0259 9.92352 1.4959 9.95727 1.82715 9.76352C1.97715 9.67602 2.17465 9.60727 2.3484 9.65352Z" fill="#0F0F0F"/>
<path d="M8.49781 1.28086C8.64156 1.05211 8.99406 1.08086 9.09656 1.32961C9.59031 2.53961 10.4678 5.24586 8.39156 5.15211C6.34781 5.05961 7.77781 2.42461 8.49781 1.28086Z" fill="url(#paint5_linear)"/>
<path d="M9.04705 3.33534C9.0583 3.52784 9.05205 3.72784 8.9733 3.90659C8.89455 4.08534 8.7258 4.23659 8.5358 4.24284C8.3233 4.24909 8.1458 4.07159 8.08455 3.86659C8.0233 3.66159 8.0533 3.43784 8.0958 3.22409C8.14455 2.97659 8.4783 2.17909 8.7733 1.70409C8.86205 1.55784 9.0333 3.10034 9.04705 3.33534Z" fill="#595959"/>
<defs>
<linearGradient id="paint0_linear" x1="7.73327" y1="2.2296" x2="7.73327" y2="11.8328" gradientUnits="userSpaceOnUse">
<stop offset="0.232" stop-color="white"/>
<stop offset="0.412" stop-color="#FCFCFC"/>
<stop offset="0.566" stop-color="#F1F1F1"/>
<stop offset="0.71" stop-color="#DFDFDF"/>
<stop offset="0.848" stop-color="#C7C7C7"/>
<stop offset="0.905" stop-color="#BABABA"/>
</linearGradient>
<linearGradient id="paint1_linear" x1="11.3756" y1="5.52822" x2="11.3756" y2="8.51059" gradientUnits="userSpaceOnUse">
<stop offset="0.232" stop-color="white"/>
<stop offset="0.412" stop-color="#FCFCFC"/>
<stop offset="0.566" stop-color="#F1F1F1"/>
<stop offset="0.71" stop-color="#DFDFDF"/>
<stop offset="0.848" stop-color="#C7C7C7"/>
<stop offset="0.905" stop-color="#BABABA"/>
</linearGradient>
<linearGradient id="paint2_linear" x1="12.5883" y1="9.84888" x2="12.5883" y2="15.52" gradientUnits="userSpaceOnUse">
<stop offset="0.232" stop-color="white"/>
<stop offset="0.412" stop-color="#FCFCFC"/>
<stop offset="0.566" stop-color="#F1F1F1"/>
<stop offset="0.71" stop-color="#DFDFDF"/>
<stop offset="0.848" stop-color="#C7C7C7"/>
<stop offset="0.905" stop-color="#BABABA"/>
</linearGradient>
<linearGradient id="paint3_linear" x1="14.4552" y1="11.3871" x2="14.4552" y2="15.515" gradientUnits="userSpaceOnUse">
<stop offset="0.232" stop-color="white"/>
<stop offset="0.412" stop-color="#FCFCFC"/>
<stop offset="0.566" stop-color="#F1F1F1"/>
<stop offset="0.71" stop-color="#DFDFDF"/>
<stop offset="0.848" stop-color="#C7C7C7"/>
<stop offset="0.905" stop-color="#BABABA"/>
</linearGradient>
<linearGradient id="paint4_linear" x1="11.9504" y1="8.35906" x2="11.9504" y2="13.7478" gradientUnits="userSpaceOnUse">
<stop offset="0.232" stop-color="white"/>
<stop offset="0.412" stop-color="#FCFCFC"/>
<stop offset="0.566" stop-color="#F1F1F1"/>
<stop offset="0.71" stop-color="#DFDFDF"/>
<stop offset="0.848" stop-color="#C7C7C7"/>
<stop offset="0.905" stop-color="#BABABA"/>
</linearGradient>
<linearGradient id="paint5_linear" x1="8.52281" y1="1.15586" x2="8.52281" y2="5.07224" gradientUnits="userSpaceOnUse">
<stop offset="0.095" stop-color="#BABABA"/>
<stop offset="0.152" stop-color="#C7C7C7"/>
<stop offset="0.29" stop-color="#DFDFDF"/>
<stop offset="0.434" stop-color="#F1F1F1"/>
<stop offset="0.588" stop-color="#FCFCFC"/>
<stop offset="0.768" stop-color="white"/>
</linearGradient>
</defs>
</svg>
