<svg width="14" height="14" viewBox="0 0 14 14" fill="none" xmlns="http://www.w3.org/2000/svg">
<path fill-rule="evenodd" clip-rule="evenodd" d="M0 6.66667C0 2.98467 2.98467 0 6.66667 0C10.3487 0 13.3333 2.98467 13.3333 6.66667C13.3333 10.3487 10.3487 13.3333 6.66667 13.3333C2.98467 13.3333 0 10.3487 0 6.66667ZM6.66667 1.33333C5.25218 1.33333 3.89562 1.89524 2.89543 2.89543C1.89524 3.89562 1.33333 5.25218 1.33333 6.66667C1.33333 8.08115 1.89524 9.43771 2.89543 10.4379C3.89562 11.4381 5.25218 12 6.66667 12C8.08115 12 9.43771 11.4381 10.4379 10.4379C11.4381 9.43771 12 8.08115 12 6.66667C12 5.25218 11.4381 3.89562 10.4379 2.89543C9.43771 1.89524 8.08115 1.33333 6.66667 1.33333Z" fill="#A2792C"/>
<path fill-rule="evenodd" clip-rule="evenodd" d="M7.33329 3.33268C7.33329 3.15587 7.26305 2.9863 7.13803 2.86128C7.01301 2.73625 6.84344 2.66602 6.66663 2.66602C6.48981 2.66602 6.32025 2.73625 6.19522 2.86128C6.0702 2.9863 5.99996 3.15587 5.99996 3.33268V5.99935H3.33329C3.15648 5.99935 2.98691 6.06959 2.86189 6.19461C2.73686 6.31964 2.66663 6.4892 2.66663 6.66602C2.66663 6.84283 2.73686 7.0124 2.86189 7.13742C2.98691 7.26244 3.15648 7.33268 3.33329 7.33268H5.99996V9.99935C5.99996 10.1762 6.0702 10.3457 6.19522 10.4708C6.32025 10.5958 6.48981 10.666 6.66663 10.666C6.84344 10.666 7.01301 10.5958 7.13803 10.4708C7.26305 10.3457 7.33329 10.1762 7.33329 9.99935V7.33268H9.99996C10.1768 7.33268 10.3463 7.26244 10.4714 7.13742C10.5964 7.0124 10.6666 6.84283 10.6666 6.66602C10.6666 6.4892 10.5964 6.31964 10.4714 6.19461C10.3463 6.06959 10.1768 5.99935 9.99996 5.99935H7.33329V3.33268Z" fill="#A2792C"/>
</svg>
